<?xml version="1.0" encoding="UTF-8" standalone='no'?>
<!DOCTYPE score-partwise PUBLIC "-//Recordare//DTD MusicXML 1.0 Partwise//EN" "http://www.musicxml.org/dtds/partwise.dtd">
<score-partwise>
<work>
<work-title>Adonaï Shamma</work-title>
</work>
<identification>
<creator type="transcriber">Corinne Lafitte</creator>
<rights>© 2010 Corinne Lafitte</rights>
<encoding>
<software>Noteworthy Composer</software>
<encoding-date>2015-05-29</encoding-date>
</encoding>
</identification>
<part-list>
<score-part id="P1">
<part-name>Mélodie</part-name>
<score-instrument id="P1-I1">
<instrument-name>String Ensemble 1</instrument-name>
</score-instrument>
<midi-instrument id="P1-I1">
<midi-channel>1</midi-channel>
<midi-program>50</midi-program>
</midi-instrument>
</score-part>
</part-list>
<part id="P1">
<measure number="1">
<attributes>
<divisions>48</divisions>
</attributes>
<attributes>
<clef>
<sign>G</sign>
<line>2</line>
</clef>
</attributes>
<attributes>
<key>
<fifths>3</fifths>
</key>
</attributes>
<attributes>
<time symbol="common">
<beats>4</beats>
<beat-type>4</beat-type>
</time>
</attributes>
<note>
<pitch>
<step>C</step>
<alter>1</alter>
<octave>4</octave>
</pitch>
<duration>24</duration>
<type>eighth</type>
<stem>up</stem>
<beam number="1">begin</beam>
<notations>
<slur type="start" number="1"/>
</notations>
<lyric number="1">
<syllabic>begin</syllabic>
<text>Sha</text>
</lyric>
</note>
<note>
<pitch>
<step>F</step>
<alter>1</alter>
<octave>4</octave>
</pitch>
<duration>24</duration>
<type>eighth</type>
<stem>up</stem>
<beam number="1">continue</beam>
<notations>
<slur type="stop" number="1"/>
</notations>
</note>
<note>
<pitch>
<step>F</step>
<alter>1</alter>
<octave>4</octave>
</pitch>
<duration>144</duration>
<type>half</type>
<dot/>
<lyric number="1">
<syllabic>end</syllabic>
<text>lom,</text>
</lyric>
</note>
</measure>
<measure number="2">
<note>
<pitch>
<step>G</step>
<alter>1</alter>
<octave>4</octave>
</pitch>
<duration>24</duration>
<type>eighth</type>
<stem>up</stem>
<beam number="1">begin</beam>
<notations>
<slur type="start" number="1"/>
</notations>
<lyric number="1">
<syllabic>begin</syllabic>
<text>sha</text>
</lyric>
</note>
<note>
<pitch>
<step>E</step>
<octave>4</octave>
</pitch>
<duration>12</duration>
<type>16th</type>
<stem>up</stem>
<beam number="1">end</beam>
<notations>
<slur type="continue" number="1"/>
</notations>
</note>
<note>
<pitch>
<step>C</step>
<alter>1</alter>
<octave>4</octave>
</pitch>
<duration>12</duration>
<type>16th</type>
<stem>up</stem>
<beam number="1">continue</beam>
<notations>
<slur type="stop" number="1"/>
</notations>
</note>
<note>
<pitch>
<step>C</step>
<alter>1</alter>
<octave>4</octave>
</pitch>
<duration>96</duration>
<type>half</type>
<lyric number="1">
<syllabic>end</syllabic>
<text>lom,</text>
</lyric>
</note>
<note>
<rest/>
<duration>24</duration>
<type>eighth</type>
</note>
<note>
<pitch>
<step>D</step>
<octave>4</octave>
</pitch>
<duration>12</duration>
<type>16th</type>
<stem>up</stem>
<beam number="1">begin</beam>
<lyric number="1">
<syllabic>begin</syllabic>
<text>Re</text>
</lyric>
</note>
<note>
<pitch>
<step>C</step>
<alter>1</alter>
<octave>4</octave>
</pitch>
<duration>12</duration>
<type>16th</type>
<stem>up</stem>
<beam number="1">continue</beam>
<lyric number="1">
<syllabic>middle</syllabic>
<text>ce</text>
</lyric>
</note>
</measure>
<measure number="3">
<note>
<pitch>
<step>B</step>
<octave>3</octave>
</pitch>
<duration>24</duration>
<type>eighth</type>
<stem>up</stem>
<beam number="1">begin</beam>
<lyric number="1">
<syllabic>end</syllabic>
<text>vez</text>
</lyric>
</note>
<note>
<pitch>
<step>F</step>
<alter>1</alter>
<octave>4</octave>
</pitch>
<duration>24</duration>
<type>eighth</type>
<stem>up</stem>
<beam number="1">continue</beam>
<lyric number="1">
<syllabic>single</syllabic>
<text>la</text>
</lyric>
</note>
<note>
<pitch>
<step>F</step>
<alter>1</alter>
<octave>4</octave>
</pitch>
<duration>36</duration>
<type>eighth</type>
<dot/>
<stem>up</stem>
<beam number="1">begin</beam>
<lyric number="1">
<syllabic>single</syllabic>
<text>paix</text>
</lyric>
</note>
<note>
<pitch>
<step>F</step>
<alter>1</alter>
<octave>4</octave>
</pitch>
<duration>12</duration>
<type>16th</type>
<stem>up</stem>
<beam number="1">continue</beam>
<lyric number="1">
<syllabic>single</syllabic>
<text>qui</text>
</lyric>
</note>
<note>
<pitch>
<step>F</step>
<alter>1</alter>
<octave>4</octave>
</pitch>
<duration>32</duration>
<type>quarter</type>
<time-modification>
<actual-notes>3</actual-notes>
<normal-notes>2</normal-notes>
</time-modification>
<stem>up</stem>
<notations>
<tuplet type="start" placement="above"/>
</notations>
<lyric number="1">
<syllabic>single</syllabic>
<text>est</text>
</lyric>
</note>
<note>
<pitch>
<step>G</step>
<alter>1</alter>
<octave>4</octave>
</pitch>
<duration>32</duration>
<type>quarter</type>
<time-modification>
<actual-notes>3</actual-notes>
<normal-notes>2</normal-notes>
</time-modification>
<stem>up</stem>
<notations/>
<lyric number="1">
<syllabic>single</syllabic>
<text>dans</text>
</lyric>
</note>
<note>
<pitch>
<step>A</step>
<octave>4</octave>
</pitch>
<duration>32</duration>
<type>quarter</type>
<time-modification>
<actual-notes>3</actual-notes>
<normal-notes>2</normal-notes>
</time-modification>
<stem>up</stem>
<notations>
<tuplet type="stop" placement="above"/>
</notations>
<lyric number="1">
<syllabic>single</syllabic>
<text>les</text>
</lyric>
</note>
</measure>
<measure number="4">
<note>
<pitch>
<step>G</step>
<alter>1</alter>
<octave>4</octave>
</pitch>
<duration>192</duration>
<type>whole</type>
<lyric number="1">
<syllabic>single</syllabic>
<text>cieux.</text>
</lyric>
</note>
</measure>
<measure number="5">
<note>
<pitch>
<step>C</step>
<alter>1</alter>
<octave>4</octave>
</pitch>
<duration>24</duration>
<type>eighth</type>
<stem>up</stem>
<beam number="1">begin</beam>
<notations>
<slur type="start" number="1"/>
</notations>
<lyric number="1">
<syllabic>begin</syllabic>
<text>Sha</text>
</lyric>
</note>
<note>
<pitch>
<step>F</step>
<alter>1</alter>
<octave>4</octave>
</pitch>
<duration>24</duration>
<type>eighth</type>
<stem>up</stem>
<beam number="1">continue</beam>
<notations>
<slur type="stop" number="1"/>
</notations>
</note>
<note>
<pitch>
<step>F</step>
<alter>1</alter>
<octave>4</octave>
</pitch>
<duration>144</duration>
<type>half</type>
<dot/>
<lyric number="1">
<syllabic>end</syllabic>
<text>lom,</text>
</lyric>
</note>
</measure>
<measure number="6">
<note>
<pitch>
<step>G</step>
<alter>1</alter>
<octave>4</octave>
</pitch>
<duration>24</duration>
<type>eighth</type>
<stem>up</stem>
<beam number="1">begin</beam>
<notations>
<slur type="start" number="1"/>
</notations>
<lyric number="1">
<syllabic>begin</syllabic>
<text>sha</text>
</lyric>
</note>
<note>
<pitch>
<step>E</step>
<octave>4</octave>
</pitch>
<duration>12</duration>
<type>16th</type>
<stem>up</stem>
<beam number="1">end</beam>
<notations>
<slur type="continue" number="1"/>
</notations>
</note>
<note>
<pitch>
<step>C</step>
<alter>1</alter>
<octave>4</octave>
</pitch>
<duration>12</duration>
<type>16th</type>
<stem>up</stem>
<beam number="1">continue</beam>
<notations>
<slur type="stop" number="1"/>
</notations>
</note>
<note>
<pitch>
<step>C</step>
<alter>1</alter>
<octave>4</octave>
</pitch>
<duration>96</duration>
<type>half</type>
<lyric number="1">
<syllabic>end</syllabic>
<text>lom,</text>
</lyric>
</note>
<note>
<rest/>
<duration>24</duration>
<type>eighth</type>
</note>
<note>
<pitch>
<step>D</step>
<octave>4</octave>
</pitch>
<duration>12</duration>
<type>16th</type>
<stem>up</stem>
<beam number="1">begin</beam>
<lyric number="1">
<syllabic>begin</syllabic>
<text>Re</text>
</lyric>
</note>
<note>
<pitch>
<step>C</step>
<alter>1</alter>
<octave>4</octave>
</pitch>
<duration>12</duration>
<type>16th</type>
<stem>up</stem>
<beam number="1">continue</beam>
<lyric number="1">
<syllabic>middle</syllabic>
<text>ce</text>
</lyric>
</note>
</measure>
<measure number="7">
<note>
<pitch>
<step>B</step>
<octave>3</octave>
</pitch>
<duration>24</duration>
<type>eighth</type>
<stem>up</stem>
<beam number="1">begin</beam>
<lyric number="1">
<syllabic>end</syllabic>
<text>vez</text>
</lyric>
</note>
<note>
<pitch>
<step>F</step>
<alter>1</alter>
<octave>4</octave>
</pitch>
<duration>24</duration>
<type>eighth</type>
<stem>up</stem>
<beam number="1">continue</beam>
<lyric number="1">
<syllabic>single</syllabic>
<text>la</text>
</lyric>
</note>
<note>
<pitch>
<step>F</step>
<alter>1</alter>
<octave>4</octave>
</pitch>
<duration>36</duration>
<type>eighth</type>
<dot/>
<stem>up</stem>
<beam number="1">begin</beam>
<lyric number="1">
<syllabic>single</syllabic>
<text>paix</text>
</lyric>
</note>
<note>
<pitch>
<step>F</step>
<alter>1</alter>
<octave>4</octave>
</pitch>
<duration>12</duration>
<type>16th</type>
<stem>up</stem>
<beam number="1">continue</beam>
<lyric number="1">
<syllabic>single</syllabic>
<text>qui</text>
</lyric>
</note>
<note>
<pitch>
<step>F</step>
<alter>1</alter>
<octave>4</octave>
</pitch>
<duration>32</duration>
<type>quarter</type>
<time-modification>
<actual-notes>3</actual-notes>
<normal-notes>2</normal-notes>
</time-modification>
<stem>up</stem>
<notations>
<tuplet type="start" placement="above"/>
</notations>
<lyric number="1">
<syllabic>single</syllabic>
<text>est</text>
</lyric>
</note>
<note>
<pitch>
<step>G</step>
<alter>1</alter>
<octave>4</octave>
</pitch>
<duration>32</duration>
<type>quarter</type>
<time-modification>
<actual-notes>3</actual-notes>
<normal-notes>2</normal-notes>
</time-modification>
<stem>up</stem>
<notations/>
<lyric number="1">
<syllabic>single</syllabic>
<text>dans</text>
</lyric>
</note>
<note>
<pitch>
<step>A</step>
<octave>4</octave>
</pitch>
<duration>32</duration>
<type>quarter</type>
<time-modification>
<actual-notes>3</actual-notes>
<normal-notes>2</normal-notes>
</time-modification>
<stem>up</stem>
<notations>
<tuplet type="stop" placement="above"/>
</notations>
<lyric number="1">
<syllabic>single</syllabic>
<text>les</text>
</lyric>
</note>
</measure>
<measure number="8">
<note>
<pitch>
<step>G</step>
<alter>1</alter>
<octave>4</octave>
</pitch>
<duration>144</duration>
<type>half</type>
<dot/>
<lyric number="1">
<syllabic>single</syllabic>
<text>cieux.</text>
</lyric>
</note>
<note>
<rest/>
<duration>24</duration>
<type>eighth</type>
</note>
<note>
<pitch>
<step>F</step>
<alter>1</alter>
<octave>4</octave>
</pitch>
<duration>12</duration>
<type>16th</type>
<stem>up</stem>
<beam number="1">begin</beam>
<lyric number="1">
<syllabic>begin</syllabic>
<text>A</text>
</lyric>
</note>
<note>
<pitch>
<step>G</step>
<alter>1</alter>
<octave>4</octave>
</pitch>
<duration>12</duration>
<type>16th</type>
<stem>up</stem>
<beam number="1">continue</beam>
<lyric number="1">
<syllabic>middle</syllabic>
<text>do</text>
</lyric>
</note>
</measure>
<measure number="9">
<note>
<pitch>
<step>A</step>
<octave>4</octave>
</pitch>
<duration>48</duration>
<type>quarter</type>
<lyric number="1">
<syllabic>end</syllabic>
<text>naï</text>
</lyric>
</note>
<note>
<pitch>
<step>F</step>
<alter>1</alter>
<octave>4</octave>
</pitch>
<duration>24</duration>
<type>eighth</type>
<lyric number="1">
<syllabic>begin</syllabic>
<text>sham</text>
</lyric>
</note>
<note>
<pitch>
<step>F</step>
<alter>1</alter>
<octave>4</octave>
</pitch>
<duration>72</duration>
<type>quarter</type>
<dot/>
<lyric number="1">
<syllabic>end</syllabic>
<text>ma,</text>
</lyric>
</note>
<note>
<rest/>
<duration>36</duration>
<type>eighth</type>
<dot/>
</note>
<note>
<pitch>
<step>C</step>
<alter>1</alter>
<octave>4</octave>
</pitch>
<duration>12</duration>
<type>16th</type>
<lyric number="1">
<syllabic>single</syllabic>
<text>tu</text>
</lyric>
</note>
</measure>
<measure number="10">
<note>
<pitch>
<step>G</step>
<alter>1</alter>
<octave>4</octave>
</pitch>
<duration>48</duration>
<type>quarter</type>
<lyric number="1">
<syllabic>single</syllabic>
<text>es</text>
</lyric>
</note>
<note>
<pitch>
<step>F</step>
<alter>1</alter>
<octave>4</octave>
</pitch>
<duration>48</duration>
<type>quarter</type>
<lyric number="1">
<syllabic>begin</syllabic>
<text>i</text>
</lyric>
</note>
<note>
<pitch>
<step>E</step>
<octave>4</octave>
</pitch>
<duration>48</duration>
<type>quarter</type>
<lyric number="1">
<syllabic>end</syllabic>
<text>ci.</text>
</lyric>
</note>
<note>
<rest/>
<duration>24</duration>
<type>eighth</type>
</note>
<note>
<pitch>
<step>F</step>
<alter>1</alter>
<octave>4</octave>
</pitch>
<duration>12</duration>
<type>16th</type>
<stem>up</stem>
<beam number="1">begin</beam>
<lyric number="1">
<syllabic>begin</syllabic>
<text>A</text>
</lyric>
</note>
<note>
<pitch>
<step>G</step>
<alter>1</alter>
<octave>4</octave>
</pitch>
<duration>12</duration>
<type>16th</type>
<stem>up</stem>
<beam number="1">continue</beam>
<lyric number="1">
<syllabic>middle</syllabic>
<text>do</text>
</lyric>
</note>
</measure>
<measure number="11">
<note>
<pitch>
<step>A</step>
<octave>4</octave>
</pitch>
<duration>48</duration>
<type>quarter</type>
<lyric number="1">
<syllabic>end</syllabic>
<text>naï</text>
</lyric>
</note>
<note>
<pitch>
<step>F</step>
<alter>1</alter>
<octave>4</octave>
</pitch>
<duration>24</duration>
<type>eighth</type>
<lyric number="1">
<syllabic>begin</syllabic>
<text>ro</text>
</lyric>
</note>
<note>
<pitch>
<step>F</step>
<alter>1</alter>
<octave>4</octave>
</pitch>
<duration>72</duration>
<type>quarter</type>
<dot/>
<lyric number="1">
<syllabic>end</syllabic>
<text>phé,</text>
</lyric>
</note>
<note>
<rest/>
<duration>36</duration>
<type>eighth</type>
<dot/>
</note>
<note>
<pitch>
<step>F</step>
<alter>1</alter>
<octave>4</octave>
</pitch>
<duration>12</duration>
<type>16th</type>
<lyric number="1">
<syllabic>single</syllabic>
<text>tu</text>
</lyric>
</note>
</measure>
<measure number="12">
<note>
<pitch>
<step>E</step>
<alter>1</alter>
<octave>4</octave>
</pitch>
<duration>48</duration>
<type>quarter</type>
<accidental>sharp</accidental>
<lyric number="1">
<syllabic>single</syllabic>
<text>me</text>
</lyric>
</note>
<note>
<pitch>
<step>F</step>
<alter>1</alter>
<octave>4</octave>
</pitch>
<duration>48</duration>
<type>quarter</type>
<lyric number="1">
<syllabic>begin</syllabic>
<text>gué</text>
</lyric>
</note>
<note>
<pitch>
<step>G</step>
<alter>1</alter>
<octave>4</octave>
</pitch>
<duration>48</duration>
<type>quarter</type>
<lyric number="1">
<syllabic>end</syllabic>
<text>ris.</text>
</lyric>
</note>
<note>
<rest/>
<duration>24</duration>
<type>eighth</type>
</note>
<note>
<pitch>
<step>F</step>
<alter>1</alter>
<octave>4</octave>
</pitch>
<duration>12</duration>
<type>16th</type>
<stem>up</stem>
<beam number="1">begin</beam>
<lyric number="1">
<syllabic>begin</syllabic>
<text>A</text>
</lyric>
</note>
<note>
<pitch>
<step>G</step>
<alter>1</alter>
<octave>4</octave>
</pitch>
<duration>12</duration>
<type>16th</type>
<stem>up</stem>
<beam number="1">continue</beam>
<lyric number="1">
<syllabic>middle</syllabic>
<text>do</text>
</lyric>
</note>
<note>
<pitch>
<step>A</step>
<octave>4</octave>
</pitch>
<duration>24</duration>
<type>eighth</type>
<stem>up</stem>
<beam number="1">begin</beam>
<notations>
<slur type="start" number="1"/>
</notations>
<lyric number="1">
<syllabic>end</syllabic>
<text>naï</text>
</lyric>
</note>
<note>
<pitch>
<step>F</step>
<alter>1</alter>
<octave>4</octave>
</pitch>
<duration>24</duration>
<type>eighth</type>
<stem>up</stem>
<beam number="1">continue</beam>
<notations>
<slur type="stop" number="1"/>
</notations>
</note>
<note>
<pitch>
<step>F</step>
<alter>1</alter>
<octave>4</octave>
</pitch>
<duration>24</duration>
<type>eighth</type>
<stem>up</stem>
<beam number="1">begin</beam>
<lyric number="1">
<syllabic>begin</syllabic>
<text>tsid</text>
</lyric>
</note>
<note>
<pitch>
<step>E</step>
<alter>1</alter>
<octave>4</octave>
</pitch>
<duration>12</duration>
<type>16th</type>
<stem>up</stem>
<beam number="1">end</beam>
<lyric number="1">
<syllabic>middle</syllabic>
<text>ke</text>
</lyric>
</note>
<note>
<pitch>
<step>F</step>
<alter>1</alter>
<octave>4</octave>
</pitch>
<duration>12</duration>
<tie type="start"/>
<type>16th</type>
<stem>up</stem>
<beam number="1">continue</beam>
<notations>
<tied type="start"/>
</notations>
<lyric number="1">
<syllabic>end</syllabic>
<text>nou,</text>
</lyric>
</note>
<note>
<pitch>
<step>F</step>
<alter>1</alter>
<octave>4</octave>
</pitch>
<duration>48</duration>
<tie type="stop"/>
<type>quarter</type>
<notations>
<tied type="stop"/>
</notations>
</note>
<note>
<rest/>
<duration>24</duration>
<type>eighth</type>
</note>
<note>
<pitch>
<step>C</step>
<alter>1</alter>
<octave>4</octave>
</pitch>
<duration>12</duration>
<type>16th</type>
<stem>up</stem>
<beam number="1">begin</beam>
<lyric number="1">
<syllabic>single</syllabic>
<text>tu</text>
</lyric>
</note>
<note>
<pitch>
<step>C</step>
<alter>1</alter>
<octave>4</octave>
</pitch>
<duration>12</duration>
<type>16th</type>
<stem>up</stem>
<beam number="1">continue</beam>
<lyric number="1">
<syllabic>single</syllabic>
<text>es</text>
</lyric>
</note>
</measure>
<measure number="13">
<note>
<pitch>
<step>G</step>
<alter>1</alter>
<octave>4</octave>
</pitch>
<duration>24</duration>
<type>eighth</type>
<stem>up</stem>
<beam number="1">begin</beam>
<notations>
<slur type="start" number="1"/>
</notations>
<lyric number="1">
<syllabic>begin</syllabic>
<text>no</text>
</lyric>
</note>
<note>
<pitch>
<step>E</step>
<octave>4</octave>
</pitch>
<duration>24</duration>
<type>eighth</type>
<stem>up</stem>
<beam number="1">continue</beam>
<notations>
<slur type="stop" number="1"/>
</notations>
</note>
<note>
<pitch>
<step>E</step>
<octave>4</octave>
</pitch>
<duration>24</duration>
<type>eighth</type>
<stem>up</stem>
<beam number="1">begin</beam>
<lyric number="1">
<syllabic>end</syllabic>
<text>tre</text>
</lyric>
</note>
<note>
<pitch>
<step>D</step>
<octave>4</octave>
</pitch>
<duration>12</duration>
<type>16th</type>
<stem>up</stem>
<beam number="1">end</beam>
<lyric number="1">
<syllabic>begin</syllabic>
<text>jus</text>
</lyric>
</note>
<note>
<pitch>
<step>E</step>
<octave>4</octave>
</pitch>
<duration>12</duration>
<tie type="start"/>
<type>16th</type>
<stem>up</stem>
<beam number="1">continue</beam>
<notations>
<tied type="start"/>
</notations>
<lyric number="1">
<syllabic>end</syllabic>
<text>tice,</text>
</lyric>
</note>
<note>
<pitch>
<step>E</step>
<octave>4</octave>
</pitch>
<duration>48</duration>
<tie type="stop"/>
<type>quarter</type>
<notations>
<tied type="stop"/>
</notations>
</note>
<note>
<rest/>
<duration>24</duration>
<type>eighth</type>
</note>
<note>
<pitch>
<step>F</step>
<alter>1</alter>
<octave>4</octave>
</pitch>
<duration>12</duration>
<type>16th</type>
<stem>up</stem>
<beam number="1">begin</beam>
<lyric number="1">
<syllabic>begin</syllabic>
<text>No</text>
</lyric>
</note>
<note>
<pitch>
<step>G</step>
<alter>1</alter>
<octave>4</octave>
</pitch>
<duration>12</duration>
<type>16th</type>
<stem>up</stem>
<beam number="1">continue</beam>
<lyric number="1">
<syllabic>end</syllabic>
<text>tre</text>
</lyric>
</note>
</measure>
<measure number="14">
<note>
<pitch>
<step>A</step>
<octave>4</octave>
</pitch>
<duration>24</duration>
<type>eighth</type>
<stem>up</stem>
<beam number="1">begin</beam>
<lyric number="1">
<syllabic>single</syllabic>
<text>Père</text>
</lyric>
</note>
<note>
<pitch>
<step>F</step>
<alter>1</alter>
<octave>4</octave>
</pitch>
<duration>12</duration>
<type>16th</type>
<stem>up</stem>
<beam number="1">end</beam>
<lyric number="1">
<syllabic>single</syllabic>
<text>qui</text>
</lyric>
</note>
<note>
<pitch>
<step>F</step>
<alter>1</alter>
<octave>4</octave>
</pitch>
<duration>12</duration>
<tie type="start"/>
<type>16th</type>
<stem>up</stem>
<beam number="1">continue</beam>
<notations>
<tied type="start"/>
</notations>
<lyric number="1">
<syllabic>single</syllabic>
<text>es</text>
</lyric>
</note>
<note>
<pitch>
<step>F</step>
<alter>1</alter>
<octave>4</octave>
</pitch>
<duration>24</duration>
<tie type="stop"/>
<type>eighth</type>
<stem>up</stem>
<beam number="1">begin</beam>
<notations>
<tied type="stop"/>
</notations>
</note>
<note>
<pitch>
<step>E</step>
<alter>1</alter>
<octave>4</octave>
</pitch>
<duration>12</duration>
<type>16th</type>
<accidental>sharp</accidental>
<stem>up</stem>
<beam number="1">end</beam>
<lyric number="1">
<syllabic>single</syllabic>
<text>aux</text>
</lyric>
</note>
<note>
<pitch>
<step>F</step>
<alter>1</alter>
<octave>4</octave>
</pitch>
<duration>12</duration>
<tie type="start"/>
<type>16th</type>
<stem>up</stem>
<beam number="1">continue</beam>
<notations>
<tied type="start"/>
</notations>
<lyric number="1">
<syllabic>single</syllabic>
<text>cieux</text>
</lyric>
</note>
<note>
<pitch>
<step>F</step>
<alter>1</alter>
<octave>4</octave>
</pitch>
<duration>48</duration>
<tie type="stop"/>
<type>quarter</type>
<notations>
<tied type="stop"/>
</notations>
</note>
<note>
<pitch>
<step>G</step>
<alter>1</alter>
<octave>4</octave>
</pitch>
<duration>24</duration>
<type>eighth</type>
<stem>up</stem>
<beam number="1">begin</beam>
<lyric number="1">
<syllabic>single</syllabic>
<text>Que</text>
</lyric>
</note>
<note>
<pitch>
<step>F</step>
<alter>1</alter>
<octave>4</octave>
</pitch>
<duration>24</duration>
<type>eighth</type>
<stem>up</stem>
<beam number="1">continue</beam>
<lyric number="1">
<syllabic>single</syllabic>
<text>ton</text>
</lyric>
</note>
</measure>
<measure number="15">
<note>
<pitch>
<step>E</step>
<alter>1</alter>
<octave>4</octave>
</pitch>
<duration>72</duration>
<type>quarter</type>
<dot/>
<accidental>sharp</accidental>
<lyric number="1">
<syllabic>single</syllabic>
<text>nom</text>
</lyric>
</note>
<note>
<pitch>
<step>F</step>
<alter>1</alter>
<octave>4</octave>
</pitch>
<duration>24</duration>
<type>eighth</type>
<lyric number="1">
<syllabic>single</syllabic>
<text>est</text>
</lyric>
</note>
<note>
<pitch>
<step>G</step>
<alter>1</alter>
<octave>4</octave>
</pitch>
<duration>48</duration>
<type>quarter</type>
<lyric number="1">
<syllabic>begin</syllabic>
<text>mer</text>
</lyric>
</note>
<note>
<pitch>
<step>E</step>
<alter>1</alter>
<octave>4</octave>
</pitch>
<duration>48</duration>
<type>quarter</type>
<lyric number="1">
<syllabic>middle</syllabic>
<text>veil</text>
</lyric>
</note>
</measure>
<measure number="16">
<note>
<pitch>
<step>F</step>
<alter>1</alter>
<octave>4</octave>
</pitch>
<duration>192</duration>
<type>whole</type>
<lyric number="1">
<syllabic>end</syllabic>
<text>leux.</text>
</lyric>
</note>
<barline location="right">
<bar-style>light-heavy</bar-style>
</barline>
</measure>
</part>
</score-partwise>
