<?xml version="1.0" encoding="UTF-8" standalone='no'?>
<!DOCTYPE score-partwise PUBLIC "-//Recordare//DTD MusicXML 1.0 Partwise//EN" "http://www.musicxml.org/dtds/partwise.dtd">
<score-partwise>
<work>
<work-title>Roi de majesté</work-title>
</work>
<identification>
<creator type="transcriber">Marty Sampson</creator>
<rights>© 2001 Marty Sampson / Hillsong Publishing</rights>
<encoding>
<software>Noteworthy Composer</software>
<encoding-date>2011-09-13</encoding-date>
</encoding>
</identification>
<part-list>
<score-part id="P1">
<part-name>Mélodie</part-name>
<score-instrument id="P1-I1">
<instrument-name>String Ensemble 1</instrument-name>
</score-instrument>
<midi-instrument id="P1-I1">
<midi-channel>1</midi-channel>
<midi-program>50</midi-program>
</midi-instrument>
</score-part>
</part-list>
<part id="P1">
<measure number="1">
<attributes>
<divisions>48</divisions>
</attributes>
<attributes>
<clef>
<sign>G</sign>
<line>2</line>
</clef>
</attributes>
<attributes>
<key>
<fifths>1</fifths>
</key>
</attributes>
<attributes>
<time>
<beats>4</beats>
<beat-type>4</beat-type>
</time>
</attributes>
<note>
<rest/>
<duration>48</duration>
<type>quarter</type>
</note>
<note>
<pitch>
<step>G</step>
<octave>4</octave>
</pitch>
<duration>48</duration>
<type>quarter</type>
<lyric number="1">
<syllabic>single</syllabic>
<text>Tu</text>
</lyric>
<lyric number="2">
<syllabic>single</syllabic>
<text>Ces</text>
</lyric>
</note>
<note>
<pitch>
<step>D</step>
<octave>4</octave>
</pitch>
<duration>48</duration>
<type>quarter</type>
<lyric number="1">
<syllabic>single</syllabic>
<text>sais</text>
</lyric>
<lyric number="2">
<syllabic>single</syllabic>
<text>mots</text>
</lyric>
</note>
<note>
<pitch>
<step>B</step>
<octave>3</octave>
</pitch>
<duration>48</duration>
<type>quarter</type>
<lyric number="1">
<syllabic>single</syllabic>
<text>que</text>
</lyric>
<lyric number="2">
<syllabic>single</syllabic>
<text>viennent</text>
</lyric>
</note>
</measure>
<measure number="2">
<note>
<rest/>
<duration>48</duration>
<type>quarter</type>
</note>
<note>
<pitch>
<step>D</step>
<octave>4</octave>
</pitch>
<duration>48</duration>
<type>quarter</type>
<lyric number="1">
<syllabic>single</syllabic>
<text>je</text>
</lyric>
<lyric number="2">
<syllabic>single</syllabic>
<text>de</text>
</lyric>
</note>
<note>
<pitch>
<step>E</step>
<octave>4</octave>
</pitch>
<duration>48</duration>
<type>quarter</type>
<lyric number="1">
<syllabic>single</syllabic>
<text>t'aime</text>
</lyric>
<lyric number="2">
<syllabic>single</syllabic>
<text>mon</text>
</lyric>
</note>
<note>
<pitch>
<step>F</step>
<alter>1</alter>
<octave>4</octave>
</pitch>
<duration>48</duration>
<type>quarter</type>
<lyric number="1">
<syllabic>single</syllabic>
<text>tant,</text>
</lyric>
<lyric number="2">
<syllabic>single</syllabic>
<text>cœur,</text>
</lyric>
</note>
</measure>
<measure number="3">
<note>
<rest/>
<duration>48</duration>
<type>quarter</type>
</note>
<note>
<pitch>
<step>G</step>
<octave>4</octave>
</pitch>
<duration>48</duration>
<type>quarter</type>
<lyric number="1">
<syllabic>single</syllabic>
<text>Tu</text>
</lyric>
<lyric number="2">
<syllabic>single</syllabic>
<text>Ces</text>
</lyric>
</note>
<note>
<pitch>
<step>D</step>
<octave>4</octave>
</pitch>
<duration>48</duration>
<type>quarter</type>
<lyric number="1">
<syllabic>single</syllabic>
<text>sais</text>
</lyric>
<lyric number="2">
<syllabic>single</syllabic>
<text>mots</text>
</lyric>
</note>
<note>
<pitch>
<step>B</step>
<octave>3</octave>
</pitch>
<duration>48</duration>
<type>quarter</type>
<lyric number="1">
<syllabic>single</syllabic>
<text>que</text>
</lyric>
<lyric number="2">
<syllabic>single</syllabic>
<text>sont</text>
</lyric>
</note>
</measure>
<measure number="4">
<note>
<rest/>
<duration>48</duration>
<type>quarter</type>
</note>
<note>
<pitch>
<step>D</step>
<octave>4</octave>
</pitch>
<duration>48</duration>
<type>quarter</type>
<lyric number="1">
<syllabic>single</syllabic>
<text>je</text>
</lyric>
<lyric number="2">
<syllabic>single</syllabic>
<text>bien</text>
</lyric>
</note>
<note>
<pitch>
<step>E</step>
<octave>4</octave>
</pitch>
<duration>48</duration>
<type>quarter</type>
<lyric number="1">
<syllabic>begin</syllabic>
<text>dé</text>
</lyric>
<lyric number="2">
<syllabic>begin</syllabic>
<text>ré</text>
</lyric>
</note>
<note>
<pitch>
<step>F</step>
<alter>1</alter>
<octave>4</octave>
</pitch>
<duration>48</duration>
<type>quarter</type>
<lyric number="1">
<syllabic>end</syllabic>
<text>sire</text>
</lyric>
<lyric number="2">
<syllabic>end</syllabic>
<text>els.</text>
</lyric>
</note>
</measure>
<measure number="5">
<note>
<pitch>
<step>G</step>
<octave>4</octave>
</pitch>
<duration>24</duration>
<type>eighth</type>
<stem>up</stem>
<beam number="1">begin</beam>
<lyric number="1">
<syllabic>begin</syllabic>
<text>ê</text>
</lyric>
<lyric number="2">
<syllabic>single</syllabic>
<text>Je</text>
</lyric>
</note>
<note>
<pitch>
<step>F</step>
<alter>1</alter>
<octave>4</octave>
</pitch>
<duration>12</duration>
<type>16th</type>
<stem>up</stem>
<beam number="1">end</beam>
<lyric number="1">
<syllabic>end</syllabic>
<text>tre</text>
</lyric>
<lyric number="2">
<syllabic>single</syllabic>
<text>vis</text>
</lyric>
</note>
<note>
<pitch>
<step>E</step>
<octave>4</octave>
</pitch>
<duration>12</duration>
<tie type="start"/>
<type>16th</type>
<stem>up</stem>
<beam number="1">continue</beam>
<notations>
<tied type="start"/>
</notations>
<lyric number="1">
<syllabic>single</syllabic>
<text>près</text>
</lyric>
<lyric number="2">
<syllabic>single</syllabic>
<text>pour</text>
</lyric>
</note>
<note>
<pitch>
<step>E</step>
<octave>4</octave>
</pitch>
<duration>12</duration>
<tie type="stop"/>
<type>16th</type>
<stem>up</stem>
<beam number="1">begin</beam>
<notations>
<tied type="stop"/>
</notations>
</note>
<note>
<pitch>
<step>D</step>
<octave>4</octave>
</pitch>
<duration>24</duration>
<type>eighth</type>
<stem>up</stem>
<beam number="1">end</beam>
<lyric number="1">
<syllabic>single</syllabic>
<text>de</text>
</lyric>
<lyric number="2">
<syllabic>single</syllabic>
<text>toi</text>
</lyric>
</note>
<note>
<pitch>
<step>D</step>
<octave>4</octave>
</pitch>
<duration>12</duration>
<tie type="start"/>
<type>16th</type>
<stem>up</stem>
<beam number="1">continue</beam>
<notations>
<tied type="start"/>
</notations>
<lyric number="1">
<syllabic>single</syllabic>
<text>toi,</text>
</lyric>
<lyric number="2">
<syllabic>single</syllabic>
<text>seul,</text>
</lyric>
</note>
<note>
<pitch>
<step>D</step>
<octave>4</octave>
</pitch>
<duration>96</duration>
<tie type="stop"/>
<type>half</type>
<notations>
<tied type="stop"/>
</notations>
</note>
</measure>
<measure number="6">
<barline location="left">
<ending type="start" number="1"/>
</barline>
<note>
<pitch>
<step>G</step>
<octave>4</octave>
</pitch>
<duration>36</duration>
<type>eighth</type>
<dot/>
<stem>up</stem>
<beam number="1">begin</beam>
<lyric number="1">
<syllabic>single</syllabic>
<text>Bien</text>
</lyric>
</note>
<note>
<pitch>
<step>F</step>
<alter>1</alter>
<octave>4</octave>
</pitch>
<duration>12</duration>
<tie type="start"/>
<type>16th</type>
<stem>up</stem>
<beam number="1">continue</beam>
<notations>
<tied type="start"/>
</notations>
<lyric number="1">
<syllabic>single</syllabic>
<text>plus</text>
</lyric>
</note>
<note>
<pitch>
<step>F</step>
<alter>1</alter>
<octave>4</octave>
</pitch>
<duration>24</duration>
<tie type="stop"/>
<type>eighth</type>
<stem>up</stem>
<beam number="1">begin</beam>
<notations>
<tied type="stop"/>
</notations>
</note>
<note>
<pitch>
<step>E</step>
<octave>4</octave>
</pitch>
<duration>24</duration>
<type>eighth</type>
<stem>up</stem>
<beam number="1">continue</beam>
<lyric number="1">
<syllabic>single</syllabic>
<text>près</text>
</lyric>
</note>
<note>
<pitch>
<step>E</step>
<octave>4</octave>
</pitch>
<duration>36</duration>
<type>eighth</type>
<dot/>
<stem>up</stem>
<beam number="1">begin</beam>
<lyric number="1">
<syllabic>begin</syllabic>
<text>qu'au</text>
</lyric>
</note>
<note>
<pitch>
<step>D</step>
<octave>4</octave>
</pitch>
<duration>12</duration>
<tie type="start"/>
<type>16th</type>
<stem>up</stem>
<beam number="1">continue</beam>
<notations>
<tied type="start"/>
</notations>
<lyric number="1">
<syllabic>middle</syllabic>
<text>pa</text>
</lyric>
</note>
<note>
<pitch>
<step>D</step>
<octave>4</octave>
</pitch>
<duration>24</duration>
<tie type="stop"/>
<type>eighth</type>
<stem>up</stem>
<beam number="1">begin</beam>
<notations>
<tied type="stop"/>
</notations>
</note>
<note>
<pitch>
<step>C</step>
<octave>4</octave>
</pitch>
<duration>24</duration>
<type>eighth</type>
<stem>up</stem>
<beam number="1">continue</beam>
<lyric number="1">
<syllabic>middle</syllabic>
<text>ra</text>
</lyric>
</note>
</measure>
<measure number="7">
<note>
<pitch>
<step>B</step>
<octave>3</octave>
</pitch>
<duration>96</duration>
<type>half</type>
<lyric number="1">
<syllabic>end</syllabic>
<text>vant.</text>
</lyric>
</note>
<note>
<rest/>
<duration>96</duration>
<type>half</type>
</note>
</measure>
<measure number="8">
<note>
<rest/>
<duration>192</duration>
<type>whole</type>
</note>
<barline location="right">
<bar-style>light-heavy</bar-style>
<ending type="stop" number="1"/>
<repeat direction="backward"/>
</barline>
</measure>
<measure number="9">
<barline location="left">
<ending type="start" number="2"/>
</barline>
<barline location="right">
<bar-style>light-heavy</bar-style>
</barline>
<note>
<pitch>
<step>G</step>
<octave>4</octave>
</pitch>
<duration>36</duration>
<type>eighth</type>
<dot/>
<stem>up</stem>
<beam number="1">begin</beam>
<lyric number="1">
<syllabic>single</syllabic>
<text>Car</text>
</lyric>
</note>
<note>
<pitch>
<step>F</step>
<alter>1</alter>
<octave>4</octave>
</pitch>
<duration>12</duration>
<tie type="start"/>
<type>16th</type>
<stem>up</stem>
<beam number="1">continue</beam>
<notations>
<tied type="start"/>
</notations>
<lyric number="1">
<syllabic>single</syllabic>
<text>je</text>
</lyric>
</note>
<note>
<pitch>
<step>F</step>
<alter>1</alter>
<octave>4</octave>
</pitch>
<duration>24</duration>
<tie type="stop"/>
<type>eighth</type>
<stem>up</stem>
<beam number="1">begin</beam>
<notations>
<tied type="stop"/>
</notations>
</note>
<note>
<pitch>
<step>E</step>
<octave>4</octave>
</pitch>
<duration>24</duration>
<type>eighth</type>
<stem>up</stem>
<beam number="1">continue</beam>
<lyric number="1">
<syllabic>single</syllabic>
<text>te</text>
</lyric>
</note>
<note>
<pitch>
<step>E</step>
<octave>4</octave>
</pitch>
<duration>36</duration>
<type>eighth</type>
<dot/>
<stem>up</stem>
<beam number="1">begin</beam>
<lyric number="1">
<syllabic>single</syllabic>
<text>suis</text>
</lyric>
</note>
<note>
<pitch>
<step>D</step>
<octave>4</octave>
</pitch>
<duration>12</duration>
<tie type="start"/>
<type>16th</type>
<stem>up</stem>
<beam number="1">continue</beam>
<notations>
<tied type="start"/>
</notations>
<lyric number="1">
<syllabic>begin</syllabic>
<text>con</text>
</lyric>
</note>
<note>
<pitch>
<step>D</step>
<octave>4</octave>
</pitch>
<duration>24</duration>
<tie type="stop"/>
<type>eighth</type>
<stem>up</stem>
<beam number="1">begin</beam>
<notations>
<tied type="stop"/>
</notations>
</note>
<note>
<pitch>
<step>C</step>
<octave>4</octave>
</pitch>
<duration>24</duration>
<type>eighth</type>
<stem>up</stem>
<beam number="1">continue</beam>
<lyric number="1">
<syllabic>middle</syllabic>
<text>sa</text>
</lyric>
</note>
</measure>
<measure number="10">
<note>
<pitch>
<step>B</step>
<octave>3</octave>
</pitch>
<duration>96</duration>
<type>half</type>
<lyric number="1">
<syllabic>end</syllabic>
<text>cré.</text>
</lyric>
</note>
<note>
<rest/>
<duration>96</duration>
<type>half</type>
</note>
</measure>
<measure number="11">
<note>
<rest/>
<duration>96</duration>
<type>half</type>
</note>
<note>
<pitch>
<step>G</step>
<octave>4</octave>
</pitch>
<duration>24</duration>
<type>eighth</type>
<stem>up</stem>
<beam number="1">begin</beam>
<lyric number="1">
<syllabic>single</syllabic>
<text>Roi</text>
</lyric>
</note>
<note>
<pitch>
<step>A</step>
<octave>4</octave>
</pitch>
<duration>24</duration>
<tie type="start"/>
<type>eighth</type>
<stem>up</stem>
<beam number="1">continue</beam>
<notations>
<tied type="start"/>
</notations>
<lyric number="1">
<syllabic>single</syllabic>
<text>de</text>
</lyric>
</note>
<note>
<pitch>
<step>A</step>
<octave>4</octave>
</pitch>
<duration>24</duration>
<tie type="stop"/>
<type>eighth</type>
<stem>up</stem>
<beam number="1">begin</beam>
<notations>
<tied type="stop"/>
</notations>
</note>
<note>
<pitch>
<step>A</step>
<octave>4</octave>
</pitch>
<duration>24</duration>
<tie type="start"/>
<type>eighth</type>
<stem>up</stem>
<beam number="1">continue</beam>
<notations>
<tied type="start"/>
</notations>
<lyric number="1">
<syllabic>begin</syllabic>
<text>ma</text>
</lyric>
</note>
</measure>
<measure number="12">
<barline location="left">
<bar-style>heavy-light</bar-style>
</barline>
<note>
<pitch>
<step>A</step>
<octave>4</octave>
</pitch>
<duration>144</duration>
<tie type="stop"/>
<type>half</type>
<dot/>
<notations>
<tied type="stop"/>
</notations>
</note>
<note>
<pitch>
<step>B</step>
<octave>4</octave>
</pitch>
<duration>24</duration>
<type>eighth</type>
<stem>up</stem>
<beam number="1">begin</beam>
<lyric number="1">
<syllabic>middle</syllabic>
<text>jes</text>
</lyric>
</note>
<note>
<pitch>
<step>G</step>
<octave>4</octave>
</pitch>
<duration>24</duration>
<tie type="start"/>
<type>eighth</type>
<stem>up</stem>
<beam number="1">continue</beam>
<notations>
<tied type="start"/>
</notations>
<lyric number="1">
<syllabic>end</syllabic>
<text>té,</text>
</lyric>
</note>
</measure>
<measure number="13">
<note>
<pitch>
<step>G</step>
<octave>4</octave>
</pitch>
<duration>72</duration>
<tie type="stop"/>
<type>quarter</type>
<dot/>
<notations>
<tied type="stop"/>
</notations>
</note>
<note>
<rest/>
<duration>24</duration>
<type>eighth</type>
</note>
<note>
<pitch>
<step>G</step>
<octave>4</octave>
</pitch>
<duration>24</duration>
<type>eighth</type>
<stem>up</stem>
<beam number="1">begin</beam>
<lyric number="1">
<syllabic>single</syllabic>
<text>je</text>
</lyric>
</note>
<note>
<pitch>
<step>A</step>
<octave>4</octave>
</pitch>
<duration>24</duration>
<tie type="start"/>
<type>eighth</type>
<stem>up</stem>
<beam number="1">continue</beam>
<notations>
<tied type="start"/>
</notations>
<lyric number="1">
<syllabic>single</syllabic>
<text>n'ai</text>
</lyric>
</note>
<note>
<pitch>
<step>A</step>
<octave>4</octave>
</pitch>
<duration>24</duration>
<tie type="stop"/>
<type>eighth</type>
<stem>up</stem>
<beam number="1">begin</beam>
<notations>
<tied type="stop"/>
</notations>
</note>
<note>
<pitch>
<step>A</step>
<octave>4</octave>
</pitch>
<duration>24</duration>
<tie type="start"/>
<type>eighth</type>
<stem>up</stem>
<beam number="1">continue</beam>
<notations>
<tied type="start"/>
</notations>
<lyric number="1">
<syllabic>single</syllabic>
<text>qu'un</text>
</lyric>
</note>
</measure>
<measure number="14">
<note>
<pitch>
<step>A</step>
<octave>4</octave>
</pitch>
<duration>96</duration>
<tie type="stop"/>
<type>half</type>
<notations>
<tied type="stop"/>
</notations>
</note>
<note>
<pitch>
<step>A</step>
<octave>4</octave>
</pitch>
<duration>24</duration>
<tie type="stop"/>
<type>eighth</type>
<stem>up</stem>
<beam number="1">begin</beam>
<notations>
<tied type="stop"/>
</notations>
</note>
<note>
<pitch>
<step>B</step>
<octave>4</octave>
</pitch>
<duration>24</duration>
<tie type="start"/>
<type>eighth</type>
<stem>up</stem>
<beam number="1">continue</beam>
<notations>
<tied type="start"/>
</notations>
<lyric number="1">
<syllabic>begin</syllabic>
<text>dé</text>
</lyric>
</note>
<note>
<pitch>
<step>B</step>
<octave>4</octave>
</pitch>
<duration>24</duration>
<tie type="stop"/>
<type>eighth</type>
<stem>up</stem>
<beam number="1">begin</beam>
<notations>
<tied type="stop"/>
</notations>
</note>
<note>
<pitch>
<step>G</step>
<octave>4</octave>
</pitch>
<duration>24</duration>
<type>eighth</type>
<stem>up</stem>
<beam number="1">continue</beam>
<notations>
<slur type="start" number="1"/>
</notations>
<lyric number="1">
<syllabic>end</syllabic>
<text>sir,</text>
</lyric>
</note>
</measure>
<measure number="15">
<note>
<pitch>
<step>E</step>
<octave>4</octave>
</pitch>
<duration>96</duration>
<type>half</type>
<notations>
<slur type="stop" number="1"/>
</notations>
</note>
<note>
<pitch>
<step>G</step>
<octave>4</octave>
</pitch>
<duration>24</duration>
<type>eighth</type>
<stem>up</stem>
<beam number="1">begin</beam>
<lyric number="1">
<syllabic>single</syllabic>
<text>Etre</text>
</lyric>
</note>
<note>
<pitch>
<step>A</step>
<octave>4</octave>
</pitch>
<duration>24</duration>
<tie type="start"/>
<type>eighth</type>
<stem>up</stem>
<beam number="1">continue</beam>
<notations>
<tied type="start"/>
</notations>
<lyric number="1">
<syllabic>single</syllabic>
<text>près</text>
</lyric>
</note>
<note>
<pitch>
<step>A</step>
<octave>4</octave>
</pitch>
<duration>24</duration>
<tie type="stop"/>
<type>eighth</type>
<stem>up</stem>
<beam number="1">begin</beam>
<notations>
<tied type="stop"/>
</notations>
</note>
<note>
<pitch>
<step>A</step>
<octave>4</octave>
</pitch>
<duration>24</duration>
<tie type="start"/>
<type>eighth</type>
<stem>up</stem>
<beam number="1">continue</beam>
<notations>
<tied type="start"/>
</notations>
<lyric number="1">
<syllabic>single</syllabic>
<text>de</text>
</lyric>
</note>
</measure>
<measure number="16">
<note>
<pitch>
<step>A</step>
<octave>4</octave>
</pitch>
<duration>48</duration>
<tie type="stop"/>
<type>quarter</type>
<notations>
<tied type="stop"/>
</notations>
</note>
<note>
<pitch>
<step>B</step>
<octave>4</octave>
</pitch>
<duration>24</duration>
<type>eighth</type>
<stem>up</stem>
<beam number="1">begin</beam>
<lyric number="1">
<syllabic>single</syllabic>
<text>toi,</text>
</lyric>
</note>
<note>
<pitch>
<step>A</step>
<octave>4</octave>
</pitch>
<duration>24</duration>
<tie type="start"/>
<type>eighth</type>
<stem>up</stem>
<beam number="1">continue</beam>
<notations>
<tied type="start"/>
</notations>
<lyric number="1">
<syllabic>single</syllabic>
<text>mon</text>
</lyric>
</note>
<note>
<pitch>
<step>A</step>
<octave>4</octave>
</pitch>
<duration>24</duration>
<tie type="stop"/>
<type>eighth</type>
<stem>up</stem>
<beam number="1">begin</beam>
<notations>
<tied type="stop"/>
</notations>
</note>
<note>
<pitch>
<step>G</step>
<octave>4</octave>
</pitch>
<duration>24</duration>
<tie type="start"/>
<type>eighth</type>
<stem>up</stem>
<beam number="1">continue</beam>
<notations>
<tied type="start"/>
</notations>
<lyric number="1">
<syllabic>single</syllabic>
<text>Dieu,</text>
</lyric>
</note>
<note>
<pitch>
<step>G</step>
<octave>4</octave>
</pitch>
<duration>24</duration>
<tie type="stop"/>
<type>eighth</type>
<stem>up</stem>
<beam number="1">begin</beam>
<notations>
<tied type="stop"/>
<slur type="start" number="1"/>
</notations>
</note>
<note>
<pitch>
<step>E</step>
<octave>4</octave>
</pitch>
<duration>24</duration>
<tie type="start"/>
<type>eighth</type>
<stem>up</stem>
<beam number="1">continue</beam>
<notations>
<tied type="start"/>
<slur type="stop" number="1"/>
</notations>
</note>
</measure>
<measure number="17">
<note>
<pitch>
<step>E</step>
<octave>4</octave>
</pitch>
<duration>96</duration>
<tie type="stop"/>
<type>half</type>
<notations>
<tied type="stop"/>
</notations>
</note>
<note>
<pitch>
<step>G</step>
<octave>4</octave>
</pitch>
<duration>24</duration>
<type>eighth</type>
<stem>up</stem>
<beam number="1">begin</beam>
<lyric number="1">
<syllabic>single</syllabic>
<text>Etre</text>
</lyric>
</note>
<note>
<pitch>
<step>A</step>
<octave>4</octave>
</pitch>
<duration>24</duration>
<tie type="start"/>
<type>eighth</type>
<stem>up</stem>
<beam number="1">continue</beam>
<notations>
<tied type="start"/>
</notations>
<lyric number="1">
<syllabic>single</syllabic>
<text>près</text>
</lyric>
</note>
<note>
<pitch>
<step>A</step>
<octave>4</octave>
</pitch>
<duration>24</duration>
<tie type="stop"/>
<type>eighth</type>
<stem>up</stem>
<beam number="1">begin</beam>
<notations>
<tied type="stop"/>
</notations>
</note>
<note>
<pitch>
<step>A</step>
<octave>4</octave>
</pitch>
<duration>24</duration>
<tie type="start"/>
<type>eighth</type>
<stem>up</stem>
<beam number="1">continue</beam>
<notations>
<tied type="start"/>
</notations>
<lyric number="1">
<syllabic>single</syllabic>
<text>de</text>
</lyric>
</note>
</measure>
<measure number="18">
<note>
<pitch>
<step>A</step>
<octave>4</octave>
</pitch>
<duration>48</duration>
<tie type="stop"/>
<type>quarter</type>
<notations>
<tied type="stop"/>
</notations>
</note>
<note>
<pitch>
<step>B</step>
<octave>4</octave>
</pitch>
<duration>24</duration>
<type>eighth</type>
<stem>up</stem>
<beam number="1">begin</beam>
<lyric number="1">
<syllabic>single</syllabic>
<text>toi,</text>
</lyric>
</note>
<note>
<pitch>
<step>A</step>
<octave>4</octave>
</pitch>
<duration>24</duration>
<tie type="start"/>
<type>eighth</type>
<stem>up</stem>
<beam number="1">continue</beam>
<notations>
<tied type="start"/>
</notations>
<lyric number="1">
<syllabic>single</syllabic>
<text>mon</text>
</lyric>
</note>
<note>
<pitch>
<step>A</step>
<octave>4</octave>
</pitch>
<duration>24</duration>
<tie type="stop"/>
<type>eighth</type>
<stem>up</stem>
<beam number="1">begin</beam>
<notations>
<tied type="stop"/>
</notations>
</note>
<note>
<pitch>
<step>G</step>
<octave>4</octave>
</pitch>
<duration>24</duration>
<tie type="start"/>
<type>eighth</type>
<stem>up</stem>
<beam number="1">continue</beam>
<notations>
<tied type="start"/>
</notations>
<lyric number="1">
<syllabic>single</syllabic>
<text>Dieu.</text>
</lyric>
</note>
<note>
<pitch>
<step>G</step>
<octave>4</octave>
</pitch>
<duration>48</duration>
<tie type="stop"/>
<type>quarter</type>
<notations>
<tied type="stop"/>
</notations>
</note>
</measure>
<measure number="19">
<note>
<pitch>
<step>G</step>
<octave>4</octave>
</pitch>
<duration>192</duration>
<tie type="stop"/>
<type>whole</type>
<notations>
<tied type="stop"/>
</notations>
</note>
</measure>
<measure number="20">
<barline location="left">
<bar-style>heavy-light</bar-style>
</barline>
<note>
<pitch>
<step>B</step>
<octave>4</octave>
</pitch>
<duration>48</duration>
<type>quarter</type>
<lyric number="1">
<syllabic>begin</syllabic>
<text>Jé</text>
</lyric>
</note>
<note>
<pitch>
<step>B</step>
<octave>4</octave>
</pitch>
<duration>48</duration>
<type>quarter</type>
<lyric number="1">
<syllabic>end</syllabic>
<text>sus,</text>
</lyric>
</note>
<note>
<pitch>
<step>B</step>
<octave>4</octave>
</pitch>
<duration>48</duration>
<type>quarter</type>
<lyric number="1">
<syllabic>single</syllabic>
<text>tu</text>
</lyric>
</note>
<note>
<pitch>
<step>B</step>
<octave>4</octave>
</pitch>
<duration>24</duration>
<type>eighth</type>
<stem>down</stem>
<beam number="1">begin</beam>
<lyric number="1">
<syllabic>single</syllabic>
<text>es</text>
</lyric>
</note>
<note>
<pitch>
<step>B</step>
<octave>4</octave>
</pitch>
<duration>24</duration>
<type>eighth</type>
<stem>down</stem>
<beam number="1">continue</beam>
<lyric number="1">
<syllabic>single</syllabic>
<text>le</text>
</lyric>
</note>
</measure>
<measure number="21">
<note>
<pitch>
<step>B</step>
<octave>4</octave>
</pitch>
<duration>48</duration>
<type>quarter</type>
<lyric number="1">
<syllabic>begin</syllabic>
<text>Sau</text>
</lyric>
</note>
<note>
<pitch>
<step>B</step>
<octave>4</octave>
</pitch>
<duration>48</duration>
<type>quarter</type>
<lyric number="1">
<syllabic>end</syllabic>
<text>veur</text>
</lyric>
</note>
<note>
<pitch>
<step>B</step>
<octave>4</octave>
</pitch>
<duration>48</duration>
<type>quarter</type>
<lyric number="1">
<syllabic>single</syllabic>
<text>de</text>
</lyric>
</note>
<note>
<pitch>
<step>A</step>
<octave>4</octave>
</pitch>
<duration>48</duration>
<type>quarter</type>
<lyric number="1">
<syllabic>single</syllabic>
<text>mon</text>
</lyric>
</note>
</measure>
<measure number="22">
<note>
<pitch>
<step>G</step>
<octave>4</octave>
</pitch>
<duration>96</duration>
<type>half</type>
<lyric number="1">
<syllabic>single</syllabic>
<text>âme</text>
</lyric>
</note>
<note>
<rest/>
<duration>96</duration>
<type>half</type>
</note>
</measure>
<measure number="23">
<note>
<rest/>
<duration>96</duration>
<type>half</type>
</note>
<note>
<pitch>
<step>G</step>
<octave>4</octave>
</pitch>
<duration>48</duration>
<type>quarter</type>
<lyric number="1">
<syllabic>single</syllabic>
<text>Et</text>
</lyric>
</note>
<note>
<pitch>
<step>B</step>
<octave>4</octave>
</pitch>
<duration>48</duration>
<type>quarter</type>
<lyric number="1">
<syllabic>single</syllabic>
<text>pour</text>
</lyric>
</note>
</measure>
<measure number="24">
<note>
<pitch>
<step>B</step>
<octave>4</octave>
</pitch>
<duration>32</duration>
<type>quarter</type>
<time-modification>
<actual-notes>3</actual-notes>
<normal-notes>2</normal-notes>
</time-modification>
<stem>down</stem>
<notations>
<tuplet type="start" placement="below"/>
</notations>
<lyric number="1">
<syllabic>begin</syllabic>
<text>tou</text>
</lyric>
</note>
<note>
<pitch>
<step>B</step>
<octave>4</octave>
</pitch>
<duration>32</duration>
<type>quarter</type>
<time-modification>
<actual-notes>3</actual-notes>
<normal-notes>2</normal-notes>
</time-modification>
<stem>down</stem>
<notations/>
<lyric number="1">
<syllabic>end</syllabic>
<text>jours</text>
</lyric>
</note>
<note>
<pitch>
<step>B</step>
<octave>4</octave>
</pitch>
<duration>32</duration>
<type>quarter</type>
<time-modification>
<actual-notes>3</actual-notes>
<normal-notes>2</normal-notes>
</time-modification>
<stem>down</stem>
<notations>
<tuplet type="stop" placement="below"/>
</notations>
<lyric number="1">
<syllabic>single</syllabic>
<text>et</text>
</lyric>
</note>
<note>
<pitch>
<step>B</step>
<octave>4</octave>
</pitch>
<duration>32</duration>
<type>quarter</type>
<time-modification>
<actual-notes>3</actual-notes>
<normal-notes>2</normal-notes>
</time-modification>
<stem>up</stem>
<notations>
<tuplet type="start" placement="above"/>
</notations>
<lyric number="1">
<syllabic>begin</syllabic>
<text>tou</text>
</lyric>
</note>
<note>
<pitch>
<step>A</step>
<octave>4</octave>
</pitch>
<duration>32</duration>
<type>quarter</type>
<time-modification>
<actual-notes>3</actual-notes>
<normal-notes>2</normal-notes>
</time-modification>
<stem>up</stem>
<notations/>
<lyric number="1">
<syllabic>end</syllabic>
<text>jours</text>
</lyric>
</note>
<note>
<pitch>
<step>G</step>
<octave>4</octave>
</pitch>
<duration>32</duration>
<type>quarter</type>
<time-modification>
<actual-notes>3</actual-notes>
<normal-notes>2</normal-notes>
</time-modification>
<stem>up</stem>
<notations>
<tuplet type="stop" placement="above"/>
</notations>
<lyric number="1">
<syllabic>single</syllabic>
<text>Je</text>
</lyric>
</note>
</measure>
<measure number="25">
<note>
<pitch>
<step>A</step>
<octave>4</octave>
</pitch>
<duration>72</duration>
<type>quarter</type>
<dot/>
<lyric number="1">
<syllabic>begin</syllabic>
<text>chan</text>
</lyric>
</note>
<note>
<pitch>
<step>G</step>
<octave>4</octave>
</pitch>
<duration>24</duration>
<type>eighth</type>
<lyric number="1">
<syllabic>middle</syllabic>
<text>te</text>
</lyric>
</note>
<note>
<pitch>
<step>B</step>
<octave>4</octave>
</pitch>
<duration>36</duration>
<type>eighth</type>
<dot/>
<stem>up</stem>
<beam number="1">begin</beam>
<lyric number="1">
<syllabic>end</syllabic>
<text>rai</text>
</lyric>
</note>
<note>
<pitch>
<step>A</step>
<octave>4</octave>
</pitch>
<duration>12</duration>
<tie type="start"/>
<type>16th</type>
<stem>up</stem>
<beam number="1">continue</beam>
<notations>
<tied type="start"/>
</notations>
<lyric number="1">
<syllabic>single</syllabic>
<text>tes</text>
</lyric>
</note>
<note>
<pitch>
<step>A</step>
<octave>4</octave>
</pitch>
<duration>24</duration>
<tie type="stop"/>
<type>eighth</type>
<stem>up</stem>
<beam number="1">begin</beam>
<notations>
<tied type="stop"/>
</notations>
</note>
<note>
<pitch>
<step>G</step>
<octave>4</octave>
</pitch>
<duration>24</duration>
<type>eighth</type>
<stem>up</stem>
<beam number="1">continue</beam>
<lyric number="1">
<syllabic>begin</syllabic>
<text>lou</text>
</lyric>
</note>
</measure>
<measure number="26">
<note>
<pitch>
<step>G</step>
<octave>4</octave>
</pitch>
<duration>96</duration>
<type>half</type>
<lyric number="1">
<syllabic>end</syllabic>
<text>anges !</text>
</lyric>
</note>
<note>
<rest/>
<duration>96</duration>
<type>half</type>
</note>
</measure>
<measure number="27">
<note>
<rest/>
<duration>192</duration>
<type>whole</type>
</note>
<barline location="right">
<bar-style>light-heavy</bar-style>
<ending type="stop" number="2"/>
</barline>
</measure>
</part>
</score-partwise>
