<?xml version="1.0" encoding="UTF-8" standalone='no'?>
<!DOCTYPE score-partwise PUBLIC "-//Recordare//DTD MusicXML 1.0 Partwise//EN" "http://www.musicxml.org/dtds/partwise.dtd">
<score-partwise>
<work>
<work-title>Grande est ta fidélité</work-title>
</work>
<identification>
<creator type="transcriber">Gilbert Chellembron</creator>
<rights>© 2009 Gilbert Chellembron</rights>
<encoding>
<software>Noteworthy Composer</software>
<encoding-date>2015-06-27</encoding-date>
</encoding>
</identification>
<part-list>
<score-part id="P1">
<part-name>Mélodie</part-name>
<score-instrument id="P1-I1">
<instrument-name>String Ensemble 1</instrument-name>
</score-instrument>
<midi-instrument id="P1-I1">
<midi-channel>1</midi-channel>
<midi-program>50</midi-program>
</midi-instrument>
</score-part>
</part-list>
<part id="P1">
<measure number="1">
<attributes>
<divisions>48</divisions>
</attributes>
<attributes>
<clef>
<sign>G</sign>
<line>2</line>
</clef>
</attributes>
<attributes>
<key>
<fifths>1</fifths>
</key>
</attributes>
<attributes>
<time>
<beats>4</beats>
<beat-type>4</beat-type>
</time>
</attributes>
<direction>
<direction-type>
<metronome parentheses="no">
<beat-unit>quarter</beat-unit>
<per-minute>100</per-minute>
</metronome>
</direction-type>
<sound tempo="100"/>
</direction>
<note>
<pitch>
<step>B</step>
<octave>4</octave>
</pitch>
<duration>24</duration>
<tie type="start"/>
<type>eighth</type>
<notations>
<tied type="start"/>
</notations>
<lyric number="1">
<syllabic>single</syllabic>
<text>Grande</text>
</lyric>
<lyric number="2">
<syllabic>single</syllabic>
<text></text>
</lyric>
</note>
</measure>
<measure number="2">
<note>
<pitch>
<step>B</step>
<octave>4</octave>
</pitch>
<duration>24</duration>
<tie type="stop"/>
<type>eighth</type>
<stem>down</stem>
<beam number="1">begin</beam>
<notations>
<tied type="stop"/>
</notations>
</note>
<note>
<pitch>
<step>B</step>
<octave>4</octave>
</pitch>
<duration>24</duration>
<type>eighth</type>
<stem>down</stem>
<beam number="1">continue</beam>
<lyric number="1">
<syllabic>single</syllabic>
<text>est</text>
</lyric>
<lyric number="2">
<syllabic>single</syllabic>
<text></text>
</lyric>
</note>
<note>
<pitch>
<step>B</step>
<octave>4</octave>
</pitch>
<duration>24</duration>
<type>eighth</type>
<stem>up</stem>
<beam number="1">begin</beam>
<lyric number="1">
<syllabic>single</syllabic>
<text>ta</text>
</lyric>
<lyric number="2">
<syllabic>single</syllabic>
<text></text>
</lyric>
</note>
<note>
<pitch>
<step>G</step>
<octave>4</octave>
</pitch>
<duration>24</duration>
<type>eighth</type>
<stem>up</stem>
<beam number="1">continue</beam>
<lyric number="1">
<syllabic>begin</syllabic>
<text>fi</text>
</lyric>
<lyric number="2">
<syllabic>single</syllabic>
<text></text>
</lyric>
</note>
<note>
<pitch>
<step>C</step>
<octave>5</octave>
</pitch>
<duration>48</duration>
<type>quarter</type>
<lyric number="1">
<syllabic>middle</syllabic>
<text>dé</text>
</lyric>
<lyric number="2">
<syllabic>single</syllabic>
<text></text>
</lyric>
</note>
<note>
<pitch>
<step>B</step>
<octave>4</octave>
</pitch>
<duration>24</duration>
<type>eighth</type>
<stem>up</stem>
<beam number="1">begin</beam>
<lyric number="1">
<syllabic>middle</syllabic>
<text>li</text>
</lyric>
<lyric number="2">
<syllabic>single</syllabic>
<text></text>
</lyric>
</note>
<note>
<pitch>
<step>A</step>
<octave>4</octave>
</pitch>
<duration>24</duration>
<tie type="start"/>
<type>eighth</type>
<stem>up</stem>
<beam number="1">continue</beam>
<notations>
<tied type="start"/>
</notations>
<lyric number="1">
<syllabic>end</syllabic>
<text>té,</text>
</lyric>
<lyric number="2">
<syllabic>single</syllabic>
<text></text>
</lyric>
</note>
</measure>
<measure number="3">
<note>
<pitch>
<step>A</step>
<octave>4</octave>
</pitch>
<duration>48</duration>
<tie type="stop"/>
<type>quarter</type>
<notations>
<tied type="stop"/>
</notations>
</note>
<note>
<pitch>
<step>A</step>
<octave>4</octave>
</pitch>
<duration>24</duration>
<type>eighth</type>
<stem>up</stem>
<beam number="1">begin</beam>
<lyric number="1">
<syllabic>single</syllabic>
<text>ta</text>
</lyric>
<lyric number="2">
<syllabic>single</syllabic>
<text></text>
</lyric>
</note>
<note>
<pitch>
<step>A</step>
<octave>4</octave>
</pitch>
<duration>24</duration>
<type>eighth</type>
<stem>up</stem>
<beam number="1">continue</beam>
<lyric number="1">
<syllabic>begin</syllabic>
<text>fi</text>
</lyric>
<lyric number="2">
<syllabic>single</syllabic>
<text></text>
</lyric>
</note>
<note>
<pitch>
<step>B</step>
<octave>4</octave>
</pitch>
<duration>48</duration>
<type>quarter</type>
<lyric number="1">
<syllabic>middle</syllabic>
<text>dé</text>
</lyric>
<lyric number="2">
<syllabic>single</syllabic>
<text></text>
</lyric>
</note>
<note>
<pitch>
<step>D</step>
<octave>5</octave>
</pitch>
<duration>24</duration>
<type>eighth</type>
<stem>up</stem>
<beam number="1">begin</beam>
<lyric number="1">
<syllabic>middle</syllabic>
<text>li</text>
</lyric>
<lyric number="2">
<syllabic>single</syllabic>
<text></text>
</lyric>
</note>
<note>
<pitch>
<step>G</step>
<octave>4</octave>
</pitch>
<duration>24</duration>
<tie type="start"/>
<type>eighth</type>
<stem>up</stem>
<beam number="1">continue</beam>
<notations>
<tied type="start"/>
</notations>
<lyric number="1">
<syllabic>end</syllabic>
<text>té</text>
</lyric>
<lyric number="2">
<syllabic>single</syllabic>
<text></text>
</lyric>
</note>
</measure>
<measure number="4">
<note>
<pitch>
<step>G</step>
<octave>4</octave>
</pitch>
<duration>48</duration>
<tie type="stop"/>
<type>quarter</type>
<notations>
<tied type="stop"/>
</notations>
</note>
<note>
<pitch>
<step>G</step>
<octave>4</octave>
</pitch>
<duration>12</duration>
<type>16th</type>
<stem>up</stem>
<beam number="1">begin</beam>
<lyric number="1">
<syllabic>single</syllabic>
<text>Tous</text>
</lyric>
<lyric number="2">
<syllabic>single</syllabic>
<text></text>
</lyric>
</note>
<note>
<pitch>
<step>G</step>
<octave>4</octave>
</pitch>
<duration>12</duration>
<type>16th</type>
<stem>up</stem>
<beam number="1">end</beam>
<lyric number="1">
<syllabic>single</syllabic>
<text>les</text>
</lyric>
<lyric number="2">
<syllabic>single</syllabic>
<text></text>
</lyric>
</note>
<note>
<pitch>
<step>G</step>
<octave>4</octave>
</pitch>
<duration>24</duration>
<tie type="start"/>
<type>eighth</type>
<stem>up</stem>
<beam number="1">continue</beam>
<notations>
<tied type="start"/>
</notations>
<lyric number="1">
<syllabic>single</syllabic>
<text>jours</text>
</lyric>
<lyric number="2">
<syllabic>single</syllabic>
<text></text>
</lyric>
</note>
<note>
<pitch>
<step>G</step>
<octave>4</octave>
</pitch>
<duration>24</duration>
<tie type="stop"/>
<type>eighth</type>
<stem>up</stem>
<beam number="1">begin</beam>
<notations>
<tied type="stop"/>
</notations>
</note>
<note>
<pitch>
<step>D</step>
<octave>4</octave>
</pitch>
<duration>24</duration>
<tie type="start"/>
<type>eighth</type>
<stem>up</stem>
<beam number="1">continue</beam>
<notations>
<tied type="start"/>
</notations>
<lyric number="1">
<syllabic>single</syllabic>
<text>de</text>
</lyric>
<lyric number="2">
<syllabic>single</syllabic>
<text></text>
</lyric>
</note>
<note>
<pitch>
<step>D</step>
<octave>4</octave>
</pitch>
<duration>24</duration>
<tie type="stop"/>
<type>eighth</type>
<stem>up</stem>
<beam number="1">begin</beam>
<notations>
<tied type="stop"/>
</notations>
</note>
<note>
<pitch>
<step>B</step>
<octave>3</octave>
</pitch>
<duration>24</duration>
<tie type="start"/>
<type>eighth</type>
<stem>up</stem>
<beam number="1">continue</beam>
<notations>
<tied type="start"/>
</notations>
<lyric number="1">
<syllabic>single</syllabic>
<text>ma</text>
</lyric>
<lyric number="2">
<syllabic>single</syllabic>
<text></text>
</lyric>
</note>
</measure>
<measure number="5">
<note>
<pitch>
<step>B</step>
<octave>3</octave>
</pitch>
<duration>24</duration>
<tie type="stop"/>
<type>eighth</type>
<stem>up</stem>
<beam number="1">begin</beam>
<notations>
<tied type="stop"/>
</notations>
</note>
<note>
<pitch>
<step>E</step>
<octave>4</octave>
</pitch>
<duration>24</duration>
<tie type="start"/>
<type>eighth</type>
<stem>up</stem>
<beam number="1">continue</beam>
<notations>
<tied type="start"/>
</notations>
<lyric number="1">
<syllabic>single</syllabic>
<text>vie.</text>
</lyric>
<lyric number="2">
<syllabic>single</syllabic>
<text></text>
</lyric>
</note>
<note>
<pitch>
<step>E</step>
<octave>4</octave>
</pitch>
<duration>96</duration>
<tie type="stop"/>
<type>half</type>
<notations>
<tied type="stop"/>
</notations>
</note>
<note>
<rest/>
<duration>48</duration>
<type>quarter</type>
</note>
</measure>
<measure number="6">
<note>
<rest/>
<duration>48</duration>
<type>quarter</type>
</note>
<note>
<pitch>
<step>B</step>
<octave>4</octave>
</pitch>
<duration>24</duration>
<type>eighth</type>
<stem>down</stem>
<beam number="1">begin</beam>
<lyric number="1">
<syllabic>single</syllabic>
<text>Grand</text>
</lyric>
<lyric number="2">
<syllabic>single</syllabic>
<text></text>
</lyric>
</note>
<note>
<pitch>
<step>B</step>
<octave>4</octave>
</pitch>
<duration>24</duration>
<type>eighth</type>
<stem>down</stem>
<beam number="1">continue</beam>
<lyric number="1">
<syllabic>single</syllabic>
<text>est</text>
</lyric>
<lyric number="2">
<syllabic>single</syllabic>
<text></text>
</lyric>
</note>
<note>
<pitch>
<step>C</step>
<octave>5</octave>
</pitch>
<duration>48</duration>
<type>quarter</type>
<lyric number="1">
<syllabic>single</syllabic>
<text>ton</text>
</lyric>
<lyric number="2">
<syllabic>single</syllabic>
<text></text>
</lyric>
</note>
<note>
<pitch>
<step>B</step>
<octave>4</octave>
</pitch>
<duration>24</duration>
<type>eighth</type>
<stem>up</stem>
<beam number="1">begin</beam>
<lyric number="1">
<syllabic>begin</syllabic>
<text>a</text>
</lyric>
<lyric number="2">
<syllabic>single</syllabic>
<text></text>
</lyric>
</note>
<note>
<pitch>
<step>A</step>
<octave>4</octave>
</pitch>
<duration>24</duration>
<tie type="start"/>
<type>eighth</type>
<stem>up</stem>
<beam number="1">continue</beam>
<notations>
<tied type="start"/>
</notations>
<lyric number="1">
<syllabic>end</syllabic>
<text>mour,</text>
</lyric>
<lyric number="2">
<syllabic>single</syllabic>
<text></text>
</lyric>
</note>
</measure>
<measure number="7">
<note>
<pitch>
<step>A</step>
<octave>4</octave>
</pitch>
<duration>48</duration>
<tie type="stop"/>
<type>quarter</type>
<notations>
<tied type="stop"/>
</notations>
</note>
<note>
<pitch>
<step>A</step>
<octave>4</octave>
</pitch>
<duration>24</duration>
<type>eighth</type>
<stem>up</stem>
<beam number="1">begin</beam>
<lyric number="1">
<syllabic>single</syllabic>
<text>grand</text>
</lyric>
<lyric number="2">
<syllabic>single</syllabic>
<text></text>
</lyric>
</note>
<note>
<pitch>
<step>A</step>
<octave>4</octave>
</pitch>
<duration>24</duration>
<type>eighth</type>
<stem>up</stem>
<beam number="1">continue</beam>
<lyric number="1">
<syllabic>single</syllabic>
<text>est</text>
</lyric>
<lyric number="2">
<syllabic>single</syllabic>
<text></text>
</lyric>
</note>
<note>
<pitch>
<step>B</step>
<octave>4</octave>
</pitch>
<duration>48</duration>
<type>quarter</type>
<lyric number="1">
<syllabic>single</syllabic>
<text>ton</text>
</lyric>
<lyric number="2">
<syllabic>single</syllabic>
<text></text>
</lyric>
</note>
<note>
<pitch>
<step>D</step>
<octave>5</octave>
</pitch>
<duration>24</duration>
<type>eighth</type>
<stem>up</stem>
<beam number="1">begin</beam>
<lyric number="1">
<syllabic>begin</syllabic>
<text>a</text>
</lyric>
<lyric number="2">
<syllabic>single</syllabic>
<text></text>
</lyric>
</note>
<note>
<pitch>
<step>G</step>
<octave>4</octave>
</pitch>
<duration>24</duration>
<tie type="start"/>
<type>eighth</type>
<stem>up</stem>
<beam number="1">continue</beam>
<notations>
<tied type="start"/>
</notations>
<lyric number="1">
<syllabic>end</syllabic>
<text>mour</text>
</lyric>
<lyric number="2">
<syllabic>single</syllabic>
<text></text>
</lyric>
</note>
</measure>
<measure number="8">
<note>
<pitch>
<step>G</step>
<octave>4</octave>
</pitch>
<duration>48</duration>
<tie type="stop"/>
<type>quarter</type>
<notations>
<tied type="stop"/>
</notations>
</note>
<note>
<pitch>
<step>G</step>
<octave>4</octave>
</pitch>
<duration>12</duration>
<type>16th</type>
<stem>up</stem>
<beam number="1">begin</beam>
<lyric number="1">
<syllabic>single</syllabic>
<text>Chaque</text>
</lyric>
<lyric number="2">
<syllabic>single</syllabic>
<text></text>
</lyric>
</note>
<note>
<pitch>
<step>G</step>
<octave>4</octave>
</pitch>
<duration>24</duration>
<type>eighth</type>
<stem>up</stem>
<beam number="1">end</beam>
<lyric number="1">
<syllabic>begin</syllabic>
<text>ins</text>
</lyric>
<lyric number="2">
<syllabic>single</syllabic>
<text></text>
</lyric>
</note>
<note>
<pitch>
<step>G</step>
<octave>4</octave>
</pitch>
<duration>12</duration>
<tie type="start"/>
<type>16th</type>
<stem>up</stem>
<beam number="1">continue</beam>
<notations>
<tied type="start"/>
</notations>
<lyric number="1">
<syllabic>end</syllabic>
<text>tant</text>
</lyric>
<lyric number="2">
<syllabic>single</syllabic>
<text></text>
</lyric>
</note>
<note>
<pitch>
<step>G</step>
<octave>4</octave>
</pitch>
<duration>24</duration>
<tie type="stop"/>
<type>eighth</type>
<stem>up</stem>
<beam number="1">begin</beam>
<notations>
<tied type="stop"/>
</notations>
</note>
<note>
<pitch>
<step>D</step>
<octave>4</octave>
</pitch>
<duration>24</duration>
<tie type="start"/>
<type>eighth</type>
<stem>up</stem>
<beam number="1">continue</beam>
<notations>
<tied type="start"/>
</notations>
<lyric number="1">
<syllabic>single</syllabic>
<text>de</text>
</lyric>
<lyric number="2">
<syllabic>single</syllabic>
<text></text>
</lyric>
</note>
<note>
<pitch>
<step>D</step>
<octave>4</octave>
</pitch>
<duration>24</duration>
<tie type="stop"/>
<type>eighth</type>
<stem>up</stem>
<beam number="1">begin</beam>
<notations>
<tied type="stop"/>
</notations>
</note>
<note>
<pitch>
<step>E</step>
<octave>4</octave>
</pitch>
<duration>24</duration>
<tie type="start"/>
<type>eighth</type>
<stem>up</stem>
<beam number="1">continue</beam>
<notations>
<tied type="start"/>
</notations>
<lyric number="1">
<syllabic>single</syllabic>
<text>mes</text>
</lyric>
<lyric number="2">
<syllabic>single</syllabic>
<text></text>
</lyric>
</note>
</measure>
<measure number="9">
<note>
<pitch>
<step>E</step>
<octave>4</octave>
</pitch>
<duration>24</duration>
<tie type="stop"/>
<type>eighth</type>
<stem>up</stem>
<beam number="1">begin</beam>
<notations>
<tied type="stop"/>
</notations>
</note>
<note>
<pitch>
<step>E</step>
<octave>4</octave>
</pitch>
<duration>24</duration>
<tie type="start"/>
<type>eighth</type>
<stem>up</stem>
<beam number="1">continue</beam>
<notations>
<tied type="start"/>
</notations>
<lyric number="1">
<syllabic>single</syllabic>
<text>jours.</text>
</lyric>
<lyric number="2">
<syllabic>single</syllabic>
<text></text>
</lyric>
</note>
<note>
<pitch>
<step>E</step>
<octave>4</octave>
</pitch>
<duration>96</duration>
<tie type="stop"/>
<type>half</type>
<notations>
<tied type="stop"/>
</notations>
</note>
<note>
<pitch>
<step>E</step>
<octave>4</octave>
</pitch>
<duration>24</duration>
<tie type="stop"/>
<type>eighth</type>
<notations>
<tied type="stop"/>
</notations>
</note>
<note>
<pitch>
<step>B</step>
<octave>4</octave>
</pitch>
<duration>24</duration>
<tie type="start"/>
<type>eighth</type>
<notations>
<tied type="start"/>
</notations>
<lyric number="1">
<syllabic>single</syllabic>
<text>Grande</text>
</lyric>
<lyric number="2">
<syllabic>single</syllabic>
<text></text>
</lyric>
</note>
</measure>
<measure number="10">
<note>
<pitch>
<step>B</step>
<octave>4</octave>
</pitch>
<duration>24</duration>
<tie type="stop"/>
<type>eighth</type>
<stem>down</stem>
<beam number="1">begin</beam>
<notations>
<tied type="stop"/>
</notations>
</note>
<note>
<pitch>
<step>B</step>
<octave>4</octave>
</pitch>
<duration>24</duration>
<type>eighth</type>
<stem>down</stem>
<beam number="1">continue</beam>
<lyric number="1">
<syllabic>single</syllabic>
<text>est</text>
</lyric>
<lyric number="2">
<syllabic>single</syllabic>
<text></text>
</lyric>
</note>
<note>
<pitch>
<step>B</step>
<octave>4</octave>
</pitch>
<duration>24</duration>
<type>eighth</type>
<stem>up</stem>
<beam number="1">begin</beam>
<lyric number="1">
<syllabic>single</syllabic>
<text>ta</text>
</lyric>
<lyric number="2">
<syllabic>single</syllabic>
<text></text>
</lyric>
</note>
<note>
<pitch>
<step>G</step>
<octave>4</octave>
</pitch>
<duration>24</duration>
<type>eighth</type>
<stem>up</stem>
<beam number="1">continue</beam>
<lyric number="1">
<syllabic>begin</syllabic>
<text>fi</text>
</lyric>
<lyric number="2">
<syllabic>single</syllabic>
<text></text>
</lyric>
</note>
<note>
<pitch>
<step>C</step>
<octave>5</octave>
</pitch>
<duration>48</duration>
<type>quarter</type>
<lyric number="1">
<syllabic>middle</syllabic>
<text>dé</text>
</lyric>
<lyric number="2">
<syllabic>single</syllabic>
<text></text>
</lyric>
</note>
<note>
<pitch>
<step>B</step>
<octave>4</octave>
</pitch>
<duration>24</duration>
<type>eighth</type>
<stem>up</stem>
<beam number="1">begin</beam>
<lyric number="1">
<syllabic>middle</syllabic>
<text>li</text>
</lyric>
<lyric number="2">
<syllabic>single</syllabic>
<text></text>
</lyric>
</note>
<note>
<pitch>
<step>A</step>
<octave>4</octave>
</pitch>
<duration>24</duration>
<tie type="start"/>
<type>eighth</type>
<stem>up</stem>
<beam number="1">continue</beam>
<notations>
<tied type="start"/>
</notations>
<lyric number="1">
<syllabic>end</syllabic>
<text>té,</text>
</lyric>
<lyric number="2">
<syllabic>single</syllabic>
<text></text>
</lyric>
</note>
</measure>
<measure number="11">
<note>
<pitch>
<step>A</step>
<octave>4</octave>
</pitch>
<duration>48</duration>
<tie type="stop"/>
<type>quarter</type>
<notations>
<tied type="stop"/>
</notations>
</note>
<note>
<pitch>
<step>A</step>
<octave>4</octave>
</pitch>
<duration>24</duration>
<type>eighth</type>
<stem>up</stem>
<beam number="1">begin</beam>
<lyric number="1">
<syllabic>single</syllabic>
<text>ta</text>
</lyric>
<lyric number="2">
<syllabic>single</syllabic>
<text></text>
</lyric>
</note>
<note>
<pitch>
<step>A</step>
<octave>4</octave>
</pitch>
<duration>24</duration>
<type>eighth</type>
<stem>up</stem>
<beam number="1">continue</beam>
<lyric number="1">
<syllabic>begin</syllabic>
<text>fi</text>
</lyric>
<lyric number="2">
<syllabic>single</syllabic>
<text></text>
</lyric>
</note>
<note>
<pitch>
<step>B</step>
<octave>4</octave>
</pitch>
<duration>48</duration>
<type>quarter</type>
<lyric number="1">
<syllabic>middle</syllabic>
<text>dé</text>
</lyric>
<lyric number="2">
<syllabic>single</syllabic>
<text></text>
</lyric>
</note>
<note>
<pitch>
<step>D</step>
<octave>5</octave>
</pitch>
<duration>24</duration>
<type>eighth</type>
<stem>up</stem>
<beam number="1">begin</beam>
<lyric number="1">
<syllabic>middle</syllabic>
<text>li</text>
</lyric>
<lyric number="2">
<syllabic>single</syllabic>
<text></text>
</lyric>
</note>
<note>
<pitch>
<step>G</step>
<octave>4</octave>
</pitch>
<duration>24</duration>
<tie type="start"/>
<type>eighth</type>
<stem>up</stem>
<beam number="1">continue</beam>
<notations>
<tied type="start"/>
</notations>
<lyric number="1">
<syllabic>end</syllabic>
<text>té</text>
</lyric>
<lyric number="2">
<syllabic>single</syllabic>
<text></text>
</lyric>
</note>
</measure>
<measure number="12">
<note>
<pitch>
<step>G</step>
<octave>4</octave>
</pitch>
<duration>48</duration>
<tie type="stop"/>
<type>quarter</type>
<notations>
<tied type="stop"/>
</notations>
</note>
<note>
<pitch>
<step>G</step>
<octave>4</octave>
</pitch>
<duration>12</duration>
<type>16th</type>
<stem>up</stem>
<beam number="1">begin</beam>
<lyric number="1">
<syllabic>single</syllabic>
<text>Tous</text>
</lyric>
<lyric number="2">
<syllabic>single</syllabic>
<text></text>
</lyric>
</note>
<note>
<pitch>
<step>G</step>
<octave>4</octave>
</pitch>
<duration>12</duration>
<type>16th</type>
<stem>up</stem>
<beam number="1">end</beam>
<lyric number="1">
<syllabic>single</syllabic>
<text>les</text>
</lyric>
<lyric number="2">
<syllabic>single</syllabic>
<text></text>
</lyric>
</note>
<note>
<pitch>
<step>G</step>
<octave>4</octave>
</pitch>
<duration>24</duration>
<tie type="start"/>
<type>eighth</type>
<stem>up</stem>
<beam number="1">continue</beam>
<notations>
<tied type="start"/>
</notations>
<lyric number="1">
<syllabic>single</syllabic>
<text>jours</text>
</lyric>
<lyric number="2">
<syllabic>single</syllabic>
<text></text>
</lyric>
</note>
<note>
<pitch>
<step>G</step>
<octave>4</octave>
</pitch>
<duration>24</duration>
<tie type="stop"/>
<type>eighth</type>
<stem>up</stem>
<beam number="1">begin</beam>
<notations>
<tied type="stop"/>
</notations>
</note>
<note>
<pitch>
<step>D</step>
<octave>4</octave>
</pitch>
<duration>24</duration>
<tie type="start"/>
<type>eighth</type>
<stem>up</stem>
<beam number="1">continue</beam>
<notations>
<tied type="start"/>
</notations>
<lyric number="1">
<syllabic>single</syllabic>
<text>de</text>
</lyric>
<lyric number="2">
<syllabic>single</syllabic>
<text></text>
</lyric>
</note>
<note>
<pitch>
<step>D</step>
<octave>4</octave>
</pitch>
<duration>24</duration>
<tie type="stop"/>
<type>eighth</type>
<stem>up</stem>
<beam number="1">begin</beam>
<notations>
<tied type="stop"/>
</notations>
</note>
<note>
<pitch>
<step>B</step>
<octave>3</octave>
</pitch>
<duration>24</duration>
<tie type="start"/>
<type>eighth</type>
<stem>up</stem>
<beam number="1">continue</beam>
<notations>
<tied type="start"/>
</notations>
<lyric number="1">
<syllabic>single</syllabic>
<text>ma</text>
</lyric>
<lyric number="2">
<syllabic>single</syllabic>
<text></text>
</lyric>
</note>
</measure>
<measure number="13">
<note>
<pitch>
<step>B</step>
<octave>3</octave>
</pitch>
<duration>24</duration>
<tie type="stop"/>
<type>eighth</type>
<stem>up</stem>
<beam number="1">begin</beam>
<notations>
<tied type="stop"/>
</notations>
</note>
<note>
<pitch>
<step>E</step>
<octave>4</octave>
</pitch>
<duration>24</duration>
<tie type="start"/>
<type>eighth</type>
<stem>up</stem>
<beam number="1">continue</beam>
<notations>
<tied type="start"/>
</notations>
<lyric number="1">
<syllabic>single</syllabic>
<text>vie.</text>
</lyric>
<lyric number="2">
<syllabic>single</syllabic>
<text></text>
</lyric>
</note>
<note>
<pitch>
<step>E</step>
<octave>4</octave>
</pitch>
<duration>96</duration>
<tie type="stop"/>
<type>half</type>
<notations>
<tied type="stop"/>
</notations>
</note>
<note>
<rest/>
<duration>48</duration>
<type>quarter</type>
</note>
</measure>
<measure number="14">
<note>
<rest/>
<duration>48</duration>
<type>quarter</type>
</note>
<note>
<pitch>
<step>B</step>
<octave>4</octave>
</pitch>
<duration>24</duration>
<type>eighth</type>
<stem>down</stem>
<beam number="1">begin</beam>
<lyric number="1">
<syllabic>single</syllabic>
<text>Grand</text>
</lyric>
<lyric number="2">
<syllabic>single</syllabic>
<text></text>
</lyric>
</note>
<note>
<pitch>
<step>B</step>
<octave>4</octave>
</pitch>
<duration>24</duration>
<type>eighth</type>
<stem>down</stem>
<beam number="1">continue</beam>
<lyric number="1">
<syllabic>single</syllabic>
<text>est</text>
</lyric>
<lyric number="2">
<syllabic>single</syllabic>
<text></text>
</lyric>
</note>
<note>
<pitch>
<step>C</step>
<octave>5</octave>
</pitch>
<duration>48</duration>
<type>quarter</type>
<lyric number="1">
<syllabic>single</syllabic>
<text>ton</text>
</lyric>
<lyric number="2">
<syllabic>single</syllabic>
<text></text>
</lyric>
</note>
<note>
<pitch>
<step>B</step>
<octave>4</octave>
</pitch>
<duration>24</duration>
<type>eighth</type>
<stem>up</stem>
<beam number="1">begin</beam>
<lyric number="1">
<syllabic>begin</syllabic>
<text>a</text>
</lyric>
<lyric number="2">
<syllabic>single</syllabic>
<text></text>
</lyric>
</note>
<note>
<pitch>
<step>A</step>
<octave>4</octave>
</pitch>
<duration>24</duration>
<tie type="start"/>
<type>eighth</type>
<stem>up</stem>
<beam number="1">continue</beam>
<notations>
<tied type="start"/>
</notations>
<lyric number="1">
<syllabic>end</syllabic>
<text>mour,</text>
</lyric>
<lyric number="2">
<syllabic>single</syllabic>
<text></text>
</lyric>
</note>
</measure>
<measure number="15">
<note>
<pitch>
<step>A</step>
<octave>4</octave>
</pitch>
<duration>48</duration>
<tie type="stop"/>
<type>quarter</type>
<notations>
<tied type="stop"/>
</notations>
</note>
<note>
<pitch>
<step>A</step>
<octave>4</octave>
</pitch>
<duration>24</duration>
<type>eighth</type>
<stem>up</stem>
<beam number="1">begin</beam>
<lyric number="1">
<syllabic>single</syllabic>
<text>grand</text>
</lyric>
<lyric number="2">
<syllabic>single</syllabic>
<text></text>
</lyric>
</note>
<note>
<pitch>
<step>A</step>
<octave>4</octave>
</pitch>
<duration>24</duration>
<type>eighth</type>
<stem>up</stem>
<beam number="1">continue</beam>
<lyric number="1">
<syllabic>single</syllabic>
<text>est</text>
</lyric>
<lyric number="2">
<syllabic>single</syllabic>
<text></text>
</lyric>
</note>
<note>
<pitch>
<step>B</step>
<octave>4</octave>
</pitch>
<duration>48</duration>
<type>quarter</type>
<lyric number="1">
<syllabic>single</syllabic>
<text>ton</text>
</lyric>
<lyric number="2">
<syllabic>single</syllabic>
<text></text>
</lyric>
</note>
<note>
<pitch>
<step>D</step>
<octave>5</octave>
</pitch>
<duration>24</duration>
<type>eighth</type>
<stem>up</stem>
<beam number="1">begin</beam>
<lyric number="1">
<syllabic>begin</syllabic>
<text>a</text>
</lyric>
<lyric number="2">
<syllabic>single</syllabic>
<text></text>
</lyric>
</note>
<note>
<pitch>
<step>G</step>
<octave>4</octave>
</pitch>
<duration>24</duration>
<tie type="start"/>
<type>eighth</type>
<stem>up</stem>
<beam number="1">continue</beam>
<notations>
<tied type="start"/>
</notations>
<lyric number="1">
<syllabic>end</syllabic>
<text>mour</text>
</lyric>
<lyric number="2">
<syllabic>single</syllabic>
<text></text>
</lyric>
</note>
</measure>
<measure number="16">
<note>
<pitch>
<step>G</step>
<octave>4</octave>
</pitch>
<duration>48</duration>
<tie type="stop"/>
<type>quarter</type>
<notations>
<tied type="stop"/>
</notations>
</note>
<note>
<pitch>
<step>G</step>
<octave>4</octave>
</pitch>
<duration>12</duration>
<type>16th</type>
<stem>up</stem>
<beam number="1">begin</beam>
<lyric number="1">
<syllabic>single</syllabic>
<text>Chaque</text>
</lyric>
<lyric number="2">
<syllabic>single</syllabic>
<text></text>
</lyric>
</note>
<note>
<pitch>
<step>G</step>
<octave>4</octave>
</pitch>
<duration>24</duration>
<type>eighth</type>
<stem>up</stem>
<beam number="1">end</beam>
<lyric number="1">
<syllabic>begin</syllabic>
<text>ins</text>
</lyric>
<lyric number="2">
<syllabic>single</syllabic>
<text></text>
</lyric>
</note>
<note>
<pitch>
<step>G</step>
<octave>4</octave>
</pitch>
<duration>12</duration>
<tie type="start"/>
<type>16th</type>
<stem>up</stem>
<beam number="1">continue</beam>
<notations>
<tied type="start"/>
</notations>
<lyric number="1">
<syllabic>end</syllabic>
<text>tant</text>
</lyric>
<lyric number="2">
<syllabic>single</syllabic>
<text></text>
</lyric>
</note>
<note>
<pitch>
<step>G</step>
<octave>4</octave>
</pitch>
<duration>24</duration>
<tie type="stop"/>
<type>eighth</type>
<stem>up</stem>
<beam number="1">begin</beam>
<notations>
<tied type="stop"/>
</notations>
</note>
<note>
<pitch>
<step>D</step>
<octave>4</octave>
</pitch>
<duration>24</duration>
<tie type="start"/>
<type>eighth</type>
<stem>up</stem>
<beam number="1">continue</beam>
<notations>
<tied type="start"/>
</notations>
<lyric number="1">
<syllabic>single</syllabic>
<text>de</text>
</lyric>
<lyric number="2">
<syllabic>single</syllabic>
<text></text>
</lyric>
</note>
<note>
<pitch>
<step>D</step>
<octave>4</octave>
</pitch>
<duration>24</duration>
<tie type="stop"/>
<type>eighth</type>
<stem>up</stem>
<beam number="1">begin</beam>
<notations>
<tied type="stop"/>
</notations>
</note>
<note>
<pitch>
<step>E</step>
<octave>4</octave>
</pitch>
<duration>24</duration>
<tie type="start"/>
<type>eighth</type>
<stem>up</stem>
<beam number="1">continue</beam>
<notations>
<tied type="start"/>
</notations>
<lyric number="1">
<syllabic>single</syllabic>
<text>mes</text>
</lyric>
<lyric number="2">
<syllabic>single</syllabic>
<text></text>
</lyric>
</note>
</measure>
<measure number="17">
<note>
<pitch>
<step>E</step>
<octave>4</octave>
</pitch>
<duration>24</duration>
<tie type="stop"/>
<type>eighth</type>
<stem>up</stem>
<beam number="1">begin</beam>
<notations>
<tied type="stop"/>
</notations>
</note>
<note>
<pitch>
<step>E</step>
<octave>4</octave>
</pitch>
<duration>24</duration>
<tie type="start"/>
<type>eighth</type>
<stem>up</stem>
<beam number="1">continue</beam>
<notations>
<tied type="start"/>
</notations>
<lyric number="1">
<syllabic>single</syllabic>
<text>jours.</text>
</lyric>
<lyric number="2">
<syllabic>single</syllabic>
<text></text>
</lyric>
</note>
<note>
<pitch>
<step>E</step>
<octave>4</octave>
</pitch>
<duration>144</duration>
<tie type="stop"/>
<type>half</type>
<dot/>
<notations>
<tied type="stop"/>
</notations>
</note>
<direction placement="above">
<direction-type>
<words relative-y="60">To Coda</words>
</direction-type>
<sound tocoda=""/>
</direction>
</measure>
<measure number="18">
<barline location="left">
<bar-style>heavy-light</bar-style>
</barline>
<note>
<rest/>
<duration>24</duration>
<type>eighth</type>
</note>
<note>
<pitch>
<step>G</step>
<octave>4</octave>
</pitch>
<duration>24</duration>
<type>eighth</type>
<lyric number="1">
<syllabic>single</syllabic>
<text>1. Quand</text>
</lyric>
<lyric number="2">
<syllabic>single</syllabic>
<text>2.</text>
</lyric>
</note>
<note>
<pitch>
<step>B</step>
<octave>4</octave>
</pitch>
<duration>16</duration>
<type>eighth</type>
<time-modification>
<actual-notes>3</actual-notes>
<normal-notes>2</normal-notes>
</time-modification>
<stem>up</stem>
<beam number="1">begin</beam>
<notations>
<tuplet type="start" placement="above"/>
</notations>
<lyric number="1">
<syllabic>single</syllabic>
<text>je</text>
</lyric>
<lyric number="2">
<syllabic>single</syllabic>
<text>Quand</text>
</lyric>
</note>
<note>
<pitch>
<step>A</step>
<octave>4</octave>
</pitch>
<duration>16</duration>
<type>eighth</type>
<time-modification>
<actual-notes>3</actual-notes>
<normal-notes>2</normal-notes>
</time-modification>
<stem>up</stem>
<beam number="1">end</beam>
<notations/>
<lyric number="1">
<syllabic>single</syllabic>
<text>me</text>
</lyric>
<lyric number="2">
<syllabic>single</syllabic>
<text>je</text>
</lyric>
</note>
<note>
<pitch>
<step>B</step>
<octave>4</octave>
</pitch>
<duration>16</duration>
<tie type="start"/>
<type>eighth</type>
<time-modification>
<actual-notes>3</actual-notes>
<normal-notes>2</normal-notes>
</time-modification>
<stem>up</stem>
<beam number="1">continue</beam>
<notations>
<tied type="start"/>
<tuplet type="stop" placement="above"/>
</notations>
<lyric number="1">
<syllabic>single</syllabic>
<text>couche,</text>
</lyric>
<lyric number="2">
<syllabic>single</syllabic>
<text>prie,</text>
</lyric>
</note>
<note>
<pitch>
<step>B</step>
<octave>4</octave>
</pitch>
<duration>96</duration>
<tie type="stop"/>
<type>half</type>
<notations>
<tied type="stop"/>
</notations>
</note>
</measure>
<measure number="19">
<note>
<pitch>
<step>C</step>
<octave>5</octave>
</pitch>
<duration>48</duration>
<type>quarter</type>
<lyric number="1">
<syllabic>single</syllabic>
<text>tu</text>
</lyric>
<lyric number="2">
<syllabic>single</syllabic>
<text>tu</text>
</lyric>
</note>
<note>
<pitch>
<step>B</step>
<octave>4</octave>
</pitch>
<duration>48</duration>
<type>quarter</type>
<lyric number="1">
<syllabic>single</syllabic>
<text>es</text>
</lyric>
<lyric number="2">
<syllabic>begin</syllabic>
<text>m'en</text>
</lyric>
</note>
<note>
<pitch>
<step>A</step>
<octave>4</octave>
</pitch>
<duration>96</duration>
<type>half</type>
<lyric number="1">
<syllabic>single</syllabic>
<text>là !</text>
</lyric>
<lyric number="2">
<syllabic>end</syllabic>
<text>tends.</text>
</lyric>
</note>
</measure>
<measure number="20">
<note>
<rest/>
<duration>24</duration>
<type>eighth</type>
</note>
<note>
<pitch>
<step>D</step>
<octave>4</octave>
</pitch>
<duration>24</duration>
<type>eighth</type>
<lyric number="1">
<syllabic>single</syllabic>
<text>À</text>
</lyric>
<lyric number="2">
<syllabic>single</syllabic>
<text></text>
</lyric>
</note>
<note>
<pitch>
<step>G</step>
<octave>4</octave>
</pitch>
<duration>16</duration>
<type>eighth</type>
<time-modification>
<actual-notes>3</actual-notes>
<normal-notes>2</normal-notes>
</time-modification>
<stem>up</stem>
<beam number="1">begin</beam>
<notations>
<tuplet type="start" placement="above"/>
</notations>
<lyric number="1">
<syllabic>single</syllabic>
<text>mon</text>
</lyric>
<lyric number="2">
<syllabic>single</syllabic>
<text>Quand</text>
</lyric>
</note>
<note>
<pitch>
<step>E</step>
<octave>4</octave>
</pitch>
<duration>16</duration>
<type>eighth</type>
<time-modification>
<actual-notes>3</actual-notes>
<normal-notes>2</normal-notes>
</time-modification>
<stem>up</stem>
<beam number="1">end</beam>
<notations/>
<lyric number="1">
<syllabic>begin</syllabic>
<text>ré</text>
</lyric>
<lyric number="2">
<syllabic>single</syllabic>
<text>je</text>
</lyric>
</note>
<note>
<pitch>
<step>G</step>
<octave>4</octave>
</pitch>
<duration>16</duration>
<tie type="start"/>
<type>eighth</type>
<time-modification>
<actual-notes>3</actual-notes>
<normal-notes>2</normal-notes>
</time-modification>
<stem>up</stem>
<beam number="1">continue</beam>
<notations>
<tied type="start"/>
<tuplet type="stop" placement="above"/>
</notations>
<lyric number="1">
<syllabic>end</syllabic>
<text>veil,</text>
</lyric>
<lyric number="2">
<syllabic>single</syllabic>
<text>tombe,</text>
</lyric>
</note>
<note>
<pitch>
<step>G</step>
<octave>4</octave>
</pitch>
<duration>72</duration>
<tie type="stop"/>
<type>quarter</type>
<dot/>
<notations>
<tied type="stop"/>
</notations>
</note>
<note>
<pitch>
<step>D</step>
<octave>4</octave>
</pitch>
<duration>24</duration>
<type>eighth</type>
<lyric number="1">
<syllabic>single</syllabic>
<text>je</text>
</lyric>
<lyric number="2">
<syllabic>single</syllabic>
<text>tu</text>
</lyric>
</note>
</measure>
<measure number="21">
<note>
<pitch>
<step>G</step>
<octave>4</octave>
</pitch>
<duration>48</duration>
<type>quarter</type>
<lyric number="1">
<syllabic>single</syllabic>
<text>sens</text>
</lyric>
<lyric number="2">
<syllabic>single</syllabic>
<text>me</text>
</lyric>
</note>
<note>
<pitch>
<step>G</step>
<octave>4</octave>
</pitch>
<duration>24</duration>
<type>eighth</type>
<stem>up</stem>
<beam number="1">begin</beam>
<lyric number="1">
<syllabic>single</syllabic>
<text>ta</text>
</lyric>
<lyric number="2">
<syllabic>begin</syllabic>
<text>re</text>
</lyric>
</note>
<note>
<pitch>
<step>E</step>
<octave>4</octave>
</pitch>
<duration>24</duration>
<type>eighth</type>
<stem>up</stem>
<beam number="1">continue</beam>
<lyric number="1">
<syllabic>begin</syllabic>
<text>pré</text>
</lyric>
<lyric number="2">
<syllabic>middle</syllabic>
<text>lè</text>
</lyric>
</note>
<note>
<chord/>
<pitch>
<step>G</step>
<octave>4</octave>
</pitch>
<duration>24</duration>
<type>eighth</type>
<stem>up</stem>
<beam number="1">continue</beam>
</note>
<note>
<pitch>
<step>E</step>
<octave>4</octave>
</pitch>
<duration>48</duration>
<type>quarter</type>
<lyric number="1">
<syllabic>middle</syllabic>
<text>sen</text>
</lyric>
<lyric number="2">
<syllabic>end</syllabic>
<text></text>
</lyric>
</note>
<note>
<pitch>
<step>D</step>
<octave>4</octave>
</pitch>
<duration>48</duration>
<type>quarter</type>
<lyric number="1">
<syllabic>end</syllabic>
<text>ce.</text>
</lyric>
<lyric number="2">
<syllabic>single</syllabic>
<text>ves.</text>
</lyric>
</note>
</measure>
<measure number="22">
<note>
<rest/>
<duration>24</duration>
<type>eighth</type>
</note>
<note>
<pitch>
<step>D</step>
<octave>4</octave>
</pitch>
<duration>24</duration>
<type>eighth</type>
<lyric number="1">
<syllabic>single</syllabic>
<text>Tu</text>
</lyric>
<lyric number="2">
<syllabic>single</syllabic>
<text>Tu</text>
</lyric>
</note>
<note>
<pitch>
<step>B</step>
<octave>4</octave>
</pitch>
<duration>16</duration>
<type>eighth</type>
<time-modification>
<actual-notes>3</actual-notes>
<normal-notes>2</normal-notes>
</time-modification>
<stem>up</stem>
<beam number="1">begin</beam>
<notations>
<tuplet type="start" placement="above"/>
</notations>
<lyric number="1">
<syllabic>single</syllabic>
<text>mets</text>
</lyric>
<lyric number="2">
<syllabic>begin</syllabic>
<text>m'af</text>
</lyric>
</note>
<note>
<pitch>
<step>A</step>
<octave>4</octave>
</pitch>
<duration>16</duration>
<type>eighth</type>
<time-modification>
<actual-notes>3</actual-notes>
<normal-notes>2</normal-notes>
</time-modification>
<stem>up</stem>
<beam number="1">end</beam>
<notations/>
<lyric number="1">
<syllabic>single</syllabic>
<text>la</text>
</lyric>
<lyric number="2">
<syllabic>middle</syllabic>
<text>fer</text>
</lyric>
</note>
<note>
<pitch>
<step>B</step>
<octave>4</octave>
</pitch>
<duration>16</duration>
<tie type="start"/>
<type>eighth</type>
<time-modification>
<actual-notes>3</actual-notes>
<normal-notes>2</normal-notes>
</time-modification>
<stem>up</stem>
<beam number="1">continue</beam>
<notations>
<tied type="start"/>
<tuplet type="stop" placement="above"/>
</notations>
<lyric number="1">
<syllabic>single</syllabic>
<text>joie</text>
</lyric>
<lyric number="2">
<syllabic>end</syllabic>
<text>mis</text>
</lyric>
</note>
<note>
<pitch>
<step>B</step>
<octave>4</octave>
</pitch>
<duration>72</duration>
<tie type="stop"/>
<type>quarter</type>
<dot/>
<notations>
<tied type="stop"/>
</notations>
</note>
<note>
<pitch>
<step>D</step>
<octave>4</octave>
</pitch>
<duration>24</duration>
<type>eighth</type>
<lyric number="1">
<syllabic>single</syllabic>
<text></text>
</lyric>
<lyric number="2">
<syllabic>single</syllabic>
<text>dans</text>
</lyric>
</note>
</measure>
<measure number="23">
<note>
<pitch>
<step>C</step>
<octave>5</octave>
</pitch>
<duration>48</duration>
<type>quarter</type>
<lyric number="1">
<syllabic>single</syllabic>
<text>dans</text>
</lyric>
<lyric number="2">
<syllabic>single</syllabic>
<text>ta</text>
</lyric>
</note>
<note>
<pitch>
<step>B</step>
<octave>4</octave>
</pitch>
<duration>48</duration>
<type>quarter</type>
<lyric number="1">
<syllabic>single</syllabic>
<text>mon</text>
</lyric>
<lyric number="2">
<syllabic>begin</syllabic>
<text>pré</text>
</lyric>
</note>
<note>
<pitch>
<step>A</step>
<octave>4</octave>
</pitch>
<duration>96</duration>
<type>half</type>
<lyric number="1">
<syllabic>single</syllabic>
<text>cœur.</text>
</lyric>
<lyric number="2">
<syllabic>end</syllabic>
<text>sence.</text>
</lyric>
</note>
</measure>
<measure number="24">
<note>
<rest/>
<duration>48</duration>
<type>quarter</type>
</note>
<note>
<pitch>
<step>G</step>
<octave>4</octave>
</pitch>
<duration>16</duration>
<type>eighth</type>
<time-modification>
<actual-notes>3</actual-notes>
<normal-notes>2</normal-notes>
</time-modification>
<stem>up</stem>
<beam number="1">begin</beam>
<notations>
<tuplet type="start" placement="above"/>
</notations>
<lyric number="1">
<syllabic>single</syllabic>
<text>Tu</text>
</lyric>
<lyric number="2">
<syllabic>begin</syllabic>
<text>A</text>
</lyric>
</note>
<note>
<pitch>
<step>E</step>
<octave>4</octave>
</pitch>
<duration>16</duration>
<type>eighth</type>
<time-modification>
<actual-notes>3</actual-notes>
<normal-notes>2</normal-notes>
</time-modification>
<stem>up</stem>
<beam number="1">end</beam>
<notations/>
<lyric number="1">
<syllabic>begin</syllabic>
<text>m'ap</text>
</lyric>
<lyric number="2">
<syllabic>end</syllabic>
<text>vec</text>
</lyric>
</note>
<note>
<pitch>
<step>G</step>
<octave>4</octave>
</pitch>
<duration>16</duration>
<tie type="start"/>
<type>eighth</type>
<time-modification>
<actual-notes>3</actual-notes>
<normal-notes>2</normal-notes>
</time-modification>
<stem>up</stem>
<beam number="1">continue</beam>
<notations>
<tied type="start"/>
<tuplet type="stop" placement="above"/>
</notations>
<lyric number="1">
<syllabic>middle</syllabic>
<text>pel</text>
</lyric>
<lyric number="2">
<syllabic>single</syllabic>
<text>toi,</text>
</lyric>
</note>
<note>
<pitch>
<step>G</step>
<octave>4</octave>
</pitch>
<duration>24</duration>
<tie type="stop"/>
<type>eighth</type>
<stem>up</stem>
<beam number="1">begin</beam>
<notations>
<tied type="stop"/>
</notations>
</note>
<note>
<pitch>
<step>E</step>
<octave>4</octave>
</pitch>
<duration>24</duration>
<type>eighth</type>
<stem>up</stem>
<beam number="1">continue</beam>
<lyric number="1">
<syllabic>end</syllabic>
<text>les</text>
</lyric>
<lyric number="2">
<syllabic>single</syllabic>
<text>je</text>
</lyric>
</note>
<note>
<pitch>
<step>G</step>
<octave>4</octave>
</pitch>
<duration>24</duration>
<type>eighth</type>
<stem>up</stem>
<beam number="1">begin</beam>
<lyric number="1">
<syllabic>single</syllabic>
<text>ton</text>
</lyric>
<lyric number="2">
<syllabic>single</syllabic>
<text>ne</text>
</lyric>
</note>
<note>
<pitch>
<step>A</step>
<octave>4</octave>
</pitch>
<duration>24</duration>
<tie type="start"/>
<type>eighth</type>
<stem>up</stem>
<beam number="1">continue</beam>
<notations>
<tied type="start"/>
</notations>
<lyric number="1">
<syllabic>begin</syllabic>
<text>en</text>
</lyric>
<lyric number="2">
<syllabic>single</syllabic>
<text>crains</text>
</lyric>
</note>
</measure>
<measure number="25">
<note>
<pitch>
<step>A</step>
<octave>4</octave>
</pitch>
<duration>24</duration>
<tie type="stop"/>
<type>eighth</type>
<stem>up</stem>
<beam number="1">begin</beam>
<notations>
<tied type="stop"/>
</notations>
</note>
<note>
<pitch>
<step>A</step>
<octave>4</octave>
</pitch>
<duration>24</duration>
<tie type="start"/>
<type>eighth</type>
<stem>up</stem>
<beam number="1">continue</beam>
<notations>
<tied type="start"/>
</notations>
<lyric number="1">
<syllabic>end</syllabic>
<text>fant.</text>
</lyric>
<lyric number="2">
<syllabic>single</syllabic>
<text>rien.</text>
</lyric>
</note>
<note>
<pitch>
<step>A</step>
<octave>4</octave>
</pitch>
<duration>144</duration>
<tie type="stop"/>
<type>half</type>
<dot/>
<notations>
<tied type="stop"/>
</notations>
</note>
</measure>
<measure number="26">
<note>
<rest/>
<duration>144</duration>
<type>half</type>
<dot/>
</note>
<note>
<rest/>
<duration>24</duration>
<type>eighth</type>
</note>
<barline location="right">
<bar-style>light-heavy</bar-style>
<repeat direction="backward"/>
</barline>
</measure>
<measure number="27">
<direction placement="above">
<direction-type>
<words relative-y="60">D.C. al Coda</words>
</direction-type>
</direction>
<barline location="left">
<bar-style>heavy-light</bar-style>
<repeat direction="forward"/>
</barline>
<direction>
<direction-type>
<coda/>
</direction-type>
<sound coda=""/>
</direction>
<note>
<rest/>
<duration>48</duration>
<type>quarter</type>
</note>
<note>
<pitch>
<step>C</step>
<octave>5</octave>
</pitch>
<duration>24</duration>
<type>eighth</type>
<stem>down</stem>
<beam number="1">begin</beam>
<lyric number="1">
<syllabic>single</syllabic>
<text>Oui,</text>
</lyric>
</note>
<note>
<pitch>
<step>C</step>
<octave>5</octave>
</pitch>
<duration>24</duration>
<type>eighth</type>
<stem>down</stem>
<beam number="1">continue</beam>
<lyric number="1">
<syllabic>single</syllabic>
<text>je</text>
</lyric>
</note>
<note>
<pitch>
<step>C</step>
<octave>5</octave>
</pitch>
<duration>48</duration>
<type>quarter</type>
<lyric number="1">
<syllabic>single</syllabic>
<text>crie</text>
</lyric>
</note>
<note>
<pitch>
<step>C</step>
<octave>5</octave>
</pitch>
<duration>24</duration>
<type>eighth</type>
<stem>down</stem>
<beam number="1">begin</beam>
<lyric number="1">
<syllabic>single</syllabic>
<text>à</text>
</lyric>
</note>
<note>
<pitch>
<step>C</step>
<octave>5</octave>
</pitch>
<duration>24</duration>
<tie type="start"/>
<type>eighth</type>
<stem>down</stem>
<beam number="1">continue</beam>
<notations>
<tied type="start"/>
</notations>
<lyric number="1">
<syllabic>single</syllabic>
<text>toi,</text>
</lyric>
</note>
</measure>
<measure number="28">
<note>
<pitch>
<step>C</step>
<octave>5</octave>
</pitch>
<duration>48</duration>
<tie type="stop"/>
<type>quarter</type>
<notations>
<tied type="stop"/>
</notations>
</note>
<note>
<pitch>
<step>C</step>
<octave>5</octave>
</pitch>
<duration>24</duration>
<type>eighth</type>
<stem>down</stem>
<beam number="1">begin</beam>
<lyric number="1">
<syllabic>begin</syllabic>
<text>j'é</text>
</lyric>
</note>
<note>
<pitch>
<step>C</step>
<octave>5</octave>
</pitch>
<duration>24</duration>
<type>eighth</type>
<stem>down</stem>
<beam number="1">continue</beam>
<lyric number="1">
<syllabic>middle</syllabic>
<text>lè</text>
</lyric>
</note>
<note>
<pitch>
<step>F</step>
<octave>5</octave>
</pitch>
<duration>48</duration>
<type>quarter</type>
<accidental>natural</accidental>
<lyric number="1">
<syllabic>end</syllabic>
<text>ve</text>
</lyric>
</note>
<note>
<pitch>
<step>F</step>
<octave>5</octave>
</pitch>
<duration>24</duration>
<type>eighth</type>
<stem>down</stem>
<beam number="1">begin</beam>
<lyric number="1">
<syllabic>single</syllabic>
<text>ton</text>
</lyric>
</note>
<note>
<pitch>
<step>E</step>
<octave>5</octave>
</pitch>
<duration>24</duration>
<tie type="start"/>
<type>eighth</type>
<stem>down</stem>
<beam number="1">continue</beam>
<notations>
<tied type="start"/>
</notations>
<lyric number="1">
<syllabic>single</syllabic>
<text>nom</text>
</lyric>
</note>
</measure>
<measure number="29">
<note>
<pitch>
<step>E</step>
<octave>5</octave>
</pitch>
<duration>24</duration>
<tie type="stop"/>
<type>eighth</type>
<stem>down</stem>
<beam number="1">begin</beam>
<notations>
<tied type="stop"/>
<slur type="start" number="1"/>
</notations>
</note>
<note>
<pitch>
<step>D</step>
<octave>5</octave>
</pitch>
<duration>12</duration>
<type>16th</type>
<stem>down</stem>
<beam number="1">end</beam>
<notations>
<slur type="continue" number="1"/>
</notations>
</note>
<note>
<pitch>
<step>C</step>
<octave>5</octave>
</pitch>
<duration>12</duration>
<tie type="start"/>
<type>16th</type>
<stem>down</stem>
<beam number="1">continue</beam>
<notations>
<tied type="start"/>
<slur type="stop" number="1"/>
</notations>
</note>
<note>
<pitch>
<step>C</step>
<octave>5</octave>
</pitch>
<duration>96</duration>
<tie type="stop"/>
<type>half</type>
<notations>
<tied type="stop"/>
</notations>
</note>
<note>
<pitch>
<step>C</step>
<octave>5</octave>
</pitch>
<duration>24</duration>
<type>eighth</type>
<stem>down</stem>
<beam number="1">begin</beam>
<lyric number="1">
<syllabic>single</syllabic>
<text>à</text>
</lyric>
</note>
<note>
<pitch>
<step>E</step>
<octave>5</octave>
</pitch>
<duration>24</duration>
<tie type="start"/>
<type>eighth</type>
<stem>down</stem>
<beam number="1">continue</beam>
<notations>
<tied type="start"/>
</notations>
<lyric number="1">
<syllabic>begin</syllabic>
<text>ja</text>
</lyric>
</note>
</measure>
<measure number="30">
<note>
<pitch>
<step>E</step>
<octave>5</octave>
</pitch>
<duration>24</duration>
<tie type="stop"/>
<type>eighth</type>
<stem>down</stem>
<beam number="1">begin</beam>
<notations>
<tied type="stop"/>
</notations>
</note>
<note>
<pitch>
<step>D</step>
<octave>5</octave>
</pitch>
<duration>24</duration>
<tie type="start"/>
<type>eighth</type>
<stem>down</stem>
<beam number="1">continue</beam>
<notations>
<tied type="start"/>
</notations>
<lyric number="1">
<syllabic>end</syllabic>
<text>mais.</text>
</lyric>
</note>
<note>
<pitch>
<step>D</step>
<octave>5</octave>
</pitch>
<duration>144</duration>
<tie type="stop"/>
<type>half</type>
<dot/>
<notations>
<tied type="stop"/>
</notations>
</note>
</measure>
<measure number="31">
<note>
<rest/>
<duration>24</duration>
<type>eighth</type>
</note>
<note>
<pitch>
<step>G</step>
<octave>4</octave>
</pitch>
<duration>24</duration>
<type>eighth</type>
<lyric number="1">
<syllabic>single</syllabic>
<text>Je</text>
</lyric>
</note>
<note>
<pitch>
<step>C</step>
<octave>5</octave>
</pitch>
<duration>24</duration>
<type>eighth</type>
<stem>down</stem>
<beam number="1">begin</beam>
<lyric number="1">
<syllabic>begin</syllabic>
<text>pro</text>
</lyric>
</note>
<note>
<pitch>
<step>C</step>
<octave>5</octave>
</pitch>
<duration>24</duration>
<type>eighth</type>
<stem>down</stem>
<beam number="1">continue</beam>
<lyric number="1">
<syllabic>end</syllabic>
<text>clame</text>
</lyric>
</note>
<note>
<pitch>
<step>C</step>
<octave>5</octave>
</pitch>
<duration>48</duration>
<type>quarter</type>
<lyric number="1">
<syllabic>single</syllabic>
<text>ta</text>
</lyric>
</note>
<note>
<pitch>
<step>C</step>
<octave>5</octave>
</pitch>
<duration>24</duration>
<type>eighth</type>
<stem>down</stem>
<beam number="1">begin</beam>
<lyric number="1">
<syllabic>begin</syllabic>
<text>splen</text>
</lyric>
</note>
<note>
<pitch>
<step>C</step>
<octave>5</octave>
</pitch>
<duration>24</duration>
<type>eighth</type>
<stem>down</stem>
<beam number="1">continue</beam>
<lyric number="1">
<syllabic>end</syllabic>
<text>deur,</text>
</lyric>
</note>
</measure>
<measure number="32">
<note>
<rest/>
<duration>24</duration>
<type>eighth</type>
</note>
<note>
<pitch>
<step>G</step>
<octave>4</octave>
</pitch>
<duration>24</duration>
<type>eighth</type>
<lyric number="1">
<syllabic>single</syllabic>
<text></text>
</lyric>
</note>
<note>
<pitch>
<step>C</step>
<octave>5</octave>
</pitch>
<duration>24</duration>
<type>eighth</type>
<stem>down</stem>
<beam number="1">begin</beam>
<lyric number="1">
<syllabic>begin</syllabic>
<text>Chan</text>
</lyric>
</note>
<note>
<pitch>
<step>C</step>
<octave>5</octave>
</pitch>
<duration>24</duration>
<type>eighth</type>
<stem>down</stem>
<beam number="1">continue</beam>
<lyric number="1">
<syllabic>end</syllabic>
<text>te</text>
</lyric>
</note>
<note>
<pitch>
<step>C</step>
<octave>5</octave>
</pitch>
<duration>48</duration>
<type>quarter</type>
<lyric number="1">
<syllabic>single</syllabic>
<text>ta</text>
</lyric>
</note>
<note>
<pitch>
<step>C</step>
<octave>5</octave>
</pitch>
<duration>24</duration>
<type>eighth</type>
<stem>down</stem>
<beam number="1">begin</beam>
<lyric number="1">
<syllabic>begin</syllabic>
<text>gran</text>
</lyric>
</note>
<note>
<pitch>
<step>C</step>
<octave>5</octave>
</pitch>
<duration>24</duration>
<tie type="start"/>
<type>eighth</type>
<stem>down</stem>
<beam number="1">continue</beam>
<notations>
<tied type="start"/>
</notations>
<lyric number="1">
<syllabic>end</syllabic>
<text>deur</text>
</lyric>
</note>
</measure>
<measure number="33">
<note>
<pitch>
<step>C</step>
<octave>5</octave>
</pitch>
<duration>96</duration>
<tie type="stop"/>
<type>half</type>
<notations>
<tied type="stop"/>
</notations>
</note>
<note>
<pitch>
<step>C</step>
<octave>5</octave>
</pitch>
<duration>24</duration>
<tie type="stop"/>
<type>eighth</type>
<stem>up</stem>
<beam number="1">begin</beam>
<notations>
<tied type="stop"/>
</notations>
</note>
<note>
<pitch>
<step>G</step>
<octave>4</octave>
</pitch>
<duration>24</duration>
<type>eighth</type>
<stem>up</stem>
<beam number="1">continue</beam>
<lyric number="1">
<syllabic>single</syllabic>
<text>pour</text>
</lyric>
</note>
<note>
<pitch>
<step>E</step>
<octave>5</octave>
</pitch>
<duration>24</duration>
<type>eighth</type>
<stem>down</stem>
<beam number="1">begin</beam>
<lyric number="1">
<syllabic>begin</syllabic>
<text>tou</text>
</lyric>
</note>
<note>
<pitch>
<step>D</step>
<octave>5</octave>
</pitch>
<duration>24</duration>
<tie type="start"/>
<type>eighth</type>
<stem>down</stem>
<beam number="1">continue</beam>
<notations>
<tied type="start"/>
</notations>
<lyric number="1">
<syllabic>end</syllabic>
<text>jours.</text>
</lyric>
</note>
</measure>
<measure number="34">
<barline location="left">
<ending type="start" number="1"/>
</barline>
<note>
<pitch>
<step>D</step>
<octave>5</octave>
</pitch>
<duration>192</duration>
<tie type="stop"/>
<type>whole</type>
<notations>
<tied type="stop"/>
</notations>
</note>
<barline location="right">
<bar-style>light-heavy</bar-style>
<ending type="stop" number="1"/>
<repeat direction="backward"/>
</barline>
</measure>
<measure number="35">
<barline location="left">
<ending type="start" number="2"/>
</barline>
<barline location="left">
<bar-style>heavy-light</bar-style>
</barline>
<note>
<pitch>
<step>D</step>
<octave>5</octave>
</pitch>
<duration>144</duration>
<tie type="stop"/>
<type>half</type>
<dot/>
<notations>
<tied type="stop"/>
</notations>
</note>
<note>
<pitch>
<step>D</step>
<octave>5</octave>
</pitch>
<duration>24</duration>
<tie type="stop"/>
<type>eighth</type>
<notations>
<tied type="stop"/>
</notations>
</note>
<note>
<pitch>
<step>B</step>
<octave>4</octave>
</pitch>
<duration>24</duration>
<tie type="start"/>
<type>eighth</type>
<notations>
<tied type="start"/>
</notations>
<lyric number="1">
<syllabic>single</syllabic>
<text>Grande</text>
</lyric>
</note>
</measure>
<measure number="36">
<note>
<pitch>
<step>B</step>
<octave>4</octave>
</pitch>
<duration>24</duration>
<tie type="stop"/>
<type>eighth</type>
<stem>down</stem>
<beam number="1">begin</beam>
<notations>
<tied type="stop"/>
</notations>
</note>
<note>
<pitch>
<step>B</step>
<octave>4</octave>
</pitch>
<duration>24</duration>
<type>eighth</type>
<stem>down</stem>
<beam number="1">continue</beam>
<lyric number="1">
<syllabic>single</syllabic>
<text>est</text>
</lyric>
</note>
<note>
<pitch>
<step>B</step>
<octave>4</octave>
</pitch>
<duration>24</duration>
<type>eighth</type>
<stem>up</stem>
<beam number="1">begin</beam>
<lyric number="1">
<syllabic>single</syllabic>
<text>ta</text>
</lyric>
</note>
<note>
<pitch>
<step>G</step>
<octave>4</octave>
</pitch>
<duration>24</duration>
<type>eighth</type>
<stem>up</stem>
<beam number="1">continue</beam>
<lyric number="1">
<syllabic>begin</syllabic>
<text>fi</text>
</lyric>
</note>
<note>
<pitch>
<step>C</step>
<octave>5</octave>
</pitch>
<duration>48</duration>
<type>quarter</type>
<lyric number="1">
<syllabic>middle</syllabic>
<text>dé</text>
</lyric>
</note>
<note>
<pitch>
<step>B</step>
<octave>4</octave>
</pitch>
<duration>24</duration>
<type>eighth</type>
<stem>up</stem>
<beam number="1">begin</beam>
<lyric number="1">
<syllabic>middle</syllabic>
<text>li</text>
</lyric>
</note>
<note>
<pitch>
<step>A</step>
<octave>4</octave>
</pitch>
<duration>24</duration>
<tie type="start"/>
<type>eighth</type>
<stem>up</stem>
<beam number="1">continue</beam>
<notations>
<tied type="start"/>
</notations>
<lyric number="1">
<syllabic>end</syllabic>
<text>té,</text>
</lyric>
</note>
</measure>
<measure number="37">
<note>
<pitch>
<step>A</step>
<octave>4</octave>
</pitch>
<duration>48</duration>
<tie type="stop"/>
<type>quarter</type>
<notations>
<tied type="stop"/>
</notations>
</note>
<note>
<pitch>
<step>A</step>
<octave>4</octave>
</pitch>
<duration>24</duration>
<type>eighth</type>
<stem>up</stem>
<beam number="1">begin</beam>
<lyric number="1">
<syllabic>single</syllabic>
<text>ta</text>
</lyric>
</note>
<note>
<pitch>
<step>A</step>
<octave>4</octave>
</pitch>
<duration>24</duration>
<type>eighth</type>
<stem>up</stem>
<beam number="1">continue</beam>
<lyric number="1">
<syllabic>begin</syllabic>
<text>fi</text>
</lyric>
</note>
<note>
<pitch>
<step>B</step>
<octave>4</octave>
</pitch>
<duration>48</duration>
<type>quarter</type>
<lyric number="1">
<syllabic>middle</syllabic>
<text>dé</text>
</lyric>
</note>
<note>
<pitch>
<step>D</step>
<octave>5</octave>
</pitch>
<duration>24</duration>
<type>eighth</type>
<stem>up</stem>
<beam number="1">begin</beam>
<lyric number="1">
<syllabic>middle</syllabic>
<text>li</text>
</lyric>
</note>
<note>
<pitch>
<step>G</step>
<octave>4</octave>
</pitch>
<duration>24</duration>
<tie type="start"/>
<type>eighth</type>
<stem>up</stem>
<beam number="1">continue</beam>
<notations>
<tied type="start"/>
</notations>
<lyric number="1">
<syllabic>end</syllabic>
<text>té</text>
</lyric>
</note>
</measure>
<measure number="38">
<note>
<pitch>
<step>G</step>
<octave>4</octave>
</pitch>
<duration>48</duration>
<tie type="stop"/>
<type>quarter</type>
<notations>
<tied type="stop"/>
</notations>
</note>
<note>
<pitch>
<step>G</step>
<octave>4</octave>
</pitch>
<duration>12</duration>
<type>16th</type>
<stem>up</stem>
<beam number="1">begin</beam>
<lyric number="1">
<syllabic>single</syllabic>
<text>Tous</text>
</lyric>
</note>
<note>
<pitch>
<step>G</step>
<octave>4</octave>
</pitch>
<duration>12</duration>
<type>16th</type>
<stem>up</stem>
<beam number="1">end</beam>
<lyric number="1">
<syllabic>single</syllabic>
<text>les</text>
</lyric>
</note>
<note>
<pitch>
<step>G</step>
<octave>4</octave>
</pitch>
<duration>24</duration>
<tie type="start"/>
<type>eighth</type>
<stem>up</stem>
<beam number="1">continue</beam>
<notations>
<tied type="start"/>
</notations>
<lyric number="1">
<syllabic>single</syllabic>
<text>jours</text>
</lyric>
</note>
<note>
<pitch>
<step>G</step>
<octave>4</octave>
</pitch>
<duration>24</duration>
<tie type="stop"/>
<type>eighth</type>
<stem>up</stem>
<beam number="1">begin</beam>
<notations>
<tied type="stop"/>
</notations>
</note>
<note>
<pitch>
<step>D</step>
<octave>4</octave>
</pitch>
<duration>24</duration>
<tie type="start"/>
<type>eighth</type>
<stem>up</stem>
<beam number="1">continue</beam>
<notations>
<tied type="start"/>
</notations>
<lyric number="1">
<syllabic>single</syllabic>
<text>de</text>
</lyric>
</note>
<note>
<pitch>
<step>D</step>
<octave>4</octave>
</pitch>
<duration>24</duration>
<tie type="stop"/>
<type>eighth</type>
<stem>up</stem>
<beam number="1">begin</beam>
<notations>
<tied type="stop"/>
</notations>
</note>
<note>
<pitch>
<step>B</step>
<octave>3</octave>
</pitch>
<duration>24</duration>
<tie type="start"/>
<type>eighth</type>
<stem>up</stem>
<beam number="1">continue</beam>
<notations>
<tied type="start"/>
</notations>
<lyric number="1">
<syllabic>single</syllabic>
<text>ma</text>
</lyric>
</note>
</measure>
<measure number="39">
<note>
<pitch>
<step>B</step>
<octave>3</octave>
</pitch>
<duration>24</duration>
<tie type="stop"/>
<type>eighth</type>
<stem>up</stem>
<beam number="1">begin</beam>
<notations>
<tied type="stop"/>
</notations>
</note>
<note>
<pitch>
<step>E</step>
<octave>4</octave>
</pitch>
<duration>24</duration>
<tie type="start"/>
<type>eighth</type>
<stem>up</stem>
<beam number="1">continue</beam>
<notations>
<tied type="start"/>
</notations>
<lyric number="1">
<syllabic>single</syllabic>
<text>vie.</text>
</lyric>
</note>
<note>
<pitch>
<step>E</step>
<octave>4</octave>
</pitch>
<duration>96</duration>
<tie type="stop"/>
<type>half</type>
<notations>
<tied type="stop"/>
</notations>
</note>
<note>
<rest/>
<duration>48</duration>
<type>quarter</type>
</note>
</measure>
<measure number="40">
<note>
<rest/>
<duration>48</duration>
<type>quarter</type>
</note>
<note>
<pitch>
<step>B</step>
<octave>4</octave>
</pitch>
<duration>24</duration>
<type>eighth</type>
<stem>down</stem>
<beam number="1">begin</beam>
<lyric number="1">
<syllabic>single</syllabic>
<text>Grand</text>
</lyric>
</note>
<note>
<pitch>
<step>B</step>
<octave>4</octave>
</pitch>
<duration>24</duration>
<type>eighth</type>
<stem>down</stem>
<beam number="1">continue</beam>
<lyric number="1">
<syllabic>single</syllabic>
<text>est</text>
</lyric>
</note>
<note>
<pitch>
<step>C</step>
<octave>5</octave>
</pitch>
<duration>48</duration>
<type>quarter</type>
<lyric number="1">
<syllabic>single</syllabic>
<text>ton</text>
</lyric>
</note>
<note>
<pitch>
<step>B</step>
<octave>4</octave>
</pitch>
<duration>24</duration>
<type>eighth</type>
<stem>up</stem>
<beam number="1">begin</beam>
<lyric number="1">
<syllabic>begin</syllabic>
<text>a</text>
</lyric>
</note>
<note>
<pitch>
<step>A</step>
<octave>4</octave>
</pitch>
<duration>24</duration>
<tie type="start"/>
<type>eighth</type>
<stem>up</stem>
<beam number="1">continue</beam>
<notations>
<tied type="start"/>
</notations>
<lyric number="1">
<syllabic>end</syllabic>
<text>mour,</text>
</lyric>
</note>
</measure>
<measure number="41">
<note>
<pitch>
<step>A</step>
<octave>4</octave>
</pitch>
<duration>48</duration>
<tie type="stop"/>
<type>quarter</type>
<notations>
<tied type="stop"/>
</notations>
</note>
<note>
<pitch>
<step>A</step>
<octave>4</octave>
</pitch>
<duration>24</duration>
<type>eighth</type>
<stem>up</stem>
<beam number="1">begin</beam>
<lyric number="1">
<syllabic>single</syllabic>
<text>grand</text>
</lyric>
</note>
<note>
<pitch>
<step>A</step>
<octave>4</octave>
</pitch>
<duration>24</duration>
<type>eighth</type>
<stem>up</stem>
<beam number="1">continue</beam>
<lyric number="1">
<syllabic>single</syllabic>
<text>est</text>
</lyric>
</note>
<note>
<pitch>
<step>B</step>
<octave>4</octave>
</pitch>
<duration>48</duration>
<type>quarter</type>
<lyric number="1">
<syllabic>single</syllabic>
<text>ton</text>
</lyric>
</note>
<note>
<pitch>
<step>D</step>
<octave>5</octave>
</pitch>
<duration>24</duration>
<type>eighth</type>
<stem>up</stem>
<beam number="1">begin</beam>
<lyric number="1">
<syllabic>begin</syllabic>
<text>a</text>
</lyric>
</note>
<note>
<pitch>
<step>G</step>
<octave>4</octave>
</pitch>
<duration>24</duration>
<tie type="start"/>
<type>eighth</type>
<stem>up</stem>
<beam number="1">continue</beam>
<notations>
<tied type="start"/>
</notations>
<lyric number="1">
<syllabic>end</syllabic>
<text>mour</text>
</lyric>
</note>
</measure>
<measure number="42">
<note>
<pitch>
<step>G</step>
<octave>4</octave>
</pitch>
<duration>48</duration>
<tie type="stop"/>
<type>quarter</type>
<notations>
<tied type="stop"/>
</notations>
</note>
<note>
<pitch>
<step>G</step>
<octave>4</octave>
</pitch>
<duration>12</duration>
<type>16th</type>
<stem>up</stem>
<beam number="1">begin</beam>
<lyric number="1">
<syllabic>single</syllabic>
<text>Chaque</text>
</lyric>
</note>
<note>
<pitch>
<step>G</step>
<octave>4</octave>
</pitch>
<duration>24</duration>
<type>eighth</type>
<stem>up</stem>
<beam number="1">end</beam>
<lyric number="1">
<syllabic>begin</syllabic>
<text>ins</text>
</lyric>
</note>
<note>
<pitch>
<step>G</step>
<octave>4</octave>
</pitch>
<duration>12</duration>
<tie type="start"/>
<type>16th</type>
<stem>up</stem>
<beam number="1">continue</beam>
<notations>
<tied type="start"/>
</notations>
<lyric number="1">
<syllabic>end</syllabic>
<text>tant</text>
</lyric>
</note>
<note>
<pitch>
<step>G</step>
<octave>4</octave>
</pitch>
<duration>24</duration>
<tie type="stop"/>
<type>eighth</type>
<stem>up</stem>
<beam number="1">begin</beam>
<notations>
<tied type="stop"/>
</notations>
</note>
<note>
<pitch>
<step>D</step>
<octave>4</octave>
</pitch>
<duration>24</duration>
<tie type="start"/>
<type>eighth</type>
<stem>up</stem>
<beam number="1">continue</beam>
<notations>
<tied type="start"/>
</notations>
<lyric number="1">
<syllabic>single</syllabic>
<text>de</text>
</lyric>
</note>
<note>
<pitch>
<step>D</step>
<octave>4</octave>
</pitch>
<duration>24</duration>
<tie type="stop"/>
<type>eighth</type>
<stem>up</stem>
<beam number="1">begin</beam>
<notations>
<tied type="stop"/>
</notations>
</note>
<note>
<pitch>
<step>E</step>
<octave>4</octave>
</pitch>
<duration>24</duration>
<tie type="start"/>
<type>eighth</type>
<stem>up</stem>
<beam number="1">continue</beam>
<notations>
<tied type="start"/>
</notations>
<lyric number="1">
<syllabic>single</syllabic>
<text>mes</text>
</lyric>
</note>
</measure>
<measure number="43">
<note>
<pitch>
<step>E</step>
<octave>4</octave>
</pitch>
<duration>24</duration>
<tie type="stop"/>
<type>eighth</type>
<stem>up</stem>
<beam number="1">begin</beam>
<notations>
<tied type="stop"/>
</notations>
</note>
<note>
<pitch>
<step>E</step>
<octave>4</octave>
</pitch>
<duration>24</duration>
<tie type="start"/>
<type>eighth</type>
<stem>up</stem>
<beam number="1">continue</beam>
<notations>
<tied type="start"/>
</notations>
<lyric number="1">
<syllabic>single</syllabic>
<text>jours.</text>
</lyric>
</note>
<note>
<pitch>
<step>E</step>
<octave>4</octave>
</pitch>
<duration>96</duration>
<tie type="stop"/>
<type>half</type>
<notations>
<tied type="stop"/>
</notations>
</note>
<note>
<pitch>
<step>E</step>
<octave>4</octave>
</pitch>
<duration>24</duration>
<tie type="stop"/>
<type>eighth</type>
<notations>
<tied type="stop"/>
</notations>
</note>
<note>
<pitch>
<step>B</step>
<octave>4</octave>
</pitch>
<duration>24</duration>
<tie type="start"/>
<type>eighth</type>
<notations>
<tied type="start"/>
</notations>
<lyric number="1">
<syllabic>single</syllabic>
<text>Grande</text>
</lyric>
</note>
</measure>
<measure number="44">
<note>
<pitch>
<step>B</step>
<octave>4</octave>
</pitch>
<duration>24</duration>
<tie type="stop"/>
<type>eighth</type>
<stem>down</stem>
<beam number="1">begin</beam>
<notations>
<tied type="stop"/>
</notations>
</note>
<note>
<pitch>
<step>B</step>
<octave>4</octave>
</pitch>
<duration>24</duration>
<type>eighth</type>
<stem>down</stem>
<beam number="1">continue</beam>
<lyric number="1">
<syllabic>single</syllabic>
<text>est</text>
</lyric>
</note>
<note>
<pitch>
<step>B</step>
<octave>4</octave>
</pitch>
<duration>24</duration>
<type>eighth</type>
<stem>up</stem>
<beam number="1">begin</beam>
<lyric number="1">
<syllabic>single</syllabic>
<text>ta</text>
</lyric>
</note>
<note>
<pitch>
<step>G</step>
<octave>4</octave>
</pitch>
<duration>24</duration>
<type>eighth</type>
<stem>up</stem>
<beam number="1">continue</beam>
<lyric number="1">
<syllabic>begin</syllabic>
<text>fi</text>
</lyric>
</note>
<note>
<pitch>
<step>C</step>
<octave>5</octave>
</pitch>
<duration>48</duration>
<type>quarter</type>
<lyric number="1">
<syllabic>middle</syllabic>
<text>dé</text>
</lyric>
</note>
<note>
<pitch>
<step>B</step>
<octave>4</octave>
</pitch>
<duration>24</duration>
<type>eighth</type>
<stem>up</stem>
<beam number="1">begin</beam>
<lyric number="1">
<syllabic>middle</syllabic>
<text>li</text>
</lyric>
</note>
<note>
<pitch>
<step>A</step>
<octave>4</octave>
</pitch>
<duration>24</duration>
<tie type="start"/>
<type>eighth</type>
<stem>up</stem>
<beam number="1">continue</beam>
<notations>
<tied type="start"/>
</notations>
<lyric number="1">
<syllabic>end</syllabic>
<text>té,</text>
</lyric>
</note>
</measure>
<measure number="45">
<note>
<pitch>
<step>A</step>
<octave>4</octave>
</pitch>
<duration>48</duration>
<tie type="stop"/>
<type>quarter</type>
<notations>
<tied type="stop"/>
</notations>
</note>
<note>
<pitch>
<step>A</step>
<octave>4</octave>
</pitch>
<duration>24</duration>
<type>eighth</type>
<stem>up</stem>
<beam number="1">begin</beam>
<lyric number="1">
<syllabic>single</syllabic>
<text>ta</text>
</lyric>
</note>
<note>
<pitch>
<step>A</step>
<octave>4</octave>
</pitch>
<duration>24</duration>
<type>eighth</type>
<stem>up</stem>
<beam number="1">continue</beam>
<lyric number="1">
<syllabic>begin</syllabic>
<text>fi</text>
</lyric>
</note>
<note>
<pitch>
<step>B</step>
<octave>4</octave>
</pitch>
<duration>48</duration>
<type>quarter</type>
<lyric number="1">
<syllabic>middle</syllabic>
<text>dé</text>
</lyric>
</note>
<note>
<pitch>
<step>D</step>
<octave>5</octave>
</pitch>
<duration>24</duration>
<type>eighth</type>
<stem>up</stem>
<beam number="1">begin</beam>
<lyric number="1">
<syllabic>middle</syllabic>
<text>li</text>
</lyric>
</note>
<note>
<pitch>
<step>G</step>
<octave>4</octave>
</pitch>
<duration>24</duration>
<tie type="start"/>
<type>eighth</type>
<stem>up</stem>
<beam number="1">continue</beam>
<notations>
<tied type="start"/>
</notations>
<lyric number="1">
<syllabic>end</syllabic>
<text>té</text>
</lyric>
</note>
</measure>
<measure number="46">
<note>
<pitch>
<step>G</step>
<octave>4</octave>
</pitch>
<duration>48</duration>
<tie type="stop"/>
<type>quarter</type>
<notations>
<tied type="stop"/>
</notations>
</note>
<note>
<pitch>
<step>G</step>
<octave>4</octave>
</pitch>
<duration>12</duration>
<type>16th</type>
<stem>up</stem>
<beam number="1">begin</beam>
<lyric number="1">
<syllabic>single</syllabic>
<text>Tous</text>
</lyric>
</note>
<note>
<pitch>
<step>G</step>
<octave>4</octave>
</pitch>
<duration>12</duration>
<type>16th</type>
<stem>up</stem>
<beam number="1">end</beam>
<lyric number="1">
<syllabic>single</syllabic>
<text>les</text>
</lyric>
</note>
<note>
<pitch>
<step>G</step>
<octave>4</octave>
</pitch>
<duration>24</duration>
<tie type="start"/>
<type>eighth</type>
<stem>up</stem>
<beam number="1">continue</beam>
<notations>
<tied type="start"/>
</notations>
<lyric number="1">
<syllabic>single</syllabic>
<text>jours</text>
</lyric>
</note>
<note>
<pitch>
<step>G</step>
<octave>4</octave>
</pitch>
<duration>24</duration>
<tie type="stop"/>
<type>eighth</type>
<stem>up</stem>
<beam number="1">begin</beam>
<notations>
<tied type="stop"/>
</notations>
</note>
<note>
<pitch>
<step>D</step>
<octave>4</octave>
</pitch>
<duration>24</duration>
<tie type="start"/>
<type>eighth</type>
<stem>up</stem>
<beam number="1">continue</beam>
<notations>
<tied type="start"/>
</notations>
<lyric number="1">
<syllabic>single</syllabic>
<text>de</text>
</lyric>
</note>
<note>
<pitch>
<step>D</step>
<octave>4</octave>
</pitch>
<duration>24</duration>
<tie type="stop"/>
<type>eighth</type>
<stem>up</stem>
<beam number="1">begin</beam>
<notations>
<tied type="stop"/>
</notations>
</note>
<note>
<pitch>
<step>B</step>
<octave>3</octave>
</pitch>
<duration>24</duration>
<tie type="start"/>
<type>eighth</type>
<stem>up</stem>
<beam number="1">continue</beam>
<notations>
<tied type="start"/>
</notations>
<lyric number="1">
<syllabic>single</syllabic>
<text>ma</text>
</lyric>
</note>
</measure>
<measure number="47">
<note>
<pitch>
<step>B</step>
<octave>3</octave>
</pitch>
<duration>24</duration>
<tie type="stop"/>
<type>eighth</type>
<stem>up</stem>
<beam number="1">begin</beam>
<notations>
<tied type="stop"/>
</notations>
</note>
<note>
<pitch>
<step>E</step>
<octave>4</octave>
</pitch>
<duration>24</duration>
<tie type="start"/>
<type>eighth</type>
<stem>up</stem>
<beam number="1">continue</beam>
<notations>
<tied type="start"/>
</notations>
<lyric number="1">
<syllabic>single</syllabic>
<text>vie.</text>
</lyric>
</note>
<note>
<pitch>
<step>E</step>
<octave>4</octave>
</pitch>
<duration>96</duration>
<tie type="stop"/>
<type>half</type>
<notations>
<tied type="stop"/>
</notations>
</note>
<note>
<rest/>
<duration>48</duration>
<type>quarter</type>
</note>
</measure>
<measure number="48">
<note>
<rest/>
<duration>48</duration>
<type>quarter</type>
</note>
<note>
<pitch>
<step>B</step>
<octave>4</octave>
</pitch>
<duration>24</duration>
<type>eighth</type>
<stem>down</stem>
<beam number="1">begin</beam>
<lyric number="1">
<syllabic>single</syllabic>
<text>Grand</text>
</lyric>
</note>
<note>
<pitch>
<step>B</step>
<octave>4</octave>
</pitch>
<duration>24</duration>
<type>eighth</type>
<stem>down</stem>
<beam number="1">continue</beam>
<lyric number="1">
<syllabic>single</syllabic>
<text>est</text>
</lyric>
</note>
<note>
<pitch>
<step>C</step>
<octave>5</octave>
</pitch>
<duration>48</duration>
<type>quarter</type>
<lyric number="1">
<syllabic>single</syllabic>
<text>ton</text>
</lyric>
</note>
<note>
<pitch>
<step>B</step>
<octave>4</octave>
</pitch>
<duration>24</duration>
<type>eighth</type>
<stem>up</stem>
<beam number="1">begin</beam>
<lyric number="1">
<syllabic>begin</syllabic>
<text>a</text>
</lyric>
</note>
<note>
<pitch>
<step>A</step>
<octave>4</octave>
</pitch>
<duration>24</duration>
<tie type="start"/>
<type>eighth</type>
<stem>up</stem>
<beam number="1">continue</beam>
<notations>
<tied type="start"/>
</notations>
<lyric number="1">
<syllabic>end</syllabic>
<text>mour,</text>
</lyric>
</note>
</measure>
<measure number="49">
<note>
<pitch>
<step>A</step>
<octave>4</octave>
</pitch>
<duration>48</duration>
<tie type="stop"/>
<type>quarter</type>
<notations>
<tied type="stop"/>
</notations>
</note>
<note>
<pitch>
<step>A</step>
<octave>4</octave>
</pitch>
<duration>24</duration>
<type>eighth</type>
<stem>up</stem>
<beam number="1">begin</beam>
<lyric number="1">
<syllabic>single</syllabic>
<text>grand</text>
</lyric>
</note>
<note>
<pitch>
<step>A</step>
<octave>4</octave>
</pitch>
<duration>24</duration>
<type>eighth</type>
<stem>up</stem>
<beam number="1">continue</beam>
<lyric number="1">
<syllabic>single</syllabic>
<text>est</text>
</lyric>
</note>
<note>
<pitch>
<step>B</step>
<octave>4</octave>
</pitch>
<duration>48</duration>
<type>quarter</type>
<lyric number="1">
<syllabic>single</syllabic>
<text>ton</text>
</lyric>
</note>
<note>
<pitch>
<step>D</step>
<octave>5</octave>
</pitch>
<duration>24</duration>
<type>eighth</type>
<stem>up</stem>
<beam number="1">begin</beam>
<lyric number="1">
<syllabic>begin</syllabic>
<text>a</text>
</lyric>
</note>
<note>
<pitch>
<step>G</step>
<octave>4</octave>
</pitch>
<duration>24</duration>
<tie type="start"/>
<type>eighth</type>
<stem>up</stem>
<beam number="1">continue</beam>
<notations>
<tied type="start"/>
</notations>
<lyric number="1">
<syllabic>end</syllabic>
<text>mour</text>
</lyric>
</note>
</measure>
<measure number="50">
<note>
<pitch>
<step>G</step>
<octave>4</octave>
</pitch>
<duration>48</duration>
<tie type="stop"/>
<type>quarter</type>
<notations>
<tied type="stop"/>
</notations>
</note>
<note>
<pitch>
<step>G</step>
<octave>4</octave>
</pitch>
<duration>12</duration>
<type>16th</type>
<stem>up</stem>
<beam number="1">begin</beam>
<lyric number="1">
<syllabic>single</syllabic>
<text>Chaque</text>
</lyric>
</note>
<note>
<pitch>
<step>G</step>
<octave>4</octave>
</pitch>
<duration>24</duration>
<type>eighth</type>
<stem>up</stem>
<beam number="1">end</beam>
<lyric number="1">
<syllabic>begin</syllabic>
<text>ins</text>
</lyric>
</note>
<note>
<pitch>
<step>G</step>
<octave>4</octave>
</pitch>
<duration>12</duration>
<tie type="start"/>
<type>16th</type>
<stem>up</stem>
<beam number="1">continue</beam>
<notations>
<tied type="start"/>
</notations>
<lyric number="1">
<syllabic>end</syllabic>
<text>tant</text>
</lyric>
</note>
<note>
<pitch>
<step>G</step>
<octave>4</octave>
</pitch>
<duration>24</duration>
<tie type="stop"/>
<type>eighth</type>
<stem>up</stem>
<beam number="1">begin</beam>
<notations>
<tied type="stop"/>
</notations>
</note>
<note>
<pitch>
<step>D</step>
<octave>4</octave>
</pitch>
<duration>24</duration>
<tie type="start"/>
<type>eighth</type>
<stem>up</stem>
<beam number="1">continue</beam>
<notations>
<tied type="start"/>
</notations>
<lyric number="1">
<syllabic>single</syllabic>
<text>de</text>
</lyric>
</note>
<note>
<pitch>
<step>D</step>
<octave>4</octave>
</pitch>
<duration>24</duration>
<tie type="stop"/>
<type>eighth</type>
<stem>up</stem>
<beam number="1">begin</beam>
<notations>
<tied type="stop"/>
</notations>
</note>
<note>
<pitch>
<step>E</step>
<octave>4</octave>
</pitch>
<duration>24</duration>
<tie type="start"/>
<type>eighth</type>
<stem>up</stem>
<beam number="1">continue</beam>
<notations>
<tied type="start"/>
</notations>
<lyric number="1">
<syllabic>single</syllabic>
<text>mes</text>
</lyric>
</note>
</measure>
<measure number="51">
<note>
<pitch>
<step>E</step>
<octave>4</octave>
</pitch>
<duration>24</duration>
<tie type="stop"/>
<type>eighth</type>
<stem>up</stem>
<beam number="1">begin</beam>
<notations>
<tied type="stop"/>
</notations>
</note>
<note>
<pitch>
<step>E</step>
<octave>4</octave>
</pitch>
<duration>24</duration>
<tie type="start"/>
<type>eighth</type>
<stem>up</stem>
<beam number="1">continue</beam>
<notations>
<tied type="start"/>
</notations>
<lyric number="1">
<syllabic>single</syllabic>
<text>jours.</text>
</lyric>
</note>
<note>
<pitch>
<step>E</step>
<octave>4</octave>
</pitch>
<duration>144</duration>
<tie type="stop"/>
<type>half</type>
<dot/>
<notations>
<tied type="stop"/>
</notations>
</note>
<barline location="right">
<bar-style>light-heavy</bar-style>
<ending type="stop" number="2"/>
</barline>
</measure>
</part>
</score-partwise>
