<?xml version="1.0" encoding="UTF-8" standalone='no'?>
<!DOCTYPE score-partwise PUBLIC "-//Recordare//DTD MusicXML 1.0 Partwise//EN" "http://www.musicxml.org/dtds/partwise.dtd">
<score-partwise>
<work>
<work-title>Psaume 133.1</work-title>
</work>
<identification>
<creator type="transcriber">Mélodie hébraïque</creator>
<rights>© Arrangement 1974 Jeunesse en Mission</rights>
<encoding>
<software>Noteworthy Composer</software>
<encoding-date>2007-02-17</encoding-date>
</encoding>
</identification>
<part-list>
<score-part id="P1">
<part-name>Mélodie</part-name>
<score-instrument id="P1-I1">
<instrument-name>String Ensemble 1</instrument-name>
</score-instrument>
<midi-instrument id="P1-I1">
<midi-channel>1</midi-channel>
<midi-program>50</midi-program>
</midi-instrument>
</score-part>
</part-list>
<part id="P1">
<measure number="1">
<attributes>
<divisions>8</divisions>
</attributes>
<attributes>
<clef>
<sign>G</sign>
<line>2</line>
</clef>
</attributes>
<attributes>
<key>
<fifths>1</fifths>
</key>
</attributes>
<attributes>
<time>
<beats>6</beats>
<beat-type>8</beat-type>
</time>
</attributes>
<barline location="left">
<bar-style>heavy-light</bar-style>
<repeat direction="forward"/>
</barline>
<direction>
<direction-type>
<metronome parentheses="no">
<beat-unit>quarter</beat-unit>
<per-minute>100</per-minute>
</metronome>
</direction-type>
<sound tempo="100"/>
</direction>
<note>
<pitch>
<step>E</step>
<octave>4</octave>
</pitch>
<duration>4</duration>
<type>eighth</type>
<lyric number="1">
<syllabic>single</syllabic>
<text>1. Ah !</text>
</lyric>
<lyric number="2">
<syllabic>begin</syllabic>
<text>2. Hi</text>
</lyric>
</note>
<note>
<pitch>
<step>E</step>
<octave>4</octave>
</pitch>
<duration>4</duration>
<type>eighth</type>
<lyric number="1">
<syllabic>single</syllabic>
<text>qu'il</text>
</lyric>
<lyric number="2">
<syllabic>end</syllabic>
<text>né</text>
</lyric>
</note>
<note>
<pitch>
<step>E</step>
<octave>4</octave>
</pitch>
<duration>4</duration>
<type>eighth</type>
<lyric number="1">
<syllabic>single</syllabic>
<text>est</text>
</lyric>
<lyric number="2">
<syllabic>begin</syllabic>
<text>ma</text>
</lyric>
</note>
<note>
<pitch>
<step>E</step>
<octave>4</octave>
</pitch>
<duration>4</duration>
<type>eighth</type>
<lyric number="1">
<syllabic>single</syllabic>
<text>doux</text>
</lyric>
<lyric number="2">
<syllabic>end</syllabic>
<text>tov</text>
</lyric>
</note>
<note>
<pitch>
<step>E</step>
<octave>4</octave>
</pitch>
<duration>4</duration>
<type>eighth</type>
<lyric number="1">
<syllabic>single</syllabic>
<text>pour</text>
</lyric>
<lyric number="2">
<syllabic>begin</syllabic>
<text>ou</text>
</lyric>
</note>
<note>
<pitch>
<step>E</step>
<octave>4</octave>
</pitch>
<duration>4</duration>
<type>eighth</type>
<lyric number="1">
<syllabic>single</syllabic>
<text>des</text>
</lyric>
<lyric number="2">
<syllabic>end</syllabic>
<text>ma</text>
</lyric>
</note>
</measure>
<measure number="2">
<note>
<pitch>
<step>A</step>
<octave>4</octave>
</pitch>
<duration>12</duration>
<type>quarter</type>
<dot/>
<lyric number="1">
<syllabic>begin</syllabic>
<text>frè</text>
</lyric>
<lyric number="2">
<syllabic>begin</syllabic>
<text>nay</text>
</lyric>
</note>
<note>
<pitch>
<step>G</step>
<octave>4</octave>
</pitch>
<duration>12</duration>
<type>quarter</type>
<dot/>
<lyric number="1">
<syllabic>end</syllabic>
<text>res</text>
</lyric>
<lyric number="2">
<syllabic>end</syllabic>
<text>im</text>
</lyric>
</note>
</measure>
<measure number="3">
<note>
<pitch>
<step>F</step>
<alter>1</alter>
<octave>4</octave>
</pitch>
<duration>4</duration>
<type>eighth</type>
<lyric number="1">
<syllabic>single</syllabic>
<text>de</text>
</lyric>
<lyric number="2">
<syllabic>begin</syllabic>
<text>Ché</text>
</lyric>
</note>
<note>
<pitch>
<step>E</step>
<octave>4</octave>
</pitch>
<duration>4</duration>
<type>eighth</type>
<lyric number="1">
<syllabic>begin</syllabic>
<text>de</text>
</lyric>
<lyric number="2">
<syllabic>end</syllabic>
<text>vèt</text>
</lyric>
</note>
<note>
<pitch>
<step>F</step>
<alter>1</alter>
<octave>4</octave>
</pitch>
<duration>4</duration>
<type>eighth</type>
<lyric number="1">
<syllabic>middle</syllabic>
<text>meu</text>
</lyric>
<lyric number="2">
<syllabic>begin</syllabic>
<text>a</text>
</lyric>
</note>
<note>
<pitch>
<step>G</step>
<octave>4</octave>
</pitch>
<duration>8</duration>
<type>quarter</type>
<lyric number="1">
<syllabic>end</syllabic>
<text>rer</text>
</lyric>
<lyric number="2">
<syllabic>end</syllabic>
<text>him</text>
</lyric>
</note>
<note>
<pitch>
<step>F</step>
<alter>1</alter>
<octave>4</octave>
</pitch>
<duration>4</duration>
<type>eighth</type>
<lyric number="1">
<syllabic>begin</syllabic>
<text>en</text>
</lyric>
<lyric number="2">
<syllabic>single</syllabic>
<text>gam</text>
</lyric>
</note>
</measure>
<measure number="4">
<note>
<pitch>
<step>E</step>
<octave>4</octave>
</pitch>
<duration>12</duration>
<type>quarter</type>
<dot/>
<lyric number="1">
<syllabic>middle</syllabic>
<text>sem</text>
</lyric>
<lyric number="2">
<syllabic>begin</syllabic>
<text>ya</text>
</lyric>
</note>
<note>
<pitch>
<step>E</step>
<octave>4</octave>
</pitch>
<duration>12</duration>
<type>quarter</type>
<dot/>
<lyric number="1">
<syllabic>end</syllabic>
<text>ble !</text>
</lyric>
<lyric number="2">
<syllabic>end</syllabic>
<text>hat</text>
</lyric>
</note>
<barline location="right">
<bar-style>light-heavy</bar-style>
<repeat direction="backward"/>
</barline>
</measure>
<measure number="5">
<note>
<pitch>
<step>B</step>
<octave>4</octave>
</pitch>
<duration>12</duration>
<type>quarter</type>
<dot/>
<lyric number="1">
<syllabic>single</syllabic>
<text>Ah !</text>
</lyric>
<lyric number="2">
<syllabic>begin</syllabic>
<text>Hi</text>
</lyric>
</note>
<note>
<pitch>
<step>E</step>
<octave>5</octave>
</pitch>
<duration>12</duration>
<type>quarter</type>
<dot/>
<lyric number="1">
<syllabic>single</syllabic>
<text>qu'il</text>
</lyric>
<lyric number="2">
<syllabic>end</syllabic>
<text>né</text>
</lyric>
</note>
</measure>
<measure number="6">
<note>
<pitch>
<step>D</step>
<octave>5</octave>
</pitch>
<duration>8</duration>
<type>quarter</type>
<notations>
<slur type="start" number="1"/>
</notations>
<lyric number="1">
<syllabic>single</syllabic>
<text>est</text>
</lyric>
<lyric number="2">
<syllabic>begin</syllabic>
<text>ma</text>
</lyric>
</note>
<note>
<pitch>
<step>C</step>
<octave>5</octave>
</pitch>
<duration>4</duration>
<type>eighth</type>
<notations>
<slur type="stop" number="1"/>
</notations>
</note>
<note>
<pitch>
<step>B</step>
<octave>4</octave>
</pitch>
<duration>12</duration>
<type>quarter</type>
<dot/>
<lyric number="1">
<syllabic>single</syllabic>
<text>doux</text>
</lyric>
<lyric number="2">
<syllabic>end</syllabic>
<text>tov</text>
</lyric>
</note>
</measure>
<measure number="7">
<note>
<pitch>
<step>A</step>
<octave>4</octave>
</pitch>
<duration>4</duration>
<type>eighth</type>
<lyric number="1">
<syllabic>single</syllabic>
<text>de</text>
</lyric>
<lyric number="2">
<syllabic>begin</syllabic>
<text>Ché</text>
</lyric>
</note>
<note>
<pitch>
<step>G</step>
<octave>4</octave>
</pitch>
<duration>4</duration>
<type>eighth</type>
<lyric number="1">
<syllabic>begin</syllabic>
<text>de</text>
</lyric>
<lyric number="2">
<syllabic>end</syllabic>
<text>vèt</text>
</lyric>
</note>
<note>
<pitch>
<step>A</step>
<octave>4</octave>
</pitch>
<duration>4</duration>
<type>eighth</type>
<lyric number="1">
<syllabic>middle</syllabic>
<text>meu</text>
</lyric>
<lyric number="2">
<syllabic>begin</syllabic>
<text>a</text>
</lyric>
</note>
<note>
<pitch>
<step>B</step>
<octave>4</octave>
</pitch>
<duration>8</duration>
<type>quarter</type>
<lyric number="1">
<syllabic>end</syllabic>
<text>rer</text>
</lyric>
<lyric number="2">
<syllabic>end</syllabic>
<text>him</text>
</lyric>
</note>
<note>
<pitch>
<step>E</step>
<octave>5</octave>
</pitch>
<duration>4</duration>
<type>eighth</type>
<lyric number="1">
<syllabic>begin</syllabic>
<text>en</text>
</lyric>
<lyric number="2">
<syllabic>single</syllabic>
<text>gam</text>
</lyric>
</note>
</measure>
<measure number="8">
<note>
<pitch>
<step>B</step>
<octave>4</octave>
</pitch>
<duration>12</duration>
<type>quarter</type>
<dot/>
<lyric number="1">
<syllabic>middle</syllabic>
<text>sem</text>
</lyric>
<lyric number="2">
<syllabic>begin</syllabic>
<text>ya</text>
</lyric>
</note>
<note>
<pitch>
<step>B</step>
<octave>4</octave>
</pitch>
<duration>12</duration>
<type>quarter</type>
<dot/>
<lyric number="1">
<syllabic>end</syllabic>
<text>ble !</text>
</lyric>
<lyric number="2">
<syllabic>end</syllabic>
<text>hat.</text>
</lyric>
</note>
</measure>
<measure number="9">
<note>
<pitch>
<step>B</step>
<octave>4</octave>
</pitch>
<duration>12</duration>
<type>quarter</type>
<dot/>
<lyric number="1">
<syllabic>single</syllabic>
<text>Ah !</text>
</lyric>
<lyric number="2">
<syllabic>begin</syllabic>
<text>Hi</text>
</lyric>
</note>
<note>
<pitch>
<step>E</step>
<octave>5</octave>
</pitch>
<duration>12</duration>
<type>quarter</type>
<dot/>
<lyric number="1">
<syllabic>single</syllabic>
<text>qu'il</text>
</lyric>
<lyric number="2">
<syllabic>end</syllabic>
<text>né</text>
</lyric>
</note>
</measure>
<measure number="10">
<note>
<pitch>
<step>D</step>
<octave>5</octave>
</pitch>
<duration>8</duration>
<type>quarter</type>
<notations>
<slur type="start" number="1"/>
</notations>
<lyric number="1">
<syllabic>single</syllabic>
<text>est</text>
</lyric>
<lyric number="2">
<syllabic>begin</syllabic>
<text>ma</text>
</lyric>
</note>
<note>
<pitch>
<step>C</step>
<octave>5</octave>
</pitch>
<duration>4</duration>
<type>eighth</type>
<notations>
<slur type="stop" number="1"/>
</notations>
</note>
<note>
<pitch>
<step>B</step>
<octave>4</octave>
</pitch>
<duration>12</duration>
<type>quarter</type>
<dot/>
<lyric number="1">
<syllabic>single</syllabic>
<text>doux</text>
</lyric>
<lyric number="2">
<syllabic>end</syllabic>
<text>tov</text>
</lyric>
</note>
</measure>
<measure number="11">
<note>
<pitch>
<step>A</step>
<octave>4</octave>
</pitch>
<duration>4</duration>
<type>eighth</type>
<lyric number="1">
<syllabic>single</syllabic>
<text>de</text>
</lyric>
<lyric number="2">
<syllabic>begin</syllabic>
<text>Ché</text>
</lyric>
</note>
<note>
<pitch>
<step>G</step>
<octave>4</octave>
</pitch>
<duration>4</duration>
<type>eighth</type>
<lyric number="1">
<syllabic>begin</syllabic>
<text>de</text>
</lyric>
<lyric number="2">
<syllabic>end</syllabic>
<text>vèt</text>
</lyric>
</note>
<note>
<pitch>
<step>A</step>
<octave>4</octave>
</pitch>
<duration>4</duration>
<type>eighth</type>
<lyric number="1">
<syllabic>middle</syllabic>
<text>meu</text>
</lyric>
<lyric number="2">
<syllabic>begin</syllabic>
<text>a</text>
</lyric>
</note>
<note>
<pitch>
<step>B</step>
<octave>4</octave>
</pitch>
<duration>8</duration>
<type>quarter</type>
<lyric number="1">
<syllabic>end</syllabic>
<text>rer</text>
</lyric>
<lyric number="2">
<syllabic>end</syllabic>
<text>him</text>
</lyric>
</note>
<note>
<pitch>
<step>G</step>
<octave>4</octave>
</pitch>
<duration>4</duration>
<type>eighth</type>
<lyric number="1">
<syllabic>begin</syllabic>
<text>en</text>
</lyric>
<lyric number="2">
<syllabic>single</syllabic>
<text>gam</text>
</lyric>
</note>
</measure>
<measure number="12">
<note>
<pitch>
<step>E</step>
<octave>4</octave>
</pitch>
<duration>12</duration>
<type>quarter</type>
<dot/>
<lyric number="1">
<syllabic>middle</syllabic>
<text>sem</text>
</lyric>
<lyric number="2">
<syllabic>begin</syllabic>
<text>ya</text>
</lyric>
</note>
<note>
<pitch>
<step>E</step>
<octave>4</octave>
</pitch>
<duration>12</duration>
<type>quarter</type>
<dot/>
<lyric number="1">
<syllabic>end</syllabic>
<text>ble !</text>
</lyric>
<lyric number="2">
<syllabic>end</syllabic>
<text>hat.</text>
</lyric>
</note>
<barline location="right">
<bar-style>light-heavy</bar-style>
<repeat direction="backward"/>
</barline>
<barline location="right">
<bar-style>light-heavy</bar-style>
</barline>
</measure>
</part>
</score-partwise>
