<?xml version="1.0" encoding="UTF-8" standalone='no'?>
<!DOCTYPE score-partwise PUBLIC "-//Recordare//DTD MusicXML 1.0 Partwise//EN" "http://www.musicxml.org/dtds/partwise.dtd">
<score-partwise>
<work>
<work-title>Le saint combat</work-title>
</work>
<identification>
<creator type="transcriber">C. Roberts</creator>
<rights>© Ligue pour la lecture de la Bible</rights>
<encoding>
<software>Noteworthy Composer</software>
<encoding-date>2007-02-17</encoding-date>
</encoding>
</identification>
<part-list>
<score-part id="P1">
<part-name>Voix des femmes</part-name>
<score-instrument id="P1-I1">
<instrument-name>String Ensemble 1</instrument-name>
</score-instrument>
<midi-instrument id="P1-I1">
<midi-channel>1</midi-channel>
<midi-program>50</midi-program>
</midi-instrument>
</score-part>
<score-part id="P2">
<part-name>Voix des hommes</part-name>
<score-instrument id="P2-I1">
<instrument-name>String Ensemble 1</instrument-name>
</score-instrument>
<midi-instrument id="P2-I1">
<midi-channel>2</midi-channel>
<midi-program>50</midi-program>
</midi-instrument>
</score-part>
</part-list>
<part id="P1">
<measure number="1">
<attributes>
<divisions>8</divisions>
</attributes>
<attributes>
<clef>
<sign>G</sign>
<line>2</line>
</clef>
</attributes>
<attributes>
<key>
<fifths>-4</fifths>
</key>
</attributes>
<attributes>
<time symbol="common">
<beats>4</beats>
<beat-type>4</beat-type>
</time>
</attributes>
<note>
<pitch>
<step>E</step>
<alter>-1</alter>
<octave>4</octave>
</pitch>
<duration>8</duration>
<voice>1</voice>
<type>quarter</type>
<stem>up</stem>
<lyric number="1">
<syllabic>single</syllabic>
<text>1. Pour</text>
</lyric>
<lyric number="2">
<syllabic>single</syllabic>
<text>2. Suis</text>
</lyric>
<lyric number="3">
<syllabic>single</syllabic>
<text>3. En</text>
</lyric>
<lyric number="4">
<syllabic>single</syllabic>
<text>4. Sur</text>
</lyric>
</note>
<note>
<pitch>
<step>E</step>
<alter>-1</alter>
<octave>4</octave>
</pitch>
<duration>8</duration>
<voice>1</voice>
<type>quarter</type>
<stem>up</stem>
<lyric number="1">
<syllabic>begin</syllabic>
<text>por</text>
</lyric>
<lyric number="2">
<syllabic>single</syllabic>
<text>de</text>
</lyric>
<lyric number="3">
<syllabic>begin</syllabic>
<text>pre</text>
</lyric>
<lyric number="4">
<syllabic>single</syllabic>
<text>la</text>
</lyric>
</note>
<note>
<chord/>
<pitch>
<step>A</step>
<alter>-1</alter>
<octave>4</octave>
</pitch>
<duration>8</duration>
<voice>1</voice>
<type>quarter</type>
<stem>up</stem>
</note>
<note>
<pitch>
<step>D</step>
<alter>-1</alter>
<octave>4</octave>
</pitch>
<duration>8</duration>
<voice>1</voice>
<type>quarter</type>
<stem>up</stem>
<lyric number="1">
<syllabic>end</syllabic>
<text>ter</text>
</lyric>
<lyric number="2">
<syllabic>single</syllabic>
<text>près</text>
</lyric>
<lyric number="3">
<syllabic>middle</syllabic>
<text>miè</text>
</lyric>
<lyric number="4">
<syllabic>single</syllabic>
<text>terre</text>
</lyric>
</note>
<note>
<chord/>
<pitch>
<step>F</step>
<octave>4</octave>
</pitch>
<duration>8</duration>
<voice>1</voice>
<type>quarter</type>
<stem>up</stem>
</note>
<note>
<pitch>
<step>F</step>
<octave>4</octave>
</pitch>
<duration>8</duration>
<voice>1</voice>
<type>quarter</type>
<stem>up</stem>
<lyric number="1">
<syllabic>single</syllabic>
<text>le</text>
</lyric>
<lyric number="2">
<syllabic>single</syllabic>
<text>le</text>
</lyric>
<lyric number="3">
<syllabic>end</syllabic>
<text>re</text>
</lyric>
<lyric number="4">
<syllabic>begin</syllabic>
<text>en</text>
</lyric>
</note>
<note>
<chord/>
<pitch>
<step>B</step>
<alter>-1</alter>
<octave>4</octave>
</pitch>
<duration>8</duration>
<voice>1</voice>
<type>quarter</type>
<stem>up</stem>
</note>
<backup>
<duration>32</duration>
</backup>
<note>
<pitch>
<step>E</step>
<alter>-1</alter>
<octave>4</octave>
</pitch>
<duration>8</duration>
<voice>2</voice>
<type>quarter</type>
<stem>down</stem>
</note>
<forward>
<duration>24</duration>
<voice>2</voice>
</forward>
</measure>
<measure number="2">
<note>
<pitch>
<step>E</step>
<alter>-1</alter>
<octave>4</octave>
</pitch>
<duration>16</duration>
<type>half</type>
<stem>up</stem>
<lyric number="1">
<syllabic>begin</syllabic>
<text>glai</text>
</lyric>
<lyric number="2">
<syllabic>begin</syllabic>
<text>Gui</text>
</lyric>
<lyric number="3">
<syllabic>begin</syllabic>
<text>li</text>
</lyric>
<lyric number="4">
<syllabic>middle</syllabic>
<text>tiè</text>
</lyric>
</note>
<note>
<chord/>
<pitch>
<step>A</step>
<alter>-1</alter>
<octave>4</octave>
</pitch>
<duration>16</duration>
<type>half</type>
<stem>up</stem>
</note>
<note>
<pitch>
<step>E</step>
<alter>-1</alter>
<octave>4</octave>
</pitch>
<duration>16</duration>
<type>half</type>
<stem>up</stem>
<lyric number="1">
<syllabic>end</syllabic>
<text>ve</text>
</lyric>
<lyric number="2">
<syllabic>end</syllabic>
<text>de,</text>
</lyric>
<lyric number="3">
<syllabic>end</syllabic>
<text>gne</text>
</lyric>
<lyric number="4">
<syllabic>end</syllabic>
<text>re</text>
</lyric>
</note>
<note>
<chord/>
<pitch>
<step>G</step>
<octave>4</octave>
</pitch>
<duration>16</duration>
<type>half</type>
<stem>up</stem>
</note>
</measure>
<measure number="3">
<note>
<pitch>
<step>E</step>
<alter>-1</alter>
<octave>4</octave>
</pitch>
<duration>8</duration>
<type>quarter</type>
<stem>up</stem>
<lyric number="1">
<syllabic>single</syllabic>
<text>Et</text>
</lyric>
<lyric number="2">
<syllabic>begin</syllabic>
<text>Suis</text>
</lyric>
<lyric number="3">
<syllabic>single</syllabic>
<text>Sois</text>
</lyric>
<lyric number="4">
<syllabic>single</syllabic>
<text>Et</text>
</lyric>
</note>
<note>
<chord/>
<pitch>
<step>G</step>
<octave>4</octave>
</pitch>
<duration>8</duration>
<type>quarter</type>
<stem>up</stem>
</note>
<note>
<pitch>
<step>G</step>
<octave>4</octave>
</pitch>
<duration>8</duration>
<type>quarter</type>
<stem>up</stem>
<lyric number="1">
<syllabic>begin</syllabic>
<text>cou</text>
</lyric>
<lyric number="2">
<syllabic>end</syllabic>
<text>le</text>
</lyric>
<lyric number="3">
<syllabic>begin</syllabic>
<text>pré</text>
</lyric>
<lyric number="4">
<syllabic>single</syllabic>
<text>sous</text>
</lyric>
</note>
<note>
<chord/>
<pitch>
<step>C</step>
<octave>5</octave>
</pitch>
<duration>8</duration>
<type>quarter</type>
<stem>up</stem>
</note>
<note>
<pitch>
<step>F</step>
<octave>4</octave>
</pitch>
<duration>8</duration>
<type>quarter</type>
<stem>up</stem>
<lyric number="1">
<syllabic>end</syllabic>
<text>rir</text>
</lyric>
<lyric number="2">
<syllabic>single</syllabic>
<text>pas</text>
</lyric>
<lyric number="3">
<syllabic>end</syllabic>
<text>sent</text>
</lyric>
<lyric number="4">
<syllabic>single</syllabic>
<text>tous</text>
</lyric>
</note>
<note>
<chord/>
<pitch>
<step>A</step>
<alter>-1</alter>
<octave>4</octave>
</pitch>
<duration>8</duration>
<type>quarter</type>
<stem>up</stem>
</note>
<note>
<pitch>
<step>A</step>
<alter>-1</alter>
<octave>4</octave>
</pitch>
<duration>8</duration>
<type>quarter</type>
<stem>down</stem>
<lyric number="1">
<syllabic>single</syllabic>
<text>au</text>
</lyric>
<lyric number="2">
<syllabic>single</syllabic>
<text>à</text>
</lyric>
<lyric number="3">
<syllabic>begin</syllabic>
<text>tou</text>
</lyric>
<lyric number="4">
<syllabic>single</syllabic>
<text>les</text>
</lyric>
</note>
<note>
<chord/>
<pitch>
<step>D</step>
<alter>-1</alter>
<octave>5</octave>
</pitch>
<duration>8</duration>
<type>quarter</type>
<stem>down</stem>
</note>
</measure>
<measure number="4">
<note>
<pitch>
<step>A</step>
<alter>-1</alter>
<octave>4</octave>
</pitch>
<duration>16</duration>
<type>half</type>
<stem>down</stem>
<notations>
<slur type="start" number="1"/>
</notations>
<lyric number="1">
<syllabic>single</syllabic>
<text>feu,</text>
</lyric>
<lyric number="2">
<syllabic>single</syllabic>
<text>pas,</text>
</lyric>
<lyric number="3">
<syllabic>end</syllabic>
<text>jours:</text>
</lyric>
<lyric number="4">
<syllabic>single</syllabic>
<text>cieux,</text>
</lyric>
</note>
<note>
<chord/>
<pitch>
<step>C</step>
<octave>5</octave>
</pitch>
<duration>16</duration>
<type>half</type>
<stem>down</stem>
<notations>
<slur type="start" number="1"/>
</notations>
</note>
<note>
<pitch>
<step>G</step>
<octave>4</octave>
</pitch>
<duration>16</duration>
<type>half</type>
<stem>up</stem>
<notations>
<slur type="stop" number="1"/>
</notations>
</note>
<note>
<chord/>
<pitch>
<step>B</step>
<alter>-1</alter>
<octave>4</octave>
</pitch>
<duration>16</duration>
<type>half</type>
<stem>up</stem>
<notations>
<slur type="stop" number="2"/>
</notations>
</note>
</measure>
<measure number="5">
<note>
<pitch>
<step>E</step>
<alter>-1</alter>
<octave>4</octave>
</pitch>
<duration>8</duration>
<type>quarter</type>
<stem>up</stem>
<lyric number="1">
<syllabic>single</syllabic>
<text>Pour</text>
</lyric>
<lyric number="2">
<syllabic>single</syllabic>
<text>Car</text>
</lyric>
<lyric number="3">
<syllabic>single</syllabic>
<text>Ton</text>
</lyric>
<lyric number="4">
<syllabic>begin</syllabic>
<text>No</text>
</lyric>
</note>
<note>
<chord/>
<pitch>
<step>B</step>
<alter>-1</alter>
<octave>4</octave>
</pitch>
<duration>8</duration>
<type>quarter</type>
<stem>up</stem>
</note>
<note>
<pitch>
<step>E</step>
<alter>-1</alter>
<octave>4</octave>
</pitch>
<duration>8</duration>
<type>quarter</type>
<stem>up</stem>
<lyric number="1">
<syllabic>begin</syllabic>
<text>lut</text>
</lyric>
<lyric number="2">
<syllabic>single</syllabic>
<text>sous</text>
</lyric>
<lyric number="3">
<syllabic>begin</syllabic>
<text>Sau</text>
</lyric>
<lyric number="4">
<syllabic>end</syllabic>
<text>tre</text>
</lyric>
</note>
<note>
<chord/>
<pitch>
<step>E</step>
<alter>-1</alter>
<octave>5</octave>
</pitch>
<duration>8</duration>
<type>quarter</type>
<stem>up</stem>
</note>
<note>
<pitch>
<step>E</step>
<alter>-1</alter>
<octave>4</octave>
</pitch>
<duration>8</duration>
<type>quarter</type>
<stem>up</stem>
<lyric number="1">
<syllabic>end</syllabic>
<text>ter</text>
</lyric>
<lyric number="2">
<syllabic>single</syllabic>
<text>son</text>
</lyric>
<lyric number="3">
<syllabic>end</syllabic>
<text>veur</text>
</lyric>
<lyric number="4">
<syllabic>single</syllabic>
<text>cri</text>
</lyric>
</note>
<note>
<chord/>
<pitch>
<step>E</step>
<alter>-1</alter>
<octave>5</octave>
</pitch>
<duration>8</duration>
<type>quarter</type>
<stem>up</stem>
</note>
<note>
<pitch>
<step>G</step>
<octave>4</octave>
</pitch>
<duration>8</duration>
<type>quarter</type>
<stem>down</stem>
<lyric number="1">
<syllabic>single</syllabic>
<text>sans</text>
</lyric>
<lyric number="2">
<syllabic>begin</syllabic>
<text>é</text>
</lyric>
<lyric number="3">
<syllabic>single</syllabic>
<text>est</text>
</lyric>
<lyric number="4">
<syllabic>single</syllabic>
<text>de</text>
</lyric>
</note>
<note>
<chord/>
<pitch>
<step>D</step>
<alter>-1</alter>
<octave>5</octave>
</pitch>
<duration>8</duration>
<type>quarter</type>
<stem>down</stem>
</note>
</measure>
<measure number="6">
<note>
<pitch>
<step>G</step>
<octave>4</octave>
</pitch>
<duration>8</duration>
<voice>1</voice>
<type>quarter</type>
<stem>up</stem>
<lyric number="1">
<syllabic>begin</syllabic>
<text>trê</text>
</lyric>
<lyric number="2">
<syllabic>middle</syllabic>
<text>gi</text>
</lyric>
<lyric number="3">
<syllabic>begin</syllabic>
<text>di</text>
</lyric>
<lyric number="4">
<syllabic>begin</syllabic>
<text>guer</text>
</lyric>
</note>
<note>
<chord/>
<pitch>
<step>B</step>
<alter>-1</alter>
<octave>4</octave>
</pitch>
<duration>8</duration>
<voice>1</voice>
<type>quarter</type>
<stem>up</stem>
</note>
<note>
<pitch>
<step>D</step>
<alter>-1</alter>
<octave>5</octave>
</pitch>
<duration>8</duration>
<voice>1</voice>
<type>quarter</type>
<stem>up</stem>
<lyric number="1">
<syllabic>end</syllabic>
<text>ve</text>
</lyric>
<lyric number="2">
<syllabic>end</syllabic>
<text>de</text>
</lyric>
<lyric number="3">
<syllabic>end</syllabic>
<text>gne</text>
</lyric>
<lyric number="4">
<syllabic>end</syllabic>
<text>re</text>
</lyric>
</note>
<note>
<pitch>
<step>B</step>
<alter>-1</alter>
<octave>4</octave>
</pitch>
<duration>8</duration>
<voice>1</voice>
<type>quarter</type>
<stem>down</stem>
<lyric number="1">
<syllabic>single</syllabic>
<text>Le</text>
</lyric>
<lyric number="2">
<syllabic>single</syllabic>
<text>La</text>
</lyric>
<lyric number="3">
<syllabic>single</syllabic>
<text>D'un</text>
</lyric>
<lyric number="4">
<syllabic>single</syllabic>
<text>Doit</text>
</lyric>
</note>
<note>
<chord/>
<pitch>
<step>D</step>
<alter>-1</alter>
<octave>5</octave>
</pitch>
<duration>8</duration>
<voice>1</voice>
<type>quarter</type>
<stem>down</stem>
</note>
<note>
<pitch>
<step>A</step>
<alter>-1</alter>
<octave>4</octave>
</pitch>
<duration>8</duration>
<voice>1</voice>
<type>quarter</type>
<stem>down</stem>
<lyric number="1">
<syllabic>begin</syllabic>
<text>Sei</text>
</lyric>
<lyric number="2">
<syllabic>begin</syllabic>
<text>vic</text>
</lyric>
<lyric number="3">
<syllabic>begin</syllabic>
<text>pa</text>
</lyric>
<lyric number="4">
<syllabic>begin</syllabic>
<text>son</text>
</lyric>
</note>
<note>
<chord/>
<pitch>
<step>C</step>
<octave>5</octave>
</pitch>
<duration>8</duration>
<voice>1</voice>
<type>quarter</type>
<stem>down</stem>
</note>
<backup>
<duration>32</duration>
</backup>
<forward>
<duration>8</duration>
<voice>2</voice>
</forward>
<note>
<pitch>
<step>A</step>
<alter>-1</alter>
<octave>4</octave>
</pitch>
<duration>4</duration>
<voice>2</voice>
<type>eighth</type>
<stem>down</stem>
<beam number="1">begin</beam>
<notations>
<slur type="start" number="1"/>
</notations>
</note>
<note>
<pitch>
<step>B</step>
<alter>-1</alter>
<octave>4</octave>
</pitch>
<duration>4</duration>
<voice>2</voice>
<type>eighth</type>
<stem>down</stem>
<beam number="1">continue</beam>
<notations>
<slur type="stop" number="1"/>
</notations>
</note>
<forward>
<duration>16</duration>
<voice>2</voice>
</forward>
</measure>
<measure number="7">
<note>
<pitch>
<step>G</step>
<octave>4</octave>
</pitch>
<duration>16</duration>
<voice>1</voice>
<type>half</type>
<stem>up</stem>
<lyric number="1">
<syllabic>end</syllabic>
<text>gneur</text>
</lyric>
<lyric number="2">
<syllabic>end</syllabic>
<text>toire</text>
</lyric>
<lyric number="3">
<syllabic>end</syllabic>
<text>reil</text>
</lyric>
<lyric number="4">
<syllabic>end</syllabic>
<text>ner,</text>
</lyric>
</note>
<note>
<chord/>
<pitch>
<step>B</step>
<alter>-1</alter>
<octave>4</octave>
</pitch>
<duration>16</duration>
<voice>1</voice>
<type>half</type>
<stem>up</stem>
</note>
<note>
<pitch>
<step>B</step>
<alter>-1</alter>
<octave>4</octave>
</pitch>
<duration>16</duration>
<voice>1</voice>
<type>half</type>
<stem>up</stem>
<lyric number="1">
<syllabic>single</syllabic>
<text>te</text>
</lyric>
<lyric number="2">
<syllabic>single</syllabic>
<text>est</text>
</lyric>
<lyric number="3">
<syllabic>begin</syllabic>
<text>a</text>
</lyric>
<lyric number="4">
<syllabic>begin</syllabic>
<text>jo</text>
</lyric>
</note>
<note>
<pitch>
<step>A</step>
<alter>-1</alter>
<octave>4</octave>
</pitch>
<duration>8</duration>
<voice>1</voice>
<type>quarter</type>
<notations>
<slur type="stop" number="1"/>
</notations>
</note>
<backup>
<duration>40</duration>
</backup>
<forward>
<duration>16</duration>
<voice>2</voice>
</forward>
<note>
<pitch>
<step>F</step>
<octave>4</octave>
</pitch>
<duration>8</duration>
<voice>2</voice>
<type>quarter</type>
<stem>down</stem>
<notations>
<slur type="start" number="2"/>
</notations>
</note>
</measure>
<measure number="8">
<note>
<pitch>
<step>G</step>
<octave>4</octave>
</pitch>
<duration>32</duration>
<type>whole</type>
<stem>up</stem>
<lyric number="1">
<syllabic>single</syllabic>
<text>veut.</text>
</lyric>
<lyric number="2">
<syllabic>single</syllabic>
<text>là.</text>
</lyric>
<lyric number="3">
<syllabic>end</syllabic>
<text>mour.</text>
</lyric>
<lyric number="4">
<syllabic>end</syllabic>
<text>yeux!</text>
</lyric>
</note>
<note>
<chord/>
<pitch>
<step>B</step>
<alter>-1</alter>
<octave>4</octave>
</pitch>
<duration>32</duration>
<type>whole</type>
<stem>up</stem>
</note>
</measure>
<measure number="9">
<note>
<pitch>
<step>A</step>
<alter>-1</alter>
<octave>4</octave>
</pitch>
<duration>8</duration>
<type>quarter</type>
<stem>down</stem>
<lyric number="1">
<syllabic>single</syllabic>
<text>La</text>
</lyric>
<lyric number="2">
<syllabic>single</syllabic>
<text>En</text>
</lyric>
<lyric number="3">
<syllabic>begin</syllabic>
<text>Bri</text>
</lyric>
<lyric number="4">
<syllabic>single</syllabic>
<text>Dieu</text>
</lyric>
</note>
<note>
<chord/>
<pitch>
<step>C</step>
<octave>5</octave>
</pitch>
<duration>8</duration>
<type>quarter</type>
<stem>down</stem>
</note>
<note>
<pitch>
<step>G</step>
<octave>4</octave>
</pitch>
<duration>8</duration>
<type>quarter</type>
<stem>up</stem>
<lyric number="1">
<syllabic>begin</syllabic>
<text>mê</text>
</lyric>
<lyric number="2">
<syllabic>begin</syllabic>
<text>fou</text>
</lyric>
<lyric number="3">
<syllabic>end</syllabic>
<text>se</text>
</lyric>
<lyric number="4">
<syllabic>single</syllabic>
<text>ne</text>
</lyric>
</note>
<note>
<chord/>
<pitch>
<step>B</step>
<alter>-1</alter>
<octave>4</octave>
</pitch>
<duration>8</duration>
<type>quarter</type>
<stem>up</stem>
</note>
<note>
<pitch>
<step>F</step>
<octave>4</octave>
</pitch>
<duration>8</duration>
<type>quarter</type>
<stem>up</stem>
<lyric number="1">
<syllabic>end</syllabic>
<text>lée</text>
</lyric>
<lyric number="2">
<syllabic>end</syllabic>
<text>lant</text>
</lyric>
<lyric number="3">
<syllabic>single</syllabic>
<text>tes</text>
</lyric>
<lyric number="4">
<syllabic>single</syllabic>
<text>veut</text>
</lyric>
</note>
<note>
<chord/>
<pitch>
<step>A</step>
<alter>-1</alter>
<octave>4</octave>
</pitch>
<duration>8</duration>
<type>quarter</type>
<stem>up</stem>
</note>
<note>
<pitch>
<step>F</step>
<octave>4</octave>
</pitch>
<duration>8</duration>
<type>quarter</type>
<stem>up</stem>
<lyric number="1">
<syllabic>single</syllabic>
<text>est</text>
</lyric>
<lyric number="2">
<syllabic>single</syllabic>
<text>ses</text>
</lyric>
<lyric number="3">
<syllabic>begin</syllabic>
<text>at</text>
</lyric>
<lyric number="4">
<syllabic>begin</syllabic>
<text>per</text>
</lyric>
</note>
<note>
<chord/>
<pitch>
<step>B</step>
<alter>-1</alter>
<octave>4</octave>
</pitch>
<duration>8</duration>
<type>quarter</type>
<stem>up</stem>
</note>
</measure>
<measure number="10">
<note>
<pitch>
<step>F</step>
<octave>4</octave>
</pitch>
<duration>16</duration>
<type>half</type>
<stem>up</stem>
<lyric number="1">
<syllabic>begin</syllabic>
<text>for</text>
</lyric>
<lyric number="2">
<syllabic>begin</syllabic>
<text>tra</text>
</lyric>
<lyric number="3">
<syllabic>middle</syllabic>
<text>ta</text>
</lyric>
<lyric number="4">
<syllabic>middle</syllabic>
<text>son</text>
</lyric>
</note>
<note>
<chord/>
<pitch>
<step>A</step>
<alter>-1</alter>
<octave>4</octave>
</pitch>
<duration>16</duration>
<type>half</type>
<stem>up</stem>
</note>
<note>
<pitch>
<step>E</step>
<octave>4</octave>
</pitch>
<duration>16</duration>
<type>half</type>
<accidental>natural</accidental>
<stem>up</stem>
<lyric number="1">
<syllabic>end</syllabic>
<text>te,</text>
</lyric>
<lyric number="2">
<syllabic>end</syllabic>
<text>ces,</text>
</lyric>
<lyric number="3">
<syllabic>end</syllabic>
<text>ches,</text>
</lyric>
<lyric number="4">
<syllabic>end</syllabic>
<text>ne</text>
</lyric>
</note>
<note>
<chord/>
<pitch>
<step>G</step>
<octave>4</octave>
</pitch>
<duration>16</duration>
<type>half</type>
<stem>up</stem>
</note>
</measure>
<measure number="11">
<note>
<pitch>
<step>F</step>
<octave>4</octave>
</pitch>
<duration>8</duration>
<type>quarter</type>
<stem>up</stem>
<lyric number="1">
<syllabic>single</syllabic>
<text>Les</text>
</lyric>
<lyric number="2">
<syllabic>begin</syllabic>
<text>Tein</text>
</lyric>
<lyric number="3">
<syllabic>single</syllabic>
<text>Coupe</text>
</lyric>
<lyric number="4">
<syllabic>single</syllabic>
<text>Qui</text>
</lyric>
</note>
<note>
<chord/>
<pitch>
<step>A</step>
<alter>-1</alter>
<octave>4</octave>
</pitch>
<duration>8</duration>
<type>quarter</type>
<stem>up</stem>
</note>
<note>
<pitch>
<step>E</step>
<alter>-1</alter>
<octave>4</octave>
</pitch>
<duration>8</duration>
<type>quarter</type>
<accidental>flat</accidental>
<stem>up</stem>
<lyric number="1">
<syllabic>begin</syllabic>
<text>ré</text>
</lyric>
<lyric number="2">
<syllabic>end</syllabic>
<text>tes</text>
</lyric>
<lyric number="3">
<syllabic>begin</syllabic>
<text>en</text>
</lyric>
<lyric number="4">
<syllabic>single</syllabic>
<text>soit</text>
</lyric>
</note>
<note>
<chord/>
<pitch>
<step>G</step>
<octave>4</octave>
</pitch>
<duration>8</duration>
<type>quarter</type>
<stem>up</stem>
</note>
<note>
<pitch>
<step>E</step>
<alter>-1</alter>
<octave>4</octave>
</pitch>
<duration>8</duration>
<type>quarter</type>
<stem>up</stem>
<lyric number="1">
<syllabic>end</syllabic>
<text>pits</text>
</lyric>
<lyric number="2">
<syllabic>single</syllabic>
<text>de</text>
</lyric>
<lyric number="3">
<syllabic>end</syllabic>
<text>fin</text>
</lyric>
<lyric number="4">
<syllabic>single</syllabic>
<text>prêt</text>
</lyric>
</note>
<note>
<chord/>
<pitch>
<step>G</step>
<octave>4</octave>
</pitch>
<duration>8</duration>
<type>quarter</type>
<stem>up</stem>
</note>
<note>
<pitch>
<step>D</step>
<octave>4</octave>
</pitch>
<duration>8</duration>
<type>quarter</type>
<accidental>natural</accidental>
<stem>up</stem>
<lyric number="1">
<syllabic>single</syllabic>
<text>sont</text>
</lyric>
<lyric number="2">
<syllabic>single</syllabic>
<text>son</text>
</lyric>
<lyric number="3">
<syllabic>single</syllabic>
<text>les</text>
</lyric>
<lyric number="4">
<syllabic>single</syllabic>
<text>à</text>
</lyric>
</note>
<note>
<chord/>
<pitch>
<step>F</step>
<octave>4</octave>
</pitch>
<duration>8</duration>
<type>quarter</type>
<stem>up</stem>
</note>
</measure>
<measure number="12">
<note>
<pitch>
<step>E</step>
<alter>-1</alter>
<octave>4</octave>
</pitch>
<duration>32</duration>
<voice>1</voice>
<type>whole</type>
<stem>up</stem>
<lyric number="1">
<syllabic>single</syllabic>
<text>brefs.</text>
</lyric>
<lyric number="2">
<syllabic>single</syllabic>
<text>sang,</text>
</lyric>
<lyric number="3">
<syllabic>single</syllabic>
<text>ponts,</text>
</lyric>
<lyric number="4">
<syllabic>single</syllabic>
<text>fuir;</text>
</lyric>
</note>
<backup>
<duration>32</duration>
</backup>
<note>
<pitch>
<step>E</step>
<alter>-1</alter>
<octave>4</octave>
</pitch>
<duration>32</duration>
<voice>2</voice>
<type>whole</type>
<stem>down</stem>
</note>
</measure>
<measure number="13">
<note>
<pitch>
<step>E</step>
<alter>-1</alter>
<octave>4</octave>
</pitch>
<duration>8</duration>
<voice>1</voice>
<type>quarter</type>
<stem>up</stem>
<lyric number="1">
<syllabic>single</syllabic>
<text>Mais</text>
</lyric>
<lyric number="2">
<syllabic>single</syllabic>
<text>Marche</text>
</lyric>
<lyric number="3">
<syllabic>single</syllabic>
<text>Sors</text>
</lyric>
<lyric number="4">
<syllabic>single</syllabic>
<text>Il</text>
</lyric>
</note>
<note>
<pitch>
<step>E</step>
<alter>-1</alter>
<octave>4</octave>
</pitch>
<duration>8</duration>
<voice>1</voice>
<type>quarter</type>
<stem>up</stem>
<lyric number="1">
<syllabic>single</syllabic>
<text>la</text>
</lyric>
<lyric number="2">
<syllabic>begin</syllabic>
<text>a</text>
</lyric>
<lyric number="3">
<syllabic>single</syllabic>
<text>du</text>
</lyric>
<lyric number="4">
<syllabic>single</syllabic>
<text>tend</text>
</lyric>
</note>
<note>
<chord/>
<pitch>
<step>A</step>
<alter>-1</alter>
<octave>4</octave>
</pitch>
<duration>8</duration>
<voice>1</voice>
<type>quarter</type>
<stem>up</stem>
</note>
<note>
<pitch>
<step>D</step>
<alter>-1</alter>
<octave>4</octave>
</pitch>
<duration>8</duration>
<voice>1</voice>
<type>quarter</type>
<stem>up</stem>
<lyric number="1">
<syllabic>begin</syllabic>
<text>grâ</text>
</lyric>
<lyric number="2">
<syllabic>end</syllabic>
<text>vec</text>
</lyric>
<lyric number="3">
<syllabic>single</syllabic>
<text>rang</text>
</lyric>
<lyric number="4">
<syllabic>single</syllabic>
<text>la</text>
</lyric>
</note>
<note>
<chord/>
<pitch>
<step>F</step>
<octave>4</octave>
</pitch>
<duration>8</duration>
<voice>1</voice>
<type>quarter</type>
<stem>up</stem>
</note>
<note>
<pitch>
<step>F</step>
<octave>4</octave>
</pitch>
<duration>8</duration>
<voice>1</voice>
<type>quarter</type>
<stem>up</stem>
<lyric number="1">
<syllabic>end</syllabic>
<text>ce</text>
</lyric>
<lyric number="2">
<syllabic>begin</syllabic>
<text>au</text>
</lyric>
<lyric number="3">
<syllabic>single</syllabic>
<text>des</text>
</lyric>
<lyric number="4">
<syllabic>begin</syllabic>
<text>cou</text>
</lyric>
</note>
<note>
<chord/>
<pitch>
<step>B</step>
<alter>-1</alter>
<octave>4</octave>
</pitch>
<duration>8</duration>
<voice>1</voice>
<type>quarter</type>
<stem>up</stem>
</note>
<backup>
<duration>32</duration>
</backup>
<note>
<pitch>
<step>E</step>
<alter>-1</alter>
<octave>4</octave>
</pitch>
<duration>8</duration>
<voice>2</voice>
<type>quarter</type>
<stem>down</stem>
</note>
<forward>
<duration>24</duration>
<voice>2</voice>
</forward>
</measure>
<measure number="14">
<note>
<pitch>
<step>E</step>
<alter>-1</alter>
<octave>4</octave>
</pitch>
<duration>8</duration>
<type>quarter</type>
<stem>up</stem>
<lyric number="1">
<syllabic>begin</syllabic>
<text>por</text>
</lyric>
<lyric number="2">
<syllabic>middle</syllabic>
<text>da</text>
</lyric>
<lyric number="3">
<syllabic>begin</syllabic>
<text>lâ</text>
</lyric>
<lyric number="4">
<syllabic>middle</syllabic>
<text>ron</text>
</lyric>
</note>
<note>
<chord/>
<pitch>
<step>G</step>
<octave>4</octave>
</pitch>
<duration>8</duration>
<type>quarter</type>
<stem>up</stem>
</note>
<note>
<pitch>
<step>G</step>
<octave>4</octave>
</pitch>
<duration>8</duration>
<type>quarter</type>
<stem>up</stem>
<lyric number="1">
<syllabic>end</syllabic>
<text>te</text>
</lyric>
<lyric number="2">
<syllabic>end</syllabic>
<text>ce</text>
</lyric>
<lyric number="3">
<syllabic>end</syllabic>
<text>ches</text>
</lyric>
<lyric number="4">
<syllabic>end</syllabic>
<text>ne</text>
</lyric>
</note>
<note>
<chord/>
<pitch>
<step>C</step>
<octave>5</octave>
</pitch>
<duration>8</duration>
<type>quarter</type>
<stem>up</stem>
</note>
<note>
<pitch>
<step>F</step>
<octave>4</octave>
</pitch>
<duration>8</duration>
<type>quarter</type>
<stem>up</stem>
<lyric number="1">
<syllabic>single</syllabic>
<text>Qui</text>
</lyric>
<lyric number="2">
<syllabic>single</syllabic>
<text>En</text>
</lyric>
<lyric number="3">
<syllabic>single</syllabic>
<text>Et</text>
</lyric>
<lyric number="4">
<syllabic>single</syllabic>
<text>A</text>
</lyric>
</note>
<note>
<chord/>
<pitch>
<step>A</step>
<alter>-1</alter>
<octave>4</octave>
</pitch>
<duration>8</duration>
<type>quarter</type>
<stem>up</stem>
</note>
<note>
<pitch>
<step>B</step>
<alter>-1</alter>
<octave>4</octave>
</pitch>
<duration>8</duration>
<type>quarter</type>
<stem>down</stem>
<lyric number="1">
<syllabic>single</syllabic>
<text>veut</text>
</lyric>
<lyric number="2">
<syllabic>single</syllabic>
<text>son</text>
</lyric>
<lyric number="3">
<syllabic>begin</syllabic>
<text>t'é</text>
</lyric>
<lyric number="4">
<syllabic>single</syllabic>
<text>qui</text>
</lyric>
</note>
<note>
<chord/>
<pitch>
<step>D</step>
<alter>-1</alter>
<octave>5</octave>
</pitch>
<duration>8</duration>
<type>quarter</type>
<stem>down</stem>
</note>
</measure>
<measure number="15">
<note>
<pitch>
<step>C</step>
<octave>5</octave>
</pitch>
<duration>16</duration>
<voice>1</voice>
<type>half</type>
<stem>up</stem>
<lyric number="1">
<syllabic>single</syllabic>
<text>plaire</text>
</lyric>
<lyric number="2">
<syllabic>single</syllabic>
<text>nom</text>
</lyric>
<lyric number="3">
<syllabic>end</syllabic>
<text>lance</text>
</lyric>
<lyric number="4">
<syllabic>single</syllabic>
<text>sait</text>
</lyric>
</note>
<note>
<pitch>
<step>A</step>
<alter>-1</alter>
<octave>4</octave>
</pitch>
<duration>8</duration>
<tie type="start"/>
<voice>1</voice>
<type>quarter</type>
<notations>
<tied type="start"/>
<slur type="stop" number="1"/>
</notations>
</note>
<note>
<pitch>
<step>B</step>
<alter>-1</alter>
<octave>4</octave>
</pitch>
<duration>16</duration>
<voice>1</voice>
<type>half</type>
<stem>up</stem>
<lyric number="1">
<syllabic>single</syllabic>
<text>au</text>
</lyric>
<lyric number="2">
<syllabic>begin</syllabic>
<text>puis</text>
</lyric>
<lyric number="3">
<syllabic>single</syllabic>
<text>au</text>
</lyric>
<lyric number="4">
<syllabic>begin</syllabic>
<text>souf</text>
</lyric>
</note>
<note>
<pitch>
<step>G</step>
<octave>4</octave>
</pitch>
<duration>8</duration>
<voice>1</voice>
<type>quarter</type>
<lyric number="1">
<syllabic>single</syllabic>
<text>Chef.</text>
</lyric>
<lyric number="2">
<syllabic>end</syllabic>
<text>sant.</text>
</lyric>
<lyric number="3">
<syllabic>single</syllabic>
<text>front!</text>
</lyric>
<lyric number="4">
<syllabic>end</syllabic>
<text>frir.</text>
</lyric>
</note>
<backup>
<duration>48</duration>
</backup>
<note>
<pitch>
<step>B</step>
<alter>-1</alter>
<octave>4</octave>
</pitch>
<duration>8</duration>
<voice>2</voice>
<type>quarter</type>
<stem>down</stem>
<notations>
<slur type="start" number="2"/>
</notations>
</note>
<note>
<pitch>
<step>A</step>
<alter>-1</alter>
<octave>4</octave>
</pitch>
<duration>8</duration>
<tie type="stop"/>
<voice>2</voice>
<type>quarter</type>
<stem>down</stem>
<notations>
<tied type="stop"/>
</notations>
</note>
</measure>
<measure number="16">
<note>
<pitch>
<step>A</step>
<alter>-1</alter>
<octave>4</octave>
</pitch>
<duration>32</duration>
<voice>1</voice>
<type>whole</type>
<stem>up</stem>
<lyric number="2">
<syllabic>single</syllabic>
<text>La</text>
</lyric>
</note>
<backup>
<duration>32</duration>
</backup>
<note>
<pitch>
<step>A</step>
<alter>-1</alter>
<octave>4</octave>
</pitch>
<duration>32</duration>
<voice>2</voice>
<type>whole</type>
<stem>down</stem>
</note>
</measure>
<measure number="17">
<barline location="left">
<bar-style>heavy-light</bar-style>
</barline>
<note>
<pitch>
<step>C</step>
<octave>5</octave>
</pitch>
<duration>8</duration>
<type>quarter</type>
<lyric number="2">
<syllabic>begin</syllabic>
<text>trom</text>
</lyric>
</note>
<note>
<pitch>
<step>C</step>
<octave>5</octave>
</pitch>
<duration>8</duration>
<type>quarter</type>
<lyric number="2">
<syllabic>end</syllabic>
<text>pette</text>
</lyric>
</note>
<note>
<pitch>
<step>E</step>
<octave>4</octave>
</pitch>
<duration>12</duration>
<type>quarter</type>
<dot/>
<accidental>natural</accidental>
<stem>up</stem>
<lyric number="2">
<syllabic>begin</syllabic>
<text>ap</text>
</lyric>
</note>
<note>
<chord/>
<pitch>
<step>C</step>
<octave>5</octave>
</pitch>
<duration>12</duration>
<type>quarter</type>
<dot/>
<stem>up</stem>
</note>
<note>
<pitch>
<step>F</step>
<octave>4</octave>
</pitch>
<duration>4</duration>
<type>eighth</type>
<stem>up</stem>
<lyric number="2">
<syllabic>middle</syllabic>
<text>pel</text>
</lyric>
</note>
<note>
<chord/>
<pitch>
<step>C</step>
<octave>5</octave>
</pitch>
<duration>4</duration>
<type>eighth</type>
<stem>up</stem>
</note>
</measure>
<measure number="18">
<note>
<pitch>
<step>C</step>
<octave>5</octave>
</pitch>
<duration>16</duration>
<voice>1</voice>
<type>half</type>
<stem>up</stem>
<lyric number="2">
<syllabic>end</syllabic>
<text>le</text>
</lyric>
</note>
<note>
<pitch>
<step>C</step>
<octave>5</octave>
</pitch>
<duration>16</duration>
<voice>1</voice>
<type>half</type>
<stem>up</stem>
<lyric number="2">
<syllabic>single</syllabic>
<text>Pour</text>
</lyric>
</note>
<backup>
<duration>32</duration>
</backup>
<note>
<pitch>
<step>G</step>
<octave>4</octave>
</pitch>
<duration>8</duration>
<voice>2</voice>
<type>quarter</type>
<stem>down</stem>
<notations>
<slur type="start" number="1"/>
</notations>
</note>
<note>
<pitch>
<step>B</step>
<alter>-1</alter>
<octave>4</octave>
</pitch>
<duration>8</duration>
<voice>2</voice>
<type>quarter</type>
<notations>
<slur type="stop" number="1"/>
</notations>
</note>
<note>
<pitch>
<step>A</step>
<alter>-1</alter>
<octave>4</octave>
</pitch>
<duration>4</duration>
<voice>2</voice>
<type>eighth</type>
<stem>down</stem>
<beam number="1">begin</beam>
<notations>
<slur type="start" number="2"/>
</notations>
</note>
<note>
<pitch>
<step>G</step>
<octave>4</octave>
</pitch>
<duration>4</duration>
<voice>2</voice>
<type>eighth</type>
<stem>down</stem>
<beam number="1">continue</beam>
<notations>
<slur type="continue" number="2"/>
</notations>
</note>
<note>
<pitch>
<step>F</step>
<octave>4</octave>
</pitch>
<duration>8</duration>
<voice>2</voice>
<type>quarter</type>
<stem>down</stem>
<notations>
<slur type="stop" number="2"/>
</notations>
</note>
</measure>
<measure number="19">
<note>
<pitch>
<step>E</step>
<alter>-1</alter>
<octave>5</octave>
</pitch>
<duration>8</duration>
<type>quarter</type>
<lyric number="2">
<syllabic>single</syllabic>
<text>le</text>
</lyric>
</note>
<note>
<pitch>
<step>E</step>
<alter>-1</alter>
<octave>5</octave>
</pitch>
<duration>8</duration>
<type>quarter</type>
<lyric number="2">
<syllabic>single</syllabic>
<text>saint</text>
</lyric>
</note>
<note>
<pitch>
<step>G</step>
<octave>4</octave>
</pitch>
<duration>12</duration>
<type>quarter</type>
<dot/>
<stem>down</stem>
<lyric number="2">
<syllabic>begin</syllabic>
<text>com</text>
</lyric>
</note>
<note>
<chord/>
<pitch>
<step>E</step>
<alter>-1</alter>
<octave>5</octave>
</pitch>
<duration>12</duration>
<type>quarter</type>
<dot/>
<stem>down</stem>
</note>
<note>
<pitch>
<step>A</step>
<alter>-1</alter>
<octave>4</octave>
</pitch>
<duration>4</duration>
<type>eighth</type>
<stem>down</stem>
<lyric number="2">
<syllabic>end</syllabic>
<text>bat.</text>
</lyric>
</note>
<note>
<chord/>
<pitch>
<step>E</step>
<alter>-1</alter>
<octave>5</octave>
</pitch>
<duration>4</duration>
<type>eighth</type>
<stem>down</stem>
</note>
</measure>
<measure number="20">
<note>
<pitch>
<step>E</step>
<alter>-1</alter>
<octave>5</octave>
</pitch>
<duration>32</duration>
<voice>1</voice>
<type>whole</type>
<stem>up</stem>
<lyric number="2">
<syllabic>begin</syllabic>
<text>Lè</text>
</lyric>
</note>
<note>
<pitch>
<step>A</step>
<alter>-1</alter>
<octave>4</octave>
</pitch>
<duration>8</duration>
<voice>1</voice>
<type>quarter</type>
<notations>
<slur type="stop" number="1"/>
</notations>
</note>
<backup>
<duration>40</duration>
</backup>
<note>
<pitch>
<step>B</step>
<alter>-1</alter>
<octave>4</octave>
</pitch>
<duration>8</duration>
<voice>2</voice>
<type>quarter</type>
<stem>down</stem>
<notations>
<slur type="start" number="2"/>
</notations>
</note>
<note>
<pitch>
<step>D</step>
<alter>-1</alter>
<octave>5</octave>
</pitch>
<duration>8</duration>
<voice>2</voice>
<type>quarter</type>
<notations>
<slur type="continue" number="2"/>
</notations>
</note>
<note>
<pitch>
<step>C</step>
<octave>5</octave>
</pitch>
<duration>4</duration>
<voice>2</voice>
<type>eighth</type>
<stem>down</stem>
<beam number="1">begin</beam>
<notations>
<slur type="continue" number="2"/>
</notations>
</note>
<note>
<pitch>
<step>B</step>
<alter>-1</alter>
<octave>4</octave>
</pitch>
<duration>4</duration>
<voice>2</voice>
<type>eighth</type>
<stem>down</stem>
<beam number="1">continue</beam>
<notations>
<slur type="continue" number="2"/>
</notations>
</note>
</measure>
<measure number="21">
<note>
<pitch>
<step>A</step>
<alter>-1</alter>
<octave>4</octave>
</pitch>
<duration>12</duration>
<voice>1</voice>
<type>quarter</type>
<dot/>
<stem>down</stem>
<lyric number="2">
<syllabic>middle</syllabic>
<text>ve</text>
</lyric>
</note>
<note>
<chord/>
<pitch>
<step>F</step>
<octave>5</octave>
</pitch>
<duration>12</duration>
<voice>1</voice>
<type>quarter</type>
<dot/>
<stem>down</stem>
</note>
<note>
<pitch>
<step>A</step>
<alter>-1</alter>
<octave>4</octave>
</pitch>
<duration>4</duration>
<voice>1</voice>
<type>eighth</type>
<stem>down</stem>
<lyric number="2">
<syllabic>end</syllabic>
<text>toi,</text>
</lyric>
</note>
<note>
<chord/>
<pitch>
<step>F</step>
<octave>5</octave>
</pitch>
<duration>4</duration>
<voice>1</voice>
<type>eighth</type>
<stem>down</stem>
</note>
<note>
<pitch>
<step>A</step>
<alter>-1</alter>
<octave>4</octave>
</pitch>
<duration>8</duration>
<voice>1</voice>
<type>quarter</type>
<stem>down</stem>
<lyric number="2">
<syllabic>begin</syllabic>
<text>fi</text>
</lyric>
</note>
<note>
<chord/>
<pitch>
<step>E</step>
<alter>-1</alter>
<octave>5</octave>
</pitch>
<duration>8</duration>
<voice>1</voice>
<type>quarter</type>
<stem>down</stem>
</note>
<note>
<pitch>
<step>A</step>
<alter>-1</alter>
<octave>4</octave>
</pitch>
<duration>8</duration>
<voice>1</voice>
<type>quarter</type>
<stem>up</stem>
<lyric number="2">
<syllabic>middle</syllabic>
<text>dè</text>
</lyric>
</note>
<backup>
<duration>32</duration>
</backup>
<forward>
<duration>24</duration>
<voice>2</voice>
</forward>
<note>
<pitch>
<step>A</step>
<alter>-1</alter>
<octave>4</octave>
</pitch>
<duration>8</duration>
<voice>2</voice>
<type>quarter</type>
<stem>down</stem>
</note>
</measure>
<measure number="22">
<note>
<pitch>
<step>A</step>
<alter>-1</alter>
<octave>4</octave>
</pitch>
<duration>8</duration>
<type>quarter</type>
<stem>down</stem>
<lyric number="2">
<syllabic>end</syllabic>
<text>le,</text>
</lyric>
</note>
<note>
<chord/>
<pitch>
<step>D</step>
<alter>-1</alter>
<octave>5</octave>
</pitch>
<duration>8</duration>
<type>quarter</type>
<stem>down</stem>
</note>
<note>
<pitch>
<step>B</step>
<alter>-1</alter>
<octave>4</octave>
</pitch>
<duration>8</duration>
<type>quarter</type>
<stem>down</stem>
<lyric number="2">
<syllabic>single</syllabic>
<text>Et</text>
</lyric>
</note>
<note>
<chord/>
<pitch>
<step>E</step>
<alter>-1</alter>
<octave>5</octave>
</pitch>
<duration>8</duration>
<type>quarter</type>
<stem>down</stem>
</note>
<note>
<pitch>
<step>A</step>
<alter>-1</alter>
<octave>4</octave>
</pitch>
<duration>8</duration>
<type>quarter</type>
<stem>down</stem>
<lyric number="2">
<syllabic>begin</syllabic>
<text>n'hé</text>
</lyric>
</note>
<note>
<chord/>
<pitch>
<step>C</step>
<octave>5</octave>
</pitch>
<duration>8</duration>
<type>quarter</type>
<stem>down</stem>
</note>
<note>
<pitch>
<step>F</step>
<octave>4</octave>
</pitch>
<duration>8</duration>
<type>quarter</type>
<stem>up</stem>
<lyric number="2">
<syllabic>middle</syllabic>
<text>si</text>
</lyric>
</note>
<note>
<chord/>
<pitch>
<step>B</step>
<alter>-1</alter>
<octave>4</octave>
</pitch>
<duration>8</duration>
<type>quarter</type>
<stem>up</stem>
</note>
</measure>
<measure number="23">
<note>
<pitch>
<step>C</step>
<octave>5</octave>
</pitch>
<duration>16</duration>
<voice>1</voice>
<type>half</type>
<stem>up</stem>
<lyric number="2">
<syllabic>end</syllabic>
<text>te</text>
</lyric>
</note>
<note>
<pitch>
<step>A</step>
<alter>-1</alter>
<octave>4</octave>
</pitch>
<duration>8</duration>
<tie type="start"/>
<voice>1</voice>
<type>quarter</type>
<notations>
<tied type="start"/>
<slur type="stop" number="1"/>
</notations>
</note>
<note>
<pitch>
<step>B</step>
<alter>-1</alter>
<octave>4</octave>
</pitch>
<duration>16</duration>
<voice>1</voice>
<type>half</type>
<stem>up</stem>
<lyric number="2">
<syllabic>single</syllabic>
<text>pas!</text>
</lyric>
</note>
<note>
<pitch>
<step>G</step>
<octave>4</octave>
</pitch>
<duration>8</duration>
<voice>1</voice>
<type>quarter</type>
</note>
<backup>
<duration>48</duration>
</backup>
<note>
<pitch>
<step>E</step>
<alter>-1</alter>
<octave>4</octave>
</pitch>
<duration>8</duration>
<voice>2</voice>
<type>quarter</type>
<stem>down</stem>
<notations>
<slur type="start" number="2"/>
</notations>
</note>
<note>
<pitch>
<step>A</step>
<alter>-1</alter>
<octave>4</octave>
</pitch>
<duration>8</duration>
<tie type="stop"/>
<voice>2</voice>
<type>quarter</type>
<stem>down</stem>
<notations>
<tied type="stop"/>
</notations>
</note>
</measure>
<measure number="24">
<note>
<pitch>
<step>A</step>
<alter>-1</alter>
<octave>4</octave>
</pitch>
<duration>32</duration>
<voice>1</voice>
<type>whole</type>
<stem>up</stem>
</note>
<backup>
<duration>32</duration>
</backup>
<note>
<pitch>
<step>A</step>
<alter>-1</alter>
<octave>4</octave>
</pitch>
<duration>32</duration>
<voice>2</voice>
<type>whole</type>
<stem>down</stem>
</note>
<barline location="right">
<bar-style>light-heavy</bar-style>
<repeat direction="backward" times="4"/>
</barline>
<barline location="right">
<bar-style>light-heavy</bar-style>
</barline>
</measure>
</part>
<part id="P2">
<measure number="1">
<attributes>
<divisions>8</divisions>
</attributes>
<attributes>
<clef>
<sign>F</sign>
<line>4</line>
</clef>
</attributes>
<attributes>
<key>
<fifths>-4</fifths>
</key>
</attributes>
<attributes>
<time symbol="common">
<beats>4</beats>
<beat-type>4</beat-type>
</time>
</attributes>
<note>
<pitch>
<step>C</step>
<octave>3</octave>
</pitch>
<duration>8</duration>
<type>quarter</type>
<stem>down</stem>
<lyric number="1">
<syllabic>single</syllabic>
<text></text>
</lyric>
</note>
<note>
<chord/>
<pitch>
<step>A</step>
<alter>-1</alter>
<octave>3</octave>
</pitch>
<duration>8</duration>
<type>quarter</type>
<stem>down</stem>
</note>
<note>
<pitch>
<step>A</step>
<alter>-1</alter>
<octave>2</octave>
</pitch>
<duration>8</duration>
<type>quarter</type>
<stem>down</stem>
<lyric number="1">
<syllabic>single</syllabic>
<text></text>
</lyric>
</note>
<note>
<chord/>
<pitch>
<step>C</step>
<octave>4</octave>
</pitch>
<duration>8</duration>
<type>quarter</type>
<stem>down</stem>
</note>
<note>
<pitch>
<step>D</step>
<alter>-1</alter>
<octave>3</octave>
</pitch>
<duration>8</duration>
<type>quarter</type>
<stem>down</stem>
<lyric number="1">
<syllabic>single</syllabic>
<text></text>
</lyric>
</note>
<note>
<chord/>
<pitch>
<step>A</step>
<alter>-1</alter>
<octave>3</octave>
</pitch>
<duration>8</duration>
<type>quarter</type>
<stem>down</stem>
</note>
<note>
<pitch>
<step>B</step>
<alter>-1</alter>
<octave>2</octave>
</pitch>
<duration>8</duration>
<type>quarter</type>
<stem>down</stem>
<lyric number="1">
<syllabic>single</syllabic>
<text></text>
</lyric>
</note>
<note>
<chord/>
<pitch>
<step>D</step>
<alter>-1</alter>
<octave>4</octave>
</pitch>
<duration>8</duration>
<type>quarter</type>
<stem>down</stem>
</note>
</measure>
<measure number="2">
<note>
<pitch>
<step>E</step>
<alter>-1</alter>
<octave>3</octave>
</pitch>
<duration>16</duration>
<type>half</type>
<stem>down</stem>
<lyric number="1">
<syllabic>single</syllabic>
<text></text>
</lyric>
</note>
<note>
<chord/>
<pitch>
<step>C</step>
<octave>4</octave>
</pitch>
<duration>16</duration>
<type>half</type>
<stem>down</stem>
</note>
<note>
<pitch>
<step>E</step>
<alter>-1</alter>
<octave>3</octave>
</pitch>
<duration>16</duration>
<type>half</type>
<stem>down</stem>
<lyric number="1">
<syllabic>single</syllabic>
<text></text>
</lyric>
</note>
<note>
<chord/>
<pitch>
<step>B</step>
<alter>-1</alter>
<octave>3</octave>
</pitch>
<duration>16</duration>
<type>half</type>
<stem>down</stem>
</note>
</measure>
<measure number="3">
<note>
<pitch>
<step>E</step>
<alter>-1</alter>
<octave>3</octave>
</pitch>
<duration>8</duration>
<type>quarter</type>
<stem>down</stem>
<lyric number="1">
<syllabic>single</syllabic>
<text></text>
</lyric>
</note>
<note>
<chord/>
<pitch>
<step>B</step>
<alter>-1</alter>
<octave>3</octave>
</pitch>
<duration>8</duration>
<type>quarter</type>
<stem>down</stem>
</note>
<note>
<pitch>
<step>C</step>
<octave>3</octave>
</pitch>
<duration>8</duration>
<type>quarter</type>
<stem>down</stem>
<lyric number="1">
<syllabic>single</syllabic>
<text></text>
</lyric>
</note>
<note>
<chord/>
<pitch>
<step>E</step>
<alter>-1</alter>
<octave>4</octave>
</pitch>
<duration>8</duration>
<type>quarter</type>
<stem>down</stem>
</note>
<note>
<pitch>
<step>F</step>
<octave>3</octave>
</pitch>
<duration>8</duration>
<type>quarter</type>
<stem>down</stem>
<lyric number="1">
<syllabic>single</syllabic>
<text></text>
</lyric>
</note>
<note>
<chord/>
<pitch>
<step>C</step>
<octave>4</octave>
</pitch>
<duration>8</duration>
<type>quarter</type>
<stem>down</stem>
</note>
<note>
<pitch>
<step>D</step>
<alter>-1</alter>
<octave>3</octave>
</pitch>
<duration>8</duration>
<type>quarter</type>
<stem>down</stem>
<lyric number="1">
<syllabic>single</syllabic>
<text></text>
</lyric>
</note>
<note>
<chord/>
<pitch>
<step>F</step>
<octave>4</octave>
</pitch>
<duration>8</duration>
<type>quarter</type>
<stem>down</stem>
</note>
</measure>
<measure number="4">
<note>
<pitch>
<step>E</step>
<alter>-1</alter>
<octave>3</octave>
</pitch>
<duration>32</duration>
<type>whole</type>
<stem>down</stem>
<lyric number="1">
<syllabic>single</syllabic>
<text></text>
</lyric>
</note>
<note>
<chord/>
<pitch>
<step>E</step>
<alter>-1</alter>
<octave>4</octave>
</pitch>
<duration>32</duration>
<type>whole</type>
<stem>down</stem>
</note>
</measure>
<measure number="5">
<note>
<pitch>
<step>E</step>
<alter>-1</alter>
<octave>3</octave>
</pitch>
<duration>8</duration>
<type>quarter</type>
<stem>down</stem>
<lyric number="1">
<syllabic>single</syllabic>
<text></text>
</lyric>
</note>
<note>
<chord/>
<pitch>
<step>G</step>
<octave>3</octave>
</pitch>
<duration>8</duration>
<type>quarter</type>
<stem>down</stem>
</note>
<note>
<pitch>
<step>F</step>
<octave>3</octave>
</pitch>
<duration>8</duration>
<type>quarter</type>
<stem>down</stem>
<lyric number="1">
<syllabic>single</syllabic>
<text></text>
</lyric>
</note>
<note>
<chord/>
<pitch>
<step>A</step>
<alter>-1</alter>
<octave>3</octave>
</pitch>
<duration>8</duration>
<type>quarter</type>
<stem>down</stem>
</note>
<note>
<pitch>
<step>G</step>
<octave>3</octave>
</pitch>
<duration>8</duration>
<type>quarter</type>
<stem>down</stem>
<lyric number="1">
<syllabic>single</syllabic>
<text></text>
</lyric>
</note>
<note>
<chord/>
<pitch>
<step>B</step>
<alter>-1</alter>
<octave>3</octave>
</pitch>
<duration>8</duration>
<type>quarter</type>
<stem>down</stem>
</note>
<note>
<pitch>
<step>E</step>
<alter>-1</alter>
<octave>3</octave>
</pitch>
<duration>8</duration>
<type>quarter</type>
<stem>down</stem>
<lyric number="1">
<syllabic>single</syllabic>
<text></text>
</lyric>
</note>
<note>
<chord/>
<pitch>
<step>B</step>
<alter>-1</alter>
<octave>3</octave>
</pitch>
<duration>8</duration>
<type>quarter</type>
<stem>down</stem>
</note>
</measure>
<measure number="6">
<note>
<pitch>
<step>E</step>
<alter>-1</alter>
<octave>3</octave>
</pitch>
<duration>8</duration>
<voice>1</voice>
<type>quarter</type>
<stem>down</stem>
<lyric number="1">
<syllabic>single</syllabic>
<text></text>
</lyric>
</note>
<note>
<chord/>
<pitch>
<step>E</step>
<alter>-1</alter>
<octave>4</octave>
</pitch>
<duration>8</duration>
<voice>1</voice>
<type>quarter</type>
<stem>down</stem>
</note>
<note>
<pitch>
<step>E</step>
<alter>-1</alter>
<octave>4</octave>
</pitch>
<duration>8</duration>
<voice>1</voice>
<type>quarter</type>
<stem>up</stem>
<lyric number="1">
<syllabic>single</syllabic>
<text></text>
</lyric>
</note>
<note>
<pitch>
<step>A</step>
<alter>-1</alter>
<octave>3</octave>
</pitch>
<duration>8</duration>
<voice>1</voice>
<type>quarter</type>
<stem>down</stem>
<lyric number="1">
<syllabic>single</syllabic>
<text></text>
</lyric>
</note>
<note>
<chord/>
<pitch>
<step>E</step>
<alter>-1</alter>
<octave>4</octave>
</pitch>
<duration>8</duration>
<voice>1</voice>
<type>quarter</type>
<stem>down</stem>
</note>
<note>
<pitch>
<step>A</step>
<alter>-1</alter>
<octave>3</octave>
</pitch>
<duration>8</duration>
<voice>1</voice>
<type>quarter</type>
<stem>down</stem>
<lyric number="1">
<syllabic>single</syllabic>
<text></text>
</lyric>
</note>
<note>
<chord/>
<pitch>
<step>E</step>
<alter>-1</alter>
<octave>4</octave>
</pitch>
<duration>8</duration>
<voice>1</voice>
<type>quarter</type>
<stem>down</stem>
</note>
<backup>
<duration>32</duration>
</backup>
<forward>
<duration>8</duration>
<voice>2</voice>
</forward>
<note>
<pitch>
<step>F</step>
<octave>3</octave>
</pitch>
<duration>4</duration>
<voice>2</voice>
<type>eighth</type>
<stem>down</stem>
<beam number="1">begin</beam>
<notations>
<slur type="start" number="1"/>
</notations>
</note>
<note>
<pitch>
<step>G</step>
<octave>3</octave>
</pitch>
<duration>4</duration>
<voice>2</voice>
<type>eighth</type>
<stem>down</stem>
<beam number="1">continue</beam>
<notations>
<slur type="stop" number="1"/>
</notations>
</note>
<forward>
<duration>16</duration>
<voice>2</voice>
</forward>
</measure>
<measure number="7">
<note>
<pitch>
<step>B</step>
<alter>-1</alter>
<octave>3</octave>
</pitch>
<duration>16</duration>
<type>half</type>
<stem>down</stem>
<lyric number="1">
<syllabic>single</syllabic>
<text></text>
</lyric>
</note>
<note>
<chord/>
<pitch>
<step>E</step>
<alter>-1</alter>
<octave>4</octave>
</pitch>
<duration>16</duration>
<type>half</type>
<stem>down</stem>
</note>
<note>
<pitch>
<step>B</step>
<alter>-1</alter>
<octave>2</octave>
</pitch>
<duration>16</duration>
<type>half</type>
<stem>down</stem>
<lyric number="1">
<syllabic>single</syllabic>
<text></text>
</lyric>
</note>
<note>
<chord/>
<pitch>
<step>D</step>
<octave>4</octave>
</pitch>
<duration>16</duration>
<type>half</type>
<accidental>natural</accidental>
<stem>down</stem>
</note>
</measure>
<measure number="8">
<note>
<pitch>
<step>E</step>
<alter>-1</alter>
<octave>3</octave>
</pitch>
<duration>32</duration>
<type>whole</type>
<stem>down</stem>
<lyric number="1">
<syllabic>single</syllabic>
<text></text>
</lyric>
</note>
<note>
<chord/>
<pitch>
<step>E</step>
<alter>-1</alter>
<octave>4</octave>
</pitch>
<duration>32</duration>
<type>whole</type>
<stem>down</stem>
</note>
</measure>
<measure number="9">
<note>
<pitch>
<step>A</step>
<alter>-1</alter>
<octave>3</octave>
</pitch>
<duration>8</duration>
<type>quarter</type>
<stem>down</stem>
<lyric number="1">
<syllabic>single</syllabic>
<text></text>
</lyric>
</note>
<note>
<chord/>
<pitch>
<step>E</step>
<alter>-1</alter>
<octave>4</octave>
</pitch>
<duration>8</duration>
<type>quarter</type>
<stem>down</stem>
</note>
<note>
<pitch>
<step>E</step>
<alter>-1</alter>
<octave>3</octave>
</pitch>
<duration>8</duration>
<type>quarter</type>
<stem>down</stem>
<lyric number="1">
<syllabic>single</syllabic>
<text></text>
</lyric>
</note>
<note>
<chord/>
<pitch>
<step>D</step>
<alter>-1</alter>
<octave>4</octave>
</pitch>
<duration>8</duration>
<type>quarter</type>
<stem>down</stem>
</note>
<note>
<pitch>
<step>F</step>
<octave>3</octave>
</pitch>
<duration>8</duration>
<type>quarter</type>
<stem>down</stem>
<lyric number="1">
<syllabic>single</syllabic>
<text></text>
</lyric>
</note>
<note>
<chord/>
<pitch>
<step>C</step>
<octave>4</octave>
</pitch>
<duration>8</duration>
<type>quarter</type>
<stem>down</stem>
</note>
<note>
<pitch>
<step>B</step>
<alter>-1</alter>
<octave>2</octave>
</pitch>
<duration>8</duration>
<type>quarter</type>
<stem>down</stem>
<lyric number="1">
<syllabic>single</syllabic>
<text></text>
</lyric>
</note>
<note>
<chord/>
<pitch>
<step>D</step>
<alter>-1</alter>
<octave>4</octave>
</pitch>
<duration>8</duration>
<type>quarter</type>
<stem>down</stem>
</note>
</measure>
<measure number="10">
<note>
<pitch>
<step>C</step>
<octave>3</octave>
</pitch>
<duration>16</duration>
<type>half</type>
<stem>down</stem>
<lyric number="1">
<syllabic>single</syllabic>
<text></text>
</lyric>
</note>
<note>
<chord/>
<pitch>
<step>C</step>
<octave>4</octave>
</pitch>
<duration>16</duration>
<type>half</type>
<stem>down</stem>
</note>
<note>
<pitch>
<step>C</step>
<octave>3</octave>
</pitch>
<duration>16</duration>
<type>half</type>
<stem>down</stem>
<lyric number="1">
<syllabic>single</syllabic>
<text></text>
</lyric>
</note>
<note>
<chord/>
<pitch>
<step>C</step>
<octave>4</octave>
</pitch>
<duration>16</duration>
<type>half</type>
<stem>down</stem>
</note>
</measure>
<measure number="11">
<note>
<pitch>
<step>F</step>
<octave>3</octave>
</pitch>
<duration>8</duration>
<voice>1</voice>
<type>quarter</type>
<stem>down</stem>
<lyric number="1">
<syllabic>single</syllabic>
<text></text>
</lyric>
</note>
<note>
<chord/>
<pitch>
<step>C</step>
<octave>4</octave>
</pitch>
<duration>8</duration>
<voice>1</voice>
<type>quarter</type>
<stem>down</stem>
</note>
<note>
<pitch>
<step>G</step>
<octave>3</octave>
</pitch>
<duration>4</duration>
<voice>1</voice>
<type>eighth</type>
<stem>down</stem>
<beam number="1">begin</beam>
<notations>
<slur type="start" number="1"/>
</notations>
<lyric number="1">
<syllabic>single</syllabic>
<text></text>
</lyric>
</note>
<note>
<chord/>
<pitch>
<step>B</step>
<alter>-1</alter>
<octave>3</octave>
</pitch>
<duration>4</duration>
<voice>1</voice>
<type>eighth</type>
<stem>down</stem>
<beam number="1">begin</beam>
<notations>
<slur type="start" number="1"/>
</notations>
</note>
<note>
<pitch>
<step>A</step>
<alter>-1</alter>
<octave>3</octave>
</pitch>
<duration>4</duration>
<voice>1</voice>
<type>eighth</type>
<stem>down</stem>
<beam number="1">continue</beam>
<notations>
<slur type="stop" number="1"/>
</notations>
</note>
<note>
<chord/>
<pitch>
<step>C</step>
<octave>4</octave>
</pitch>
<duration>4</duration>
<voice>1</voice>
<type>eighth</type>
<stem>down</stem>
<beam number="1">continue</beam>
<notations>
<slur type="stop" number="2"/>
</notations>
</note>
<note>
<pitch>
<step>B</step>
<alter>-1</alter>
<octave>3</octave>
</pitch>
<duration>8</duration>
<voice>1</voice>
<type>quarter</type>
<stem>up</stem>
<lyric number="1">
<syllabic>single</syllabic>
<text></text>
</lyric>
</note>
<note>
<pitch>
<step>B</step>
<alter>-1</alter>
<octave>2</octave>
</pitch>
<duration>8</duration>
<voice>1</voice>
<type>quarter</type>
<stem>down</stem>
<lyric number="1">
<syllabic>single</syllabic>
<text></text>
</lyric>
</note>
<note>
<chord/>
<pitch>
<step>A</step>
<alter>-1</alter>
<octave>3</octave>
</pitch>
<duration>8</duration>
<voice>1</voice>
<type>quarter</type>
<stem>down</stem>
</note>
<backup>
<duration>32</duration>
</backup>
<forward>
<duration>16</duration>
<voice>2</voice>
</forward>
<note>
<pitch>
<step>B</step>
<alter>-1</alter>
<octave>3</octave>
</pitch>
<duration>8</duration>
<voice>2</voice>
<type>quarter</type>
<stem>down</stem>
</note>
<forward>
<duration>8</duration>
<voice>2</voice>
</forward>
</measure>
<measure number="12">
<note>
<pitch>
<step>E</step>
<alter>-1</alter>
<octave>3</octave>
</pitch>
<duration>32</duration>
<type>whole</type>
<stem>down</stem>
<lyric number="1">
<syllabic>single</syllabic>
<text></text>
</lyric>
</note>
<note>
<chord/>
<pitch>
<step>G</step>
<octave>3</octave>
</pitch>
<duration>32</duration>
<type>whole</type>
<stem>down</stem>
</note>
</measure>
<measure number="13">
<note>
<pitch>
<step>C</step>
<octave>3</octave>
</pitch>
<duration>8</duration>
<type>quarter</type>
<stem>down</stem>
<lyric number="1">
<syllabic>single</syllabic>
<text></text>
</lyric>
</note>
<note>
<chord/>
<pitch>
<step>A</step>
<alter>-1</alter>
<octave>3</octave>
</pitch>
<duration>8</duration>
<type>quarter</type>
<stem>down</stem>
</note>
<note>
<pitch>
<step>A</step>
<alter>-1</alter>
<octave>2</octave>
</pitch>
<duration>8</duration>
<type>quarter</type>
<stem>down</stem>
<lyric number="1">
<syllabic>single</syllabic>
<text></text>
</lyric>
</note>
<note>
<chord/>
<pitch>
<step>C</step>
<octave>4</octave>
</pitch>
<duration>8</duration>
<type>quarter</type>
<stem>down</stem>
</note>
<note>
<pitch>
<step>D</step>
<alter>-1</alter>
<octave>3</octave>
</pitch>
<duration>8</duration>
<type>quarter</type>
<stem>down</stem>
<lyric number="1">
<syllabic>single</syllabic>
<text></text>
</lyric>
</note>
<note>
<chord/>
<pitch>
<step>A</step>
<alter>-1</alter>
<octave>3</octave>
</pitch>
<duration>8</duration>
<type>quarter</type>
<stem>down</stem>
</note>
<note>
<pitch>
<step>B</step>
<alter>-1</alter>
<octave>2</octave>
</pitch>
<duration>8</duration>
<type>quarter</type>
<stem>down</stem>
<lyric number="1">
<syllabic>single</syllabic>
<text></text>
</lyric>
</note>
<note>
<chord/>
<pitch>
<step>D</step>
<alter>-1</alter>
<octave>4</octave>
</pitch>
<duration>8</duration>
<type>quarter</type>
<stem>down</stem>
</note>
</measure>
<measure number="14">
<note>
<pitch>
<step>E</step>
<alter>-1</alter>
<octave>3</octave>
</pitch>
<duration>8</duration>
<type>quarter</type>
<stem>down</stem>
<lyric number="1">
<syllabic>single</syllabic>
<text></text>
</lyric>
</note>
<note>
<chord/>
<pitch>
<step>B</step>
<alter>-1</alter>
<octave>3</octave>
</pitch>
<duration>8</duration>
<type>quarter</type>
<stem>down</stem>
</note>
<note>
<pitch>
<step>C</step>
<octave>3</octave>
</pitch>
<duration>8</duration>
<type>quarter</type>
<stem>down</stem>
<lyric number="1">
<syllabic>single</syllabic>
<text></text>
</lyric>
</note>
<note>
<chord/>
<pitch>
<step>E</step>
<alter>-1</alter>
<octave>4</octave>
</pitch>
<duration>8</duration>
<type>quarter</type>
<stem>down</stem>
</note>
<note>
<pitch>
<step>F</step>
<octave>3</octave>
</pitch>
<duration>8</duration>
<type>quarter</type>
<stem>down</stem>
<lyric number="1">
<syllabic>single</syllabic>
<text></text>
</lyric>
</note>
<note>
<chord/>
<pitch>
<step>C</step>
<octave>4</octave>
</pitch>
<duration>8</duration>
<type>quarter</type>
<stem>down</stem>
</note>
<note>
<pitch>
<step>D</step>
<alter>-1</alter>
<octave>3</octave>
</pitch>
<duration>8</duration>
<type>quarter</type>
<stem>down</stem>
<lyric number="1">
<syllabic>single</syllabic>
<text></text>
</lyric>
</note>
<note>
<chord/>
<pitch>
<step>F</step>
<octave>4</octave>
</pitch>
<duration>8</duration>
<type>quarter</type>
<stem>down</stem>
</note>
</measure>
<measure number="15">
<note>
<pitch>
<step>E</step>
<alter>-1</alter>
<octave>4</octave>
</pitch>
<duration>24</duration>
<voice>1</voice>
<type>half</type>
<dot/>
<stem>up</stem>
<lyric number="1">
<syllabic>single</syllabic>
<text></text>
</lyric>
</note>
<note>
<pitch>
<step>E</step>
<alter>-1</alter>
<octave>3</octave>
</pitch>
<duration>8</duration>
<tie type="stop"/>
<voice>1</voice>
<type>quarter</type>
<stem>down</stem>
<notations>
<tied type="stop"/>
</notations>
</note>
<note>
<chord/>
<pitch>
<step>D</step>
<alter>-1</alter>
<octave>4</octave>
</pitch>
<duration>8</duration>
<voice>1</voice>
<type>quarter</type>
<stem>down</stem>
</note>
<backup>
<duration>32</duration>
</backup>
<note>
<pitch>
<step>E</step>
<alter>-1</alter>
<octave>3</octave>
</pitch>
<duration>16</duration>
<voice>2</voice>
<type>half</type>
<stem>down</stem>
</note>
<note>
<pitch>
<step>E</step>
<alter>-1</alter>
<octave>3</octave>
</pitch>
<duration>8</duration>
<tie type="start"/>
<voice>2</voice>
<type>quarter</type>
<notations>
<tied type="start"/>
</notations>
</note>
<forward>
<duration>8</duration>
<voice>2</voice>
</forward>
</measure>
<measure number="16">
<note>
<pitch>
<step>A</step>
<alter>-1</alter>
<octave>3</octave>
</pitch>
<duration>32</duration>
<type>whole</type>
<stem>down</stem>
<lyric number="1">
<syllabic>single</syllabic>
<text></text>
</lyric>
</note>
<note>
<chord/>
<pitch>
<step>C</step>
<octave>4</octave>
</pitch>
<duration>32</duration>
<type>whole</type>
<stem>down</stem>
</note>
</measure>
<measure number="17">
<barline location="left">
<bar-style>heavy-light</bar-style>
</barline>
<note>
<pitch>
<step>C</step>
<octave>4</octave>
</pitch>
<duration>8</duration>
<type>quarter</type>
<lyric number="1">
<syllabic>single</syllabic>
<text></text>
</lyric>
</note>
<note>
<pitch>
<step>C</step>
<octave>4</octave>
</pitch>
<duration>8</duration>
<type>quarter</type>
<lyric number="1">
<syllabic>single</syllabic>
<text></text>
</lyric>
</note>
<note>
<pitch>
<step>C</step>
<octave>3</octave>
</pitch>
<duration>12</duration>
<type>quarter</type>
<dot/>
<stem>down</stem>
<lyric number="1">
<syllabic>single</syllabic>
<text></text>
</lyric>
</note>
<note>
<chord/>
<pitch>
<step>C</step>
<octave>4</octave>
</pitch>
<duration>12</duration>
<type>quarter</type>
<dot/>
<stem>down</stem>
</note>
<note>
<pitch>
<step>D</step>
<octave>3</octave>
</pitch>
<duration>4</duration>
<type>eighth</type>
<accidental>natural</accidental>
<stem>down</stem>
<lyric number="1">
<syllabic>single</syllabic>
<text>La</text>
</lyric>
</note>
<note>
<chord/>
<pitch>
<step>C</step>
<octave>4</octave>
</pitch>
<duration>4</duration>
<type>eighth</type>
<stem>down</stem>
</note>
</measure>
<measure number="18">
<note>
<pitch>
<step>C</step>
<octave>4</octave>
</pitch>
<duration>16</duration>
<voice>1</voice>
<type>half</type>
<stem>up</stem>
<lyric number="1">
<syllabic>begin</syllabic>
<text>trom</text>
</lyric>
</note>
<note>
<pitch>
<step>C</step>
<octave>3</octave>
</pitch>
<duration>8</duration>
<voice>1</voice>
<type>quarter</type>
<lyric number="1">
<syllabic>end</syllabic>
<text>pette</text>
</lyric>
</note>
<note>
<pitch>
<step>C</step>
<octave>4</octave>
</pitch>
<duration>16</duration>
<voice>1</voice>
<type>half</type>
<stem>up</stem>
<lyric number="1">
<syllabic>begin</syllabic>
<text>ap</text>
</lyric>
</note>
<backup>
<duration>40</duration>
</backup>
<note>
<pitch>
<step>E</step>
<octave>3</octave>
</pitch>
<duration>8</duration>
<voice>2</voice>
<type>quarter</type>
<accidental>natural</accidental>
<stem>down</stem>
</note>
<note>
<pitch>
<step>F</step>
<octave>3</octave>
</pitch>
<duration>4</duration>
<voice>2</voice>
<type>eighth</type>
<stem>down</stem>
<beam number="1">begin</beam>
<notations>
<slur type="start" number="1"/>
</notations>
</note>
<note>
<pitch>
<step>G</step>
<octave>3</octave>
</pitch>
<duration>4</duration>
<voice>2</voice>
<type>eighth</type>
<stem>down</stem>
<beam number="1">continue</beam>
<notations>
<slur type="stop" number="1"/>
</notations>
</note>
<note>
<pitch>
<step>A</step>
<alter>-1</alter>
<octave>3</octave>
</pitch>
<duration>8</duration>
<voice>2</voice>
<type>quarter</type>
</note>
</measure>
<measure number="19">
<note>
<pitch>
<step>E</step>
<alter>-1</alter>
<octave>4</octave>
</pitch>
<duration>8</duration>
<type>quarter</type>
<lyric number="1">
<syllabic>middle</syllabic>
<text>pel</text>
</lyric>
</note>
<note>
<pitch>
<step>E</step>
<alter>-1</alter>
<octave>4</octave>
</pitch>
<duration>8</duration>
<type>quarter</type>
<lyric number="1">
<syllabic>end</syllabic>
<text>le</text>
</lyric>
</note>
<note>
<pitch>
<step>E</step>
<alter>-1</alter>
<octave>3</octave>
</pitch>
<duration>12</duration>
<type>quarter</type>
<dot/>
<stem>down</stem>
<lyric number="1">
<syllabic>single</syllabic>
<text></text>
</lyric>
</note>
<note>
<chord/>
<pitch>
<step>E</step>
<alter>-1</alter>
<octave>4</octave>
</pitch>
<duration>12</duration>
<type>quarter</type>
<dot/>
<stem>down</stem>
</note>
<note>
<pitch>
<step>F</step>
<octave>3</octave>
</pitch>
<duration>4</duration>
<type>eighth</type>
<stem>down</stem>
<lyric number="1">
<syllabic>single</syllabic>
<text></text>
</lyric>
</note>
<note>
<chord/>
<pitch>
<step>E</step>
<alter>-1</alter>
<octave>4</octave>
</pitch>
<duration>4</duration>
<type>eighth</type>
<stem>down</stem>
</note>
</measure>
<measure number="20">
<note>
<pitch>
<step>E</step>
<alter>-1</alter>
<octave>4</octave>
</pitch>
<duration>32</duration>
<voice>1</voice>
<type>whole</type>
<stem>up</stem>
<lyric number="1">
<syllabic>single</syllabic>
<text>Pour</text>
</lyric>
</note>
<backup>
<duration>32</duration>
</backup>
<note>
<pitch>
<step>G</step>
<octave>3</octave>
</pitch>
<duration>8</duration>
<voice>2</voice>
<type>quarter</type>
<stem>down</stem>
</note>
<note>
<pitch>
<step>E</step>
<alter>-1</alter>
<octave>3</octave>
</pitch>
<duration>8</duration>
<voice>2</voice>
<type>quarter</type>
</note>
<note>
<pitch>
<step>A</step>
<alter>-1</alter>
<octave>3</octave>
</pitch>
<duration>4</duration>
<voice>2</voice>
<type>eighth</type>
<stem>down</stem>
<beam number="1">begin</beam>
<notations>
<slur type="start" number="1"/>
</notations>
</note>
<note>
<pitch>
<step>B</step>
<alter>-1</alter>
<octave>3</octave>
</pitch>
<duration>4</duration>
<voice>2</voice>
<type>eighth</type>
<stem>down</stem>
<beam number="1">continue</beam>
<notations>
<slur type="continue" number="1"/>
</notations>
</note>
<note>
<pitch>
<step>C</step>
<octave>4</octave>
</pitch>
<duration>8</duration>
<voice>2</voice>
<type>quarter</type>
<notations>
<slur type="stop" number="1"/>
</notations>
</note>
</measure>
<measure number="21">
<note>
<pitch>
<step>D</step>
<alter>-1</alter>
<octave>4</octave>
</pitch>
<duration>12</duration>
<voice>1</voice>
<type>quarter</type>
<dot/>
<stem>up</stem>
<lyric number="1">
<syllabic>single</syllabic>
<text>le</text>
</lyric>
</note>
<note>
<pitch>
<step>D</step>
<alter>-1</alter>
<octave>4</octave>
</pitch>
<duration>4</duration>
<voice>1</voice>
<type>eighth</type>
<stem>up</stem>
<lyric number="1">
<syllabic>single</syllabic>
<text>saint</text>
</lyric>
</note>
<note>
<pitch>
<step>C</step>
<octave>4</octave>
</pitch>
<duration>8</duration>
<voice>1</voice>
<type>quarter</type>
<stem>down</stem>
<lyric number="1">
<syllabic>begin</syllabic>
<text>com</text>
</lyric>
</note>
<note>
<chord/>
<pitch>
<step>E</step>
<alter>-1</alter>
<octave>4</octave>
</pitch>
<duration>8</duration>
<voice>1</voice>
<type>quarter</type>
<stem>down</stem>
</note>
<note>
<pitch>
<step>C</step>
<octave>4</octave>
</pitch>
<duration>8</duration>
<voice>1</voice>
<type>quarter</type>
<stem>down</stem>
<lyric number="1">
<syllabic>end</syllabic>
<text>bat.</text>
</lyric>
</note>
<note>
<chord/>
<pitch>
<step>E</step>
<alter>-1</alter>
<octave>4</octave>
</pitch>
<duration>8</duration>
<voice>1</voice>
<type>quarter</type>
<stem>down</stem>
</note>
<backup>
<duration>32</duration>
</backup>
<note>
<pitch>
<step>D</step>
<alter>-1</alter>
<octave>4</octave>
</pitch>
<duration>12</duration>
<voice>2</voice>
<type>quarter</type>
<dot/>
<stem>down</stem>
</note>
<note>
<pitch>
<step>D</step>
<alter>-1</alter>
<octave>4</octave>
</pitch>
<duration>4</duration>
<voice>2</voice>
<type>eighth</type>
<stem>down</stem>
</note>
<forward>
<duration>16</duration>
<voice>2</voice>
</forward>
</measure>
<measure number="22">
<note>
<pitch>
<step>B</step>
<alter>-1</alter>
<octave>3</octave>
</pitch>
<duration>8</duration>
<type>quarter</type>
<stem>down</stem>
</note>
<note>
<chord/>
<pitch>
<step>F</step>
<octave>4</octave>
</pitch>
<duration>8</duration>
<type>quarter</type>
<stem>down</stem>
</note>
<note>
<pitch>
<step>G</step>
<octave>3</octave>
</pitch>
<duration>8</duration>
<type>quarter</type>
<stem>down</stem>
</note>
<note>
<chord/>
<pitch>
<step>E</step>
<alter>-1</alter>
<octave>4</octave>
</pitch>
<duration>8</duration>
<type>quarter</type>
<stem>down</stem>
</note>
<note>
<pitch>
<step>A</step>
<alter>-1</alter>
<octave>3</octave>
</pitch>
<duration>8</duration>
<type>quarter</type>
<stem>down</stem>
</note>
<note>
<chord/>
<pitch>
<step>E</step>
<alter>-1</alter>
<octave>4</octave>
</pitch>
<duration>8</duration>
<type>quarter</type>
<stem>down</stem>
</note>
<note>
<pitch>
<step>D</step>
<alter>-1</alter>
<octave>3</octave>
</pitch>
<duration>8</duration>
<type>quarter</type>
<stem>down</stem>
</note>
<note>
<chord/>
<pitch>
<step>D</step>
<alter>-1</alter>
<octave>4</octave>
</pitch>
<duration>8</duration>
<type>quarter</type>
<stem>down</stem>
</note>
</measure>
<measure number="23">
<note>
<pitch>
<step>A</step>
<alter>-1</alter>
<octave>3</octave>
</pitch>
<duration>8</duration>
<voice>1</voice>
<type>quarter</type>
<stem>up</stem>
</note>
<note>
<pitch>
<step>E</step>
<alter>-1</alter>
<octave>4</octave>
</pitch>
<duration>8</duration>
<tie type="stop"/>
<voice>1</voice>
<type>quarter</type>
<stem>up</stem>
<notations>
<tied type="stop"/>
</notations>
</note>
<backup>
<duration>16</duration>
</backup>
<note>
<pitch>
<step>E</step>
<alter>-1</alter>
<octave>3</octave>
</pitch>
<duration>16</duration>
<voice>2</voice>
<type>half</type>
<stem>down</stem>
</note>
<note>
<pitch>
<step>E</step>
<alter>-1</alter>
<octave>4</octave>
</pitch>
<duration>8</duration>
<tie type="start"/>
<voice>2</voice>
<type>quarter</type>
<notations>
<tied type="start"/>
</notations>
</note>
<note>
<pitch>
<step>E</step>
<alter>-1</alter>
<octave>3</octave>
</pitch>
<duration>16</duration>
<voice>2</voice>
<type>half</type>
<stem>down</stem>
</note>
<note>
<pitch>
<step>D</step>
<alter>-1</alter>
<octave>4</octave>
</pitch>
<duration>8</duration>
<voice>2</voice>
<type>quarter</type>
</note>
</measure>
<measure number="24">
<note>
<pitch>
<step>A</step>
<alter>-1</alter>
<octave>2</octave>
</pitch>
<duration>32</duration>
<type>whole</type>
<stem>down</stem>
</note>
<note>
<chord/>
<pitch>
<step>C</step>
<octave>4</octave>
</pitch>
<duration>32</duration>
<type>whole</type>
<stem>down</stem>
</note>
<barline location="right">
<bar-style>light-heavy</bar-style>
<repeat direction="backward" times="4"/>
</barline>
<barline location="right">
<bar-style>light-heavy</bar-style>
</barline>
</measure>
</part>
</score-partwise>
