<?xml version="1.0" encoding="UTF-8" standalone='no'?>
<!DOCTYPE score-partwise PUBLIC "-//Recordare//DTD MusicXML 1.0 Partwise//EN" "http://www.musicxml.org/dtds/partwise.dtd">
<score-partwise>
<work>
<work-title>Dieu tout-puissant</work-title>
</work>
<identification>
<creator type="transcriber">mélodie russe ; Arr. L. Mc Gowen</creator>
<rights>© Arrangement 1974 Jeunesse en Mission</rights>
<encoding>
<software>Noteworthy Composer</software>
<encoding-date>2007-02-17</encoding-date>
</encoding>
</identification>
<part-list>
<score-part id="P1">
<part-name>Solo</part-name>
<score-instrument id="P1-I1">
<instrument-name>String Ensemble 1</instrument-name>
</score-instrument>
<midi-instrument id="P1-I1">
<midi-channel>1</midi-channel>
<midi-program>50</midi-program>
</midi-instrument>
</score-part>
<score-part id="P2">
<part-name>Voix des homme</part-name>
<score-instrument id="P2-I1">
<instrument-name>String Ensemble 1</instrument-name>
</score-instrument>
<midi-instrument id="P2-I1">
<midi-channel>3</midi-channel>
<midi-program>50</midi-program>
</midi-instrument>
</score-part>
<score-part id="P3">
<part-name>Voix des hommes</part-name>
<score-instrument id="P3-I1">
<instrument-name>String Ensemble 1</instrument-name>
</score-instrument>
<midi-instrument id="P3-I1">
<midi-channel>4</midi-channel>
<midi-program>50</midi-program>
</midi-instrument>
</score-part>
<score-part id="P4">
<part-name>Instrument</part-name>
<score-instrument id="P4-I1">
<instrument-name>Flute</instrument-name>
</score-instrument>
<midi-instrument id="P4-I1">
<midi-channel>2</midi-channel>
<midi-program>75</midi-program>
</midi-instrument>
</score-part>
</part-list>
<part id="P1">
<measure number="1">
<attributes>
<divisions>4</divisions>
</attributes>
<attributes>
<clef>
<sign>G</sign>
<line>2</line>
</clef>
</attributes>
<attributes>
<key>
<fifths>-2</fifths>
</key>
</attributes>
<attributes>
<time>
<beats>4</beats>
<beat-type>4</beat-type>
</time>
</attributes>
<note>
<rest/>
<duration>4</duration>
<type>quarter</type>
</note>
<note>
<pitch>
<step>F</step>
<octave>4</octave>
</pitch>
<duration>4</duration>
<type>quarter</type>
<lyric number="1">
<syllabic>single</syllabic>
<text>1. Dieu</text>
</lyric>
<lyric number="2">
<syllabic>single</syllabic>
<text>2. Quand</text>
</lyric>
<lyric number="3">
<syllabic>single</syllabic>
<text>3. Mais</text>
</lyric>
</note>
<note>
<pitch>
<step>F</step>
<octave>4</octave>
</pitch>
<duration>4</duration>
<type>quarter</type>
<lyric number="1">
<syllabic>begin</syllabic>
<text>tout</text>
</lyric>
<lyric number="2">
<syllabic>single</syllabic>
<text>par</text>
</lyric>
<lyric number="3">
<syllabic>single</syllabic>
<text>quand</text>
</lyric>
</note>
<note>
<pitch>
<step>F</step>
<octave>4</octave>
</pitch>
<duration>4</duration>
<type>quarter</type>
<lyric number="1">
<syllabic>middle</syllabic>
<text>puis</text>
</lyric>
<lyric number="2">
<syllabic>single</syllabic>
<text>les</text>
</lyric>
<lyric number="3">
<syllabic>single</syllabic>
<text>je</text>
</lyric>
</note>
</measure>
<measure number="2">
<note>
<pitch>
<step>D</step>
<octave>4</octave>
</pitch>
<duration>12</duration>
<type>half</type>
<dot/>
<lyric number="1">
<syllabic>end</syllabic>
<text>sant</text>
</lyric>
<lyric number="2">
<syllabic>single</syllabic>
<text>bois,</text>
</lyric>
<lyric number="3">
<syllabic>single</syllabic>
<text>songe,</text>
</lyric>
</note>
<note>
<pitch>
<step>F</step>
<octave>4</octave>
</pitch>
<duration>4</duration>
<type>quarter</type>
<lyric number="1">
<syllabic>single</syllabic>
<text>quand</text>
</lyric>
<lyric number="2">
<syllabic>single</syllabic>
<text>ou</text>
</lyric>
<lyric number="3">
<syllabic>single</syllabic>
<text>ô</text>
</lyric>
</note>
</measure>
<measure number="3">
<note>
<pitch>
<step>F</step>
<octave>4</octave>
</pitch>
<duration>4</duration>
<type>quarter</type>
<lyric number="1">
<syllabic>single</syllabic>
<text>mon</text>
</lyric>
<lyric number="2">
<syllabic>single</syllabic>
<text>la</text>
</lyric>
<lyric number="3">
<syllabic>begin</syllabic>
<text>su</text>
</lyric>
</note>
<note>
<pitch>
<step>F</step>
<octave>4</octave>
</pitch>
<duration>4</duration>
<type>quarter</type>
<lyric number="1">
<syllabic>single</syllabic>
<text>coeur</text>
</lyric>
<lyric number="2">
<syllabic>begin</syllabic>
<text>fo</text>
</lyric>
<lyric number="3">
<syllabic>middle</syllabic>
<text>bli</text>
</lyric>
</note>
<note>
<pitch>
<step>G</step>
<octave>4</octave>
</pitch>
<duration>4</duration>
<type>quarter</type>
<lyric number="1">
<syllabic>begin</syllabic>
<text>con</text>
</lyric>
<lyric number="2">
<syllabic>end</syllabic>
<text>rêt</text>
</lyric>
<lyric number="3">
<syllabic>end</syllabic>
<text>me</text>
</lyric>
</note>
<note>
<pitch>
<step>G</step>
<octave>4</octave>
</pitch>
<duration>4</duration>
<type>quarter</type>
<lyric number="1">
<syllabic>middle</syllabic>
<text>si</text>
</lyric>
<lyric number="2">
<syllabic>begin</syllabic>
<text>pro</text>
</lyric>
<lyric number="3">
<syllabic>begin</syllabic>
<text>mys</text>
</lyric>
</note>
</measure>
<measure number="4">
<note>
<pitch>
<step>E</step>
<alter>-1</alter>
<octave>4</octave>
</pitch>
<duration>8</duration>
<type>half</type>
<lyric number="1">
<syllabic>middle</syllabic>
<text>dè</text>
</lyric>
<lyric number="2">
<syllabic>middle</syllabic>
<text>fon</text>
</lyric>
<lyric number="3">
<syllabic>middle</syllabic>
<text>tè</text>
</lyric>
</note>
<note>
<pitch>
<step>G</step>
<octave>4</octave>
</pitch>
<duration>8</duration>
<tie type="start"/>
<type>half</type>
<notations>
<tied type="start"/>
</notations>
<lyric number="1">
<syllabic>end</syllabic>
<text>re</text>
</lyric>
<lyric number="2">
<syllabic>end</syllabic>
<text>de,</text>
</lyric>
<lyric number="3">
<syllabic>end</syllabic>
<text>re !</text>
</lyric>
</note>
</measure>
<measure number="5">
<note>
<pitch>
<step>G</step>
<octave>4</octave>
</pitch>
<duration>4</duration>
<tie type="stop"/>
<type>quarter</type>
<notations>
<tied type="stop"/>
</notations>
</note>
<note>
<pitch>
<step>G</step>
<octave>4</octave>
</pitch>
<duration>4</duration>
<type>quarter</type>
<lyric number="1">
<syllabic>single</syllabic>
<text>Tout</text>
</lyric>
<lyric number="2">
<syllabic>single</syllabic>
<text>J'erre</text>
</lyric>
<lyric number="3">
<syllabic>single</syllabic>
<text>Qu'un</text>
</lyric>
</note>
<note>
<pitch>
<step>G</step>
<octave>4</octave>
</pitch>
<duration>4</duration>
<type>quarter</type>
<lyric number="1">
<syllabic>begin</syllabic>
<text>l'u</text>
</lyric>
<lyric number="2">
<syllabic>single</syllabic>
<text>et</text>
</lyric>
<lyric number="3">
<syllabic>single</syllabic>
<text>Dieu</text>
</lyric>
</note>
<note>
<pitch>
<step>G</step>
<octave>4</octave>
</pitch>
<duration>4</duration>
<type>quarter</type>
<lyric number="1">
<syllabic>middle</syllabic>
<text>ni</text>
</lyric>
<lyric number="2">
<syllabic>begin</syllabic>
<text>j'en</text>
</lyric>
<lyric number="3">
<syllabic>single</syllabic>
<text>si</text>
</lyric>
</note>
</measure>
<measure number="6">
<note>
<pitch>
<step>F</step>
<octave>4</octave>
</pitch>
<duration>12</duration>
<type>half</type>
<dot/>
<lyric number="1">
<syllabic>end</syllabic>
<text>vers</text>
</lyric>
<lyric number="2">
<syllabic>end</syllabic>
<text>tends</text>
</lyric>
<lyric number="3">
<syllabic>single</syllabic>
<text>grand</text>
</lyric>
</note>
<note>
<pitch>
<step>D</step>
<octave>4</octave>
</pitch>
<duration>4</duration>
<type>quarter</type>
<lyric number="1">
<syllabic>begin</syllabic>
<text>cré</text>
</lyric>
<lyric number="2">
<syllabic>single</syllabic>
<text>tous</text>
</lyric>
<lyric number="3">
<syllabic>single</syllabic>
<text>a</text>
</lyric>
</note>
</measure>
<measure number="7">
<note>
<pitch>
<step>F</step>
<octave>4</octave>
</pitch>
<duration>4</duration>
<type>quarter</type>
<lyric number="1">
<syllabic>end</syllabic>
<text>é</text>
</lyric>
<lyric number="2">
<syllabic>single</syllabic>
<text>les</text>
</lyric>
<lyric number="3">
<syllabic>single</syllabic>
<text>pu</text>
</lyric>
</note>
<note>
<pitch>
<step>F</step>
<octave>4</octave>
</pitch>
<duration>4</duration>
<type>quarter</type>
<lyric number="1">
<syllabic>single</syllabic>
<text>par</text>
</lyric>
<lyric number="2">
<syllabic>begin</syllabic>
<text>oi</text>
</lyric>
<lyric number="3">
<syllabic>begin</syllabic>
<text>pen</text>
</lyric>
</note>
<note>
<pitch>
<step>E</step>
<alter>-1</alter>
<octave>4</octave>
</pitch>
<duration>4</duration>
<type>quarter</type>
<lyric number="1">
<syllabic>single</syllabic>
<text>Ton</text>
</lyric>
<lyric number="2">
<syllabic>end</syllabic>
<text>seaux</text>
</lyric>
<lyric number="3">
<syllabic>end</syllabic>
<text>ser</text>
</lyric>
</note>
<note>
<pitch>
<step>E</step>
<alter>-1</alter>
<octave>4</octave>
</pitch>
<duration>4</duration>
<type>quarter</type>
<lyric number="1">
<syllabic>begin</syllabic>
<text>pou</text>
</lyric>
<lyric number="2">
<syllabic>begin</syllabic>
<text>chan</text>
</lyric>
<lyric number="3">
<syllabic>single</syllabic>
<text>à</text>
</lyric>
</note>
</measure>
<measure number="8">
<note>
<pitch>
<step>D</step>
<octave>4</octave>
</pitch>
<duration>16</duration>
<tie type="start"/>
<type>whole</type>
<notations>
<tied type="start"/>
</notations>
<lyric number="1">
<syllabic>end</syllabic>
<text>voir</text>
</lyric>
<lyric number="2">
<syllabic>end</syllabic>
<text>ter;</text>
</lyric>
<lyric number="3">
<syllabic>single</syllabic>
<text>moi;</text>
</lyric>
</note>
</measure>
<measure number="9">
<note>
<pitch>
<step>D</step>
<octave>4</octave>
</pitch>
<duration>4</duration>
<tie type="stop"/>
<type>quarter</type>
<notations>
<tied type="stop"/>
</notations>
</note>
<note>
<pitch>
<step>F</step>
<octave>4</octave>
</pitch>
<duration>4</duration>
<type>quarter</type>
<lyric number="1">
<syllabic>single</syllabic>
<text>Le</text>
</lyric>
<lyric number="2">
<syllabic>single</syllabic>
<text>Quand,</text>
</lyric>
<lyric number="3">
<syllabic>single</syllabic>
<text>Que</text>
</lyric>
</note>
<note>
<pitch>
<step>F</step>
<octave>4</octave>
</pitch>
<duration>4</duration>
<type>quarter</type>
<lyric number="1">
<syllabic>single</syllabic>
<text>ciel</text>
</lyric>
<lyric number="2">
<syllabic>single</syllabic>
<text>sur</text>
</lyric>
<lyric number="3">
<syllabic>single</syllabic>
<text>son</text>
</lyric>
</note>
<note>
<pitch>
<step>F</step>
<octave>4</octave>
</pitch>
<duration>4</duration>
<type>quarter</type>
<lyric number="1">
<syllabic>begin</syllabic>
<text>d'a</text>
</lyric>
<lyric number="2">
<syllabic>single</syllabic>
<text>les</text>
</lyric>
<lyric number="3">
<syllabic>single</syllabic>
<text>cher</text>
</lyric>
</note>
</measure>
<measure number="10">
<note>
<pitch>
<step>D</step>
<octave>4</octave>
</pitch>
<duration>12</duration>
<type>half</type>
<dot/>
<lyric number="1">
<syllabic>end</syllabic>
<text>zur,</text>
</lyric>
<lyric number="2">
<syllabic>single</syllabic>
<text>monts,</text>
</lyric>
<lyric number="3">
<syllabic>single</syllabic>
<text>Fils</text>
</lyric>
</note>
<note>
<pitch>
<step>F</step>
<octave>4</octave>
</pitch>
<duration>4</duration>
<type>quarter</type>
<lyric number="1">
<syllabic>single</syllabic>
<text>les</text>
</lyric>
<lyric number="2">
<syllabic>single</syllabic>
<text>la</text>
</lyric>
<lyric number="3">
<syllabic>single</syllabic>
<text>est</text>
</lyric>
</note>
</measure>
<measure number="11">
<note>
<pitch>
<step>F</step>
<octave>4</octave>
</pitch>
<duration>4</duration>
<type>quarter</type>
<lyric number="1">
<syllabic>begin</syllabic>
<text>é</text>
</lyric>
<lyric number="2">
<syllabic>single</syllabic>
<text>source</text>
</lyric>
<lyric number="3">
<syllabic>begin</syllabic>
<text>de</text>
</lyric>
</note>
<note>
<pitch>
<step>F</step>
<octave>4</octave>
</pitch>
<duration>4</duration>
<type>quarter</type>
<lyric number="1">
<syllabic>end</syllabic>
<text>clairs,</text>
</lyric>
<lyric number="2">
<syllabic>begin</syllabic>
<text>a</text>
</lyric>
<lyric number="3">
<syllabic>middle</syllabic>
<text>ve</text>
</lyric>
</note>
<note>
<pitch>
<step>G</step>
<octave>4</octave>
</pitch>
<duration>4</duration>
<type>quarter</type>
<lyric number="1">
<syllabic>single</syllabic>
<text>le</text>
</lyric>
<lyric number="2">
<syllabic>end</syllabic>
<text>vec</text>
</lyric>
<lyric number="3">
<syllabic>end</syllabic>
<text>nu</text>
</lyric>
</note>
<note>
<pitch>
<step>G</step>
<octave>4</octave>
</pitch>
<duration>4</duration>
<type>quarter</type>
<lyric number="1">
<syllabic>begin</syllabic>
<text>ton</text>
</lyric>
<lyric number="2">
<syllabic>single</syllabic>
<text>son</text>
</lyric>
<lyric number="3">
<syllabic>single</syllabic>
<text>mon</text>
</lyric>
</note>
</measure>
<measure number="12">
<note>
<pitch>
<step>E</step>
<alter>-1</alter>
<octave>4</octave>
</pitch>
<duration>8</duration>
<type>half</type>
<lyric number="1">
<syllabic>middle</syllabic>
<text>ner</text>
</lyric>
<lyric number="2">
<syllabic>begin</syllabic>
<text>on</text>
</lyric>
<lyric number="3">
<syllabic>begin</syllabic>
<text>Frè</text>
</lyric>
</note>
<note>
<pitch>
<step>G</step>
<octave>4</octave>
</pitch>
<duration>8</duration>
<tie type="start"/>
<type>half</type>
<notations>
<tied type="start"/>
</notations>
<lyric number="1">
<syllabic>end</syllabic>
<text>re</text>
</lyric>
<lyric number="2">
<syllabic>end</syllabic>
<text>de,</text>
</lyric>
<lyric number="3">
<syllabic>end</syllabic>
<text>re,</text>
</lyric>
</note>
</measure>
<measure number="13">
<note>
<pitch>
<step>G</step>
<octave>4</octave>
</pitch>
<duration>4</duration>
<tie type="stop"/>
<type>quarter</type>
<notations>
<tied type="stop"/>
</notations>
</note>
<note>
<pitch>
<step>G</step>
<octave>4</octave>
</pitch>
<duration>4</duration>
<type>quarter</type>
<lyric number="1">
<syllabic>single</syllabic>
<text>Le</text>
</lyric>
<lyric number="2">
<syllabic>single</syllabic>
<text>Livre</text>
</lyric>
<lyric number="3">
<syllabic>single</syllabic>
<text>Et</text>
</lyric>
</note>
<note>
<pitch>
<step>G</step>
<octave>4</octave>
</pitch>
<duration>4</duration>
<type>quarter</type>
<lyric number="1">
<syllabic>single</syllabic>
<text>clair</text>
</lyric>
<lyric number="2">
<syllabic>single</syllabic>
<text>au</text>
</lyric>
<lyric number="3">
<syllabic>single</syllabic>
<text>que</text>
</lyric>
</note>
<note>
<pitch>
<step>G</step>
<octave>4</octave>
</pitch>
<duration>4</duration>
<type>quarter</type>
<lyric number="1">
<syllabic>begin</syllabic>
<text>ma</text>
</lyric>
<lyric number="2">
<syllabic>begin</syllabic>
<text>zé</text>
</lyric>
<lyric number="3">
<syllabic>single</syllabic>
<text>je</text>
</lyric>
</note>
</measure>
<measure number="14">
<note>
<pitch>
<step>F</step>
<octave>4</octave>
</pitch>
<duration>12</duration>
<type>half</type>
<dot/>
<lyric number="1">
<syllabic>end</syllabic>
<text>tin</text>
</lyric>
<lyric number="2">
<syllabic>end</syllabic>
<text>phyr</text>
</lyric>
<lyric number="3">
<syllabic>single</syllabic>
<text>suis</text>
</lyric>
</note>
<note>
<pitch>
<step>D</step>
<octave>4</octave>
</pitch>
<duration>4</duration>
<type>quarter</type>
<lyric number="1">
<syllabic>single</syllabic>
<text>ou</text>
</lyric>
<lyric number="2">
<syllabic>single</syllabic>
<text>son</text>
</lyric>
<lyric number="3">
<syllabic>begin</syllabic>
<text>l'hé</text>
</lyric>
</note>
</measure>
<measure number="15">
<note>
<pitch>
<step>F</step>
<octave>4</octave>
</pitch>
<duration>4</duration>
<type>quarter</type>
<lyric number="1">
<syllabic>single</syllabic>
<text>les</text>
</lyric>
<lyric number="2">
<syllabic>single</syllabic>
<text>chant</text>
</lyric>
<lyric number="3">
<syllabic>middle</syllabic>
<text>ri</text>
</lyric>
</note>
<note>
<pitch>
<step>F</step>
<octave>4</octave>
</pitch>
<duration>4</duration>
<type>quarter</type>
<lyric number="1">
<syllabic>begin</syllabic>
<text>om</text>
</lyric>
<lyric number="2">
<syllabic>single</syllabic>
<text>doux</text>
</lyric>
<lyric number="3">
<syllabic>end</syllabic>
<text>tier</text>
</lyric>
</note>
<note>
<pitch>
<step>E</step>
<alter>-1</alter>
<octave>4</octave>
</pitch>
<duration>4</duration>
<type>quarter</type>
<lyric number="1">
<syllabic>end</syllabic>
<text>bres</text>
</lyric>
<lyric number="2">
<syllabic>single</syllabic>
<text>et</text>
</lyric>
<lyric number="3">
<syllabic>single</syllabic>
<text>du</text>
</lyric>
</note>
<note>
<pitch>
<step>E</step>
<alter>-1</alter>
<octave>4</octave>
</pitch>
<duration>4</duration>
<type>quarter</type>
<lyric number="1">
<syllabic>single</syllabic>
<text>du</text>
</lyric>
<lyric number="2">
<syllabic>begin</syllabic>
<text>lé</text>
</lyric>
<lyric number="3">
<syllabic>single</syllabic>
<text>grand</text>
</lyric>
</note>
</measure>
<measure number="16">
<note>
<pitch>
<step>D</step>
<octave>4</octave>
</pitch>
<duration>16</duration>
<tie type="start"/>
<type>whole</type>
<notations>
<tied type="start"/>
</notations>
<lyric number="1">
<syllabic>single</syllabic>
<text>soir.</text>
</lyric>
<lyric number="2">
<syllabic>end</syllabic>
<text>ger...</text>
</lyric>
<lyric number="3">
<syllabic>single</syllabic>
<text>Roi...</text>
</lyric>
</note>
</measure>
<measure number="17">
<note>
<pitch>
<step>D</step>
<octave>4</octave>
</pitch>
<duration>4</duration>
<tie type="stop"/>
<type>quarter</type>
<notations>
<tied type="stop"/>
</notations>
</note>
</measure>
<measure number="18">
<barline location="left">
<bar-style>heavy-light</bar-style>
</barline>
<note>
<rest/>
<duration>12</duration>
<type>half</type>
<dot/>
</note>
</measure>
<measure number="19">
<note>
<rest/>
<duration>16</duration>
<type>whole</type>
</note>
</measure>
<measure number="20">
<note>
<rest/>
<duration>16</duration>
<type>whole</type>
</note>
</measure>
<measure number="21">
<note>
<rest/>
<duration>16</duration>
<type>whole</type>
</note>
</measure>
<measure number="22">
<note>
<rest/>
<duration>16</duration>
<type>whole</type>
</note>
</measure>
<measure number="23">
<note>
<rest/>
<duration>16</duration>
<type>whole</type>
</note>
</measure>
<measure number="24">
<note>
<rest/>
<duration>16</duration>
<type>whole</type>
</note>
</measure>
<measure number="25">
<note>
<rest/>
<duration>16</duration>
<type>whole</type>
</note>
</measure>
<measure number="26">
<note>
<rest/>
<duration>16</duration>
<type>whole</type>
</note>
</measure>
<measure number="27">
<note>
<rest/>
<duration>16</duration>
<type>whole</type>
</note>
</measure>
<measure number="28">
<note>
<rest/>
<duration>16</duration>
<type>whole</type>
</note>
</measure>
<measure number="29">
<note>
<rest/>
<duration>16</duration>
<type>whole</type>
</note>
</measure>
<measure number="30">
<note>
<rest/>
<duration>16</duration>
<type>whole</type>
</note>
</measure>
<measure number="31">
<note>
<rest/>
<duration>16</duration>
<type>whole</type>
</note>
</measure>
<measure number="32">
<note>
<rest/>
<duration>16</duration>
<type>whole</type>
</note>
</measure>
<measure number="33">
<note>
<rest/>
<duration>16</duration>
<type>whole</type>
</note>
</measure>
<measure number="34">
<note>
<rest/>
<duration>4</duration>
<type>quarter</type>
</note>
<barline location="right">
<bar-style>light-heavy</bar-style>
<repeat direction="backward" times="3"/>
</barline>
<barline location="right">
<bar-style>light-heavy</bar-style>
</barline>
</measure>
</part>
<part id="P2">
<measure number="1">
<attributes>
<divisions>8</divisions>
</attributes>
<attributes>
<clef>
<sign>G</sign>
<line>2</line>
</clef>
</attributes>
<attributes>
<key>
<fifths>-2</fifths>
</key>
</attributes>
<attributes>
<time>
<beats>4</beats>
<beat-type>4</beat-type>
</time>
</attributes>
<note>
<rest/>
<duration>8</duration>
<voice>1</voice>
<type>quarter</type>
</note>
<note>
<pitch>
<step>F</step>
<octave>4</octave>
</pitch>
<duration>24</duration>
<voice>1</voice>
<type>half</type>
<dot/>
<stem>up</stem>
<lyric number="1">
<syllabic>single</syllabic>
<text>ou</text>
</lyric>
<lyric number="2">
<syllabic>single</syllabic>
<text>ou</text>
</lyric>
<lyric number="3">
<syllabic>single</syllabic>
<text>ou</text>
</lyric>
</note>
<backup>
<duration>32</duration>
</backup>
<forward>
<duration>8</duration>
<voice>2</voice>
</forward>
<note>
<pitch>
<step>F</step>
<octave>4</octave>
</pitch>
<duration>24</duration>
<voice>2</voice>
<type>half</type>
<dot/>
<stem>down</stem>
</note>
</measure>
<measure number="2">
<note>
<pitch>
<step>F</step>
<octave>4</octave>
</pitch>
<duration>32</duration>
<voice>1</voice>
<type>whole</type>
<stem>up</stem>
<notations>
<slur type="start" number="1"/>
</notations>
<lyric number="1">
<syllabic>single</syllabic>
<text>ou</text>
</lyric>
<lyric number="2">
<syllabic>single</syllabic>
<text>ou</text>
</lyric>
<lyric number="3">
<syllabic>single</syllabic>
<text>ou</text>
</lyric>
</note>
<backup>
<duration>32</duration>
</backup>
<note>
<pitch>
<step>D</step>
<octave>4</octave>
</pitch>
<duration>32</duration>
<voice>2</voice>
<type>whole</type>
<stem>down</stem>
</note>
</measure>
<measure number="3">
<note>
<pitch>
<step>F</step>
<octave>4</octave>
</pitch>
<duration>16</duration>
<voice>1</voice>
<type>half</type>
<stem>up</stem>
<notations>
<slur type="continue" number="1"/>
</notations>
</note>
<note>
<pitch>
<step>G</step>
<octave>4</octave>
</pitch>
<duration>16</duration>
<voice>1</voice>
<type>half</type>
<stem>up</stem>
<notations>
<slur type="continue" number="1"/>
</notations>
</note>
<backup>
<duration>32</duration>
</backup>
<note>
<pitch>
<step>D</step>
<octave>4</octave>
</pitch>
<duration>16</duration>
<voice>2</voice>
<type>half</type>
<stem>down</stem>
</note>
<note>
<pitch>
<step>E</step>
<alter>-1</alter>
<octave>4</octave>
</pitch>
<duration>16</duration>
<voice>2</voice>
<type>half</type>
<stem>down</stem>
</note>
</measure>
<measure number="4">
<note>
<pitch>
<step>G</step>
<octave>4</octave>
</pitch>
<duration>32</duration>
<voice>1</voice>
<type>whole</type>
<stem>up</stem>
<notations>
<slur type="continue" number="1"/>
</notations>
</note>
<backup>
<duration>32</duration>
</backup>
<note>
<pitch>
<step>E</step>
<alter>-1</alter>
<octave>4</octave>
</pitch>
<duration>32</duration>
<voice>2</voice>
<type>whole</type>
<stem>down</stem>
</note>
</measure>
<measure number="5">
<note>
<pitch>
<step>G</step>
<octave>4</octave>
</pitch>
<duration>32</duration>
<voice>1</voice>
<type>whole</type>
<stem>up</stem>
<notations>
<slur type="stop" number="1"/>
</notations>
</note>
<backup>
<duration>32</duration>
</backup>
<note>
<pitch>
<step>E</step>
<alter>-1</alter>
<octave>4</octave>
</pitch>
<duration>32</duration>
<voice>2</voice>
<type>whole</type>
<stem>down</stem>
</note>
</measure>
<measure number="6">
<note>
<pitch>
<step>F</step>
<octave>4</octave>
</pitch>
<duration>32</duration>
<voice>1</voice>
<type>whole</type>
<stem>up</stem>
<notations>
<slur type="start" number="1"/>
</notations>
<lyric number="1">
<syllabic>single</syllabic>
<text>ou</text>
</lyric>
<lyric number="2">
<syllabic>single</syllabic>
<text>ou</text>
</lyric>
<lyric number="3">
<syllabic>single</syllabic>
<text>ou</text>
</lyric>
</note>
<backup>
<duration>32</duration>
</backup>
<note>
<pitch>
<step>D</step>
<octave>4</octave>
</pitch>
<duration>32</duration>
<voice>2</voice>
<type>whole</type>
<stem>down</stem>
</note>
</measure>
<measure number="7">
<note>
<pitch>
<step>F</step>
<octave>4</octave>
</pitch>
<duration>32</duration>
<voice>1</voice>
<type>whole</type>
<stem>up</stem>
<notations>
<slur type="continue" number="1"/>
</notations>
</note>
<backup>
<duration>32</duration>
</backup>
<note>
<pitch>
<step>C</step>
<octave>4</octave>
</pitch>
<duration>32</duration>
<voice>2</voice>
<type>whole</type>
<stem>down</stem>
</note>
</measure>
<measure number="8">
<note>
<pitch>
<step>F</step>
<octave>4</octave>
</pitch>
<duration>32</duration>
<voice>1</voice>
<type>whole</type>
<stem>up</stem>
<notations>
<slur type="continue" number="1"/>
</notations>
</note>
<backup>
<duration>32</duration>
</backup>
<note>
<pitch>
<step>D</step>
<octave>4</octave>
</pitch>
<duration>32</duration>
<voice>2</voice>
<type>whole</type>
<stem>down</stem>
</note>
</measure>
<measure number="9">
<note>
<pitch>
<step>F</step>
<octave>4</octave>
</pitch>
<duration>16</duration>
<voice>1</voice>
<type>half</type>
<stem>up</stem>
<notations>
<slur type="stop" number="1"/>
</notations>
</note>
<note>
<pitch>
<step>F</step>
<octave>4</octave>
</pitch>
<duration>16</duration>
<voice>1</voice>
<type>half</type>
<stem>up</stem>
<notations>
<slur type="start" number="2"/>
</notations>
<lyric number="1">
<syllabic>single</syllabic>
<text>ou</text>
</lyric>
<lyric number="2">
<syllabic>single</syllabic>
<text>ou</text>
</lyric>
<lyric number="3">
<syllabic>single</syllabic>
<text>ou</text>
</lyric>
</note>
<backup>
<duration>32</duration>
</backup>
<note>
<pitch>
<step>D</step>
<octave>4</octave>
</pitch>
<duration>16</duration>
<voice>2</voice>
<type>half</type>
<stem>down</stem>
</note>
<note>
<pitch>
<step>A</step>
<octave>3</octave>
</pitch>
<duration>16</duration>
<voice>2</voice>
<type>half</type>
<stem>down</stem>
</note>
</measure>
<measure number="10">
<note>
<pitch>
<step>F</step>
<octave>4</octave>
</pitch>
<duration>32</duration>
<voice>1</voice>
<type>whole</type>
<stem>up</stem>
<notations>
<slur type="continue" number="1"/>
</notations>
</note>
<backup>
<duration>32</duration>
</backup>
<note>
<pitch>
<step>B</step>
<alter>-1</alter>
<octave>3</octave>
</pitch>
<duration>32</duration>
<voice>2</voice>
<type>whole</type>
<stem>down</stem>
</note>
</measure>
<measure number="11">
<note>
<pitch>
<step>F</step>
<octave>4</octave>
</pitch>
<duration>16</duration>
<voice>1</voice>
<type>half</type>
<stem>up</stem>
<lyric number="1">
<syllabic>single</syllabic>
<text>ou</text>
</lyric>
<lyric number="2">
<syllabic>single</syllabic>
<text>ou</text>
</lyric>
<lyric number="3">
<syllabic>single</syllabic>
<text>ou</text>
</lyric>
</note>
<note>
<pitch>
<step>G</step>
<octave>4</octave>
</pitch>
<duration>16</duration>
<voice>1</voice>
<type>half</type>
<stem>up</stem>
<notations>
<slur type="continue" number="1"/>
</notations>
</note>
<backup>
<duration>32</duration>
</backup>
<note>
<pitch>
<step>C</step>
<octave>4</octave>
</pitch>
<duration>8</duration>
<voice>2</voice>
<type>quarter</type>
<stem>down</stem>
<notations>
<slur type="continue" number="1"/>
</notations>
</note>
<note>
<pitch>
<step>D</step>
<octave>4</octave>
</pitch>
<duration>8</duration>
<voice>2</voice>
<type>quarter</type>
<stem>down</stem>
<notations>
<slur type="continue" number="1"/>
</notations>
</note>
<note>
<pitch>
<step>E</step>
<alter>-1</alter>
<octave>4</octave>
</pitch>
<duration>16</duration>
<voice>2</voice>
<type>half</type>
<stem>down</stem>
</note>
</measure>
<measure number="12">
<note>
<pitch>
<step>G</step>
<octave>4</octave>
</pitch>
<duration>32</duration>
<voice>1</voice>
<type>whole</type>
<stem>up</stem>
<notations>
<slur type="continue" number="1"/>
</notations>
</note>
<backup>
<duration>32</duration>
</backup>
<note>
<pitch>
<step>E</step>
<alter>-1</alter>
<octave>4</octave>
</pitch>
<duration>32</duration>
<voice>2</voice>
<type>whole</type>
<stem>down</stem>
</note>
</measure>
<measure number="13">
<note>
<pitch>
<step>G</step>
<octave>4</octave>
</pitch>
<duration>32</duration>
<voice>1</voice>
<type>whole</type>
<stem>up</stem>
<notations>
<slur type="stop" number="1"/>
</notations>
</note>
<backup>
<duration>32</duration>
</backup>
<note>
<pitch>
<step>E</step>
<alter>-1</alter>
<octave>4</octave>
</pitch>
<duration>32</duration>
<voice>2</voice>
<type>whole</type>
<stem>down</stem>
</note>
</measure>
<measure number="14">
<note>
<pitch>
<step>F</step>
<octave>4</octave>
</pitch>
<duration>32</duration>
<voice>1</voice>
<type>whole</type>
<stem>up</stem>
<notations>
<slur type="start" number="1"/>
</notations>
<lyric number="1">
<syllabic>single</syllabic>
<text>De</text>
</lyric>
<lyric number="2">
<syllabic>single</syllabic>
<text>Mon</text>
</lyric>
<lyric number="3">
<syllabic>begin</syllabic>
<text>A</text>
</lyric>
</note>
<backup>
<duration>32</duration>
</backup>
<note>
<pitch>
<step>D</step>
<octave>4</octave>
</pitch>
<duration>32</duration>
<voice>2</voice>
<type>whole</type>
<stem>down</stem>
</note>
</measure>
<measure number="15">
<note>
<pitch>
<step>F</step>
<octave>4</octave>
</pitch>
<duration>32</duration>
<voice>1</voice>
<type>whole</type>
<stem>up</stem>
<notations>
<slur type="continue" number="1"/>
</notations>
</note>
<backup>
<duration>32</duration>
</backup>
<note>
<pitch>
<step>C</step>
<octave>4</octave>
</pitch>
<duration>32</duration>
<voice>2</voice>
<type>whole</type>
<stem>down</stem>
</note>
</measure>
<measure number="16">
<note>
<pitch>
<step>F</step>
<octave>4</octave>
</pitch>
<duration>32</duration>
<voice>1</voice>
<type>whole</type>
<stem>up</stem>
<notations>
<slur type="continue" number="1"/>
</notations>
</note>
<backup>
<duration>32</duration>
</backup>
<note>
<pitch>
<step>B</step>
<alter>-1</alter>
<octave>3</octave>
</pitch>
<duration>32</duration>
<voice>2</voice>
<type>whole</type>
<stem>down</stem>
</note>
</measure>
<measure number="17">
<note>
<pitch>
<step>F</step>
<octave>4</octave>
</pitch>
<duration>8</duration>
<voice>1</voice>
<type>quarter</type>
<stem>up</stem>
<notations>
<slur type="stop" number="1"/>
</notations>
</note>
<backup>
<duration>8</duration>
</backup>
<note>
<pitch>
<step>B</step>
<alter>-1</alter>
<octave>3</octave>
</pitch>
<duration>8</duration>
<voice>2</voice>
<type>quarter</type>
<stem>down</stem>
</note>
</measure>
<measure number="18">
<barline location="left">
<bar-style>heavy-light</bar-style>
</barline>
<direction>
<direction-type>
<words relative-y="100">REFRAIN</words>
</direction-type>
</direction>
<note>
<pitch>
<step>F</step>
<octave>4</octave>
</pitch>
<duration>8</duration>
<voice>1</voice>
<type>quarter</type>
<stem>up</stem>
<lyric number="1">
<syllabic>single</syllabic>
<text>tout</text>
</lyric>
<lyric number="2">
<syllabic>single</syllabic>
<text>coeur</text>
</lyric>
<lyric number="3">
<syllabic>end</syllabic>
<text>lors</text>
</lyric>
</note>
<note>
<pitch>
<step>F</step>
<octave>4</octave>
</pitch>
<duration>8</duration>
<voice>1</voice>
<type>quarter</type>
<stem>up</stem>
<lyric number="1">
<syllabic>single</syllabic>
<text>mon</text>
</lyric>
<lyric number="2">
<syllabic>begin</syllabic>
<text>joy</text>
</lyric>
<lyric number="3">
<syllabic>single</syllabic>
<text>mon</text>
</lyric>
</note>
<note>
<pitch>
<step>B</step>
<alter>-1</alter>
<octave>4</octave>
</pitch>
<duration>8</duration>
<voice>1</voice>
<type>quarter</type>
<stem>up</stem>
<lyric number="1">
<syllabic>single</syllabic>
<text>être</text>
</lyric>
<lyric number="2">
<syllabic>end</syllabic>
<text>eux,</text>
</lyric>
<lyric number="3">
<syllabic>single</syllabic>
<text>coeur</text>
</lyric>
</note>
<backup>
<duration>24</duration>
</backup>
<note>
<pitch>
<step>F</step>
<octave>4</octave>
</pitch>
<duration>8</duration>
<voice>2</voice>
<type>quarter</type>
<stem>down</stem>
</note>
<note>
<pitch>
<step>F</step>
<octave>4</octave>
</pitch>
<duration>8</duration>
<voice>2</voice>
<type>quarter</type>
<stem>down</stem>
</note>
<note>
<pitch>
<step>F</step>
<octave>4</octave>
</pitch>
<duration>8</duration>
<voice>2</voice>
<type>quarter</type>
<stem>down</stem>
</note>
</measure>
<measure number="19">
<note>
<pitch>
<step>D</step>
<octave>5</octave>
</pitch>
<duration>24</duration>
<voice>1</voice>
<type>half</type>
<dot/>
<stem>up</stem>
<lyric number="1">
<syllabic>begin</syllabic>
<text>a</text>
</lyric>
<lyric number="2">
<syllabic>begin</syllabic>
<text>s'é</text>
</lyric>
<lyric number="3">
<syllabic>begin</syllabic>
<text>re</text>
</lyric>
</note>
<note>
<pitch>
<step>C</step>
<octave>5</octave>
</pitch>
<duration>8</duration>
<voice>1</voice>
<type>quarter</type>
<stem>up</stem>
<lyric number="1">
<syllabic>end</syllabic>
<text>lors</text>
</lyric>
<lyric number="2">
<syllabic>end</syllabic>
<text>crie</text>
</lyric>
<lyric number="3">
<syllabic>end</syllabic>
<text>dit,</text>
</lyric>
</note>
<backup>
<duration>32</duration>
</backup>
<note>
<pitch>
<step>F</step>
<octave>4</octave>
</pitch>
<duration>16</duration>
<voice>2</voice>
<type>half</type>
<stem>down</stem>
<notations>
<slur type="start" number="1"/>
</notations>
</note>
<note>
<pitch>
<step>F</step>
<alter>1</alter>
<octave>4</octave>
</pitch>
<duration>8</duration>
<voice>2</voice>
<type>quarter</type>
<accidental>sharp</accidental>
<stem>down</stem>
<notations>
<slur type="stop" number="1"/>
</notations>
</note>
<note>
<pitch>
<step>F</step>
<alter>1</alter>
<octave>4</octave>
</pitch>
<duration>8</duration>
<voice>2</voice>
<type>quarter</type>
<stem>down</stem>
</note>
</measure>
<measure number="20">
<note>
<pitch>
<step>B</step>
<alter>-1</alter>
<octave>4</octave>
</pitch>
<duration>8</duration>
<voice>1</voice>
<type>quarter</type>
<stem>up</stem>
<lyric number="1">
<syllabic>begin</syllabic>
<text>s'é</text>
</lyric>
<lyric number="2">
<syllabic>single</syllabic>
<text>à</text>
</lyric>
<lyric number="3">
<syllabic>single</syllabic>
<text>la</text>
</lyric>
</note>
<note>
<pitch>
<step>A</step>
<octave>4</octave>
</pitch>
<duration>8</duration>
<voice>1</voice>
<type>quarter</type>
<stem>up</stem>
<lyric number="1">
<syllabic>end</syllabic>
<text>lève</text>
</lyric>
<lyric number="2">
<syllabic>single</syllabic>
<text>chaque</text>
</lyric>
<lyric number="3">
<syllabic>single</syllabic>
<text>nuit,</text>
</lyric>
</note>
<note>
<pitch>
<step>B</step>
<alter>-1</alter>
<octave>4</octave>
</pitch>
<duration>12</duration>
<voice>1</voice>
<type>quarter</type>
<dot/>
<stem>up</stem>
<lyric number="1">
<syllabic>single</syllabic>
<text>un</text>
</lyric>
<lyric number="2">
<syllabic>begin</syllabic>
<text>ins</text>
</lyric>
<lyric number="3">
<syllabic>single</syllabic>
<text>le</text>
</lyric>
</note>
<note>
<pitch>
<step>G</step>
<octave>4</octave>
</pitch>
<duration>4</duration>
<voice>1</voice>
<type>eighth</type>
<stem>up</stem>
<lyric number="1">
<syllabic>single</syllabic>
<text>chant.</text>
</lyric>
<lyric number="2">
<syllabic>end</syllabic>
<text>tant:</text>
</lyric>
<lyric number="3">
<syllabic>single</syllabic>
<text>jour:</text>
</lyric>
</note>
<backup>
<duration>32</duration>
</backup>
<note>
<pitch>
<step>G</step>
<octave>4</octave>
</pitch>
<duration>8</duration>
<voice>2</voice>
<type>quarter</type>
<stem>down</stem>
</note>
<note>
<pitch>
<step>F</step>
<alter>1</alter>
<octave>4</octave>
</pitch>
<duration>8</duration>
<voice>2</voice>
<type>quarter</type>
<accidental>sharp</accidental>
<stem>down</stem>
</note>
<note>
<pitch>
<step>G</step>
<octave>4</octave>
</pitch>
<duration>12</duration>
<voice>2</voice>
<type>quarter</type>
<dot/>
<stem>down</stem>
</note>
<note>
<pitch>
<step>E</step>
<alter>-1</alter>
<octave>4</octave>
</pitch>
<duration>4</duration>
<voice>2</voice>
<type>eighth</type>
<stem>down</stem>
</note>
</measure>
<measure number="21">
<note>
<pitch>
<step>F</step>
<octave>4</octave>
</pitch>
<duration>16</duration>
<voice>1</voice>
<type>half</type>
<stem>up</stem>
<notations>
<slur type="start" number="1"/>
</notations>
<lyric number="1">
<syllabic>single</syllabic>
<text>"Dieu</text>
</lyric>
<lyric number="2">
<syllabic>single</syllabic>
<text>"O</text>
</lyric>
<lyric number="3">
<syllabic>single</syllabic>
<text>"Que</text>
</lyric>
</note>
<note>
<pitch>
<step>F</step>
<octave>4</octave>
</pitch>
<duration>16</duration>
<voice>1</voice>
<type>half</type>
<stem>up</stem>
<notations>
<slur type="continue" number="1"/>
</notations>
</note>
<backup>
<duration>32</duration>
</backup>
<note>
<pitch>
<step>D</step>
<octave>4</octave>
</pitch>
<duration>16</duration>
<voice>2</voice>
<type>half</type>
<stem>down</stem>
</note>
<note>
<pitch>
<step>E</step>
<alter>-1</alter>
<octave>4</octave>
</pitch>
<duration>16</duration>
<voice>2</voice>
<type>half</type>
<stem>down</stem>
</note>
</measure>
<measure number="22">
<note>
<pitch>
<step>F</step>
<octave>4</octave>
</pitch>
<duration>8</duration>
<voice>1</voice>
<type>quarter</type>
<stem>up</stem>
<notations>
<slur type="stop" number="1"/>
</notations>
</note>
<note>
<pitch>
<step>B</step>
<alter>-1</alter>
<octave>4</octave>
</pitch>
<duration>8</duration>
<voice>1</voice>
<type>quarter</type>
<stem>up</stem>
<lyric number="1">
<syllabic>begin</syllabic>
<text>tout</text>
</lyric>
<lyric number="2">
<syllabic>single</syllabic>
<text>Dieu</text>
</lyric>
<lyric number="3">
<syllabic>single</syllabic>
<text>Tu</text>
</lyric>
</note>
<note>
<pitch>
<step>B</step>
<alter>-1</alter>
<octave>4</octave>
</pitch>
<duration>8</duration>
<voice>1</voice>
<type>quarter</type>
<stem>up</stem>
<lyric number="1">
<syllabic>middle</syllabic>
<text>puis</text>
</lyric>
<lyric number="2">
<syllabic>begin</syllabic>
<text>d'a</text>
</lyric>
<lyric number="3">
<syllabic>single</syllabic>
<text>es</text>
</lyric>
</note>
<note>
<pitch>
<step>A</step>
<octave>4</octave>
</pitch>
<duration>8</duration>
<voice>1</voice>
<type>quarter</type>
<stem>up</stem>
<lyric number="1">
<syllabic>end</syllabic>
<text>sant</text>
</lyric>
<lyric number="2">
<syllabic>end</syllabic>
<text>mour,</text>
</lyric>
<lyric number="3">
<syllabic>single</syllabic>
<text>bon,</text>
</lyric>
</note>
<backup>
<duration>32</duration>
</backup>
<note>
<pitch>
<step>D</step>
<octave>4</octave>
</pitch>
<duration>8</duration>
<voice>2</voice>
<type>quarter</type>
<stem>down</stem>
</note>
<note>
<pitch>
<step>D</step>
<octave>4</octave>
</pitch>
<duration>8</duration>
<voice>2</voice>
<type>quarter</type>
<stem>down</stem>
</note>
<note>
<pitch>
<step>E</step>
<octave>4</octave>
</pitch>
<duration>8</duration>
<voice>2</voice>
<type>quarter</type>
<accidental>natural</accidental>
<stem>down</stem>
</note>
<note>
<pitch>
<step>E</step>
<octave>4</octave>
</pitch>
<duration>8</duration>
<voice>2</voice>
<type>quarter</type>
<stem>down</stem>
</note>
</measure>
<measure number="23">
<note>
<pitch>
<step>C</step>
<octave>4</octave>
</pitch>
<duration>16</duration>
<tie type="start"/>
<voice>1</voice>
<type>half</type>
<stem>up</stem>
<notations>
<tied type="start"/>
</notations>
<lyric number="1">
<syllabic>single</syllabic>
<text>que</text>
</lyric>
<lyric number="2">
<syllabic>single</syllabic>
<text>que</text>
</lyric>
<lyric number="3">
<syllabic>single</syllabic>
<text>ô</text>
</lyric>
</note>
<note>
<pitch>
<step>C</step>
<octave>4</octave>
</pitch>
<duration>16</duration>
<tie type="stop"/>
<voice>1</voice>
<type>half</type>
<stem>up</stem>
<notations>
<tied type="stop"/>
</notations>
</note>
<backup>
<duration>32</duration>
</backup>
<note>
<pitch>
<step>C</step>
<octave>4</octave>
</pitch>
<duration>16</duration>
<tie type="start"/>
<voice>2</voice>
<type>half</type>
<stem>down</stem>
<notations>
<tied type="start"/>
</notations>
</note>
<note>
<pitch>
<step>C</step>
<octave>4</octave>
</pitch>
<duration>16</duration>
<tie type="stop"/>
<voice>2</voice>
<type>half</type>
<stem>down</stem>
<notations>
<tied type="stop"/>
</notations>
</note>
</measure>
<measure number="24">
<note>
<pitch>
<step>C</step>
<octave>4</octave>
</pitch>
<duration>8</duration>
<tie type="stop"/>
<voice>1</voice>
<type>quarter</type>
<stem>up</stem>
<notations>
<tied type="stop"/>
</notations>
</note>
<note>
<pitch>
<step>E</step>
<alter>-1</alter>
<octave>4</octave>
</pitch>
<duration>8</duration>
<voice>1</voice>
<type>quarter</type>
<stem>up</stem>
<lyric number="1">
<syllabic>single</syllabic>
<text>tu</text>
</lyric>
<lyric number="2">
<syllabic>single</syllabic>
<text>Tu</text>
</lyric>
<lyric number="3">
<syllabic>single</syllabic>
<text>Dieu</text>
</lyric>
</note>
<note>
<pitch>
<step>G</step>
<octave>4</octave>
</pitch>
<duration>8</duration>
<voice>1</voice>
<type>quarter</type>
<stem>up</stem>
<lyric number="1">
<syllabic>single</syllabic>
<text>es</text>
</lyric>
<lyric number="2">
<syllabic>single</syllabic>
<text>es</text>
</lyric>
<lyric number="3">
<syllabic>begin</syllabic>
<text>d'a</text>
</lyric>
</note>
<note>
<pitch>
<step>F</step>
<octave>4</octave>
</pitch>
<duration>8</duration>
<voice>1</voice>
<type>quarter</type>
<stem>up</stem>
<lyric number="1">
<syllabic>single</syllabic>
<text>grand!"</text>
</lyric>
<lyric number="2">
<syllabic>single</syllabic>
<text>grand!"</text>
</lyric>
<lyric number="3">
<syllabic>end</syllabic>
<text>mour !"</text>
</lyric>
</note>
<backup>
<duration>32</duration>
</backup>
<note>
<pitch>
<step>C</step>
<octave>4</octave>
</pitch>
<duration>8</duration>
<tie type="stop"/>
<voice>2</voice>
<type>quarter</type>
<stem>down</stem>
<notations>
<tied type="stop"/>
</notations>
</note>
<note>
<pitch>
<step>C</step>
<octave>4</octave>
</pitch>
<duration>8</duration>
<voice>2</voice>
<type>quarter</type>
<stem>down</stem>
</note>
<note>
<pitch>
<step>E</step>
<alter>-1</alter>
<octave>4</octave>
</pitch>
<duration>8</duration>
<voice>2</voice>
<type>quarter</type>
<stem>down</stem>
</note>
<note>
<pitch>
<step>D</step>
<octave>4</octave>
</pitch>
<duration>8</duration>
<voice>2</voice>
<type>quarter</type>
<stem>down</stem>
</note>
</measure>
<measure number="25">
<note>
<pitch>
<step>D</step>
<octave>4</octave>
</pitch>
<duration>32</duration>
<tie type="start"/>
<voice>1</voice>
<type>whole</type>
<stem>up</stem>
<notations>
<tied type="start"/>
</notations>
<lyric number="1">
<syllabic>single</syllabic>
<text>De</text>
</lyric>
<lyric number="2">
<syllabic>single</syllabic>
<text>Mon</text>
</lyric>
<lyric number="3">
<syllabic>begin</syllabic>
<text>A</text>
</lyric>
</note>
<backup>
<duration>32</duration>
</backup>
<note>
<pitch>
<step>B</step>
<alter>-1</alter>
<octave>3</octave>
</pitch>
<duration>32</duration>
<tie type="start"/>
<voice>2</voice>
<type>whole</type>
<stem>down</stem>
<notations>
<tied type="start"/>
</notations>
</note>
</measure>
<measure number="26">
<note>
<pitch>
<step>D</step>
<octave>4</octave>
</pitch>
<duration>8</duration>
<tie type="stop"/>
<voice>1</voice>
<type>quarter</type>
<stem>up</stem>
<notations>
<tied type="stop"/>
</notations>
</note>
<note>
<pitch>
<step>F</step>
<octave>4</octave>
</pitch>
<duration>8</duration>
<voice>1</voice>
<type>quarter</type>
<stem>up</stem>
<lyric number="1">
<syllabic>single</syllabic>
<text>tout</text>
</lyric>
<lyric number="2">
<syllabic>single</syllabic>
<text>coeur</text>
</lyric>
<lyric number="3">
<syllabic>end</syllabic>
<text>lors</text>
</lyric>
</note>
<note>
<pitch>
<step>F</step>
<octave>4</octave>
</pitch>
<duration>8</duration>
<voice>1</voice>
<type>quarter</type>
<stem>up</stem>
<lyric number="1">
<syllabic>single</syllabic>
<text>mon</text>
</lyric>
<lyric number="2">
<syllabic>begin</syllabic>
<text>joy</text>
</lyric>
<lyric number="3">
<syllabic>single</syllabic>
<text>mon</text>
</lyric>
</note>
<note>
<pitch>
<step>B</step>
<alter>-1</alter>
<octave>4</octave>
</pitch>
<duration>8</duration>
<voice>1</voice>
<type>quarter</type>
<stem>up</stem>
<lyric number="1">
<syllabic>single</syllabic>
<text>être</text>
</lyric>
<lyric number="2">
<syllabic>end</syllabic>
<text>eux,</text>
</lyric>
<lyric number="3">
<syllabic>single</syllabic>
<text>coeur</text>
</lyric>
</note>
<backup>
<duration>32</duration>
</backup>
<note>
<pitch>
<step>B</step>
<alter>-1</alter>
<octave>3</octave>
</pitch>
<duration>8</duration>
<tie type="stop"/>
<voice>2</voice>
<type>quarter</type>
<stem>down</stem>
<notations>
<tied type="stop"/>
</notations>
</note>
<note>
<pitch>
<step>F</step>
<octave>4</octave>
</pitch>
<duration>8</duration>
<voice>2</voice>
<type>quarter</type>
<stem>down</stem>
</note>
<note>
<pitch>
<step>F</step>
<octave>4</octave>
</pitch>
<duration>8</duration>
<voice>2</voice>
<type>quarter</type>
<stem>down</stem>
</note>
<note>
<pitch>
<step>F</step>
<octave>4</octave>
</pitch>
<duration>8</duration>
<voice>2</voice>
<type>quarter</type>
<stem>down</stem>
</note>
</measure>
<measure number="27">
<note>
<pitch>
<step>D</step>
<octave>5</octave>
</pitch>
<duration>24</duration>
<voice>1</voice>
<type>half</type>
<dot/>
<stem>up</stem>
<lyric number="1">
<syllabic>begin</syllabic>
<text>a</text>
</lyric>
<lyric number="2">
<syllabic>begin</syllabic>
<text>s'é</text>
</lyric>
<lyric number="3">
<syllabic>begin</syllabic>
<text>re</text>
</lyric>
</note>
<note>
<pitch>
<step>C</step>
<octave>5</octave>
</pitch>
<duration>8</duration>
<voice>1</voice>
<type>quarter</type>
<stem>up</stem>
<lyric number="1">
<syllabic>end</syllabic>
<text>lors</text>
</lyric>
<lyric number="2">
<syllabic>end</syllabic>
<text>crie</text>
</lyric>
<lyric number="3">
<syllabic>end</syllabic>
<text>dit,</text>
</lyric>
</note>
<backup>
<duration>32</duration>
</backup>
<note>
<pitch>
<step>F</step>
<octave>4</octave>
</pitch>
<duration>16</duration>
<voice>2</voice>
<type>half</type>
<stem>down</stem>
<notations>
<slur type="start" number="1"/>
</notations>
</note>
<note>
<pitch>
<step>F</step>
<alter>1</alter>
<octave>4</octave>
</pitch>
<duration>8</duration>
<voice>2</voice>
<type>quarter</type>
<accidental>sharp</accidental>
<stem>down</stem>
<notations>
<slur type="stop" number="1"/>
</notations>
</note>
<note>
<pitch>
<step>F</step>
<alter>1</alter>
<octave>4</octave>
</pitch>
<duration>8</duration>
<voice>2</voice>
<type>quarter</type>
<stem>down</stem>
</note>
</measure>
<measure number="28">
<note>
<pitch>
<step>B</step>
<alter>-1</alter>
<octave>4</octave>
</pitch>
<duration>8</duration>
<voice>1</voice>
<type>quarter</type>
<stem>up</stem>
<lyric number="1">
<syllabic>begin</syllabic>
<text>s'é</text>
</lyric>
<lyric number="2">
<syllabic>single</syllabic>
<text>à</text>
</lyric>
<lyric number="3">
<syllabic>single</syllabic>
<text>la</text>
</lyric>
</note>
<note>
<pitch>
<step>A</step>
<octave>4</octave>
</pitch>
<duration>8</duration>
<voice>1</voice>
<type>quarter</type>
<stem>up</stem>
<lyric number="1">
<syllabic>end</syllabic>
<text>lève</text>
</lyric>
<lyric number="2">
<syllabic>single</syllabic>
<text>chaque</text>
</lyric>
<lyric number="3">
<syllabic>single</syllabic>
<text>nuit,</text>
</lyric>
</note>
<note>
<pitch>
<step>B</step>
<alter>-1</alter>
<octave>4</octave>
</pitch>
<duration>8</duration>
<voice>1</voice>
<type>quarter</type>
<stem>up</stem>
<lyric number="1">
<syllabic>single</syllabic>
<text>un</text>
</lyric>
<lyric number="2">
<syllabic>begin</syllabic>
<text>ins</text>
</lyric>
<lyric number="3">
<syllabic>single</syllabic>
<text>le</text>
</lyric>
</note>
<note>
<pitch>
<step>G</step>
<octave>4</octave>
</pitch>
<duration>8</duration>
<voice>1</voice>
<type>quarter</type>
<stem>up</stem>
<lyric number="1">
<syllabic>single</syllabic>
<text>chant.</text>
</lyric>
<lyric number="2">
<syllabic>end</syllabic>
<text>tant:</text>
</lyric>
<lyric number="3">
<syllabic>single</syllabic>
<text>jour:</text>
</lyric>
</note>
<backup>
<duration>32</duration>
</backup>
<note>
<pitch>
<step>G</step>
<octave>4</octave>
</pitch>
<duration>8</duration>
<voice>2</voice>
<type>quarter</type>
<stem>down</stem>
</note>
<note>
<pitch>
<step>F</step>
<alter>1</alter>
<octave>4</octave>
</pitch>
<duration>8</duration>
<voice>2</voice>
<type>quarter</type>
<accidental>sharp</accidental>
<stem>down</stem>
</note>
<note>
<pitch>
<step>G</step>
<octave>4</octave>
</pitch>
<duration>8</duration>
<voice>2</voice>
<type>quarter</type>
<stem>down</stem>
</note>
<note>
<pitch>
<step>C</step>
<alter>1</alter>
<octave>4</octave>
</pitch>
<duration>8</duration>
<voice>2</voice>
<type>quarter</type>
<accidental>sharp</accidental>
<stem>down</stem>
</note>
</measure>
<measure number="29">
<note>
<pitch>
<step>F</step>
<octave>4</octave>
</pitch>
<duration>16</duration>
<voice>1</voice>
<type>half</type>
<stem>up</stem>
<notations>
<slur type="start" number="1"/>
</notations>
<lyric number="1">
<syllabic>single</syllabic>
<text>"Dieu</text>
</lyric>
<lyric number="2">
<syllabic>single</syllabic>
<text>"O</text>
</lyric>
<lyric number="3">
<syllabic>single</syllabic>
<text>"Que</text>
</lyric>
</note>
<note>
<pitch>
<step>F</step>
<octave>4</octave>
</pitch>
<duration>16</duration>
<voice>1</voice>
<type>half</type>
<stem>up</stem>
<notations>
<slur type="continue" number="1"/>
</notations>
</note>
<backup>
<duration>32</duration>
</backup>
<note>
<pitch>
<step>D</step>
<octave>4</octave>
</pitch>
<duration>16</duration>
<voice>2</voice>
<type>half</type>
<stem>down</stem>
</note>
<note>
<pitch>
<step>E</step>
<alter>-1</alter>
<octave>4</octave>
</pitch>
<duration>16</duration>
<voice>2</voice>
<type>half</type>
<stem>down</stem>
</note>
</measure>
<measure number="30">
<note>
<pitch>
<step>F</step>
<octave>4</octave>
</pitch>
<duration>8</duration>
<voice>1</voice>
<type>quarter</type>
<stem>up</stem>
<notations>
<slur type="stop" number="1"/>
</notations>
</note>
<note>
<pitch>
<step>B</step>
<alter>-1</alter>
<octave>4</octave>
</pitch>
<duration>8</duration>
<voice>1</voice>
<type>quarter</type>
<stem>up</stem>
<lyric number="1">
<syllabic>begin</syllabic>
<text>tout</text>
</lyric>
<lyric number="2">
<syllabic>single</syllabic>
<text>Dieu</text>
</lyric>
<lyric number="3">
<syllabic>single</syllabic>
<text>Tu</text>
</lyric>
</note>
<note>
<pitch>
<step>A</step>
<octave>4</octave>
</pitch>
<duration>8</duration>
<voice>1</voice>
<type>quarter</type>
<stem>up</stem>
<lyric number="1">
<syllabic>middle</syllabic>
<text>puis</text>
</lyric>
<lyric number="2">
<syllabic>begin</syllabic>
<text>d'a</text>
</lyric>
<lyric number="3">
<syllabic>single</syllabic>
<text>es</text>
</lyric>
</note>
<note>
<pitch>
<step>B</step>
<alter>-1</alter>
<octave>4</octave>
</pitch>
<duration>8</duration>
<voice>1</voice>
<type>quarter</type>
<stem>up</stem>
<lyric number="1">
<syllabic>end</syllabic>
<text>sant</text>
</lyric>
<lyric number="2">
<syllabic>end</syllabic>
<text>mour,</text>
</lyric>
<lyric number="3">
<syllabic>single</syllabic>
<text>bon,</text>
</lyric>
</note>
<backup>
<duration>32</duration>
</backup>
<note>
<pitch>
<step>D</step>
<octave>4</octave>
</pitch>
<duration>8</duration>
<voice>2</voice>
<type>quarter</type>
<stem>down</stem>
</note>
<note>
<pitch>
<step>D</step>
<octave>4</octave>
</pitch>
<duration>8</duration>
<voice>2</voice>
<type>quarter</type>
<stem>down</stem>
</note>
<note>
<pitch>
<step>E</step>
<alter>-1</alter>
<octave>4</octave>
</pitch>
<duration>8</duration>
<voice>2</voice>
<type>quarter</type>
<stem>down</stem>
</note>
<note>
<pitch>
<step>F</step>
<octave>4</octave>
</pitch>
<duration>8</duration>
<voice>2</voice>
<type>quarter</type>
<stem>down</stem>
</note>
</measure>
<measure number="31">
<note>
<pitch>
<step>C</step>
<octave>5</octave>
</pitch>
<duration>32</duration>
<voice>1</voice>
<type>whole</type>
<stem>up</stem>
<notations>
<slur type="start" number="1"/>
</notations>
<lyric number="1">
<syllabic>single</syllabic>
<text>que</text>
</lyric>
<lyric number="2">
<syllabic>single</syllabic>
<text>que</text>
</lyric>
<lyric number="3">
<syllabic>single</syllabic>
<text>ô</text>
</lyric>
</note>
<backup>
<duration>32</duration>
</backup>
<note>
<pitch>
<step>G</step>
<octave>4</octave>
</pitch>
<duration>32</duration>
<voice>2</voice>
<type>whole</type>
<stem>down</stem>
</note>
</measure>
<measure number="32">
<note>
<pitch>
<step>C</step>
<octave>5</octave>
</pitch>
<duration>8</duration>
<voice>1</voice>
<type>quarter</type>
<stem>up</stem>
<notations>
<slur type="stop" number="1"/>
</notations>
</note>
<note>
<pitch>
<step>D</step>
<octave>5</octave>
</pitch>
<duration>8</duration>
<voice>1</voice>
<type>quarter</type>
<stem>up</stem>
<lyric number="1">
<syllabic>single</syllabic>
<text>tu</text>
</lyric>
<lyric number="2">
<syllabic>single</syllabic>
<text>Tu</text>
</lyric>
<lyric number="3">
<syllabic>single</syllabic>
<text>Dieu</text>
</lyric>
</note>
<note>
<pitch>
<step>E</step>
<alter>-1</alter>
<octave>5</octave>
</pitch>
<duration>8</duration>
<voice>1</voice>
<type>quarter</type>
<stem>up</stem>
<lyric number="1">
<syllabic>single</syllabic>
<text>es</text>
</lyric>
<lyric number="2">
<syllabic>single</syllabic>
<text>es</text>
</lyric>
<lyric number="3">
<syllabic>begin</syllabic>
<text>d'a</text>
</lyric>
</note>
<note>
<pitch>
<step>A</step>
<octave>4</octave>
</pitch>
<duration>8</duration>
<voice>1</voice>
<type>quarter</type>
<stem>up</stem>
<lyric number="1">
<syllabic>single</syllabic>
<text>grand!"</text>
</lyric>
<lyric number="2">
<syllabic>single</syllabic>
<text>grand!"</text>
</lyric>
<lyric number="3">
<syllabic>end</syllabic>
<text>mour !"</text>
</lyric>
</note>
<backup>
<duration>32</duration>
</backup>
<note>
<pitch>
<step>F</step>
<octave>4</octave>
</pitch>
<duration>8</duration>
<voice>2</voice>
<type>quarter</type>
<stem>down</stem>
</note>
<note>
<pitch>
<step>F</step>
<octave>4</octave>
</pitch>
<duration>8</duration>
<voice>2</voice>
<type>quarter</type>
<stem>down</stem>
</note>
<note>
<pitch>
<step>G</step>
<octave>4</octave>
</pitch>
<duration>8</duration>
<voice>2</voice>
<type>quarter</type>
<stem>down</stem>
</note>
<note>
<pitch>
<step>E</step>
<alter>-1</alter>
<octave>4</octave>
</pitch>
<duration>8</duration>
<voice>2</voice>
<type>quarter</type>
<stem>down</stem>
</note>
</measure>
<measure number="33">
<note>
<pitch>
<step>B</step>
<alter>-1</alter>
<octave>4</octave>
</pitch>
<duration>32</duration>
<tie type="start"/>
<voice>1</voice>
<type>whole</type>
<stem>up</stem>
<notations>
<tied type="start"/>
</notations>
</note>
<backup>
<duration>32</duration>
</backup>
<note>
<pitch>
<step>F</step>
<octave>4</octave>
</pitch>
<duration>32</duration>
<tie type="start"/>
<voice>2</voice>
<type>whole</type>
<stem>down</stem>
<notations>
<tied type="start"/>
</notations>
</note>
</measure>
<measure number="34">
<note>
<pitch>
<step>B</step>
<alter>-1</alter>
<octave>4</octave>
</pitch>
<duration>8</duration>
<tie type="stop"/>
<voice>1</voice>
<type>quarter</type>
<stem>up</stem>
<notations>
<tied type="stop"/>
</notations>
</note>
<backup>
<duration>8</duration>
</backup>
<note>
<pitch>
<step>F</step>
<octave>4</octave>
</pitch>
<duration>8</duration>
<tie type="stop"/>
<voice>2</voice>
<type>quarter</type>
<stem>down</stem>
<notations>
<tied type="stop"/>
</notations>
</note>
<barline location="right">
<bar-style>light-heavy</bar-style>
<repeat direction="backward" times="3"/>
</barline>
<barline location="right">
<bar-style>light-heavy</bar-style>
</barline>
</measure>
</part>
<part id="P3">
<measure number="1">
<attributes>
<divisions>8</divisions>
</attributes>
<attributes>
<clef>
<sign>F</sign>
<line>4</line>
</clef>
</attributes>
<attributes>
<key>
<fifths>-2</fifths>
</key>
</attributes>
<attributes>
<time>
<beats>4</beats>
<beat-type>4</beat-type>
</time>
</attributes>
<note>
<rest/>
<duration>8</duration>
<voice>1</voice>
<type>quarter</type>
</note>
<note>
<pitch>
<step>F</step>
<octave>3</octave>
</pitch>
<duration>24</duration>
<voice>1</voice>
<type>half</type>
<dot/>
<stem>up</stem>
</note>
<backup>
<duration>32</duration>
</backup>
<forward>
<duration>8</duration>
<voice>2</voice>
</forward>
<note>
<pitch>
<step>F</step>
<octave>3</octave>
</pitch>
<duration>24</duration>
<voice>2</voice>
<type>half</type>
<dot/>
<stem>down</stem>
</note>
</measure>
<measure number="2">
<note>
<pitch>
<step>B</step>
<alter>-1</alter>
<octave>3</octave>
</pitch>
<duration>32</duration>
<voice>1</voice>
<type>whole</type>
<stem>up</stem>
<notations>
<slur type="start" number="1"/>
</notations>
</note>
<backup>
<duration>32</duration>
</backup>
<note>
<pitch>
<step>B</step>
<alter>-1</alter>
<octave>2</octave>
</pitch>
<duration>32</duration>
<voice>2</voice>
<type>whole</type>
<stem>down</stem>
</note>
</measure>
<measure number="3">
<note>
<pitch>
<step>B</step>
<alter>-1</alter>
<octave>3</octave>
</pitch>
<duration>16</duration>
<voice>1</voice>
<type>half</type>
<stem>up</stem>
<notations>
<slur type="continue" number="1"/>
</notations>
</note>
<note>
<pitch>
<step>B</step>
<alter>-1</alter>
<octave>3</octave>
</pitch>
<duration>16</duration>
<voice>1</voice>
<type>half</type>
<stem>up</stem>
<notations>
<slur type="continue" number="1"/>
</notations>
</note>
<backup>
<duration>32</duration>
</backup>
<note>
<pitch>
<step>B</step>
<alter>-1</alter>
<octave>2</octave>
</pitch>
<duration>16</duration>
<voice>2</voice>
<type>half</type>
<stem>down</stem>
</note>
<note>
<pitch>
<step>B</step>
<alter>-1</alter>
<octave>2</octave>
</pitch>
<duration>16</duration>
<voice>2</voice>
<type>half</type>
<stem>down</stem>
</note>
</measure>
<measure number="4">
<note>
<pitch>
<step>B</step>
<alter>-1</alter>
<octave>3</octave>
</pitch>
<duration>32</duration>
<voice>1</voice>
<type>whole</type>
<stem>up</stem>
<notations>
<slur type="continue" number="1"/>
</notations>
</note>
<backup>
<duration>32</duration>
</backup>
<note>
<pitch>
<step>B</step>
<alter>-1</alter>
<octave>2</octave>
</pitch>
<duration>32</duration>
<voice>2</voice>
<type>whole</type>
<stem>down</stem>
</note>
</measure>
<measure number="5">
<note>
<pitch>
<step>B</step>
<alter>-1</alter>
<octave>3</octave>
</pitch>
<duration>32</duration>
<voice>1</voice>
<type>whole</type>
<stem>up</stem>
<notations>
<slur type="stop" number="1"/>
</notations>
</note>
<backup>
<duration>32</duration>
</backup>
<note>
<pitch>
<step>B</step>
<alter>-1</alter>
<octave>2</octave>
</pitch>
<duration>32</duration>
<voice>2</voice>
<type>whole</type>
<stem>down</stem>
</note>
</measure>
<measure number="6">
<note>
<pitch>
<step>B</step>
<alter>-1</alter>
<octave>3</octave>
</pitch>
<duration>32</duration>
<voice>1</voice>
<type>whole</type>
<stem>up</stem>
<notations>
<slur type="start" number="1"/>
</notations>
</note>
<backup>
<duration>32</duration>
</backup>
<note>
<pitch>
<step>B</step>
<alter>-1</alter>
<octave>2</octave>
</pitch>
<duration>32</duration>
<voice>2</voice>
<type>whole</type>
<stem>down</stem>
</note>
</measure>
<measure number="7">
<note>
<pitch>
<step>F</step>
<octave>3</octave>
</pitch>
<duration>32</duration>
<voice>1</voice>
<type>whole</type>
<stem>up</stem>
<notations>
<slur type="continue" number="1"/>
</notations>
</note>
<backup>
<duration>32</duration>
</backup>
<note>
<pitch>
<step>A</step>
<octave>2</octave>
</pitch>
<duration>32</duration>
<voice>2</voice>
<type>whole</type>
<stem>down</stem>
</note>
</measure>
<measure number="8">
<note>
<pitch>
<step>B</step>
<alter>-1</alter>
<octave>3</octave>
</pitch>
<duration>32</duration>
<voice>1</voice>
<type>whole</type>
<stem>up</stem>
<notations>
<slur type="continue" number="1"/>
</notations>
</note>
<backup>
<duration>32</duration>
</backup>
<note>
<pitch>
<step>B</step>
<alter>-1</alter>
<octave>2</octave>
</pitch>
<duration>32</duration>
<voice>2</voice>
<type>whole</type>
<stem>down</stem>
</note>
</measure>
<measure number="9">
<note>
<pitch>
<step>B</step>
<alter>-1</alter>
<octave>3</octave>
</pitch>
<duration>16</duration>
<voice>1</voice>
<type>half</type>
<stem>up</stem>
<notations>
<slur type="stop" number="1"/>
</notations>
</note>
<note>
<pitch>
<step>F</step>
<octave>3</octave>
</pitch>
<duration>16</duration>
<voice>1</voice>
<type>half</type>
<stem>up</stem>
<notations>
<slur type="start" number="2"/>
</notations>
</note>
<backup>
<duration>32</duration>
</backup>
<note>
<pitch>
<step>B</step>
<alter>-1</alter>
<octave>2</octave>
</pitch>
<duration>16</duration>
<voice>2</voice>
<type>half</type>
<stem>down</stem>
</note>
<note>
<pitch>
<step>C</step>
<octave>3</octave>
</pitch>
<duration>16</duration>
<voice>2</voice>
<type>half</type>
<stem>down</stem>
</note>
</measure>
<measure number="10">
<note>
<pitch>
<step>F</step>
<octave>3</octave>
</pitch>
<duration>32</duration>
<voice>1</voice>
<type>whole</type>
<stem>up</stem>
<notations>
<slur type="continue" number="1"/>
</notations>
</note>
<backup>
<duration>32</duration>
</backup>
<note>
<pitch>
<step>D</step>
<octave>3</octave>
</pitch>
<duration>32</duration>
<voice>2</voice>
<type>whole</type>
<stem>down</stem>
</note>
</measure>
<measure number="11">
<note>
<pitch>
<step>A</step>
<alter>-1</alter>
<octave>3</octave>
</pitch>
<duration>8</duration>
<voice>1</voice>
<type>quarter</type>
<accidental>flat</accidental>
<stem>up</stem>
<notations>
<slur type="continue" number="1"/>
</notations>
</note>
<note>
<pitch>
<step>B</step>
<alter>-1</alter>
<octave>3</octave>
</pitch>
<duration>8</duration>
<voice>1</voice>
<type>quarter</type>
<stem>up</stem>
<notations>
<slur type="continue" number="1"/>
</notations>
</note>
<note>
<pitch>
<step>B</step>
<alter>-1</alter>
<octave>3</octave>
</pitch>
<duration>16</duration>
<voice>1</voice>
<type>half</type>
<stem>up</stem>
<notations>
<slur type="continue" number="1"/>
</notations>
</note>
<backup>
<duration>32</duration>
</backup>
<note>
<pitch>
<step>B</step>
<alter>-1</alter>
<octave>2</octave>
</pitch>
<duration>32</duration>
<voice>2</voice>
<type>whole</type>
<stem>down</stem>
</note>
</measure>
<measure number="12">
<note>
<pitch>
<step>B</step>
<alter>-1</alter>
<octave>3</octave>
</pitch>
<duration>32</duration>
<voice>1</voice>
<type>whole</type>
<stem>up</stem>
<notations>
<slur type="continue" number="1"/>
</notations>
</note>
<backup>
<duration>32</duration>
</backup>
<note>
<pitch>
<step>B</step>
<alter>-1</alter>
<octave>2</octave>
</pitch>
<duration>32</duration>
<voice>2</voice>
<type>whole</type>
<stem>down</stem>
</note>
</measure>
<measure number="13">
<note>
<pitch>
<step>B</step>
<alter>-1</alter>
<octave>3</octave>
</pitch>
<duration>32</duration>
<voice>1</voice>
<type>whole</type>
<stem>up</stem>
<notations>
<slur type="stop" number="1"/>
</notations>
</note>
<backup>
<duration>32</duration>
</backup>
<note>
<pitch>
<step>B</step>
<alter>-1</alter>
<octave>2</octave>
</pitch>
<duration>32</duration>
<voice>2</voice>
<type>whole</type>
<stem>down</stem>
</note>
</measure>
<measure number="14">
<note>
<pitch>
<step>B</step>
<alter>-1</alter>
<octave>3</octave>
</pitch>
<duration>32</duration>
<voice>1</voice>
<type>whole</type>
<stem>up</stem>
<notations>
<slur type="start" number="1"/>
</notations>
</note>
<backup>
<duration>32</duration>
</backup>
<note>
<pitch>
<step>B</step>
<alter>-1</alter>
<octave>2</octave>
</pitch>
<duration>32</duration>
<voice>2</voice>
<type>whole</type>
<stem>down</stem>
</note>
</measure>
<measure number="15">
<note>
<pitch>
<step>F</step>
<octave>3</octave>
</pitch>
<duration>32</duration>
<voice>1</voice>
<type>whole</type>
<stem>up</stem>
<notations>
<slur type="continue" number="1"/>
</notations>
</note>
<backup>
<duration>32</duration>
</backup>
<note>
<pitch>
<step>A</step>
<octave>2</octave>
</pitch>
<duration>32</duration>
<voice>2</voice>
<type>whole</type>
<stem>down</stem>
</note>
</measure>
<measure number="16">
<note>
<pitch>
<step>F</step>
<octave>3</octave>
</pitch>
<duration>32</duration>
<voice>1</voice>
<type>whole</type>
<stem>up</stem>
<notations>
<slur type="continue" number="1"/>
</notations>
</note>
<backup>
<duration>32</duration>
</backup>
<note>
<pitch>
<step>B</step>
<alter>-1</alter>
<octave>2</octave>
</pitch>
<duration>32</duration>
<voice>2</voice>
<type>whole</type>
<stem>down</stem>
</note>
</measure>
<measure number="17">
<note>
<pitch>
<step>F</step>
<octave>3</octave>
</pitch>
<duration>8</duration>
<voice>1</voice>
<type>quarter</type>
<stem>up</stem>
<notations>
<slur type="stop" number="1"/>
</notations>
</note>
<backup>
<duration>8</duration>
</backup>
<note>
<pitch>
<step>B</step>
<alter>-1</alter>
<octave>2</octave>
</pitch>
<duration>8</duration>
<voice>2</voice>
<type>quarter</type>
<stem>down</stem>
</note>
</measure>
<measure number="18">
<barline location="left">
<bar-style>heavy-light</bar-style>
</barline>
<note>
<pitch>
<step>F</step>
<octave>3</octave>
</pitch>
<duration>8</duration>
<voice>1</voice>
<type>quarter</type>
<stem>up</stem>
</note>
<note>
<pitch>
<step>F</step>
<octave>3</octave>
</pitch>
<duration>8</duration>
<voice>1</voice>
<type>quarter</type>
<stem>up</stem>
</note>
<note>
<pitch>
<step>F</step>
<octave>3</octave>
</pitch>
<duration>8</duration>
<voice>1</voice>
<type>quarter</type>
<stem>up</stem>
</note>
<backup>
<duration>24</duration>
</backup>
<note>
<pitch>
<step>F</step>
<octave>3</octave>
</pitch>
<duration>8</duration>
<voice>2</voice>
<type>quarter</type>
<stem>down</stem>
</note>
<note>
<pitch>
<step>F</step>
<octave>3</octave>
</pitch>
<duration>8</duration>
<voice>2</voice>
<type>quarter</type>
<stem>down</stem>
</note>
<note>
<pitch>
<step>F</step>
<octave>3</octave>
</pitch>
<duration>8</duration>
<voice>2</voice>
<type>quarter</type>
<stem>down</stem>
</note>
</measure>
<measure number="19">
<note>
<pitch>
<step>B</step>
<alter>-1</alter>
<octave>3</octave>
</pitch>
<duration>24</duration>
<voice>1</voice>
<type>half</type>
<dot/>
<stem>up</stem>
</note>
<note>
<pitch>
<step>B</step>
<alter>-1</alter>
<octave>3</octave>
</pitch>
<duration>8</duration>
<voice>1</voice>
<type>quarter</type>
<stem>up</stem>
</note>
<backup>
<duration>32</duration>
</backup>
<note>
<pitch>
<step>B</step>
<alter>-1</alter>
<octave>2</octave>
</pitch>
<duration>24</duration>
<voice>2</voice>
<type>half</type>
<dot/>
<stem>down</stem>
</note>
<note>
<pitch>
<step>B</step>
<alter>-1</alter>
<octave>2</octave>
</pitch>
<duration>8</duration>
<voice>2</voice>
<type>quarter</type>
<stem>down</stem>
</note>
</measure>
<measure number="20">
<note>
<pitch>
<step>B</step>
<alter>-1</alter>
<octave>3</octave>
</pitch>
<duration>8</duration>
<voice>1</voice>
<type>quarter</type>
<stem>up</stem>
</note>
<note>
<pitch>
<step>C</step>
<octave>4</octave>
</pitch>
<duration>8</duration>
<voice>1</voice>
<type>quarter</type>
<stem>up</stem>
</note>
<note>
<pitch>
<step>B</step>
<alter>-1</alter>
<octave>3</octave>
</pitch>
<duration>12</duration>
<voice>1</voice>
<type>quarter</type>
<dot/>
<stem>up</stem>
</note>
<note>
<pitch>
<step>B</step>
<alter>-1</alter>
<octave>3</octave>
</pitch>
<duration>4</duration>
<voice>1</voice>
<type>eighth</type>
<stem>up</stem>
</note>
<backup>
<duration>32</duration>
</backup>
<note>
<pitch>
<step>E</step>
<alter>-1</alter>
<octave>3</octave>
</pitch>
<duration>8</duration>
<voice>2</voice>
<type>quarter</type>
<stem>down</stem>
</note>
<note>
<pitch>
<step>E</step>
<alter>-1</alter>
<octave>3</octave>
</pitch>
<duration>8</duration>
<voice>2</voice>
<type>quarter</type>
<stem>down</stem>
</note>
<note>
<pitch>
<step>E</step>
<alter>-1</alter>
<octave>3</octave>
</pitch>
<duration>12</duration>
<voice>2</voice>
<type>quarter</type>
<dot/>
<stem>down</stem>
</note>
<note>
<pitch>
<step>E</step>
<alter>-1</alter>
<octave>3</octave>
</pitch>
<duration>4</duration>
<voice>2</voice>
<type>eighth</type>
<stem>down</stem>
</note>
</measure>
<measure number="21">
<note>
<pitch>
<step>B</step>
<alter>-1</alter>
<octave>3</octave>
</pitch>
<duration>16</duration>
<voice>1</voice>
<type>half</type>
<stem>up</stem>
<notations>
<slur type="start" number="1"/>
</notations>
</note>
<note>
<pitch>
<step>C</step>
<octave>4</octave>
</pitch>
<duration>16</duration>
<voice>1</voice>
<type>half</type>
<stem>up</stem>
<notations>
<slur type="continue" number="1"/>
</notations>
</note>
<backup>
<duration>32</duration>
</backup>
<note>
<pitch>
<step>B</step>
<alter>-1</alter>
<octave>2</octave>
</pitch>
<duration>16</duration>
<voice>2</voice>
<type>half</type>
<stem>down</stem>
</note>
<note>
<pitch>
<step>B</step>
<alter>-1</alter>
<octave>2</octave>
</pitch>
<duration>16</duration>
<voice>2</voice>
<type>half</type>
<stem>down</stem>
</note>
</measure>
<measure number="22">
<note>
<pitch>
<step>B</step>
<alter>-1</alter>
<octave>3</octave>
</pitch>
<duration>8</duration>
<voice>1</voice>
<type>quarter</type>
<stem>up</stem>
<notations>
<slur type="stop" number="1"/>
</notations>
</note>
<note>
<pitch>
<step>F</step>
<octave>3</octave>
</pitch>
<duration>8</duration>
<voice>1</voice>
<type>quarter</type>
<stem>up</stem>
</note>
<note>
<pitch>
<step>G</step>
<octave>3</octave>
</pitch>
<duration>8</duration>
<voice>1</voice>
<type>quarter</type>
<stem>up</stem>
</note>
<note>
<pitch>
<step>A</step>
<octave>3</octave>
</pitch>
<duration>8</duration>
<voice>1</voice>
<type>quarter</type>
<stem>up</stem>
</note>
<backup>
<duration>32</duration>
</backup>
<note>
<pitch>
<step>B</step>
<alter>-1</alter>
<octave>2</octave>
</pitch>
<duration>8</duration>
<voice>2</voice>
<type>quarter</type>
<stem>down</stem>
</note>
<note>
<pitch>
<step>B</step>
<alter>-1</alter>
<octave>2</octave>
</pitch>
<duration>8</duration>
<voice>2</voice>
<type>quarter</type>
<stem>down</stem>
</note>
<note>
<pitch>
<step>C</step>
<alter>1</alter>
<octave>3</octave>
</pitch>
<duration>8</duration>
<voice>2</voice>
<type>quarter</type>
<accidental>sharp</accidental>
<stem>down</stem>
</note>
<note>
<pitch>
<step>C</step>
<alter>1</alter>
<octave>3</octave>
</pitch>
<duration>8</duration>
<voice>2</voice>
<type>quarter</type>
<stem>down</stem>
</note>
</measure>
<measure number="23">
<note>
<pitch>
<step>B</step>
<alter>-1</alter>
<octave>3</octave>
</pitch>
<duration>16</duration>
<voice>1</voice>
<type>half</type>
<stem>up</stem>
<notations>
<slur type="start" number="1"/>
</notations>
</note>
<note>
<pitch>
<step>G</step>
<octave>3</octave>
</pitch>
<duration>16</duration>
<voice>1</voice>
<type>half</type>
<stem>up</stem>
<notations>
<slur type="continue" number="1"/>
</notations>
</note>
<backup>
<duration>32</duration>
</backup>
<note>
<pitch>
<step>C</step>
<octave>3</octave>
</pitch>
<duration>16</duration>
<voice>2</voice>
<type>half</type>
<stem>down</stem>
</note>
<note>
<pitch>
<step>E</step>
<alter>-1</alter>
<octave>3</octave>
</pitch>
<duration>16</duration>
<voice>2</voice>
<type>half</type>
<stem>down</stem>
</note>
</measure>
<measure number="24">
<note>
<pitch>
<step>A</step>
<octave>3</octave>
</pitch>
<duration>8</duration>
<voice>1</voice>
<type>quarter</type>
<stem>up</stem>
<notations>
<slur type="stop" number="1"/>
</notations>
</note>
<note>
<pitch>
<step>A</step>
<octave>3</octave>
</pitch>
<duration>8</duration>
<voice>1</voice>
<type>quarter</type>
<stem>up</stem>
</note>
<note>
<pitch>
<step>A</step>
<octave>3</octave>
</pitch>
<duration>8</duration>
<voice>1</voice>
<type>quarter</type>
<stem>up</stem>
</note>
<note>
<pitch>
<step>A</step>
<octave>3</octave>
</pitch>
<duration>8</duration>
<voice>1</voice>
<type>quarter</type>
<stem>up</stem>
</note>
<backup>
<duration>32</duration>
</backup>
<note>
<pitch>
<step>F</step>
<octave>3</octave>
</pitch>
<duration>8</duration>
<voice>2</voice>
<type>quarter</type>
<stem>down</stem>
</note>
<note>
<pitch>
<step>F</step>
<octave>3</octave>
</pitch>
<duration>8</duration>
<voice>2</voice>
<type>quarter</type>
<stem>down</stem>
</note>
<note>
<pitch>
<step>F</step>
<octave>3</octave>
</pitch>
<duration>8</duration>
<voice>2</voice>
<type>quarter</type>
<stem>down</stem>
</note>
<note>
<pitch>
<step>F</step>
<octave>3</octave>
</pitch>
<duration>8</duration>
<voice>2</voice>
<type>quarter</type>
<stem>down</stem>
</note>
</measure>
<measure number="25">
<note>
<pitch>
<step>F</step>
<octave>3</octave>
</pitch>
<duration>32</duration>
<tie type="start"/>
<voice>1</voice>
<type>whole</type>
<stem>up</stem>
<notations>
<tied type="start"/>
</notations>
</note>
<backup>
<duration>32</duration>
</backup>
<note>
<pitch>
<step>B</step>
<alter>-1</alter>
<octave>2</octave>
</pitch>
<duration>32</duration>
<tie type="start"/>
<voice>2</voice>
<type>whole</type>
<stem>down</stem>
<notations>
<tied type="start"/>
</notations>
</note>
</measure>
<measure number="26">
<note>
<pitch>
<step>F</step>
<octave>3</octave>
</pitch>
<duration>8</duration>
<tie type="stop"/>
<voice>1</voice>
<type>quarter</type>
<stem>up</stem>
<notations>
<tied type="stop"/>
</notations>
</note>
<note>
<pitch>
<step>F</step>
<octave>3</octave>
</pitch>
<duration>8</duration>
<voice>1</voice>
<type>quarter</type>
<stem>up</stem>
</note>
<note>
<pitch>
<step>F</step>
<octave>3</octave>
</pitch>
<duration>8</duration>
<voice>1</voice>
<type>quarter</type>
<stem>up</stem>
</note>
<note>
<pitch>
<step>F</step>
<octave>3</octave>
</pitch>
<duration>8</duration>
<voice>1</voice>
<type>quarter</type>
<stem>up</stem>
</note>
<backup>
<duration>32</duration>
</backup>
<note>
<pitch>
<step>B</step>
<alter>-1</alter>
<octave>2</octave>
</pitch>
<duration>8</duration>
<tie type="stop"/>
<voice>2</voice>
<type>quarter</type>
<stem>down</stem>
<notations>
<tied type="stop"/>
</notations>
</note>
<note>
<pitch>
<step>F</step>
<octave>3</octave>
</pitch>
<duration>8</duration>
<voice>2</voice>
<type>quarter</type>
<stem>down</stem>
</note>
<note>
<pitch>
<step>F</step>
<octave>3</octave>
</pitch>
<duration>4</duration>
<voice>2</voice>
<type>eighth</type>
<stem>down</stem>
<beam number="1">begin</beam>
<notations>
<slur type="start" number="1"/>
</notations>
</note>
<note>
<pitch>
<step>E</step>
<alter>-1</alter>
<octave>3</octave>
</pitch>
<duration>4</duration>
<voice>2</voice>
<type>eighth</type>
<stem>down</stem>
<beam number="1">continue</beam>
<notations>
<slur type="stop" number="1"/>
</notations>
</note>
<note>
<pitch>
<step>D</step>
<octave>3</octave>
</pitch>
<duration>4</duration>
<voice>2</voice>
<type>eighth</type>
<stem>down</stem>
<beam number="1">begin</beam>
<notations>
<slur type="start" number="2"/>
</notations>
</note>
<note>
<pitch>
<step>C</step>
<octave>3</octave>
</pitch>
<duration>4</duration>
<voice>2</voice>
<type>eighth</type>
<stem>down</stem>
<beam number="1">continue</beam>
<notations>
<slur type="stop" number="2"/>
</notations>
</note>
</measure>
<measure number="27">
<note>
<pitch>
<step>B</step>
<alter>-1</alter>
<octave>3</octave>
</pitch>
<duration>24</duration>
<voice>1</voice>
<type>half</type>
<dot/>
<stem>up</stem>
</note>
<note>
<pitch>
<step>B</step>
<alter>-1</alter>
<octave>3</octave>
</pitch>
<duration>8</duration>
<voice>1</voice>
<type>quarter</type>
<stem>up</stem>
</note>
<backup>
<duration>32</duration>
</backup>
<note>
<pitch>
<step>B</step>
<alter>-1</alter>
<octave>2</octave>
</pitch>
<duration>24</duration>
<voice>2</voice>
<type>half</type>
<dot/>
<stem>down</stem>
</note>
<note>
<pitch>
<step>B</step>
<alter>-1</alter>
<octave>2</octave>
</pitch>
<duration>8</duration>
<voice>2</voice>
<type>quarter</type>
<stem>down</stem>
</note>
</measure>
<measure number="28">
<note>
<pitch>
<step>B</step>
<alter>-1</alter>
<octave>3</octave>
</pitch>
<duration>8</duration>
<voice>1</voice>
<type>quarter</type>
<stem>up</stem>
</note>
<note>
<pitch>
<step>C</step>
<octave>4</octave>
</pitch>
<duration>8</duration>
<voice>1</voice>
<type>quarter</type>
<stem>up</stem>
</note>
<note>
<pitch>
<step>B</step>
<alter>-1</alter>
<octave>3</octave>
</pitch>
<duration>8</duration>
<voice>1</voice>
<type>quarter</type>
<stem>up</stem>
</note>
<note>
<pitch>
<step>B</step>
<alter>-1</alter>
<octave>3</octave>
</pitch>
<duration>8</duration>
<voice>1</voice>
<type>quarter</type>
<stem>up</stem>
</note>
<backup>
<duration>32</duration>
</backup>
<note>
<pitch>
<step>E</step>
<alter>-1</alter>
<octave>3</octave>
</pitch>
<duration>8</duration>
<voice>2</voice>
<type>quarter</type>
<stem>down</stem>
</note>
<note>
<pitch>
<step>E</step>
<alter>-1</alter>
<octave>3</octave>
</pitch>
<duration>8</duration>
<voice>2</voice>
<type>quarter</type>
<stem>down</stem>
</note>
<note>
<pitch>
<step>E</step>
<alter>-1</alter>
<octave>3</octave>
</pitch>
<duration>8</duration>
<voice>2</voice>
<type>quarter</type>
<stem>down</stem>
</note>
<note>
<pitch>
<step>E</step>
<octave>3</octave>
</pitch>
<duration>8</duration>
<voice>2</voice>
<type>quarter</type>
<accidental>natural</accidental>
<stem>down</stem>
</note>
</measure>
<measure number="29">
<note>
<pitch>
<step>B</step>
<alter>-1</alter>
<octave>3</octave>
</pitch>
<duration>16</duration>
<voice>1</voice>
<type>half</type>
<stem>up</stem>
<notations>
<slur type="start" number="1"/>
</notations>
</note>
<note>
<pitch>
<step>C</step>
<octave>4</octave>
</pitch>
<duration>16</duration>
<voice>1</voice>
<type>half</type>
<stem>up</stem>
<notations>
<slur type="continue" number="1"/>
</notations>
</note>
<backup>
<duration>32</duration>
</backup>
<note>
<pitch>
<step>B</step>
<alter>-1</alter>
<octave>2</octave>
</pitch>
<duration>16</duration>
<voice>2</voice>
<type>half</type>
<stem>down</stem>
</note>
<note>
<pitch>
<step>B</step>
<alter>-1</alter>
<octave>2</octave>
</pitch>
<duration>16</duration>
<voice>2</voice>
<type>half</type>
<stem>down</stem>
</note>
</measure>
<measure number="30">
<note>
<pitch>
<step>B</step>
<alter>-1</alter>
<octave>3</octave>
</pitch>
<duration>8</duration>
<voice>1</voice>
<type>quarter</type>
<stem>up</stem>
<notations>
<slur type="stop" number="1"/>
</notations>
</note>
<note>
<pitch>
<step>B</step>
<alter>-1</alter>
<octave>3</octave>
</pitch>
<duration>8</duration>
<voice>1</voice>
<type>quarter</type>
<stem>up</stem>
</note>
<note>
<pitch>
<step>B</step>
<alter>-1</alter>
<octave>3</octave>
</pitch>
<duration>8</duration>
<voice>1</voice>
<type>quarter</type>
<stem>up</stem>
</note>
<note>
<pitch>
<step>D</step>
<octave>4</octave>
</pitch>
<duration>8</duration>
<voice>1</voice>
<type>quarter</type>
<stem>up</stem>
</note>
<backup>
<duration>32</duration>
</backup>
<note>
<pitch>
<step>B</step>
<alter>-1</alter>
<octave>2</octave>
</pitch>
<duration>8</duration>
<voice>2</voice>
<type>quarter</type>
<stem>down</stem>
</note>
<note>
<pitch>
<step>B</step>
<alter>-1</alter>
<octave>2</octave>
</pitch>
<duration>8</duration>
<voice>2</voice>
<type>quarter</type>
<stem>down</stem>
</note>
<note>
<pitch>
<step>C</step>
<octave>3</octave>
</pitch>
<duration>8</duration>
<voice>2</voice>
<type>quarter</type>
<stem>down</stem>
</note>
<note>
<pitch>
<step>D</step>
<octave>3</octave>
</pitch>
<duration>8</duration>
<voice>2</voice>
<type>quarter</type>
<stem>down</stem>
</note>
</measure>
<measure number="31">
<note>
<pitch>
<step>C</step>
<octave>4</octave>
</pitch>
<duration>16</duration>
<voice>1</voice>
<type>half</type>
<stem>up</stem>
<notations>
<slur type="start" number="1"/>
</notations>
</note>
<note>
<pitch>
<step>B</step>
<alter>-1</alter>
<octave>3</octave>
</pitch>
<duration>16</duration>
<voice>1</voice>
<type>half</type>
<stem>up</stem>
<notations>
<slur type="continue" number="1"/>
</notations>
</note>
<backup>
<duration>32</duration>
</backup>
<note>
<pitch>
<step>E</step>
<alter>-1</alter>
<octave>3</octave>
</pitch>
<duration>32</duration>
<voice>2</voice>
<type>whole</type>
<stem>down</stem>
</note>
</measure>
<measure number="32">
<note>
<pitch>
<step>A</step>
<octave>3</octave>
</pitch>
<duration>8</duration>
<voice>1</voice>
<type>quarter</type>
<stem>up</stem>
<notations>
<slur type="stop" number="1"/>
</notations>
</note>
<note>
<pitch>
<step>B</step>
<octave>3</octave>
</pitch>
<duration>8</duration>
<voice>1</voice>
<type>quarter</type>
<accidental>natural</accidental>
<stem>up</stem>
</note>
<note>
<pitch>
<step>C</step>
<octave>4</octave>
</pitch>
<duration>8</duration>
<voice>1</voice>
<type>quarter</type>
<stem>up</stem>
</note>
<note>
<pitch>
<step>C</step>
<octave>4</octave>
</pitch>
<duration>8</duration>
<voice>1</voice>
<type>quarter</type>
<stem>up</stem>
</note>
<backup>
<duration>32</duration>
</backup>
<note>
<pitch>
<step>F</step>
<octave>3</octave>
</pitch>
<duration>8</duration>
<voice>2</voice>
<type>quarter</type>
<stem>down</stem>
</note>
<note>
<pitch>
<step>D</step>
<octave>3</octave>
</pitch>
<duration>8</duration>
<voice>2</voice>
<type>quarter</type>
<stem>down</stem>
</note>
<note>
<pitch>
<step>C</step>
<octave>3</octave>
</pitch>
<duration>8</duration>
<voice>2</voice>
<type>quarter</type>
<stem>down</stem>
</note>
<note>
<pitch>
<step>F</step>
<octave>3</octave>
</pitch>
<duration>8</duration>
<voice>2</voice>
<type>quarter</type>
<stem>down</stem>
</note>
</measure>
<measure number="33">
<note>
<pitch>
<step>D</step>
<octave>4</octave>
</pitch>
<duration>32</duration>
<tie type="start"/>
<voice>1</voice>
<type>whole</type>
<stem>up</stem>
<notations>
<tied type="start"/>
</notations>
</note>
<backup>
<duration>32</duration>
</backup>
<note>
<pitch>
<step>B</step>
<alter>-1</alter>
<octave>2</octave>
</pitch>
<duration>32</duration>
<tie type="start"/>
<voice>2</voice>
<type>whole</type>
<stem>down</stem>
<notations>
<tied type="start"/>
</notations>
</note>
</measure>
<measure number="34">
<note>
<pitch>
<step>D</step>
<octave>4</octave>
</pitch>
<duration>8</duration>
<tie type="stop"/>
<voice>1</voice>
<type>quarter</type>
<stem>up</stem>
<notations>
<tied type="stop"/>
</notations>
</note>
<backup>
<duration>8</duration>
</backup>
<note>
<pitch>
<step>B</step>
<alter>-1</alter>
<octave>2</octave>
</pitch>
<duration>8</duration>
<tie type="stop"/>
<voice>2</voice>
<type>quarter</type>
<stem>down</stem>
<notations>
<tied type="stop"/>
</notations>
</note>
<barline location="right">
<bar-style>light-heavy</bar-style>
<repeat direction="backward" times="3"/>
</barline>
<barline location="right">
<bar-style>light-heavy</bar-style>
</barline>
</measure>
</part>
<part id="P4">
<measure number="1">
<attributes>
<divisions>4</divisions>
</attributes>
<attributes>
<clef>
<sign>G</sign>
<line>2</line>
</clef>
</attributes>
<attributes>
<key>
<fifths>-2</fifths>
</key>
</attributes>
<attributes>
<time>
<beats>4</beats>
<beat-type>4</beat-type>
</time>
</attributes>
<note>
<rest/>
<duration>16</duration>
<type>whole</type>
</note>
</measure>
<measure number="2">
<note>
<rest/>
<duration>4</duration>
<type>quarter</type>
</note>
<note>
<pitch>
<step>B</step>
<alter>-1</alter>
<octave>4</octave>
</pitch>
<duration>4</duration>
<type>quarter</type>
<notations>
<slur type="start" number="1"/>
</notations>
</note>
<note>
<pitch>
<step>D</step>
<octave>5</octave>
</pitch>
<duration>4</duration>
<type>quarter</type>
<notations>
<slur type="continue" number="1"/>
</notations>
</note>
<note>
<pitch>
<step>G</step>
<octave>5</octave>
</pitch>
<duration>4</duration>
<type>quarter</type>
<notations>
<slur type="continue" number="1"/>
</notations>
</note>
</measure>
<measure number="3">
<note>
<pitch>
<step>F</step>
<octave>5</octave>
</pitch>
<duration>8</duration>
<type>half</type>
<notations>
<slur type="continue" number="1"/>
</notations>
</note>
<note>
<pitch>
<step>G</step>
<octave>5</octave>
</pitch>
<duration>8</duration>
<type>half</type>
<notations>
<slur type="stop" number="1"/>
</notations>
</note>
</measure>
<measure number="4">
<note>
<pitch>
<step>B</step>
<alter>-1</alter>
<octave>4</octave>
</pitch>
<duration>4</duration>
<type>quarter</type>
<notations>
<slur type="start" number="1"/>
</notations>
</note>
<note>
<pitch>
<step>E</step>
<alter>-1</alter>
<octave>5</octave>
</pitch>
<duration>4</duration>
<type>quarter</type>
<notations>
<slur type="continue" number="1"/>
</notations>
</note>
<note>
<pitch>
<step>G</step>
<octave>5</octave>
</pitch>
<duration>8</duration>
<tie type="start"/>
<type>half</type>
<notations>
<tied type="start"/>
<slur type="stop" number="1"/>
</notations>
</note>
</measure>
<measure number="5">
<note>
<pitch>
<step>G</step>
<octave>5</octave>
</pitch>
<duration>4</duration>
<tie type="stop"/>
<type>quarter</type>
<notations>
<tied type="stop"/>
</notations>
</note>
<note>
<rest/>
<duration>4</duration>
<type>quarter</type>
</note>
<note>
<rest/>
<duration>8</duration>
<type>half</type>
</note>
</measure>
<measure number="6">
<note>
<rest/>
<duration>8</duration>
<type>half</type>
</note>
<note>
<pitch>
<step>B</step>
<alter>-1</alter>
<octave>4</octave>
</pitch>
<duration>4</duration>
<type>quarter</type>
<notations>
<slur type="start" number="1"/>
</notations>
</note>
<note>
<pitch>
<step>D</step>
<octave>5</octave>
</pitch>
<duration>4</duration>
<type>quarter</type>
<notations>
<slur type="continue" number="1"/>
</notations>
</note>
</measure>
<measure number="7">
<note>
<pitch>
<step>F</step>
<octave>5</octave>
</pitch>
<duration>16</duration>
<tie type="start"/>
<type>whole</type>
<notations>
<tied type="start"/>
<slur type="stop" number="1"/>
</notations>
</note>
</measure>
<measure number="8">
<note>
<pitch>
<step>F</step>
<octave>5</octave>
</pitch>
<duration>4</duration>
<tie type="stop"/>
<type>quarter</type>
<notations>
<tied type="stop"/>
</notations>
</note>
<note>
<pitch>
<step>G</step>
<octave>5</octave>
</pitch>
<duration>4</duration>
<type>quarter</type>
<notations>
<slur type="start" number="1"/>
</notations>
</note>
<note>
<pitch>
<step>F</step>
<octave>5</octave>
</pitch>
<duration>4</duration>
<type>quarter</type>
<notations>
<slur type="continue" number="1"/>
</notations>
</note>
<note>
<pitch>
<step>B</step>
<alter>-1</alter>
<octave>4</octave>
</pitch>
<duration>4</duration>
<type>quarter</type>
<notations>
<slur type="continue" number="1"/>
</notations>
</note>
</measure>
<measure number="9">
<note>
<pitch>
<step>D</step>
<octave>5</octave>
</pitch>
<duration>4</duration>
<type>quarter</type>
<notations>
<slur type="stop" number="1"/>
</notations>
</note>
<note>
<rest/>
<duration>4</duration>
<type>quarter</type>
</note>
<note>
<rest/>
<duration>8</duration>
<type>half</type>
</note>
</measure>
<measure number="10">
<note>
<rest/>
<duration>4</duration>
<type>quarter</type>
</note>
<note>
<pitch>
<step>B</step>
<alter>-1</alter>
<octave>4</octave>
</pitch>
<duration>4</duration>
<type>quarter</type>
<notations>
<slur type="start" number="1"/>
</notations>
</note>
<note>
<pitch>
<step>D</step>
<octave>5</octave>
</pitch>
<duration>4</duration>
<type>quarter</type>
<notations>
<slur type="continue" number="1"/>
</notations>
</note>
<note>
<pitch>
<step>G</step>
<octave>5</octave>
</pitch>
<duration>4</duration>
<type>quarter</type>
<notations>
<slur type="continue" number="1"/>
</notations>
</note>
</measure>
<measure number="11">
<note>
<pitch>
<step>F</step>
<octave>5</octave>
</pitch>
<duration>8</duration>
<type>half</type>
<notations>
<slur type="continue" number="1"/>
</notations>
</note>
<note>
<pitch>
<step>G</step>
<octave>5</octave>
</pitch>
<duration>8</duration>
<type>half</type>
<notations>
<slur type="stop" number="1"/>
</notations>
</note>
</measure>
<measure number="12">
<note>
<pitch>
<step>B</step>
<alter>-1</alter>
<octave>4</octave>
</pitch>
<duration>4</duration>
<type>quarter</type>
<notations>
<slur type="start" number="1"/>
</notations>
</note>
<note>
<pitch>
<step>E</step>
<alter>-1</alter>
<octave>5</octave>
</pitch>
<duration>4</duration>
<type>quarter</type>
<notations>
<slur type="continue" number="1"/>
</notations>
</note>
<note>
<pitch>
<step>G</step>
<octave>5</octave>
</pitch>
<duration>8</duration>
<tie type="start"/>
<type>half</type>
<notations>
<tied type="start"/>
<slur type="stop" number="1"/>
</notations>
</note>
</measure>
<measure number="13">
<note>
<pitch>
<step>G</step>
<octave>5</octave>
</pitch>
<duration>4</duration>
<tie type="stop"/>
<type>quarter</type>
<notations>
<tied type="stop"/>
</notations>
</note>
<note>
<rest/>
<duration>4</duration>
<type>quarter</type>
</note>
<note>
<rest/>
<duration>8</duration>
<type>half</type>
</note>
</measure>
<measure number="14">
<note>
<rest/>
<duration>4</duration>
<type>quarter</type>
</note>
<note>
<pitch>
<step>B</step>
<alter>-1</alter>
<octave>4</octave>
</pitch>
<duration>4</duration>
<type>quarter</type>
<notations>
<slur type="start" number="1"/>
</notations>
</note>
<note>
<pitch>
<step>D</step>
<octave>5</octave>
</pitch>
<duration>8</duration>
<type>half</type>
<notations>
<slur type="continue" number="1"/>
</notations>
</note>
</measure>
<measure number="15">
<note>
<pitch>
<step>F</step>
<octave>5</octave>
</pitch>
<duration>16</duration>
<type>whole</type>
<notations>
<slur type="stop" number="1"/>
</notations>
</note>
</measure>
<measure number="16">
<note>
<rest/>
<duration>4</duration>
<type>quarter</type>
</note>
<note>
<pitch>
<step>G</step>
<octave>5</octave>
</pitch>
<duration>4</duration>
<type>quarter</type>
<notations>
<slur type="start" number="1"/>
</notations>
</note>
<note>
<pitch>
<step>F</step>
<octave>5</octave>
</pitch>
<duration>4</duration>
<type>quarter</type>
<notations>
<slur type="continue" number="1"/>
</notations>
</note>
<note>
<pitch>
<step>B</step>
<alter>-1</alter>
<octave>4</octave>
</pitch>
<duration>4</duration>
<type>quarter</type>
<notations>
<slur type="continue" number="1"/>
</notations>
</note>
</measure>
<measure number="17">
<note>
<pitch>
<step>D</step>
<octave>5</octave>
</pitch>
<duration>4</duration>
<type>quarter</type>
<notations>
<slur type="stop" number="1"/>
</notations>
</note>
</measure>
<measure number="18">
<barline location="left">
<bar-style>heavy-light</bar-style>
</barline>
<note>
<rest/>
<duration>12</duration>
<type>half</type>
<dot/>
</note>
</measure>
<measure number="19">
<note>
<rest/>
<duration>16</duration>
<type>whole</type>
</note>
</measure>
<measure number="20">
<note>
<rest/>
<duration>16</duration>
<type>whole</type>
</note>
</measure>
<measure number="21">
<note>
<rest/>
<duration>16</duration>
<type>whole</type>
</note>
</measure>
<measure number="22">
<note>
<rest/>
<duration>16</duration>
<type>whole</type>
</note>
</measure>
<measure number="23">
<note>
<rest/>
<duration>16</duration>
<type>whole</type>
</note>
</measure>
<measure number="24">
<note>
<rest/>
<duration>16</duration>
<type>whole</type>
</note>
</measure>
<measure number="25">
<note>
<rest/>
<duration>16</duration>
<type>whole</type>
</note>
</measure>
<measure number="26">
<note>
<rest/>
<duration>16</duration>
<type>whole</type>
</note>
</measure>
<measure number="27">
<note>
<rest/>
<duration>16</duration>
<type>whole</type>
</note>
</measure>
<measure number="28">
<note>
<rest/>
<duration>16</duration>
<type>whole</type>
</note>
</measure>
<measure number="29">
<note>
<rest/>
<duration>16</duration>
<type>whole</type>
</note>
</measure>
<measure number="30">
<note>
<rest/>
<duration>16</duration>
<type>whole</type>
</note>
</measure>
<measure number="31">
<note>
<rest/>
<duration>16</duration>
<type>whole</type>
</note>
</measure>
<measure number="32">
<note>
<rest/>
<duration>16</duration>
<type>whole</type>
</note>
</measure>
<measure number="33">
<note>
<rest/>
<duration>16</duration>
<type>whole</type>
</note>
</measure>
<measure number="34">
<note>
<rest/>
<duration>4</duration>
<type>quarter</type>
</note>
<barline location="right">
<bar-style>light-heavy</bar-style>
<repeat direction="backward" times="3"/>
</barline>
<barline location="right">
<bar-style>light-heavy</bar-style>
</barline>
</measure>
</part>
</score-partwise>
