<?xml version="1.0" encoding="UTF-8" standalone='no'?>
<!DOCTYPE score-partwise PUBLIC "-//Recordare//DTD MusicXML 1.0 Partwise//EN" "http://www.musicxml.org/dtds/partwise.dtd">
<score-partwise>
<work>
<work-title>Gloire à Dieu</work-title>
</work>
<identification>
<creator type="transcriber">M. Vulpius</creator>
<rights>Tiré du "Psautier Romand"</rights>
<encoding>
<software>Noteworthy Composer</software>
<encoding-date>2007-02-17</encoding-date>
</encoding>
</identification>
<part-list>
<score-part id="P1">
<part-name>Voix des femmes</part-name>
<score-instrument id="P1-I1">
<instrument-name>String Ensemble 1</instrument-name>
</score-instrument>
<midi-instrument id="P1-I1">
<midi-channel>1</midi-channel>
<midi-program>50</midi-program>
</midi-instrument>
</score-part>
<score-part id="P2">
<part-name>Voix des hommes</part-name>
<score-instrument id="P2-I1">
<instrument-name>String Ensemble 1</instrument-name>
</score-instrument>
<midi-instrument id="P2-I1">
<midi-channel>2</midi-channel>
<midi-program>50</midi-program>
</midi-instrument>
</score-part>
</part-list>
<part id="P1">
<measure number="1">
<attributes>
<divisions>8</divisions>
</attributes>
<attributes>
<clef>
<sign>G</sign>
<line>2</line>
</clef>
</attributes>
<attributes>
<key>
<fifths>2</fifths>
</key>
</attributes>
<attributes>
<time>
<beats>3</beats>
<beat-type>4</beat-type>
</time>
</attributes>
<note>
<pitch>
<step>A</step>
<octave>4</octave>
</pitch>
<duration>8</duration>
<type>quarter</type>
<stem>up</stem>
<lyric number="1">
<syllabic>single</syllabic>
<text>Gloire</text>
</lyric>
</note>
<note>
<chord/>
<pitch>
<step>D</step>
<octave>5</octave>
</pitch>
<duration>8</duration>
<type>quarter</type>
<stem>up</stem>
</note>
<note>
<pitch>
<step>A</step>
<octave>4</octave>
</pitch>
<duration>8</duration>
<type>quarter</type>
<stem>down</stem>
<lyric number="1">
<syllabic>single</syllabic>
<text>à</text>
</lyric>
</note>
<note>
<chord/>
<pitch>
<step>C</step>
<alter>1</alter>
<octave>5</octave>
</pitch>
<duration>8</duration>
<type>quarter</type>
<stem>down</stem>
</note>
<note>
<pitch>
<step>F</step>
<alter>1</alter>
<octave>4</octave>
</pitch>
<duration>8</duration>
<type>quarter</type>
<stem>up</stem>
<lyric number="1">
<syllabic>single</syllabic>
<text>Dieu,</text>
</lyric>
</note>
<note>
<chord/>
<pitch>
<step>B</step>
<octave>4</octave>
</pitch>
<duration>8</duration>
<type>quarter</type>
<stem>up</stem>
</note>
</measure>
<measure number="2">
<note>
<pitch>
<step>F</step>
<alter>1</alter>
<octave>4</octave>
</pitch>
<duration>16</duration>
<type>half</type>
<stem>up</stem>
<lyric number="1">
<syllabic>begin</syllabic>
<text>no</text>
</lyric>
</note>
<note>
<chord/>
<pitch>
<step>A</step>
<octave>4</octave>
</pitch>
<duration>16</duration>
<type>half</type>
<stem>up</stem>
</note>
<note>
<pitch>
<step>F</step>
<alter>1</alter>
<octave>4</octave>
</pitch>
<duration>8</duration>
<type>quarter</type>
<stem>up</stem>
<lyric number="1">
<syllabic>end</syllabic>
<text>tre</text>
</lyric>
</note>
<note>
<chord/>
<pitch>
<step>A</step>
<octave>4</octave>
</pitch>
<duration>8</duration>
<type>quarter</type>
<stem>up</stem>
</note>
</measure>
<measure number="3">
<note>
<pitch>
<step>B</step>
<octave>4</octave>
</pitch>
<duration>16</duration>
<voice>1</voice>
<type>half</type>
<stem>up</stem>
<lyric number="1">
<syllabic>begin</syllabic>
<text>Cré</text>
</lyric>
</note>
<note>
<pitch>
<step>F</step>
<alter>1</alter>
<octave>4</octave>
</pitch>
<duration>8</duration>
<voice>1</voice>
<type>quarter</type>
<notations>
<slur type="stop" number="1"/>
</notations>
</note>
<note>
<pitch>
<step>A</step>
<octave>4</octave>
</pitch>
<duration>8</duration>
<voice>1</voice>
<type>quarter</type>
<stem>down</stem>
<lyric number="1">
<syllabic>middle</syllabic>
<text>a</text>
</lyric>
</note>
<note>
<chord/>
<pitch>
<step>C</step>
<alter>1</alter>
<octave>5</octave>
</pitch>
<duration>8</duration>
<voice>1</voice>
<type>quarter</type>
<stem>down</stem>
</note>
<backup>
<duration>32</duration>
</backup>
<note>
<pitch>
<step>G</step>
<octave>4</octave>
</pitch>
<duration>8</duration>
<voice>2</voice>
<type>quarter</type>
<stem>down</stem>
<notations>
<slur type="start" number="2"/>
</notations>
</note>
<forward>
<duration>8</duration>
<voice>2</voice>
</forward>
</measure>
<measure number="4">
<note>
<pitch>
<step>A</step>
<octave>4</octave>
</pitch>
<duration>16</duration>
<type>half</type>
<stem>down</stem>
<lyric number="1">
<syllabic>end</syllabic>
<text>teur!</text>
</lyric>
</note>
<note>
<chord/>
<pitch>
<step>D</step>
<octave>5</octave>
</pitch>
<duration>16</duration>
<type>half</type>
<stem>down</stem>
</note>
<note>
<rest/>
<duration>8</duration>
<type>quarter</type>
</note>
</measure>
<measure number="5">
<note>
<pitch>
<step>F</step>
<alter>1</alter>
<octave>4</octave>
</pitch>
<duration>8</duration>
<type>quarter</type>
<stem>up</stem>
<lyric number="1">
<syllabic>single</syllabic>
<text>Gloire</text>
</lyric>
</note>
<note>
<chord/>
<pitch>
<step>D</step>
<octave>5</octave>
</pitch>
<duration>8</duration>
<type>quarter</type>
<stem>up</stem>
</note>
<note>
<pitch>
<step>G</step>
<octave>4</octave>
</pitch>
<duration>8</duration>
<type>quarter</type>
<stem>down</stem>
<lyric number="1">
<syllabic>single</syllabic>
<text>à</text>
</lyric>
</note>
<note>
<chord/>
<pitch>
<step>D</step>
<octave>5</octave>
</pitch>
<duration>8</duration>
<type>quarter</type>
<stem>down</stem>
</note>
<note>
<pitch>
<step>G</step>
<octave>4</octave>
</pitch>
<duration>8</duration>
<type>quarter</type>
<stem>down</stem>
<lyric number="1">
<syllabic>begin</syllabic>
<text>Jé</text>
</lyric>
</note>
<note>
<chord/>
<pitch>
<step>E</step>
<octave>5</octave>
</pitch>
<duration>8</duration>
<type>quarter</type>
<stem>down</stem>
</note>
</measure>
<measure number="6">
<note>
<pitch>
<step>F</step>
<alter>1</alter>
<octave>4</octave>
</pitch>
<duration>16</duration>
<type>half</type>
<stem>up</stem>
<lyric number="1">
<syllabic>end</syllabic>
<text>sus,</text>
</lyric>
</note>
<note>
<chord/>
<pitch>
<step>A</step>
<octave>4</octave>
</pitch>
<duration>16</duration>
<type>half</type>
<stem>up</stem>
</note>
<note>
<pitch>
<step>B</step>
<octave>4</octave>
</pitch>
<duration>8</duration>
<type>quarter</type>
<stem>down</stem>
<lyric number="1">
<syllabic>single</syllabic>
<text>le</text>
</lyric>
</note>
<note>
<chord/>
<pitch>
<step>D</step>
<octave>5</octave>
</pitch>
<duration>8</duration>
<type>quarter</type>
<stem>down</stem>
</note>
</measure>
<measure number="7">
<note>
<pitch>
<step>C</step>
<alter>1</alter>
<octave>5</octave>
</pitch>
<duration>8</duration>
<voice>1</voice>
<type>quarter</type>
<stem>up</stem>
<notations>
<slur type="start" number="1"/>
</notations>
<lyric number="1">
<syllabic>begin</syllabic>
<text>Ré</text>
</lyric>
</note>
<note>
<pitch>
<step>G</step>
<alter>1</alter>
<octave>4</octave>
</pitch>
<duration>8</duration>
<voice>1</voice>
<type>quarter</type>
<accidental>sharp</accidental>
<stem>up</stem>
<lyric number="1">
<syllabic>middle</syllabic>
<text>demp</text>
</lyric>
</note>
<note>
<chord/>
<pitch>
<step>B</step>
<octave>4</octave>
</pitch>
<duration>8</duration>
<voice>1</voice>
<type>quarter</type>
<stem>up</stem>
</note>
<backup>
<duration>16</duration>
</backup>
<note>
<pitch>
<step>A</step>
<octave>4</octave>
</pitch>
<duration>16</duration>
<voice>2</voice>
<type>half</type>
<stem>down</stem>
</note>
<note>
<pitch>
<step>B</step>
<octave>4</octave>
</pitch>
<duration>8</duration>
<voice>2</voice>
<type>quarter</type>
<notations>
<slur type="stop" number="1"/>
</notations>
</note>
<forward>
<duration>8</duration>
<voice>2</voice>
</forward>
</measure>
<measure number="8">
<note>
<pitch>
<step>A</step>
<octave>4</octave>
</pitch>
<duration>16</duration>
<voice>1</voice>
<type>half</type>
<stem>up</stem>
<lyric number="1">
<syllabic>end</syllabic>
<text>teur!</text>
</lyric>
</note>
<note>
<rest/>
<duration>8</duration>
<voice>1</voice>
<type>quarter</type>
</note>
<backup>
<duration>24</duration>
</backup>
<note>
<pitch>
<step>A</step>
<octave>4</octave>
</pitch>
<duration>16</duration>
<voice>2</voice>
<type>half</type>
<stem>down</stem>
</note>
<forward>
<duration>8</duration>
<voice>2</voice>
</forward>
</measure>
<measure number="9">
<note>
<pitch>
<step>F</step>
<alter>1</alter>
<octave>4</octave>
</pitch>
<duration>8</duration>
<voice>1</voice>
<type>quarter</type>
<stem>up</stem>
<lyric number="1">
<syllabic>single</syllabic>
<text>Gloire</text>
</lyric>
</note>
<note>
<chord/>
<pitch>
<step>A</step>
<octave>4</octave>
</pitch>
<duration>8</duration>
<voice>1</voice>
<type>quarter</type>
<stem>up</stem>
</note>
<note>
<pitch>
<step>F</step>
<alter>1</alter>
<octave>4</octave>
</pitch>
<duration>8</duration>
<voice>1</voice>
<type>quarter</type>
<stem>up</stem>
<lyric number="1">
<syllabic>single</syllabic>
<text>à</text>
</lyric>
</note>
<note>
<pitch>
<step>G</step>
<octave>4</octave>
</pitch>
<duration>8</duration>
<voice>1</voice>
<type>quarter</type>
<stem>up</stem>
<lyric number="1">
<syllabic>begin</syllabic>
<text>l'Es</text>
</lyric>
</note>
<note>
<chord/>
<pitch>
<step>B</step>
<octave>4</octave>
</pitch>
<duration>8</duration>
<voice>1</voice>
<type>quarter</type>
<stem>up</stem>
</note>
<backup>
<duration>24</duration>
</backup>
<forward>
<duration>8</duration>
<voice>2</voice>
</forward>
<note>
<pitch>
<step>F</step>
<alter>1</alter>
<octave>4</octave>
</pitch>
<duration>8</duration>
<voice>2</voice>
<type>quarter</type>
<stem>down</stem>
</note>
<forward>
<duration>8</duration>
<voice>2</voice>
</forward>
</measure>
<measure number="10">
<note>
<pitch>
<step>F</step>
<alter>1</alter>
<octave>4</octave>
</pitch>
<duration>16</duration>
<type>half</type>
<stem>up</stem>
<lyric number="1">
<syllabic>end</syllabic>
<text>prit,</text>
</lyric>
</note>
<note>
<chord/>
<pitch>
<step>A</step>
<octave>4</octave>
</pitch>
<duration>16</duration>
<type>half</type>
<stem>up</stem>
</note>
<note>
<pitch>
<step>E</step>
<octave>4</octave>
</pitch>
<duration>8</duration>
<type>quarter</type>
<stem>up</stem>
<lyric number="1">
<syllabic>single</syllabic>
<text>le</text>
</lyric>
</note>
<note>
<chord/>
<pitch>
<step>G</step>
<octave>4</octave>
</pitch>
<duration>8</duration>
<type>quarter</type>
<stem>up</stem>
</note>
</measure>
<measure number="11">
<note>
<pitch>
<step>D</step>
<octave>4</octave>
</pitch>
<duration>8</duration>
<type>quarter</type>
<stem>up</stem>
<lyric number="1">
<syllabic>begin</syllabic>
<text>con</text>
</lyric>
</note>
<note>
<chord/>
<pitch>
<step>F</step>
<alter>1</alter>
<octave>4</octave>
</pitch>
<duration>8</duration>
<type>quarter</type>
<stem>up</stem>
</note>
<note>
<pitch>
<step>D</step>
<octave>4</octave>
</pitch>
<duration>8</duration>
<type>quarter</type>
<stem>up</stem>
<lyric number="1">
<syllabic>middle</syllabic>
<text>so</text>
</lyric>
</note>
<note>
<chord/>
<pitch>
<step>E</step>
<octave>4</octave>
</pitch>
<duration>8</duration>
<type>quarter</type>
<stem>up</stem>
</note>
<note>
<pitch>
<step>C</step>
<alter>1</alter>
<octave>4</octave>
</pitch>
<duration>8</duration>
<type>quarter</type>
<stem>up</stem>
<lyric number="1">
<syllabic>middle</syllabic>
<text>la</text>
</lyric>
</note>
<note>
<chord/>
<pitch>
<step>E</step>
<octave>4</octave>
</pitch>
<duration>8</duration>
<type>quarter</type>
<stem>up</stem>
</note>
</measure>
<measure number="12">
<note>
<pitch>
<step>D</step>
<octave>4</octave>
</pitch>
<duration>16</duration>
<voice>1</voice>
<type>half</type>
<stem>up</stem>
<lyric number="1">
<syllabic>end</syllabic>
<text>teur!</text>
</lyric>
</note>
<note>
<rest/>
<duration>8</duration>
<voice>1</voice>
<type>quarter</type>
</note>
<backup>
<duration>24</duration>
</backup>
<note>
<pitch>
<step>D</step>
<octave>4</octave>
</pitch>
<duration>16</duration>
<voice>2</voice>
<type>half</type>
<stem>down</stem>
</note>
<forward>
<duration>8</duration>
<voice>2</voice>
</forward>
</measure>
<measure number="13">
<note>
<pitch>
<step>A</step>
<octave>4</octave>
</pitch>
<duration>8</duration>
<voice>1</voice>
<type>quarter</type>
<stem>down</stem>
<lyric number="1">
<syllabic>begin</syllabic>
<text>Al</text>
</lyric>
</note>
<note>
<chord/>
<pitch>
<step>D</step>
<octave>5</octave>
</pitch>
<duration>8</duration>
<voice>1</voice>
<type>quarter</type>
<stem>down</stem>
</note>
<note>
<pitch>
<step>D</step>
<octave>5</octave>
</pitch>
<duration>8</duration>
<voice>1</voice>
<type>quarter</type>
<stem>up</stem>
<lyric number="1">
<syllabic>middle</syllabic>
<text>lé</text>
</lyric>
</note>
<note>
<pitch>
<step>G</step>
<octave>4</octave>
</pitch>
<duration>4</duration>
<voice>1</voice>
<type>eighth</type>
<stem>up</stem>
<lyric number="1">
<syllabic>middle</syllabic>
<text>lu</text>
</lyric>
</note>
<note>
<chord/>
<pitch>
<step>C</step>
<alter>1</alter>
<octave>5</octave>
</pitch>
<duration>4</duration>
<tie type="stop"/>
<voice>1</voice>
<type>eighth</type>
<stem>up</stem>
<notations>
<tied type="stop"/>
</notations>
</note>
<backup>
<duration>20</duration>
</backup>
<forward>
<duration>8</duration>
<voice>2</voice>
</forward>
<note>
<pitch>
<step>A</step>
<octave>4</octave>
</pitch>
<duration>12</duration>
<voice>2</voice>
<type>quarter</type>
<dot/>
<stem>down</stem>
</note>
<note>
<pitch>
<step>C</step>
<alter>1</alter>
<octave>5</octave>
</pitch>
<duration>4</duration>
<tie type="start"/>
<voice>2</voice>
<type>eighth</type>
<notations>
<tied type="start"/>
</notations>
</note>
<forward>
<duration>4</duration>
<voice>2</voice>
</forward>
</measure>
<measure number="14">
<note>
<pitch>
<step>D</step>
<octave>5</octave>
</pitch>
<duration>12</duration>
<voice>1</voice>
<type>quarter</type>
<dot/>
<stem>up</stem>
<notations>
<slur type="start" number="1"/>
</notations>
<lyric number="1">
<syllabic>end</syllabic>
<text>ia!</text>
</lyric>
</note>
<note>
<pitch>
<step>G</step>
<octave>4</octave>
</pitch>
<duration>8</duration>
<voice>1</voice>
<type>quarter</type>
<stem>up</stem>
<notations>
<slur type="stop" number="1"/>
</notations>
</note>
<note>
<chord/>
<pitch>
<step>B</step>
<octave>4</octave>
</pitch>
<duration>8</duration>
<voice>1</voice>
<type>quarter</type>
<stem>up</stem>
<notations>
<slur type="stop" number="2"/>
</notations>
</note>
<backup>
<duration>20</duration>
</backup>
<note>
<pitch>
<step>F</step>
<alter>1</alter>
<octave>4</octave>
</pitch>
<duration>16</duration>
<voice>2</voice>
<type>half</type>
<stem>down</stem>
</note>
<note>
<pitch>
<step>C</step>
<alter>1</alter>
<octave>5</octave>
</pitch>
<duration>4</duration>
<voice>2</voice>
<type>eighth</type>
<notations>
<slur type="continue" number="3"/>
</notations>
</note>
<forward>
<duration>8</duration>
<voice>2</voice>
</forward>
</measure>
<measure number="15">
<note>
<pitch>
<step>E</step>
<octave>4</octave>
</pitch>
<duration>8</duration>
<voice>1</voice>
<type>quarter</type>
<stem>up</stem>
<lyric number="1">
<syllabic>begin</syllabic>
<text>Al</text>
</lyric>
</note>
<note>
<chord/>
<pitch>
<step>A</step>
<octave>4</octave>
</pitch>
<duration>8</duration>
<voice>1</voice>
<type>quarter</type>
<stem>up</stem>
</note>
<note>
<pitch>
<step>A</step>
<octave>4</octave>
</pitch>
<duration>8</duration>
<voice>1</voice>
<type>quarter</type>
<stem>up</stem>
<lyric number="1">
<syllabic>middle</syllabic>
<text>lé</text>
</lyric>
</note>
<note>
<pitch>
<step>G</step>
<alter>1</alter>
<octave>4</octave>
</pitch>
<duration>4</duration>
<tie type="start"/>
<voice>1</voice>
<type>eighth</type>
<accidental>sharp</accidental>
<notations>
<tied type="start"/>
</notations>
<lyric number="1">
<syllabic>middle</syllabic>
<text>lu</text>
</lyric>
</note>
<note>
<pitch>
<step>D</step>
<octave>4</octave>
</pitch>
<duration>4</duration>
<voice>1</voice>
<type>eighth</type>
<stem>up</stem>
<lyric number="1">
<syllabic>end</syllabic>
<text>ia!</text>
</lyric>
</note>
<note>
<chord/>
<pitch>
<step>G</step>
<alter>1</alter>
<octave>4</octave>
</pitch>
<duration>4</duration>
<tie type="stop"/>
<voice>1</voice>
<type>eighth</type>
<stem>up</stem>
<notations>
<tied type="stop"/>
</notations>
</note>
<backup>
<duration>24</duration>
</backup>
<forward>
<duration>8</duration>
<voice>2</voice>
</forward>
<note>
<pitch>
<step>E</step>
<octave>4</octave>
</pitch>
<duration>12</duration>
<voice>2</voice>
<type>quarter</type>
<dot/>
<stem>down</stem>
</note>
<forward>
<duration>4</duration>
<voice>2</voice>
</forward>
</measure>
<measure number="16">
<note>
<pitch>
<step>A</step>
<octave>4</octave>
</pitch>
<duration>12</duration>
<voice>1</voice>
<type>quarter</type>
<dot/>
<stem>up</stem>
<notations>
<slur type="start" number="1"/>
</notations>
<lyric number="1">
<syllabic>begin</syllabic>
<text>Al</text>
</lyric>
</note>
<note>
<pitch>
<step>G</step>
<octave>4</octave>
</pitch>
<duration>4</duration>
<voice>1</voice>
<type>eighth</type>
<accidental>natural</accidental>
<notations>
<slur type="continue" number="1"/>
</notations>
</note>
<note>
<pitch>
<step>D</step>
<octave>4</octave>
</pitch>
<duration>8</duration>
<voice>1</voice>
<type>quarter</type>
<stem>up</stem>
<notations>
<slur type="stop" number="1"/>
</notations>
</note>
<note>
<chord/>
<pitch>
<step>F</step>
<alter>1</alter>
<octave>4</octave>
</pitch>
<duration>8</duration>
<voice>1</voice>
<type>quarter</type>
<stem>up</stem>
<notations>
<slur type="stop" number="2"/>
</notations>
</note>
<backup>
<duration>24</duration>
</backup>
<note>
<pitch>
<step>C</step>
<alter>1</alter>
<octave>4</octave>
</pitch>
<duration>16</duration>
<voice>2</voice>
<type>half</type>
<stem>down</stem>
</note>
<forward>
<duration>8</duration>
<voice>2</voice>
</forward>
</measure>
<measure number="17">
<note>
<pitch>
<step>B</step>
<octave>3</octave>
</pitch>
<duration>8</duration>
<type>quarter</type>
<stem>up</stem>
<lyric number="1">
<syllabic>middle</syllabic>
<text>lé</text>
</lyric>
</note>
<note>
<chord/>
<pitch>
<step>E</step>
<octave>4</octave>
</pitch>
<duration>8</duration>
<type>quarter</type>
<stem>up</stem>
</note>
<note>
<pitch>
<step>A</step>
<octave>3</octave>
</pitch>
<duration>8</duration>
<type>quarter</type>
<stem>up</stem>
<lyric number="1">
<syllabic>middle</syllabic>
<text>lu</text>
</lyric>
</note>
<note>
<chord/>
<pitch>
<step>D</step>
<octave>4</octave>
</pitch>
<duration>8</duration>
<type>quarter</type>
<stem>up</stem>
</note>
<note>
<pitch>
<step>A</step>
<octave>3</octave>
</pitch>
<duration>8</duration>
<type>quarter</type>
<stem>up</stem>
<lyric number="1">
<syllabic>end</syllabic>
<text>ia!</text>
</lyric>
</note>
<note>
<chord/>
<pitch>
<step>C</step>
<alter>1</alter>
<octave>4</octave>
</pitch>
<duration>8</duration>
<type>quarter</type>
<stem>up</stem>
</note>
</measure>
<measure number="18">
<note>
<pitch>
<step>A</step>
<octave>3</octave>
</pitch>
<duration>24</duration>
<type>half</type>
<dot/>
<stem>up</stem>
</note>
<note>
<chord/>
<pitch>
<step>D</step>
<octave>4</octave>
</pitch>
<duration>24</duration>
<type>half</type>
<dot/>
<stem>up</stem>
</note>
<barline location="right">
<bar-style>light-heavy</bar-style>
</barline>
</measure>
</part>
<part id="P2">
<measure number="1">
<attributes>
<divisions>8</divisions>
</attributes>
<attributes>
<clef>
<sign>F</sign>
<line>4</line>
</clef>
</attributes>
<attributes>
<key>
<fifths>2</fifths>
</key>
</attributes>
<attributes>
<time>
<beats>3</beats>
<beat-type>4</beat-type>
</time>
</attributes>
<note>
<pitch>
<step>D</step>
<octave>3</octave>
</pitch>
<duration>8</duration>
<type>quarter</type>
<stem>down</stem>
</note>
<note>
<chord/>
<pitch>
<step>F</step>
<alter>1</alter>
<octave>4</octave>
</pitch>
<duration>8</duration>
<type>quarter</type>
<stem>down</stem>
</note>
<note>
<pitch>
<step>A</step>
<octave>2</octave>
</pitch>
<duration>8</duration>
<type>quarter</type>
<stem>down</stem>
</note>
<note>
<chord/>
<pitch>
<step>E</step>
<octave>4</octave>
</pitch>
<duration>8</duration>
<type>quarter</type>
<stem>down</stem>
</note>
<note>
<pitch>
<step>B</step>
<octave>2</octave>
</pitch>
<duration>8</duration>
<type>quarter</type>
<stem>down</stem>
</note>
<note>
<chord/>
<pitch>
<step>D</step>
<octave>4</octave>
</pitch>
<duration>8</duration>
<type>quarter</type>
<stem>down</stem>
</note>
</measure>
<measure number="2">
<note>
<pitch>
<step>F</step>
<alter>1</alter>
<octave>3</octave>
</pitch>
<duration>16</duration>
<type>half</type>
<stem>down</stem>
</note>
<note>
<chord/>
<pitch>
<step>C</step>
<alter>1</alter>
<octave>4</octave>
</pitch>
<duration>16</duration>
<type>half</type>
<stem>down</stem>
</note>
<note>
<pitch>
<step>D</step>
<octave>3</octave>
</pitch>
<duration>8</duration>
<type>quarter</type>
<stem>down</stem>
</note>
<note>
<chord/>
<pitch>
<step>D</step>
<octave>4</octave>
</pitch>
<duration>8</duration>
<type>quarter</type>
<stem>down</stem>
</note>
</measure>
<measure number="3">
<note>
<pitch>
<step>D</step>
<octave>4</octave>
</pitch>
<duration>16</duration>
<voice>1</voice>
<type>half</type>
<stem>up</stem>
</note>
<note>
<pitch>
<step>A</step>
<octave>3</octave>
</pitch>
<duration>8</duration>
<voice>1</voice>
<type>quarter</type>
<stem>down</stem>
</note>
<note>
<chord/>
<pitch>
<step>E</step>
<octave>4</octave>
</pitch>
<duration>8</duration>
<voice>1</voice>
<type>quarter</type>
<stem>down</stem>
</note>
<backup>
<duration>24</duration>
</backup>
<note>
<pitch>
<step>G</step>
<octave>3</octave>
</pitch>
<duration>8</duration>
<voice>2</voice>
<type>quarter</type>
<stem>down</stem>
<notations>
<slur type="start" number="1"/>
</notations>
</note>
<note>
<pitch>
<step>B</step>
<octave>3</octave>
</pitch>
<duration>8</duration>
<voice>2</voice>
<type>quarter</type>
<notations>
<slur type="stop" number="1"/>
</notations>
</note>
<forward>
<duration>8</duration>
<voice>2</voice>
</forward>
</measure>
<measure number="4">
<note>
<pitch>
<step>D</step>
<octave>3</octave>
</pitch>
<duration>16</duration>
<type>half</type>
<stem>down</stem>
</note>
<note>
<chord/>
<pitch>
<step>F</step>
<alter>1</alter>
<octave>4</octave>
</pitch>
<duration>16</duration>
<type>half</type>
<stem>down</stem>
</note>
<note>
<rest/>
<duration>8</duration>
<type>quarter</type>
</note>
</measure>
<measure number="5">
<note>
<pitch>
<step>D</step>
<octave>3</octave>
</pitch>
<duration>8</duration>
<type>quarter</type>
<stem>down</stem>
</note>
<note>
<chord/>
<pitch>
<step>A</step>
<octave>3</octave>
</pitch>
<duration>8</duration>
<type>quarter</type>
<stem>down</stem>
</note>
<note>
<pitch>
<step>G</step>
<octave>3</octave>
</pitch>
<duration>8</duration>
<type>quarter</type>
<stem>down</stem>
</note>
<note>
<chord/>
<pitch>
<step>B</step>
<octave>3</octave>
</pitch>
<duration>8</duration>
<type>quarter</type>
<stem>down</stem>
</note>
<note>
<pitch>
<step>E</step>
<octave>3</octave>
</pitch>
<duration>8</duration>
<type>quarter</type>
<stem>down</stem>
</note>
<note>
<chord/>
<pitch>
<step>C</step>
<alter>1</alter>
<octave>4</octave>
</pitch>
<duration>8</duration>
<type>quarter</type>
<stem>down</stem>
</note>
</measure>
<measure number="6">
<note>
<pitch>
<step>D</step>
<octave>3</octave>
</pitch>
<duration>16</duration>
<type>half</type>
<stem>down</stem>
</note>
<note>
<chord/>
<pitch>
<step>D</step>
<octave>4</octave>
</pitch>
<duration>16</duration>
<type>half</type>
<stem>down</stem>
</note>
<note>
<pitch>
<step>B</step>
<octave>2</octave>
</pitch>
<duration>8</duration>
<type>quarter</type>
<stem>down</stem>
</note>
<note>
<chord/>
<pitch>
<step>F</step>
<alter>1</alter>
<octave>4</octave>
</pitch>
<duration>8</duration>
<type>quarter</type>
<stem>down</stem>
</note>
</measure>
<measure number="7">
<note>
<pitch>
<step>C</step>
<alter>1</alter>
<octave>3</octave>
</pitch>
<duration>8</duration>
<type>quarter</type>
<stem>down</stem>
<notations>
<slur type="start" number="1"/>
</notations>
</note>
<note>
<chord/>
<pitch>
<step>E</step>
<octave>4</octave>
</pitch>
<duration>8</duration>
<type>quarter</type>
<stem>down</stem>
<notations>
<slur type="start" number="1"/>
</notations>
</note>
<note>
<pitch>
<step>D</step>
<octave>3</octave>
</pitch>
<duration>8</duration>
<type>quarter</type>
<stem>down</stem>
<notations>
<slur type="stop" number="1"/>
</notations>
</note>
<note>
<chord/>
<pitch>
<step>F</step>
<alter>1</alter>
<octave>4</octave>
</pitch>
<duration>8</duration>
<type>quarter</type>
<stem>down</stem>
<notations>
<slur type="stop" number="2"/>
</notations>
</note>
<note>
<pitch>
<step>E</step>
<octave>3</octave>
</pitch>
<duration>8</duration>
<type>quarter</type>
<stem>down</stem>
</note>
<note>
<chord/>
<pitch>
<step>E</step>
<octave>4</octave>
</pitch>
<duration>8</duration>
<type>quarter</type>
<stem>down</stem>
</note>
</measure>
<measure number="8">
<note>
<pitch>
<step>A</step>
<octave>2</octave>
</pitch>
<duration>16</duration>
<type>half</type>
<stem>down</stem>
</note>
<note>
<chord/>
<pitch>
<step>C</step>
<alter>1</alter>
<octave>4</octave>
</pitch>
<duration>16</duration>
<type>half</type>
<stem>down</stem>
</note>
<note>
<rest/>
<duration>8</duration>
<type>quarter</type>
</note>
</measure>
<measure number="9">
<note>
<pitch>
<step>D</step>
<octave>3</octave>
</pitch>
<duration>8</duration>
<type>quarter</type>
<stem>down</stem>
</note>
<note>
<chord/>
<pitch>
<step>D</step>
<octave>4</octave>
</pitch>
<duration>8</duration>
<type>quarter</type>
<stem>down</stem>
</note>
<note>
<pitch>
<step>D</step>
<octave>3</octave>
</pitch>
<duration>8</duration>
<type>quarter</type>
<stem>down</stem>
</note>
<note>
<chord/>
<pitch>
<step>D</step>
<octave>4</octave>
</pitch>
<duration>8</duration>
<type>quarter</type>
<stem>down</stem>
</note>
<note>
<pitch>
<step>G</step>
<octave>3</octave>
</pitch>
<duration>8</duration>
<type>quarter</type>
<stem>down</stem>
</note>
<note>
<chord/>
<pitch>
<step>D</step>
<octave>4</octave>
</pitch>
<duration>8</duration>
<type>quarter</type>
<stem>down</stem>
</note>
</measure>
<measure number="10">
<note>
<pitch>
<step>D</step>
<octave>3</octave>
</pitch>
<duration>16</duration>
<type>half</type>
<stem>down</stem>
</note>
<note>
<chord/>
<pitch>
<step>D</step>
<octave>4</octave>
</pitch>
<duration>16</duration>
<type>half</type>
<stem>down</stem>
</note>
<note>
<pitch>
<step>E</step>
<octave>3</octave>
</pitch>
<duration>8</duration>
<type>quarter</type>
<stem>down</stem>
</note>
<note>
<chord/>
<pitch>
<step>B</step>
<octave>3</octave>
</pitch>
<duration>8</duration>
<type>quarter</type>
<stem>down</stem>
</note>
</measure>
<measure number="11">
<note>
<pitch>
<step>F</step>
<alter>1</alter>
<octave>3</octave>
</pitch>
<duration>8</duration>
<voice>1</voice>
<type>quarter</type>
<stem>down</stem>
</note>
<note>
<chord/>
<pitch>
<step>A</step>
<octave>3</octave>
</pitch>
<duration>8</duration>
<voice>1</voice>
<type>quarter</type>
<stem>down</stem>
</note>
<note>
<pitch>
<step>G</step>
<octave>3</octave>
</pitch>
<duration>8</duration>
<voice>1</voice>
<type>quarter</type>
<stem>down</stem>
</note>
<note>
<chord/>
<pitch>
<step>B</step>
<octave>3</octave>
</pitch>
<duration>8</duration>
<voice>1</voice>
<type>quarter</type>
<stem>down</stem>
</note>
<note>
<pitch>
<step>A</step>
<octave>3</octave>
</pitch>
<duration>8</duration>
<voice>1</voice>
<type>quarter</type>
<stem>up</stem>
</note>
<backup>
<duration>24</duration>
</backup>
<forward>
<duration>16</duration>
<voice>2</voice>
</forward>
<note>
<pitch>
<step>A</step>
<octave>3</octave>
</pitch>
<duration>8</duration>
<voice>2</voice>
<type>quarter</type>
<stem>down</stem>
</note>
</measure>
<measure number="12">
<note>
<pitch>
<step>D</step>
<octave>3</octave>
</pitch>
<duration>16</duration>
<type>half</type>
<stem>down</stem>
</note>
<note>
<chord/>
<pitch>
<step>F</step>
<alter>1</alter>
<octave>3</octave>
</pitch>
<duration>16</duration>
<type>half</type>
<stem>down</stem>
</note>
<note>
<rest/>
<duration>8</duration>
<type>quarter</type>
</note>
</measure>
<measure number="13">
<note>
<pitch>
<step>D</step>
<octave>4</octave>
</pitch>
<duration>8</duration>
<type>quarter</type>
<stem>down</stem>
</note>
<note>
<chord/>
<pitch>
<step>F</step>
<alter>1</alter>
<octave>4</octave>
</pitch>
<duration>8</duration>
<type>quarter</type>
<stem>down</stem>
</note>
<note>
<pitch>
<step>D</step>
<octave>4</octave>
</pitch>
<duration>8</duration>
<type>quarter</type>
<stem>down</stem>
</note>
<note>
<chord/>
<pitch>
<step>F</step>
<alter>1</alter>
<octave>4</octave>
</pitch>
<duration>8</duration>
<type>quarter</type>
<stem>down</stem>
</note>
<note>
<pitch>
<step>A</step>
<octave>3</octave>
</pitch>
<duration>8</duration>
<type>quarter</type>
<stem>down</stem>
</note>
<note>
<chord/>
<pitch>
<step>E</step>
<octave>4</octave>
</pitch>
<duration>8</duration>
<type>quarter</type>
<stem>down</stem>
</note>
</measure>
<measure number="14">
<note>
<pitch>
<step>D</step>
<octave>4</octave>
</pitch>
<duration>24</duration>
<voice>1</voice>
<type>half</type>
<dot/>
<stem>up</stem>
</note>
<backup>
<duration>24</duration>
</backup>
<note>
<pitch>
<step>D</step>
<octave>4</octave>
</pitch>
<duration>4</duration>
<voice>2</voice>
<type>eighth</type>
<stem>down</stem>
<beam number="1">begin</beam>
<notations>
<slur type="start" number="1"/>
</notations>
</note>
<note>
<pitch>
<step>C</step>
<alter>1</alter>
<octave>4</octave>
</pitch>
<duration>4</duration>
<voice>2</voice>
<type>eighth</type>
<stem>down</stem>
<beam number="1">end</beam>
<notations>
<slur type="continue" number="1"/>
</notations>
</note>
<note>
<pitch>
<step>B</step>
<octave>3</octave>
</pitch>
<duration>4</duration>
<voice>2</voice>
<type>eighth</type>
<stem>down</stem>
<beam number="1">end</beam>
<notations>
<slur type="continue" number="1"/>
</notations>
</note>
<note>
<pitch>
<step>A</step>
<octave>3</octave>
</pitch>
<duration>4</duration>
<voice>2</voice>
<type>eighth</type>
<stem>down</stem>
<beam number="1">continue</beam>
<notations>
<slur type="continue" number="1"/>
</notations>
</note>
<note>
<pitch>
<step>G</step>
<octave>3</octave>
</pitch>
<duration>8</duration>
<voice>2</voice>
<type>quarter</type>
<notations>
<slur type="stop" number="1"/>
</notations>
</note>
</measure>
<measure number="15">
<note>
<pitch>
<step>A</step>
<octave>3</octave>
</pitch>
<duration>8</duration>
<type>quarter</type>
<stem>down</stem>
</note>
<note>
<chord/>
<pitch>
<step>C</step>
<alter>1</alter>
<octave>4</octave>
</pitch>
<duration>8</duration>
<type>quarter</type>
<stem>down</stem>
</note>
<note>
<pitch>
<step>A</step>
<octave>3</octave>
</pitch>
<duration>8</duration>
<type>quarter</type>
<stem>down</stem>
</note>
<note>
<chord/>
<pitch>
<step>C</step>
<alter>1</alter>
<octave>4</octave>
</pitch>
<duration>8</duration>
<type>quarter</type>
<stem>down</stem>
</note>
<note>
<pitch>
<step>E</step>
<octave>3</octave>
</pitch>
<duration>8</duration>
<type>quarter</type>
<stem>down</stem>
</note>
<note>
<chord/>
<pitch>
<step>B</step>
<octave>3</octave>
</pitch>
<duration>8</duration>
<type>quarter</type>
<stem>down</stem>
</note>
</measure>
<measure number="16">
<note>
<pitch>
<step>A</step>
<octave>3</octave>
</pitch>
<duration>24</duration>
<voice>1</voice>
<type>half</type>
<dot/>
<stem>up</stem>
</note>
<backup>
<duration>24</duration>
</backup>
<note>
<pitch>
<step>A</step>
<octave>3</octave>
</pitch>
<duration>4</duration>
<voice>2</voice>
<type>eighth</type>
<stem>down</stem>
<beam number="1">begin</beam>
<notations>
<slur type="start" number="1"/>
</notations>
</note>
<note>
<pitch>
<step>G</step>
<octave>3</octave>
</pitch>
<duration>4</duration>
<voice>2</voice>
<type>eighth</type>
<stem>down</stem>
<beam number="1">end</beam>
<notations>
<slur type="continue" number="1"/>
</notations>
</note>
<note>
<pitch>
<step>F</step>
<alter>1</alter>
<octave>3</octave>
</pitch>
<duration>4</duration>
<voice>2</voice>
<type>eighth</type>
<stem>down</stem>
<beam number="1">end</beam>
<notations>
<slur type="continue" number="1"/>
</notations>
</note>
<note>
<pitch>
<step>E</step>
<octave>3</octave>
</pitch>
<duration>4</duration>
<voice>2</voice>
<type>eighth</type>
<stem>down</stem>
<beam number="1">continue</beam>
<notations>
<slur type="continue" number="1"/>
</notations>
</note>
<note>
<pitch>
<step>D</step>
<octave>3</octave>
</pitch>
<duration>8</duration>
<voice>2</voice>
<type>quarter</type>
<notations>
<slur type="stop" number="1"/>
</notations>
</note>
</measure>
<measure number="17">
<note>
<pitch>
<step>G</step>
<octave>2</octave>
</pitch>
<duration>8</duration>
<type>quarter</type>
<stem>up</stem>
</note>
<note>
<chord/>
<pitch>
<step>G</step>
<octave>3</octave>
</pitch>
<duration>8</duration>
<type>quarter</type>
<stem>up</stem>
</note>
<note>
<pitch>
<step>A</step>
<octave>2</octave>
</pitch>
<duration>8</duration>
<type>quarter</type>
<stem>up</stem>
</note>
<note>
<chord/>
<pitch>
<step>F</step>
<alter>1</alter>
<octave>3</octave>
</pitch>
<duration>8</duration>
<type>quarter</type>
<stem>up</stem>
</note>
<note>
<pitch>
<step>A</step>
<octave>2</octave>
</pitch>
<duration>8</duration>
<type>quarter</type>
<stem>up</stem>
</note>
<note>
<chord/>
<pitch>
<step>E</step>
<octave>3</octave>
</pitch>
<duration>8</duration>
<type>quarter</type>
<stem>up</stem>
</note>
</measure>
<measure number="18">
<note>
<pitch>
<step>D</step>
<octave>3</octave>
</pitch>
<duration>24</duration>
<type>half</type>
<dot/>
<stem>down</stem>
</note>
<note>
<chord/>
<pitch>
<step>F</step>
<alter>1</alter>
<octave>3</octave>
</pitch>
<duration>24</duration>
<type>half</type>
<dot/>
<stem>down</stem>
</note>
<barline location="right">
<bar-style>light-heavy</bar-style>
</barline>
</measure>
</part>
</score-partwise>
