<?xml version="1.0" encoding="UTF-8" standalone='no'?>
<!DOCTYPE score-partwise PUBLIC "-//Recordare//DTD MusicXML 1.0 Partwise//EN" "http://www.musicxml.org/dtds/partwise.dtd">
<score-partwise>
<work>
<work-title>A Dieu soit la gloire</work-title>
</work>
<identification>
<creator type="transcriber">W.H. Doane</creator>
<rights>Tiré de "Chants de Victoire"</rights>
<encoding>
<software>Noteworthy Composer</software>
<encoding-date>2007-02-17</encoding-date>
</encoding>
</identification>
<part-list>
<score-part id="P1">
<part-name>Voix des femmes</part-name>
<score-instrument id="P1-I1">
<instrument-name>String Ensemble 1</instrument-name>
</score-instrument>
<midi-instrument id="P1-I1">
<midi-channel>1</midi-channel>
<midi-program>50</midi-program>
</midi-instrument>
</score-part>
<score-part id="P2">
<part-name>Voix des hommes</part-name>
<score-instrument id="P2-I1">
<instrument-name>String Ensemble 1</instrument-name>
</score-instrument>
<midi-instrument id="P2-I1">
<midi-channel>2</midi-channel>
<midi-program>50</midi-program>
</midi-instrument>
</score-part>
</part-list>
<part id="P1">
<measure number="1">
<attributes>
<divisions>16</divisions>
</attributes>
<attributes>
<clef>
<sign>G</sign>
<line>2</line>
</clef>
</attributes>
<attributes>
<key>
<fifths>-4</fifths>
</key>
</attributes>
<attributes>
<time>
<beats>3</beats>
<beat-type>4</beat-type>
</time>
</attributes>
<note>
<pitch>
<step>C</step>
<octave>4</octave>
</pitch>
<duration>16</duration>
<type>quarter</type>
<stem>up</stem>
<lyric number="1">
<syllabic>single</syllabic>
<text>1.A</text>
</lyric>
<lyric number="2">
<syllabic>single</syllabic>
<text>2.De</text>
</lyric>
</note>
<note>
<chord/>
<pitch>
<step>E</step>
<alter>-1</alter>
<octave>4</octave>
</pitch>
<duration>16</duration>
<type>quarter</type>
<stem>up</stem>
</note>
</measure>
<measure number="2">
<note>
<pitch>
<step>E</step>
<alter>-1</alter>
<octave>4</octave>
</pitch>
<duration>32</duration>
<voice>1</voice>
<type>half</type>
<stem>up</stem>
<lyric number="1">
<syllabic>single</syllabic>
<text>Dieu</text>
</lyric>
<lyric number="2">
<syllabic>begin</syllabic>
<text>Jé</text>
</lyric>
</note>
<note>
<pitch>
<step>E</step>
<alter>-1</alter>
<octave>4</octave>
</pitch>
<duration>16</duration>
<voice>1</voice>
<type>quarter</type>
<notations>
<slur type="stop" number="1"/>
</notations>
</note>
<note>
<pitch>
<step>D</step>
<alter>-1</alter>
<octave>4</octave>
</pitch>
<duration>8</duration>
<voice>1</voice>
<type>eighth</type>
<stem>up</stem>
<lyric number="1">
<syllabic>single</syllabic>
<text>soit</text>
</lyric>
<lyric number="2">
<syllabic>end</syllabic>
<text>sus,</text>
</lyric>
</note>
<note>
<chord/>
<pitch>
<step>F</step>
<octave>4</octave>
</pitch>
<duration>8</duration>
<voice>1</voice>
<type>eighth</type>
<stem>up</stem>
</note>
<note>
<pitch>
<step>D</step>
<alter>-1</alter>
<octave>4</octave>
</pitch>
<duration>8</duration>
<voice>1</voice>
<type>eighth</type>
<stem>up</stem>
<lyric number="1">
<syllabic>single</syllabic>
<text>la</text>
</lyric>
<lyric number="2">
<syllabic>single</syllabic>
<text>la</text>
</lyric>
</note>
<note>
<chord/>
<pitch>
<step>G</step>
<octave>4</octave>
</pitch>
<duration>8</duration>
<voice>1</voice>
<type>eighth</type>
<stem>up</stem>
</note>
<backup>
<duration>64</duration>
</backup>
<note>
<pitch>
<step>C</step>
<octave>4</octave>
</pitch>
<duration>16</duration>
<voice>2</voice>
<type>quarter</type>
<stem>down</stem>
<notations>
<slur type="start" number="2"/>
</notations>
</note>
<forward>
<duration>16</duration>
<voice>2</voice>
</forward>
</measure>
<measure number="3">
<note>
<pitch>
<step>C</step>
<octave>4</octave>
</pitch>
<duration>16</duration>
<type>quarter</type>
<stem>up</stem>
<lyric number="1">
<syllabic>begin</syllabic>
<text>Gloi</text>
</lyric>
<lyric number="2">
<syllabic>begin</syllabic>
<text>joi</text>
</lyric>
</note>
<note>
<chord/>
<pitch>
<step>A</step>
<alter>-1</alter>
<octave>4</octave>
</pitch>
<duration>16</duration>
<type>quarter</type>
<stem>up</stem>
</note>
<note>
<pitch>
<step>C</step>
<octave>4</octave>
</pitch>
<duration>16</duration>
<type>quarter</type>
<stem>up</stem>
<lyric number="1">
<syllabic>end</syllabic>
<text>re!</text>
</lyric>
<lyric number="2">
<syllabic>end</syllabic>
<text>e,</text>
</lyric>
</note>
<note>
<chord/>
<pitch>
<step>E</step>
<alter>-1</alter>
<octave>4</octave>
</pitch>
<duration>16</duration>
<type>quarter</type>
<stem>up</stem>
</note>
<note>
<pitch>
<step>E</step>
<alter>-1</alter>
<octave>4</octave>
</pitch>
<duration>16</duration>
<type>quarter</type>
<stem>up</stem>
<lyric number="1">
<syllabic>single</syllabic>
<text>Par</text>
</lyric>
<lyric number="2">
<syllabic>begin</syllabic>
<text>Rem</text>
</lyric>
</note>
<note>
<chord/>
<pitch>
<step>A</step>
<alter>-1</alter>
<octave>4</octave>
</pitch>
<duration>16</duration>
<type>quarter</type>
<stem>up</stem>
</note>
</measure>
<measure number="4">
<note>
<pitch>
<step>E</step>
<alter>-1</alter>
<octave>4</octave>
</pitch>
<duration>16</duration>
<type>quarter</type>
<stem>up</stem>
<lyric number="1">
<syllabic>single</syllabic>
<text>son</text>
</lyric>
<lyric number="2">
<syllabic>end</syllabic>
<text>plit</text>
</lyric>
</note>
<note>
<chord/>
<pitch>
<step>B</step>
<alter>-1</alter>
<octave>4</octave>
</pitch>
<duration>16</duration>
<type>quarter</type>
<stem>up</stem>
</note>
<note>
<pitch>
<step>D</step>
<alter>-1</alter>
<octave>4</octave>
</pitch>
<duration>16</duration>
<type>quarter</type>
<stem>up</stem>
<lyric number="1">
<syllabic>single</syllabic>
<text>Grand</text>
</lyric>
<lyric number="2">
<syllabic>begin</syllabic>
<text>no</text>
</lyric>
</note>
<note>
<chord/>
<pitch>
<step>E</step>
<alter>-1</alter>
<octave>4</octave>
</pitch>
<duration>16</duration>
<type>quarter</type>
<stem>up</stem>
</note>
<note>
<pitch>
<step>E</step>
<alter>-1</alter>
<octave>4</octave>
</pitch>
<duration>16</duration>
<type>quarter</type>
<stem>up</stem>
<lyric number="1">
<syllabic>begin</syllabic>
<text>A</text>
</lyric>
<lyric number="2">
<syllabic>end</syllabic>
<text>tre</text>
</lyric>
</note>
<note>
<chord/>
<pitch>
<step>B</step>
<alter>-1</alter>
<octave>4</octave>
</pitch>
<duration>16</duration>
<type>quarter</type>
<stem>up</stem>
</note>
</measure>
<measure number="5">
<note>
<pitch>
<step>E</step>
<alter>-1</alter>
<octave>4</octave>
</pitch>
<duration>32</duration>
<type>half</type>
<stem>up</stem>
<lyric number="1">
<syllabic>end</syllabic>
<text>mour</text>
</lyric>
<lyric number="2">
<syllabic>single</syllabic>
<text>coeur;</text>
</lyric>
</note>
<note>
<chord/>
<pitch>
<step>C</step>
<octave>5</octave>
</pitch>
<duration>32</duration>
<type>half</type>
<stem>up</stem>
</note>
<note>
<pitch>
<step>E</step>
<alter>-1</alter>
<octave>4</octave>
</pitch>
<duration>16</duration>
<type>quarter</type>
<stem>up</stem>
<lyric number="1">
<syllabic>single</syllabic>
<text>Dans</text>
</lyric>
<lyric number="2">
<syllabic>begin</syllabic>
<text>Qu'im</text>
</lyric>
</note>
<note>
<chord/>
<pitch>
<step>C</step>
<octave>5</octave>
</pitch>
<duration>16</duration>
<type>quarter</type>
<stem>up</stem>
</note>
</measure>
<measure number="6">
<note>
<pitch>
<step>F</step>
<octave>4</octave>
</pitch>
<duration>16</duration>
<type>quarter</type>
<stem>up</stem>
<lyric number="1">
<syllabic>single</syllabic>
<text>mon</text>
</lyric>
<lyric number="2">
<syllabic>middle</syllabic>
<text>por</text>
</lyric>
</note>
<note>
<chord/>
<pitch>
<step>D</step>
<alter>-1</alter>
<octave>5</octave>
</pitch>
<duration>16</duration>
<type>quarter</type>
<stem>up</stem>
</note>
<note>
<pitch>
<step>D</step>
<alter>-1</alter>
<octave>4</octave>
</pitch>
<duration>16</duration>
<type>quarter</type>
<stem>up</stem>
<lyric number="1">
<syllabic>begin</syllabic>
<text>â</text>
</lyric>
<lyric number="2">
<syllabic>end</syllabic>
<text>te</text>
</lyric>
</note>
<note>
<chord/>
<pitch>
<step>F</step>
<octave>4</octave>
</pitch>
<duration>16</duration>
<type>quarter</type>
<stem>up</stem>
</note>
<note>
<pitch>
<step>F</step>
<octave>4</octave>
</pitch>
<duration>16</duration>
<type>quarter</type>
<stem>up</stem>
<lyric number="1">
<syllabic>end</syllabic>
<text>me</text>
</lyric>
<lyric number="2">
<syllabic>single</syllabic>
<text>qu'on</text>
</lyric>
</note>
<note>
<chord/>
<pitch>
<step>D</step>
<alter>-1</alter>
<octave>5</octave>
</pitch>
<duration>16</duration>
<type>quarter</type>
<stem>up</stem>
</note>
</measure>
<measure number="7">
<note>
<pitch>
<step>E</step>
<alter>-1</alter>
<octave>4</octave>
</pitch>
<duration>16</duration>
<type>quarter</type>
<stem>up</stem>
<lyric number="1">
<syllabic>begin</syllabic>
<text>noi</text>
</lyric>
<lyric number="2">
<syllabic>begin</syllabic>
<text>voi</text>
</lyric>
</note>
<note>
<chord/>
<pitch>
<step>C</step>
<octave>5</octave>
</pitch>
<duration>16</duration>
<type>quarter</type>
<stem>up</stem>
</note>
<note>
<pitch>
<step>E</step>
<alter>-1</alter>
<octave>4</octave>
</pitch>
<duration>16</duration>
<type>quarter</type>
<stem>up</stem>
<lyric number="1">
<syllabic>end</syllabic>
<text>re</text>
</lyric>
<lyric number="2">
<syllabic>end</syllabic>
<text>e</text>
</lyric>
</note>
<note>
<chord/>
<pitch>
<step>A</step>
<alter>-1</alter>
<octave>4</octave>
</pitch>
<duration>16</duration>
<type>quarter</type>
<stem>up</stem>
</note>
<note>
<pitch>
<step>E</step>
<alter>-1</alter>
<octave>4</octave>
</pitch>
<duration>16</duration>
<type>quarter</type>
<stem>up</stem>
<lyric number="1">
<syllabic>single</syllabic>
<text>S'est</text>
</lyric>
<lyric number="2">
<syllabic>single</syllabic>
<text>Tout</text>
</lyric>
</note>
<note>
<chord/>
<pitch>
<step>C</step>
<octave>5</octave>
</pitch>
<duration>16</duration>
<type>quarter</type>
<stem>up</stem>
</note>
</measure>
<measure number="8">
<note>
<pitch>
<step>D</step>
<octave>4</octave>
</pitch>
<duration>16</duration>
<voice>1</voice>
<type>quarter</type>
<accidental>natural</accidental>
<stem>up</stem>
<lyric number="1">
<syllabic>begin</syllabic>
<text>le</text>
</lyric>
<lyric number="2">
<syllabic>begin</syllabic>
<text>no</text>
</lyric>
</note>
<note>
<chord/>
<pitch>
<step>C</step>
<octave>5</octave>
</pitch>
<duration>16</duration>
<voice>1</voice>
<type>quarter</type>
<stem>up</stem>
</note>
<note>
<pitch>
<step>D</step>
<octave>4</octave>
</pitch>
<duration>16</duration>
<voice>1</voice>
<type>quarter</type>
<stem>up</stem>
<lyric number="1">
<syllabic>end</syllabic>
<text>vé</text>
</lyric>
<lyric number="2">
<syllabic>end</syllabic>
<text>tre</text>
</lyric>
</note>
<note>
<chord/>
<pitch>
<step>B</step>
<alter>-1</alter>
<octave>4</octave>
</pitch>
<duration>16</duration>
<voice>1</voice>
<type>quarter</type>
<stem>up</stem>
</note>
<note>
<pitch>
<step>F</step>
<octave>4</octave>
</pitch>
<duration>16</duration>
<voice>1</voice>
<type>quarter</type>
<stem>up</stem>
<lyric number="1">
<syllabic>single</syllabic>
<text>le</text>
</lyric>
<lyric number="2">
<syllabic>begin</syllabic>
<text>bon</text>
</lyric>
</note>
<backup>
<duration>48</duration>
</backup>
<forward>
<duration>32</duration>
<voice>2</voice>
</forward>
<note>
<pitch>
<step>F</step>
<octave>4</octave>
</pitch>
<duration>16</duration>
<voice>2</voice>
<type>quarter</type>
<stem>down</stem>
</note>
</measure>
<measure number="9">
<note>
<pitch>
<step>E</step>
<alter>-1</alter>
<octave>4</octave>
</pitch>
<duration>32</duration>
<type>half</type>
<stem>up</stem>
<lyric number="1">
<syllabic>single</syllabic>
<text>jour.</text>
</lyric>
<lyric number="2">
<syllabic>end</syllabic>
<text>heur,</text>
</lyric>
</note>
<note>
<chord/>
<pitch>
<step>B</step>
<alter>-1</alter>
<octave>4</octave>
</pitch>
<duration>32</duration>
<type>half</type>
<stem>up</stem>
</note>
<direction>
<direction-type>
<segno/>
</direction-type>
<sound segno=""/>
</direction>
<note>
<pitch>
<step>D</step>
<alter>-1</alter>
<octave>4</octave>
</pitch>
<duration>16</duration>
<type>quarter</type>
<accidental>flat</accidental>
<stem>up</stem>
<lyric number="1">
<syllabic>begin</syllabic>
<text>Jé</text>
</lyric>
<lyric number="2">
<syllabic>begin</syllabic>
<text>Se</text>
</lyric>
</note>
<note>
<chord/>
<pitch>
<step>E</step>
<alter>-1</alter>
<octave>4</octave>
</pitch>
<duration>16</duration>
<type>quarter</type>
<stem>up</stem>
</note>
</measure>
<measure number="10">
<note>
<pitch>
<step>E</step>
<alter>-1</alter>
<octave>4</octave>
</pitch>
<duration>32</duration>
<voice>1</voice>
<type>half</type>
<stem>up</stem>
<lyric number="1">
<syllabic>end</syllabic>
<text>sus</text>
</lyric>
<lyric number="2">
<syllabic>end</syllabic>
<text>lon</text>
</lyric>
</note>
<note>
<pitch>
<step>E</step>
<alter>-1</alter>
<octave>4</octave>
</pitch>
<duration>16</duration>
<voice>1</voice>
<type>quarter</type>
<notations>
<slur type="stop" number="1"/>
</notations>
</note>
<note>
<pitch>
<step>D</step>
<alter>-1</alter>
<octave>4</octave>
</pitch>
<duration>8</duration>
<voice>1</voice>
<type>eighth</type>
<stem>up</stem>
<lyric number="1">
<syllabic>single</syllabic>
<text>à</text>
</lyric>
<lyric number="2">
<syllabic>single</syllabic>
<text>sa</text>
</lyric>
</note>
<note>
<chord/>
<pitch>
<step>F</step>
<octave>4</octave>
</pitch>
<duration>8</duration>
<voice>1</voice>
<type>eighth</type>
<stem>up</stem>
</note>
<note>
<pitch>
<step>D</step>
<alter>-1</alter>
<octave>4</octave>
</pitch>
<duration>8</duration>
<voice>1</voice>
<type>eighth</type>
<stem>up</stem>
<lyric number="1">
<syllabic>single</syllabic>
<text>ma</text>
</lyric>
<lyric number="2">
<syllabic>begin</syllabic>
<text>pro</text>
</lyric>
</note>
<note>
<chord/>
<pitch>
<step>G</step>
<octave>4</octave>
</pitch>
<duration>8</duration>
<voice>1</voice>
<type>eighth</type>
<stem>up</stem>
</note>
<backup>
<duration>64</duration>
</backup>
<note>
<pitch>
<step>C</step>
<octave>4</octave>
</pitch>
<duration>16</duration>
<voice>2</voice>
<type>quarter</type>
<stem>down</stem>
<notations>
<slur type="start" number="2"/>
</notations>
</note>
<forward>
<duration>16</duration>
<voice>2</voice>
</forward>
</measure>
<measure number="11">
<note>
<pitch>
<step>C</step>
<octave>4</octave>
</pitch>
<duration>16</duration>
<type>quarter</type>
<stem>up</stem>
<lyric number="1">
<syllabic>begin</syllabic>
<text>pla</text>
</lyric>
<lyric number="2">
<syllabic>middle</syllabic>
<text>mes</text>
</lyric>
</note>
<note>
<chord/>
<pitch>
<step>A</step>
<alter>-1</alter>
<octave>4</octave>
</pitch>
<duration>16</duration>
<type>quarter</type>
<stem>up</stem>
</note>
<note>
<pitch>
<step>C</step>
<octave>4</octave>
</pitch>
<duration>16</duration>
<type>quarter</type>
<stem>up</stem>
<lyric number="1">
<syllabic>end</syllabic>
<text>ce,</text>
</lyric>
<lyric number="2">
<syllabic>end</syllabic>
<text>se,</text>
</lyric>
</note>
<note>
<chord/>
<pitch>
<step>E</step>
<alter>-1</alter>
<octave>4</octave>
</pitch>
<duration>16</duration>
<type>quarter</type>
<stem>up</stem>
</note>
<note>
<pitch>
<step>E</step>
<alter>-1</alter>
<octave>4</octave>
</pitch>
<duration>16</duration>
<type>quarter</type>
<stem>up</stem>
<lyric number="1">
<syllabic>begin</syllabic>
<text>Mou</text>
</lyric>
<lyric number="2">
<syllabic>begin</syllabic>
<text>Jé</text>
</lyric>
</note>
<note>
<chord/>
<pitch>
<step>A</step>
<alter>-1</alter>
<octave>4</octave>
</pitch>
<duration>16</duration>
<type>quarter</type>
<stem>up</stem>
</note>
</measure>
<measure number="12">
<note>
<pitch>
<step>E</step>
<alter>-1</alter>
<octave>4</octave>
</pitch>
<duration>16</duration>
<voice>1</voice>
<type>quarter</type>
<stem>up</stem>
<lyric number="1">
<syllabic>end</syllabic>
<text>rut</text>
</lyric>
<lyric number="2">
<syllabic>end</syllabic>
<text>sus</text>
</lyric>
</note>
<note>
<chord/>
<pitch>
<step>B</step>
<alter>-1</alter>
<octave>4</octave>
</pitch>
<duration>16</duration>
<voice>1</voice>
<type>quarter</type>
<stem>up</stem>
</note>
<note>
<pitch>
<step>E</step>
<alter>-1</alter>
<octave>4</octave>
</pitch>
<duration>16</duration>
<voice>1</voice>
<type>quarter</type>
<stem>up</stem>
<lyric number="1">
<syllabic>single</syllabic>
<text>sur</text>
</lyric>
<lyric number="2">
<syllabic>begin</syllabic>
<text>re</text>
</lyric>
</note>
<note>
<pitch>
<step>E</step>
<alter>-1</alter>
<octave>4</octave>
</pitch>
<duration>16</duration>
<voice>1</voice>
<type>quarter</type>
<stem>up</stem>
<lyric number="1">
<syllabic>single</syllabic>
<text>la</text>
</lyric>
<lyric number="2">
<syllabic>middle</syllabic>
<text>vien</text>
</lyric>
</note>
<note>
<chord/>
<pitch>
<step>B</step>
<alter>-1</alter>
<octave>4</octave>
</pitch>
<duration>16</duration>
<voice>1</voice>
<type>quarter</type>
<stem>up</stem>
</note>
<backup>
<duration>48</duration>
</backup>
<forward>
<duration>16</duration>
<voice>2</voice>
</forward>
<note>
<pitch>
<step>E</step>
<alter>-1</alter>
<octave>4</octave>
</pitch>
<duration>16</duration>
<voice>2</voice>
<type>quarter</type>
<stem>down</stem>
</note>
<forward>
<duration>16</duration>
<voice>2</voice>
</forward>
</measure>
<measure number="13">
<note>
<pitch>
<step>E</step>
<alter>-1</alter>
<octave>4</octave>
</pitch>
<duration>32</duration>
<type>half</type>
<stem>up</stem>
<lyric number="1">
<syllabic>single</syllabic>
<text>Croix,</text>
</lyric>
<lyric number="2">
<syllabic>end</syllabic>
<text>dra</text>
</lyric>
</note>
<note>
<chord/>
<pitch>
<step>C</step>
<octave>5</octave>
</pitch>
<duration>32</duration>
<type>half</type>
<stem>up</stem>
</note>
<note>
<pitch>
<step>G</step>
<alter>-1</alter>
<octave>4</octave>
</pitch>
<duration>16</duration>
<type>quarter</type>
<accidental>flat</accidental>
<stem>up</stem>
<lyric number="1">
<syllabic>single</syllabic>
<text>Il</text>
</lyric>
<lyric number="2">
<syllabic>single</syllabic>
<text>Deuil</text>
</lyric>
</note>
<note>
<chord/>
<pitch>
<step>C</step>
<octave>5</octave>
</pitch>
<duration>16</duration>
<type>quarter</type>
<stem>up</stem>
</note>
</measure>
<measure number="14">
<note>
<pitch>
<step>F</step>
<octave>4</octave>
</pitch>
<duration>16</duration>
<type>quarter</type>
<stem>down</stem>
<lyric number="1">
<syllabic>begin</syllabic>
<text>m'of</text>
</lyric>
<lyric number="2">
<syllabic>single</syllabic>
<text>en</text>
</lyric>
</note>
<note>
<chord/>
<pitch>
<step>E</step>
<alter>-1</alter>
<octave>5</octave>
</pitch>
<duration>16</duration>
<type>quarter</type>
<stem>down</stem>
</note>
<note>
<pitch>
<step>F</step>
<octave>4</octave>
</pitch>
<duration>16</duration>
<type>quarter</type>
<stem>up</stem>
<lyric number="1">
<syllabic>end</syllabic>
<text>fre</text>
</lyric>
<lyric number="2">
<syllabic>begin</syllabic>
<text>al</text>
</lyric>
</note>
<note>
<chord/>
<pitch>
<step>D</step>
<alter>-1</alter>
<octave>5</octave>
</pitch>
<duration>16</duration>
<type>quarter</type>
<stem>up</stem>
</note>
<note>
<pitch>
<step>F</step>
<octave>4</octave>
</pitch>
<duration>16</duration>
<type>quarter</type>
<stem>up</stem>
<lyric number="1">
<syllabic>single</syllabic>
<text>sa</text>
</lyric>
<lyric number="2">
<syllabic>middle</syllabic>
<text>lé</text>
</lyric>
</note>
<note>
<chord/>
<pitch>
<step>B</step>
<alter>-1</alter>
<octave>4</octave>
</pitch>
<duration>16</duration>
<type>quarter</type>
<stem>up</stem>
</note>
</measure>
<measure number="15">
<note>
<pitch>
<step>E</step>
<alter>-1</alter>
<octave>4</octave>
</pitch>
<duration>16</duration>
<type>quarter</type>
<stem>up</stem>
<lyric number="1">
<syllabic>begin</syllabic>
<text>Grâ</text>
</lyric>
<lyric number="2">
<syllabic>middle</syllabic>
<text>gres</text>
</lyric>
</note>
<note>
<chord/>
<pitch>
<step>A</step>
<alter>-1</alter>
<octave>4</octave>
</pitch>
<duration>16</duration>
<type>quarter</type>
<stem>up</stem>
</note>
<note>
<pitch>
<step>E</step>
<alter>-1</alter>
<octave>4</octave>
</pitch>
<duration>16</duration>
<type>quarter</type>
<stem>up</stem>
<lyric number="1">
<syllabic>end</syllabic>
<text>ce</text>
</lyric>
<lyric number="2">
<syllabic>end</syllabic>
<text>se,</text>
</lyric>
</note>
<note>
<chord/>
<pitch>
<step>G</step>
<octave>4</octave>
</pitch>
<duration>16</duration>
<type>quarter</type>
<stem>up</stem>
</note>
<note>
<pitch>
<step>E</step>
<alter>-1</alter>
<octave>4</octave>
</pitch>
<duration>16</duration>
<type>quarter</type>
<stem>up</stem>
<lyric number="1">
<syllabic>single</syllabic>
<text>Et</text>
</lyric>
<lyric number="2">
<syllabic>single</syllabic>
<text>Quand</text>
</lyric>
</note>
<note>
<chord/>
<pitch>
<step>A</step>
<alter>-1</alter>
<octave>4</octave>
</pitch>
<duration>16</duration>
<type>quarter</type>
<stem>up</stem>
</note>
</measure>
<measure number="16">
<note>
<pitch>
<step>E</step>
<alter>-1</alter>
<octave>4</octave>
</pitch>
<duration>16</duration>
<type>quarter</type>
<stem>up</stem>
<lyric number="1">
<syllabic>single</syllabic>
<text>je</text>
</lyric>
<lyric number="2">
<syllabic>single</syllabic>
<text>Il</text>
</lyric>
</note>
<note>
<chord/>
<pitch>
<step>C</step>
<octave>5</octave>
</pitch>
<duration>16</duration>
<type>quarter</type>
<stem>up</stem>
</note>
<note>
<pitch>
<step>E</step>
<alter>-1</alter>
<octave>4</octave>
</pitch>
<duration>16</duration>
<type>quarter</type>
<stem>up</stem>
<lyric number="1">
<syllabic>single</syllabic>
<text>le</text>
</lyric>
<lyric number="2">
<syllabic>begin</syllabic>
<text>re</text>
</lyric>
</note>
<note>
<chord/>
<pitch>
<step>C</step>
<octave>5</octave>
</pitch>
<duration>16</duration>
<type>quarter</type>
<stem>up</stem>
</note>
<note>
<pitch>
<step>D</step>
<alter>-1</alter>
<octave>4</octave>
</pitch>
<duration>16</duration>
<type>quarter</type>
<stem>up</stem>
<lyric number="1">
<syllabic>begin</syllabic>
<text>re</text>
</lyric>
<lyric number="2">
<syllabic>middle</syllabic>
<text>vien</text>
</lyric>
</note>
<note>
<chord/>
<pitch>
<step>B</step>
<alter>-1</alter>
<octave>4</octave>
</pitch>
<duration>16</duration>
<type>quarter</type>
<stem>up</stem>
</note>
</measure>
<measure number="17">
<note>
<pitch>
<step>C</step>
<octave>4</octave>
</pitch>
<duration>32</duration>
<type>half</type>
<stem>up</stem>
<lyric number="1">
<syllabic>end</syllabic>
<text>çois!</text>
</lyric>
<lyric number="2">
<syllabic>end</syllabic>
<text>dra.</text>
</lyric>
</note>
<note>
<chord/>
<pitch>
<step>A</step>
<alter>-1</alter>
<octave>4</octave>
</pitch>
<duration>32</duration>
<type>half</type>
<stem>up</stem>
</note>
<direction placement="above">
<direction-type>
<words relative-y="60">Fine</words>
</direction-type>
<sound fine=""/>
</direction>
</measure>
<measure number="18">
<barline location="left">
<bar-style>heavy-light</bar-style>
</barline>
<note>
<pitch>
<step>E</step>
<alter>-1</alter>
<octave>4</octave>
</pitch>
<duration>12</duration>
<type>eighth</type>
<dot/>
<stem>up</stem>
<lyric number="1">
<syllabic>single</syllabic>
<text>Gloire</text>
</lyric>
<lyric number="2">
<syllabic>single</syllabic>
<text>Gloire</text>
</lyric>
</note>
<note>
<chord/>
<pitch>
<step>C</step>
<octave>5</octave>
</pitch>
<duration>12</duration>
<type>eighth</type>
<dot/>
<stem>up</stem>
</note>
<note>
<pitch>
<step>E</step>
<alter>-1</alter>
<octave>4</octave>
</pitch>
<duration>4</duration>
<type>16th</type>
<stem>up</stem>
<lyric number="1">
<syllabic>single</syllabic>
<text>à</text>
</lyric>
<lyric number="2">
<syllabic>single</syllabic>
<text>à</text>
</lyric>
</note>
<note>
<chord/>
<pitch>
<step>D</step>
<alter>-1</alter>
<octave>5</octave>
</pitch>
<duration>4</duration>
<type>16th</type>
<stem>up</stem>
</note>
</measure>
<measure number="19">
<note>
<pitch>
<step>E</step>
<alter>-1</alter>
<octave>4</octave>
</pitch>
<duration>32</duration>
<type>half</type>
<stem>up</stem>
<lyric number="1">
<syllabic>single</syllabic>
<text>Dieu!</text>
</lyric>
<lyric number="2">
<syllabic>single</syllabic>
<text>Dieu!</text>
</lyric>
</note>
<note>
<chord/>
<pitch>
<step>E</step>
<alter>-1</alter>
<octave>5</octave>
</pitch>
<duration>32</duration>
<type>half</type>
<stem>up</stem>
</note>
<note>
<pitch>
<step>A</step>
<alter>-1</alter>
<octave>4</octave>
</pitch>
<duration>12</duration>
<type>eighth</type>
<dot/>
<stem>down</stem>
<lyric number="1">
<syllabic>single</syllabic>
<text>Gloire</text>
</lyric>
<lyric number="2">
<syllabic>single</syllabic>
<text>Gloire</text>
</lyric>
</note>
<note>
<chord/>
<pitch>
<step>C</step>
<octave>5</octave>
</pitch>
<duration>12</duration>
<type>eighth</type>
<dot/>
<stem>down</stem>
</note>
<note>
<pitch>
<step>G</step>
<octave>4</octave>
</pitch>
<duration>4</duration>
<type>16th</type>
<stem>down</stem>
<lyric number="1">
<syllabic>single</syllabic>
<text>à</text>
</lyric>
<lyric number="2">
<syllabic>single</syllabic>
<text>à</text>
</lyric>
</note>
<note>
<chord/>
<pitch>
<step>D</step>
<alter>-1</alter>
<octave>5</octave>
</pitch>
<duration>4</duration>
<type>16th</type>
<stem>down</stem>
</note>
</measure>
<measure number="20">
<note>
<pitch>
<step>A</step>
<alter>-1</alter>
<octave>4</octave>
</pitch>
<duration>32</duration>
<type>half</type>
<stem>down</stem>
<lyric number="1">
<syllabic>single</syllabic>
<text>Dieu!</text>
</lyric>
<lyric number="2">
<syllabic>single</syllabic>
<text>Dieu!</text>
</lyric>
</note>
<note>
<chord/>
<pitch>
<step>E</step>
<alter>-1</alter>
<octave>5</octave>
</pitch>
<duration>32</duration>
<type>half</type>
<stem>down</stem>
</note>
<note>
<pitch>
<step>E</step>
<alter>-1</alter>
<octave>4</octave>
</pitch>
<duration>12</duration>
<type>eighth</type>
<dot/>
<stem>up</stem>
<lyric number="1">
<syllabic>single</syllabic>
<text>Terre,</text>
</lyric>
<lyric number="2">
<syllabic>single</syllabic>
<text>Terre,</text>
</lyric>
</note>
<note>
<chord/>
<pitch>
<step>E</step>
<alter>-1</alter>
<octave>5</octave>
</pitch>
<duration>12</duration>
<type>eighth</type>
<dot/>
<stem>up</stem>
</note>
<note>
<pitch>
<step>E</step>
<alter>-1</alter>
<octave>4</octave>
</pitch>
<duration>4</duration>
<type>16th</type>
<stem>up</stem>
<lyric number="1">
<syllabic>begin</syllabic>
<text>é</text>
</lyric>
<lyric number="2">
<syllabic>begin</syllabic>
<text>é</text>
</lyric>
</note>
<note>
<chord/>
<pitch>
<step>C</step>
<octave>5</octave>
</pitch>
<duration>4</duration>
<type>16th</type>
<stem>up</stem>
</note>
</measure>
<measure number="21">
<note>
<pitch>
<step>E</step>
<alter>-1</alter>
<octave>4</octave>
</pitch>
<duration>16</duration>
<type>quarter</type>
<stem>up</stem>
<lyric number="1">
<syllabic>middle</syllabic>
<text>cou</text>
</lyric>
<lyric number="2">
<syllabic>middle</syllabic>
<text>cou</text>
</lyric>
</note>
<note>
<chord/>
<pitch>
<step>A</step>
<alter>-1</alter>
<octave>4</octave>
</pitch>
<duration>16</duration>
<type>quarter</type>
<stem>up</stem>
</note>
<note>
<pitch>
<step>E</step>
<alter>-1</alter>
<octave>4</octave>
</pitch>
<duration>16</duration>
<type>quarter</type>
<stem>up</stem>
<lyric number="1">
<syllabic>end</syllabic>
<text>te</text>
</lyric>
<lyric number="2">
<syllabic>end</syllabic>
<text>te</text>
</lyric>
</note>
<note>
<chord/>
<pitch>
<step>B</step>
<alter>-1</alter>
<octave>4</octave>
</pitch>
<duration>16</duration>
<type>quarter</type>
<stem>up</stem>
</note>
<note>
<pitch>
<step>E</step>
<alter>-1</alter>
<octave>4</octave>
</pitch>
<duration>16</duration>
<type>quarter</type>
<stem>up</stem>
<lyric number="1">
<syllabic>single</syllabic>
<text>sa</text>
</lyric>
<lyric number="2">
<syllabic>single</syllabic>
<text>sa</text>
</lyric>
</note>
<note>
<chord/>
<pitch>
<step>C</step>
<octave>5</octave>
</pitch>
<duration>16</duration>
<type>quarter</type>
<stem>up</stem>
</note>
</measure>
<measure number="22">
<note>
<pitch>
<step>E</step>
<alter>-1</alter>
<octave>4</octave>
</pitch>
<duration>32</duration>
<type>half</type>
<stem>up</stem>
<lyric number="1">
<syllabic>single</syllabic>
<text>voix!</text>
</lyric>
<lyric number="2">
<syllabic>single</syllabic>
<text>voix!</text>
</lyric>
</note>
<note>
<chord/>
<pitch>
<step>B</step>
<alter>-1</alter>
<octave>4</octave>
</pitch>
<duration>32</duration>
<type>half</type>
<stem>up</stem>
</note>
<note>
<pitch>
<step>E</step>
<alter>-1</alter>
<octave>4</octave>
</pitch>
<duration>12</duration>
<type>eighth</type>
<dot/>
<stem>up</stem>
<lyric number="1">
<syllabic>single</syllabic>
<text>Gloire</text>
</lyric>
<lyric number="2">
<syllabic>single</syllabic>
<text>Gloire</text>
</lyric>
</note>
<note>
<chord/>
<pitch>
<step>B</step>
<alter>-1</alter>
<octave>4</octave>
</pitch>
<duration>12</duration>
<type>eighth</type>
<dot/>
<stem>up</stem>
</note>
<note>
<pitch>
<step>E</step>
<alter>-1</alter>
<octave>4</octave>
</pitch>
<duration>4</duration>
<type>16th</type>
<stem>up</stem>
<lyric number="1">
<syllabic>single</syllabic>
<text>à</text>
</lyric>
<lyric number="2">
<syllabic>single</syllabic>
<text>à</text>
</lyric>
</note>
<note>
<chord/>
<pitch>
<step>C</step>
<octave>5</octave>
</pitch>
<duration>4</duration>
<type>16th</type>
<stem>up</stem>
</note>
</measure>
<measure number="23">
<note>
<pitch>
<step>E</step>
<alter>-1</alter>
<octave>4</octave>
</pitch>
<duration>32</duration>
<type>half</type>
<stem>up</stem>
<lyric number="1">
<syllabic>single</syllabic>
<text>Dieu!</text>
</lyric>
<lyric number="2">
<syllabic>single</syllabic>
<text>Dieu!</text>
</lyric>
</note>
<note>
<chord/>
<pitch>
<step>D</step>
<alter>-1</alter>
<octave>5</octave>
</pitch>
<duration>32</duration>
<type>half</type>
<stem>up</stem>
</note>
<note>
<pitch>
<step>E</step>
<alter>-1</alter>
<octave>4</octave>
</pitch>
<duration>12</duration>
<type>eighth</type>
<dot/>
<stem>up</stem>
<lyric number="1">
<syllabic>single</syllabic>
<text>Gloire</text>
</lyric>
<lyric number="2">
<syllabic>single</syllabic>
<text>Gloire</text>
</lyric>
</note>
<note>
<chord/>
<pitch>
<step>B</step>
<alter>-1</alter>
<octave>4</octave>
</pitch>
<duration>12</duration>
<type>eighth</type>
<dot/>
<stem>up</stem>
</note>
<note>
<pitch>
<step>E</step>
<alter>-1</alter>
<octave>4</octave>
</pitch>
<duration>4</duration>
<type>16th</type>
<stem>up</stem>
<lyric number="1">
<syllabic>single</syllabic>
<text>à</text>
</lyric>
<lyric number="2">
<syllabic>single</syllabic>
<text>à</text>
</lyric>
</note>
<note>
<chord/>
<pitch>
<step>C</step>
<octave>5</octave>
</pitch>
<duration>4</duration>
<type>16th</type>
<stem>up</stem>
</note>
</measure>
<measure number="24">
<note>
<pitch>
<step>E</step>
<alter>-1</alter>
<octave>4</octave>
</pitch>
<duration>32</duration>
<type>half</type>
<stem>up</stem>
<lyric number="1">
<syllabic>single</syllabic>
<text>Dieu!</text>
</lyric>
<lyric number="2">
<syllabic>single</syllabic>
<text>Dieu!</text>
</lyric>
</note>
<note>
<chord/>
<pitch>
<step>D</step>
<alter>-1</alter>
<octave>5</octave>
</pitch>
<duration>32</duration>
<type>half</type>
<stem>up</stem>
</note>
<note>
<pitch>
<step>E</step>
<alter>-1</alter>
<octave>4</octave>
</pitch>
<duration>8</duration>
<type>eighth</type>
<stem>up</stem>
<lyric number="1">
<syllabic>begin</syllabic>
<text>Mon</text>
</lyric>
<lyric number="2">
<syllabic>begin</syllabic>
<text>Mon</text>
</lyric>
</note>
<note>
<chord/>
<pitch>
<step>D</step>
<alter>-1</alter>
<octave>5</octave>
</pitch>
<duration>8</duration>
<type>eighth</type>
<stem>up</stem>
</note>
<note>
<pitch>
<step>E</step>
<alter>-1</alter>
<octave>4</octave>
</pitch>
<duration>8</duration>
<type>eighth</type>
<stem>up</stem>
<lyric number="1">
<syllabic>end</syllabic>
<text>de,</text>
</lyric>
<lyric number="2">
<syllabic>end</syllabic>
<text>de,</text>
</lyric>
</note>
<note>
<chord/>
<pitch>
<step>B</step>
<alter>-1</alter>
<octave>4</octave>
</pitch>
<duration>8</duration>
<type>eighth</type>
<stem>up</stem>
</note>
</measure>
<measure number="25">
<note>
<pitch>
<step>E</step>
<alter>-1</alter>
<octave>4</octave>
</pitch>
<duration>16</duration>
<type>quarter</type>
<stem>up</stem>
<lyric number="1">
<syllabic>begin</syllabic>
<text>ré</text>
</lyric>
<lyric number="2">
<syllabic>begin</syllabic>
<text>ré</text>
</lyric>
</note>
<note>
<chord/>
<pitch>
<step>E</step>
<alter>-1</alter>
<octave>5</octave>
</pitch>
<duration>16</duration>
<type>quarter</type>
<stem>up</stem>
</note>
<note>
<pitch>
<step>E</step>
<alter>-1</alter>
<octave>4</octave>
</pitch>
<duration>16</duration>
<type>quarter</type>
<stem>up</stem>
<lyric number="1">
<syllabic>middle</syllabic>
<text>jou</text>
</lyric>
<lyric number="2">
<syllabic>middle</syllabic>
<text>jou</text>
</lyric>
</note>
<note>
<chord/>
<pitch>
<step>E</step>
<alter>-1</alter>
<octave>5</octave>
</pitch>
<duration>16</duration>
<type>quarter</type>
<stem>up</stem>
</note>
<note>
<pitch>
<step>E</step>
<alter>-1</alter>
<octave>4</octave>
</pitch>
<duration>16</duration>
<type>quarter</type>
<stem>up</stem>
<lyric number="1">
<syllabic>middle</syllabic>
<text>is</text>
</lyric>
<lyric number="2">
<syllabic>middle</syllabic>
<text>is</text>
</lyric>
</note>
<note>
<chord/>
<pitch>
<step>D</step>
<alter>-1</alter>
<octave>5</octave>
</pitch>
<duration>16</duration>
<type>quarter</type>
<stem>up</stem>
</note>
</measure>
<measure number="26">
<note>
<pitch>
<step>E</step>
<alter>-1</alter>
<octave>4</octave>
</pitch>
<duration>32</duration>
<type>half</type>
<stem>up</stem>
<lyric number="1">
<syllabic>end</syllabic>
<text>toi!</text>
</lyric>
<lyric number="2">
<syllabic>end</syllabic>
<text>toi!</text>
</lyric>
</note>
<note>
<chord/>
<pitch>
<step>C</step>
<octave>5</octave>
</pitch>
<duration>32</duration>
<type>half</type>
<stem>up</stem>
</note>
</measure>
<measure number="27">
<barline location="left">
<bar-style>heavy-light</bar-style>
</barline>
<note>
<pitch>
<step>D</step>
<alter>-1</alter>
<octave>4</octave>
</pitch>
<duration>16</duration>
<type>quarter</type>
<accidental>flat</accidental>
<stem>up</stem>
<lyric number="1">
<syllabic>single</syllabic>
<text>Oh!</text>
</lyric>
<lyric number="2">
<syllabic>single</syllabic>
<text>Oh!</text>
</lyric>
</note>
<note>
<chord/>
<pitch>
<step>E</step>
<alter>-1</alter>
<octave>4</octave>
</pitch>
<duration>16</duration>
<type>quarter</type>
<stem>up</stem>
</note>
</measure>
<measure number="28">
<note>
<pitch>
<step>E</step>
<alter>-1</alter>
<octave>4</octave>
</pitch>
<duration>32</duration>
<voice>1</voice>
<type>half</type>
<stem>up</stem>
<lyric number="1">
<syllabic>begin</syllabic>
<text>ve</text>
</lyric>
<lyric number="2">
<syllabic>begin</syllabic>
<text>ve</text>
</lyric>
</note>
<note>
<pitch>
<step>E</step>
<alter>-1</alter>
<octave>4</octave>
</pitch>
<duration>16</duration>
<voice>1</voice>
<type>quarter</type>
<notations>
<slur type="stop" number="1"/>
</notations>
</note>
<note>
<pitch>
<step>D</step>
<alter>-1</alter>
<octave>4</octave>
</pitch>
<duration>8</duration>
<voice>1</voice>
<type>eighth</type>
<stem>up</stem>
<lyric number="1">
<syllabic>end</syllabic>
<text>nez</text>
</lyric>
<lyric number="2">
<syllabic>end</syllabic>
<text>nez</text>
</lyric>
</note>
<note>
<chord/>
<pitch>
<step>F</step>
<octave>4</octave>
</pitch>
<duration>8</duration>
<voice>1</voice>
<type>eighth</type>
<stem>up</stem>
</note>
<note>
<pitch>
<step>D</step>
<alter>-1</alter>
<octave>4</octave>
</pitch>
<duration>8</duration>
<voice>1</voice>
<type>eighth</type>
<stem>up</stem>
<lyric number="1">
<syllabic>single</syllabic>
<text>au</text>
</lyric>
<lyric number="2">
<syllabic>single</syllabic>
<text>au</text>
</lyric>
</note>
<note>
<chord/>
<pitch>
<step>G</step>
<octave>4</octave>
</pitch>
<duration>8</duration>
<voice>1</voice>
<type>eighth</type>
<stem>up</stem>
</note>
<backup>
<duration>64</duration>
</backup>
<note>
<pitch>
<step>C</step>
<octave>4</octave>
</pitch>
<duration>16</duration>
<voice>2</voice>
<type>quarter</type>
<stem>down</stem>
<notations>
<slur type="start" number="2"/>
</notations>
</note>
<forward>
<duration>16</duration>
<voice>2</voice>
</forward>
</measure>
<measure number="29">
<note>
<pitch>
<step>C</step>
<octave>4</octave>
</pitch>
<duration>16</duration>
<type>quarter</type>
<stem>up</stem>
<lyric number="1">
<syllabic>begin</syllabic>
<text>Pè</text>
</lyric>
<lyric number="2">
<syllabic>begin</syllabic>
<text>Pè</text>
</lyric>
</note>
<note>
<chord/>
<pitch>
<step>A</step>
<alter>-1</alter>
<octave>4</octave>
</pitch>
<duration>16</duration>
<type>quarter</type>
<stem>up</stem>
</note>
<note>
<pitch>
<step>C</step>
<octave>4</octave>
</pitch>
<duration>16</duration>
<type>quarter</type>
<stem>up</stem>
<lyric number="1">
<syllabic>end</syllabic>
<text>re,</text>
</lyric>
<lyric number="2">
<syllabic>end</syllabic>
<text>re,</text>
</lyric>
</note>
<note>
<chord/>
<pitch>
<step>E</step>
<alter>-1</alter>
<octave>4</octave>
</pitch>
<duration>16</duration>
<type>quarter</type>
<stem>up</stem>
</note>
<note>
<pitch>
<step>E</step>
<alter>-1</alter>
<octave>4</octave>
</pitch>
<duration>16</duration>
<type>quarter</type>
<stem>up</stem>
<lyric number="1">
<syllabic>begin</syllabic>
<text>Jé</text>
</lyric>
<lyric number="2">
<syllabic>begin</syllabic>
<text>Jé</text>
</lyric>
</note>
<note>
<chord/>
<pitch>
<step>A</step>
<alter>-1</alter>
<octave>4</octave>
</pitch>
<duration>16</duration>
<type>quarter</type>
<stem>up</stem>
</note>
</measure>
<measure number="30">
<note>
<pitch>
<step>E</step>
<alter>-1</alter>
<octave>4</octave>
</pitch>
<duration>16</duration>
<voice>1</voice>
<type>quarter</type>
<stem>up</stem>
<lyric number="1">
<syllabic>end</syllabic>
<text>sus</text>
</lyric>
<lyric number="2">
<syllabic>end</syllabic>
<text>sus</text>
</lyric>
</note>
<note>
<chord/>
<pitch>
<step>B</step>
<alter>-1</alter>
<octave>4</octave>
</pitch>
<duration>16</duration>
<voice>1</voice>
<type>quarter</type>
<stem>up</stem>
</note>
<note>
<pitch>
<step>E</step>
<alter>-1</alter>
<octave>4</octave>
</pitch>
<duration>16</duration>
<voice>1</voice>
<type>quarter</type>
<stem>up</stem>
<lyric number="1">
<syllabic>single</syllabic>
<text>est</text>
</lyric>
<lyric number="2">
<syllabic>single</syllabic>
<text>est</text>
</lyric>
</note>
<note>
<pitch>
<step>E</step>
<alter>-1</alter>
<octave>4</octave>
</pitch>
<duration>16</duration>
<voice>1</voice>
<type>quarter</type>
<stem>up</stem>
<lyric number="1">
<syllabic>begin</syllabic>
<text>vain</text>
</lyric>
<lyric number="2">
<syllabic>begin</syllabic>
<text>vain</text>
</lyric>
</note>
<note>
<chord/>
<pitch>
<step>B</step>
<alter>-1</alter>
<octave>4</octave>
</pitch>
<duration>16</duration>
<voice>1</voice>
<type>quarter</type>
<stem>up</stem>
</note>
<backup>
<duration>48</duration>
</backup>
<forward>
<duration>16</duration>
<voice>2</voice>
</forward>
<note>
<pitch>
<step>E</step>
<alter>-1</alter>
<octave>4</octave>
</pitch>
<duration>16</duration>
<voice>2</voice>
<type>quarter</type>
<stem>down</stem>
</note>
<forward>
<duration>16</duration>
<voice>2</voice>
</forward>
</measure>
<measure number="31">
<note>
<pitch>
<step>E</step>
<alter>-1</alter>
<octave>4</octave>
</pitch>
<duration>32</duration>
<type>half</type>
<stem>up</stem>
<lyric number="1">
<syllabic>end</syllabic>
<text>queur,</text>
</lyric>
<lyric number="2">
<syllabic>end</syllabic>
<text>queur,</text>
</lyric>
</note>
<note>
<chord/>
<pitch>
<step>C</step>
<octave>5</octave>
</pitch>
<duration>32</duration>
<type>half</type>
<stem>up</stem>
</note>
<note>
<pitch>
<step>G</step>
<alter>-1</alter>
<octave>4</octave>
</pitch>
<duration>16</duration>
<type>quarter</type>
<accidental>flat</accidental>
<stem>up</stem>
<lyric number="1">
<syllabic>single</syllabic>
<text>Que</text>
</lyric>
<lyric number="2">
<syllabic>single</syllabic>
<text>Que</text>
</lyric>
</note>
<note>
<chord/>
<pitch>
<step>C</step>
<octave>5</octave>
</pitch>
<duration>16</duration>
<type>quarter</type>
<stem>up</stem>
</note>
</measure>
<measure number="32">
<note>
<pitch>
<step>F</step>
<octave>4</octave>
</pitch>
<duration>16</duration>
<type>quarter</type>
<stem>down</stem>
<lyric number="1">
<syllabic>begin</syllabic>
<text>tou</text>
</lyric>
<lyric number="2">
<syllabic>begin</syllabic>
<text>tou</text>
</lyric>
</note>
<note>
<chord/>
<pitch>
<step>E</step>
<alter>-1</alter>
<octave>5</octave>
</pitch>
<duration>16</duration>
<type>quarter</type>
<stem>down</stem>
</note>
<note>
<pitch>
<step>F</step>
<octave>4</octave>
</pitch>
<duration>16</duration>
<type>quarter</type>
<stem>up</stem>
<lyric number="1">
<syllabic>end</syllabic>
<text>te</text>
</lyric>
<lyric number="2">
<syllabic>end</syllabic>
<text>te</text>
</lyric>
</note>
<note>
<chord/>
<pitch>
<step>D</step>
<alter>-1</alter>
<octave>5</octave>
</pitch>
<duration>16</duration>
<type>quarter</type>
<stem>up</stem>
</note>
<note>
<pitch>
<step>F</step>
<octave>4</octave>
</pitch>
<duration>16</duration>
<type>quarter</type>
<stem>up</stem>
<lyric number="1">
<syllabic>single</syllabic>
<text>la</text>
</lyric>
<lyric number="2">
<syllabic>single</syllabic>
<text>la</text>
</lyric>
</note>
<note>
<chord/>
<pitch>
<step>B</step>
<alter>-1</alter>
<octave>4</octave>
</pitch>
<duration>16</duration>
<type>quarter</type>
<stem>up</stem>
</note>
</measure>
<measure number="33">
<note>
<pitch>
<step>E</step>
<alter>-1</alter>
<octave>4</octave>
</pitch>
<duration>16</duration>
<type>quarter</type>
<stem>up</stem>
<lyric number="1">
<syllabic>begin</syllabic>
<text>ter</text>
</lyric>
<lyric number="2">
<syllabic>begin</syllabic>
<text>ter</text>
</lyric>
</note>
<note>
<chord/>
<pitch>
<step>A</step>
<alter>-1</alter>
<octave>4</octave>
</pitch>
<duration>16</duration>
<type>quarter</type>
<stem>up</stem>
</note>
<note>
<pitch>
<step>E</step>
<alter>-1</alter>
<octave>4</octave>
</pitch>
<duration>16</duration>
<type>quarter</type>
<stem>up</stem>
<lyric number="1">
<syllabic>end</syllabic>
<text>re</text>
</lyric>
<lyric number="2">
<syllabic>end</syllabic>
<text>re</text>
</lyric>
</note>
<note>
<chord/>
<pitch>
<step>G</step>
<octave>4</octave>
</pitch>
<duration>16</duration>
<type>quarter</type>
<stem>up</stem>
</note>
<note>
<pitch>
<step>E</step>
<alter>-1</alter>
<octave>4</octave>
</pitch>
<duration>16</duration>
<type>quarter</type>
<stem>up</stem>
<lyric number="1">
<syllabic>single</syllabic>
<text>Chante</text>
</lyric>
<lyric number="2">
<syllabic>single</syllabic>
<text>Chante</text>
</lyric>
</note>
<note>
<chord/>
<pitch>
<step>A</step>
<alter>-1</alter>
<octave>4</octave>
</pitch>
<duration>16</duration>
<type>quarter</type>
<stem>up</stem>
</note>
</measure>
<measure number="34">
<note>
<pitch>
<step>E</step>
<alter>-1</alter>
<octave>4</octave>
</pitch>
<duration>16</duration>
<type>quarter</type>
<stem>up</stem>
<lyric number="1">
<syllabic>single</syllabic>
<text>en</text>
</lyric>
<lyric number="2">
<syllabic>single</syllabic>
<text>en</text>
</lyric>
</note>
<note>
<chord/>
<pitch>
<step>C</step>
<octave>5</octave>
</pitch>
<duration>16</duration>
<type>quarter</type>
<stem>up</stem>
</note>
<note>
<pitch>
<step>E</step>
<alter>-1</alter>
<octave>4</octave>
</pitch>
<duration>16</duration>
<type>quarter</type>
<stem>up</stem>
<lyric number="1">
<syllabic>single</syllabic>
<text>son</text>
</lyric>
<lyric number="2">
<syllabic>single</syllabic>
<text>son</text>
</lyric>
</note>
<note>
<chord/>
<pitch>
<step>C</step>
<octave>5</octave>
</pitch>
<duration>16</duration>
<type>quarter</type>
<stem>up</stem>
</note>
<note>
<pitch>
<step>D</step>
<alter>-1</alter>
<octave>4</octave>
</pitch>
<duration>16</duration>
<type>quarter</type>
<stem>up</stem>
<lyric number="1">
<syllabic>begin</syllabic>
<text>hon</text>
</lyric>
<lyric number="2">
<syllabic>begin</syllabic>
<text>hon</text>
</lyric>
</note>
<note>
<chord/>
<pitch>
<step>B</step>
<alter>-1</alter>
<octave>4</octave>
</pitch>
<duration>16</duration>
<type>quarter</type>
<stem>up</stem>
</note>
</measure>
<measure number="35">
<note>
<pitch>
<step>C</step>
<octave>4</octave>
</pitch>
<duration>32</duration>
<type>half</type>
<stem>up</stem>
<lyric number="1">
<syllabic>end</syllabic>
<text>neur!</text>
</lyric>
<lyric number="2">
<syllabic>end</syllabic>
<text>neur!</text>
</lyric>
</note>
<note>
<chord/>
<pitch>
<step>A</step>
<alter>-1</alter>
<octave>4</octave>
</pitch>
<duration>32</duration>
<type>half</type>
<stem>up</stem>
</note>
<barline location="right">
<bar-style>light-heavy</bar-style>
<repeat direction="backward"/>
</barline>
<barline location="right">
<bar-style>light-heavy</bar-style>
</barline>
</measure>
</part>
<part id="P2">
<measure number="1">
<attributes>
<divisions>16</divisions>
</attributes>
<attributes>
<clef>
<sign>F</sign>
<line>4</line>
</clef>
</attributes>
<attributes>
<key>
<fifths>-4</fifths>
</key>
</attributes>
<attributes>
<time>
<beats>3</beats>
<beat-type>4</beat-type>
</time>
</attributes>
<note>
<pitch>
<step>A</step>
<alter>-1</alter>
<octave>2</octave>
</pitch>
<duration>16</duration>
<type>quarter</type>
<stem>down</stem>
</note>
<note>
<chord/>
<pitch>
<step>A</step>
<alter>-1</alter>
<octave>3</octave>
</pitch>
<duration>16</duration>
<type>quarter</type>
<stem>down</stem>
</note>
</measure>
<measure number="2">
<note>
<pitch>
<step>A</step>
<alter>-1</alter>
<octave>3</octave>
</pitch>
<duration>32</duration>
<voice>1</voice>
<type>half</type>
<stem>up</stem>
</note>
<note>
<pitch>
<step>C</step>
<octave>3</octave>
</pitch>
<duration>16</duration>
<voice>1</voice>
<type>quarter</type>
<notations>
<slur type="stop" number="1"/>
</notations>
</note>
<note>
<pitch>
<step>E</step>
<alter>-1</alter>
<octave>3</octave>
</pitch>
<duration>8</duration>
<voice>1</voice>
<type>eighth</type>
<stem>down</stem>
</note>
<note>
<chord/>
<pitch>
<step>G</step>
<octave>3</octave>
</pitch>
<duration>8</duration>
<voice>1</voice>
<type>eighth</type>
<stem>down</stem>
</note>
<note>
<pitch>
<step>E</step>
<alter>-1</alter>
<octave>3</octave>
</pitch>
<duration>8</duration>
<voice>1</voice>
<type>eighth</type>
<stem>up</stem>
</note>
<backup>
<duration>64</duration>
</backup>
<note>
<pitch>
<step>A</step>
<alter>-1</alter>
<octave>2</octave>
</pitch>
<duration>16</duration>
<voice>2</voice>
<type>quarter</type>
<stem>down</stem>
<notations>
<slur type="start" number="2"/>
</notations>
</note>
<forward>
<duration>8</duration>
<voice>2</voice>
</forward>
<note>
<pitch>
<step>E</step>
<alter>-1</alter>
<octave>3</octave>
</pitch>
<duration>8</duration>
<voice>2</voice>
<type>eighth</type>
<stem>down</stem>
</note>
</measure>
<measure number="3">
<note>
<pitch>
<step>A</step>
<alter>-1</alter>
<octave>2</octave>
</pitch>
<duration>16</duration>
<type>quarter</type>
<stem>up</stem>
</note>
<note>
<chord/>
<pitch>
<step>E</step>
<alter>-1</alter>
<octave>3</octave>
</pitch>
<duration>16</duration>
<type>quarter</type>
<stem>up</stem>
</note>
<note>
<pitch>
<step>A</step>
<alter>-1</alter>
<octave>2</octave>
</pitch>
<duration>16</duration>
<type>quarter</type>
<stem>down</stem>
</note>
<note>
<chord/>
<pitch>
<step>A</step>
<alter>-1</alter>
<octave>3</octave>
</pitch>
<duration>16</duration>
<type>quarter</type>
<stem>down</stem>
</note>
<note>
<pitch>
<step>C</step>
<octave>3</octave>
</pitch>
<duration>16</duration>
<type>quarter</type>
<stem>down</stem>
</note>
<note>
<chord/>
<pitch>
<step>A</step>
<alter>-1</alter>
<octave>3</octave>
</pitch>
<duration>16</duration>
<type>quarter</type>
<stem>down</stem>
</note>
</measure>
<measure number="4">
<note>
<pitch>
<step>E</step>
<alter>-1</alter>
<octave>3</octave>
</pitch>
<duration>16</duration>
<type>quarter</type>
<stem>down</stem>
</note>
<note>
<chord/>
<pitch>
<step>G</step>
<octave>3</octave>
</pitch>
<duration>16</duration>
<type>quarter</type>
<stem>down</stem>
</note>
<note>
<pitch>
<step>E</step>
<alter>-1</alter>
<octave>3</octave>
</pitch>
<duration>16</duration>
<type>quarter</type>
<stem>down</stem>
</note>
<note>
<chord/>
<pitch>
<step>G</step>
<octave>3</octave>
</pitch>
<duration>16</duration>
<type>quarter</type>
<stem>down</stem>
</note>
<note>
<pitch>
<step>E</step>
<alter>-1</alter>
<octave>3</octave>
</pitch>
<duration>16</duration>
<type>quarter</type>
<stem>down</stem>
</note>
<note>
<chord/>
<pitch>
<step>G</step>
<octave>3</octave>
</pitch>
<duration>16</duration>
<type>quarter</type>
<stem>down</stem>
</note>
</measure>
<measure number="5">
<note>
<pitch>
<step>A</step>
<alter>-1</alter>
<octave>2</octave>
</pitch>
<duration>32</duration>
<type>half</type>
<stem>down</stem>
</note>
<note>
<chord/>
<pitch>
<step>A</step>
<alter>-1</alter>
<octave>3</octave>
</pitch>
<duration>32</duration>
<type>half</type>
<stem>down</stem>
</note>
<note>
<pitch>
<step>A</step>
<alter>-1</alter>
<octave>2</octave>
</pitch>
<duration>16</duration>
<type>quarter</type>
<stem>down</stem>
</note>
<note>
<chord/>
<pitch>
<step>A</step>
<alter>-1</alter>
<octave>3</octave>
</pitch>
<duration>16</duration>
<type>quarter</type>
<stem>down</stem>
</note>
</measure>
<measure number="6">
<note>
<pitch>
<step>D</step>
<alter>-1</alter>
<octave>3</octave>
</pitch>
<duration>16</duration>
<type>quarter</type>
<stem>down</stem>
</note>
<note>
<chord/>
<pitch>
<step>A</step>
<alter>-1</alter>
<octave>3</octave>
</pitch>
<duration>16</duration>
<type>quarter</type>
<stem>down</stem>
</note>
<note>
<pitch>
<step>D</step>
<alter>-1</alter>
<octave>3</octave>
</pitch>
<duration>16</duration>
<type>quarter</type>
<stem>down</stem>
</note>
<note>
<chord/>
<pitch>
<step>A</step>
<alter>-1</alter>
<octave>3</octave>
</pitch>
<duration>16</duration>
<type>quarter</type>
<stem>down</stem>
</note>
<note>
<pitch>
<step>D</step>
<alter>-1</alter>
<octave>3</octave>
</pitch>
<duration>16</duration>
<type>quarter</type>
<stem>down</stem>
</note>
<note>
<chord/>
<pitch>
<step>A</step>
<alter>-1</alter>
<octave>3</octave>
</pitch>
<duration>16</duration>
<type>quarter</type>
<stem>down</stem>
</note>
</measure>
<measure number="7">
<note>
<pitch>
<step>A</step>
<alter>-1</alter>
<octave>2</octave>
</pitch>
<duration>16</duration>
<type>quarter</type>
<stem>down</stem>
</note>
<note>
<chord/>
<pitch>
<step>A</step>
<alter>-1</alter>
<octave>3</octave>
</pitch>
<duration>16</duration>
<type>quarter</type>
<stem>down</stem>
</note>
<note>
<pitch>
<step>C</step>
<octave>3</octave>
</pitch>
<duration>16</duration>
<type>quarter</type>
<stem>down</stem>
</note>
<note>
<chord/>
<pitch>
<step>A</step>
<alter>-1</alter>
<octave>3</octave>
</pitch>
<duration>16</duration>
<type>quarter</type>
<stem>down</stem>
</note>
<note>
<pitch>
<step>A</step>
<alter>-1</alter>
<octave>2</octave>
</pitch>
<duration>16</duration>
<type>quarter</type>
<stem>down</stem>
</note>
<note>
<chord/>
<pitch>
<step>A</step>
<alter>-1</alter>
<octave>3</octave>
</pitch>
<duration>16</duration>
<type>quarter</type>
<stem>down</stem>
</note>
</measure>
<measure number="8">
<note>
<pitch>
<step>B</step>
<alter>-1</alter>
<octave>2</octave>
</pitch>
<duration>16</duration>
<voice>1</voice>
<type>quarter</type>
<stem>down</stem>
</note>
<note>
<chord/>
<pitch>
<step>F</step>
<octave>3</octave>
</pitch>
<duration>16</duration>
<voice>1</voice>
<type>quarter</type>
<stem>down</stem>
</note>
<note>
<pitch>
<step>B</step>
<alter>-1</alter>
<octave>2</octave>
</pitch>
<duration>16</duration>
<voice>1</voice>
<type>quarter</type>
<stem>down</stem>
</note>
<note>
<chord/>
<pitch>
<step>F</step>
<octave>3</octave>
</pitch>
<duration>16</duration>
<voice>1</voice>
<type>quarter</type>
<stem>down</stem>
</note>
<note>
<pitch>
<step>B</step>
<alter>-1</alter>
<octave>3</octave>
</pitch>
<duration>8</duration>
<voice>1</voice>
<type>eighth</type>
<stem>up</stem>
<beam number="1">begin</beam>
<notations>
<slur type="start" number="1"/>
</notations>
</note>
<note>
<pitch>
<step>A</step>
<alter>-1</alter>
<octave>3</octave>
</pitch>
<duration>8</duration>
<voice>1</voice>
<type>eighth</type>
<stem>up</stem>
<beam number="1">continue</beam>
<notations>
<slur type="stop" number="1"/>
</notations>
</note>
<backup>
<duration>48</duration>
</backup>
<forward>
<duration>32</duration>
<voice>2</voice>
</forward>
<note>
<pitch>
<step>D</step>
<octave>3</octave>
</pitch>
<duration>16</duration>
<voice>2</voice>
<type>quarter</type>
<accidental>natural</accidental>
<stem>down</stem>
</note>
</measure>
<measure number="9">
<note>
<pitch>
<step>E</step>
<alter>-1</alter>
<octave>3</octave>
</pitch>
<duration>32</duration>
<type>half</type>
<stem>down</stem>
</note>
<note>
<chord/>
<pitch>
<step>G</step>
<octave>3</octave>
</pitch>
<duration>32</duration>
<type>half</type>
<stem>down</stem>
</note>
<direction>
<direction-type>
<segno/>
</direction-type>
<sound segno=""/>
</direction>
<note>
<pitch>
<step>E</step>
<alter>-1</alter>
<octave>3</octave>
</pitch>
<duration>16</duration>
<type>quarter</type>
<stem>down</stem>
</note>
<note>
<chord/>
<pitch>
<step>G</step>
<octave>3</octave>
</pitch>
<duration>16</duration>
<type>quarter</type>
<stem>down</stem>
</note>
</measure>
<measure number="10">
<note>
<pitch>
<step>A</step>
<alter>-1</alter>
<octave>3</octave>
</pitch>
<duration>32</duration>
<voice>1</voice>
<type>half</type>
<stem>up</stem>
</note>
<note>
<pitch>
<step>C</step>
<octave>3</octave>
</pitch>
<duration>16</duration>
<voice>1</voice>
<type>quarter</type>
<notations>
<slur type="stop" number="1"/>
</notations>
</note>
<note>
<pitch>
<step>E</step>
<alter>-1</alter>
<octave>3</octave>
</pitch>
<duration>8</duration>
<voice>1</voice>
<type>eighth</type>
<stem>down</stem>
</note>
<note>
<chord/>
<pitch>
<step>A</step>
<alter>-1</alter>
<octave>3</octave>
</pitch>
<duration>8</duration>
<voice>1</voice>
<type>eighth</type>
<stem>down</stem>
</note>
<note>
<pitch>
<step>E</step>
<alter>-1</alter>
<octave>3</octave>
</pitch>
<duration>8</duration>
<voice>1</voice>
<type>eighth</type>
<stem>up</stem>
</note>
<backup>
<duration>64</duration>
</backup>
<note>
<pitch>
<step>A</step>
<alter>-1</alter>
<octave>2</octave>
</pitch>
<duration>16</duration>
<voice>2</voice>
<type>quarter</type>
<stem>down</stem>
<notations>
<slur type="start" number="2"/>
</notations>
</note>
<forward>
<duration>8</duration>
<voice>2</voice>
</forward>
<note>
<pitch>
<step>E</step>
<alter>-1</alter>
<octave>3</octave>
</pitch>
<duration>8</duration>
<voice>2</voice>
<type>eighth</type>
<stem>down</stem>
</note>
</measure>
<measure number="11">
<note>
<pitch>
<step>A</step>
<alter>-1</alter>
<octave>2</octave>
</pitch>
<duration>16</duration>
<type>quarter</type>
<stem>up</stem>
</note>
<note>
<chord/>
<pitch>
<step>E</step>
<alter>-1</alter>
<octave>3</octave>
</pitch>
<duration>16</duration>
<type>quarter</type>
<stem>up</stem>
</note>
<note>
<pitch>
<step>A</step>
<alter>-1</alter>
<octave>2</octave>
</pitch>
<duration>16</duration>
<type>quarter</type>
<stem>down</stem>
</note>
<note>
<chord/>
<pitch>
<step>A</step>
<alter>-1</alter>
<octave>3</octave>
</pitch>
<duration>16</duration>
<type>quarter</type>
<stem>down</stem>
</note>
<note>
<pitch>
<step>C</step>
<octave>3</octave>
</pitch>
<duration>16</duration>
<type>quarter</type>
<stem>down</stem>
</note>
<note>
<chord/>
<pitch>
<step>A</step>
<alter>-1</alter>
<octave>3</octave>
</pitch>
<duration>16</duration>
<type>quarter</type>
<stem>down</stem>
</note>
</measure>
<measure number="12">
<note>
<pitch>
<step>E</step>
<alter>-1</alter>
<octave>3</octave>
</pitch>
<duration>16</duration>
<type>quarter</type>
<stem>down</stem>
</note>
<note>
<chord/>
<pitch>
<step>G</step>
<octave>3</octave>
</pitch>
<duration>16</duration>
<type>quarter</type>
<stem>down</stem>
</note>
<note>
<pitch>
<step>E</step>
<alter>-1</alter>
<octave>3</octave>
</pitch>
<duration>16</duration>
<type>quarter</type>
<stem>down</stem>
</note>
<note>
<chord/>
<pitch>
<step>G</step>
<octave>3</octave>
</pitch>
<duration>16</duration>
<type>quarter</type>
<stem>down</stem>
</note>
<note>
<pitch>
<step>E</step>
<alter>-1</alter>
<octave>3</octave>
</pitch>
<duration>16</duration>
<type>quarter</type>
<stem>down</stem>
</note>
<note>
<chord/>
<pitch>
<step>G</step>
<octave>3</octave>
</pitch>
<duration>16</duration>
<type>quarter</type>
<stem>down</stem>
</note>
</measure>
<measure number="13">
<note>
<pitch>
<step>A</step>
<alter>-1</alter>
<octave>2</octave>
</pitch>
<duration>32</duration>
<type>half</type>
<stem>down</stem>
</note>
<note>
<chord/>
<pitch>
<step>A</step>
<alter>-1</alter>
<octave>3</octave>
</pitch>
<duration>32</duration>
<type>half</type>
<stem>down</stem>
</note>
<note>
<pitch>
<step>A</step>
<alter>-1</alter>
<octave>2</octave>
</pitch>
<duration>16</duration>
<type>quarter</type>
<stem>down</stem>
</note>
<note>
<chord/>
<pitch>
<step>A</step>
<alter>-1</alter>
<octave>3</octave>
</pitch>
<duration>16</duration>
<type>quarter</type>
<stem>down</stem>
</note>
</measure>
<measure number="14">
<note>
<pitch>
<step>D</step>
<alter>-1</alter>
<octave>3</octave>
</pitch>
<duration>16</duration>
<type>quarter</type>
<stem>down</stem>
</note>
<note>
<chord/>
<pitch>
<step>A</step>
<alter>-1</alter>
<octave>3</octave>
</pitch>
<duration>16</duration>
<type>quarter</type>
<stem>down</stem>
</note>
<note>
<pitch>
<step>D</step>
<alter>-1</alter>
<octave>3</octave>
</pitch>
<duration>16</duration>
<type>quarter</type>
<stem>down</stem>
</note>
<note>
<chord/>
<pitch>
<step>B</step>
<alter>-1</alter>
<octave>3</octave>
</pitch>
<duration>16</duration>
<type>quarter</type>
<stem>down</stem>
</note>
<note>
<pitch>
<step>D</step>
<alter>-1</alter>
<octave>3</octave>
</pitch>
<duration>16</duration>
<type>quarter</type>
<stem>down</stem>
</note>
<note>
<chord/>
<pitch>
<step>D</step>
<alter>-1</alter>
<octave>4</octave>
</pitch>
<duration>16</duration>
<type>quarter</type>
<stem>down</stem>
</note>
</measure>
<measure number="15">
<note>
<pitch>
<step>E</step>
<alter>-1</alter>
<octave>3</octave>
</pitch>
<duration>16</duration>
<type>quarter</type>
<stem>down</stem>
</note>
<note>
<chord/>
<pitch>
<step>C</step>
<octave>4</octave>
</pitch>
<duration>16</duration>
<type>quarter</type>
<stem>down</stem>
</note>
<note>
<pitch>
<step>E</step>
<alter>-1</alter>
<octave>3</octave>
</pitch>
<duration>16</duration>
<type>quarter</type>
<stem>down</stem>
</note>
<note>
<chord/>
<pitch>
<step>B</step>
<alter>-1</alter>
<octave>3</octave>
</pitch>
<duration>16</duration>
<type>quarter</type>
<stem>down</stem>
</note>
<note>
<pitch>
<step>E</step>
<alter>-1</alter>
<octave>3</octave>
</pitch>
<duration>16</duration>
<type>quarter</type>
<stem>down</stem>
</note>
<note>
<chord/>
<pitch>
<step>C</step>
<octave>4</octave>
</pitch>
<duration>16</duration>
<type>quarter</type>
<stem>down</stem>
</note>
</measure>
<measure number="16">
<note>
<pitch>
<step>E</step>
<alter>-1</alter>
<octave>3</octave>
</pitch>
<duration>16</duration>
<type>quarter</type>
<stem>down</stem>
</note>
<note>
<chord/>
<pitch>
<step>A</step>
<alter>-1</alter>
<octave>3</octave>
</pitch>
<duration>16</duration>
<type>quarter</type>
<stem>down</stem>
</note>
<note>
<pitch>
<step>E</step>
<alter>-1</alter>
<octave>3</octave>
</pitch>
<duration>16</duration>
<type>quarter</type>
<stem>down</stem>
</note>
<note>
<chord/>
<pitch>
<step>A</step>
<alter>-1</alter>
<octave>3</octave>
</pitch>
<duration>16</duration>
<type>quarter</type>
<stem>down</stem>
</note>
<note>
<pitch>
<step>E</step>
<alter>-1</alter>
<octave>3</octave>
</pitch>
<duration>16</duration>
<type>quarter</type>
<stem>down</stem>
</note>
<note>
<chord/>
<pitch>
<step>G</step>
<octave>3</octave>
</pitch>
<duration>16</duration>
<type>quarter</type>
<stem>down</stem>
</note>
</measure>
<measure number="17">
<note>
<pitch>
<step>A</step>
<alter>-1</alter>
<octave>2</octave>
</pitch>
<duration>32</duration>
<type>half</type>
<stem>down</stem>
</note>
<note>
<chord/>
<pitch>
<step>A</step>
<alter>-1</alter>
<octave>3</octave>
</pitch>
<duration>32</duration>
<type>half</type>
<stem>down</stem>
</note>
<direction placement="above">
<direction-type>
<words relative-y="60">Fine</words>
</direction-type>
<sound fine=""/>
</direction>
</measure>
<measure number="18">
<barline location="left">
<bar-style>heavy-light</bar-style>
</barline>
<note>
<pitch>
<step>A</step>
<alter>-1</alter>
<octave>3</octave>
</pitch>
<duration>12</duration>
<voice>1</voice>
<type>eighth</type>
<dot/>
<stem>up</stem>
</note>
<note>
<pitch>
<step>A</step>
<alter>-1</alter>
<octave>3</octave>
</pitch>
<duration>4</duration>
<voice>1</voice>
<type>16th</type>
<stem>down</stem>
</note>
<note>
<chord/>
<pitch>
<step>B</step>
<alter>-1</alter>
<octave>3</octave>
</pitch>
<duration>4</duration>
<voice>1</voice>
<type>16th</type>
<stem>down</stem>
</note>
<backup>
<duration>16</duration>
</backup>
<note>
<pitch>
<step>A</step>
<alter>-1</alter>
<octave>3</octave>
</pitch>
<duration>12</duration>
<voice>2</voice>
<type>eighth</type>
<dot/>
<stem>down</stem>
</note>
<forward>
<duration>4</duration>
<voice>2</voice>
</forward>
</measure>
<measure number="19">
<note>
<pitch>
<step>A</step>
<alter>-1</alter>
<octave>3</octave>
</pitch>
<duration>32</duration>
<voice>1</voice>
<type>half</type>
<stem>down</stem>
</note>
<note>
<chord/>
<pitch>
<step>C</step>
<octave>4</octave>
</pitch>
<duration>32</duration>
<voice>1</voice>
<type>half</type>
<stem>down</stem>
</note>
<note>
<pitch>
<step>A</step>
<alter>-1</alter>
<octave>3</octave>
</pitch>
<duration>12</duration>
<voice>1</voice>
<type>eighth</type>
<dot/>
<stem>up</stem>
</note>
<note>
<pitch>
<step>A</step>
<alter>-1</alter>
<octave>3</octave>
</pitch>
<duration>4</duration>
<voice>1</voice>
<type>16th</type>
<stem>down</stem>
</note>
<note>
<chord/>
<pitch>
<step>B</step>
<alter>-1</alter>
<octave>3</octave>
</pitch>
<duration>4</duration>
<voice>1</voice>
<type>16th</type>
<stem>down</stem>
</note>
<backup>
<duration>48</duration>
</backup>
<forward>
<duration>32</duration>
<voice>2</voice>
</forward>
<note>
<pitch>
<step>A</step>
<alter>-1</alter>
<octave>3</octave>
</pitch>
<duration>12</duration>
<voice>2</voice>
<type>eighth</type>
<dot/>
<stem>down</stem>
</note>
<forward>
<duration>4</duration>
<voice>2</voice>
</forward>
</measure>
<measure number="20">
<note>
<pitch>
<step>A</step>
<alter>-1</alter>
<octave>3</octave>
</pitch>
<duration>32</duration>
<type>half</type>
<stem>down</stem>
</note>
<note>
<chord/>
<pitch>
<step>C</step>
<octave>4</octave>
</pitch>
<duration>32</duration>
<type>half</type>
<stem>down</stem>
</note>
<note>
<pitch>
<step>A</step>
<alter>-1</alter>
<octave>3</octave>
</pitch>
<duration>12</duration>
<type>eighth</type>
<dot/>
<stem>down</stem>
</note>
<note>
<chord/>
<pitch>
<step>C</step>
<octave>4</octave>
</pitch>
<duration>12</duration>
<type>eighth</type>
<dot/>
<stem>down</stem>
</note>
<note>
<pitch>
<step>A</step>
<alter>-1</alter>
<octave>2</octave>
</pitch>
<duration>4</duration>
<type>16th</type>
<stem>down</stem>
</note>
<note>
<chord/>
<pitch>
<step>A</step>
<alter>-1</alter>
<octave>3</octave>
</pitch>
<duration>4</duration>
<type>16th</type>
<stem>down</stem>
</note>
</measure>
<measure number="21">
<note>
<pitch>
<step>C</step>
<octave>3</octave>
</pitch>
<duration>16</duration>
<type>quarter</type>
<stem>down</stem>
</note>
<note>
<chord/>
<pitch>
<step>A</step>
<alter>-1</alter>
<octave>3</octave>
</pitch>
<duration>16</duration>
<type>quarter</type>
<stem>down</stem>
</note>
<note>
<pitch>
<step>B</step>
<alter>-1</alter>
<octave>2</octave>
</pitch>
<duration>16</duration>
<type>quarter</type>
<stem>down</stem>
</note>
<note>
<chord/>
<pitch>
<step>G</step>
<octave>3</octave>
</pitch>
<duration>16</duration>
<type>quarter</type>
<stem>down</stem>
</note>
<note>
<pitch>
<step>A</step>
<alter>-1</alter>
<octave>2</octave>
</pitch>
<duration>16</duration>
<type>quarter</type>
<stem>down</stem>
</note>
<note>
<chord/>
<pitch>
<step>A</step>
<alter>-1</alter>
<octave>3</octave>
</pitch>
<duration>16</duration>
<type>quarter</type>
<stem>down</stem>
</note>
</measure>
<measure number="22">
<note>
<pitch>
<step>E</step>
<alter>-1</alter>
<octave>3</octave>
</pitch>
<duration>32</duration>
<type>half</type>
<stem>down</stem>
</note>
<note>
<chord/>
<pitch>
<step>G</step>
<octave>3</octave>
</pitch>
<duration>32</duration>
<type>half</type>
<stem>down</stem>
</note>
<note>
<pitch>
<step>E</step>
<alter>-1</alter>
<octave>3</octave>
</pitch>
<duration>12</duration>
<type>eighth</type>
<dot/>
<stem>down</stem>
</note>
<note>
<chord/>
<pitch>
<step>G</step>
<octave>3</octave>
</pitch>
<duration>12</duration>
<type>eighth</type>
<dot/>
<stem>down</stem>
</note>
<note>
<pitch>
<step>E</step>
<alter>-1</alter>
<octave>3</octave>
</pitch>
<duration>4</duration>
<type>16th</type>
<stem>down</stem>
</note>
<note>
<chord/>
<pitch>
<step>A</step>
<alter>-1</alter>
<octave>3</octave>
</pitch>
<duration>4</duration>
<type>16th</type>
<stem>down</stem>
</note>
</measure>
<measure number="23">
<note>
<pitch>
<step>E</step>
<alter>-1</alter>
<octave>3</octave>
</pitch>
<duration>32</duration>
<type>half</type>
<stem>down</stem>
</note>
<note>
<chord/>
<pitch>
<step>B</step>
<alter>-1</alter>
<octave>3</octave>
</pitch>
<duration>32</duration>
<type>half</type>
<stem>down</stem>
</note>
<note>
<pitch>
<step>E</step>
<alter>-1</alter>
<octave>3</octave>
</pitch>
<duration>12</duration>
<type>eighth</type>
<dot/>
<stem>down</stem>
</note>
<note>
<chord/>
<pitch>
<step>G</step>
<octave>3</octave>
</pitch>
<duration>12</duration>
<type>eighth</type>
<dot/>
<stem>down</stem>
</note>
<note>
<pitch>
<step>E</step>
<alter>-1</alter>
<octave>3</octave>
</pitch>
<duration>4</duration>
<type>16th</type>
<stem>down</stem>
</note>
<note>
<chord/>
<pitch>
<step>A</step>
<alter>-1</alter>
<octave>3</octave>
</pitch>
<duration>4</duration>
<type>16th</type>
<stem>down</stem>
</note>
</measure>
<measure number="24">
<note>
<pitch>
<step>E</step>
<alter>-1</alter>
<octave>3</octave>
</pitch>
<duration>32</duration>
<type>half</type>
<stem>down</stem>
</note>
<note>
<chord/>
<pitch>
<step>B</step>
<alter>-1</alter>
<octave>3</octave>
</pitch>
<duration>32</duration>
<type>half</type>
<stem>down</stem>
</note>
<note>
<pitch>
<step>E</step>
<alter>-1</alter>
<octave>3</octave>
</pitch>
<duration>8</duration>
<type>eighth</type>
<stem>down</stem>
</note>
<note>
<chord/>
<pitch>
<step>B</step>
<alter>-1</alter>
<octave>3</octave>
</pitch>
<duration>8</duration>
<type>eighth</type>
<stem>down</stem>
</note>
<note>
<pitch>
<step>D</step>
<alter>-1</alter>
<octave>3</octave>
</pitch>
<duration>8</duration>
<type>eighth</type>
<stem>down</stem>
</note>
<note>
<chord/>
<pitch>
<step>G</step>
<octave>3</octave>
</pitch>
<duration>8</duration>
<type>eighth</type>
<stem>down</stem>
</note>
</measure>
<measure number="25">
<note>
<pitch>
<step>C</step>
<octave>3</octave>
</pitch>
<duration>16</duration>
<type>quarter</type>
<stem>down</stem>
</note>
<note>
<chord/>
<pitch>
<step>A</step>
<alter>-1</alter>
<octave>3</octave>
</pitch>
<duration>16</duration>
<type>quarter</type>
<stem>down</stem>
</note>
<note>
<pitch>
<step>C</step>
<octave>3</octave>
</pitch>
<duration>16</duration>
<type>quarter</type>
<stem>down</stem>
</note>
<note>
<chord/>
<pitch>
<step>A</step>
<alter>-1</alter>
<octave>3</octave>
</pitch>
<duration>16</duration>
<type>quarter</type>
<stem>down</stem>
</note>
<note>
<pitch>
<step>B</step>
<alter>-1</alter>
<octave>2</octave>
</pitch>
<duration>16</duration>
<type>quarter</type>
<stem>down</stem>
</note>
<note>
<chord/>
<pitch>
<step>G</step>
<octave>3</octave>
</pitch>
<duration>16</duration>
<type>quarter</type>
<stem>down</stem>
</note>
</measure>
<measure number="26">
<note>
<pitch>
<step>A</step>
<alter>-1</alter>
<octave>2</octave>
</pitch>
<duration>32</duration>
<type>half</type>
<stem>down</stem>
</note>
<note>
<chord/>
<pitch>
<step>A</step>
<alter>-1</alter>
<octave>3</octave>
</pitch>
<duration>32</duration>
<type>half</type>
<stem>down</stem>
</note>
</measure>
<measure number="27">
<barline location="left">
<bar-style>heavy-light</bar-style>
</barline>
<note>
<pitch>
<step>E</step>
<alter>-1</alter>
<octave>3</octave>
</pitch>
<duration>16</duration>
<type>quarter</type>
<stem>down</stem>
</note>
<note>
<chord/>
<pitch>
<step>G</step>
<octave>3</octave>
</pitch>
<duration>16</duration>
<type>quarter</type>
<stem>down</stem>
</note>
</measure>
<measure number="28">
<note>
<pitch>
<step>A</step>
<alter>-1</alter>
<octave>3</octave>
</pitch>
<duration>32</duration>
<voice>1</voice>
<type>half</type>
<stem>up</stem>
</note>
<note>
<pitch>
<step>C</step>
<octave>3</octave>
</pitch>
<duration>16</duration>
<voice>1</voice>
<type>quarter</type>
<notations>
<slur type="stop" number="1"/>
</notations>
</note>
<note>
<pitch>
<step>E</step>
<alter>-1</alter>
<octave>3</octave>
</pitch>
<duration>8</duration>
<voice>1</voice>
<type>eighth</type>
<stem>down</stem>
</note>
<note>
<chord/>
<pitch>
<step>A</step>
<alter>-1</alter>
<octave>3</octave>
</pitch>
<duration>8</duration>
<voice>1</voice>
<type>eighth</type>
<stem>down</stem>
</note>
<note>
<pitch>
<step>E</step>
<alter>-1</alter>
<octave>3</octave>
</pitch>
<duration>8</duration>
<voice>1</voice>
<type>eighth</type>
<stem>up</stem>
</note>
<backup>
<duration>64</duration>
</backup>
<note>
<pitch>
<step>A</step>
<alter>-1</alter>
<octave>2</octave>
</pitch>
<duration>16</duration>
<voice>2</voice>
<type>quarter</type>
<stem>down</stem>
<notations>
<slur type="start" number="2"/>
</notations>
</note>
<forward>
<duration>8</duration>
<voice>2</voice>
</forward>
<note>
<pitch>
<step>E</step>
<alter>-1</alter>
<octave>3</octave>
</pitch>
<duration>8</duration>
<voice>2</voice>
<type>eighth</type>
<stem>down</stem>
</note>
</measure>
<measure number="29">
<note>
<pitch>
<step>A</step>
<alter>-1</alter>
<octave>2</octave>
</pitch>
<duration>16</duration>
<type>quarter</type>
<stem>up</stem>
</note>
<note>
<chord/>
<pitch>
<step>E</step>
<alter>-1</alter>
<octave>3</octave>
</pitch>
<duration>16</duration>
<type>quarter</type>
<stem>up</stem>
</note>
<note>
<pitch>
<step>A</step>
<alter>-1</alter>
<octave>2</octave>
</pitch>
<duration>16</duration>
<type>quarter</type>
<stem>down</stem>
</note>
<note>
<chord/>
<pitch>
<step>A</step>
<alter>-1</alter>
<octave>3</octave>
</pitch>
<duration>16</duration>
<type>quarter</type>
<stem>down</stem>
</note>
<note>
<pitch>
<step>C</step>
<octave>3</octave>
</pitch>
<duration>16</duration>
<type>quarter</type>
<stem>down</stem>
</note>
<note>
<chord/>
<pitch>
<step>A</step>
<alter>-1</alter>
<octave>3</octave>
</pitch>
<duration>16</duration>
<type>quarter</type>
<stem>down</stem>
</note>
</measure>
<measure number="30">
<note>
<pitch>
<step>E</step>
<alter>-1</alter>
<octave>3</octave>
</pitch>
<duration>16</duration>
<type>quarter</type>
<stem>down</stem>
</note>
<note>
<chord/>
<pitch>
<step>G</step>
<octave>3</octave>
</pitch>
<duration>16</duration>
<type>quarter</type>
<stem>down</stem>
</note>
<note>
<pitch>
<step>E</step>
<alter>-1</alter>
<octave>3</octave>
</pitch>
<duration>16</duration>
<type>quarter</type>
<stem>down</stem>
</note>
<note>
<chord/>
<pitch>
<step>G</step>
<octave>3</octave>
</pitch>
<duration>16</duration>
<type>quarter</type>
<stem>down</stem>
</note>
<note>
<pitch>
<step>E</step>
<alter>-1</alter>
<octave>3</octave>
</pitch>
<duration>16</duration>
<type>quarter</type>
<stem>down</stem>
</note>
<note>
<chord/>
<pitch>
<step>G</step>
<octave>3</octave>
</pitch>
<duration>16</duration>
<type>quarter</type>
<stem>down</stem>
</note>
</measure>
<measure number="31">
<note>
<pitch>
<step>A</step>
<alter>-1</alter>
<octave>2</octave>
</pitch>
<duration>32</duration>
<type>half</type>
<stem>down</stem>
</note>
<note>
<chord/>
<pitch>
<step>A</step>
<alter>-1</alter>
<octave>3</octave>
</pitch>
<duration>32</duration>
<type>half</type>
<stem>down</stem>
</note>
<note>
<pitch>
<step>A</step>
<alter>-1</alter>
<octave>2</octave>
</pitch>
<duration>16</duration>
<type>quarter</type>
<stem>down</stem>
</note>
<note>
<chord/>
<pitch>
<step>A</step>
<alter>-1</alter>
<octave>3</octave>
</pitch>
<duration>16</duration>
<type>quarter</type>
<stem>down</stem>
</note>
</measure>
<measure number="32">
<note>
<pitch>
<step>D</step>
<alter>-1</alter>
<octave>3</octave>
</pitch>
<duration>16</duration>
<type>quarter</type>
<stem>down</stem>
</note>
<note>
<chord/>
<pitch>
<step>A</step>
<alter>-1</alter>
<octave>3</octave>
</pitch>
<duration>16</duration>
<type>quarter</type>
<stem>down</stem>
</note>
<note>
<pitch>
<step>D</step>
<alter>-1</alter>
<octave>3</octave>
</pitch>
<duration>16</duration>
<type>quarter</type>
<stem>down</stem>
</note>
<note>
<chord/>
<pitch>
<step>B</step>
<alter>-1</alter>
<octave>3</octave>
</pitch>
<duration>16</duration>
<type>quarter</type>
<stem>down</stem>
</note>
<note>
<pitch>
<step>D</step>
<alter>-1</alter>
<octave>3</octave>
</pitch>
<duration>16</duration>
<type>quarter</type>
<stem>down</stem>
</note>
<note>
<chord/>
<pitch>
<step>D</step>
<alter>-1</alter>
<octave>4</octave>
</pitch>
<duration>16</duration>
<type>quarter</type>
<stem>down</stem>
</note>
</measure>
<measure number="33">
<note>
<pitch>
<step>E</step>
<alter>-1</alter>
<octave>3</octave>
</pitch>
<duration>16</duration>
<type>quarter</type>
<stem>down</stem>
</note>
<note>
<chord/>
<pitch>
<step>C</step>
<octave>4</octave>
</pitch>
<duration>16</duration>
<type>quarter</type>
<stem>down</stem>
</note>
<note>
<pitch>
<step>E</step>
<alter>-1</alter>
<octave>3</octave>
</pitch>
<duration>16</duration>
<type>quarter</type>
<stem>down</stem>
</note>
<note>
<chord/>
<pitch>
<step>B</step>
<alter>-1</alter>
<octave>3</octave>
</pitch>
<duration>16</duration>
<type>quarter</type>
<stem>down</stem>
</note>
<note>
<pitch>
<step>E</step>
<alter>-1</alter>
<octave>3</octave>
</pitch>
<duration>16</duration>
<type>quarter</type>
<stem>down</stem>
</note>
<note>
<chord/>
<pitch>
<step>C</step>
<octave>4</octave>
</pitch>
<duration>16</duration>
<type>quarter</type>
<stem>down</stem>
</note>
</measure>
<measure number="34">
<note>
<pitch>
<step>E</step>
<alter>-1</alter>
<octave>3</octave>
</pitch>
<duration>16</duration>
<type>quarter</type>
<stem>down</stem>
</note>
<note>
<chord/>
<pitch>
<step>A</step>
<alter>-1</alter>
<octave>3</octave>
</pitch>
<duration>16</duration>
<type>quarter</type>
<stem>down</stem>
</note>
<note>
<pitch>
<step>E</step>
<alter>-1</alter>
<octave>3</octave>
</pitch>
<duration>16</duration>
<type>quarter</type>
<stem>down</stem>
</note>
<note>
<chord/>
<pitch>
<step>A</step>
<alter>-1</alter>
<octave>3</octave>
</pitch>
<duration>16</duration>
<type>quarter</type>
<stem>down</stem>
</note>
<note>
<pitch>
<step>E</step>
<alter>-1</alter>
<octave>3</octave>
</pitch>
<duration>16</duration>
<type>quarter</type>
<stem>down</stem>
</note>
<note>
<chord/>
<pitch>
<step>G</step>
<octave>3</octave>
</pitch>
<duration>16</duration>
<type>quarter</type>
<stem>down</stem>
</note>
</measure>
<measure number="35">
<note>
<pitch>
<step>A</step>
<alter>-1</alter>
<octave>2</octave>
</pitch>
<duration>32</duration>
<type>half</type>
<stem>down</stem>
</note>
<note>
<chord/>
<pitch>
<step>A</step>
<alter>-1</alter>
<octave>3</octave>
</pitch>
<duration>32</duration>
<type>half</type>
<stem>down</stem>
</note>
<barline location="right">
<bar-style>light-heavy</bar-style>
<repeat direction="backward"/>
</barline>
<barline location="right">
<bar-style>light-heavy</bar-style>
</barline>
</measure>
</part>
</score-partwise>
