<?xml version="1.0" encoding="UTF-8" standalone='no'?>
<!DOCTYPE score-partwise PUBLIC "-//Recordare//DTD MusicXML 1.0 Partwise//EN" "http://www.musicxml.org/dtds/partwise.dtd">
<score-partwise>
<work>
<work-title>Précieux Jésus</work-title>
</work>
<identification>
<creator type="transcriber">Jimmy Owens</creator>
<rights>© 1972 Lexicon Music Inc., Word (UK) Ltd.</rights>
<encoding>
<software>Noteworthy Composer</software>
<encoding-date>2007-02-17</encoding-date>
</encoding>
</identification>
<part-list>
<score-part id="P1">
<part-name>Mélodie</part-name>
<score-instrument id="P1-I1">
<instrument-name>String Ensemble 1</instrument-name>
</score-instrument>
<midi-instrument id="P1-I1">
<midi-channel>1</midi-channel>
<midi-program>50</midi-program>
</midi-instrument>
</score-part>
</part-list>
<part id="P1">
<measure number="1">
<attributes>
<divisions>32</divisions>
</attributes>
<attributes>
<clef>
<sign>G</sign>
<line>2</line>
</clef>
</attributes>
<attributes>
<time symbol="common">
<beats>4</beats>
<beat-type>4</beat-type>
</time>
</attributes>
<direction>
<direction-type>
<metronome parentheses="no">
<beat-unit>quarter</beat-unit>
<per-minute>60</per-minute>
</metronome>
</direction-type>
<sound tempo="60"/>
</direction>
<note>
<pitch>
<step>C</step>
<octave>4</octave>
</pitch>
<duration>16</duration>
<type>eighth</type>
<lyric number="1">
<syllabic>begin</syllabic>
<text>1. Pré</text>
</lyric>
<lyric number="2">
<syllabic>begin</syllabic>
<text>2. Ten</text>
</lyric>
<lyric number="3">
<syllabic>begin</syllabic>
<text>3. Al</text>
</lyric>
</note>
<note>
<pitch>
<step>D</step>
<octave>4</octave>
</pitch>
<duration>16</duration>
<type>eighth</type>
<lyric number="1">
<syllabic>end</syllabic>
<text>cieux</text>
</lyric>
<lyric number="2">
<syllabic>end</syllabic>
<text>dre</text>
</lyric>
<lyric number="3">
<syllabic>middle</syllabic>
<text>lé</text>
</lyric>
</note>
</measure>
<measure number="2">
<note>
<pitch>
<step>E</step>
<octave>4</octave>
</pitch>
<duration>32</duration>
<type>quarter</type>
<lyric number="1">
<syllabic>begin</syllabic>
<text>Jé</text>
</lyric>
<lyric number="2">
<syllabic>begin</syllabic>
<text>Pè</text>
</lyric>
<lyric number="3">
<syllabic>middle</syllabic>
<text>lu</text>
</lyric>
</note>
<note>
<pitch>
<step>E</step>
<octave>4</octave>
</pitch>
<duration>32</duration>
<type>quarter</type>
<lyric number="1">
<syllabic>end</syllabic>
<text>sus,</text>
</lyric>
<lyric number="2">
<syllabic>end</syllabic>
<text>re,</text>
</lyric>
<lyric number="3">
<syllabic>end</syllabic>
<text>ia,</text>
</lyric>
</note>
<note>
<rest/>
<duration>32</duration>
<type>quarter</type>
</note>
<note>
<pitch>
<step>F</step>
<octave>4</octave>
</pitch>
<duration>16</duration>
<type>eighth</type>
<lyric number="1">
<syllabic>begin</syllabic>
<text>pré</text>
</lyric>
<lyric number="2">
<syllabic>begin</syllabic>
<text>ten</text>
</lyric>
<lyric number="3">
<syllabic>begin</syllabic>
<text>al</text>
</lyric>
</note>
<note>
<pitch>
<step>E</step>
<octave>4</octave>
</pitch>
<duration>16</duration>
<type>eighth</type>
<lyric number="1">
<syllabic>end</syllabic>
<text>cieux</text>
</lyric>
<lyric number="2">
<syllabic>end</syllabic>
<text>dre</text>
</lyric>
<lyric number="3">
<syllabic>middle</syllabic>
<text>lé</text>
</lyric>
</note>
</measure>
<measure number="3">
<note>
<pitch>
<step>E</step>
<octave>4</octave>
</pitch>
<duration>24</duration>
<type>eighth</type>
<dot/>
<stem>up</stem>
<beam number="1">begin</beam>
<notations>
<slur type="start" number="1"/>
</notations>
<lyric number="1">
<syllabic>begin</syllabic>
<text>Jé</text>
</lyric>
<lyric number="2">
<syllabic>begin</syllabic>
<text>Pè</text>
</lyric>
<lyric number="3">
<syllabic>middle</syllabic>
<text>lu</text>
</lyric>
</note>
<note>
<pitch>
<step>D</step>
<octave>4</octave>
</pitch>
<duration>4</duration>
<type>32nd</type>
<stem>up</stem>
<beam number="1">end</beam>
<notations>
<slur type="continue" number="1"/>
</notations>
</note>
<note>
<pitch>
<step>C</step>
<octave>4</octave>
</pitch>
<duration>4</duration>
<type>32nd</type>
<stem>up</stem>
<beam number="1">continue</beam>
<notations>
<slur type="stop" number="1"/>
</notations>
</note>
<note>
<pitch>
<step>D</step>
<octave>4</octave>
</pitch>
<duration>32</duration>
<type>quarter</type>
<lyric number="1">
<syllabic>end</syllabic>
<text>sus.</text>
</lyric>
<lyric number="2">
<syllabic>end</syllabic>
<text>re,</text>
</lyric>
<lyric number="3">
<syllabic>end</syllabic>
<text>ia,</text>
</lyric>
</note>
<note>
<rest/>
<duration>32</duration>
<type>quarter</type>
</note>
<note>
<pitch>
<step>D</step>
<octave>4</octave>
</pitch>
<duration>16</duration>
<type>eighth</type>
<lyric number="1">
<syllabic>single</syllabic>
<text>Tout</text>
</lyric>
<lyric number="2">
<syllabic>single</syllabic>
<text>Tu</text>
</lyric>
<lyric number="3">
<syllabic>begin</syllabic>
<text>al</text>
</lyric>
</note>
<note>
<pitch>
<step>E</step>
<octave>4</octave>
</pitch>
<duration>16</duration>
<type>eighth</type>
<lyric number="1">
<syllabic>begin</syllabic>
<text>é</text>
</lyric>
<lyric number="2">
<syllabic>single</syllabic>
<text>as</text>
</lyric>
<lyric number="3">
<syllabic>end</syllabic>
<text></text>
</lyric>
</note>
</measure>
<measure number="4">
<note>
<pitch>
<step>F</step>
<octave>4</octave>
</pitch>
<duration>24</duration>
<type>eighth</type>
<dot/>
<lyric number="1">
<syllabic>end</syllabic>
<text>mu</text>
</lyric>
<lyric number="2">
<syllabic>single</syllabic>
<text>fait</text>
</lyric>
<lyric number="3">
<syllabic>begin</syllabic>
<text>lé</text>
</lyric>
</note>
<note>
<pitch>
<step>A</step>
<octave>4</octave>
</pitch>
<duration>8</duration>
<type>16th</type>
<lyric number="1">
<syllabic>begin</syllabic>
<text>de</text>
</lyric>
<lyric number="2">
<syllabic>single</syllabic>
<text>de</text>
</lyric>
<lyric number="3">
<syllabic>end</syllabic>
<text></text>
</lyric>
</note>
<note>
<pitch>
<step>A</step>
<octave>4</octave>
</pitch>
<duration>16</duration>
<type>eighth</type>
<lyric number="1">
<syllabic>end</syllabic>
<text>vant</text>
</lyric>
<lyric number="2">
<syllabic>single</syllabic>
<text>nous</text>
</lyric>
<lyric number="3">
<syllabic>begin</syllabic>
<text>lu</text>
</lyric>
</note>
<note>
<pitch>
<step>A</step>
<octave>4</octave>
</pitch>
<duration>16</duration>
<type>eighth</type>
<lyric number="1">
<syllabic>single</syllabic>
<text>ta</text>
</lyric>
<lyric number="2">
<syllabic>single</syllabic>
<text>tes</text>
</lyric>
<lyric number="3">
<syllabic>end</syllabic>
<text></text>
</lyric>
</note>
<note>
<pitch>
<step>A</step>
<octave>4</octave>
</pitch>
<duration>32</duration>
<type>quarter</type>
<lyric number="1">
<syllabic>single</syllabic>
<text>croix,</text>
</lyric>
<lyric number="2">
<syllabic>single</syllabic>
<text>enfants,</text>
</lyric>
<lyric number="3">
<syllabic>single</syllabic>
<text>ia,</text>
</lyric>
</note>
<note>
<pitch>
<step>G</step>
<octave>4</octave>
</pitch>
<duration>16</duration>
<type>eighth</type>
<lyric number="1">
<syllabic>begin</syllabic>
<text>pré</text>
</lyric>
<lyric number="2">
<syllabic>begin</syllabic>
<text>Ten</text>
</lyric>
<lyric number="3">
<syllabic>begin</syllabic>
<text>al</text>
</lyric>
</note>
<note>
<pitch>
<step>F</step>
<octave>4</octave>
</pitch>
<duration>16</duration>
<type>eighth</type>
<lyric number="1">
<syllabic>end</syllabic>
<text>cieux</text>
</lyric>
<lyric number="2">
<syllabic>end</syllabic>
<text>dre</text>
</lyric>
<lyric number="3">
<syllabic>middle</syllabic>
<text>lé</text>
</lyric>
</note>
</measure>
<measure number="5">
<note>
<pitch>
<step>F</step>
<octave>4</octave>
</pitch>
<duration>24</duration>
<type>eighth</type>
<dot/>
<notations>
<slur type="start" number="1"/>
</notations>
<lyric number="1">
<syllabic>begin</syllabic>
<text>Jé</text>
</lyric>
<lyric number="2">
<syllabic>begin</syllabic>
<text>Pè</text>
</lyric>
<lyric number="3">
<syllabic>middle</syllabic>
<text>lu</text>
</lyric>
</note>
<note>
<pitch>
<step>E</step>
<octave>4</octave>
</pitch>
<duration>8</duration>
<type>16th</type>
<notations>
<slur type="stop" number="1"/>
</notations>
</note>
<note>
<pitch>
<step>E</step>
<octave>4</octave>
</pitch>
<duration>32</duration>
<type>quarter</type>
<lyric number="1">
<syllabic>end</syllabic>
<text>sus.</text>
</lyric>
<lyric number="2">
<syllabic>end</syllabic>
<text>re.</text>
</lyric>
<lyric number="3">
<syllabic>end</syllabic>
<text>ia,</text>
</lyric>
</note>
<note>
<rest/>
<duration>32</duration>
<type>quarter</type>
</note>
<note>
<pitch>
<step>F</step>
<octave>4</octave>
</pitch>
<duration>16</duration>
<type>eighth</type>
<lyric number="1">
<syllabic>begin</syllabic>
<text>J'é</text>
</lyric>
<lyric number="2">
<syllabic>begin</syllabic>
<text>J'é</text>
</lyric>
<lyric number="3">
<syllabic>begin</syllabic>
<text>J'é</text>
</lyric>
</note>
<note>
<pitch>
<step>G</step>
<octave>4</octave>
</pitch>
<duration>16</duration>
<type>eighth</type>
<lyric number="1">
<syllabic>end</syllabic>
<text>lève</text>
</lyric>
<lyric number="2">
<syllabic>end</syllabic>
<text>lève</text>
</lyric>
<lyric number="3">
<syllabic>end</syllabic>
<text>lève</text>
</lyric>
</note>
</measure>
<measure number="6">
<note>
<pitch>
<step>A</step>
<octave>4</octave>
</pitch>
<duration>16</duration>
<type>eighth</type>
<lyric number="1">
<syllabic>single</syllabic>
<text>mes</text>
</lyric>
<lyric number="2">
<syllabic>single</syllabic>
<text>mes</text>
</lyric>
<lyric number="3">
<syllabic>single</syllabic>
<text>mes</text>
</lyric>
</note>
<note>
<pitch>
<step>C</step>
<octave>5</octave>
</pitch>
<duration>16</duration>
<type>eighth</type>
<lyric number="1">
<syllabic>single</syllabic>
<text>mains</text>
</lyric>
<lyric number="2">
<syllabic>single</syllabic>
<text>mains</text>
</lyric>
<lyric number="3">
<syllabic>single</syllabic>
<text>mains</text>
</lyric>
</note>
<note>
<pitch>
<step>C</step>
<octave>5</octave>
</pitch>
<duration>16</duration>
<type>eighth</type>
<lyric number="1">
<syllabic>single</syllabic>
<text>et</text>
</lyric>
<lyric number="2">
<syllabic>single</syllabic>
<text>et</text>
</lyric>
<lyric number="3">
<syllabic>single</syllabic>
<text>et</text>
</lyric>
</note>
<note>
<pitch>
<step>A</step>
<octave>4</octave>
</pitch>
<duration>16</duration>
<type>eighth</type>
<lyric number="1">
<syllabic>single</syllabic>
<text>mon</text>
</lyric>
<lyric number="2">
<syllabic>single</syllabic>
<text>mon</text>
</lyric>
<lyric number="3">
<syllabic>single</syllabic>
<text>mon</text>
</lyric>
</note>
<note>
<pitch>
<step>D</step>
<octave>5</octave>
</pitch>
<duration>16</duration>
<type>eighth</type>
<lyric number="1">
<syllabic>single</syllabic>
<text>âme</text>
</lyric>
<lyric number="2">
<syllabic>single</syllabic>
<text>âme</text>
</lyric>
<lyric number="3">
<syllabic>single</syllabic>
<text>âme</text>
</lyric>
</note>
<note>
<pitch>
<step>C</step>
<octave>5</octave>
</pitch>
<duration>16</duration>
<type>eighth</type>
<lyric number="1">
<syllabic>single</syllabic>
<text>à</text>
</lyric>
<lyric number="2">
<syllabic>single</syllabic>
<text>à</text>
</lyric>
<lyric number="3">
<syllabic>single</syllabic>
<text>à</text>
</lyric>
</note>
<note>
<pitch>
<step>B</step>
<octave>4</octave>
</pitch>
<duration>16</duration>
<type>eighth</type>
<lyric number="1">
<syllabic>single</syllabic>
<text>la</text>
</lyric>
<lyric number="2">
<syllabic>single</syllabic>
<text>la</text>
</lyric>
<lyric number="3">
<syllabic>single</syllabic>
<text>la</text>
</lyric>
</note>
<note>
<pitch>
<step>A</step>
<octave>4</octave>
</pitch>
<duration>16</duration>
<type>eighth</type>
<lyric number="1">
<syllabic>begin</syllabic>
<text>lou</text>
</lyric>
<lyric number="2">
<syllabic>begin</syllabic>
<text>lou</text>
</lyric>
<lyric number="3">
<syllabic>begin</syllabic>
<text>lou</text>
</lyric>
</note>
</measure>
<measure number="7">
<note>
<pitch>
<step>G</step>
<octave>4</octave>
</pitch>
<duration>16</duration>
<type>eighth</type>
<lyric number="1">
<syllabic>middle</syllabic>
<text>an</text>
</lyric>
<lyric number="2">
<syllabic>middle</syllabic>
<text>an</text>
</lyric>
<lyric number="3">
<syllabic>middle</syllabic>
<text>an</text>
</lyric>
</note>
<note>
<pitch>
<step>G</step>
<octave>4</octave>
</pitch>
<duration>16</duration>
<type>eighth</type>
<lyric number="1">
<syllabic>end</syllabic>
<text>ge</text>
</lyric>
<lyric number="2">
<syllabic>end</syllabic>
<text>ge</text>
</lyric>
<lyric number="3">
<syllabic>end</syllabic>
<text>ge</text>
</lyric>
</note>
<note>
<pitch>
<step>G</step>
<octave>4</octave>
</pitch>
<duration>8</duration>
<type>16th</type>
<lyric number="1">
<syllabic>single</syllabic>
<text>de</text>
</lyric>
<lyric number="2">
<syllabic>single</syllabic>
<text>de</text>
</lyric>
<lyric number="3">
<syllabic>single</syllabic>
<text>de</text>
</lyric>
</note>
<note>
<pitch>
<step>A</step>
<octave>4</octave>
</pitch>
<duration>24</duration>
<type>eighth</type>
<dot/>
<lyric number="1">
<syllabic>single</syllabic>
<text>ton</text>
</lyric>
<lyric number="2">
<syllabic>single</syllabic>
<text>ton</text>
</lyric>
<lyric number="3">
<syllabic>single</syllabic>
<text>ton</text>
</lyric>
</note>
<note>
<pitch>
<step>C</step>
<octave>4</octave>
</pitch>
<duration>32</duration>
<type>quarter</type>
<lyric number="1">
<syllabic>single</syllabic>
<text>nom,</text>
</lyric>
<lyric number="2">
<syllabic>single</syllabic>
<text>nom,</text>
</lyric>
<lyric number="3">
<syllabic>single</syllabic>
<text>nom,</text>
</lyric>
</note>
<note>
<pitch>
<step>D</step>
<octave>4</octave>
</pitch>
<duration>16</duration>
<type>eighth</type>
<lyric number="1">
<syllabic>begin</syllabic>
<text>pré</text>
</lyric>
<lyric number="2">
<syllabic>begin</syllabic>
<text>Ten</text>
</lyric>
<lyric number="3">
<syllabic>begin</syllabic>
<text>al</text>
</lyric>
</note>
<note>
<pitch>
<step>E</step>
<octave>4</octave>
</pitch>
<duration>16</duration>
<type>eighth</type>
<lyric number="1">
<syllabic>end</syllabic>
<text>cieux</text>
</lyric>
<lyric number="2">
<syllabic>end</syllabic>
<text>dre</text>
</lyric>
<lyric number="3">
<syllabic>middle</syllabic>
<text>lé</text>
</lyric>
</note>
</measure>
<measure number="8">
<note>
<pitch>
<step>F</step>
<octave>4</octave>
</pitch>
<duration>32</duration>
<type>quarter</type>
<lyric number="1">
<syllabic>begin</syllabic>
<text>Jé</text>
</lyric>
<lyric number="2">
<syllabic>begin</syllabic>
<text>Pè</text>
</lyric>
<lyric number="3">
<syllabic>middle</syllabic>
<text>lu</text>
</lyric>
</note>
<note>
<pitch>
<step>F</step>
<octave>4</octave>
</pitch>
<duration>32</duration>
<type>quarter</type>
<lyric number="1">
<syllabic>end</syllabic>
<text>sus,</text>
</lyric>
<lyric number="2">
<syllabic>end</syllabic>
<text>re,</text>
</lyric>
<lyric number="3">
<syllabic>end</syllabic>
<text>ia,</text>
</lyric>
</note>
<note>
<rest/>
<duration>32</duration>
<type>quarter</type>
</note>
<note>
<pitch>
<step>F</step>
<octave>4</octave>
</pitch>
<duration>16</duration>
<type>eighth</type>
<lyric number="1">
<syllabic>begin</syllabic>
<text>pré</text>
</lyric>
<lyric number="2">
<syllabic>begin</syllabic>
<text>ten</text>
</lyric>
<lyric number="3">
<syllabic>begin</syllabic>
<text>al</text>
</lyric>
</note>
<note>
<pitch>
<step>B</step>
<octave>3</octave>
</pitch>
<duration>16</duration>
<type>eighth</type>
<lyric number="1">
<syllabic>end</syllabic>
<text>cieux</text>
</lyric>
<lyric number="2">
<syllabic>end</syllabic>
<text>dre</text>
</lyric>
<lyric number="3">
<syllabic>middle</syllabic>
<text>lé</text>
</lyric>
</note>
</measure>
<measure number="9">
<note>
<pitch>
<step>D</step>
<octave>4</octave>
</pitch>
<duration>24</duration>
<type>eighth</type>
<dot/>
<notations>
<slur type="start" number="1"/>
</notations>
<lyric number="1">
<syllabic>begin</syllabic>
<text>Jé</text>
</lyric>
<lyric number="2">
<syllabic>begin</syllabic>
<text>Pè</text>
</lyric>
<lyric number="3">
<syllabic>middle</syllabic>
<text>lu</text>
</lyric>
</note>
<note>
<pitch>
<step>C</step>
<octave>4</octave>
</pitch>
<duration>8</duration>
<type>16th</type>
<notations>
<slur type="stop" number="1"/>
</notations>
</note>
<note>
<pitch>
<step>C</step>
<octave>4</octave>
</pitch>
<duration>32</duration>
<type>quarter</type>
<lyric number="1">
<syllabic>end</syllabic>
<text>sus.</text>
</lyric>
<lyric number="2">
<syllabic>end</syllabic>
<text>re.</text>
</lyric>
<lyric number="3">
<syllabic>end</syllabic>
<text>ia.</text>
</lyric>
</note>
<note>
<rest/>
<duration>32</duration>
<type>quarter</type>
</note>
<barline location="right">
<bar-style>light-heavy</bar-style>
<repeat direction="backward" times="3"/>
</barline>
<barline location="right">
<bar-style>light-heavy</bar-style>
</barline>
</measure>
</part>
</score-partwise>
