<?xml version="1.0" encoding="UTF-8" standalone='no'?>
<!DOCTYPE score-partwise PUBLIC "-//Recordare//DTD MusicXML 1.0 Partwise//EN" "http://www.musicxml.org/dtds/partwise.dtd">
<score-partwise>
<work>
<work-title>Brûle, brûle</work-title>
</work>
<identification>
<creator type="transcriber">John Larsson</creator>
<rights>© 1975 Salvationist Publishing and Supplies</rights>
<encoding>
<software>Noteworthy Composer</software>
<encoding-date>2007-02-17</encoding-date>
</encoding>
</identification>
<part-list>
<score-part id="P1">
<part-name>Voix des femmes</part-name>
<score-instrument id="P1-I1">
<instrument-name>String Ensemble 1</instrument-name>
</score-instrument>
<midi-instrument id="P1-I1">
<midi-channel>1</midi-channel>
<midi-program>50</midi-program>
</midi-instrument>
</score-part>
<score-part id="P2">
<part-name>Voix des hommes</part-name>
<score-instrument id="P2-I1">
<instrument-name>String Ensemble 1</instrument-name>
</score-instrument>
<midi-instrument id="P2-I1">
<midi-channel>2</midi-channel>
<midi-program>50</midi-program>
</midi-instrument>
</score-part>
</part-list>
<part id="P1">
<measure number="1">
<attributes>
<divisions>4</divisions>
</attributes>
<attributes>
<clef>
<sign>G</sign>
<line>2</line>
</clef>
</attributes>
<attributes>
<key>
<fifths>1</fifths>
</key>
</attributes>
<attributes>
<time>
<beats>4</beats>
<beat-type>4</beat-type>
</time>
</attributes>
<direction>
<direction-type>
<metronome parentheses="no">
<beat-unit>quarter</beat-unit>
<per-minute>160</per-minute>
</metronome>
</direction-type>
<sound tempo="160"/>
</direction>
<note>
<pitch>
<step>B</step>
<octave>4</octave>
</pitch>
<duration>12</duration>
<voice>1</voice>
<type>half</type>
<dot/>
<stem>up</stem>
<lyric number="1">
<syllabic>begin</syllabic>
<text>1. Brû</text>
</lyric>
<lyric number="2">
<syllabic>begin</syllabic>
<text>2. Brû</text>
</lyric>
<lyric number="3">
<syllabic>begin</syllabic>
<text>3. Brû</text>
</lyric>
</note>
<note>
<pitch>
<step>B</step>
<octave>4</octave>
</pitch>
<duration>4</duration>
<voice>1</voice>
<type>quarter</type>
<stem>up</stem>
<lyric number="1">
<syllabic>end</syllabic>
<text>le,</text>
</lyric>
<lyric number="2">
<syllabic>end</syllabic>
<text>le,</text>
</lyric>
<lyric number="3">
<syllabic>end</syllabic>
<text>le,</text>
</lyric>
</note>
<backup>
<duration>16</duration>
</backup>
<note>
<pitch>
<step>D</step>
<octave>4</octave>
</pitch>
<duration>12</duration>
<voice>2</voice>
<type>half</type>
<dot/>
<stem>down</stem>
</note>
<note>
<pitch>
<step>G</step>
<octave>4</octave>
</pitch>
<duration>4</duration>
<voice>2</voice>
<type>quarter</type>
<stem>down</stem>
</note>
</measure>
<measure number="2">
<note>
<pitch>
<step>B</step>
<octave>4</octave>
</pitch>
<duration>8</duration>
<voice>1</voice>
<type>half</type>
<stem>up</stem>
<lyric number="1">
<syllabic>begin</syllabic>
<text>brû</text>
</lyric>
<lyric number="2">
<syllabic>begin</syllabic>
<text>brû</text>
</lyric>
<lyric number="3">
<syllabic>begin</syllabic>
<text>brû</text>
</lyric>
</note>
<note>
<pitch>
<step>B</step>
<octave>4</octave>
</pitch>
<duration>8</duration>
<voice>1</voice>
<type>half</type>
<stem>up</stem>
<lyric number="1">
<syllabic>end</syllabic>
<text>le,</text>
</lyric>
<lyric number="2">
<syllabic>end</syllabic>
<text>le,</text>
</lyric>
<lyric number="3">
<syllabic>end</syllabic>
<text>le,</text>
</lyric>
</note>
<backup>
<duration>16</duration>
</backup>
<note>
<pitch>
<step>F</step>
<alter>1</alter>
<octave>4</octave>
</pitch>
<duration>8</duration>
<voice>2</voice>
<type>half</type>
<stem>down</stem>
</note>
<note>
<pitch>
<step>F</step>
<octave>4</octave>
</pitch>
<duration>8</duration>
<voice>2</voice>
<type>half</type>
<accidental>natural</accidental>
<stem>down</stem>
</note>
</measure>
<measure number="3">
<note>
<pitch>
<step>C</step>
<octave>5</octave>
</pitch>
<duration>12</duration>
<voice>1</voice>
<type>half</type>
<dot/>
<stem>up</stem>
<lyric number="1">
<syllabic>single</syllabic>
<text>flamme</text>
</lyric>
<lyric number="2">
<syllabic>begin</syllabic>
<text>flam</text>
</lyric>
<lyric number="3">
<syllabic>begin</syllabic>
<text>flam</text>
</lyric>
</note>
<note>
<pitch>
<step>C</step>
<octave>5</octave>
</pitch>
<duration>4</duration>
<voice>1</voice>
<type>quarter</type>
<stem>up</stem>
<lyric number="1">
<syllabic>begin</syllabic>
<text>ar</text>
</lyric>
<lyric number="2">
<syllabic>end</syllabic>
<text>me</text>
</lyric>
<lyric number="3">
<syllabic>end</syllabic>
<text>me</text>
</lyric>
</note>
<backup>
<duration>16</duration>
</backup>
<note>
<pitch>
<step>E</step>
<octave>4</octave>
</pitch>
<duration>12</duration>
<voice>2</voice>
<type>half</type>
<dot/>
<stem>down</stem>
</note>
<note>
<pitch>
<step>E</step>
<octave>4</octave>
</pitch>
<duration>4</duration>
<voice>2</voice>
<type>quarter</type>
<stem>down</stem>
</note>
</measure>
<measure number="4">
<note>
<pitch>
<step>B</step>
<octave>4</octave>
</pitch>
<duration>8</duration>
<voice>1</voice>
<type>half</type>
<stem>up</stem>
<lyric number="1">
<syllabic>middle</syllabic>
<text>den</text>
</lyric>
<lyric number="2">
<syllabic>begin</syllabic>
<text>clai</text>
</lyric>
<lyric number="3">
<syllabic>begin</syllabic>
<text>sain</text>
</lyric>
</note>
<note>
<pitch>
<step>G</step>
<octave>4</octave>
</pitch>
<duration>8</duration>
<voice>1</voice>
<type>half</type>
<stem>up</stem>
<lyric number="1">
<syllabic>end</syllabic>
<text>te,</text>
</lyric>
<lyric number="2">
<syllabic>end</syllabic>
<text>re,</text>
</lyric>
<lyric number="3">
<syllabic>end</syllabic>
<text>te,</text>
</lyric>
</note>
<backup>
<duration>16</duration>
</backup>
<note>
<pitch>
<step>D</step>
<octave>4</octave>
</pitch>
<duration>8</duration>
<voice>2</voice>
<type>half</type>
<stem>down</stem>
</note>
<note>
<pitch>
<step>B</step>
<octave>3</octave>
</pitch>
<duration>8</duration>
<voice>2</voice>
<type>half</type>
<stem>down</stem>
</note>
</measure>
<measure number="5">
<note>
<pitch>
<step>G</step>
<octave>4</octave>
</pitch>
<duration>12</duration>
<voice>1</voice>
<type>half</type>
<dot/>
<stem>up</stem>
<lyric number="1">
<syllabic>single</syllabic>
<text>Flamme</text>
</lyric>
<lyric number="2">
<syllabic>begin</syllabic>
<text>Flam</text>
</lyric>
<lyric number="3">
<syllabic>begin</syllabic>
<text>Flam</text>
</lyric>
</note>
<note>
<pitch>
<step>G</step>
<octave>4</octave>
</pitch>
<duration>4</duration>
<voice>1</voice>
<type>quarter</type>
<stem>up</stem>
<lyric number="1">
<syllabic>begin</syllabic>
<text>ar</text>
</lyric>
<lyric number="2">
<syllabic>end</syllabic>
<text>me</text>
</lyric>
<lyric number="3">
<syllabic>end</syllabic>
<text>me</text>
</lyric>
</note>
<backup>
<duration>16</duration>
</backup>
<note>
<pitch>
<step>E</step>
<octave>4</octave>
</pitch>
<duration>12</duration>
<voice>2</voice>
<type>half</type>
<dot/>
<stem>down</stem>
</note>
<note>
<pitch>
<step>E</step>
<octave>4</octave>
</pitch>
<duration>4</duration>
<voice>2</voice>
<type>quarter</type>
<stem>down</stem>
</note>
</measure>
<measure number="6">
<note>
<pitch>
<step>A</step>
<octave>4</octave>
</pitch>
<duration>8</duration>
<voice>1</voice>
<type>half</type>
<stem>up</stem>
<lyric number="1">
<syllabic>middle</syllabic>
<text>den</text>
</lyric>
<lyric number="2">
<syllabic>begin</syllabic>
<text>clai</text>
</lyric>
<lyric number="3">
<syllabic>begin</syllabic>
<text>sain</text>
</lyric>
</note>
<note>
<pitch>
<step>A</step>
<octave>4</octave>
</pitch>
<duration>8</duration>
<voice>1</voice>
<type>half</type>
<stem>up</stem>
<lyric number="1">
<syllabic>end</syllabic>
<text>te</text>
</lyric>
<lyric number="2">
<syllabic>end</syllabic>
<text>re,</text>
</lyric>
<lyric number="3">
<syllabic>end</syllabic>
<text>te,</text>
</lyric>
</note>
<backup>
<duration>16</duration>
</backup>
<note>
<pitch>
<step>E</step>
<octave>4</octave>
</pitch>
<duration>8</duration>
<voice>2</voice>
<type>half</type>
<stem>down</stem>
</note>
<note>
<pitch>
<step>C</step>
<octave>4</octave>
</pitch>
<duration>8</duration>
<voice>2</voice>
<type>half</type>
<stem>down</stem>
</note>
</measure>
<measure number="7">
<note>
<pitch>
<step>B</step>
<octave>4</octave>
</pitch>
<duration>8</duration>
<voice>1</voice>
<type>half</type>
<stem>up</stem>
<lyric number="1">
<syllabic>single</syllabic>
<text>dans</text>
</lyric>
<lyric number="2">
<syllabic>single</syllabic>
<text>feu</text>
</lyric>
<lyric number="3">
<syllabic>single</syllabic>
<text>feu</text>
</lyric>
</note>
<note>
<pitch>
<step>A</step>
<octave>4</octave>
</pitch>
<duration>8</duration>
<voice>1</voice>
<type>half</type>
<stem>up</stem>
<lyric number="1">
<syllabic>single</syllabic>
<text>mon</text>
</lyric>
<lyric number="2">
<syllabic>begin</syllabic>
<text>di</text>
</lyric>
<lyric number="3">
<syllabic>begin</syllabic>
<text>d'en</text>
</lyric>
</note>
<backup>
<duration>16</duration>
</backup>
<note>
<pitch>
<step>D</step>
<octave>4</octave>
</pitch>
<duration>8</duration>
<voice>2</voice>
<type>half</type>
<stem>down</stem>
</note>
<note>
<pitch>
<step>C</step>
<octave>4</octave>
</pitch>
<duration>8</duration>
<voice>2</voice>
<type>half</type>
<stem>down</stem>
</note>
</measure>
<measure number="8">
<note>
<pitch>
<step>G</step>
<octave>4</octave>
</pitch>
<duration>16</duration>
<voice>1</voice>
<type>whole</type>
<stem>up</stem>
<lyric number="1">
<syllabic>single</syllabic>
<text>coeur !</text>
</lyric>
<lyric number="2">
<syllabic>end</syllabic>
<text>vin !</text>
</lyric>
<lyric number="3">
<syllabic>end</syllabic>
<text>haut !</text>
</lyric>
</note>
<backup>
<duration>16</duration>
</backup>
<note>
<pitch>
<step>B</step>
<octave>3</octave>
</pitch>
<duration>16</duration>
<voice>2</voice>
<type>whole</type>
<stem>down</stem>
</note>
</measure>
<measure number="9">
<note>
<pitch>
<step>B</step>
<octave>4</octave>
</pitch>
<duration>12</duration>
<voice>1</voice>
<type>half</type>
<dot/>
<stem>up</stem>
<lyric number="1">
<syllabic>single</syllabic>
<text>Brûle</text>
</lyric>
<lyric number="2">
<syllabic>single</syllabic>
<text>Mon</text>
</lyric>
<lyric number="3">
<syllabic>single</syllabic>
<text>Ton</text>
</lyric>
</note>
<note>
<pitch>
<step>B</step>
<octave>4</octave>
</pitch>
<duration>4</duration>
<voice>1</voice>
<type>quarter</type>
<stem>up</stem>
<lyric number="1">
<syllabic>single</syllabic>
<text>et</text>
</lyric>
<lyric number="2">
<syllabic>begin</syllabic>
<text>dé</text>
</lyric>
<lyric number="3">
<syllabic>begin</syllabic>
<text>a</text>
</lyric>
</note>
<backup>
<duration>16</duration>
</backup>
<note>
<pitch>
<step>D</step>
<octave>4</octave>
</pitch>
<duration>12</duration>
<voice>2</voice>
<type>half</type>
<dot/>
<stem>down</stem>
</note>
<note>
<pitch>
<step>G</step>
<octave>4</octave>
</pitch>
<duration>4</duration>
<voice>2</voice>
<type>quarter</type>
<stem>down</stem>
</note>
</measure>
<measure number="10">
<note>
<pitch>
<step>B</step>
<octave>4</octave>
</pitch>
<duration>8</duration>
<voice>1</voice>
<type>half</type>
<stem>up</stem>
<lyric number="1">
<syllabic>begin</syllabic>
<text>com</text>
</lyric>
<lyric number="2">
<syllabic>end</syllabic>
<text>sir</text>
</lyric>
<lyric number="3">
<syllabic>end</syllabic>
<text>mour</text>
</lyric>
</note>
<note>
<pitch>
<step>B</step>
<octave>4</octave>
</pitch>
<duration>8</duration>
<voice>1</voice>
<type>half</type>
<stem>up</stem>
<lyric number="1">
<syllabic>end</syllabic>
<text>ble</text>
</lyric>
<lyric number="2">
<syllabic>single</syllabic>
<text>est</text>
</lyric>
<lyric number="3">
<syllabic>single</syllabic>
<text>pur,</text>
</lyric>
</note>
<backup>
<duration>16</duration>
</backup>
<note>
<pitch>
<step>F</step>
<alter>1</alter>
<octave>4</octave>
</pitch>
<duration>8</duration>
<voice>2</voice>
<type>half</type>
<stem>down</stem>
</note>
<note>
<pitch>
<step>F</step>
<octave>4</octave>
</pitch>
<duration>8</duration>
<voice>2</voice>
<type>half</type>
<accidental>natural</accidental>
<stem>down</stem>
</note>
</measure>
<measure number="11">
<note>
<pitch>
<step>C</step>
<octave>5</octave>
</pitch>
<duration>12</duration>
<voice>1</voice>
<type>half</type>
<dot/>
<stem>up</stem>
<lyric number="1">
<syllabic>single</syllabic>
<text>mon</text>
</lyric>
<lyric number="2">
<syllabic>single</syllabic>
<text>de</text>
</lyric>
<lyric number="3">
<syllabic>single</syllabic>
<text>sans</text>
</lyric>
</note>
<note>
<pitch>
<step>C</step>
<octave>5</octave>
</pitch>
<duration>4</duration>
<voice>1</voice>
<type>quarter</type>
<stem>up</stem>
<lyric number="1">
<syllabic>begin</syllabic>
<text>at</text>
</lyric>
<lyric number="2">
<syllabic>single</syllabic>
<text>te</text>
</lyric>
<lyric number="3">
<syllabic>begin</syllabic>
<text>con</text>
</lyric>
</note>
<backup>
<duration>16</duration>
</backup>
<note>
<pitch>
<step>E</step>
<octave>4</octave>
</pitch>
<duration>12</duration>
<voice>2</voice>
<type>half</type>
<dot/>
<stem>down</stem>
</note>
<note>
<pitch>
<step>E</step>
<octave>4</octave>
</pitch>
<duration>4</duration>
<voice>2</voice>
<type>quarter</type>
<stem>down</stem>
</note>
</measure>
<measure number="12">
<note>
<pitch>
<step>B</step>
<octave>4</octave>
</pitch>
<duration>8</duration>
<voice>1</voice>
<type>half</type>
<stem>up</stem>
<lyric number="1">
<syllabic>middle</syllabic>
<text>ten</text>
</lyric>
<lyric number="2">
<syllabic>begin</syllabic>
<text>plai</text>
</lyric>
<lyric number="3">
<syllabic>middle</syllabic>
<text>train</text>
</lyric>
</note>
<note>
<pitch>
<step>G</step>
<octave>4</octave>
</pitch>
<duration>8</duration>
<voice>1</voice>
<type>half</type>
<stem>up</stem>
<lyric number="1">
<syllabic>end</syllabic>
<text>te</text>
</lyric>
<lyric number="2">
<syllabic>end</syllabic>
<text>re,</text>
</lyric>
<lyric number="3">
<syllabic>end</syllabic>
<text>te,</text>
</lyric>
</note>
<backup>
<duration>16</duration>
</backup>
<note>
<pitch>
<step>D</step>
<octave>4</octave>
</pitch>
<duration>8</duration>
<voice>2</voice>
<type>half</type>
<stem>down</stem>
</note>
<note>
<pitch>
<step>B</step>
<octave>3</octave>
</pitch>
<duration>8</duration>
<voice>2</voice>
<type>half</type>
<stem>down</stem>
</note>
</measure>
<measure number="13">
<note>
<pitch>
<step>G</step>
<octave>4</octave>
</pitch>
<duration>12</duration>
<voice>1</voice>
<type>half</type>
<dot/>
<stem>up</stem>
<lyric number="1">
<syllabic>single</syllabic>
<text>De</text>
</lyric>
<lyric number="2">
<syllabic>begin</syllabic>
<text>D'ac</text>
</lyric>
<lyric number="3">
<syllabic>single</syllabic>
<text>Me</text>
</lyric>
</note>
<note>
<pitch>
<step>G</step>
<octave>4</octave>
</pitch>
<duration>4</duration>
<voice>1</voice>
<type>quarter</type>
<stem>up</stem>
<lyric number="1">
<syllabic>begin</syllabic>
<text>lu</text>
</lyric>
<lyric number="2">
<syllabic>middle</syllabic>
<text>com</text>
</lyric>
<lyric number="3">
<syllabic>single</syllabic>
<text>donne</text>
</lyric>
</note>
<backup>
<duration>16</duration>
</backup>
<note>
<pitch>
<step>E</step>
<octave>4</octave>
</pitch>
<duration>12</duration>
<voice>2</voice>
<type>half</type>
<dot/>
<stem>down</stem>
</note>
<note>
<pitch>
<step>E</step>
<octave>4</octave>
</pitch>
<duration>4</duration>
<voice>2</voice>
<type>quarter</type>
<stem>down</stem>
</note>
</measure>
<measure number="14">
<note>
<pitch>
<step>A</step>
<octave>4</octave>
</pitch>
<duration>8</duration>
<voice>1</voice>
<type>half</type>
<stem>up</stem>
<lyric number="1">
<syllabic>end</syllabic>
<text>mière</text>
</lyric>
<lyric number="2">
<syllabic>end</syllabic>
<text>plir</text>
</lyric>
<lyric number="3">
<syllabic>single</syllabic>
<text>un</text>
</lyric>
</note>
<note>
<pitch>
<step>A</step>
<octave>4</octave>
</pitch>
<duration>8</duration>
<voice>1</voice>
<type>half</type>
<stem>up</stem>
<lyric number="1">
<syllabic>single</syllabic>
<text>et</text>
</lyric>
<lyric number="2">
<syllabic>single</syllabic>
<text>tout</text>
</lyric>
<lyric number="3">
<syllabic>begin</syllabic>
<text>a</text>
</lyric>
</note>
<backup>
<duration>16</duration>
</backup>
<note>
<pitch>
<step>E</step>
<octave>4</octave>
</pitch>
<duration>8</duration>
<voice>2</voice>
<type>half</type>
<stem>down</stem>
</note>
<note>
<pitch>
<step>C</step>
<octave>4</octave>
</pitch>
<duration>8</duration>
<voice>2</voice>
<type>half</type>
<stem>down</stem>
</note>
</measure>
<measure number="15">
<note>
<pitch>
<step>B</step>
<octave>4</octave>
</pitch>
<duration>8</duration>
<voice>1</voice>
<type>half</type>
<stem>up</stem>
<lyric number="1">
<syllabic>single</syllabic>
<text>de</text>
</lyric>
<lyric number="2">
<syllabic>single</syllabic>
<text>ton</text>
</lyric>
<lyric number="3">
<syllabic>end</syllabic>
<text>mour</text>
</lyric>
</note>
<note>
<pitch>
<step>A</step>
<octave>4</octave>
</pitch>
<duration>8</duration>
<voice>1</voice>
<type>half</type>
<stem>up</stem>
<lyric number="1">
<syllabic>begin</syllabic>
<text>cha</text>
</lyric>
<lyric number="2">
<syllabic>begin</syllabic>
<text>des</text>
</lyric>
<lyric number="3">
<syllabic>begin</syllabic>
<text>nou</text>
</lyric>
</note>
<backup>
<duration>16</duration>
</backup>
<note>
<pitch>
<step>D</step>
<octave>4</octave>
</pitch>
<duration>8</duration>
<voice>2</voice>
<type>half</type>
<stem>down</stem>
</note>
<note>
<pitch>
<step>C</step>
<octave>4</octave>
</pitch>
<duration>8</duration>
<voice>2</voice>
<type>half</type>
<stem>down</stem>
</note>
</measure>
<measure number="16">
<note>
<pitch>
<step>G</step>
<octave>4</octave>
</pitch>
<duration>16</duration>
<voice>1</voice>
<type>whole</type>
<stem>up</stem>
<lyric number="1">
<syllabic>end</syllabic>
<text>leur.</text>
</lyric>
<lyric number="2">
<syllabic>end</syllabic>
<text>sein.</text>
</lyric>
<lyric number="3">
<syllabic>end</syllabic>
<text>veau.</text>
</lyric>
</note>
<backup>
<duration>16</duration>
</backup>
<note>
<pitch>
<step>B</step>
<octave>3</octave>
</pitch>
<duration>16</duration>
<voice>2</voice>
<type>whole</type>
<stem>down</stem>
</note>
</measure>
<measure number="17">
<direction>
<direction-type>
<words relative-y="120">REFRAIN</words>
</direction-type>
</direction>
<note>
<pitch>
<step>D</step>
<octave>5</octave>
</pitch>
<duration>12</duration>
<voice>1</voice>
<type>half</type>
<dot/>
<stem>up</stem>
<lyric number="2">
<syllabic>single</syllabic>
<text>Brûle</text>
</lyric>
</note>
<note>
<pitch>
<step>D</step>
<octave>5</octave>
</pitch>
<duration>4</duration>
<voice>1</voice>
<type>quarter</type>
<stem>up</stem>
<lyric number="2">
<syllabic>begin</syllabic>
<text>en</text>
</lyric>
</note>
<backup>
<duration>16</duration>
</backup>
<note>
<pitch>
<step>D</step>
<octave>4</octave>
</pitch>
<duration>12</duration>
<voice>2</voice>
<type>half</type>
<dot/>
<stem>down</stem>
</note>
<note>
<pitch>
<step>D</step>
<octave>4</octave>
</pitch>
<duration>4</duration>
<voice>2</voice>
<type>quarter</type>
<stem>down</stem>
</note>
</measure>
<measure number="18">
<note>
<pitch>
<step>B</step>
<octave>4</octave>
</pitch>
<duration>8</duration>
<voice>1</voice>
<type>half</type>
<stem>up</stem>
<lyric number="2">
<syllabic>middle</syllabic>
<text>co</text>
</lyric>
</note>
<note>
<pitch>
<step>B</step>
<octave>4</octave>
</pitch>
<duration>8</duration>
<voice>1</voice>
<type>half</type>
<stem>up</stem>
<lyric number="2">
<syllabic>end</syllabic>
<text>re,</text>
</lyric>
</note>
<backup>
<duration>16</duration>
</backup>
<note>
<pitch>
<step>E</step>
<octave>4</octave>
</pitch>
<duration>8</duration>
<voice>2</voice>
<type>half</type>
<stem>down</stem>
</note>
<note>
<pitch>
<step>D</step>
<octave>4</octave>
</pitch>
<duration>8</duration>
<voice>2</voice>
<type>half</type>
<stem>down</stem>
</note>
</measure>
<measure number="19">
<note>
<pitch>
<step>C</step>
<octave>5</octave>
</pitch>
<duration>12</duration>
<voice>1</voice>
<type>half</type>
<dot/>
<stem>up</stem>
<lyric number="2">
<syllabic>begin</syllabic>
<text>pu</text>
</lyric>
</note>
<note>
<pitch>
<step>C</step>
<octave>5</octave>
</pitch>
<duration>4</duration>
<voice>1</voice>
<type>quarter</type>
<stem>up</stem>
<lyric number="2">
<syllabic>middle</syllabic>
<text>ri</text>
</lyric>
</note>
<backup>
<duration>16</duration>
</backup>
<note>
<pitch>
<step>C</step>
<octave>4</octave>
</pitch>
<duration>12</duration>
<voice>2</voice>
<type>half</type>
<dot/>
<stem>down</stem>
</note>
<note>
<pitch>
<step>C</step>
<octave>4</octave>
</pitch>
<duration>4</duration>
<voice>2</voice>
<type>quarter</type>
<stem>down</stem>
</note>
</measure>
<measure number="20">
<note>
<pitch>
<step>A</step>
<octave>4</octave>
</pitch>
<duration>8</duration>
<voice>1</voice>
<type>half</type>
<stem>up</stem>
<lyric number="2">
<syllabic>middle</syllabic>
<text>fi</text>
</lyric>
</note>
<note>
<pitch>
<step>A</step>
<octave>4</octave>
</pitch>
<duration>8</duration>
<voice>1</voice>
<type>half</type>
<stem>up</stem>
<lyric number="2">
<syllabic>end</syllabic>
<text>e,</text>
</lyric>
</note>
<backup>
<duration>16</duration>
</backup>
<note>
<pitch>
<step>D</step>
<octave>4</octave>
</pitch>
<duration>8</duration>
<voice>2</voice>
<type>half</type>
<stem>down</stem>
</note>
<note>
<pitch>
<step>D</step>
<octave>4</octave>
</pitch>
<duration>8</duration>
<voice>2</voice>
<type>half</type>
<stem>down</stem>
</note>
</measure>
<measure number="21">
<note>
<pitch>
<step>B</step>
<octave>4</octave>
</pitch>
<duration>12</duration>
<voice>1</voice>
<type>half</type>
<dot/>
<stem>up</stem>
<lyric number="2">
<syllabic>begin</syllabic>
<text>Saint</text>
</lyric>
</note>
<note>
<pitch>
<step>B</step>
<octave>4</octave>
</pitch>
<duration>4</duration>
<voice>1</voice>
<type>quarter</type>
<stem>up</stem>
<lyric number="2">
<syllabic>middle</syllabic>
<text>Es</text>
</lyric>
</note>
<backup>
<duration>16</duration>
</backup>
<note>
<pitch>
<step>D</step>
<alter>1</alter>
<octave>4</octave>
</pitch>
<duration>12</duration>
<voice>2</voice>
<type>half</type>
<dot/>
<accidental>sharp</accidental>
<stem>down</stem>
</note>
<note>
<pitch>
<step>D</step>
<alter>1</alter>
<octave>4</octave>
</pitch>
<duration>4</duration>
<voice>2</voice>
<type>quarter</type>
<stem>down</stem>
</note>
</measure>
<measure number="22">
<note>
<pitch>
<step>G</step>
<octave>4</octave>
</pitch>
<duration>8</duration>
<voice>1</voice>
<type>half</type>
<stem>up</stem>
<lyric number="2">
<syllabic>end</syllabic>
<text>prit</text>
</lyric>
</note>
<note>
<pitch>
<step>G</step>
<octave>4</octave>
</pitch>
<duration>8</duration>
<voice>1</voice>
<type>half</type>
<stem>up</stem>
<lyric number="2">
<syllabic>single</syllabic>
<text>qui</text>
</lyric>
</note>
<backup>
<duration>16</duration>
</backup>
<note>
<pitch>
<step>E</step>
<octave>4</octave>
</pitch>
<duration>8</duration>
<voice>2</voice>
<type>half</type>
<stem>down</stem>
</note>
<note>
<pitch>
<step>D</step>
<octave>4</octave>
</pitch>
<duration>8</duration>
<voice>2</voice>
<type>half</type>
<accidental>natural</accidental>
<stem>down</stem>
</note>
</measure>
<measure number="23">
<note>
<pitch>
<step>A</step>
<octave>4</octave>
</pitch>
<duration>12</duration>
<voice>1</voice>
<type>half</type>
<dot/>
<stem>up</stem>
<lyric number="2">
<syllabic>single</syllabic>
<text>vis</text>
</lyric>
</note>
<note>
<pitch>
<step>A</step>
<octave>4</octave>
</pitch>
<duration>4</duration>
<voice>1</voice>
<type>quarter</type>
<stem>up</stem>
<lyric number="2">
<syllabic>single</syllabic>
<text>en</text>
</lyric>
</note>
<backup>
<duration>16</duration>
</backup>
<note>
<pitch>
<step>D</step>
<octave>4</octave>
</pitch>
<duration>8</duration>
<voice>2</voice>
<type>half</type>
<stem>down</stem>
</note>
<note>
<pitch>
<step>C</step>
<alter>1</alter>
<octave>4</octave>
</pitch>
<duration>4</duration>
<tie type="start"/>
<voice>2</voice>
<type>quarter</type>
<accidental>sharp</accidental>
<stem>down</stem>
<notations>
<tied type="start"/>
</notations>
</note>
<note>
<pitch>
<step>C</step>
<alter>1</alter>
<octave>4</octave>
</pitch>
<duration>4</duration>
<tie type="stop"/>
<voice>2</voice>
<type>quarter</type>
<stem>down</stem>
<notations>
<tied type="stop"/>
</notations>
</note>
</measure>
<measure number="24">
<note>
<pitch>
<step>D</step>
<octave>4</octave>
</pitch>
<duration>16</duration>
<voice>1</voice>
<type>whole</type>
<stem>up</stem>
<lyric number="2">
<syllabic>single</syllabic>
<text>moi !</text>
</lyric>
</note>
<backup>
<duration>16</duration>
</backup>
<note>
<pitch>
<step>C</step>
<octave>4</octave>
</pitch>
<duration>16</duration>
<voice>2</voice>
<type>whole</type>
<accidental>natural</accidental>
<stem>down</stem>
</note>
</measure>
<measure number="25">
<note>
<pitch>
<step>B</step>
<octave>4</octave>
</pitch>
<duration>12</duration>
<voice>1</voice>
<type>half</type>
<dot/>
<stem>up</stem>
<lyric number="2">
<syllabic>single</syllabic>
<text>Vois,</text>
</lyric>
</note>
<note>
<pitch>
<step>B</step>
<octave>4</octave>
</pitch>
<duration>4</duration>
<voice>1</voice>
<type>quarter</type>
<stem>up</stem>
<lyric number="2">
<syllabic>single</syllabic>
<text>ma</text>
</lyric>
</note>
<backup>
<duration>16</duration>
</backup>
<note>
<pitch>
<step>D</step>
<octave>4</octave>
</pitch>
<duration>12</duration>
<voice>2</voice>
<type>half</type>
<dot/>
<stem>down</stem>
</note>
<note>
<pitch>
<step>G</step>
<octave>4</octave>
</pitch>
<duration>4</duration>
<voice>2</voice>
<type>quarter</type>
<stem>down</stem>
</note>
</measure>
<measure number="26">
<note>
<pitch>
<step>B</step>
<octave>4</octave>
</pitch>
<duration>8</duration>
<voice>1</voice>
<type>half</type>
<stem>up</stem>
<lyric number="2">
<syllabic>begin</syllabic>
<text>vo</text>
</lyric>
</note>
<note>
<pitch>
<step>B</step>
<octave>4</octave>
</pitch>
<duration>8</duration>
<voice>1</voice>
<type>half</type>
<stem>up</stem>
<lyric number="2">
<syllabic>middle</syllabic>
<text>lon</text>
</lyric>
</note>
<backup>
<duration>16</duration>
</backup>
<note>
<pitch>
<step>F</step>
<alter>1</alter>
<octave>4</octave>
</pitch>
<duration>8</duration>
<voice>2</voice>
<type>half</type>
<stem>down</stem>
</note>
<note>
<pitch>
<step>F</step>
<octave>4</octave>
</pitch>
<duration>8</duration>
<voice>2</voice>
<type>half</type>
<accidental>natural</accidental>
<stem>down</stem>
</note>
</measure>
<measure number="27">
<note>
<pitch>
<step>C</step>
<octave>5</octave>
</pitch>
<duration>12</duration>
<voice>1</voice>
<type>half</type>
<dot/>
<stem>up</stem>
<lyric number="2">
<syllabic>end</syllabic>
<text>té</text>
</lyric>
</note>
<note>
<pitch>
<step>C</step>
<octave>5</octave>
</pitch>
<duration>4</duration>
<voice>1</voice>
<type>quarter</type>
<stem>up</stem>
<lyric number="2">
<syllabic>single</syllabic>
<text>se</text>
</lyric>
</note>
<backup>
<duration>16</duration>
</backup>
<note>
<pitch>
<step>E</step>
<octave>4</octave>
</pitch>
<duration>12</duration>
<voice>2</voice>
<type>half</type>
<dot/>
<stem>down</stem>
</note>
<note>
<pitch>
<step>E</step>
<octave>4</octave>
</pitch>
<duration>4</duration>
<voice>2</voice>
<type>quarter</type>
<stem>down</stem>
</note>
</measure>
<measure number="28">
<note>
<pitch>
<step>B</step>
<octave>4</octave>
</pitch>
<duration>8</duration>
<voice>1</voice>
<type>half</type>
<stem>up</stem>
<lyric number="2">
<syllabic>begin</syllabic>
<text>pli</text>
</lyric>
</note>
<note>
<pitch>
<step>G</step>
<octave>4</octave>
</pitch>
<duration>8</duration>
<voice>1</voice>
<type>half</type>
<stem>up</stem>
<lyric number="2">
<syllabic>end</syllabic>
<text>e,</text>
</lyric>
</note>
<backup>
<duration>16</duration>
</backup>
<note>
<pitch>
<step>D</step>
<octave>4</octave>
</pitch>
<duration>8</duration>
<voice>2</voice>
<type>half</type>
<stem>down</stem>
</note>
<note>
<pitch>
<step>B</step>
<octave>3</octave>
</pitch>
<duration>8</duration>
<voice>2</voice>
<type>half</type>
<stem>down</stem>
</note>
</measure>
<measure number="29">
<note>
<pitch>
<step>G</step>
<octave>4</octave>
</pitch>
<duration>12</duration>
<voice>1</voice>
<type>half</type>
<dot/>
<stem>up</stem>
<lyric number="2">
<syllabic>single</syllabic>
<text>A</text>
</lyric>
</note>
<note>
<pitch>
<step>G</step>
<octave>4</octave>
</pitch>
<duration>4</duration>
<voice>1</voice>
<type>quarter</type>
<stem>up</stem>
<lyric number="2">
<syllabic>single</syllabic>
<text>la</text>
</lyric>
</note>
<backup>
<duration>16</duration>
</backup>
<note>
<pitch>
<step>E</step>
<octave>4</octave>
</pitch>
<duration>12</duration>
<voice>2</voice>
<type>half</type>
<dot/>
<stem>down</stem>
</note>
<note>
<pitch>
<step>E</step>
<octave>4</octave>
</pitch>
<duration>4</duration>
<voice>2</voice>
<type>quarter</type>
<stem>down</stem>
</note>
</measure>
<measure number="30">
<note>
<pitch>
<step>A</step>
<octave>4</octave>
</pitch>
<duration>8</duration>
<voice>1</voice>
<type>half</type>
<stem>up</stem>
<lyric number="2">
<syllabic>begin</syllabic>
<text>tien</text>
</lyric>
</note>
<note>
<pitch>
<step>A</step>
<octave>4</octave>
</pitch>
<duration>8</duration>
<voice>1</voice>
<type>half</type>
<stem>up</stem>
<lyric number="2">
<syllabic>end</syllabic>
<text>ne</text>
</lyric>
</note>
<backup>
<duration>16</duration>
</backup>
<note>
<pitch>
<step>E</step>
<octave>4</octave>
</pitch>
<duration>8</duration>
<voice>2</voice>
<type>half</type>
<stem>down</stem>
</note>
<note>
<pitch>
<step>C</step>
<octave>4</octave>
</pitch>
<duration>8</duration>
<voice>2</voice>
<type>half</type>
<stem>down</stem>
</note>
</measure>
<measure number="31">
<note>
<pitch>
<step>B</step>
<octave>4</octave>
</pitch>
<duration>8</duration>
<voice>1</voice>
<type>half</type>
<stem>up</stem>
<lyric number="2">
<syllabic>single</syllabic>
<text>par</text>
</lyric>
</note>
<note>
<pitch>
<step>A</step>
<octave>4</octave>
</pitch>
<duration>8</duration>
<voice>1</voice>
<type>half</type>
<stem>up</stem>
<lyric number="2">
<syllabic>single</syllabic>
<text>la</text>
</lyric>
</note>
<backup>
<duration>16</duration>
</backup>
<note>
<pitch>
<step>D</step>
<octave>4</octave>
</pitch>
<duration>8</duration>
<voice>2</voice>
<type>half</type>
<stem>down</stem>
</note>
<note>
<pitch>
<step>C</step>
<octave>4</octave>
</pitch>
<duration>8</duration>
<voice>2</voice>
<type>half</type>
<stem>down</stem>
</note>
</measure>
<measure number="32">
<note>
<pitch>
<step>G</step>
<octave>4</octave>
</pitch>
<duration>16</duration>
<voice>1</voice>
<type>whole</type>
<stem>up</stem>
<lyric number="2">
<syllabic>single</syllabic>
<text>foi !</text>
</lyric>
</note>
<backup>
<duration>16</duration>
</backup>
<note>
<pitch>
<step>B</step>
<octave>3</octave>
</pitch>
<duration>16</duration>
<voice>2</voice>
<type>whole</type>
<stem>down</stem>
</note>
<barline location="right">
<bar-style>light-heavy</bar-style>
<repeat direction="backward" times="3"/>
</barline>
<barline location="right">
<bar-style>light-heavy</bar-style>
</barline>
</measure>
</part>
<part id="P2">
<measure number="1">
<attributes>
<divisions>4</divisions>
</attributes>
<attributes>
<clef>
<sign>F</sign>
<line>4</line>
</clef>
</attributes>
<attributes>
<key>
<fifths>1</fifths>
</key>
</attributes>
<attributes>
<time>
<beats>4</beats>
<beat-type>4</beat-type>
</time>
</attributes>
<note>
<pitch>
<step>G</step>
<octave>3</octave>
</pitch>
<duration>12</duration>
<voice>1</voice>
<type>half</type>
<dot/>
<stem>up</stem>
</note>
<note>
<pitch>
<step>G</step>
<octave>3</octave>
</pitch>
<duration>4</duration>
<voice>1</voice>
<type>quarter</type>
<stem>up</stem>
</note>
<backup>
<duration>16</duration>
</backup>
<note>
<pitch>
<step>G</step>
<octave>2</octave>
</pitch>
<duration>12</duration>
<voice>2</voice>
<type>half</type>
<dot/>
<stem>down</stem>
</note>
<note>
<pitch>
<step>G</step>
<octave>2</octave>
</pitch>
<duration>4</duration>
<voice>2</voice>
<type>quarter</type>
<stem>down</stem>
</note>
</measure>
<measure number="2">
<note>
<pitch>
<step>A</step>
<octave>3</octave>
</pitch>
<duration>8</duration>
<voice>1</voice>
<type>half</type>
<stem>up</stem>
</note>
<note>
<pitch>
<step>G</step>
<octave>3</octave>
</pitch>
<duration>8</duration>
<voice>1</voice>
<type>half</type>
<stem>up</stem>
</note>
<backup>
<duration>16</duration>
</backup>
<note>
<pitch>
<step>G</step>
<octave>2</octave>
</pitch>
<duration>8</duration>
<voice>2</voice>
<type>half</type>
<stem>down</stem>
</note>
<note>
<pitch>
<step>G</step>
<octave>2</octave>
</pitch>
<duration>8</duration>
<voice>2</voice>
<type>half</type>
<stem>down</stem>
</note>
</measure>
<measure number="3">
<note>
<pitch>
<step>G</step>
<octave>3</octave>
</pitch>
<duration>12</duration>
<voice>1</voice>
<type>half</type>
<dot/>
<stem>up</stem>
</note>
<note>
<pitch>
<step>G</step>
<octave>3</octave>
</pitch>
<duration>4</duration>
<voice>1</voice>
<type>quarter</type>
<stem>up</stem>
</note>
<backup>
<duration>16</duration>
</backup>
<note>
<pitch>
<step>C</step>
<octave>3</octave>
</pitch>
<duration>12</duration>
<voice>2</voice>
<type>half</type>
<dot/>
<stem>down</stem>
</note>
<note>
<pitch>
<step>C</step>
<octave>3</octave>
</pitch>
<duration>4</duration>
<voice>2</voice>
<type>quarter</type>
<stem>down</stem>
</note>
</measure>
<measure number="4">
<note>
<pitch>
<step>G</step>
<octave>3</octave>
</pitch>
<duration>8</duration>
<voice>1</voice>
<type>half</type>
<stem>up</stem>
</note>
<note>
<pitch>
<step>G</step>
<octave>3</octave>
</pitch>
<duration>8</duration>
<voice>1</voice>
<type>half</type>
<stem>up</stem>
</note>
<backup>
<duration>16</duration>
</backup>
<note>
<pitch>
<step>G</step>
<octave>2</octave>
</pitch>
<duration>8</duration>
<voice>2</voice>
<type>half</type>
<stem>down</stem>
</note>
<note>
<pitch>
<step>G</step>
<octave>2</octave>
</pitch>
<duration>8</duration>
<voice>2</voice>
<type>half</type>
<stem>down</stem>
</note>
</measure>
<measure number="5">
<note>
<pitch>
<step>B</step>
<octave>3</octave>
</pitch>
<duration>12</duration>
<voice>1</voice>
<type>half</type>
<dot/>
<stem>up</stem>
</note>
<note>
<pitch>
<step>B</step>
<octave>3</octave>
</pitch>
<duration>4</duration>
<voice>1</voice>
<type>quarter</type>
<stem>up</stem>
</note>
<backup>
<duration>16</duration>
</backup>
<note>
<pitch>
<step>E</step>
<octave>3</octave>
</pitch>
<duration>12</duration>
<voice>2</voice>
<type>half</type>
<dot/>
<stem>down</stem>
</note>
<note>
<pitch>
<step>E</step>
<octave>3</octave>
</pitch>
<duration>4</duration>
<voice>2</voice>
<type>quarter</type>
<stem>down</stem>
</note>
</measure>
<measure number="6">
<note>
<pitch>
<step>A</step>
<octave>3</octave>
</pitch>
<duration>8</duration>
<voice>1</voice>
<type>half</type>
<stem>up</stem>
</note>
<note>
<pitch>
<step>G</step>
<octave>3</octave>
</pitch>
<duration>8</duration>
<voice>1</voice>
<type>half</type>
<stem>up</stem>
</note>
<backup>
<duration>16</duration>
</backup>
<note>
<pitch>
<step>C</step>
<octave>3</octave>
</pitch>
<duration>8</duration>
<voice>2</voice>
<type>half</type>
<stem>down</stem>
</note>
<note>
<pitch>
<step>A</step>
<octave>2</octave>
</pitch>
<duration>8</duration>
<voice>2</voice>
<type>half</type>
<stem>down</stem>
</note>
</measure>
<measure number="7">
<note>
<pitch>
<step>G</step>
<octave>3</octave>
</pitch>
<duration>8</duration>
<voice>1</voice>
<type>half</type>
<stem>up</stem>
</note>
<note>
<pitch>
<step>F</step>
<alter>1</alter>
<octave>3</octave>
</pitch>
<duration>8</duration>
<voice>1</voice>
<type>half</type>
<stem>up</stem>
</note>
<backup>
<duration>16</duration>
</backup>
<note>
<pitch>
<step>D</step>
<octave>3</octave>
</pitch>
<duration>8</duration>
<voice>2</voice>
<type>half</type>
<stem>down</stem>
</note>
<note>
<pitch>
<step>D</step>
<octave>3</octave>
</pitch>
<duration>8</duration>
<voice>2</voice>
<type>half</type>
<stem>down</stem>
</note>
</measure>
<measure number="8">
<note>
<pitch>
<step>G</step>
<octave>3</octave>
</pitch>
<duration>16</duration>
<voice>1</voice>
<type>whole</type>
<stem>up</stem>
</note>
<backup>
<duration>16</duration>
</backup>
<note>
<pitch>
<step>G</step>
<octave>2</octave>
</pitch>
<duration>16</duration>
<voice>2</voice>
<type>whole</type>
<stem>down</stem>
</note>
</measure>
<measure number="9">
<note>
<pitch>
<step>G</step>
<octave>3</octave>
</pitch>
<duration>12</duration>
<voice>1</voice>
<type>half</type>
<dot/>
<stem>up</stem>
</note>
<note>
<pitch>
<step>G</step>
<octave>3</octave>
</pitch>
<duration>4</duration>
<voice>1</voice>
<type>quarter</type>
<stem>up</stem>
</note>
<backup>
<duration>16</duration>
</backup>
<note>
<pitch>
<step>G</step>
<octave>2</octave>
</pitch>
<duration>12</duration>
<voice>2</voice>
<type>half</type>
<dot/>
<stem>down</stem>
</note>
<note>
<pitch>
<step>G</step>
<octave>2</octave>
</pitch>
<duration>4</duration>
<voice>2</voice>
<type>quarter</type>
<stem>down</stem>
</note>
</measure>
<measure number="10">
<note>
<pitch>
<step>A</step>
<octave>3</octave>
</pitch>
<duration>8</duration>
<voice>1</voice>
<type>half</type>
<stem>up</stem>
</note>
<note>
<pitch>
<step>G</step>
<octave>3</octave>
</pitch>
<duration>8</duration>
<voice>1</voice>
<type>half</type>
<stem>up</stem>
</note>
<backup>
<duration>16</duration>
</backup>
<note>
<pitch>
<step>G</step>
<octave>2</octave>
</pitch>
<duration>8</duration>
<voice>2</voice>
<type>half</type>
<stem>down</stem>
</note>
<note>
<pitch>
<step>G</step>
<octave>2</octave>
</pitch>
<duration>8</duration>
<voice>2</voice>
<type>half</type>
<stem>down</stem>
</note>
</measure>
<measure number="11">
<note>
<pitch>
<step>G</step>
<octave>3</octave>
</pitch>
<duration>12</duration>
<voice>1</voice>
<type>half</type>
<dot/>
<stem>up</stem>
</note>
<note>
<pitch>
<step>G</step>
<octave>3</octave>
</pitch>
<duration>4</duration>
<voice>1</voice>
<type>quarter</type>
<stem>up</stem>
</note>
<backup>
<duration>16</duration>
</backup>
<note>
<pitch>
<step>C</step>
<octave>3</octave>
</pitch>
<duration>12</duration>
<voice>2</voice>
<type>half</type>
<dot/>
<stem>down</stem>
</note>
<note>
<pitch>
<step>C</step>
<octave>3</octave>
</pitch>
<duration>4</duration>
<voice>2</voice>
<type>quarter</type>
<stem>down</stem>
</note>
</measure>
<measure number="12">
<note>
<pitch>
<step>G</step>
<octave>3</octave>
</pitch>
<duration>8</duration>
<voice>1</voice>
<type>half</type>
<stem>up</stem>
</note>
<note>
<pitch>
<step>G</step>
<octave>3</octave>
</pitch>
<duration>8</duration>
<voice>1</voice>
<type>half</type>
<stem>up</stem>
</note>
<backup>
<duration>16</duration>
</backup>
<note>
<pitch>
<step>G</step>
<octave>2</octave>
</pitch>
<duration>8</duration>
<voice>2</voice>
<type>half</type>
<stem>down</stem>
</note>
<note>
<pitch>
<step>G</step>
<octave>2</octave>
</pitch>
<duration>8</duration>
<voice>2</voice>
<type>half</type>
<stem>down</stem>
</note>
</measure>
<measure number="13">
<note>
<pitch>
<step>B</step>
<octave>3</octave>
</pitch>
<duration>12</duration>
<voice>1</voice>
<type>half</type>
<dot/>
<stem>up</stem>
</note>
<note>
<pitch>
<step>B</step>
<octave>3</octave>
</pitch>
<duration>4</duration>
<voice>1</voice>
<type>quarter</type>
<stem>up</stem>
</note>
<backup>
<duration>16</duration>
</backup>
<note>
<pitch>
<step>E</step>
<octave>3</octave>
</pitch>
<duration>12</duration>
<voice>2</voice>
<type>half</type>
<dot/>
<stem>down</stem>
</note>
<note>
<pitch>
<step>E</step>
<octave>3</octave>
</pitch>
<duration>4</duration>
<voice>2</voice>
<type>quarter</type>
<stem>down</stem>
</note>
</measure>
<measure number="14">
<note>
<pitch>
<step>A</step>
<octave>3</octave>
</pitch>
<duration>8</duration>
<voice>1</voice>
<type>half</type>
<stem>up</stem>
</note>
<note>
<pitch>
<step>G</step>
<octave>3</octave>
</pitch>
<duration>8</duration>
<voice>1</voice>
<type>half</type>
<stem>up</stem>
</note>
<backup>
<duration>16</duration>
</backup>
<note>
<pitch>
<step>C</step>
<octave>3</octave>
</pitch>
<duration>8</duration>
<voice>2</voice>
<type>half</type>
<stem>down</stem>
</note>
<note>
<pitch>
<step>A</step>
<octave>2</octave>
</pitch>
<duration>8</duration>
<voice>2</voice>
<type>half</type>
<stem>down</stem>
</note>
</measure>
<measure number="15">
<note>
<pitch>
<step>G</step>
<octave>3</octave>
</pitch>
<duration>8</duration>
<voice>1</voice>
<type>half</type>
<stem>up</stem>
</note>
<note>
<pitch>
<step>F</step>
<alter>1</alter>
<octave>3</octave>
</pitch>
<duration>8</duration>
<voice>1</voice>
<type>half</type>
<stem>up</stem>
</note>
<backup>
<duration>16</duration>
</backup>
<note>
<pitch>
<step>D</step>
<octave>3</octave>
</pitch>
<duration>8</duration>
<voice>2</voice>
<type>half</type>
<stem>down</stem>
</note>
<note>
<pitch>
<step>D</step>
<octave>3</octave>
</pitch>
<duration>8</duration>
<voice>2</voice>
<type>half</type>
<stem>down</stem>
</note>
</measure>
<measure number="16">
<note>
<pitch>
<step>G</step>
<octave>3</octave>
</pitch>
<duration>16</duration>
<voice>1</voice>
<type>whole</type>
<stem>up</stem>
</note>
<backup>
<duration>16</duration>
</backup>
<note>
<pitch>
<step>G</step>
<octave>2</octave>
</pitch>
<duration>16</duration>
<voice>2</voice>
<type>whole</type>
<stem>down</stem>
</note>
</measure>
<measure number="17">
<note>
<pitch>
<step>F</step>
<alter>1</alter>
<octave>3</octave>
</pitch>
<duration>8</duration>
<voice>1</voice>
<type>half</type>
<stem>up</stem>
</note>
<note>
<pitch>
<step>A</step>
<octave>3</octave>
</pitch>
<duration>4</duration>
<tie type="start"/>
<voice>1</voice>
<type>quarter</type>
<stem>up</stem>
<notations>
<tied type="start"/>
</notations>
</note>
<note>
<pitch>
<step>A</step>
<octave>3</octave>
</pitch>
<duration>4</duration>
<tie type="stop"/>
<voice>1</voice>
<type>quarter</type>
<stem>up</stem>
<notations>
<tied type="stop"/>
</notations>
</note>
<backup>
<duration>16</duration>
</backup>
<note>
<pitch>
<step>B</step>
<octave>2</octave>
</pitch>
<duration>12</duration>
<voice>2</voice>
<type>half</type>
<dot/>
<stem>down</stem>
</note>
<note>
<pitch>
<step>B</step>
<octave>2</octave>
</pitch>
<duration>4</duration>
<voice>2</voice>
<type>quarter</type>
<stem>down</stem>
</note>
</measure>
<measure number="18">
<note>
<pitch>
<step>G</step>
<alter>1</alter>
<octave>3</octave>
</pitch>
<duration>8</duration>
<voice>1</voice>
<type>half</type>
<accidental>sharp</accidental>
<stem>up</stem>
</note>
<note>
<pitch>
<step>G</step>
<alter>1</alter>
<octave>3</octave>
</pitch>
<duration>8</duration>
<voice>1</voice>
<type>half</type>
<stem>up</stem>
</note>
<backup>
<duration>16</duration>
</backup>
<note>
<pitch>
<step>E</step>
<octave>3</octave>
</pitch>
<duration>8</duration>
<voice>2</voice>
<type>half</type>
<stem>down</stem>
</note>
<note>
<pitch>
<step>E</step>
<octave>3</octave>
</pitch>
<duration>8</duration>
<voice>2</voice>
<type>half</type>
<stem>down</stem>
</note>
</measure>
<measure number="19">
<note>
<pitch>
<step>A</step>
<octave>3</octave>
</pitch>
<duration>8</duration>
<voice>1</voice>
<type>half</type>
<stem>up</stem>
</note>
<note>
<pitch>
<step>G</step>
<octave>3</octave>
</pitch>
<duration>4</duration>
<tie type="start"/>
<voice>1</voice>
<type>quarter</type>
<accidental>natural</accidental>
<stem>up</stem>
<notations>
<tied type="start"/>
</notations>
</note>
<note>
<pitch>
<step>G</step>
<octave>3</octave>
</pitch>
<duration>4</duration>
<tie type="stop"/>
<voice>1</voice>
<type>quarter</type>
<stem>up</stem>
<notations>
<tied type="stop"/>
</notations>
</note>
<backup>
<duration>16</duration>
</backup>
<note>
<pitch>
<step>A</step>
<octave>2</octave>
</pitch>
<duration>12</duration>
<voice>2</voice>
<type>half</type>
<dot/>
<stem>down</stem>
</note>
<note>
<pitch>
<step>A</step>
<octave>2</octave>
</pitch>
<duration>4</duration>
<voice>2</voice>
<type>quarter</type>
<stem>down</stem>
</note>
</measure>
<measure number="20">
<note>
<pitch>
<step>F</step>
<alter>1</alter>
<octave>3</octave>
</pitch>
<duration>8</duration>
<voice>1</voice>
<type>half</type>
<stem>up</stem>
</note>
<note>
<pitch>
<step>F</step>
<alter>1</alter>
<octave>3</octave>
</pitch>
<duration>8</duration>
<voice>1</voice>
<type>half</type>
<stem>up</stem>
</note>
<backup>
<duration>16</duration>
</backup>
<note>
<pitch>
<step>D</step>
<octave>3</octave>
</pitch>
<duration>8</duration>
<voice>2</voice>
<type>half</type>
<stem>down</stem>
</note>
<note>
<pitch>
<step>D</step>
<octave>3</octave>
</pitch>
<duration>8</duration>
<voice>2</voice>
<type>half</type>
<stem>down</stem>
</note>
</measure>
<measure number="21">
<note>
<pitch>
<step>F</step>
<alter>1</alter>
<octave>3</octave>
</pitch>
<duration>8</duration>
<voice>1</voice>
<type>half</type>
<stem>up</stem>
</note>
<note>
<pitch>
<step>B</step>
<octave>3</octave>
</pitch>
<duration>4</duration>
<tie type="start"/>
<voice>1</voice>
<type>quarter</type>
<stem>up</stem>
<notations>
<tied type="start"/>
</notations>
</note>
<note>
<pitch>
<step>B</step>
<octave>3</octave>
</pitch>
<duration>4</duration>
<tie type="stop"/>
<voice>1</voice>
<type>quarter</type>
<stem>up</stem>
<notations>
<tied type="stop"/>
</notations>
</note>
<backup>
<duration>16</duration>
</backup>
<note>
<pitch>
<step>B</step>
<octave>2</octave>
</pitch>
<duration>12</duration>
<voice>2</voice>
<type>half</type>
<dot/>
<stem>down</stem>
</note>
<note>
<pitch>
<step>B</step>
<octave>2</octave>
</pitch>
<duration>4</duration>
<voice>2</voice>
<type>quarter</type>
<stem>down</stem>
</note>
</measure>
<measure number="22">
<note>
<pitch>
<step>B</step>
<octave>3</octave>
</pitch>
<duration>8</duration>
<voice>1</voice>
<type>half</type>
<stem>up</stem>
</note>
<note>
<pitch>
<step>B</step>
<octave>3</octave>
</pitch>
<duration>8</duration>
<voice>1</voice>
<type>half</type>
<stem>up</stem>
</note>
<backup>
<duration>16</duration>
</backup>
<note>
<pitch>
<step>E</step>
<octave>3</octave>
</pitch>
<duration>8</duration>
<voice>2</voice>
<type>half</type>
<stem>down</stem>
</note>
<note>
<pitch>
<step>E</step>
<octave>3</octave>
</pitch>
<duration>8</duration>
<voice>2</voice>
<type>half</type>
<stem>down</stem>
</note>
</measure>
<measure number="23">
<note>
<pitch>
<step>A</step>
<octave>3</octave>
</pitch>
<duration>8</duration>
<voice>1</voice>
<type>half</type>
<stem>up</stem>
</note>
<note>
<pitch>
<step>G</step>
<octave>3</octave>
</pitch>
<duration>4</duration>
<tie type="start"/>
<voice>1</voice>
<type>quarter</type>
<stem>up</stem>
<notations>
<tied type="start"/>
</notations>
</note>
<note>
<pitch>
<step>G</step>
<octave>3</octave>
</pitch>
<duration>4</duration>
<tie type="stop"/>
<voice>1</voice>
<type>quarter</type>
<stem>up</stem>
<notations>
<tied type="stop"/>
</notations>
</note>
<backup>
<duration>16</duration>
</backup>
<note>
<pitch>
<step>A</step>
<octave>2</octave>
</pitch>
<duration>12</duration>
<voice>2</voice>
<type>half</type>
<dot/>
<stem>down</stem>
</note>
<note>
<pitch>
<step>A</step>
<octave>2</octave>
</pitch>
<duration>4</duration>
<voice>2</voice>
<type>quarter</type>
<stem>down</stem>
</note>
</measure>
<measure number="24">
<note>
<pitch>
<step>G</step>
<octave>3</octave>
</pitch>
<duration>8</duration>
<voice>1</voice>
<type>half</type>
<stem>up</stem>
<notations>
<slur type="start" number="1"/>
</notations>
</note>
<note>
<pitch>
<step>F</step>
<alter>1</alter>
<octave>3</octave>
</pitch>
<duration>8</duration>
<voice>1</voice>
<type>half</type>
<stem>up</stem>
<notations>
<slur type="stop" number="1"/>
</notations>
</note>
<backup>
<duration>16</duration>
</backup>
<note>
<pitch>
<step>D</step>
<octave>3</octave>
</pitch>
<duration>16</duration>
<voice>2</voice>
<type>whole</type>
<stem>down</stem>
</note>
</measure>
<measure number="25">
<note>
<pitch>
<step>G</step>
<octave>3</octave>
</pitch>
<duration>12</duration>
<voice>1</voice>
<type>half</type>
<dot/>
<stem>up</stem>
</note>
<note>
<pitch>
<step>G</step>
<octave>3</octave>
</pitch>
<duration>4</duration>
<voice>1</voice>
<type>quarter</type>
<stem>up</stem>
</note>
<backup>
<duration>16</duration>
</backup>
<note>
<pitch>
<step>G</step>
<octave>2</octave>
</pitch>
<duration>12</duration>
<voice>2</voice>
<type>half</type>
<dot/>
<stem>down</stem>
</note>
<note>
<pitch>
<step>G</step>
<octave>2</octave>
</pitch>
<duration>4</duration>
<voice>2</voice>
<type>quarter</type>
<stem>down</stem>
</note>
</measure>
<measure number="26">
<note>
<pitch>
<step>A</step>
<octave>3</octave>
</pitch>
<duration>8</duration>
<voice>1</voice>
<type>half</type>
<stem>up</stem>
</note>
<note>
<pitch>
<step>G</step>
<octave>3</octave>
</pitch>
<duration>8</duration>
<voice>1</voice>
<type>half</type>
<stem>up</stem>
</note>
<backup>
<duration>16</duration>
</backup>
<note>
<pitch>
<step>G</step>
<octave>2</octave>
</pitch>
<duration>8</duration>
<voice>2</voice>
<type>half</type>
<stem>down</stem>
</note>
<note>
<pitch>
<step>G</step>
<octave>2</octave>
</pitch>
<duration>8</duration>
<voice>2</voice>
<type>half</type>
<stem>down</stem>
</note>
</measure>
<measure number="27">
<note>
<pitch>
<step>G</step>
<octave>3</octave>
</pitch>
<duration>12</duration>
<voice>1</voice>
<type>half</type>
<dot/>
<stem>up</stem>
</note>
<note>
<pitch>
<step>G</step>
<octave>3</octave>
</pitch>
<duration>4</duration>
<voice>1</voice>
<type>quarter</type>
<stem>up</stem>
</note>
<backup>
<duration>16</duration>
</backup>
<note>
<pitch>
<step>C</step>
<octave>3</octave>
</pitch>
<duration>12</duration>
<voice>2</voice>
<type>half</type>
<dot/>
<stem>down</stem>
</note>
<note>
<pitch>
<step>C</step>
<octave>3</octave>
</pitch>
<duration>4</duration>
<voice>2</voice>
<type>quarter</type>
<stem>down</stem>
</note>
</measure>
<measure number="28">
<note>
<pitch>
<step>G</step>
<octave>3</octave>
</pitch>
<duration>8</duration>
<voice>1</voice>
<type>half</type>
<stem>up</stem>
</note>
<note>
<pitch>
<step>G</step>
<octave>3</octave>
</pitch>
<duration>8</duration>
<voice>1</voice>
<type>half</type>
<stem>up</stem>
</note>
<backup>
<duration>16</duration>
</backup>
<note>
<pitch>
<step>G</step>
<octave>2</octave>
</pitch>
<duration>8</duration>
<voice>2</voice>
<type>half</type>
<stem>down</stem>
</note>
<note>
<pitch>
<step>G</step>
<octave>2</octave>
</pitch>
<duration>8</duration>
<voice>2</voice>
<type>half</type>
<stem>down</stem>
</note>
</measure>
<measure number="29">
<note>
<pitch>
<step>B</step>
<octave>3</octave>
</pitch>
<duration>12</duration>
<voice>1</voice>
<type>half</type>
<dot/>
<stem>up</stem>
</note>
<note>
<pitch>
<step>B</step>
<octave>3</octave>
</pitch>
<duration>4</duration>
<voice>1</voice>
<type>quarter</type>
<stem>up</stem>
</note>
<backup>
<duration>16</duration>
</backup>
<note>
<pitch>
<step>E</step>
<octave>3</octave>
</pitch>
<duration>12</duration>
<voice>2</voice>
<type>half</type>
<dot/>
<stem>down</stem>
</note>
<note>
<pitch>
<step>E</step>
<octave>3</octave>
</pitch>
<duration>4</duration>
<voice>2</voice>
<type>quarter</type>
<stem>down</stem>
</note>
</measure>
<measure number="30">
<note>
<pitch>
<step>A</step>
<octave>3</octave>
</pitch>
<duration>8</duration>
<voice>1</voice>
<type>half</type>
<stem>up</stem>
</note>
<note>
<pitch>
<step>G</step>
<octave>3</octave>
</pitch>
<duration>8</duration>
<voice>1</voice>
<type>half</type>
<stem>up</stem>
</note>
<backup>
<duration>16</duration>
</backup>
<note>
<pitch>
<step>C</step>
<octave>3</octave>
</pitch>
<duration>8</duration>
<voice>2</voice>
<type>half</type>
<stem>down</stem>
</note>
<note>
<pitch>
<step>A</step>
<octave>2</octave>
</pitch>
<duration>8</duration>
<voice>2</voice>
<type>half</type>
<stem>down</stem>
</note>
</measure>
<measure number="31">
<note>
<pitch>
<step>G</step>
<octave>3</octave>
</pitch>
<duration>8</duration>
<voice>1</voice>
<type>half</type>
<stem>up</stem>
</note>
<note>
<pitch>
<step>F</step>
<alter>1</alter>
<octave>3</octave>
</pitch>
<duration>8</duration>
<voice>1</voice>
<type>half</type>
<stem>up</stem>
</note>
<backup>
<duration>16</duration>
</backup>
<note>
<pitch>
<step>D</step>
<octave>3</octave>
</pitch>
<duration>8</duration>
<voice>2</voice>
<type>half</type>
<stem>down</stem>
</note>
<note>
<pitch>
<step>D</step>
<octave>3</octave>
</pitch>
<duration>8</duration>
<voice>2</voice>
<type>half</type>
<stem>down</stem>
</note>
</measure>
<measure number="32">
<note>
<pitch>
<step>G</step>
<octave>3</octave>
</pitch>
<duration>16</duration>
<voice>1</voice>
<type>whole</type>
<stem>up</stem>
</note>
<backup>
<duration>16</duration>
</backup>
<note>
<pitch>
<step>G</step>
<octave>2</octave>
</pitch>
<duration>16</duration>
<voice>2</voice>
<type>whole</type>
<stem>down</stem>
</note>
<barline location="right">
<bar-style>light-heavy</bar-style>
<repeat direction="backward" times="3"/>
</barline>
<barline location="right">
<bar-style>light-heavy</bar-style>
</barline>
</measure>
</part>
</score-partwise>
