<?xml version="1.0" encoding="UTF-8" standalone='no'?>
<!DOCTYPE score-partwise PUBLIC "-//Recordare//DTD MusicXML 1.0 Partwise//EN" "http://www.musicxml.org/dtds/partwise.dtd">
<score-partwise>
<work>
<work-title>La famille</work-title>
</work>
<identification>
<creator type="transcriber">Rolf Schneider</creator>
<rights>© 1977 Jeunesse en Mission</rights>
<encoding>
<software>Noteworthy Composer</software>
<encoding-date>2007-02-17</encoding-date>
</encoding>
</identification>
<part-list>
<score-part id="P1">
<part-name>Clarinette</part-name>
<score-instrument id="P1-I1">
<instrument-name>Clarinet</instrument-name>
</score-instrument>
<midi-instrument id="P1-I1">
<midi-channel>2</midi-channel>
<midi-program>73</midi-program>
</midi-instrument>
</score-part>
<score-part id="P2">
<part-name>Mélodie</part-name>
<score-instrument id="P2-I1">
<instrument-name>String Ensemble 1</instrument-name>
</score-instrument>
<midi-instrument id="P2-I1">
<midi-channel>1</midi-channel>
<midi-program>50</midi-program>
</midi-instrument>
</score-part>
</part-list>
<part id="P1">
<measure number="1">
<attributes>
<divisions>16</divisions>
</attributes>
<attributes>
<clef>
<sign>G</sign>
<line>2</line>
</clef>
</attributes>
<attributes>
<time>
<beats>2</beats>
<beat-type>2</beat-type>
</time>
</attributes>
<note>
<pitch>
<step>G</step>
<octave>4</octave>
</pitch>
<duration>12</duration>
<type>eighth</type>
<dot/>
<stem>up</stem>
<beam number="1">begin</beam>
</note>
<note>
<pitch>
<step>A</step>
<octave>4</octave>
</pitch>
<duration>4</duration>
<type>16th</type>
<stem>up</stem>
<beam number="1">end</beam>
</note>
<note>
<pitch>
<step>B</step>
<octave>4</octave>
</pitch>
<duration>12</duration>
<type>eighth</type>
<dot/>
<stem>up</stem>
<beam number="1">end</beam>
</note>
<note>
<pitch>
<step>C</step>
<octave>5</octave>
</pitch>
<duration>4</duration>
<type>16th</type>
<stem>up</stem>
<beam number="1">continue</beam>
</note>
<note>
<pitch>
<step>D</step>
<octave>5</octave>
</pitch>
<duration>12</duration>
<type>eighth</type>
<dot/>
</note>
<note>
<pitch>
<step>E</step>
<octave>5</octave>
</pitch>
<duration>4</duration>
<type>16th</type>
</note>
</measure>
<measure number="2">
<note>
<pitch>
<step>F</step>
<octave>5</octave>
</pitch>
<duration>48</duration>
<type>half</type>
<dot/>
</note>
<note>
<pitch>
<step>F</step>
<octave>5</octave>
</pitch>
<duration>16</duration>
<type>quarter</type>
</note>
</measure>
<measure number="3">
<note>
<pitch>
<step>D</step>
<octave>5</octave>
</pitch>
<duration>24</duration>
<type>quarter</type>
<dot/>
</note>
<note>
<pitch>
<step>D</step>
<octave>5</octave>
</pitch>
<duration>8</duration>
<type>eighth</type>
</note>
<note>
<pitch>
<step>B</step>
<octave>4</octave>
</pitch>
<duration>8</duration>
<type>eighth</type>
</note>
<note>
<pitch>
<step>D</step>
<octave>5</octave>
</pitch>
<duration>24</duration>
<type>quarter</type>
<dot/>
</note>
</measure>
<measure number="4">
<note>
<pitch>
<step>E</step>
<octave>5</octave>
</pitch>
<duration>32</duration>
<type>half</type>
</note>
<note>
<pitch>
<step>D</step>
<octave>5</octave>
</pitch>
<duration>24</duration>
<type>quarter</type>
<dot/>
</note>
<note>
<pitch>
<step>E</step>
<octave>5</octave>
</pitch>
<duration>4</duration>
<type>16th</type>
<stem>down</stem>
<beam number="1">begin</beam>
<notations>
<slur type="start" number="1"/>
</notations>
</note>
<note>
<pitch>
<step>D</step>
<octave>5</octave>
</pitch>
<duration>4</duration>
<type>16th</type>
<stem>down</stem>
<beam number="1">continue</beam>
<notations>
<slur type="continue" number="1"/>
</notations>
</note>
</measure>
<measure number="5">
<note>
<pitch>
<step>C</step>
<octave>5</octave>
</pitch>
<duration>16</duration>
<type>quarter</type>
<notations>
<slur type="stop" number="1"/>
</notations>
</note>
<note>
<pitch>
<step>C</step>
<octave>5</octave>
</pitch>
<duration>16</duration>
<type>quarter</type>
<notations>
<articulations>
<accent placement="below"/>
</articulations>
</notations>
</note>
<note>
<pitch>
<step>F</step>
<octave>5</octave>
</pitch>
<duration>16</duration>
<type>quarter</type>
</note>
<note>
<pitch>
<step>G</step>
<octave>5</octave>
</pitch>
<duration>16</duration>
<type>quarter</type>
</note>
</measure>
<measure number="6">
<note>
<pitch>
<step>A</step>
<octave>5</octave>
</pitch>
<duration>24</duration>
<type>quarter</type>
<dot/>
</note>
<note>
<pitch>
<step>G</step>
<octave>5</octave>
</pitch>
<duration>8</duration>
<type>eighth</type>
</note>
<note>
<pitch>
<step>F</step>
<octave>5</octave>
</pitch>
<duration>8</duration>
<type>eighth</type>
</note>
<note>
<pitch>
<step>E</step>
<octave>5</octave>
</pitch>
<duration>24</duration>
<type>quarter</type>
<dot/>
</note>
</measure>
<measure number="7">
<note>
<pitch>
<step>D</step>
<octave>5</octave>
</pitch>
<duration>24</duration>
<type>quarter</type>
<dot/>
</note>
<note>
<pitch>
<step>D</step>
<octave>5</octave>
</pitch>
<duration>8</duration>
<type>eighth</type>
</note>
<note>
<pitch>
<step>C</step>
<octave>5</octave>
</pitch>
<duration>8</duration>
<type>eighth</type>
</note>
<note>
<pitch>
<step>D</step>
<octave>5</octave>
</pitch>
<duration>24</duration>
<type>quarter</type>
<dot/>
</note>
</measure>
<measure number="8">
<note>
<pitch>
<step>E</step>
<octave>5</octave>
</pitch>
<duration>24</duration>
<type>quarter</type>
<dot/>
</note>
<note>
<pitch>
<step>F</step>
<octave>5</octave>
</pitch>
<duration>8</duration>
<type>eighth</type>
</note>
<note>
<pitch>
<step>E</step>
<octave>5</octave>
</pitch>
<duration>8</duration>
<type>eighth</type>
</note>
<note>
<pitch>
<step>D</step>
<octave>5</octave>
</pitch>
<duration>24</duration>
<type>quarter</type>
<dot/>
</note>
</measure>
<measure number="9">
<note>
<pitch>
<step>E</step>
<octave>5</octave>
</pitch>
<duration>16</duration>
<type>quarter</type>
</note>
<note>
<pitch>
<step>C</step>
<octave>5</octave>
</pitch>
<duration>16</duration>
<type>quarter</type>
<notations>
<articulations>
<accent placement="below"/>
</articulations>
</notations>
</note>
<note>
<pitch>
<step>F</step>
<octave>5</octave>
</pitch>
<duration>16</duration>
<type>quarter</type>
</note>
<note>
<pitch>
<step>G</step>
<octave>5</octave>
</pitch>
<duration>16</duration>
<type>quarter</type>
</note>
</measure>
<measure number="10">
<note>
<pitch>
<step>A</step>
<octave>5</octave>
</pitch>
<duration>12</duration>
<type>eighth</type>
<dot/>
<stem>down</stem>
<beam number="1">begin</beam>
</note>
<note>
<pitch>
<step>C</step>
<octave>6</octave>
</pitch>
<duration>4</duration>
<type>16th</type>
<stem>down</stem>
<beam number="1">end</beam>
</note>
<note>
<pitch>
<step>B</step>
<octave>5</octave>
</pitch>
<duration>12</duration>
<type>eighth</type>
<dot/>
<stem>down</stem>
<beam number="1">end</beam>
</note>
<note>
<pitch>
<step>A</step>
<octave>5</octave>
</pitch>
<duration>4</duration>
<type>16th</type>
<stem>down</stem>
<beam number="1">continue</beam>
</note>
<note>
<pitch>
<step>G</step>
<octave>5</octave>
</pitch>
<duration>12</duration>
<type>eighth</type>
<dot/>
<stem>down</stem>
<beam number="1">begin</beam>
</note>
<note>
<pitch>
<step>F</step>
<octave>5</octave>
</pitch>
<duration>4</duration>
<type>16th</type>
<stem>down</stem>
<beam number="1">end</beam>
</note>
<note>
<pitch>
<step>E</step>
<octave>5</octave>
</pitch>
<duration>12</duration>
<type>eighth</type>
<dot/>
<stem>down</stem>
<beam number="1">end</beam>
</note>
<note>
<pitch>
<step>D</step>
<octave>5</octave>
</pitch>
<duration>4</duration>
<type>16th</type>
<stem>down</stem>
<beam number="1">continue</beam>
</note>
</measure>
<measure number="11">
<note>
<pitch>
<step>B</step>
<octave>4</octave>
</pitch>
<duration>32</duration>
<type>half</type>
</note>
<note>
<pitch>
<step>B</step>
<octave>4</octave>
</pitch>
<duration>12</duration>
<type>eighth</type>
<dot/>
<stem>down</stem>
<beam number="1">begin</beam>
</note>
<note>
<pitch>
<step>B</step>
<octave>4</octave>
</pitch>
<duration>4</duration>
<type>16th</type>
<stem>down</stem>
<beam number="1">end</beam>
</note>
<note>
<pitch>
<step>C</step>
<octave>5</octave>
</pitch>
<duration>12</duration>
<type>eighth</type>
<dot/>
<stem>down</stem>
<beam number="1">end</beam>
</note>
<note>
<pitch>
<step>D</step>
<octave>5</octave>
</pitch>
<duration>4</duration>
<type>16th</type>
<stem>down</stem>
<beam number="1">continue</beam>
</note>
</measure>
<measure number="12">
<note>
<pitch>
<step>E</step>
<octave>5</octave>
</pitch>
<duration>24</duration>
<type>quarter</type>
<dot/>
</note>
<note>
<pitch>
<step>F</step>
<octave>5</octave>
</pitch>
<duration>8</duration>
<type>eighth</type>
</note>
<note>
<pitch>
<step>E</step>
<octave>5</octave>
</pitch>
<duration>8</duration>
<type>eighth</type>
</note>
<note>
<pitch>
<step>D</step>
<octave>5</octave>
</pitch>
<duration>24</duration>
<type>quarter</type>
<dot/>
</note>
</measure>
<measure number="13">
<note>
<pitch>
<step>A</step>
<octave>5</octave>
</pitch>
<duration>16</duration>
<type>quarter</type>
</note>
<note>
<pitch>
<step>C</step>
<octave>5</octave>
</pitch>
<duration>16</duration>
<type>quarter</type>
</note>
<note>
<pitch>
<step>D</step>
<octave>5</octave>
</pitch>
<duration>16</duration>
<type>quarter</type>
</note>
<note>
<pitch>
<step>E</step>
<octave>5</octave>
</pitch>
<duration>16</duration>
<type>quarter</type>
</note>
</measure>
<measure number="14">
<note>
<pitch>
<step>F</step>
<octave>5</octave>
</pitch>
<duration>48</duration>
<type>half</type>
<dot/>
</note>
<note>
<pitch>
<step>A</step>
<octave>5</octave>
</pitch>
<duration>16</duration>
<type>quarter</type>
</note>
</measure>
<measure number="15">
<note>
<pitch>
<step>G</step>
<octave>5</octave>
</pitch>
<duration>32</duration>
<type>half</type>
</note>
<note>
<pitch>
<step>B</step>
<octave>4</octave>
</pitch>
<duration>32</duration>
<type>half</type>
<stem>down</stem>
</note>
<note>
<chord/>
<pitch>
<step>B</step>
<octave>5</octave>
</pitch>
<duration>32</duration>
<type>half</type>
<stem>down</stem>
</note>
</measure>
<measure number="16">
<note>
<pitch>
<step>C</step>
<octave>6</octave>
</pitch>
<duration>64</duration>
<tie type="start"/>
<voice>1</voice>
<type>whole</type>
<stem>up</stem>
<notations>
<tied type="start"/>
</notations>
</note>
<backup>
<duration>64</duration>
</backup>
<note>
<pitch>
<step>C</step>
<octave>5</octave>
</pitch>
<duration>16</duration>
<voice>2</voice>
<type>quarter</type>
<stem>down</stem>
</note>
<note>
<pitch>
<step>C</step>
<octave>5</octave>
</pitch>
<duration>4</duration>
<voice>2</voice>
<type>16th</type>
<stem>down</stem>
<beam number="1">begin</beam>
</note>
<note>
<pitch>
<step>D</step>
<octave>5</octave>
</pitch>
<duration>12</duration>
<voice>2</voice>
<type>eighth</type>
<dot/>
<stem>down</stem>
<beam number="1">continue</beam>
</note>
<note>
<pitch>
<step>C</step>
<octave>5</octave>
</pitch>
<duration>8</duration>
<voice>2</voice>
<type>eighth</type>
<stem>down</stem>
</note>
<note>
<pitch>
<step>B</step>
<octave>4</octave>
</pitch>
<duration>16</duration>
<voice>2</voice>
<type>quarter</type>
<stem>down</stem>
</note>
</measure>
<measure number="17">
<note>
<pitch>
<step>C</step>
<octave>6</octave>
</pitch>
<duration>16</duration>
<tie type="stop"/>
<voice>1</voice>
<type>quarter</type>
<stem>up</stem>
<notations>
<tied type="stop"/>
</notations>
</note>
<backup>
<duration>16</duration>
</backup>
<note>
<pitch>
<step>C</step>
<octave>5</octave>
</pitch>
<duration>16</duration>
<voice>2</voice>
<type>quarter</type>
<stem>down</stem>
</note>
<barline location="right">
<bar-style>light-heavy</bar-style>
</barline>
</measure>
</part>
<part id="P2">
<measure number="1">
<attributes>
<divisions>8</divisions>
</attributes>
<attributes>
<clef>
<sign>G</sign>
<line>2</line>
</clef>
</attributes>
<attributes>
<time>
<beats>2</beats>
<beat-type>2</beat-type>
</time>
</attributes>
<direction>
<direction-type>
<metronome parentheses="no">
<beat-unit>half</beat-unit>
<per-minute>90</per-minute>
</metronome>
</direction-type>
<sound tempo="180"/>
</direction>
<note>
<pitch>
<step>E</step>
<octave>4</octave>
</pitch>
<duration>8</duration>
<type>quarter</type>
<lyric number="1">
<syllabic>single</syllabic>
<text>Oui,</text>
</lyric>
</note>
<note>
<pitch>
<step>F</step>
<octave>4</octave>
</pitch>
<duration>8</duration>
<type>quarter</type>
<lyric number="1">
<syllabic>single</syllabic>
<text>nous</text>
</lyric>
</note>
<note>
<pitch>
<step>G</step>
<octave>4</octave>
</pitch>
<duration>8</duration>
<type>quarter</type>
<lyric number="1">
<syllabic>begin</syllabic>
<text>fai</text>
</lyric>
</note>
</measure>
<measure number="2">
<note>
<pitch>
<step>A</step>
<octave>4</octave>
</pitch>
<duration>24</duration>
<type>half</type>
<dot/>
<lyric number="1">
<syllabic>end</syllabic>
<text>sons</text>
</lyric>
</note>
<note>
<pitch>
<step>C</step>
<octave>5</octave>
</pitch>
<duration>8</duration>
<type>quarter</type>
<lyric number="1">
<syllabic>begin</syllabic>
<text>par</text>
</lyric>
</note>
</measure>
<measure number="3">
<note>
<pitch>
<step>B</step>
<octave>4</octave>
</pitch>
<duration>12</duration>
<type>quarter</type>
<dot/>
<lyric number="1">
<syllabic>end</syllabic>
<text>tie</text>
</lyric>
</note>
<note>
<pitch>
<step>C</step>
<octave>5</octave>
</pitch>
<duration>4</duration>
<type>eighth</type>
<lyric number="1">
<syllabic>single</syllabic>
<text>de</text>
</lyric>
</note>
<note>
<pitch>
<step>B</step>
<octave>4</octave>
</pitch>
<duration>8</duration>
<type>quarter</type>
<lyric number="1">
<syllabic>single</syllabic>
<text>la</text>
</lyric>
</note>
<note>
<pitch>
<step>A</step>
<octave>4</octave>
</pitch>
<duration>8</duration>
<type>quarter</type>
<lyric number="1">
<syllabic>begin</syllabic>
<text>fa</text>
</lyric>
</note>
</measure>
<measure number="4">
<note>
<pitch>
<step>G</step>
<octave>4</octave>
</pitch>
<duration>16</duration>
<type>half</type>
<lyric number="1">
<syllabic>end</syllabic>
<text>mille</text>
</lyric>
</note>
<note>
<pitch>
<step>F</step>
<octave>4</octave>
</pitch>
<duration>16</duration>
<type>half</type>
<lyric number="1">
<syllabic>single</syllabic>
<text>de</text>
</lyric>
</note>
</measure>
<measure number="5">
<note>
<pitch>
<step>E</step>
<octave>4</octave>
</pitch>
<duration>8</duration>
<type>quarter</type>
<lyric number="1">
<syllabic>single</syllabic>
<text>Dieu,</text>
</lyric>
</note>
<note>
<pitch>
<step>C</step>
<octave>4</octave>
</pitch>
<duration>8</duration>
<type>quarter</type>
<lyric number="1">
<syllabic>single</syllabic>
<text>les</text>
</lyric>
</note>
<note>
<pitch>
<step>F</step>
<octave>4</octave>
</pitch>
<duration>8</duration>
<type>quarter</type>
<lyric number="1">
<syllabic>begin</syllabic>
<text>hé</text>
</lyric>
</note>
<note>
<pitch>
<step>G</step>
<octave>4</octave>
</pitch>
<duration>8</duration>
<type>quarter</type>
<lyric number="1">
<syllabic>middle</syllabic>
<text>ri</text>
</lyric>
</note>
</measure>
<measure number="6">
<note>
<pitch>
<step>A</step>
<octave>4</octave>
</pitch>
<duration>24</duration>
<type>half</type>
<dot/>
<lyric number="1">
<syllabic>end</syllabic>
<text>tiers</text>
</lyric>
</note>
<note>
<pitch>
<step>C</step>
<octave>5</octave>
</pitch>
<duration>8</duration>
<type>quarter</type>
<lyric number="1">
<syllabic>single</syllabic>
<text>du</text>
</lyric>
</note>
</measure>
<measure number="7">
<note>
<pitch>
<step>B</step>
<octave>4</octave>
</pitch>
<duration>16</duration>
<type>half</type>
<notations>
<slur type="start" number="1"/>
</notations>
<lyric number="1">
<syllabic>begin</syllabic>
<text>Pè</text>
</lyric>
</note>
<note>
<pitch>
<step>A</step>
<octave>4</octave>
</pitch>
<duration>16</duration>
<type>half</type>
<notations>
<slur type="stop" number="1"/>
</notations>
</note>
</measure>
<measure number="8">
<note>
<pitch>
<step>G</step>
<octave>4</octave>
</pitch>
<duration>32</duration>
<type>whole</type>
<lyric number="1">
<syllabic>end</syllabic>
<text>re.</text>
</lyric>
</note>
</measure>
<measure number="9">
<note>
<rest/>
<duration>8</duration>
<type>quarter</type>
</note>
<note>
<pitch>
<step>E</step>
<octave>4</octave>
</pitch>
<duration>8</duration>
<type>quarter</type>
<lyric number="1">
<syllabic>single</syllabic>
<text>Nous</text>
</lyric>
</note>
<note>
<pitch>
<step>F</step>
<octave>4</octave>
</pitch>
<duration>8</duration>
<type>quarter</type>
<lyric number="1">
<syllabic>begin</syllabic>
<text>par</text>
</lyric>
</note>
<note>
<pitch>
<step>G</step>
<octave>4</octave>
</pitch>
<duration>8</duration>
<type>quarter</type>
<lyric number="1">
<syllabic>middle</syllabic>
<text>ta</text>
</lyric>
</note>
</measure>
<measure number="10">
<note>
<pitch>
<step>A</step>
<octave>4</octave>
</pitch>
<duration>24</duration>
<type>half</type>
<dot/>
<lyric number="1">
<syllabic>end</syllabic>
<text>geons</text>
</lyric>
</note>
<note>
<pitch>
<step>C</step>
<octave>5</octave>
</pitch>
<duration>8</duration>
<type>quarter</type>
<lyric number="1">
<syllabic>single</syllabic>
<text>nos</text>
</lyric>
</note>
</measure>
<measure number="11">
<note>
<pitch>
<step>B</step>
<octave>4</octave>
</pitch>
<duration>12</duration>
<type>quarter</type>
<dot/>
<lyric number="1">
<syllabic>single</syllabic>
<text>biens,</text>
</lyric>
</note>
<note>
<pitch>
<step>C</step>
<octave>5</octave>
</pitch>
<duration>4</duration>
<type>eighth</type>
<lyric number="1">
<syllabic>single</syllabic>
<text>nos</text>
</lyric>
</note>
<note>
<pitch>
<step>B</step>
<octave>4</octave>
</pitch>
<duration>8</duration>
<type>quarter</type>
<lyric number="1">
<syllabic>single</syllabic>
<text>joies</text>
</lyric>
</note>
<note>
<pitch>
<step>A</step>
<octave>4</octave>
</pitch>
<duration>8</duration>
<type>quarter</type>
<lyric number="1">
<syllabic>single</syllabic>
<text>et</text>
</lyric>
</note>
</measure>
<measure number="12">
<note>
<pitch>
<step>G</step>
<octave>4</octave>
</pitch>
<duration>16</duration>
<type>half</type>
<lyric number="1">
<syllabic>single</syllabic>
<text>nos</text>
</lyric>
</note>
<note>
<pitch>
<step>F</step>
<octave>4</octave>
</pitch>
<duration>16</duration>
<type>half</type>
<lyric number="1">
<syllabic>begin</syllabic>
<text>far</text>
</lyric>
</note>
</measure>
<measure number="13">
<note>
<pitch>
<step>E</step>
<octave>4</octave>
</pitch>
<duration>8</duration>
<type>quarter</type>
<lyric number="1">
<syllabic>end</syllabic>
<text>deaux ;</text>
</lyric>
</note>
<note>
<pitch>
<step>C</step>
<octave>4</octave>
</pitch>
<duration>8</duration>
<type>quarter</type>
<lyric number="1">
<syllabic>single</syllabic>
<text>Nous</text>
</lyric>
</note>
<note>
<pitch>
<step>D</step>
<octave>4</octave>
</pitch>
<duration>8</duration>
<type>quarter</type>
<lyric number="1">
<syllabic>begin</syllabic>
<text>som</text>
</lyric>
</note>
<note>
<pitch>
<step>E</step>
<octave>4</octave>
</pitch>
<duration>8</duration>
<type>quarter</type>
<lyric number="1">
<syllabic>end</syllabic>
<text>mes</text>
</lyric>
</note>
</measure>
<measure number="14">
<note>
<pitch>
<step>F</step>
<octave>4</octave>
</pitch>
<duration>24</duration>
<type>half</type>
<dot/>
<lyric number="1">
<syllabic>single</syllabic>
<text>soeurs</text>
</lyric>
</note>
<note>
<pitch>
<step>A</step>
<octave>4</octave>
</pitch>
<duration>8</duration>
<type>quarter</type>
<lyric number="1">
<syllabic>single</syllabic>
<text>et</text>
</lyric>
</note>
</measure>
<measure number="15">
<note>
<pitch>
<step>G</step>
<octave>4</octave>
</pitch>
<duration>16</duration>
<type>half</type>
<notations>
<slur type="start" number="1"/>
</notations>
<lyric number="1">
<syllabic>begin</syllabic>
<text>frè</text>
</lyric>
</note>
<note>
<pitch>
<step>B</step>
<octave>3</octave>
</pitch>
<duration>16</duration>
<type>half</type>
<notations>
<slur type="stop" number="1"/>
</notations>
</note>
</measure>
<measure number="16">
<note>
<pitch>
<step>C</step>
<octave>4</octave>
</pitch>
<duration>32</duration>
<tie type="start"/>
<type>whole</type>
<notations>
<tied type="start"/>
</notations>
<lyric number="1">
<syllabic>end</syllabic>
<text>res !</text>
</lyric>
</note>
</measure>
<measure number="17">
<note>
<pitch>
<step>C</step>
<octave>4</octave>
</pitch>
<duration>8</duration>
<tie type="stop"/>
<type>quarter</type>
<notations>
<tied type="stop"/>
</notations>
</note>
<barline location="right">
<bar-style>light-heavy</bar-style>
</barline>
</measure>
</part>
</score-partwise>
