<?xml version="1.0" encoding="UTF-8" standalone='no'?>
<!DOCTYPE score-partwise PUBLIC "-//Recordare//DTD MusicXML 1.0 Partwise//EN" "http://www.musicxml.org/dtds/partwise.dtd">
<score-partwise>
<work>
<work-title>Viens, Esprit de sainteté</work-title>
</work>
<identification>
<creator type="transcriber">Gocam</creator>
<rights>Editions du Cahier du Renouveau</rights>
<encoding>
<software>Noteworthy Composer</software>
<encoding-date>2007-02-17</encoding-date>
</encoding>
</identification>
<part-list>
<score-part id="P1">
<part-name>Voix des femmes</part-name>
<score-instrument id="P1-I1">
<instrument-name>String Ensemble 1</instrument-name>
</score-instrument>
<midi-instrument id="P1-I1">
<midi-channel>1</midi-channel>
<midi-program>50</midi-program>
</midi-instrument>
</score-part>
<score-part id="P2">
<part-name>Voix des hommes</part-name>
<score-instrument id="P2-I1">
<instrument-name>String Ensemble 1</instrument-name>
</score-instrument>
<midi-instrument id="P2-I1">
<midi-channel>2</midi-channel>
<midi-program>50</midi-program>
</midi-instrument>
</score-part>
</part-list>
<part id="P1">
<measure number="1">
<attributes>
<divisions>8</divisions>
</attributes>
<attributes>
<clef>
<sign>G</sign>
<line>2</line>
</clef>
</attributes>
<attributes>
<key>
<fifths>-2</fifths>
</key>
</attributes>
<attributes>
<time>
<beats>6</beats>
<beat-type>8</beat-type>
</time>
</attributes>
<direction>
<direction-type>
<metronome parentheses="no">
<beat-unit>eighth</beat-unit>
<per-minute>200</per-minute>
</metronome>
</direction-type>
<sound tempo="100"/>
</direction>
<note>
<pitch>
<step>D</step>
<octave>4</octave>
</pitch>
<duration>8</duration>
<voice>1</voice>
<type>quarter</type>
<stem>up</stem>
<lyric number="1">
<syllabic>single</syllabic>
<text>Viens</text>
</lyric>
<lyric number="2">
<syllabic>single</syllabic>
<text></text>
</lyric>
<lyric number="3">
<syllabic>single</syllabic>
<text></text>
</lyric>
<lyric number="4">
<syllabic>single</syllabic>
<text></text>
</lyric>
<lyric number="5">
<syllabic>single</syllabic>
<text></text>
</lyric>
<lyric number="6">
<syllabic>single</syllabic>
<text></text>
</lyric>
</note>
<note>
<chord/>
<pitch>
<step>G</step>
<octave>4</octave>
</pitch>
<duration>8</duration>
<voice>1</voice>
<type>quarter</type>
<stem>up</stem>
</note>
<note>
<pitch>
<step>D</step>
<octave>4</octave>
</pitch>
<duration>4</duration>
<voice>1</voice>
<type>eighth</type>
<stem>up</stem>
<lyric number="1">
<syllabic>begin</syllabic>
<text>Es</text>
</lyric>
<lyric number="2">
<syllabic>single</syllabic>
<text></text>
</lyric>
<lyric number="3">
<syllabic>single</syllabic>
<text></text>
</lyric>
<lyric number="4">
<syllabic>single</syllabic>
<text></text>
</lyric>
<lyric number="5">
<syllabic>single</syllabic>
<text></text>
</lyric>
<lyric number="6">
<syllabic>single</syllabic>
<text></text>
</lyric>
</note>
<note>
<chord/>
<pitch>
<step>G</step>
<octave>4</octave>
</pitch>
<duration>4</duration>
<voice>1</voice>
<type>eighth</type>
<stem>up</stem>
</note>
<note>
<pitch>
<step>D</step>
<octave>4</octave>
</pitch>
<duration>8</duration>
<voice>1</voice>
<type>quarter</type>
<stem>up</stem>
<lyric number="1">
<syllabic>end</syllabic>
<text>prit</text>
</lyric>
<lyric number="2">
<syllabic>single</syllabic>
<text></text>
</lyric>
<lyric number="3">
<syllabic>single</syllabic>
<text></text>
</lyric>
<lyric number="4">
<syllabic>single</syllabic>
<text></text>
</lyric>
<lyric number="5">
<syllabic>single</syllabic>
<text></text>
</lyric>
<lyric number="6">
<syllabic>single</syllabic>
<text></text>
</lyric>
</note>
<note>
<chord/>
<pitch>
<step>G</step>
<octave>4</octave>
</pitch>
<duration>8</duration>
<voice>1</voice>
<type>quarter</type>
<stem>up</stem>
</note>
<note>
<pitch>
<step>D</step>
<octave>4</octave>
</pitch>
<duration>4</duration>
<voice>1</voice>
<type>eighth</type>
<stem>up</stem>
<lyric number="1">
<syllabic>single</syllabic>
<text>de</text>
</lyric>
<lyric number="2">
<syllabic>single</syllabic>
<text></text>
</lyric>
<lyric number="3">
<syllabic>single</syllabic>
<text></text>
</lyric>
<lyric number="4">
<syllabic>single</syllabic>
<text></text>
</lyric>
<lyric number="5">
<syllabic>single</syllabic>
<text></text>
</lyric>
<lyric number="6">
<syllabic>single</syllabic>
<text></text>
</lyric>
</note>
<backup>
<duration>24</duration>
</backup>
<forward>
<duration>20</duration>
<voice>2</voice>
</forward>
<note>
<pitch>
<step>D</step>
<octave>4</octave>
</pitch>
<duration>4</duration>
<voice>2</voice>
<type>eighth</type>
<stem>down</stem>
</note>
</measure>
<measure number="2">
<note>
<pitch>
<step>D</step>
<octave>4</octave>
</pitch>
<duration>8</duration>
<voice>1</voice>
<type>quarter</type>
<stem>up</stem>
<lyric number="1">
<syllabic>begin</syllabic>
<text>sain</text>
</lyric>
<lyric number="2">
<syllabic>single</syllabic>
<text></text>
</lyric>
<lyric number="3">
<syllabic>single</syllabic>
<text></text>
</lyric>
<lyric number="4">
<syllabic>single</syllabic>
<text></text>
</lyric>
<lyric number="5">
<syllabic>single</syllabic>
<text></text>
</lyric>
<lyric number="6">
<syllabic>single</syllabic>
<text></text>
</lyric>
</note>
<note>
<chord/>
<pitch>
<step>G</step>
<octave>4</octave>
</pitch>
<duration>8</duration>
<voice>1</voice>
<type>quarter</type>
<stem>up</stem>
</note>
<note>
<pitch>
<step>D</step>
<octave>4</octave>
</pitch>
<duration>4</duration>
<voice>1</voice>
<type>eighth</type>
<stem>up</stem>
<lyric number="1">
<syllabic>middle</syllabic>
<text>te</text>
</lyric>
<lyric number="2">
<syllabic>single</syllabic>
<text></text>
</lyric>
<lyric number="3">
<syllabic>single</syllabic>
<text></text>
</lyric>
<lyric number="4">
<syllabic>single</syllabic>
<text></text>
</lyric>
<lyric number="5">
<syllabic>single</syllabic>
<text></text>
</lyric>
<lyric number="6">
<syllabic>single</syllabic>
<text></text>
</lyric>
</note>
<note>
<chord/>
<pitch>
<step>F</step>
<octave>4</octave>
</pitch>
<duration>4</duration>
<voice>1</voice>
<type>eighth</type>
<stem>up</stem>
</note>
<note>
<pitch>
<step>D</step>
<octave>4</octave>
</pitch>
<duration>12</duration>
<voice>1</voice>
<type>quarter</type>
<dot/>
<stem>up</stem>
<lyric number="1">
<syllabic>end</syllabic>
<text>té,</text>
</lyric>
<lyric number="2">
<syllabic>single</syllabic>
<text></text>
</lyric>
<lyric number="3">
<syllabic>single</syllabic>
<text></text>
</lyric>
<lyric number="4">
<syllabic>single</syllabic>
<text></text>
</lyric>
<lyric number="5">
<syllabic>single</syllabic>
<text></text>
</lyric>
<lyric number="6">
<syllabic>single</syllabic>
<text></text>
</lyric>
</note>
<backup>
<duration>24</duration>
</backup>
<forward>
<duration>12</duration>
<voice>2</voice>
</forward>
<note>
<pitch>
<step>D</step>
<octave>4</octave>
</pitch>
<duration>12</duration>
<voice>2</voice>
<type>quarter</type>
<dot/>
<stem>down</stem>
</note>
</measure>
<measure number="3">
<note>
<pitch>
<step>D</step>
<octave>4</octave>
</pitch>
<duration>8</duration>
<voice>1</voice>
<type>quarter</type>
<stem>up</stem>
<lyric number="1">
<syllabic>single</syllabic>
<text>viens</text>
</lyric>
<lyric number="2">
<syllabic>single</syllabic>
<text></text>
</lyric>
<lyric number="3">
<syllabic>single</syllabic>
<text></text>
</lyric>
<lyric number="4">
<syllabic>single</syllabic>
<text></text>
</lyric>
<lyric number="5">
<syllabic>single</syllabic>
<text></text>
</lyric>
<lyric number="6">
<syllabic>single</syllabic>
<text></text>
</lyric>
</note>
<note>
<chord/>
<pitch>
<step>G</step>
<octave>4</octave>
</pitch>
<duration>8</duration>
<voice>1</voice>
<type>quarter</type>
<stem>up</stem>
</note>
<note>
<pitch>
<step>D</step>
<octave>4</octave>
</pitch>
<duration>4</duration>
<voice>1</voice>
<type>eighth</type>
<stem>up</stem>
<lyric number="1">
<syllabic>begin</syllabic>
<text>Es</text>
</lyric>
<lyric number="2">
<syllabic>single</syllabic>
<text></text>
</lyric>
<lyric number="3">
<syllabic>single</syllabic>
<text></text>
</lyric>
<lyric number="4">
<syllabic>single</syllabic>
<text></text>
</lyric>
<lyric number="5">
<syllabic>single</syllabic>
<text></text>
</lyric>
<lyric number="6">
<syllabic>single</syllabic>
<text></text>
</lyric>
</note>
<note>
<chord/>
<pitch>
<step>G</step>
<octave>4</octave>
</pitch>
<duration>4</duration>
<voice>1</voice>
<type>eighth</type>
<stem>up</stem>
</note>
<note>
<pitch>
<step>D</step>
<octave>4</octave>
</pitch>
<duration>4</duration>
<voice>1</voice>
<type>eighth</type>
<stem>down</stem>
<beam number="1">begin</beam>
<lyric number="1">
<syllabic>end</syllabic>
<text>prit</text>
</lyric>
<lyric number="2">
<syllabic>single</syllabic>
<text></text>
</lyric>
<lyric number="3">
<syllabic>single</syllabic>
<text></text>
</lyric>
<lyric number="4">
<syllabic>single</syllabic>
<text></text>
</lyric>
<lyric number="5">
<syllabic>single</syllabic>
<text></text>
</lyric>
<lyric number="6">
<syllabic>single</syllabic>
<text></text>
</lyric>
</note>
<note>
<chord/>
<pitch>
<step>G</step>
<octave>4</octave>
</pitch>
<duration>4</duration>
<voice>1</voice>
<type>eighth</type>
<stem>down</stem>
<beam number="1">begin</beam>
</note>
<note>
<pitch>
<step>D</step>
<octave>4</octave>
</pitch>
<duration>4</duration>
<voice>1</voice>
<type>eighth</type>
<stem>up</stem>
<lyric number="1">
<syllabic>single</syllabic>
<text>de</text>
</lyric>
<lyric number="2">
<syllabic>single</syllabic>
<text></text>
</lyric>
<lyric number="3">
<syllabic>single</syllabic>
<text></text>
</lyric>
<lyric number="4">
<syllabic>single</syllabic>
<text></text>
</lyric>
<lyric number="5">
<syllabic>single</syllabic>
<text></text>
</lyric>
<lyric number="6">
<syllabic>single</syllabic>
<text></text>
</lyric>
</note>
<note>
<pitch>
<step>D</step>
<octave>4</octave>
</pitch>
<duration>4</duration>
<voice>1</voice>
<type>eighth</type>
<stem>down</stem>
<beam number="1">continue</beam>
<lyric number="1">
<syllabic>begin</syllabic>
<text>lu</text>
</lyric>
<lyric number="2">
<syllabic>single</syllabic>
<text></text>
</lyric>
<lyric number="3">
<syllabic>single</syllabic>
<text></text>
</lyric>
<lyric number="4">
<syllabic>single</syllabic>
<text></text>
</lyric>
<lyric number="5">
<syllabic>single</syllabic>
<text></text>
</lyric>
<lyric number="6">
<syllabic>single</syllabic>
<text></text>
</lyric>
</note>
<note>
<chord/>
<pitch>
<step>G</step>
<octave>4</octave>
</pitch>
<duration>4</duration>
<voice>1</voice>
<type>eighth</type>
<stem>down</stem>
<beam number="1">continue</beam>
</note>
<backup>
<duration>24</duration>
</backup>
<forward>
<duration>16</duration>
<voice>2</voice>
</forward>
<note>
<pitch>
<step>D</step>
<octave>4</octave>
</pitch>
<duration>4</duration>
<voice>2</voice>
<type>eighth</type>
<stem>down</stem>
<beam number="1">end</beam>
</note>
<forward>
<duration>4</duration>
<voice>2</voice>
</forward>
</measure>
<measure number="4">
<note>
<pitch>
<step>F</step>
<octave>4</octave>
</pitch>
<duration>12</duration>
<type>quarter</type>
<dot/>
<stem>up</stem>
<lyric number="1">
<syllabic>middle</syllabic>
<text>miè</text>
</lyric>
<lyric number="2">
<syllabic>single</syllabic>
<text></text>
</lyric>
<lyric number="3">
<syllabic>single</syllabic>
<text></text>
</lyric>
<lyric number="4">
<syllabic>single</syllabic>
<text></text>
</lyric>
<lyric number="5">
<syllabic>single</syllabic>
<text></text>
</lyric>
<lyric number="6">
<syllabic>single</syllabic>
<text></text>
</lyric>
</note>
<note>
<chord/>
<pitch>
<step>A</step>
<octave>4</octave>
</pitch>
<duration>12</duration>
<type>quarter</type>
<dot/>
<stem>up</stem>
</note>
<note>
<pitch>
<step>F</step>
<octave>4</octave>
</pitch>
<duration>12</duration>
<type>quarter</type>
<dot/>
<stem>up</stem>
<lyric number="1">
<syllabic>end</syllabic>
<text>re,</text>
</lyric>
<lyric number="2">
<syllabic>single</syllabic>
<text></text>
</lyric>
<lyric number="3">
<syllabic>single</syllabic>
<text></text>
</lyric>
<lyric number="4">
<syllabic>single</syllabic>
<text></text>
</lyric>
<lyric number="5">
<syllabic>single</syllabic>
<text></text>
</lyric>
<lyric number="6">
<syllabic>single</syllabic>
<text></text>
</lyric>
</note>
<note>
<chord/>
<pitch>
<step>A</step>
<octave>4</octave>
</pitch>
<duration>12</duration>
<type>quarter</type>
<dot/>
<stem>up</stem>
</note>
</measure>
<measure number="5">
<note>
<pitch>
<step>F</step>
<octave>4</octave>
</pitch>
<duration>8</duration>
<type>quarter</type>
<stem>up</stem>
<lyric number="1">
<syllabic>single</syllabic>
<text>viens</text>
</lyric>
<lyric number="2">
<syllabic>single</syllabic>
<text></text>
</lyric>
<lyric number="3">
<syllabic>single</syllabic>
<text></text>
</lyric>
<lyric number="4">
<syllabic>single</syllabic>
<text></text>
</lyric>
<lyric number="5">
<syllabic>single</syllabic>
<text></text>
</lyric>
<lyric number="6">
<syllabic>single</syllabic>
<text></text>
</lyric>
</note>
<note>
<chord/>
<pitch>
<step>B</step>
<alter>-1</alter>
<octave>4</octave>
</pitch>
<duration>8</duration>
<type>quarter</type>
<stem>up</stem>
</note>
<note>
<pitch>
<step>F</step>
<octave>4</octave>
</pitch>
<duration>4</duration>
<type>eighth</type>
<stem>up</stem>
<lyric number="1">
<syllabic>begin</syllabic>
<text>Es</text>
</lyric>
<lyric number="2">
<syllabic>single</syllabic>
<text></text>
</lyric>
<lyric number="3">
<syllabic>single</syllabic>
<text></text>
</lyric>
<lyric number="4">
<syllabic>single</syllabic>
<text></text>
</lyric>
<lyric number="5">
<syllabic>single</syllabic>
<text></text>
</lyric>
<lyric number="6">
<syllabic>single</syllabic>
<text></text>
</lyric>
</note>
<note>
<chord/>
<pitch>
<step>B</step>
<alter>-1</alter>
<octave>4</octave>
</pitch>
<duration>4</duration>
<type>eighth</type>
<stem>up</stem>
</note>
<note>
<pitch>
<step>F</step>
<octave>4</octave>
</pitch>
<duration>8</duration>
<type>quarter</type>
<stem>up</stem>
<lyric number="1">
<syllabic>end</syllabic>
<text>prit</text>
</lyric>
<lyric number="2">
<syllabic>single</syllabic>
<text></text>
</lyric>
<lyric number="3">
<syllabic>single</syllabic>
<text></text>
</lyric>
<lyric number="4">
<syllabic>single</syllabic>
<text></text>
</lyric>
<lyric number="5">
<syllabic>single</syllabic>
<text></text>
</lyric>
<lyric number="6">
<syllabic>single</syllabic>
<text></text>
</lyric>
</note>
<note>
<chord/>
<pitch>
<step>C</step>
<octave>5</octave>
</pitch>
<duration>8</duration>
<type>quarter</type>
<stem>up</stem>
</note>
<note>
<pitch>
<step>F</step>
<octave>4</octave>
</pitch>
<duration>4</duration>
<type>eighth</type>
<stem>up</stem>
<lyric number="1">
<syllabic>single</syllabic>
<text>de</text>
</lyric>
<lyric number="2">
<syllabic>single</syllabic>
<text></text>
</lyric>
<lyric number="3">
<syllabic>single</syllabic>
<text></text>
</lyric>
<lyric number="4">
<syllabic>single</syllabic>
<text></text>
</lyric>
<lyric number="5">
<syllabic>single</syllabic>
<text></text>
</lyric>
<lyric number="6">
<syllabic>single</syllabic>
<text></text>
</lyric>
</note>
<note>
<chord/>
<pitch>
<step>B</step>
<alter>-1</alter>
<octave>4</octave>
</pitch>
<duration>4</duration>
<type>eighth</type>
<stem>up</stem>
</note>
</measure>
<measure number="6">
<note>
<pitch>
<step>F</step>
<octave>4</octave>
</pitch>
<duration>24</duration>
<type>half</type>
<dot/>
<stem>up</stem>
<lyric number="1">
<syllabic>single</syllabic>
<text>feu,</text>
</lyric>
<lyric number="2">
<syllabic>single</syllabic>
<text></text>
</lyric>
<lyric number="3">
<syllabic>single</syllabic>
<text></text>
</lyric>
<lyric number="4">
<syllabic>single</syllabic>
<text></text>
</lyric>
<lyric number="5">
<syllabic>single</syllabic>
<text></text>
</lyric>
<lyric number="6">
<syllabic>single</syllabic>
<text></text>
</lyric>
</note>
<note>
<chord/>
<pitch>
<step>A</step>
<octave>4</octave>
</pitch>
<duration>24</duration>
<type>half</type>
<dot/>
<stem>up</stem>
</note>
</measure>
<measure number="7">
<note>
<pitch>
<step>D</step>
<octave>4</octave>
</pitch>
<duration>12</duration>
<voice>1</voice>
<type>quarter</type>
<dot/>
<stem>up</stem>
<lyric number="1">
<syllabic>single</syllabic>
<text>viens</text>
</lyric>
<lyric number="2">
<syllabic>single</syllabic>
<text></text>
</lyric>
<lyric number="3">
<syllabic>single</syllabic>
<text></text>
</lyric>
<lyric number="4">
<syllabic>single</syllabic>
<text></text>
</lyric>
<lyric number="5">
<syllabic>single</syllabic>
<text></text>
</lyric>
<lyric number="6">
<syllabic>single</syllabic>
<text></text>
</lyric>
</note>
<note>
<chord/>
<pitch>
<step>F</step>
<octave>4</octave>
</pitch>
<duration>12</duration>
<voice>1</voice>
<type>quarter</type>
<dot/>
<stem>up</stem>
</note>
<note>
<pitch>
<step>D</step>
<octave>4</octave>
</pitch>
<duration>4</duration>
<voice>1</voice>
<type>eighth</type>
<stem>down</stem>
<beam number="1">begin</beam>
<lyric number="1">
<syllabic>single</syllabic>
<text>nous</text>
</lyric>
<lyric number="2">
<syllabic>single</syllabic>
<text></text>
</lyric>
<lyric number="3">
<syllabic>single</syllabic>
<text></text>
</lyric>
<lyric number="4">
<syllabic>single</syllabic>
<text></text>
</lyric>
<lyric number="5">
<syllabic>single</syllabic>
<text></text>
</lyric>
<lyric number="6">
<syllabic>single</syllabic>
<text></text>
</lyric>
</note>
<note>
<chord/>
<pitch>
<step>F</step>
<octave>4</octave>
</pitch>
<duration>4</duration>
<voice>1</voice>
<type>eighth</type>
<stem>down</stem>
<beam number="1">begin</beam>
</note>
<note>
<pitch>
<step>D</step>
<octave>4</octave>
</pitch>
<duration>4</duration>
<voice>1</voice>
<type>eighth</type>
<stem>up</stem>
<lyric number="1">
<syllabic>begin</syllabic>
<text>em</text>
</lyric>
<lyric number="2">
<syllabic>single</syllabic>
<text></text>
</lyric>
<lyric number="3">
<syllabic>single</syllabic>
<text></text>
</lyric>
<lyric number="4">
<syllabic>single</syllabic>
<text></text>
</lyric>
<lyric number="5">
<syllabic>single</syllabic>
<text></text>
</lyric>
<lyric number="6">
<syllabic>single</syllabic>
<text></text>
</lyric>
</note>
<note>
<pitch>
<step>D</step>
<octave>4</octave>
</pitch>
<duration>4</duration>
<voice>1</voice>
<type>eighth</type>
<stem>down</stem>
<beam number="1">continue</beam>
<lyric number="1">
<syllabic>middle</syllabic>
<text>bra</text>
</lyric>
<lyric number="2">
<syllabic>single</syllabic>
<text></text>
</lyric>
<lyric number="3">
<syllabic>single</syllabic>
<text></text>
</lyric>
<lyric number="4">
<syllabic>single</syllabic>
<text></text>
</lyric>
<lyric number="5">
<syllabic>single</syllabic>
<text></text>
</lyric>
<lyric number="6">
<syllabic>single</syllabic>
<text></text>
</lyric>
</note>
<note>
<chord/>
<pitch>
<step>F</step>
<octave>4</octave>
</pitch>
<duration>4</duration>
<voice>1</voice>
<type>eighth</type>
<stem>down</stem>
<beam number="1">continue</beam>
</note>
<backup>
<duration>24</duration>
</backup>
<forward>
<duration>16</duration>
<voice>2</voice>
</forward>
<note>
<pitch>
<step>D</step>
<octave>4</octave>
</pitch>
<duration>4</duration>
<voice>2</voice>
<type>eighth</type>
<stem>down</stem>
<beam number="1">end</beam>
</note>
<forward>
<duration>4</duration>
<voice>2</voice>
</forward>
</measure>
<measure number="8">
<note>
<pitch>
<step>D</step>
<octave>4</octave>
</pitch>
<duration>24</duration>
<type>half</type>
<dot/>
<stem>up</stem>
<lyric number="1">
<syllabic>end</syllabic>
<text>ser!</text>
</lyric>
<lyric number="2">
<syllabic>single</syllabic>
<text></text>
</lyric>
<lyric number="3">
<syllabic>single</syllabic>
<text></text>
</lyric>
<lyric number="4">
<syllabic>single</syllabic>
<text></text>
</lyric>
<lyric number="5">
<syllabic>single</syllabic>
<text></text>
</lyric>
<lyric number="6">
<syllabic>single</syllabic>
<text></text>
</lyric>
</note>
<note>
<chord/>
<pitch>
<step>G</step>
<octave>4</octave>
</pitch>
<duration>24</duration>
<type>half</type>
<dot/>
<stem>up</stem>
</note>
<direction placement="above">
<direction-type>
<words relative-y="60">Fine</words>
</direction-type>
<sound fine=""/>
</direction>
<barline location="right">
<bar-style>light-heavy</bar-style>
</barline>
</measure>
<measure number="9">
<note>
<pitch>
<step>D</step>
<octave>4</octave>
</pitch>
<duration>12</duration>
<voice>1</voice>
<type>quarter</type>
<dot/>
<stem>up</stem>
<lyric number="1">
<syllabic>single</syllabic>
<text>1. Viens</text>
</lyric>
<lyric number="2">
<syllabic>begin</syllabic>
<text>2. Té</text>
</lyric>
<lyric number="3">
<syllabic>single</syllabic>
<text>3. Viens,</text>
</lyric>
<lyric number="4">
<syllabic>begin</syllabic>
<text>4. Es</text>
</lyric>
<lyric number="5">
<syllabic>begin</syllabic>
<text>5. Fais</text>
</lyric>
<lyric number="6">
<syllabic>single</syllabic>
<text>6. Feu</text>
</lyric>
</note>
<note>
<pitch>
<step>D</step>
<octave>4</octave>
</pitch>
<duration>4</duration>
<voice>1</voice>
<type>eighth</type>
<stem>up</stem>
<beam number="1">begin</beam>
<lyric number="1">
<syllabic>begin</syllabic>
<text>Es</text>
</lyric>
<lyric number="2">
<syllabic>end</syllabic>
<text>moin</text>
</lyric>
<lyric number="3">
<syllabic>begin</syllabic>
<text>onc</text>
</lyric>
<lyric number="4">
<syllabic>end</syllabic>
<text>prit</text>
</lyric>
<lyric number="5">
<syllabic>middle</syllabic>
<text>nous</text>
</lyric>
<lyric number="6">
<syllabic>single</syllabic>
<text>qui</text>
</lyric>
</note>
<note>
<chord/>
<pitch>
<step>F</step>
<octave>4</octave>
</pitch>
<duration>4</duration>
<voice>1</voice>
<type>eighth</type>
<stem>up</stem>
<beam number="1">begin</beam>
</note>
<note>
<pitch>
<step>D</step>
<octave>4</octave>
</pitch>
<duration>4</duration>
<voice>1</voice>
<type>eighth</type>
<stem>up</stem>
<beam number="1">end</beam>
<lyric number="1">
<syllabic>end</syllabic>
<text>prit</text>
</lyric>
<lyric number="2">
<syllabic>begin</syllabic>
<text>vé</text>
</lyric>
<lyric number="3">
<syllabic>end</syllabic>
<text>tion</text>
</lyric>
<lyric number="4">
<syllabic>begin</syllabic>
<text>d'al</text>
</lyric>
<lyric number="5">
<syllabic>end</syllabic>
<text></text>
</lyric>
<lyric number="6">
<syllabic>begin</syllabic>
<text>il</text>
</lyric>
</note>
<note>
<chord/>
<pitch>
<step>F</step>
<octave>4</octave>
</pitch>
<duration>4</duration>
<voice>1</voice>
<type>eighth</type>
<stem>up</stem>
<beam number="1">end</beam>
</note>
<note>
<pitch>
<step>D</step>
<octave>4</octave>
</pitch>
<duration>4</duration>
<voice>1</voice>
<type>eighth</type>
<stem>up</stem>
<beam number="1">continue</beam>
<lyric number="1">
<syllabic>single</syllabic>
<text>du</text>
</lyric>
<lyric number="2">
<syllabic>middle</syllabic>
<text>ri</text>
</lyric>
<lyric number="3">
<syllabic>begin</syllabic>
<text>cé</text>
</lyric>
<lyric number="4">
<syllabic>middle</syllabic>
<text>lé</text>
</lyric>
<lyric number="5">
<syllabic>begin</syllabic>
<text>con</text>
</lyric>
<lyric number="6">
<syllabic>middle</syllabic>
<text>lu</text>
</lyric>
</note>
<note>
<chord/>
<pitch>
<step>F</step>
<octave>4</octave>
</pitch>
<duration>4</duration>
<voice>1</voice>
<type>eighth</type>
<stem>up</stem>
<beam number="1">continue</beam>
</note>
<backup>
<duration>24</duration>
</backup>
<note>
<pitch>
<step>D</step>
<octave>4</octave>
</pitch>
<duration>12</duration>
<voice>2</voice>
<type>quarter</type>
<dot/>
<stem>down</stem>
</note>
<forward>
<duration>12</duration>
<voice>2</voice>
</forward>
</measure>
<measure number="10">
<note>
<pitch>
<step>D</step>
<octave>4</octave>
</pitch>
<duration>12</duration>
<voice>1</voice>
<type>quarter</type>
<dot/>
<stem>up</stem>
<lyric number="1">
<syllabic>begin</syllabic>
<text>Pè</text>
</lyric>
<lyric number="2">
<syllabic>middle</syllabic>
<text>di</text>
</lyric>
<lyric number="3">
<syllabic>middle</syllabic>
<text>les</text>
</lyric>
<lyric number="4">
<syllabic>middle</syllabic>
<text>gres</text>
</lyric>
<lyric number="5">
<syllabic>middle</syllabic>
<text>naî</text>
</lyric>
<lyric number="6">
<syllabic>middle</syllabic>
<text>mi</text>
</lyric>
</note>
<note>
<pitch>
<step>D</step>
<octave>4</octave>
</pitch>
<duration>12</duration>
<voice>1</voice>
<type>quarter</type>
<dot/>
<stem>up</stem>
<lyric number="1">
<syllabic>end</syllabic>
<text>re,</text>
</lyric>
<lyric number="2">
<syllabic>end</syllabic>
<text>que,</text>
</lyric>
<lyric number="3">
<syllabic>end</syllabic>
<text>te,</text>
</lyric>
<lyric number="4">
<syllabic>end</syllabic>
<text>se,</text>
</lyric>
<lyric number="5">
<syllabic>end</syllabic>
<text>tre</text>
</lyric>
<lyric number="6">
<syllabic>end</syllabic>
<text>ne,</text>
</lyric>
</note>
<backup>
<duration>24</duration>
</backup>
<note>
<pitch>
<step>D</step>
<octave>4</octave>
</pitch>
<duration>12</duration>
<voice>2</voice>
<type>quarter</type>
<dot/>
<stem>down</stem>
</note>
<note>
<pitch>
<step>D</step>
<octave>4</octave>
</pitch>
<duration>12</duration>
<voice>2</voice>
<type>quarter</type>
<dot/>
<stem>down</stem>
</note>
</measure>
<measure number="11">
<note>
<pitch>
<step>D</step>
<octave>4</octave>
</pitch>
<duration>12</duration>
<voice>1</voice>
<type>quarter</type>
<dot/>
<stem>up</stem>
<lyric number="1">
<syllabic>single</syllabic>
<text>sois</text>
</lyric>
<lyric number="2">
<syllabic>single</syllabic>
<text>tu</text>
</lyric>
<lyric number="3">
<syllabic>begin</syllabic>
<text>sour</text>
</lyric>
<lyric number="4">
<syllabic>single</syllabic>
<text>joie</text>
</lyric>
<lyric number="5">
<syllabic>begin</syllabic>
<text>l'a</text>
</lyric>
<lyric number="6">
<syllabic>begin</syllabic>
<text>souf</text>
</lyric>
</note>
<note>
<chord/>
<pitch>
<step>F</step>
<octave>4</octave>
</pitch>
<duration>12</duration>
<voice>1</voice>
<type>quarter</type>
<dot/>
<stem>up</stem>
</note>
<note>
<pitch>
<step>D</step>
<octave>4</octave>
</pitch>
<duration>8</duration>
<voice>1</voice>
<type>quarter</type>
<stem>up</stem>
<lyric number="1">
<syllabic>single</syllabic>
<text>la</text>
</lyric>
<lyric number="2">
<syllabic>single</syllabic>
<text>nous</text>
</lyric>
<lyric number="3">
<syllabic>end</syllabic>
<text>ce</text>
</lyric>
<lyric number="4">
<syllabic>single</syllabic>
<text>de</text>
</lyric>
<lyric number="5">
<syllabic>end</syllabic>
<text>mour</text>
</lyric>
<lyric number="6">
<syllabic>end</syllabic>
<text>fle</text>
</lyric>
</note>
<note>
<pitch>
<step>D</step>
<octave>4</octave>
</pitch>
<duration>4</duration>
<voice>1</voice>
<type>eighth</type>
<stem>up</stem>
<lyric number="1">
<syllabic>begin</syllabic>
<text>lu</text>
</lyric>
<lyric number="2">
<syllabic>begin</syllabic>
<text>en</text>
</lyric>
<lyric number="3">
<syllabic>single</syllabic>
<text>d'eau</text>
</lyric>
<lyric number="4">
<syllabic>begin</syllabic>
<text>l'é</text>
</lyric>
<lyric number="5">
<syllabic>single</syllabic>
<text>du</text>
</lyric>
<lyric number="6">
<syllabic>single</syllabic>
<text>de</text>
</lyric>
</note>
<note>
<chord/>
<pitch>
<step>F</step>
<octave>4</octave>
</pitch>
<duration>4</duration>
<voice>1</voice>
<type>eighth</type>
<stem>up</stem>
</note>
<backup>
<duration>24</duration>
</backup>
<forward>
<duration>12</duration>
<voice>2</voice>
</forward>
<note>
<pitch>
<step>D</step>
<octave>4</octave>
</pitch>
<duration>8</duration>
<voice>2</voice>
<type>quarter</type>
<stem>down</stem>
</note>
<forward>
<duration>4</duration>
<voice>2</voice>
</forward>
</measure>
<measure number="12">
<note>
<pitch>
<step>D</step>
<octave>4</octave>
</pitch>
<duration>12</duration>
<type>quarter</type>
<dot/>
<stem>up</stem>
<lyric number="1">
<syllabic>middle</syllabic>
<text>miè</text>
</lyric>
<lyric number="2">
<syllabic>middle</syllabic>
<text>traî</text>
</lyric>
<lyric number="3">
<syllabic>begin</syllabic>
<text>vi</text>
</lyric>
<lyric number="4">
<syllabic>middle</syllabic>
<text>gli</text>
</lyric>
<lyric number="5">
<syllabic>begin</syllabic>
<text>Pè</text>
</lyric>
<lyric number="6">
<syllabic>begin</syllabic>
<text>vi</text>
</lyric>
</note>
<note>
<chord/>
<pitch>
<step>G</step>
<octave>4</octave>
</pitch>
<duration>12</duration>
<type>quarter</type>
<dot/>
<stem>up</stem>
</note>
<note>
<pitch>
<step>D</step>
<octave>4</octave>
</pitch>
<duration>12</duration>
<type>quarter</type>
<dot/>
<stem>up</stem>
<lyric number="1">
<syllabic>end</syllabic>
<text>re,</text>
</lyric>
<lyric number="2">
<syllabic>end</syllabic>
<text>nes</text>
</lyric>
<lyric number="3">
<syllabic>end</syllabic>
<text>ve,</text>
</lyric>
<lyric number="4">
<syllabic>end</syllabic>
<text>se,</text>
</lyric>
<lyric number="5">
<syllabic>end</syllabic>
<text>re</text>
</lyric>
<lyric number="6">
<syllabic>end</syllabic>
<text>e,</text>
</lyric>
</note>
<note>
<chord/>
<pitch>
<step>G</step>
<octave>4</octave>
</pitch>
<duration>12</duration>
<type>quarter</type>
<dot/>
<stem>up</stem>
</note>
</measure>
<measure number="13">
<note>
<pitch>
<step>F</step>
<octave>4</octave>
</pitch>
<duration>12</duration>
<type>quarter</type>
<dot/>
<stem>up</stem>
<lyric number="1">
<syllabic>single</syllabic>
<text>fais</text>
</lyric>
<lyric number="2">
<syllabic>single</syllabic>
<text>A</text>
</lyric>
<lyric number="3">
<syllabic>begin</syllabic>
<text>Af</text>
</lyric>
<lyric number="4">
<syllabic>single</syllabic>
<text>Fais</text>
</lyric>
<lyric number="5">
<syllabic>single</syllabic>
<text>Et</text>
</lyric>
<lyric number="6">
<syllabic>single</syllabic>
<text>Par</text>
</lyric>
</note>
<note>
<chord/>
<pitch>
<step>A</step>
<octave>4</octave>
</pitch>
<duration>12</duration>
<type>quarter</type>
<dot/>
<stem>up</stem>
</note>
<note>
<pitch>
<step>F</step>
<octave>4</octave>
</pitch>
<duration>4</duration>
<type>eighth</type>
<stem>up</stem>
<beam number="1">begin</beam>
<lyric number="1">
<syllabic>begin</syllabic>
<text>jail</text>
</lyric>
<lyric number="2">
<syllabic>begin</syllabic>
<text>pro</text>
</lyric>
<lyric number="3">
<syllabic>middle</syllabic>
<text>fer</text>
</lyric>
<lyric number="4">
<syllabic>begin</syllabic>
<text>jail</text>
</lyric>
<lyric number="5">
<syllabic>begin</syllabic>
<text>ré</text>
</lyric>
<lyric number="6">
<syllabic>single</syllabic>
<text>toi,</text>
</lyric>
</note>
<note>
<chord/>
<pitch>
<step>A</step>
<octave>4</octave>
</pitch>
<duration>4</duration>
<type>eighth</type>
<stem>up</stem>
<beam number="1">begin</beam>
</note>
<note>
<pitch>
<step>F</step>
<octave>4</octave>
</pitch>
<duration>4</duration>
<type>eighth</type>
<stem>up</stem>
<beam number="1">end</beam>
<lyric number="1">
<syllabic>end</syllabic>
<text>lir</text>
</lyric>
<lyric number="2">
<syllabic>middle</syllabic>
<text>cla</text>
</lyric>
<lyric number="3">
<syllabic>end</syllabic>
<text>mis</text>
</lyric>
<lyric number="4">
<syllabic>end</syllabic>
<text>lir</text>
</lyric>
<lyric number="5">
<syllabic>middle</syllabic>
<text>vè</text>
</lyric>
<lyric number="6">
<syllabic>begin</syllabic>
<text>res</text>
</lyric>
</note>
<note>
<chord/>
<pitch>
<step>A</step>
<octave>4</octave>
</pitch>
<duration>4</duration>
<type>eighth</type>
<stem>up</stem>
<beam number="1">end</beam>
</note>
<note>
<pitch>
<step>F</step>
<octave>4</octave>
</pitch>
<duration>4</duration>
<type>eighth</type>
<stem>up</stem>
<beam number="1">continue</beam>
<lyric number="1">
<syllabic>single</syllabic>
<text>des</text>
</lyric>
<lyric number="2">
<syllabic>end</syllabic>
<text>mer:</text>
</lyric>
<lyric number="3">
<syllabic>single</syllabic>
<text>nos</text>
</lyric>
<lyric number="4">
<syllabic>single</syllabic>
<text>des</text>
</lyric>
<lyric number="5">
<syllabic>middle</syllabic>
<text>le</text>
</lyric>
<lyric number="6">
<syllabic>middle</syllabic>
<text>plen</text>
</lyric>
</note>
<note>
<chord/>
<pitch>
<step>A</step>
<octave>4</octave>
</pitch>
<duration>4</duration>
<type>eighth</type>
<stem>up</stem>
<beam number="1">continue</beam>
</note>
</measure>
<measure number="14">
<note>
<pitch>
<step>F</step>
<octave>4</octave>
</pitch>
<duration>12</duration>
<type>quarter</type>
<dot/>
<stem>up</stem>
<lyric number="1">
<syllabic>single</syllabic>
<text>cieux</text>
</lyric>
<lyric number="2">
<syllabic>single</syllabic>
<text>Christ</text>
</lyric>
<lyric number="3">
<syllabic>single</syllabic>
<text>coeurs</text>
</lyric>
<lyric number="4">
<syllabic>single</syllabic>
<text>coeurs</text>
</lyric>
<lyric number="5">
<syllabic>end</syllabic>
<text>nous</text>
</lyric>
<lyric number="6">
<syllabic>end</syllabic>
<text>dit</text>
</lyric>
</note>
<note>
<chord/>
<pitch>
<step>B</step>
<alter>-1</alter>
<octave>4</octave>
</pitch>
<duration>12</duration>
<type>quarter</type>
<dot/>
<stem>up</stem>
</note>
<note>
<pitch>
<step>F</step>
<octave>4</octave>
</pitch>
<duration>12</duration>
<type>quarter</type>
<dot/>
<stem>up</stem>
<lyric number="1">
<syllabic>single</syllabic>
<text>ta</text>
</lyric>
<lyric number="2">
<syllabic>single</syllabic>
<text>est</text>
</lyric>
<lyric number="3">
<syllabic>single</syllabic>
<text>et</text>
</lyric>
<lyric number="4">
<syllabic>single</syllabic>
<text>le</text>
</lyric>
<lyric number="5">
<syllabic>single</syllabic>
<text>la</text>
</lyric>
<lyric number="6">
<syllabic>single</syllabic>
<text>la</text>
</lyric>
</note>
<note>
<chord/>
<pitch>
<step>B</step>
<alter>-1</alter>
<octave>4</octave>
</pitch>
<duration>12</duration>
<type>quarter</type>
<dot/>
<stem>up</stem>
</note>
</measure>
<measure number="15">
<note>
<pitch>
<step>F</step>
<octave>4</octave>
</pitch>
<duration>12</duration>
<type>quarter</type>
<dot/>
<stem>up</stem>
<lyric number="1">
<syllabic>begin</syllabic>
<text>splen</text>
</lyric>
<lyric number="2">
<syllabic>begin</syllabic>
<text>res</text>
</lyric>
<lyric number="3">
<syllabic>begin</syllabic>
<text>gué</text>
</lyric>
<lyric number="4">
<syllabic>single</syllabic>
<text>chant</text>
</lyric>
<lyric number="5">
<syllabic>begin</syllabic>
<text>fa</text>
</lyric>
<lyric number="6">
<syllabic>single</syllabic>
<text>croix</text>
</lyric>
</note>
<note>
<chord/>
<pitch>
<step>A</step>
<octave>4</octave>
</pitch>
<duration>12</duration>
<type>quarter</type>
<dot/>
<stem>up</stem>
</note>
<note>
<pitch>
<step>D</step>
<octave>4</octave>
</pitch>
<duration>8</duration>
<type>quarter</type>
<stem>up</stem>
<lyric number="1">
<syllabic>end</syllabic>
<text>deur</text>
</lyric>
<lyric number="2">
<syllabic>middle</syllabic>
<text>sus</text>
</lyric>
<lyric number="3">
<syllabic>end</syllabic>
<text>ris</text>
</lyric>
<lyric number="4">
<syllabic>single</syllabic>
<text>de</text>
</lyric>
<lyric number="5">
<syllabic>end</syllabic>
<text>ce</text>
</lyric>
<lyric number="6">
<syllabic>single</syllabic>
<text>du</text>
</lyric>
</note>
<note>
<chord/>
<pitch>
<step>G</step>
<octave>4</octave>
</pitch>
<duration>8</duration>
<type>quarter</type>
<stem>up</stem>
</note>
<note>
<pitch>
<step>D</step>
<octave>4</octave>
</pitch>
<duration>4</duration>
<type>eighth</type>
<stem>up</stem>
<lyric number="1">
<syllabic>single</syllabic>
<text>de</text>
</lyric>
<lyric number="2">
<syllabic>middle</syllabic>
<text>ci</text>
</lyric>
<lyric number="3">
<syllabic>single</syllabic>
<text>nos</text>
</lyric>
<lyric number="4">
<syllabic>begin</syllabic>
<text>l'A</text>
</lyric>
<lyric number="5">
<syllabic>single</syllabic>
<text>du</text>
</lyric>
<lyric number="6">
<syllabic>begin</syllabic>
<text>Sei</text>
</lyric>
</note>
<note>
<chord/>
<pitch>
<step>F</step>
<octave>4</octave>
</pitch>
<duration>4</duration>
<type>eighth</type>
<stem>up</stem>
</note>
</measure>
<measure number="16">
<note>
<pitch>
<step>D</step>
<octave>4</octave>
</pitch>
<duration>24</duration>
<type>half</type>
<dot/>
<stem>up</stem>
<lyric number="1">
<syllabic>single</syllabic>
<text>gloire.</text>
</lyric>
<lyric number="2">
<syllabic>end</syllabic>
<text>té!</text>
</lyric>
<lyric number="3">
<syllabic>single</syllabic>
<text>corps.</text>
</lyric>
<lyric number="4">
<syllabic>end</syllabic>
<text>gneau.</text>
</lyric>
<lyric number="5">
<syllabic>single</syllabic>
<text>Christ.</text>
</lyric>
<lyric number="6">
<syllabic>end</syllabic>
<text>gneur.</text>
</lyric>
</note>
<note>
<chord/>
<pitch>
<step>G</step>
<octave>4</octave>
</pitch>
<duration>24</duration>
<type>half</type>
<dot/>
<stem>up</stem>
</note>
<barline location="right">
<bar-style>light-heavy</bar-style>
<repeat direction="backward" times="6"/>
</barline>
</measure>
<measure number="17">
<direction placement="above">
<direction-type>
<words relative-y="60">D.C. al Fine</words>
</direction-type>
</direction>
<barline location="right">
<bar-style>light-heavy</bar-style>
</barline>
</measure>
</part>
<part id="P2">
<measure number="1">
<attributes>
<divisions>8</divisions>
</attributes>
<attributes>
<clef>
<sign>F</sign>
<line>4</line>
</clef>
</attributes>
<attributes>
<key>
<fifths>-2</fifths>
</key>
</attributes>
<attributes>
<time>
<beats>6</beats>
<beat-type>8</beat-type>
</time>
</attributes>
<note>
<pitch>
<step>G</step>
<octave>3</octave>
</pitch>
<duration>8</duration>
<type>quarter</type>
<stem>down</stem>
</note>
<note>
<chord/>
<pitch>
<step>B</step>
<alter>-1</alter>
<octave>3</octave>
</pitch>
<duration>8</duration>
<type>quarter</type>
<stem>down</stem>
</note>
<note>
<pitch>
<step>G</step>
<octave>3</octave>
</pitch>
<duration>4</duration>
<type>eighth</type>
<stem>down</stem>
</note>
<note>
<chord/>
<pitch>
<step>B</step>
<alter>-1</alter>
<octave>3</octave>
</pitch>
<duration>4</duration>
<type>eighth</type>
<stem>down</stem>
</note>
<note>
<pitch>
<step>G</step>
<octave>3</octave>
</pitch>
<duration>8</duration>
<type>quarter</type>
<stem>down</stem>
</note>
<note>
<chord/>
<pitch>
<step>B</step>
<alter>-1</alter>
<octave>3</octave>
</pitch>
<duration>8</duration>
<type>quarter</type>
<stem>down</stem>
</note>
<note>
<pitch>
<step>G</step>
<octave>3</octave>
</pitch>
<duration>4</duration>
<type>eighth</type>
<stem>down</stem>
</note>
<note>
<chord/>
<pitch>
<step>B</step>
<alter>-1</alter>
<octave>3</octave>
</pitch>
<duration>4</duration>
<type>eighth</type>
<stem>down</stem>
</note>
</measure>
<measure number="2">
<note>
<pitch>
<step>G</step>
<octave>3</octave>
</pitch>
<duration>8</duration>
<type>quarter</type>
<stem>down</stem>
</note>
<note>
<chord/>
<pitch>
<step>B</step>
<alter>-1</alter>
<octave>3</octave>
</pitch>
<duration>8</duration>
<type>quarter</type>
<stem>down</stem>
</note>
<note>
<pitch>
<step>D</step>
<octave>3</octave>
</pitch>
<duration>4</duration>
<type>eighth</type>
<stem>down</stem>
</note>
<note>
<chord/>
<pitch>
<step>A</step>
<octave>3</octave>
</pitch>
<duration>4</duration>
<type>eighth</type>
<stem>down</stem>
</note>
<note>
<pitch>
<step>F</step>
<octave>3</octave>
</pitch>
<duration>12</duration>
<type>quarter</type>
<dot/>
<stem>down</stem>
</note>
<note>
<chord/>
<pitch>
<step>A</step>
<octave>3</octave>
</pitch>
<duration>12</duration>
<type>quarter</type>
<dot/>
<stem>down</stem>
</note>
</measure>
<measure number="3">
<note>
<pitch>
<step>G</step>
<octave>3</octave>
</pitch>
<duration>8</duration>
<type>quarter</type>
<stem>down</stem>
</note>
<note>
<chord/>
<pitch>
<step>B</step>
<alter>-1</alter>
<octave>3</octave>
</pitch>
<duration>8</duration>
<type>quarter</type>
<stem>down</stem>
</note>
<note>
<pitch>
<step>G</step>
<octave>3</octave>
</pitch>
<duration>4</duration>
<type>eighth</type>
<stem>down</stem>
</note>
<note>
<chord/>
<pitch>
<step>B</step>
<alter>-1</alter>
<octave>3</octave>
</pitch>
<duration>4</duration>
<type>eighth</type>
<stem>down</stem>
</note>
<note>
<pitch>
<step>G</step>
<octave>3</octave>
</pitch>
<duration>4</duration>
<type>eighth</type>
<stem>down</stem>
<beam number="1">begin</beam>
</note>
<note>
<chord/>
<pitch>
<step>B</step>
<alter>-1</alter>
<octave>3</octave>
</pitch>
<duration>4</duration>
<type>eighth</type>
<stem>down</stem>
<beam number="1">begin</beam>
</note>
<note>
<pitch>
<step>G</step>
<octave>3</octave>
</pitch>
<duration>4</duration>
<type>eighth</type>
<stem>down</stem>
<beam number="1">end</beam>
</note>
<note>
<chord/>
<pitch>
<step>B</step>
<alter>-1</alter>
<octave>3</octave>
</pitch>
<duration>4</duration>
<type>eighth</type>
<stem>down</stem>
<beam number="1">end</beam>
</note>
<note>
<pitch>
<step>G</step>
<octave>3</octave>
</pitch>
<duration>4</duration>
<type>eighth</type>
<stem>down</stem>
<beam number="1">continue</beam>
</note>
<note>
<chord/>
<pitch>
<step>B</step>
<alter>-1</alter>
<octave>3</octave>
</pitch>
<duration>4</duration>
<type>eighth</type>
<stem>down</stem>
<beam number="1">continue</beam>
</note>
</measure>
<measure number="4">
<note>
<pitch>
<step>F</step>
<octave>3</octave>
</pitch>
<duration>12</duration>
<type>quarter</type>
<dot/>
<stem>down</stem>
</note>
<note>
<chord/>
<pitch>
<step>C</step>
<octave>4</octave>
</pitch>
<duration>12</duration>
<type>quarter</type>
<dot/>
<stem>down</stem>
</note>
<note>
<pitch>
<step>F</step>
<octave>3</octave>
</pitch>
<duration>12</duration>
<type>quarter</type>
<dot/>
<stem>down</stem>
</note>
<note>
<chord/>
<pitch>
<step>C</step>
<octave>4</octave>
</pitch>
<duration>12</duration>
<type>quarter</type>
<dot/>
<stem>down</stem>
</note>
</measure>
<measure number="5">
<note>
<pitch>
<step>B</step>
<alter>-1</alter>
<octave>2</octave>
</pitch>
<duration>8</duration>
<type>quarter</type>
<stem>down</stem>
</note>
<note>
<chord/>
<pitch>
<step>D</step>
<octave>4</octave>
</pitch>
<duration>8</duration>
<type>quarter</type>
<stem>down</stem>
</note>
<note>
<pitch>
<step>B</step>
<alter>-1</alter>
<octave>2</octave>
</pitch>
<duration>4</duration>
<type>eighth</type>
<stem>down</stem>
</note>
<note>
<chord/>
<pitch>
<step>D</step>
<octave>4</octave>
</pitch>
<duration>4</duration>
<type>eighth</type>
<stem>down</stem>
</note>
<note>
<pitch>
<step>B</step>
<alter>-1</alter>
<octave>2</octave>
</pitch>
<duration>8</duration>
<type>quarter</type>
<stem>down</stem>
</note>
<note>
<chord/>
<pitch>
<step>E</step>
<alter>-1</alter>
<octave>4</octave>
</pitch>
<duration>8</duration>
<type>quarter</type>
<stem>down</stem>
</note>
<note>
<pitch>
<step>D</step>
<octave>3</octave>
</pitch>
<duration>4</duration>
<type>eighth</type>
<stem>down</stem>
</note>
<note>
<chord/>
<pitch>
<step>D</step>
<octave>4</octave>
</pitch>
<duration>4</duration>
<type>eighth</type>
<stem>down</stem>
</note>
</measure>
<measure number="6">
<note>
<pitch>
<step>F</step>
<octave>3</octave>
</pitch>
<duration>24</duration>
<type>half</type>
<dot/>
<stem>down</stem>
</note>
<note>
<chord/>
<pitch>
<step>C</step>
<octave>4</octave>
</pitch>
<duration>24</duration>
<type>half</type>
<dot/>
<stem>down</stem>
</note>
</measure>
<measure number="7">
<note>
<pitch>
<step>D</step>
<octave>3</octave>
</pitch>
<duration>12</duration>
<type>quarter</type>
<dot/>
<stem>down</stem>
</note>
<note>
<chord/>
<pitch>
<step>A</step>
<octave>3</octave>
</pitch>
<duration>12</duration>
<type>quarter</type>
<dot/>
<stem>down</stem>
</note>
<note>
<pitch>
<step>D</step>
<octave>3</octave>
</pitch>
<duration>4</duration>
<type>eighth</type>
<stem>down</stem>
<beam number="1">begin</beam>
</note>
<note>
<chord/>
<pitch>
<step>A</step>
<octave>3</octave>
</pitch>
<duration>4</duration>
<type>eighth</type>
<stem>down</stem>
<beam number="1">begin</beam>
</note>
<note>
<pitch>
<step>D</step>
<octave>3</octave>
</pitch>
<duration>4</duration>
<type>eighth</type>
<stem>down</stem>
<beam number="1">end</beam>
</note>
<note>
<chord/>
<pitch>
<step>A</step>
<octave>3</octave>
</pitch>
<duration>4</duration>
<type>eighth</type>
<stem>down</stem>
<beam number="1">end</beam>
</note>
<note>
<pitch>
<step>D</step>
<octave>3</octave>
</pitch>
<duration>4</duration>
<type>eighth</type>
<stem>down</stem>
<beam number="1">continue</beam>
</note>
<note>
<chord/>
<pitch>
<step>A</step>
<octave>3</octave>
</pitch>
<duration>4</duration>
<type>eighth</type>
<stem>down</stem>
<beam number="1">continue</beam>
</note>
</measure>
<measure number="8">
<note>
<pitch>
<step>G</step>
<octave>3</octave>
</pitch>
<duration>24</duration>
<type>half</type>
<dot/>
<stem>down</stem>
</note>
<note>
<chord/>
<pitch>
<step>B</step>
<alter>-1</alter>
<octave>3</octave>
</pitch>
<duration>24</duration>
<type>half</type>
<dot/>
<stem>down</stem>
</note>
<direction placement="above">
<direction-type>
<words relative-y="60">Fine</words>
</direction-type>
<sound fine=""/>
</direction>
<barline location="right">
<bar-style>light-heavy</bar-style>
</barline>
</measure>
<measure number="9">
<note>
<pitch>
<step>G</step>
<octave>3</octave>
</pitch>
<duration>12</duration>
<type>quarter</type>
<dot/>
<stem>down</stem>
</note>
<note>
<chord/>
<pitch>
<step>B</step>
<alter>-1</alter>
<octave>3</octave>
</pitch>
<duration>12</duration>
<type>quarter</type>
<dot/>
<stem>down</stem>
</note>
<note>
<pitch>
<step>D</step>
<octave>3</octave>
</pitch>
<duration>4</duration>
<type>eighth</type>
<stem>down</stem>
<beam number="1">begin</beam>
</note>
<note>
<chord/>
<pitch>
<step>A</step>
<octave>3</octave>
</pitch>
<duration>4</duration>
<type>eighth</type>
<stem>down</stem>
<beam number="1">begin</beam>
</note>
<note>
<pitch>
<step>D</step>
<octave>3</octave>
</pitch>
<duration>4</duration>
<type>eighth</type>
<stem>down</stem>
<beam number="1">end</beam>
</note>
<note>
<chord/>
<pitch>
<step>A</step>
<octave>3</octave>
</pitch>
<duration>4</duration>
<type>eighth</type>
<stem>down</stem>
<beam number="1">end</beam>
</note>
<note>
<pitch>
<step>D</step>
<octave>3</octave>
</pitch>
<duration>4</duration>
<type>eighth</type>
<stem>down</stem>
<beam number="1">continue</beam>
</note>
<note>
<chord/>
<pitch>
<step>A</step>
<octave>3</octave>
</pitch>
<duration>4</duration>
<type>eighth</type>
<stem>down</stem>
<beam number="1">continue</beam>
</note>
</measure>
<measure number="10">
<note>
<pitch>
<step>G</step>
<octave>3</octave>
</pitch>
<duration>12</duration>
<type>quarter</type>
<dot/>
<stem>down</stem>
</note>
<note>
<chord/>
<pitch>
<step>B</step>
<alter>-1</alter>
<octave>3</octave>
</pitch>
<duration>12</duration>
<type>quarter</type>
<dot/>
<stem>down</stem>
</note>
<note>
<pitch>
<step>G</step>
<octave>3</octave>
</pitch>
<duration>12</duration>
<type>quarter</type>
<dot/>
<stem>down</stem>
</note>
<note>
<chord/>
<pitch>
<step>B</step>
<alter>-1</alter>
<octave>3</octave>
</pitch>
<duration>12</duration>
<type>quarter</type>
<dot/>
<stem>down</stem>
</note>
</measure>
<measure number="11">
<note>
<pitch>
<step>D</step>
<octave>3</octave>
</pitch>
<duration>12</duration>
<type>quarter</type>
<dot/>
<stem>down</stem>
</note>
<note>
<chord/>
<pitch>
<step>A</step>
<octave>3</octave>
</pitch>
<duration>12</duration>
<type>quarter</type>
<dot/>
<stem>down</stem>
</note>
<note>
<pitch>
<step>D</step>
<octave>3</octave>
</pitch>
<duration>8</duration>
<type>quarter</type>
<stem>down</stem>
</note>
<note>
<chord/>
<pitch>
<step>A</step>
<octave>3</octave>
</pitch>
<duration>8</duration>
<type>quarter</type>
<stem>down</stem>
</note>
<note>
<pitch>
<step>D</step>
<octave>3</octave>
</pitch>
<duration>4</duration>
<type>eighth</type>
<stem>down</stem>
</note>
<note>
<chord/>
<pitch>
<step>A</step>
<octave>3</octave>
</pitch>
<duration>4</duration>
<type>eighth</type>
<stem>down</stem>
</note>
</measure>
<measure number="12">
<note>
<pitch>
<step>G</step>
<octave>3</octave>
</pitch>
<duration>12</duration>
<type>quarter</type>
<dot/>
<stem>down</stem>
</note>
<note>
<chord/>
<pitch>
<step>B</step>
<alter>-1</alter>
<octave>3</octave>
</pitch>
<duration>12</duration>
<type>quarter</type>
<dot/>
<stem>down</stem>
</note>
<note>
<pitch>
<step>G</step>
<octave>3</octave>
</pitch>
<duration>12</duration>
<type>quarter</type>
<dot/>
<stem>down</stem>
</note>
<note>
<chord/>
<pitch>
<step>B</step>
<alter>-1</alter>
<octave>3</octave>
</pitch>
<duration>12</duration>
<type>quarter</type>
<dot/>
<stem>down</stem>
</note>
</measure>
<measure number="13">
<note>
<pitch>
<step>F</step>
<octave>3</octave>
</pitch>
<duration>12</duration>
<type>quarter</type>
<dot/>
<stem>down</stem>
</note>
<note>
<chord/>
<pitch>
<step>C</step>
<octave>4</octave>
</pitch>
<duration>12</duration>
<type>quarter</type>
<dot/>
<stem>down</stem>
</note>
<note>
<pitch>
<step>F</step>
<octave>3</octave>
</pitch>
<duration>4</duration>
<type>eighth</type>
<stem>down</stem>
<beam number="1">begin</beam>
</note>
<note>
<chord/>
<pitch>
<step>C</step>
<octave>4</octave>
</pitch>
<duration>4</duration>
<type>eighth</type>
<stem>down</stem>
<beam number="1">begin</beam>
</note>
<note>
<pitch>
<step>F</step>
<octave>3</octave>
</pitch>
<duration>4</duration>
<type>eighth</type>
<stem>down</stem>
<beam number="1">end</beam>
</note>
<note>
<chord/>
<pitch>
<step>C</step>
<octave>4</octave>
</pitch>
<duration>4</duration>
<type>eighth</type>
<stem>down</stem>
<beam number="1">end</beam>
</note>
<note>
<pitch>
<step>F</step>
<octave>3</octave>
</pitch>
<duration>4</duration>
<type>eighth</type>
<stem>down</stem>
<beam number="1">continue</beam>
</note>
<note>
<chord/>
<pitch>
<step>C</step>
<octave>4</octave>
</pitch>
<duration>4</duration>
<type>eighth</type>
<stem>down</stem>
<beam number="1">continue</beam>
</note>
</measure>
<measure number="14">
<note>
<pitch>
<step>B</step>
<alter>-1</alter>
<octave>2</octave>
</pitch>
<duration>12</duration>
<type>quarter</type>
<dot/>
<stem>down</stem>
</note>
<note>
<chord/>
<pitch>
<step>D</step>
<octave>4</octave>
</pitch>
<duration>12</duration>
<type>quarter</type>
<dot/>
<stem>down</stem>
</note>
<note>
<pitch>
<step>B</step>
<alter>-1</alter>
<octave>2</octave>
</pitch>
<duration>12</duration>
<type>quarter</type>
<dot/>
<stem>down</stem>
</note>
<note>
<chord/>
<pitch>
<step>D</step>
<octave>4</octave>
</pitch>
<duration>12</duration>
<type>quarter</type>
<dot/>
<stem>down</stem>
</note>
</measure>
<measure number="15">
<note>
<pitch>
<step>F</step>
<octave>3</octave>
</pitch>
<duration>12</duration>
<type>quarter</type>
<dot/>
<stem>down</stem>
</note>
<note>
<chord/>
<pitch>
<step>C</step>
<octave>4</octave>
</pitch>
<duration>12</duration>
<type>quarter</type>
<dot/>
<stem>down</stem>
</note>
<note>
<pitch>
<step>G</step>
<octave>3</octave>
</pitch>
<duration>8</duration>
<type>quarter</type>
<stem>down</stem>
</note>
<note>
<chord/>
<pitch>
<step>B</step>
<alter>-1</alter>
<octave>3</octave>
</pitch>
<duration>8</duration>
<type>quarter</type>
<stem>down</stem>
</note>
<note>
<pitch>
<step>D</step>
<octave>3</octave>
</pitch>
<duration>4</duration>
<type>eighth</type>
<stem>down</stem>
</note>
<note>
<chord/>
<pitch>
<step>A</step>
<octave>3</octave>
</pitch>
<duration>4</duration>
<type>eighth</type>
<stem>down</stem>
</note>
</measure>
<measure number="16">
<note>
<pitch>
<step>G</step>
<octave>3</octave>
</pitch>
<duration>24</duration>
<type>half</type>
<dot/>
<stem>down</stem>
</note>
<note>
<chord/>
<pitch>
<step>B</step>
<alter>-1</alter>
<octave>3</octave>
</pitch>
<duration>24</duration>
<type>half</type>
<dot/>
<stem>down</stem>
</note>
<barline location="right">
<bar-style>light-heavy</bar-style>
<repeat direction="backward" times="6"/>
</barline>
</measure>
<measure number="17">
<direction placement="above">
<direction-type>
<words relative-y="60">D.C. al Fine</words>
</direction-type>
</direction>
<barline location="right">
<bar-style>light-heavy</bar-style>
</barline>
</measure>
</part>
</score-partwise>
