<?xml version="1.0" encoding="UTF-8" standalone='no'?>
<!DOCTYPE score-partwise PUBLIC "-//Recordare//DTD MusicXML 1.0 Partwise//EN" "http://www.musicxml.org/dtds/partwise.dtd">
<score-partwise>
<work>
<work-title>Crie de joie</work-title>
</work>
<identification>
<creator type="transcriber">Ramon Pink</creator>
<rights>© 1982 Scripture in Song</rights>
<encoding>
<software>Noteworthy Composer</software>
<encoding-date>2007-02-17</encoding-date>
</encoding>
</identification>
<part-list>
<score-part id="P1">
<part-name>Mélodie</part-name>
<score-instrument id="P1-I1">
<instrument-name>String Ensemble 1</instrument-name>
</score-instrument>
<midi-instrument id="P1-I1">
<midi-channel>1</midi-channel>
<midi-program>50</midi-program>
</midi-instrument>
</score-part>
</part-list>
<part id="P1">
<measure number="1">
<attributes>
<divisions>16</divisions>
</attributes>
<attributes>
<clef>
<sign>G</sign>
<line>2</line>
</clef>
</attributes>
<attributes>
<key>
<fifths>-1</fifths>
</key>
</attributes>
<attributes>
<time>
<beats>4</beats>
<beat-type>4</beat-type>
</time>
</attributes>
<direction>
<direction-type>
<metronome parentheses="no">
<beat-unit>quarter</beat-unit>
<per-minute>100</per-minute>
</metronome>
</direction-type>
<sound tempo="100"/>
</direction>
<note>
<pitch>
<step>C</step>
<octave>5</octave>
</pitch>
<duration>16</duration>
<type>quarter</type>
<lyric number="1">
<syllabic>single</syllabic>
<text>1. Crie,</text>
</lyric>
<lyric number="2">
<syllabic>single</syllabic>
<text>1. Danse,</text>
</lyric>
<lyric number="3">
<syllabic>single</syllabic>
<text>3. Saute,</text>
</lyric>
</note>
<note>
<rest/>
<duration>16</duration>
<type>quarter</type>
</note>
<note>
<rest/>
<duration>16</duration>
<type>quarter</type>
</note>
<note>
<pitch>
<step>C</step>
<octave>5</octave>
</pitch>
<duration>8</duration>
<type>eighth</type>
<stem>up</stem>
<beam number="1">begin</beam>
<lyric number="1">
<syllabic>single</syllabic>
<text>crie</text>
</lyric>
<lyric number="2">
<syllabic>single</syllabic>
<text>danse</text>
</lyric>
<lyric number="3">
<syllabic>single</syllabic>
<text>saute</text>
</lyric>
</note>
<note>
<pitch>
<step>A</step>
<octave>4</octave>
</pitch>
<duration>4</duration>
<type>16th</type>
<stem>up</stem>
<beam number="1">end</beam>
<lyric number="1">
<syllabic>single</syllabic>
<text>de</text>
</lyric>
<lyric number="2">
<syllabic>single</syllabic>
<text>de</text>
</lyric>
<lyric number="3">
<syllabic>single</syllabic>
<text>de</text>
</lyric>
</note>
<note>
<pitch>
<step>B</step>
<alter>-1</alter>
<octave>4</octave>
</pitch>
<duration>4</duration>
<tie type="start"/>
<type>16th</type>
<stem>up</stem>
<beam number="1">continue</beam>
<notations>
<tied type="start"/>
</notations>
<lyric number="1">
<syllabic>single</syllabic>
<text>joie !</text>
</lyric>
<lyric number="2">
<syllabic>single</syllabic>
<text>joie !</text>
</lyric>
<lyric number="3">
<syllabic>single</syllabic>
<text>joie !</text>
</lyric>
</note>
</measure>
<measure number="2">
<note>
<pitch>
<step>B</step>
<alter>-1</alter>
<octave>4</octave>
</pitch>
<duration>16</duration>
<tie type="stop"/>
<type>quarter</type>
<notations>
<tied type="stop"/>
</notations>
</note>
<note>
<rest/>
<duration>16</duration>
<type>quarter</type>
</note>
<note>
<rest/>
<duration>32</duration>
<type>half</type>
</note>
</measure>
<measure number="3">
<note>
<pitch>
<step>C</step>
<octave>5</octave>
</pitch>
<duration>16</duration>
<type>quarter</type>
<lyric number="1">
<syllabic>single</syllabic>
<text>Crie,</text>
</lyric>
<lyric number="2">
<syllabic>single</syllabic>
<text>Danse,</text>
</lyric>
<lyric number="3">
<syllabic>single</syllabic>
<text>Saute,</text>
</lyric>
</note>
<note>
<rest/>
<duration>16</duration>
<type>quarter</type>
</note>
<note>
<rest/>
<duration>16</duration>
<type>quarter</type>
</note>
<note>
<pitch>
<step>D</step>
<octave>5</octave>
</pitch>
<duration>8</duration>
<type>eighth</type>
<stem>down</stem>
<beam number="1">begin</beam>
<lyric number="1">
<syllabic>single</syllabic>
<text>crie</text>
</lyric>
<lyric number="2">
<syllabic>single</syllabic>
<text>danse</text>
</lyric>
<lyric number="3">
<syllabic>single</syllabic>
<text>saute</text>
</lyric>
</note>
<note>
<pitch>
<step>B</step>
<alter>-1</alter>
<octave>4</octave>
</pitch>
<duration>4</duration>
<type>16th</type>
<stem>down</stem>
<beam number="1">end</beam>
<lyric number="1">
<syllabic>single</syllabic>
<text>de</text>
</lyric>
<lyric number="2">
<syllabic>single</syllabic>
<text>de</text>
</lyric>
<lyric number="3">
<syllabic>single</syllabic>
<text>de</text>
</lyric>
</note>
<note>
<pitch>
<step>C</step>
<octave>5</octave>
</pitch>
<duration>4</duration>
<tie type="start"/>
<type>16th</type>
<stem>down</stem>
<beam number="1">continue</beam>
<notations>
<tied type="start"/>
</notations>
<lyric number="1">
<syllabic>single</syllabic>
<text>joie !</text>
</lyric>
<lyric number="2">
<syllabic>single</syllabic>
<text>joie !</text>
</lyric>
<lyric number="3">
<syllabic>single</syllabic>
<text>joie !</text>
</lyric>
</note>
</measure>
<measure number="4">
<note>
<pitch>
<step>C</step>
<octave>5</octave>
</pitch>
<duration>16</duration>
<tie type="stop"/>
<type>quarter</type>
<notations>
<tied type="stop"/>
</notations>
</note>
<note>
<rest/>
<duration>16</duration>
<type>quarter</type>
</note>
<note>
<rest/>
<duration>32</duration>
<type>half</type>
</note>
</measure>
<measure number="5">
<note>
<pitch>
<step>C</step>
<octave>5</octave>
</pitch>
<duration>16</duration>
<type>quarter</type>
<lyric number="1">
<syllabic>single</syllabic>
<text>Crie,</text>
</lyric>
<lyric number="2">
<syllabic>single</syllabic>
<text>Danse,</text>
</lyric>
<lyric number="3">
<syllabic>single</syllabic>
<text>Saute,</text>
</lyric>
</note>
<note>
<rest/>
<duration>16</duration>
<type>quarter</type>
</note>
<note>
<rest/>
<duration>16</duration>
<type>quarter</type>
</note>
<note>
<pitch>
<step>C</step>
<octave>5</octave>
</pitch>
<duration>8</duration>
<type>eighth</type>
<stem>up</stem>
<beam number="1">begin</beam>
<lyric number="1">
<syllabic>single</syllabic>
<text>crie</text>
</lyric>
<lyric number="2">
<syllabic>single</syllabic>
<text>danse</text>
</lyric>
<lyric number="3">
<syllabic>single</syllabic>
<text>saute</text>
</lyric>
</note>
<note>
<pitch>
<step>A</step>
<octave>4</octave>
</pitch>
<duration>4</duration>
<type>16th</type>
<stem>up</stem>
<beam number="1">end</beam>
<lyric number="1">
<syllabic>single</syllabic>
<text>de</text>
</lyric>
<lyric number="2">
<syllabic>single</syllabic>
<text>de</text>
</lyric>
<lyric number="3">
<syllabic>single</syllabic>
<text>de</text>
</lyric>
</note>
<note>
<pitch>
<step>B</step>
<alter>-1</alter>
<octave>4</octave>
</pitch>
<duration>4</duration>
<tie type="start"/>
<type>16th</type>
<stem>up</stem>
<beam number="1">continue</beam>
<notations>
<tied type="start"/>
</notations>
<lyric number="1">
<syllabic>single</syllabic>
<text>joie !</text>
</lyric>
<lyric number="2">
<syllabic>single</syllabic>
<text>joie !</text>
</lyric>
<lyric number="3">
<syllabic>single</syllabic>
<text>joie !</text>
</lyric>
</note>
</measure>
<measure number="6">
<note>
<pitch>
<step>B</step>
<alter>-1</alter>
<octave>4</octave>
</pitch>
<duration>16</duration>
<tie type="stop"/>
<type>quarter</type>
<notations>
<tied type="stop"/>
</notations>
</note>
<note>
<rest/>
<duration>16</duration>
<type>quarter</type>
</note>
<note>
<rest/>
<duration>16</duration>
<type>quarter</type>
</note>
<note>
<pitch>
<step>D</step>
<octave>5</octave>
</pitch>
<duration>8</duration>
<type>eighth</type>
<stem>down</stem>
<beam number="1">begin</beam>
<lyric number="1">
<syllabic>single</syllabic>
<text>Crie</text>
</lyric>
<lyric number="2">
<syllabic>single</syllabic>
<text>Danse</text>
</lyric>
<lyric number="3">
<syllabic>single</syllabic>
<text>Saute</text>
</lyric>
</note>
<note>
<pitch>
<step>B</step>
<alter>-1</alter>
<octave>4</octave>
</pitch>
<duration>4</duration>
<type>16th</type>
<stem>down</stem>
<beam number="1">end</beam>
<lyric number="1">
<syllabic>single</syllabic>
<text>de</text>
</lyric>
<lyric number="2">
<syllabic>single</syllabic>
<text>de</text>
</lyric>
<lyric number="3">
<syllabic>single</syllabic>
<text>de</text>
</lyric>
</note>
<note>
<pitch>
<step>C</step>
<octave>5</octave>
</pitch>
<duration>4</duration>
<tie type="start"/>
<type>16th</type>
<stem>down</stem>
<beam number="1">continue</beam>
<notations>
<tied type="start"/>
</notations>
<lyric number="1">
<syllabic>single</syllabic>
<text>joie</text>
</lyric>
<lyric number="2">
<syllabic>single</syllabic>
<text>joie</text>
</lyric>
<lyric number="3">
<syllabic>single</syllabic>
<text>joie</text>
</lyric>
</note>
</measure>
<measure number="7">
<note>
<pitch>
<step>C</step>
<octave>5</octave>
</pitch>
<duration>16</duration>
<tie type="stop"/>
<type>quarter</type>
<notations>
<tied type="stop"/>
</notations>
</note>
<note>
<pitch>
<step>D</step>
<octave>5</octave>
</pitch>
<duration>8</duration>
<type>eighth</type>
<stem>down</stem>
<beam number="1">begin</beam>
<lyric number="1">
<syllabic>single</syllabic>
<text>au</text>
</lyric>
<lyric number="2">
<syllabic>single</syllabic>
<text>au</text>
</lyric>
<lyric number="3">
<syllabic>single</syllabic>
<text>au</text>
</lyric>
</note>
<note>
<pitch>
<step>B</step>
<alter>-1</alter>
<octave>4</octave>
</pitch>
<duration>4</duration>
<type>16th</type>
<stem>down</stem>
<beam number="1">end</beam>
<lyric number="1">
<syllabic>begin</syllabic>
<text>Sei</text>
</lyric>
<lyric number="2">
<syllabic>begin</syllabic>
<text>Sei</text>
</lyric>
<lyric number="3">
<syllabic>begin</syllabic>
<text>Sei</text>
</lyric>
</note>
<note>
<pitch>
<step>C</step>
<octave>5</octave>
</pitch>
<duration>4</duration>
<tie type="start"/>
<type>16th</type>
<stem>down</stem>
<beam number="1">continue</beam>
<notations>
<tied type="start"/>
</notations>
<lyric number="1">
<syllabic>end</syllabic>
<text>gneur</text>
</lyric>
<lyric number="2">
<syllabic>end</syllabic>
<text>gneur</text>
</lyric>
<lyric number="3">
<syllabic>end</syllabic>
<text>gneur</text>
</lyric>
</note>
<note>
<pitch>
<step>C</step>
<octave>5</octave>
</pitch>
<duration>16</duration>
<tie type="stop"/>
<type>quarter</type>
<notations>
<tied type="stop"/>
</notations>
</note>
<note>
<pitch>
<step>A</step>
<octave>4</octave>
</pitch>
<duration>4</duration>
<type>16th</type>
<stem>up</stem>
<beam number="1">begin</beam>
<lyric number="1">
<syllabic>begin</syllabic>
<text>tou</text>
</lyric>
<lyric number="2">
<syllabic>begin</syllabic>
<text>tou</text>
</lyric>
<lyric number="3">
<syllabic>begin</syllabic>
<text>tou</text>
</lyric>
</note>
<note>
<pitch>
<step>G</step>
<octave>4</octave>
</pitch>
<duration>4</duration>
<type>16th</type>
<stem>up</stem>
<beam number="1">end</beam>
<lyric number="1">
<syllabic>end</syllabic>
<text>te</text>
</lyric>
<lyric number="2">
<syllabic>end</syllabic>
<text>te</text>
</lyric>
<lyric number="3">
<syllabic>end</syllabic>
<text>te</text>
</lyric>
</note>
<note>
<pitch>
<step>F</step>
<octave>4</octave>
</pitch>
<duration>4</duration>
<type>16th</type>
<stem>up</stem>
<beam number="1">end</beam>
<lyric number="1">
<syllabic>single</syllabic>
<text>la</text>
</lyric>
<lyric number="2">
<syllabic>single</syllabic>
<text>la</text>
</lyric>
<lyric number="3">
<syllabic>single</syllabic>
<text>la</text>
</lyric>
</note>
<note>
<pitch>
<step>F</step>
<octave>4</octave>
</pitch>
<duration>4</duration>
<tie type="start"/>
<type>16th</type>
<stem>up</stem>
<beam number="1">continue</beam>
<notations>
<tied type="start"/>
</notations>
<lyric number="1">
<syllabic>single</syllabic>
<text>terre !</text>
</lyric>
<lyric number="2">
<syllabic>single</syllabic>
<text>terre !</text>
</lyric>
<lyric number="3">
<syllabic>single</syllabic>
<text>terre !</text>
</lyric>
</note>
</measure>
<measure number="8">
<note>
<pitch>
<step>F</step>
<octave>4</octave>
</pitch>
<duration>8</duration>
<tie type="stop"/>
<type>eighth</type>
<notations>
<tied type="stop"/>
</notations>
</note>
<note>
<pitch>
<step>F</step>
<octave>4</octave>
</pitch>
<duration>16</duration>
<tie type="stop"/>
<type>quarter</type>
<notations>
<tied type="stop"/>
</notations>
</note>
<note>
<pitch>
<step>F</step>
<octave>4</octave>
</pitch>
<duration>8</duration>
<tie type="stop"/>
<type>eighth</type>
<notations>
<tied type="stop"/>
</notations>
</note>
<note>
<pitch>
<step>F</step>
<octave>4</octave>
</pitch>
<duration>32</duration>
<tie type="stop"/>
<type>half</type>
<notations>
<tied type="stop"/>
</notations>
</note>
<barline location="right">
<bar-style>light-heavy</bar-style>
<repeat direction="backward" times="3"/>
</barline>
<barline location="right">
<bar-style>light-heavy</bar-style>
</barline>
</measure>
</part>
</score-partwise>
