<?xml version="1.0" encoding="UTF-8" standalone='no'?>
<!DOCTYPE score-partwise PUBLIC "-//Recordare//DTD MusicXML 1.0 Partwise//EN" "http://www.musicxml.org/dtds/partwise.dtd">
<score-partwise>
<work>
<work-title>A cause de son nom</work-title>
</work>
<identification>
<creator type="transcriber">Sylvain Freymond</creator>
<rights>© 2017 Sylvain Freymond</rights>
<encoding>
<software>Noteworthy Composer</software>
<encoding-date>2018-02-05</encoding-date>
</encoding>
</identification>
<part-list>
<score-part id="P1">
<part-name>Mélodie</part-name>
<score-instrument id="P1-I1">
<instrument-name>String Ensemble 1</instrument-name>
</score-instrument>
<midi-instrument id="P1-I1">
<midi-channel>1</midi-channel>
<midi-program>50</midi-program>
</midi-instrument>
</score-part>
</part-list>
<part id="P1">
<measure number="1">
<attributes>
<divisions>8</divisions>
</attributes>
<attributes>
<clef>
<sign>G</sign>
<line>2</line>
</clef>
</attributes>
<attributes>
<key>
<fifths>4</fifths>
</key>
</attributes>
<attributes>
<time>
<beats>4</beats>
<beat-type>4</beat-type>
</time>
</attributes>
<barline location="left">
<bar-style>heavy-light</bar-style>
<repeat direction="forward"/>
</barline>
<note>
<rest/>
<duration>16</duration>
<type>half</type>
</note>
<note>
<rest/>
<duration>8</duration>
<type>quarter</type>
</note>
<note>
<rest/>
<duration>4</duration>
<type>eighth</type>
</note>
<note>
<pitch>
<step>B</step>
<octave>3</octave>
</pitch>
<duration>4</duration>
<type>eighth</type>
<lyric number="1">
<syllabic>single</syllabic>
<text>A</text>
</lyric>
<lyric number="2">
<syllabic>single</syllabic>
<text></text>
</lyric>
</note>
</measure>
<measure number="2">
<note>
<pitch>
<step>F</step>
<alter>1</alter>
<octave>4</octave>
</pitch>
<duration>8</duration>
<type>quarter</type>
<lyric number="1">
<syllabic>begin</syllabic>
<text>cau</text>
</lyric>
<lyric number="2">
<syllabic>single</syllabic>
<text></text>
</lyric>
</note>
<note>
<pitch>
<step>E</step>
<octave>4</octave>
</pitch>
<duration>4</duration>
<type>eighth</type>
<stem>up</stem>
<beam number="1">begin</beam>
<lyric number="1">
<syllabic>end</syllabic>
<text>se</text>
</lyric>
<lyric number="2">
<syllabic>single</syllabic>
<text></text>
</lyric>
</note>
<note>
<pitch>
<step>F</step>
<alter>1</alter>
<octave>4</octave>
</pitch>
<duration>4</duration>
<tie type="start"/>
<type>eighth</type>
<stem>up</stem>
<beam number="1">continue</beam>
<notations>
<tied type="start"/>
</notations>
<lyric number="1">
<syllabic>single</syllabic>
<text>de</text>
</lyric>
<lyric number="2">
<syllabic>single</syllabic>
<text></text>
</lyric>
</note>
<note>
<pitch>
<step>F</step>
<alter>1</alter>
<octave>4</octave>
</pitch>
<duration>4</duration>
<tie type="stop"/>
<type>eighth</type>
<stem>up</stem>
<beam number="1">begin</beam>
<notations>
<tied type="stop"/>
</notations>
</note>
<note>
<pitch>
<step>E</step>
<octave>4</octave>
</pitch>
<duration>4</duration>
<tie type="start"/>
<type>eighth</type>
<stem>up</stem>
<beam number="1">continue</beam>
<notations>
<tied type="start"/>
</notations>
<lyric number="1">
<syllabic>single</syllabic>
<text>son</text>
</lyric>
<lyric number="2">
<syllabic>single</syllabic>
<text></text>
</lyric>
</note>
<note>
<pitch>
<step>E</step>
<octave>4</octave>
</pitch>
<duration>4</duration>
<tie type="stop"/>
<type>eighth</type>
<stem>up</stem>
<beam number="1">begin</beam>
<notations>
<tied type="stop"/>
</notations>
</note>
<note>
<pitch>
<step>F</step>
<alter>1</alter>
<octave>4</octave>
</pitch>
<duration>4</duration>
<tie type="start"/>
<type>eighth</type>
<stem>up</stem>
<beam number="1">continue</beam>
<notations>
<tied type="start"/>
</notations>
<lyric number="1">
<syllabic>single</syllabic>
<text>nom,</text>
</lyric>
<lyric number="2">
<syllabic>single</syllabic>
<text></text>
</lyric>
</note>
</measure>
<measure number="3">
<note>
<pitch>
<step>F</step>
<alter>1</alter>
<octave>4</octave>
</pitch>
<duration>32</duration>
<tie type="stop"/>
<type>whole</type>
<notations>
<tied type="stop"/>
</notations>
</note>
</measure>
<measure number="4">
<note>
<pitch>
<step>B</step>
<octave>3</octave>
</pitch>
<duration>8</duration>
<type>quarter</type>
<lyric number="1">
<syllabic>single</syllabic>
<text>il</text>
</lyric>
<lyric number="2">
<syllabic>single</syllabic>
<text></text>
</lyric>
</note>
<note>
<pitch>
<step>B</step>
<octave>3</octave>
</pitch>
<duration>4</duration>
<type>eighth</type>
<stem>up</stem>
<beam number="1">begin</beam>
<lyric number="1">
<syllabic>single</syllabic>
<text>nous</text>
</lyric>
<lyric number="2">
<syllabic>single</syllabic>
<text></text>
</lyric>
</note>
<note>
<pitch>
<step>B</step>
<octave>3</octave>
</pitch>
<duration>4</duration>
<tie type="start"/>
<type>eighth</type>
<stem>up</stem>
<beam number="1">continue</beam>
<notations>
<tied type="start"/>
</notations>
<lyric number="1">
<syllabic>begin</syllabic>
<text>ré</text>
</lyric>
<lyric number="2">
<syllabic>single</syllabic>
<text></text>
</lyric>
</note>
<note>
<pitch>
<step>B</step>
<octave>3</octave>
</pitch>
<duration>4</duration>
<tie type="stop"/>
<type>eighth</type>
<stem>up</stem>
<beam number="1">begin</beam>
<notations>
<tied type="stop"/>
</notations>
</note>
<note>
<pitch>
<step>C</step>
<alter>1</alter>
<octave>4</octave>
</pitch>
<duration>4</duration>
<tie type="start"/>
<type>eighth</type>
<stem>up</stem>
<beam number="1">continue</beam>
<notations>
<tied type="start"/>
</notations>
<lyric number="1">
<syllabic>middle</syllabic>
<text>pon</text>
</lyric>
<lyric number="2">
<syllabic>single</syllabic>
<text></text>
</lyric>
</note>
<note>
<pitch>
<step>C</step>
<alter>1</alter>
<octave>4</octave>
</pitch>
<duration>4</duration>
<tie type="stop"/>
<type>eighth</type>
<stem>up</stem>
<beam number="1">begin</beam>
<notations>
<tied type="stop"/>
</notations>
</note>
<note>
<pitch>
<step>B</step>
<octave>3</octave>
</pitch>
<duration>4</duration>
<tie type="start"/>
<type>eighth</type>
<stem>up</stem>
<beam number="1">continue</beam>
<notations>
<tied type="start"/>
</notations>
<lyric number="1">
<syllabic>end</syllabic>
<text>dra.</text>
</lyric>
<lyric number="2">
<syllabic>single</syllabic>
<text></text>
</lyric>
</note>
</measure>
<measure number="5">
<note>
<pitch>
<step>B</step>
<octave>3</octave>
</pitch>
<duration>24</duration>
<tie type="stop"/>
<type>half</type>
<dot/>
<notations>
<tied type="stop"/>
</notations>
</note>
<note>
<pitch>
<step>B</step>
<octave>3</octave>
</pitch>
<duration>4</duration>
<tie type="stop"/>
<type>eighth</type>
<stem>up</stem>
<beam number="1">begin</beam>
<notations>
<tied type="stop"/>
</notations>
</note>
<note>
<pitch>
<step>B</step>
<octave>3</octave>
</pitch>
<duration>4</duration>
<type>eighth</type>
<stem>up</stem>
<beam number="1">continue</beam>
<lyric number="1">
<syllabic>single</syllabic>
<text>A</text>
</lyric>
<lyric number="2">
<syllabic>single</syllabic>
<text></text>
</lyric>
</note>
</measure>
<measure number="6">
<note>
<pitch>
<step>F</step>
<alter>1</alter>
<octave>4</octave>
</pitch>
<duration>8</duration>
<type>quarter</type>
<lyric number="1">
<syllabic>begin</syllabic>
<text>cau</text>
</lyric>
<lyric number="2">
<syllabic>single</syllabic>
<text></text>
</lyric>
</note>
<note>
<pitch>
<step>E</step>
<octave>4</octave>
</pitch>
<duration>4</duration>
<type>eighth</type>
<stem>up</stem>
<beam number="1">begin</beam>
<lyric number="1">
<syllabic>end</syllabic>
<text>se</text>
</lyric>
<lyric number="2">
<syllabic>single</syllabic>
<text></text>
</lyric>
</note>
<note>
<pitch>
<step>F</step>
<alter>1</alter>
<octave>4</octave>
</pitch>
<duration>4</duration>
<tie type="start"/>
<type>eighth</type>
<stem>up</stem>
<beam number="1">continue</beam>
<notations>
<tied type="start"/>
</notations>
<lyric number="1">
<syllabic>single</syllabic>
<text>de</text>
</lyric>
<lyric number="2">
<syllabic>single</syllabic>
<text></text>
</lyric>
</note>
<note>
<pitch>
<step>F</step>
<alter>1</alter>
<octave>4</octave>
</pitch>
<duration>4</duration>
<tie type="stop"/>
<type>eighth</type>
<stem>up</stem>
<beam number="1">begin</beam>
<notations>
<tied type="stop"/>
</notations>
</note>
<note>
<pitch>
<step>E</step>
<octave>4</octave>
</pitch>
<duration>4</duration>
<tie type="start"/>
<type>eighth</type>
<stem>up</stem>
<beam number="1">continue</beam>
<notations>
<tied type="start"/>
</notations>
<lyric number="1">
<syllabic>single</syllabic>
<text>son</text>
</lyric>
<lyric number="2">
<syllabic>single</syllabic>
<text></text>
</lyric>
</note>
<note>
<pitch>
<step>E</step>
<octave>4</octave>
</pitch>
<duration>4</duration>
<tie type="stop"/>
<type>eighth</type>
<stem>up</stem>
<beam number="1">begin</beam>
<notations>
<tied type="stop"/>
</notations>
</note>
<note>
<pitch>
<step>F</step>
<alter>1</alter>
<octave>4</octave>
</pitch>
<duration>4</duration>
<tie type="start"/>
<type>eighth</type>
<stem>up</stem>
<beam number="1">continue</beam>
<notations>
<tied type="start"/>
</notations>
<lyric number="1">
<syllabic>single</syllabic>
<text>nom,</text>
</lyric>
<lyric number="2">
<syllabic>single</syllabic>
<text></text>
</lyric>
</note>
</measure>
<measure number="7">
<note>
<pitch>
<step>F</step>
<alter>1</alter>
<octave>4</octave>
</pitch>
<duration>24</duration>
<tie type="stop"/>
<type>half</type>
<dot/>
<notations>
<tied type="stop"/>
</notations>
</note>
<note>
<rest/>
<duration>8</duration>
<type>quarter</type>
</note>
</measure>
<measure number="8">
<note>
<pitch>
<step>B</step>
<octave>3</octave>
</pitch>
<duration>8</duration>
<type>quarter</type>
<lyric number="1">
<syllabic>single</syllabic>
<text>il</text>
</lyric>
<lyric number="2">
<syllabic>single</syllabic>
<text></text>
</lyric>
</note>
<note>
<pitch>
<step>B</step>
<octave>3</octave>
</pitch>
<duration>4</duration>
<type>eighth</type>
<stem>up</stem>
<beam number="1">begin</beam>
<lyric number="1">
<syllabic>single</syllabic>
<text>nous</text>
</lyric>
<lyric number="2">
<syllabic>single</syllabic>
<text></text>
</lyric>
</note>
<note>
<pitch>
<step>B</step>
<octave>3</octave>
</pitch>
<duration>4</duration>
<tie type="start"/>
<type>eighth</type>
<stem>up</stem>
<beam number="1">continue</beam>
<notations>
<tied type="start"/>
</notations>
<lyric number="1">
<syllabic>begin</syllabic>
<text>con</text>
</lyric>
<lyric number="2">
<syllabic>single</syllabic>
<text></text>
</lyric>
</note>
<note>
<pitch>
<step>B</step>
<octave>3</octave>
</pitch>
<duration>4</duration>
<tie type="stop"/>
<type>eighth</type>
<stem>up</stem>
<beam number="1">begin</beam>
<notations>
<tied type="stop"/>
</notations>
</note>
<note>
<pitch>
<step>C</step>
<alter>1</alter>
<octave>4</octave>
</pitch>
<duration>4</duration>
<tie type="start"/>
<type>eighth</type>
<stem>up</stem>
<beam number="1">continue</beam>
<notations>
<tied type="start"/>
</notations>
<lyric number="1">
<syllabic>middle</syllabic>
<text>dui</text>
</lyric>
<lyric number="2">
<syllabic>single</syllabic>
<text></text>
</lyric>
</note>
<note>
<pitch>
<step>C</step>
<alter>1</alter>
<octave>4</octave>
</pitch>
<duration>4</duration>
<tie type="stop"/>
<type>eighth</type>
<stem>up</stem>
<beam number="1">begin</beam>
<notations>
<tied type="stop"/>
</notations>
</note>
<note>
<pitch>
<step>B</step>
<octave>3</octave>
</pitch>
<duration>4</duration>
<tie type="start"/>
<type>eighth</type>
<stem>up</stem>
<beam number="1">continue</beam>
<notations>
<tied type="start"/>
</notations>
<lyric number="1">
<syllabic>end</syllabic>
<text>ra.</text>
</lyric>
<lyric number="2">
<syllabic>single</syllabic>
<text></text>
</lyric>
</note>
</measure>
<measure number="9">
<note>
<pitch>
<step>B</step>
<octave>3</octave>
</pitch>
<duration>24</duration>
<tie type="stop"/>
<type>half</type>
<dot/>
<notations>
<tied type="stop"/>
</notations>
</note>
<note>
<rest/>
<duration>4</duration>
<type>eighth</type>
</note>
<note>
<pitch>
<step>E</step>
<octave>4</octave>
</pitch>
<duration>4</duration>
<type>eighth</type>
<lyric number="1">
<syllabic>single</syllabic>
<text>A</text>
</lyric>
<lyric number="2">
<syllabic>single</syllabic>
<text></text>
</lyric>
</note>
</measure>
<measure number="10">
<note>
<pitch>
<step>F</step>
<alter>1</alter>
<octave>4</octave>
</pitch>
<duration>8</duration>
<type>quarter</type>
<lyric number="1">
<syllabic>begin</syllabic>
<text>cau</text>
</lyric>
<lyric number="2">
<syllabic>single</syllabic>
<text></text>
</lyric>
</note>
<note>
<pitch>
<step>E</step>
<octave>4</octave>
</pitch>
<duration>4</duration>
<type>eighth</type>
<stem>up</stem>
<beam number="1">begin</beam>
<lyric number="1">
<syllabic>end</syllabic>
<text>se</text>
</lyric>
<lyric number="2">
<syllabic>single</syllabic>
<text></text>
</lyric>
</note>
<note>
<pitch>
<step>F</step>
<alter>1</alter>
<octave>4</octave>
</pitch>
<duration>4</duration>
<tie type="start"/>
<type>eighth</type>
<stem>up</stem>
<beam number="1">continue</beam>
<notations>
<tied type="start"/>
</notations>
<lyric number="1">
<syllabic>single</syllabic>
<text>de</text>
</lyric>
<lyric number="2">
<syllabic>single</syllabic>
<text></text>
</lyric>
</note>
<note>
<pitch>
<step>F</step>
<alter>1</alter>
<octave>4</octave>
</pitch>
<duration>4</duration>
<tie type="stop"/>
<type>eighth</type>
<stem>up</stem>
<beam number="1">begin</beam>
<notations>
<tied type="stop"/>
</notations>
</note>
<note>
<pitch>
<step>E</step>
<octave>4</octave>
</pitch>
<duration>4</duration>
<tie type="start"/>
<type>eighth</type>
<stem>up</stem>
<beam number="1">continue</beam>
<notations>
<tied type="start"/>
</notations>
<lyric number="1">
<syllabic>single</syllabic>
<text>son</text>
</lyric>
<lyric number="2">
<syllabic>single</syllabic>
<text></text>
</lyric>
</note>
<note>
<pitch>
<step>E</step>
<octave>4</octave>
</pitch>
<duration>4</duration>
<tie type="stop"/>
<type>eighth</type>
<stem>up</stem>
<beam number="1">begin</beam>
<notations>
<tied type="stop"/>
</notations>
</note>
<note>
<pitch>
<step>F</step>
<alter>1</alter>
<octave>4</octave>
</pitch>
<duration>4</duration>
<tie type="start"/>
<type>eighth</type>
<stem>up</stem>
<beam number="1">continue</beam>
<notations>
<tied type="start"/>
</notations>
<lyric number="1">
<syllabic>single</syllabic>
<text>nom,</text>
</lyric>
<lyric number="2">
<syllabic>single</syllabic>
<text></text>
</lyric>
</note>
</measure>
<measure number="11">
<note>
<pitch>
<step>F</step>
<alter>1</alter>
<octave>4</octave>
</pitch>
<duration>24</duration>
<tie type="stop"/>
<type>half</type>
<dot/>
<notations>
<tied type="stop"/>
</notations>
</note>
<note>
<rest/>
<duration>8</duration>
<type>quarter</type>
</note>
</measure>
<measure number="12">
<note>
<pitch>
<step>F</step>
<alter>1</alter>
<octave>4</octave>
</pitch>
<duration>12</duration>
<type>quarter</type>
<dot/>
<lyric number="1">
<syllabic>single</syllabic>
<text>il</text>
</lyric>
<lyric number="2">
<syllabic>single</syllabic>
<text></text>
</lyric>
</note>
<note>
<pitch>
<step>F</step>
<alter>1</alter>
<octave>4</octave>
</pitch>
<duration>4</duration>
<tie type="start"/>
<type>eighth</type>
<notations>
<tied type="start"/>
</notations>
<lyric number="1">
<syllabic>begin</syllabic>
<text>a</text>
</lyric>
<lyric number="2">
<syllabic>single</syllabic>
<text></text>
</lyric>
</note>
<note>
<pitch>
<step>F</step>
<alter>1</alter>
<octave>4</octave>
</pitch>
<duration>4</duration>
<tie type="stop"/>
<type>eighth</type>
<stem>up</stem>
<beam number="1">begin</beam>
<notations>
<tied type="stop"/>
</notations>
</note>
<note>
<pitch>
<step>G</step>
<alter>1</alter>
<octave>4</octave>
</pitch>
<duration>4</duration>
<tie type="start"/>
<type>eighth</type>
<stem>up</stem>
<beam number="1">continue</beam>
<notations>
<tied type="start"/>
</notations>
<lyric number="1">
<syllabic>middle</syllabic>
<text>gi</text>
</lyric>
<lyric number="2">
<syllabic>single</syllabic>
<text></text>
</lyric>
</note>
<note>
<pitch>
<step>G</step>
<alter>1</alter>
<octave>4</octave>
</pitch>
<duration>4</duration>
<tie type="stop"/>
<type>eighth</type>
<stem>up</stem>
<beam number="1">begin</beam>
<notations>
<tied type="stop"/>
</notations>
</note>
<note>
<pitch>
<step>G</step>
<alter>1</alter>
<octave>4</octave>
</pitch>
<duration>4</duration>
<tie type="start"/>
<type>eighth</type>
<stem>up</stem>
<beam number="1">continue</beam>
<notations>
<tied type="start"/>
</notations>
<lyric number="1">
<syllabic>end</syllabic>
<text>ra.</text>
</lyric>
<lyric number="2">
<syllabic>single</syllabic>
<text></text>
</lyric>
</note>
</measure>
<measure number="13">
<note>
<pitch>
<step>G</step>
<alter>1</alter>
<octave>4</octave>
</pitch>
<duration>16</duration>
<tie type="stop"/>
<type>half</type>
<notations>
<tied type="stop"/>
</notations>
</note>
<note>
<rest/>
<duration>8</duration>
<type>quarter</type>
</note>
<note>
<pitch>
<step>E</step>
<octave>4</octave>
</pitch>
<duration>4</duration>
<type>eighth</type>
<stem>up</stem>
<beam number="1">begin</beam>
<lyric number="1">
<syllabic>begin</syllabic>
<text>L'E</text>
</lyric>
<lyric number="2">
<syllabic>single</syllabic>
<text></text>
</lyric>
</note>
<note>
<pitch>
<step>E</step>
<octave>4</octave>
</pitch>
<duration>4</duration>
<type>eighth</type>
<stem>up</stem>
<beam number="1">continue</beam>
<lyric number="1">
<syllabic>middle</syllabic>
<text>ter</text>
</lyric>
<lyric number="2">
<syllabic>single</syllabic>
<text></text>
</lyric>
</note>
</measure>
<measure number="14">
<note>
<pitch>
<step>B</step>
<octave>4</octave>
</pitch>
<duration>32</duration>
<type>whole</type>
<lyric number="1">
<syllabic>end</syllabic>
<text>nel</text>
</lyric>
<lyric number="2">
<syllabic>single</syllabic>
<text></text>
</lyric>
</note>
</measure>
<measure number="15">
<note>
<pitch>
<step>D</step>
<alter>1</alter>
<octave>4</octave>
</pitch>
<duration>24</duration>
<type>half</type>
<dot/>
<lyric number="1">
<syllabic>single</syllabic>
<text>est</text>
</lyric>
<lyric number="2">
<syllabic>single</syllabic>
<text></text>
</lyric>
</note>
<note>
<pitch>
<step>E</step>
<octave>4</octave>
</pitch>
<duration>4</duration>
<type>eighth</type>
<stem>up</stem>
<beam number="1">begin</beam>
<lyric number="1">
<syllabic>begin</syllabic>
<text>fi</text>
</lyric>
<lyric number="2">
<syllabic>single</syllabic>
<text></text>
</lyric>
</note>
<note>
<pitch>
<step>E</step>
<octave>4</octave>
</pitch>
<duration>4</duration>
<tie type="start"/>
<type>eighth</type>
<stem>up</stem>
<beam number="1">continue</beam>
<notations>
<tied type="start"/>
</notations>
<lyric number="1">
<syllabic>end</syllabic>
<text>dèle,</text>
</lyric>
<lyric number="2">
<syllabic>single</syllabic>
<text></text>
</lyric>
</note>
</measure>
<measure number="16">
<note>
<pitch>
<step>E</step>
<octave>4</octave>
</pitch>
<duration>32</duration>
<tie type="stop"/>
<type>whole</type>
<notations>
<tied type="stop"/>
</notations>
</note>
</measure>
<measure number="17">
<note>
<rest/>
<duration>16</duration>
<type>half</type>
</note>
<note>
<rest/>
<duration>8</duration>
<type>quarter</type>
</note>
<note>
<pitch>
<step>E</step>
<octave>4</octave>
</pitch>
<duration>4</duration>
<type>eighth</type>
<stem>up</stem>
<beam number="1">begin</beam>
<lyric number="1">
<syllabic>begin</syllabic>
<text>l'E</text>
</lyric>
<lyric number="2">
<syllabic>single</syllabic>
<text></text>
</lyric>
</note>
<note>
<pitch>
<step>E</step>
<octave>4</octave>
</pitch>
<duration>4</duration>
<type>eighth</type>
<stem>up</stem>
<beam number="1">continue</beam>
<lyric number="1">
<syllabic>middle</syllabic>
<text>ter</text>
</lyric>
<lyric number="2">
<syllabic>single</syllabic>
<text></text>
</lyric>
</note>
</measure>
<measure number="18">
<note>
<pitch>
<step>B</step>
<octave>4</octave>
</pitch>
<duration>32</duration>
<type>whole</type>
<lyric number="1">
<syllabic>end</syllabic>
<text>nel</text>
</lyric>
<lyric number="2">
<syllabic>single</syllabic>
<text></text>
</lyric>
</note>
</measure>
<measure number="19">
<note>
<pitch>
<step>D</step>
<alter>1</alter>
<octave>4</octave>
</pitch>
<duration>24</duration>
<type>half</type>
<dot/>
<lyric number="1">
<syllabic>single</syllabic>
<text>est</text>
</lyric>
<lyric number="2">
<syllabic>single</syllabic>
<text></text>
</lyric>
</note>
<note>
<pitch>
<step>E</step>
<octave>4</octave>
</pitch>
<duration>4</duration>
<type>eighth</type>
<stem>up</stem>
<beam number="1">begin</beam>
<lyric number="1">
<syllabic>begin</syllabic>
<text>fi</text>
</lyric>
<lyric number="2">
<syllabic>single</syllabic>
<text></text>
</lyric>
</note>
<note>
<pitch>
<step>E</step>
<octave>4</octave>
</pitch>
<duration>4</duration>
<tie type="start"/>
<type>eighth</type>
<stem>up</stem>
<beam number="1">continue</beam>
<notations>
<tied type="start"/>
</notations>
<lyric number="1">
<syllabic>end</syllabic>
<text>dèle.</text>
</lyric>
<lyric number="2">
<syllabic>single</syllabic>
<text></text>
</lyric>
</note>
</measure>
<measure number="20">
<note>
<pitch>
<step>E</step>
<octave>4</octave>
</pitch>
<duration>32</duration>
<tie type="stop"/>
<type>whole</type>
<notations>
<tied type="stop"/>
</notations>
</note>
</measure>
<measure number="21">
<note>
<rest/>
<duration>32</duration>
<type>whole</type>
</note>
<direction placement="above">
<direction-type>
<words relative-y="60">Fine</words>
</direction-type>
<sound fine=""/>
</direction>
</measure>
<measure number="22">
<barline location="left">
<bar-style>heavy-light</bar-style>
</barline>
<note>
<pitch>
<step>C</step>
<alter>1</alter>
<octave>4</octave>
</pitch>
<duration>8</duration>
<type>quarter</type>
<lyric number="1">
<syllabic>single</syllabic>
<text>1. Il</text>
</lyric>
<lyric number="2">
<syllabic>single</syllabic>
<text>2. Il</text>
</lyric>
</note>
<note>
<pitch>
<step>C</step>
<alter>1</alter>
<octave>4</octave>
</pitch>
<duration>4</duration>
<type>eighth</type>
<stem>up</stem>
<beam number="1">begin</beam>
<lyric number="1">
<syllabic>single</syllabic>
<text>nous</text>
</lyric>
<lyric number="2">
<syllabic>single</syllabic>
<text>nous</text>
</lyric>
</note>
<note>
<pitch>
<step>C</step>
<alter>1</alter>
<octave>4</octave>
</pitch>
<duration>4</duration>
<tie type="start"/>
<type>eighth</type>
<stem>up</stem>
<beam number="1">continue</beam>
<notations>
<tied type="start"/>
</notations>
<lyric number="1">
<syllabic>begin</syllabic>
<text>gar</text>
</lyric>
<lyric number="2">
<syllabic>begin</syllabic>
<text>com</text>
</lyric>
</note>
<note>
<pitch>
<step>C</step>
<alter>1</alter>
<octave>4</octave>
</pitch>
<duration>4</duration>
<tie type="stop"/>
<type>eighth</type>
<stem>up</stem>
<beam number="1">begin</beam>
<notations>
<tied type="stop"/>
</notations>
</note>
<note>
<pitch>
<step>E</step>
<octave>4</octave>
</pitch>
<duration>4</duration>
<tie type="start"/>
<type>eighth</type>
<stem>up</stem>
<beam number="1">continue</beam>
<notations>
<tied type="start"/>
</notations>
<lyric number="1">
<syllabic>middle</syllabic>
<text>de</text>
</lyric>
<lyric number="2">
<syllabic>middle</syllabic>
<text>ble</text>
</lyric>
</note>
<note>
<pitch>
<step>E</step>
<octave>4</octave>
</pitch>
<duration>4</duration>
<tie type="stop"/>
<type>eighth</type>
<stem>up</stem>
<beam number="1">begin</beam>
<notations>
<tied type="stop"/>
</notations>
</note>
<note>
<pitch>
<step>D</step>
<alter>1</alter>
<octave>4</octave>
</pitch>
<duration>4</duration>
<tie type="start"/>
<type>eighth</type>
<stem>up</stem>
<beam number="1">continue</beam>
<notations>
<tied type="start"/>
</notations>
<lyric number="1">
<syllabic>end</syllabic>
<text>ra</text>
</lyric>
<lyric number="2">
<syllabic>end</syllabic>
<text>ra</text>
</lyric>
</note>
</measure>
<measure number="23">
<note>
<pitch>
<step>D</step>
<alter>1</alter>
<octave>4</octave>
</pitch>
<duration>24</duration>
<tie type="stop"/>
<type>half</type>
<dot/>
<notations>
<tied type="stop"/>
</notations>
</note>
<note>
<rest/>
<duration>8</duration>
<type>quarter</type>
</note>
</measure>
<measure number="24">
<note>
<pitch>
<step>D</step>
<alter>1</alter>
<octave>4</octave>
</pitch>
<duration>8</duration>
<type>quarter</type>
<lyric number="1">
<syllabic>single</syllabic>
<text>dans</text>
</lyric>
<lyric number="2">
<syllabic>single</syllabic>
<text>de</text>
</lyric>
</note>
<note>
<pitch>
<step>D</step>
<alter>1</alter>
<octave>4</octave>
</pitch>
<duration>4</duration>
<type>eighth</type>
<stem>up</stem>
<beam number="1">begin</beam>
<lyric number="1">
<syllabic>single</syllabic>
<text>les</text>
</lyric>
<lyric number="2">
<syllabic>single</syllabic>
<text>tous</text>
</lyric>
</note>
<note>
<pitch>
<step>D</step>
<alter>1</alter>
<octave>4</octave>
</pitch>
<duration>4</duration>
<tie type="start"/>
<type>eighth</type>
<stem>up</stem>
<beam number="1">continue</beam>
<notations>
<tied type="start"/>
</notations>
<lyric number="1">
<syllabic>begin</syllabic>
<text>mau</text>
</lyric>
<lyric number="2">
<syllabic>single</syllabic>
<text>ses</text>
</lyric>
</note>
<note>
<pitch>
<step>D</step>
<alter>1</alter>
<octave>4</octave>
</pitch>
<duration>4</duration>
<tie type="stop"/>
<type>eighth</type>
<stem>up</stem>
<beam number="1">begin</beam>
<notations>
<tied type="stop"/>
</notations>
</note>
<note>
<pitch>
<step>F</step>
<alter>1</alter>
<octave>4</octave>
</pitch>
<duration>4</duration>
<tie type="start"/>
<type>eighth</type>
<stem>up</stem>
<beam number="1">continue</beam>
<notations>
<tied type="start"/>
</notations>
<lyric number="1">
<syllabic>end</syllabic>
<text>vais</text>
</lyric>
<lyric number="2">
<syllabic>begin</syllabic>
<text>bien</text>
</lyric>
</note>
<note>
<pitch>
<step>F</step>
<alter>1</alter>
<octave>4</octave>
</pitch>
<duration>4</duration>
<tie type="stop"/>
<type>eighth</type>
<stem>up</stem>
<beam number="1">begin</beam>
<notations>
<tied type="stop"/>
</notations>
</note>
<note>
<pitch>
<step>E</step>
<octave>4</octave>
</pitch>
<duration>4</duration>
<tie type="start"/>
<type>eighth</type>
<stem>up</stem>
<beam number="1">continue</beam>
<notations>
<tied type="start"/>
</notations>
<lyric number="1">
<syllabic>single</syllabic>
<text>jours.</text>
</lyric>
<lyric number="2">
<syllabic>end</syllabic>
<text>faits.</text>
</lyric>
</note>
</measure>
<measure number="25">
<note>
<pitch>
<step>E</step>
<octave>4</octave>
</pitch>
<duration>32</duration>
<tie type="stop"/>
<type>whole</type>
<notations>
<tied type="stop"/>
</notations>
</note>
</measure>
<measure number="26">
<note>
<pitch>
<step>C</step>
<alter>1</alter>
<octave>4</octave>
</pitch>
<duration>8</duration>
<type>quarter</type>
<lyric number="1">
<syllabic>single</syllabic>
<text>Il</text>
</lyric>
<lyric number="2">
<syllabic>single</syllabic>
<text>Il</text>
</lyric>
</note>
<note>
<pitch>
<step>C</step>
<alter>1</alter>
<octave>4</octave>
</pitch>
<duration>4</duration>
<type>eighth</type>
<stem>up</stem>
<beam number="1">begin</beam>
<lyric number="1">
<syllabic>single</syllabic>
<text>nous</text>
</lyric>
<lyric number="2">
<syllabic>single</syllabic>
<text>nous</text>
</lyric>
</note>
<note>
<pitch>
<step>C</step>
<alter>1</alter>
<octave>4</octave>
</pitch>
<duration>4</duration>
<tie type="start"/>
<type>eighth</type>
<stem>up</stem>
<beam number="1">continue</beam>
<notations>
<tied type="start"/>
</notations>
<lyric number="1">
<syllabic>begin</syllabic>
<text>sou</text>
</lyric>
<lyric number="2">
<syllabic>begin</syllabic>
<text>don</text>
</lyric>
</note>
<note>
<pitch>
<step>C</step>
<alter>1</alter>
<octave>4</octave>
</pitch>
<duration>4</duration>
<tie type="stop"/>
<type>eighth</type>
<stem>up</stem>
<beam number="1">begin</beam>
<notations>
<tied type="stop"/>
</notations>
</note>
<note>
<pitch>
<step>E</step>
<octave>4</octave>
</pitch>
<duration>4</duration>
<tie type="start"/>
<type>eighth</type>
<stem>up</stem>
<beam number="1">continue</beam>
<notations>
<tied type="start"/>
</notations>
<lyric number="1">
<syllabic>middle</syllabic>
<text>tien</text>
</lyric>
<lyric number="2">
<syllabic>middle</syllabic>
<text>ne</text>
</lyric>
</note>
<note>
<pitch>
<step>E</step>
<octave>4</octave>
</pitch>
<duration>4</duration>
<tie type="stop"/>
<type>eighth</type>
<stem>up</stem>
<beam number="1">begin</beam>
<notations>
<tied type="stop"/>
</notations>
</note>
<note>
<pitch>
<step>D</step>
<alter>1</alter>
<octave>4</octave>
</pitch>
<duration>4</duration>
<tie type="start"/>
<type>eighth</type>
<stem>up</stem>
<beam number="1">continue</beam>
<notations>
<tied type="start"/>
</notations>
<lyric number="1">
<syllabic>end</syllabic>
<text>dra</text>
</lyric>
<lyric number="2">
<syllabic>end</syllabic>
<text>ra</text>
</lyric>
</note>
</measure>
<measure number="27">
<note>
<pitch>
<step>D</step>
<alter>1</alter>
<octave>4</octave>
</pitch>
<duration>32</duration>
<tie type="stop"/>
<type>whole</type>
<notations>
<tied type="stop"/>
</notations>
</note>
</measure>
<measure number="28">
<note>
<pitch>
<step>D</step>
<alter>1</alter>
<octave>4</octave>
</pitch>
<duration>8</duration>
<type>quarter</type>
<lyric number="1">
<syllabic>begin</syllabic>
<text>jus</text>
</lyric>
<lyric number="2">
<syllabic>single</syllabic>
<text>sa</text>
</lyric>
</note>
<note>
<pitch>
<step>D</step>
<alter>1</alter>
<octave>4</octave>
</pitch>
<duration>4</duration>
<type>eighth</type>
<stem>up</stem>
<beam number="1">begin</beam>
<lyric number="1">
<syllabic>end</syllabic>
<text>qu'à</text>
</lyric>
<lyric number="2">
<syllabic>single</syllabic>
<text>grâce</text>
</lyric>
</note>
<note>
<pitch>
<step>D</step>
<alter>1</alter>
<octave>4</octave>
</pitch>
<duration>4</duration>
<tie type="start"/>
<type>eighth</type>
<stem>up</stem>
<beam number="1">continue</beam>
<notations>
<tied type="start"/>
</notations>
<lyric number="1">
<syllabic>single</syllabic>
<text>son</text>
</lyric>
<lyric number="2">
<syllabic>single</syllabic>
<text>et</text>
</lyric>
</note>
<note>
<pitch>
<step>D</step>
<alter>1</alter>
<octave>4</octave>
</pitch>
<duration>4</duration>
<tie type="stop"/>
<type>eighth</type>
<stem>up</stem>
<beam number="1">begin</beam>
<notations>
<tied type="stop"/>
</notations>
</note>
<note>
<pitch>
<step>F</step>
<alter>1</alter>
<octave>4</octave>
</pitch>
<duration>4</duration>
<tie type="start"/>
<type>eighth</type>
<stem>up</stem>
<beam number="1">continue</beam>
<notations>
<tied type="start"/>
</notations>
<lyric number="1">
<syllabic>begin</syllabic>
<text>re</text>
</lyric>
<lyric number="2">
<syllabic>single</syllabic>
<text>sa</text>
</lyric>
</note>
<note>
<pitch>
<step>F</step>
<alter>1</alter>
<octave>4</octave>
</pitch>
<duration>4</duration>
<tie type="stop"/>
<type>eighth</type>
<stem>up</stem>
<beam number="1">begin</beam>
<notations>
<tied type="stop"/>
</notations>
</note>
<note>
<pitch>
<step>E</step>
<octave>4</octave>
</pitch>
<duration>4</duration>
<tie type="start"/>
<type>eighth</type>
<stem>up</stem>
<beam number="1">continue</beam>
<notations>
<tied type="start"/>
</notations>
<lyric number="1">
<syllabic>end</syllabic>
<text>tour.</text>
</lyric>
<lyric number="2">
<syllabic>single</syllabic>
<text>paix.</text>
</lyric>
</note>
</measure>
<measure number="29">
<note>
<pitch>
<step>E</step>
<octave>4</octave>
</pitch>
<duration>32</duration>
<tie type="stop"/>
<type>whole</type>
<notations>
<tied type="stop"/>
</notations>
</note>
</measure>
<measure number="30">
<note>
<pitch>
<step>A</step>
<octave>4</octave>
</pitch>
<duration>8</duration>
<type>quarter</type>
<lyric number="1">
<syllabic>single</syllabic>
<text>Rien</text>
</lyric>
<lyric number="2">
<syllabic>single</syllabic>
<text>Il</text>
</lyric>
</note>
<note>
<pitch>
<step>G</step>
<alter>1</alter>
<octave>4</octave>
</pitch>
<duration>4</duration>
<type>eighth</type>
<stem>up</stem>
<beam number="1">begin</beam>
<lyric number="1">
<syllabic>single</syllabic>
<text>ne</text>
</lyric>
<lyric number="2">
<syllabic>single</syllabic>
<text>nous</text>
</lyric>
</note>
<note>
<pitch>
<step>G</step>
<alter>1</alter>
<octave>4</octave>
</pitch>
<duration>4</duration>
<tie type="start"/>
<type>eighth</type>
<stem>up</stem>
<beam number="1">continue</beam>
<notations>
<tied type="start"/>
</notations>
<lyric number="1">
<syllabic>begin</syllabic>
<text>dé</text>
</lyric>
<lyric number="2">
<syllabic>begin</syllabic>
<text>con</text>
</lyric>
</note>
<note>
<pitch>
<step>G</step>
<alter>1</alter>
<octave>4</octave>
</pitch>
<duration>4</duration>
<tie type="stop"/>
<type>eighth</type>
<stem>up</stem>
<beam number="1">begin</beam>
<notations>
<tied type="stop"/>
</notations>
</note>
<note>
<pitch>
<step>F</step>
<alter>1</alter>
<octave>4</octave>
</pitch>
<duration>4</duration>
<tie type="start"/>
<type>eighth</type>
<stem>up</stem>
<beam number="1">continue</beam>
<notations>
<tied type="start"/>
</notations>
<lyric number="1">
<syllabic>middle</syllabic>
<text>trui</text>
</lyric>
<lyric number="2">
<syllabic>middle</syllabic>
<text>dui</text>
</lyric>
</note>
<note>
<pitch>
<step>F</step>
<alter>1</alter>
<octave>4</octave>
</pitch>
<duration>4</duration>
<tie type="stop"/>
<type>eighth</type>
<stem>up</stem>
<beam number="1">begin</beam>
<notations>
<tied type="stop"/>
</notations>
</note>
<note>
<pitch>
<step>F</step>
<alter>1</alter>
<octave>4</octave>
</pitch>
<duration>4</duration>
<tie type="start"/>
<type>eighth</type>
<stem>up</stem>
<beam number="1">continue</beam>
<notations>
<tied type="start"/>
</notations>
<lyric number="1">
<syllabic>end</syllabic>
<text>ra</text>
</lyric>
<lyric number="2">
<syllabic>end</syllabic>
<text>ra ;</text>
</lyric>
</note>
</measure>
<measure number="31">
<note>
<pitch>
<step>F</step>
<alter>1</alter>
<octave>4</octave>
</pitch>
<duration>24</duration>
<tie type="stop"/>
<type>half</type>
<dot/>
<notations>
<tied type="stop"/>
</notations>
</note>
<note>
<rest/>
<duration>8</duration>
<type>quarter</type>
</note>
</measure>
<measure number="32">
<note>
<pitch>
<step>B</step>
<octave>4</octave>
</pitch>
<duration>8</duration>
<type>quarter</type>
<lyric number="1">
<syllabic>single</syllabic>
<text>son</text>
</lyric>
<lyric number="2">
<syllabic>single</syllabic>
<text>c'est</text>
</lyric>
</note>
<note>
<pitch>
<step>B</step>
<octave>4</octave>
</pitch>
<duration>4</duration>
<type>eighth</type>
<stem>down</stem>
<beam number="1">begin</beam>
<lyric number="1">
<syllabic>begin</syllabic>
<text>im</text>
</lyric>
<lyric number="2">
<syllabic>single</syllabic>
<text>le</text>
</lyric>
</note>
<note>
<pitch>
<step>B</step>
<octave>4</octave>
</pitch>
<duration>4</duration>
<tie type="start"/>
<type>eighth</type>
<stem>down</stem>
<beam number="1">continue</beam>
<notations>
<tied type="start"/>
</notations>
<lyric number="1">
<syllabic>end</syllabic>
<text>mense</text>
</lyric>
<lyric number="2">
<syllabic>single</syllabic>
<text>guide</text>
</lyric>
</note>
<note>
<pitch>
<step>B</step>
<octave>4</octave>
</pitch>
<duration>4</duration>
<tie type="stop"/>
<type>eighth</type>
<stem>up</stem>
<beam number="1">begin</beam>
<notations>
<tied type="stop"/>
</notations>
</note>
<note>
<pitch>
<step>F</step>
<alter>1</alter>
<octave>4</octave>
</pitch>
<duration>4</duration>
<tie type="start"/>
<type>eighth</type>
<stem>up</stem>
<beam number="1">continue</beam>
<notations>
<tied type="start"/>
</notations>
<lyric number="1">
<syllabic>begin</syllabic>
<text>a</text>
</lyric>
<lyric number="2">
<syllabic>begin</syllabic>
<text>par</text>
</lyric>
</note>
<note>
<pitch>
<step>F</step>
<alter>1</alter>
<octave>4</octave>
</pitch>
<duration>4</duration>
<tie type="stop"/>
<type>eighth</type>
<stem>up</stem>
<beam number="1">begin</beam>
<notations>
<tied type="stop"/>
</notations>
</note>
<note>
<pitch>
<step>B</step>
<octave>4</octave>
</pitch>
<duration>4</duration>
<tie type="start"/>
<type>eighth</type>
<stem>up</stem>
<beam number="1">continue</beam>
<notations>
<tied type="start"/>
</notations>
<lyric number="1">
<syllabic>end</syllabic>
<text>mour.</text>
</lyric>
<lyric number="2">
<syllabic>end</syllabic>
<text>fait.</text>
</lyric>
</note>
</measure>
<measure number="33">
<note>
<pitch>
<step>B</step>
<octave>4</octave>
</pitch>
<duration>24</duration>
<tie type="stop"/>
<type>half</type>
<dot/>
<notations>
<tied type="stop"/>
</notations>
</note>
<note>
<rest/>
<duration>8</duration>
<type>quarter</type>
</note>
<barline location="right">
<bar-style>light-heavy</bar-style>
<repeat direction="backward"/>
</barline>
</measure>
<measure number="34">
<direction placement="above">
<direction-type>
<words relative-y="60">D.C. al Fine</words>
</direction-type>
</direction>
<barline location="right">
<bar-style>light-heavy</bar-style>
</barline>
</measure>
</part>
</score-partwise>
