<?xml version="1.0" encoding="UTF-8" standalone='no'?>
<!DOCTYPE score-partwise PUBLIC "-//Recordare//DTD MusicXML 1.0 Partwise//EN" "http://www.musicxml.org/dtds/partwise.dtd">
<score-partwise>
<work>
<work-title>Christ a triomphé</work-title>
</work>
<identification>
<creator type="transcriber">Rolf Schneider</creator>
<rights>© 2020 Rolf Schneider</rights>
<encoding>
<software>Noteworthy Composer</software>
<encoding-date>2021-07-14</encoding-date>
</encoding>
</identification>
<part-list>
<score-part id="P1">
<part-name>Mélodie</part-name>
<score-instrument id="P1-I1">
<instrument-name>String Ensemble 1</instrument-name>
</score-instrument>
<midi-instrument id="P1-I1">
<midi-channel>1</midi-channel>
<midi-program>50</midi-program>
</midi-instrument>
</score-part>
</part-list>
<part id="P1">
<measure number="1">
<attributes>
<divisions>16</divisions>
</attributes>
<attributes>
<clef>
<sign>G</sign>
<line>2</line>
</clef>
</attributes>
<attributes>
<time>
<beats>4</beats>
<beat-type>4</beat-type>
</time>
</attributes>
<direction>
<direction-type>
<metronome parentheses="no">
<beat-unit>quarter</beat-unit>
<per-minute>100</per-minute>
</metronome>
</direction-type>
<sound tempo="100"/>
</direction>
<note>
<pitch>
<step>C</step>
<octave>4</octave>
</pitch>
<duration>8</duration>
<type>eighth</type>
<lyric number="1">
<syllabic>single</syllabic>
<text>1. Des</text>
</lyric>
<lyric number="2">
<syllabic>begin</syllabic>
<text>2. A</text>
</lyric>
<lyric number="3">
<syllabic>begin</syllabic>
<text>3. A</text>
</lyric>
</note>
<note>
<pitch>
<step>D</step>
<octave>4</octave>
</pitch>
<duration>8</duration>
<type>eighth</type>
<lyric number="1">
<syllabic>begin</syllabic>
<text>té</text>
</lyric>
<lyric number="2">
<syllabic>end</syllabic>
<text>près</text>
</lyric>
<lyric number="3">
<syllabic>end</syllabic>
<text>vec</text>
</lyric>
</note>
</measure>
<measure number="2">
<note>
<pitch>
<step>E</step>
<octave>4</octave>
</pitch>
<duration>16</duration>
<type>quarter</type>
<lyric number="1">
<syllabic>end</syllabic>
<text>nèbres</text>
</lyric>
<lyric number="2">
<syllabic>single</syllabic>
<text>la</text>
</lyric>
<lyric number="3">
<syllabic>single</syllabic>
<text>lui,</text>
</lyric>
</note>
<note>
<pitch>
<step>E</step>
<octave>4</octave>
</pitch>
<duration>12</duration>
<type>eighth</type>
<dot/>
<lyric number="1">
<syllabic>single</syllabic>
<text>il</text>
</lyric>
<lyric number="2">
<syllabic>single</syllabic>
<text>peur</text>
</lyric>
<lyric number="3">
<syllabic>begin</syllabic>
<text>res</text>
</lyric>
</note>
<note>
<pitch>
<step>D</step>
<octave>4</octave>
</pitch>
<duration>4</duration>
<type>16th</type>
<lyric number="1">
<syllabic>single</syllabic>
<text>s'est</text>
</lyric>
<lyric number="2">
<syllabic>single</syllabic>
<text>vient</text>
</lyric>
<lyric number="3">
<syllabic>middle</syllabic>
<text>sus</text>
</lyric>
</note>
<note>
<pitch>
<step>E</step>
<octave>4</octave>
</pitch>
<duration>8</duration>
<type>eighth</type>
<lyric number="1">
<syllabic>begin</syllabic>
<text>le</text>
</lyric>
<lyric number="2">
<syllabic>single</syllabic>
<text>la</text>
</lyric>
<lyric number="3">
<syllabic>middle</syllabic>
<text>ci</text>
</lyric>
</note>
<note>
<pitch>
<step>F</step>
<octave>4</octave>
</pitch>
<duration>8</duration>
<tie type="start"/>
<type>eighth</type>
<notations>
<tied type="start"/>
</notations>
<lyric number="1">
<syllabic>end</syllabic>
<text>vé,</text>
</lyric>
<lyric number="2">
<syllabic>single</syllabic>
<text>foi,</text>
</lyric>
<lyric number="3">
<syllabic>end</syllabic>
<text>té,</text>
</lyric>
</note>
<note>
<pitch>
<step>F</step>
<octave>4</octave>
</pitch>
<duration>16</duration>
<tie type="stop"/>
<type>quarter</type>
<notations>
<tied type="stop"/>
</notations>
</note>
</measure>
<measure number="3">
<note>
<pitch>
<step>D</step>
<octave>4</octave>
</pitch>
<duration>16</duration>
<type>quarter</type>
<lyric number="1">
<syllabic>single</syllabic>
<text>La</text>
</lyric>
<lyric number="2">
<syllabic>single</syllabic>
<text>Les</text>
</lyric>
<lyric number="3">
<syllabic>single</syllabic>
<text>Je</text>
</lyric>
</note>
<note>
<pitch>
<step>D</step>
<octave>4</octave>
</pitch>
<duration>12</duration>
<type>eighth</type>
<dot/>
<lyric number="1">
<syllabic>single</syllabic>
<text>pierre</text>
</lyric>
<lyric number="2">
<syllabic>begin</syllabic>
<text>lar</text>
</lyric>
<lyric number="3">
<syllabic>single</syllabic>
<text>veux</text>
</lyric>
</note>
<note>
<pitch>
<step>C</step>
<octave>4</octave>
</pitch>
<duration>4</duration>
<type>16th</type>
<lyric number="1">
<syllabic>single</syllabic>
<text>est</text>
</lyric>
<lyric number="2">
<syllabic>end</syllabic>
<text>mes</text>
</lyric>
<lyric number="3">
<syllabic>begin</syllabic>
<text>an</text>
</lyric>
</note>
<note>
<pitch>
<step>D</step>
<octave>4</octave>
</pitch>
<duration>8</duration>
<type>eighth</type>
<lyric number="1">
<syllabic>begin</syllabic>
<text>rou</text>
</lyric>
<lyric number="2">
<syllabic>single</syllabic>
<text>de</text>
</lyric>
<lyric number="3">
<syllabic>middle</syllabic>
<text>non</text>
</lyric>
</note>
<note>
<pitch>
<step>E</step>
<octave>4</octave>
</pitch>
<duration>8</duration>
<tie type="start"/>
<type>eighth</type>
<notations>
<tied type="start"/>
</notations>
<lyric number="1">
<syllabic>end</syllabic>
<text>lée ;</text>
</lyric>
<lyric number="2">
<syllabic>single</syllabic>
<text>joie ;</text>
</lyric>
<lyric number="3">
<syllabic>end</syllabic>
<text>cer :</text>
</lyric>
</note>
<note>
<pitch>
<step>E</step>
<octave>4</octave>
</pitch>
<duration>16</duration>
<tie type="stop"/>
<type>quarter</type>
<notations>
<tied type="stop"/>
</notations>
</note>
</measure>
<measure number="4">
<note>
<pitch>
<step>C</step>
<octave>4</octave>
</pitch>
<duration>24</duration>
<type>quarter</type>
<dot/>
<lyric number="1">
<syllabic>single</syllabic>
<text>Christ</text>
</lyric>
<lyric number="2">
<syllabic>single</syllabic>
<text>Christ</text>
</lyric>
<lyric number="3">
<syllabic>single</syllabic>
<text>Christ</text>
</lyric>
</note>
<note>
<pitch>
<step>E</step>
<octave>4</octave>
</pitch>
<duration>8</duration>
<type>eighth</type>
<lyric number="1">
<syllabic>single</syllabic>
<text>a</text>
</lyric>
<lyric number="2">
<syllabic>single</syllabic>
<text>a</text>
</lyric>
<lyric number="3">
<syllabic>single</syllabic>
<text>a</text>
</lyric>
</note>
<note>
<pitch>
<step>D</step>
<octave>4</octave>
</pitch>
<duration>24</duration>
<type>quarter</type>
<dot/>
<lyric number="1">
<syllabic>begin</syllabic>
<text>tri</text>
</lyric>
<lyric number="2">
<syllabic>begin</syllabic>
<text>tri</text>
</lyric>
<lyric number="3">
<syllabic>begin</syllabic>
<text>tri</text>
</lyric>
</note>
<note>
<pitch>
<step>E</step>
<octave>4</octave>
</pitch>
<duration>8</duration>
<type>eighth</type>
<lyric number="1">
<syllabic>middle</syllabic>
<text>om</text>
</lyric>
<lyric number="2">
<syllabic>middle</syllabic>
<text>om</text>
</lyric>
<lyric number="3">
<syllabic>middle</syllabic>
<text>om</text>
</lyric>
</note>
</measure>
<measure number="5">
<note>
<pitch>
<step>E</step>
<octave>4</octave>
</pitch>
<duration>48</duration>
<type>half</type>
<dot/>
<lyric number="1">
<syllabic>end</syllabic>
<text>phé.</text>
</lyric>
<lyric number="2">
<syllabic>end</syllabic>
<text>phé.</text>
</lyric>
<lyric number="3">
<syllabic>end</syllabic>
<text>phé.</text>
</lyric>
</note>
<note>
<pitch>
<step>C</step>
<octave>4</octave>
</pitch>
<duration>8</duration>
<type>eighth</type>
<lyric number="1">
<syllabic>single</syllabic>
<text>Il</text>
</lyric>
<lyric number="2">
<syllabic>single</syllabic>
<text>Le</text>
</lyric>
<lyric number="3">
<syllabic>single</syllabic>
<text>Sa</text>
</lyric>
</note>
<note>
<pitch>
<step>D</step>
<octave>4</octave>
</pitch>
<duration>8</duration>
<type>eighth</type>
<lyric number="1">
<syllabic>begin</syllabic>
<text>sur</text>
</lyric>
<lyric number="2">
<syllabic>begin</syllabic>
<text>Roy</text>
</lyric>
<lyric number="3">
<syllabic>begin</syllabic>
<text>pa</text>
</lyric>
</note>
</measure>
<measure number="6">
<note>
<pitch>
<step>E</step>
<octave>4</octave>
</pitch>
<duration>16</duration>
<type>quarter</type>
<lyric number="1">
<syllabic>end</syllabic>
<text>git</text>
</lyric>
<lyric number="2">
<syllabic>end</syllabic>
<text>aume</text>
</lyric>
<lyric number="3">
<syllabic>middle</syllabic>
<text>ro</text>
</lyric>
</note>
<note>
<pitch>
<step>E</step>
<octave>4</octave>
</pitch>
<duration>12</duration>
<type>eighth</type>
<dot/>
<lyric number="1">
<syllabic>single</syllabic>
<text>dans</text>
</lyric>
<lyric number="2">
<syllabic>single</syllabic>
<text>s'est</text>
</lyric>
<lyric number="3">
<syllabic>end</syllabic>
<text>le</text>
</lyric>
</note>
<note>
<pitch>
<step>D</step>
<octave>4</octave>
</pitch>
<duration>4</duration>
<type>16th</type>
<lyric number="1">
<syllabic>single</syllabic>
<text>la</text>
</lyric>
<lyric number="2">
<syllabic>begin</syllabic>
<text>ap</text>
</lyric>
<lyric number="3">
<syllabic>single</syllabic>
<text>se</text>
</lyric>
</note>
<note>
<pitch>
<step>E</step>
<octave>4</octave>
</pitch>
<duration>8</duration>
<type>eighth</type>
<lyric number="1">
<syllabic>begin</syllabic>
<text>lu</text>
</lyric>
<lyric number="2">
<syllabic>middle</syllabic>
<text>pro</text>
</lyric>
<lyric number="3">
<syllabic>begin</syllabic>
<text>ré</text>
</lyric>
</note>
<note>
<pitch>
<step>F</step>
<octave>4</octave>
</pitch>
<duration>8</duration>
<tie type="start"/>
<type>eighth</type>
<notations>
<tied type="start"/>
</notations>
<lyric number="1">
<syllabic>end</syllabic>
<text>mière,</text>
</lyric>
<lyric number="2">
<syllabic>end</syllabic>
<text>ché,</text>
</lyric>
<lyric number="3">
<syllabic>end</syllabic>
<text>pand</text>
</lyric>
</note>
<note>
<pitch>
<step>F</step>
<octave>4</octave>
</pitch>
<duration>16</duration>
<tie type="stop"/>
<type>quarter</type>
<notations>
<tied type="stop"/>
</notations>
</note>
</measure>
<measure number="7">
<note>
<pitch>
<step>D</step>
<octave>4</octave>
</pitch>
<duration>16</duration>
<type>quarter</type>
<lyric number="1">
<syllabic>begin</syllabic>
<text>Vain</text>
</lyric>
<lyric number="2">
<syllabic>begin</syllabic>
<text>L'a</text>
</lyric>
<lyric number="3">
<syllabic>begin</syllabic>
<text>Par</text>
</lyric>
</note>
<note>
<pitch>
<step>D</step>
<octave>4</octave>
</pitch>
<duration>12</duration>
<type>eighth</type>
<dot/>
<lyric number="1">
<syllabic>end</syllabic>
<text>queur</text>
</lyric>
<lyric number="2">
<syllabic>end</syllabic>
<text>mour</text>
</lyric>
<lyric number="3">
<syllabic>end</syllabic>
<text>mi</text>
</lyric>
</note>
<note>
<pitch>
<step>C</step>
<octave>4</octave>
</pitch>
<duration>4</duration>
<type>16th</type>
<lyric number="1">
<syllabic>single</syllabic>
<text>de</text>
</lyric>
<lyric number="2">
<syllabic>single</syllabic>
<text>a</text>
</lyric>
<lyric number="3">
<syllabic>single</syllabic>
<text>les</text>
</lyric>
</note>
<note>
<pitch>
<step>D</step>
<octave>4</octave>
</pitch>
<duration>8</duration>
<type>eighth</type>
<lyric number="1">
<syllabic>begin</syllabic>
<text>l'en</text>
</lyric>
<lyric number="2">
<syllabic>begin</syllabic>
<text>ga</text>
</lyric>
<lyric number="3">
<syllabic>begin</syllabic>
<text>na</text>
</lyric>
</note>
<note>
<pitch>
<step>E</step>
<octave>4</octave>
</pitch>
<duration>8</duration>
<tie type="start"/>
<type>eighth</type>
<notations>
<tied type="start"/>
</notations>
<lyric number="1">
<syllabic>end</syllabic>
<text>fer ;</text>
</lyric>
<lyric number="2">
<syllabic>end</syllabic>
<text>gné ;</text>
</lyric>
<lyric number="3">
<syllabic>end</syllabic>
<text>tions ;</text>
</lyric>
</note>
<note>
<pitch>
<step>E</step>
<octave>4</octave>
</pitch>
<duration>16</duration>
<tie type="stop"/>
<type>quarter</type>
<notations>
<tied type="stop"/>
</notations>
</note>
</measure>
<measure number="8">
<note>
<pitch>
<step>C</step>
<octave>4</octave>
</pitch>
<duration>24</duration>
<type>quarter</type>
<dot/>
<lyric number="1">
<syllabic>single</syllabic>
<text>Christ</text>
</lyric>
<lyric number="2">
<syllabic>single</syllabic>
<text>Christ</text>
</lyric>
<lyric number="3">
<syllabic>single</syllabic>
<text>Christ</text>
</lyric>
</note>
<note>
<pitch>
<step>E</step>
<octave>4</octave>
</pitch>
<duration>8</duration>
<type>eighth</type>
<lyric number="1">
<syllabic>single</syllabic>
<text>a</text>
</lyric>
<lyric number="2">
<syllabic>single</syllabic>
<text>a</text>
</lyric>
<lyric number="3">
<syllabic>single</syllabic>
<text>a</text>
</lyric>
</note>
<note>
<pitch>
<step>D</step>
<octave>4</octave>
</pitch>
<duration>24</duration>
<type>quarter</type>
<dot/>
<lyric number="1">
<syllabic>begin</syllabic>
<text>tri</text>
</lyric>
<lyric number="2">
<syllabic>begin</syllabic>
<text>tri</text>
</lyric>
<lyric number="3">
<syllabic>begin</syllabic>
<text>tri</text>
</lyric>
</note>
<note>
<pitch>
<step>E</step>
<octave>4</octave>
</pitch>
<duration>8</duration>
<type>eighth</type>
<lyric number="1">
<syllabic>middle</syllabic>
<text>om</text>
</lyric>
<lyric number="2">
<syllabic>middle</syllabic>
<text>om</text>
</lyric>
<lyric number="3">
<syllabic>middle</syllabic>
<text>om</text>
</lyric>
</note>
</measure>
<measure number="9">
<note>
<pitch>
<step>C</step>
<octave>4</octave>
</pitch>
<duration>48</duration>
<type>half</type>
<dot/>
<lyric number="1">
<syllabic>end</syllabic>
<text>phé.</text>
</lyric>
<lyric number="2">
<syllabic>end</syllabic>
<text>phé.</text>
</lyric>
<lyric number="3">
<syllabic>end</syllabic>
<text>phé.</text>
</lyric>
</note>
<note>
<pitch>
<step>E</step>
<octave>4</octave>
</pitch>
<duration>8</duration>
<type>eighth</type>
<lyric number="1">
<syllabic>single</syllabic>
<text>Oh !</text>
</lyric>
<lyric number="2">
<syllabic>single</syllabic>
<text></text>
</lyric>
</note>
<note>
<pitch>
<step>G</step>
<octave>4</octave>
</pitch>
<duration>8</duration>
<type>eighth</type>
<lyric number="1">
<syllabic>single</syllabic>
<text>mort,</text>
</lyric>
<lyric number="2">
<syllabic>single</syllabic>
<text></text>
</lyric>
</note>
</measure>
<measure number="10">
<note>
<pitch>
<step>A</step>
<octave>4</octave>
</pitch>
<duration>16</duration>
<type>quarter</type>
<lyric number="1">
<syllabic>single</syllabic>
<text>où</text>
</lyric>
<lyric number="2">
<syllabic>single</syllabic>
<text></text>
</lyric>
</note>
<note>
<pitch>
<step>A</step>
<octave>4</octave>
</pitch>
<duration>12</duration>
<type>eighth</type>
<dot/>
<lyric number="1">
<syllabic>single</syllabic>
<text>est</text>
</lyric>
<lyric number="2">
<syllabic>single</syllabic>
<text></text>
</lyric>
</note>
<note>
<pitch>
<step>G</step>
<octave>4</octave>
</pitch>
<duration>4</duration>
<type>16th</type>
<lyric number="1">
<syllabic>single</syllabic>
<text>ta</text>
</lyric>
<lyric number="2">
<syllabic>single</syllabic>
<text></text>
</lyric>
</note>
<note>
<pitch>
<step>A</step>
<octave>4</octave>
</pitch>
<duration>8</duration>
<type>eighth</type>
<lyric number="1">
<syllabic>begin</syllabic>
<text>vic</text>
</lyric>
<lyric number="2">
<syllabic>single</syllabic>
<text></text>
</lyric>
</note>
<note>
<pitch>
<step>C</step>
<octave>5</octave>
</pitch>
<duration>8</duration>
<tie type="start"/>
<type>eighth</type>
<notations>
<tied type="start"/>
</notations>
<lyric number="1">
<syllabic>end</syllabic>
<text>toire,</text>
</lyric>
<lyric number="2">
<syllabic>single</syllabic>
<text></text>
</lyric>
</note>
<note>
<pitch>
<step>C</step>
<octave>5</octave>
</pitch>
<duration>16</duration>
<tie type="stop"/>
<type>quarter</type>
<notations>
<tied type="stop"/>
</notations>
</note>
</measure>
<measure number="11">
<note>
<pitch>
<step>E</step>
<octave>4</octave>
</pitch>
<duration>16</duration>
<type>quarter</type>
<stem>up</stem>
<lyric number="1">
<syllabic>single</syllabic>
<text>Où</text>
</lyric>
<lyric number="2">
<syllabic>single</syllabic>
<text></text>
</lyric>
</note>
<note>
<chord/>
<pitch>
<step>G</step>
<octave>4</octave>
</pitch>
<duration>16</duration>
<type>quarter</type>
<stem>up</stem>
</note>
<note>
<pitch>
<step>E</step>
<octave>4</octave>
</pitch>
<duration>12</duration>
<type>eighth</type>
<dot/>
<stem>up</stem>
<lyric number="1">
<syllabic>single</syllabic>
<text>est</text>
</lyric>
<lyric number="2">
<syllabic>single</syllabic>
<text></text>
</lyric>
</note>
<note>
<chord/>
<pitch>
<step>G</step>
<octave>4</octave>
</pitch>
<duration>12</duration>
<type>eighth</type>
<dot/>
<stem>up</stem>
</note>
<note>
<pitch>
<step>D</step>
<octave>4</octave>
</pitch>
<duration>4</duration>
<type>16th</type>
<stem>up</stem>
<lyric number="1">
<syllabic>single</syllabic>
<text>ton</text>
</lyric>
<lyric number="2">
<syllabic>single</syllabic>
<text></text>
</lyric>
</note>
<note>
<chord/>
<pitch>
<step>F</step>
<octave>4</octave>
</pitch>
<duration>4</duration>
<type>16th</type>
<stem>up</stem>
</note>
<note>
<pitch>
<step>E</step>
<octave>4</octave>
</pitch>
<duration>8</duration>
<type>eighth</type>
<lyric number="1">
<syllabic>begin</syllabic>
<text>pou</text>
</lyric>
<lyric number="2">
<syllabic>single</syllabic>
<text></text>
</lyric>
</note>
<note>
<pitch>
<step>G</step>
<octave>4</octave>
</pitch>
<duration>8</duration>
<tie type="start"/>
<type>eighth</type>
<notations>
<tied type="start"/>
</notations>
<lyric number="1">
<syllabic>end</syllabic>
<text>voir ?</text>
</lyric>
<lyric number="2">
<syllabic>single</syllabic>
<text></text>
</lyric>
</note>
<note>
<pitch>
<step>G</step>
<octave>4</octave>
</pitch>
<duration>16</duration>
<tie type="stop"/>
<type>quarter</type>
<notations>
<tied type="stop"/>
</notations>
</note>
</measure>
<measure number="12">
<note>
<pitch>
<step>C</step>
<octave>5</octave>
</pitch>
<duration>16</duration>
<type>quarter</type>
<lyric number="1">
<syllabic>single</syllabic>
<text>Le</text>
</lyric>
<lyric number="2">
<syllabic>single</syllabic>
<text></text>
</lyric>
</note>
<note>
<pitch>
<step>B</step>
<octave>4</octave>
</pitch>
<duration>16</duration>
<type>quarter</type>
<lyric number="1">
<syllabic>begin</syllabic>
<text>tom</text>
</lyric>
<lyric number="2">
<syllabic>single</syllabic>
<text></text>
</lyric>
</note>
<note>
<pitch>
<step>C</step>
<octave>5</octave>
</pitch>
<duration>16</duration>
<type>quarter</type>
<lyric number="1">
<syllabic>end</syllabic>
<text>beau</text>
</lyric>
<lyric number="2">
<syllabic>single</syllabic>
<text></text>
</lyric>
</note>
<note>
<pitch>
<step>E</step>
<octave>5</octave>
</pitch>
<duration>16</duration>
<type>quarter</type>
<lyric number="1">
<syllabic>single</syllabic>
<text>est</text>
</lyric>
<lyric number="2">
<syllabic>single</syllabic>
<text></text>
</lyric>
</note>
</measure>
<measure number="13">
<note>
<pitch>
<step>E</step>
<octave>5</octave>
</pitch>
<duration>48</duration>
<type>half</type>
<dot/>
<lyric number="1">
<syllabic>single</syllabic>
<text>vide,</text>
</lyric>
<lyric number="2">
<syllabic>single</syllabic>
<text></text>
</lyric>
</note>
<note>
<pitch>
<step>C</step>
<octave>4</octave>
</pitch>
<duration>8</duration>
<type>eighth</type>
<lyric number="1">
<syllabic>single</syllabic>
<text>Dieu</text>
</lyric>
<lyric number="2">
<syllabic>single</syllabic>
<text></text>
</lyric>
</note>
<note>
<pitch>
<step>D</step>
<octave>4</octave>
</pitch>
<duration>8</duration>
<type>eighth</type>
<lyric number="1">
<syllabic>single</syllabic>
<text>le</text>
</lyric>
<lyric number="2">
<syllabic>single</syllabic>
<text></text>
</lyric>
</note>
</measure>
<measure number="14">
<note>
<pitch>
<step>E</step>
<octave>4</octave>
</pitch>
<duration>16</duration>
<type>quarter</type>
<lyric number="1">
<syllabic>single</syllabic>
<text>Père</text>
</lyric>
<lyric number="2">
<syllabic>single</syllabic>
<text></text>
</lyric>
</note>
<note>
<pitch>
<step>E</step>
<octave>4</octave>
</pitch>
<duration>12</duration>
<type>eighth</type>
<dot/>
<lyric number="1">
<syllabic>single</syllabic>
<text>lui</text>
</lyric>
<lyric number="2">
<syllabic>single</syllabic>
<text></text>
</lyric>
</note>
<note>
<pitch>
<step>D</step>
<octave>4</octave>
</pitch>
<duration>4</duration>
<type>16th</type>
<lyric number="1">
<syllabic>single</syllabic>
<text>a</text>
</lyric>
<lyric number="2">
<syllabic>single</syllabic>
<text></text>
</lyric>
</note>
<note>
<pitch>
<step>E</step>
<octave>4</octave>
</pitch>
<duration>8</duration>
<type>eighth</type>
<lyric number="1">
<syllabic>begin</syllabic>
<text>con</text>
</lyric>
<lyric number="2">
<syllabic>single</syllabic>
<text></text>
</lyric>
</note>
<note>
<pitch>
<step>F</step>
<octave>4</octave>
</pitch>
<duration>8</duration>
<tie type="start"/>
<type>eighth</type>
<notations>
<tied type="start"/>
</notations>
<lyric number="1">
<syllabic>end</syllabic>
<text>fié</text>
</lyric>
<lyric number="2">
<syllabic>single</syllabic>
<text></text>
</lyric>
</note>
<note>
<pitch>
<step>F</step>
<octave>4</octave>
</pitch>
<duration>16</duration>
<tie type="stop"/>
<type>quarter</type>
<notations>
<tied type="stop"/>
</notations>
</note>
</measure>
<measure number="15">
<note>
<pitch>
<step>D</step>
<octave>4</octave>
</pitch>
<duration>16</duration>
<type>quarter</type>
<lyric number="1">
<syllabic>single</syllabic>
<text>Toute</text>
</lyric>
<lyric number="2">
<syllabic>single</syllabic>
<text></text>
</lyric>
</note>
<note>
<pitch>
<step>D</step>
<octave>4</octave>
</pitch>
<duration>12</duration>
<type>eighth</type>
<dot/>
<lyric number="1">
<syllabic>begin</syllabic>
<text>au</text>
</lyric>
<lyric number="2">
<syllabic>single</syllabic>
<text></text>
</lyric>
</note>
<note>
<pitch>
<step>C</step>
<octave>4</octave>
</pitch>
<duration>4</duration>
<type>16th</type>
<lyric number="1">
<syllabic>middle</syllabic>
<text>to</text>
</lyric>
<lyric number="2">
<syllabic>single</syllabic>
<text></text>
</lyric>
</note>
<note>
<pitch>
<step>D</step>
<octave>4</octave>
</pitch>
<duration>8</duration>
<type>eighth</type>
<lyric number="1">
<syllabic>middle</syllabic>
<text>ri</text>
</lyric>
<lyric number="2">
<syllabic>single</syllabic>
<text></text>
</lyric>
</note>
<note>
<pitch>
<step>E</step>
<octave>4</octave>
</pitch>
<duration>8</duration>
<tie type="start"/>
<type>eighth</type>
<notations>
<tied type="start"/>
</notations>
<lyric number="1">
<syllabic>end</syllabic>
<text>té ;</text>
</lyric>
<lyric number="2">
<syllabic>single</syllabic>
<text></text>
</lyric>
</note>
<note>
<pitch>
<step>E</step>
<octave>4</octave>
</pitch>
<duration>16</duration>
<tie type="stop"/>
<type>quarter</type>
<notations>
<tied type="stop"/>
</notations>
</note>
</measure>
<measure number="16">
<note>
<pitch>
<step>C</step>
<octave>4</octave>
</pitch>
<duration>24</duration>
<type>quarter</type>
<dot/>
<lyric number="1">
<syllabic>single</syllabic>
<text>Christ</text>
</lyric>
<lyric number="2">
<syllabic>single</syllabic>
<text></text>
</lyric>
</note>
<note>
<pitch>
<step>E</step>
<octave>4</octave>
</pitch>
<duration>8</duration>
<type>eighth</type>
<lyric number="1">
<syllabic>single</syllabic>
<text>a</text>
</lyric>
<lyric number="2">
<syllabic>single</syllabic>
<text></text>
</lyric>
</note>
<note>
<pitch>
<step>D</step>
<octave>4</octave>
</pitch>
<duration>24</duration>
<type>quarter</type>
<dot/>
<lyric number="1">
<syllabic>begin</syllabic>
<text>tri</text>
</lyric>
<lyric number="2">
<syllabic>single</syllabic>
<text></text>
</lyric>
</note>
<note>
<pitch>
<step>E</step>
<octave>4</octave>
</pitch>
<duration>8</duration>
<type>eighth</type>
<lyric number="1">
<syllabic>middle</syllabic>
<text>om</text>
</lyric>
<lyric number="2">
<syllabic>single</syllabic>
<text></text>
</lyric>
</note>
</measure>
<measure number="17">
<note>
<pitch>
<step>C</step>
<octave>4</octave>
</pitch>
<duration>48</duration>
<type>half</type>
<dot/>
<lyric number="1">
<syllabic>end</syllabic>
<text>phé.</text>
</lyric>
<lyric number="2">
<syllabic>single</syllabic>
<text></text>
</lyric>
</note>
<direction placement="above">
<direction-type>
<words relative-y="60">Fine</words>
</direction-type>
<sound fine=""/>
</direction>
<barline location="right">
<bar-style>light-heavy</bar-style>
<repeat direction="backward"/>
</barline>
</measure>
<measure number="18">
<note>
<rest/>
<duration>16</duration>
<type>quarter</type>
</note>
</measure>
<measure number="19">
<barline location="left">
<bar-style>heavy-light</bar-style>
<repeat direction="forward"/>
</barline>
<note>
<pitch>
<step>C</step>
<octave>5</octave>
</pitch>
<duration>16</duration>
<type>quarter</type>
<lyric number="1">
<syllabic>single</syllabic>
<text>Sur</text>
</lyric>
<lyric number="2">
<syllabic>single</syllabic>
<text>Par</text>
</lyric>
</note>
<note>
<pitch>
<step>B</step>
<octave>4</octave>
</pitch>
<duration>8</duration>
<type>eighth</type>
<lyric number="1">
<syllabic>single</syllabic>
<text>son</text>
</lyric>
<lyric number="2">
<syllabic>single</syllabic>
<text>son</text>
</lyric>
</note>
<note>
<pitch>
<step>G</step>
<octave>4</octave>
</pitch>
<duration>8</duration>
<type>eighth</type>
<lyric number="1">
<syllabic>single</syllabic>
<text>corps</text>
</lyric>
<lyric number="2">
<syllabic>single</syllabic>
<text></text>
</lyric>
</note>
<note>
<pitch>
<step>G</step>
<octave>4</octave>
</pitch>
<duration>16</duration>
<type>quarter</type>
<lyric number="1">
<syllabic>single</syllabic>
<text></text>
</lyric>
<lyric number="2">
<syllabic>begin</syllabic>
<text>pré</text>
</lyric>
</note>
<note>
<pitch>
<step>E</step>
<octave>4</octave>
</pitch>
<duration>16</duration>
<type>quarter</type>
<lyric number="1">
<syllabic>single</syllabic>
<text>les</text>
</lyric>
<lyric number="2">
<syllabic>end</syllabic>
<text>cieux</text>
</lyric>
</note>
</measure>
<measure number="20">
<note>
<pitch>
<step>A</step>
<octave>4</octave>
</pitch>
<duration>16</duration>
<type>quarter</type>
<lyric number="1">
<syllabic>begin</syllabic>
<text>ci</text>
</lyric>
<lyric number="2">
<syllabic>begin</syllabic>
<text>sa</text>
</lyric>
</note>
<note>
<pitch>
<step>G</step>
<octave>4</octave>
</pitch>
<duration>8</duration>
<type>eighth</type>
<lyric number="1">
<syllabic>middle</syllabic>
<text>ca</text>
</lyric>
<lyric number="2">
<syllabic>middle</syllabic>
<text>cri</text>
</lyric>
</note>
<note>
<pitch>
<step>C</step>
<octave>4</octave>
</pitch>
<duration>8</duration>
<tie type="start"/>
<type>eighth</type>
<notations>
<tied type="start"/>
</notations>
<lyric number="1">
<syllabic>middle</syllabic>
<text>tri</text>
</lyric>
<lyric number="2">
<syllabic>middle</syllabic>
<text>fi</text>
</lyric>
</note>
<note>
<pitch>
<step>C</step>
<octave>4</octave>
</pitch>
<duration>16</duration>
<tie type="stop"/>
<type>quarter</type>
<notations>
<tied type="stop"/>
</notations>
</note>
<note>
<pitch>
<step>D</step>
<octave>4</octave>
</pitch>
<duration>16</duration>
<type>quarter</type>
<lyric number="1">
<syllabic>end</syllabic>
<text>ces</text>
</lyric>
<lyric number="2">
<syllabic>end</syllabic>
<text>ce,</text>
</lyric>
</note>
</measure>
<measure number="21">
<note>
<pitch>
<step>E</step>
<octave>4</octave>
</pitch>
<duration>16</duration>
<type>quarter</type>
<lyric number="1">
<syllabic>single</syllabic>
<text>Me</text>
</lyric>
<lyric number="2">
<syllabic>single</syllabic>
<text>Il</text>
</lyric>
</note>
<note>
<pitch>
<step>G</step>
<octave>4</octave>
</pitch>
<duration>8</duration>
<type>eighth</type>
<lyric number="1">
<syllabic>begin</syllabic>
<text>rap</text>
</lyric>
<lyric number="2">
<syllabic>single</syllabic>
<text>est</text>
</lyric>
</note>
<note>
<pitch>
<step>G</step>
<octave>4</octave>
</pitch>
<duration>8</duration>
<tie type="start"/>
<type>eighth</type>
<notations>
<tied type="start"/>
</notations>
<lyric number="1">
<syllabic>end</syllabic>
<text>pellent</text>
</lyric>
<lyric number="2">
<syllabic>single</syllabic>
<text>l'homme</text>
</lyric>
</note>
<note>
<pitch>
<step>G</step>
<octave>4</octave>
</pitch>
<duration>16</duration>
<tie type="stop"/>
<type>quarter</type>
<notations>
<tied type="stop"/>
</notations>
</note>
<note>
<pitch>
<step>E</step>
<octave>4</octave>
</pitch>
<duration>16</duration>
<type>quarter</type>
<lyric number="1">
<syllabic>single</syllabic>
<text>le</text>
</lyric>
<lyric number="2">
<syllabic>single</syllabic>
<text>au</text>
</lyric>
</note>
</measure>
<measure number="22">
<barline location="left">
<ending type="start" number="1"/>
</barline>
<note>
<pitch>
<step>E</step>
<octave>4</octave>
</pitch>
<duration>16</duration>
<type>quarter</type>
<lyric number="1">
<syllabic>single</syllabic>
<text>prix</text>
</lyric>
</note>
<note>
<pitch>
<step>D</step>
<octave>4</octave>
</pitch>
<duration>8</duration>
<type>eighth</type>
<lyric number="1">
<syllabic>begin</syllabic>
<text>pay</text>
</lyric>
</note>
<note>
<pitch>
<step>D</step>
<octave>4</octave>
</pitch>
<duration>8</duration>
<tie type="start"/>
<type>eighth</type>
<notations>
<tied type="start"/>
</notations>
<lyric number="1">
<syllabic>end</syllabic>
<text>é.</text>
</lyric>
</note>
<note>
<pitch>
<step>D</step>
<octave>4</octave>
</pitch>
<duration>32</duration>
<tie type="stop"/>
<type>half</type>
<notations>
<tied type="stop"/>
</notations>
</note>
<barline location="right">
<bar-style>light-heavy</bar-style>
<ending type="stop" number="1"/>
<repeat direction="backward"/>
</barline>
</measure>
<measure number="23">
<barline location="left">
<ending type="start" number="2"/>
</barline>
<barline location="left">
<bar-style>heavy-light</bar-style>
</barline>
<note>
<pitch>
<step>A</step>
<octave>4</octave>
</pitch>
<duration>16</duration>
<type>quarter</type>
<lyric number="1">
<syllabic>single</syllabic>
<text>cœur</text>
</lyric>
</note>
<note>
<pitch>
<step>G</step>
<octave>4</octave>
</pitch>
<duration>8</duration>
<type>eighth</type>
<lyric number="1">
<syllabic>begin</syllabic>
<text>bri</text>
</lyric>
</note>
<note>
<pitch>
<step>G</step>
<octave>4</octave>
</pitch>
<duration>8</duration>
<tie type="start"/>
<type>eighth</type>
<notations>
<tied type="start"/>
</notations>
<lyric number="1">
<syllabic>end</syllabic>
<text>sé.</text>
</lyric>
</note>
<note>
<pitch>
<step>G</step>
<octave>4</octave>
</pitch>
<duration>32</duration>
<tie type="stop"/>
<type>half</type>
<notations>
<tied type="stop"/>
</notations>
</note>
</measure>
<measure number="24">
<note>
<rest/>
<duration>48</duration>
<type>half</type>
<dot/>
</note>
<direction placement="above">
<direction-type>
<words relative-y="60">D.C. al Fine</words>
</direction-type>
</direction>
<barline location="right">
<bar-style>light-heavy</bar-style>
<ending type="stop" number="2"/>
</barline>
</measure>
</part>
</score-partwise>
