<?xml version="1.0" encoding="UTF-8" standalone='no'?>
<!DOCTYPE score-partwise PUBLIC "-//Recordare//DTD MusicXML 1.0 Partwise//EN" "http://www.musicxml.org/dtds/partwise.dtd">
<score-partwise>
<work>
<work-title>Dieu aie pitié de nous</work-title>
</work>
<identification>
<creator type="transcriber">Graham Kendrick</creator>
<rights>© 1986 Make Way Music/ Thankyou Music / LTC</rights>
<encoding>
<software>Noteworthy Composer</software>
<encoding-date>2007-02-17</encoding-date>
</encoding>
</identification>
<part-list>
<score-part id="P1">
<part-name>Voix des femmes</part-name>
<score-instrument id="P1-I1">
<instrument-name>String Ensemble 1</instrument-name>
</score-instrument>
<midi-instrument id="P1-I1">
<midi-channel>1</midi-channel>
<midi-program>50</midi-program>
</midi-instrument>
</score-part>
<score-part id="P2">
<part-name>Voix des hommes</part-name>
<score-instrument id="P2-I1">
<instrument-name>String Ensemble 1</instrument-name>
</score-instrument>
<midi-instrument id="P2-I1">
<midi-channel>2</midi-channel>
<midi-program>50</midi-program>
</midi-instrument>
</score-part>
</part-list>
<part id="P1">
<measure number="1">
<attributes>
<divisions>8</divisions>
</attributes>
<attributes>
<clef>
<sign>G</sign>
<line>2</line>
</clef>
</attributes>
<attributes>
<key>
<fifths>4</fifths>
</key>
</attributes>
<attributes>
<time symbol="common">
<beats>4</beats>
<beat-type>4</beat-type>
</time>
</attributes>
<note>
<pitch>
<step>G</step>
<alter>1</alter>
<octave>4</octave>
</pitch>
<duration>24</duration>
<type>half</type>
<dot/>
<lyric number="1">
<syllabic>single</syllabic>
<text>Dieu,</text>
</lyric>
</note>
<note>
<pitch>
<step>G</step>
<alter>1</alter>
<octave>4</octave>
</pitch>
<duration>8</duration>
<type>quarter</type>
<lyric number="1">
<syllabic>single</syllabic>
<text>aie</text>
</lyric>
</note>
</measure>
<measure number="2">
<note>
<pitch>
<step>B</step>
<octave>4</octave>
</pitch>
<duration>8</duration>
<type>quarter</type>
<lyric number="1">
<syllabic>begin</syllabic>
<text>pi</text>
</lyric>
</note>
<note>
<pitch>
<step>B</step>
<octave>4</octave>
</pitch>
<duration>16</duration>
<type>half</type>
<lyric number="1">
<syllabic>end</syllabic>
<text>tié</text>
</lyric>
</note>
<note>
<pitch>
<step>B</step>
<octave>3</octave>
</pitch>
<duration>8</duration>
<type>quarter</type>
<lyric number="1">
<syllabic>single</syllabic>
<text>de</text>
</lyric>
</note>
</measure>
<measure number="3">
<note>
<pitch>
<step>C</step>
<alter>1</alter>
<octave>4</octave>
</pitch>
<duration>32</duration>
<tie type="start"/>
<type>whole</type>
<notations>
<tied type="start"/>
</notations>
<lyric number="1">
<syllabic>single</syllabic>
<text>nous.</text>
</lyric>
</note>
</measure>
<measure number="4">
<note>
<pitch>
<step>C</step>
<alter>1</alter>
<octave>4</octave>
</pitch>
<duration>32</duration>
<tie type="stop"/>
<type>whole</type>
<notations>
<tied type="stop"/>
</notations>
</note>
</measure>
<measure number="5">
<note>
<pitch>
<step>G</step>
<alter>1</alter>
<octave>4</octave>
</pitch>
<duration>24</duration>
<type>half</type>
<dot/>
<lyric number="1">
<syllabic>single</syllabic>
<text>Viens</text>
</lyric>
</note>
<note>
<pitch>
<step>G</step>
<alter>1</alter>
<octave>4</octave>
</pitch>
<duration>8</duration>
<type>quarter</type>
<lyric number="1">
<syllabic>begin</syllabic>
<text>gué</text>
</lyric>
</note>
</measure>
<measure number="6">
<note>
<pitch>
<step>B</step>
<octave>4</octave>
</pitch>
<duration>16</duration>
<type>half</type>
<lyric number="1">
<syllabic>end</syllabic>
<text>rir</text>
</lyric>
</note>
<note>
<pitch>
<step>B</step>
<octave>4</octave>
</pitch>
<duration>8</duration>
<type>quarter</type>
<lyric number="1">
<syllabic>single</syllabic>
<text>le</text>
</lyric>
</note>
<note>
<pitch>
<step>B</step>
<octave>3</octave>
</pitch>
<duration>8</duration>
<type>quarter</type>
<lyric number="1">
<syllabic>begin</syllabic>
<text>pa</text>
</lyric>
</note>
</measure>
<measure number="7">
<note>
<pitch>
<step>C</step>
<alter>1</alter>
<octave>4</octave>
</pitch>
<duration>32</duration>
<tie type="start"/>
<type>whole</type>
<notations>
<tied type="start"/>
</notations>
<lyric number="1">
<syllabic>end</syllabic>
<text>ys.</text>
</lyric>
</note>
</measure>
<measure number="8">
<note>
<pitch>
<step>C</step>
<alter>1</alter>
<octave>4</octave>
</pitch>
<duration>32</duration>
<tie type="stop"/>
<type>whole</type>
<notations>
<tied type="stop"/>
</notations>
</note>
</measure>
<measure number="9">
<note>
<pitch>
<step>E</step>
<octave>4</octave>
</pitch>
<duration>16</duration>
<type>half</type>
<stem>up</stem>
<lyric number="1">
<syllabic>begin</syllabic>
<text>Pu</text>
</lyric>
</note>
<note>
<chord/>
<pitch>
<step>G</step>
<alter>1</alter>
<octave>4</octave>
</pitch>
<duration>16</duration>
<type>half</type>
<stem>up</stem>
</note>
<note>
<pitch>
<step>E</step>
<octave>4</octave>
</pitch>
<duration>8</duration>
<type>quarter</type>
<stem>up</stem>
<lyric number="1">
<syllabic>middle</syllabic>
<text>ri</text>
</lyric>
</note>
<note>
<chord/>
<pitch>
<step>G</step>
<alter>1</alter>
<octave>4</octave>
</pitch>
<duration>8</duration>
<type>quarter</type>
<stem>up</stem>
</note>
<note>
<pitch>
<step>E</step>
<octave>4</octave>
</pitch>
<duration>8</duration>
<type>quarter</type>
<stem>up</stem>
<lyric number="1">
<syllabic>middle</syllabic>
<text>fie</text>
</lyric>
</note>
<note>
<chord/>
<pitch>
<step>A</step>
<octave>4</octave>
</pitch>
<duration>8</duration>
<type>quarter</type>
<stem>up</stem>
</note>
</measure>
<measure number="10">
<note>
<pitch>
<step>D</step>
<alter>1</alter>
<octave>4</octave>
</pitch>
<duration>32</duration>
<type>whole</type>
<stem>up</stem>
<lyric number="1">
<syllabic>end</syllabic>
<text>nous,</text>
</lyric>
</note>
<note>
<chord/>
<pitch>
<step>F</step>
<alter>1</alter>
<octave>4</octave>
</pitch>
<duration>32</duration>
<type>whole</type>
<stem>up</stem>
</note>
</measure>
<measure number="11">
<note>
<pitch>
<step>D</step>
<alter>1</alter>
<octave>4</octave>
</pitch>
<duration>16</duration>
<type>half</type>
<stem>up</stem>
<lyric number="1">
<syllabic>begin</syllabic>
<text>res</text>
</lyric>
</note>
<note>
<chord/>
<pitch>
<step>F</step>
<alter>1</alter>
<octave>4</octave>
</pitch>
<duration>16</duration>
<type>half</type>
<stem>up</stem>
</note>
<note>
<pitch>
<step>D</step>
<alter>1</alter>
<octave>4</octave>
</pitch>
<duration>8</duration>
<type>quarter</type>
<stem>up</stem>
<lyric number="1">
<syllabic>middle</syllabic>
<text>tau</text>
</lyric>
</note>
<note>
<chord/>
<pitch>
<step>F</step>
<alter>1</alter>
<octave>4</octave>
</pitch>
<duration>8</duration>
<type>quarter</type>
<stem>up</stem>
</note>
<note>
<pitch>
<step>D</step>
<alter>1</alter>
<octave>4</octave>
</pitch>
<duration>8</duration>
<type>quarter</type>
<stem>up</stem>
<lyric number="1">
<syllabic>middle</syllabic>
<text>re</text>
</lyric>
</note>
<note>
<chord/>
<pitch>
<step>G</step>
<alter>1</alter>
<octave>4</octave>
</pitch>
<duration>8</duration>
<type>quarter</type>
<stem>up</stem>
</note>
</measure>
<measure number="12">
<note>
<pitch>
<step>C</step>
<alter>1</alter>
<octave>4</octave>
</pitch>
<duration>32</duration>
<type>whole</type>
<stem>up</stem>
<lyric number="1">
<syllabic>end</syllabic>
<text>nous.</text>
</lyric>
</note>
<note>
<chord/>
<pitch>
<step>E</step>
<octave>4</octave>
</pitch>
<duration>32</duration>
<type>whole</type>
<stem>up</stem>
</note>
</measure>
<measure number="13">
<note>
<pitch>
<step>E</step>
<octave>4</octave>
</pitch>
<duration>16</duration>
<type>half</type>
<stem>up</stem>
<lyric number="1">
<syllabic>single</syllabic>
<text>Nous</text>
</lyric>
</note>
<note>
<chord/>
<pitch>
<step>G</step>
<alter>1</alter>
<octave>4</octave>
</pitch>
<duration>16</duration>
<type>half</type>
<stem>up</stem>
</note>
<note>
<pitch>
<step>E</step>
<octave>4</octave>
</pitch>
<duration>8</duration>
<type>quarter</type>
<stem>up</stem>
<lyric number="1">
<syllabic>single</syllabic>
<text>nous</text>
</lyric>
</note>
<note>
<chord/>
<pitch>
<step>G</step>
<alter>1</alter>
<octave>4</octave>
</pitch>
<duration>8</duration>
<type>quarter</type>
<stem>up</stem>
</note>
<note>
<pitch>
<step>E</step>
<octave>4</octave>
</pitch>
<duration>8</duration>
<type>quarter</type>
<stem>up</stem>
<lyric number="1">
<syllabic>begin</syllabic>
<text>cour</text>
</lyric>
</note>
<note>
<chord/>
<pitch>
<step>C</step>
<alter>1</alter>
<octave>5</octave>
</pitch>
<duration>8</duration>
<type>quarter</type>
<stem>up</stem>
</note>
</measure>
<measure number="14">
<note>
<pitch>
<step>D</step>
<alter>1</alter>
<octave>4</octave>
</pitch>
<duration>24</duration>
<type>half</type>
<dot/>
<stem>up</stem>
<lyric number="1">
<syllabic>end</syllabic>
<text>bons,</text>
</lyric>
</note>
<note>
<chord/>
<pitch>
<step>B</step>
<octave>4</octave>
</pitch>
<duration>24</duration>
<type>half</type>
<dot/>
<stem>up</stem>
</note>
<note>
<pitch>
<step>D</step>
<alter>1</alter>
<octave>4</octave>
</pitch>
<duration>8</duration>
<type>quarter</type>
<stem>up</stem>
<lyric number="1">
<syllabic>single</syllabic>
<text>nous</text>
</lyric>
</note>
<note>
<chord/>
<pitch>
<step>G</step>
<alter>1</alter>
<octave>4</octave>
</pitch>
<duration>8</duration>
<type>quarter</type>
<stem>up</stem>
</note>
</measure>
<measure number="15">
<note>
<pitch>
<step>F</step>
<alter>1</alter>
<octave>4</octave>
</pitch>
<duration>8</duration>
<type>quarter</type>
<stem>up</stem>
<lyric number="1">
<syllabic>begin</syllabic>
<text>in</text>
</lyric>
</note>
<note>
<chord/>
<pitch>
<step>A</step>
<octave>4</octave>
</pitch>
<duration>8</duration>
<type>quarter</type>
<stem>up</stem>
</note>
<note>
<pitch>
<step>E</step>
<octave>4</octave>
</pitch>
<duration>4</duration>
<type>eighth</type>
<stem>up</stem>
<lyric number="1">
<syllabic>middle</syllabic>
<text>vo</text>
</lyric>
</note>
<note>
<chord/>
<pitch>
<step>G</step>
<alter>1</alter>
<octave>4</octave>
</pitch>
<duration>4</duration>
<type>eighth</type>
<stem>up</stem>
</note>
<note>
<pitch>
<step>E</step>
<octave>4</octave>
</pitch>
<duration>4</duration>
<tie type="start"/>
<type>eighth</type>
<stem>up</stem>
<notations>
<tied type="start"/>
</notations>
<lyric number="1">
<syllabic>end</syllabic>
<text>quons</text>
</lyric>
</note>
<note>
<chord/>
<pitch>
<step>F</step>
<alter>1</alter>
<octave>4</octave>
</pitch>
<duration>4</duration>
<tie type="start"/>
<type>eighth</type>
<stem>up</stem>
<notations>
<tied type="start"/>
</notations>
</note>
<note>
<pitch>
<step>E</step>
<octave>4</octave>
</pitch>
<duration>8</duration>
<tie type="stop"/>
<type>quarter</type>
<stem>up</stem>
<notations>
<tied type="stop"/>
</notations>
</note>
<note>
<chord/>
<pitch>
<step>F</step>
<alter>1</alter>
<octave>4</octave>
</pitch>
<duration>8</duration>
<tie type="stop"/>
<type>quarter</type>
<stem>up</stem>
<notations>
<tied type="stop"/>
</notations>
</note>
<note>
<pitch>
<step>C</step>
<alter>1</alter>
<octave>4</octave>
</pitch>
<duration>8</duration>
<type>quarter</type>
<stem>up</stem>
<lyric number="1">
<syllabic>single</syllabic>
<text>ton</text>
</lyric>
</note>
<note>
<chord/>
<pitch>
<step>E</step>
<octave>4</octave>
</pitch>
<duration>8</duration>
<type>quarter</type>
<stem>up</stem>
</note>
</measure>
<measure number="16">
<note>
<pitch>
<step>D</step>
<alter>1</alter>
<octave>4</octave>
</pitch>
<duration>16</duration>
<type>half</type>
<stem>up</stem>
<lyric number="1">
<syllabic>single</syllabic>
<text>nom.</text>
</lyric>
</note>
<note>
<chord/>
<pitch>
<step>F</step>
<alter>1</alter>
<octave>4</octave>
</pitch>
<duration>16</duration>
<type>half</type>
<stem>up</stem>
</note>
<note>
<pitch>
<step>C</step>
<alter>1</alter>
<octave>4</octave>
</pitch>
<duration>8</duration>
<type>quarter</type>
<stem>up</stem>
<lyric number="1">
<syllabic>single</syllabic>
<text>O</text>
</lyric>
</note>
<note>
<chord/>
<pitch>
<step>E</step>
<octave>4</octave>
</pitch>
<duration>8</duration>
<type>quarter</type>
<stem>up</stem>
</note>
<note>
<pitch>
<step>B</step>
<octave>3</octave>
</pitch>
<duration>8</duration>
<type>quarter</type>
<stem>up</stem>
<lyric number="1">
<syllabic>begin</syllabic>
<text>Sei</text>
</lyric>
</note>
<note>
<chord/>
<pitch>
<step>D</step>
<alter>1</alter>
<octave>4</octave>
</pitch>
<duration>8</duration>
<type>quarter</type>
<stem>up</stem>
</note>
</measure>
<measure number="17">
<note>
<pitch>
<step>C</step>
<octave>4</octave>
</pitch>
<duration>32</duration>
<tie type="start"/>
<type>whole</type>
<accidental>natural</accidental>
<stem>up</stem>
<notations>
<tied type="start"/>
</notations>
<lyric number="1">
<syllabic>end</syllabic>
<text>gneur,</text>
</lyric>
</note>
<note>
<chord/>
<pitch>
<step>E</step>
<octave>4</octave>
</pitch>
<duration>32</duration>
<tie type="start"/>
<type>whole</type>
<stem>up</stem>
<notations>
<tied type="start"/>
</notations>
</note>
</measure>
<measure number="18">
<note>
<pitch>
<step>C</step>
<octave>4</octave>
</pitch>
<duration>16</duration>
<tie type="stop"/>
<type>half</type>
<accidental>natural</accidental>
<stem>up</stem>
<notations>
<tied type="stop"/>
</notations>
</note>
<note>
<chord/>
<pitch>
<step>E</step>
<octave>4</octave>
</pitch>
<duration>16</duration>
<tie type="stop"/>
<type>half</type>
<stem>up</stem>
<notations>
<tied type="stop"/>
</notations>
</note>
<note>
<pitch>
<step>C</step>
<octave>4</octave>
</pitch>
<duration>16</duration>
<type>half</type>
<accidental>natural</accidental>
<stem>up</stem>
<lyric number="1">
<syllabic>single</syllabic>
<text>aie</text>
</lyric>
</note>
<note>
<chord/>
<pitch>
<step>E</step>
<octave>4</octave>
</pitch>
<duration>16</duration>
<type>half</type>
<stem>up</stem>
</note>
</measure>
<measure number="19">
<note>
<pitch>
<step>D</step>
<octave>4</octave>
</pitch>
<duration>16</duration>
<type>half</type>
<accidental>natural</accidental>
<stem>up</stem>
<lyric number="1">
<syllabic>begin</syllabic>
<text>pi</text>
</lyric>
</note>
<note>
<chord/>
<pitch>
<step>G</step>
<octave>4</octave>
</pitch>
<duration>16</duration>
<type>half</type>
<accidental>natural</accidental>
<stem>up</stem>
</note>
<note>
<pitch>
<step>D</step>
<octave>4</octave>
</pitch>
<duration>16</duration>
<tie type="start"/>
<type>half</type>
<stem>up</stem>
<notations>
<tied type="start"/>
</notations>
<lyric number="1">
<syllabic>end</syllabic>
<text>tié</text>
</lyric>
</note>
<note>
<chord/>
<pitch>
<step>F</step>
<alter>1</alter>
<octave>4</octave>
</pitch>
<duration>16</duration>
<tie type="start"/>
<type>half</type>
<stem>up</stem>
<notations>
<tied type="start"/>
</notations>
</note>
</measure>
<measure number="20">
<note>
<pitch>
<step>D</step>
<alter>1</alter>
<octave>4</octave>
</pitch>
<duration>16</duration>
<tie type="stop"/>
<type>half</type>
<stem>up</stem>
<notations>
<tied type="stop"/>
</notations>
</note>
<note>
<chord/>
<pitch>
<step>F</step>
<alter>1</alter>
<octave>4</octave>
</pitch>
<duration>16</duration>
<tie type="stop"/>
<type>half</type>
<stem>up</stem>
<notations>
<tied type="stop"/>
</notations>
</note>
<note>
<pitch>
<step>A</step>
<octave>3</octave>
</pitch>
<duration>8</duration>
<type>quarter</type>
<stem>up</stem>
<notations>
<slur type="start" number="1"/>
</notations>
<lyric number="1">
<syllabic>single</syllabic>
<text>de</text>
</lyric>
</note>
<note>
<chord/>
<pitch>
<step>D</step>
<octave>4</octave>
</pitch>
<duration>8</duration>
<type>quarter</type>
<accidental>natural</accidental>
<stem>up</stem>
<notations>
<slur type="start" number="1"/>
</notations>
</note>
<note>
<pitch>
<step>B</step>
<octave>3</octave>
</pitch>
<duration>8</duration>
<type>quarter</type>
<stem>up</stem>
<notations>
<slur type="stop" number="1"/>
</notations>
</note>
<note>
<chord/>
<pitch>
<step>E</step>
<octave>4</octave>
</pitch>
<duration>8</duration>
<type>quarter</type>
<stem>up</stem>
<notations>
<slur type="stop" number="2"/>
</notations>
</note>
</measure>
<measure number="21">
<note>
<pitch>
<step>B</step>
<octave>3</octave>
</pitch>
<duration>32</duration>
<tie type="start"/>
<type>whole</type>
<stem>up</stem>
<notations>
<tied type="start"/>
</notations>
<lyric number="1">
<syllabic>single</syllabic>
<text>nous,</text>
</lyric>
</note>
<note>
<chord/>
<pitch>
<step>E</step>
<octave>4</octave>
</pitch>
<duration>32</duration>
<tie type="start"/>
<type>whole</type>
<stem>up</stem>
<notations>
<tied type="start"/>
</notations>
</note>
</measure>
<measure number="22">
<note>
<pitch>
<step>B</step>
<octave>3</octave>
</pitch>
<duration>16</duration>
<tie type="stop"/>
<type>half</type>
<stem>up</stem>
<notations>
<tied type="stop"/>
</notations>
</note>
<note>
<chord/>
<pitch>
<step>E</step>
<octave>4</octave>
</pitch>
<duration>16</duration>
<tie type="stop"/>
<type>half</type>
<stem>up</stem>
<notations>
<tied type="stop"/>
</notations>
</note>
<note>
<pitch>
<step>B</step>
<octave>3</octave>
</pitch>
<duration>16</duration>
<type>half</type>
<stem>up</stem>
<lyric number="1">
<syllabic>begin</syllabic>
<text>Sei</text>
</lyric>
</note>
<note>
<chord/>
<pitch>
<step>E</step>
<octave>4</octave>
</pitch>
<duration>16</duration>
<type>half</type>
<stem>up</stem>
</note>
</measure>
<measure number="23">
<note>
<pitch>
<step>C</step>
<octave>4</octave>
</pitch>
<duration>32</duration>
<tie type="start"/>
<type>whole</type>
<accidental>natural</accidental>
<stem>up</stem>
<notations>
<tied type="start"/>
</notations>
<lyric number="1">
<syllabic>end</syllabic>
<text>gneur,</text>
</lyric>
</note>
<note>
<chord/>
<pitch>
<step>E</step>
<octave>4</octave>
</pitch>
<duration>32</duration>
<tie type="start"/>
<type>whole</type>
<stem>up</stem>
<notations>
<tied type="start"/>
</notations>
</note>
</measure>
<measure number="24">
<note>
<pitch>
<step>C</step>
<octave>4</octave>
</pitch>
<duration>16</duration>
<tie type="stop"/>
<type>half</type>
<accidental>natural</accidental>
<stem>up</stem>
<notations>
<tied type="stop"/>
</notations>
</note>
<note>
<chord/>
<pitch>
<step>E</step>
<octave>4</octave>
</pitch>
<duration>16</duration>
<tie type="stop"/>
<type>half</type>
<stem>up</stem>
<notations>
<tied type="stop"/>
</notations>
</note>
<note>
<pitch>
<step>C</step>
<octave>4</octave>
</pitch>
<duration>16</duration>
<type>half</type>
<stem>up</stem>
<lyric number="1">
<syllabic>single</syllabic>
<text>aie</text>
</lyric>
</note>
<note>
<chord/>
<pitch>
<step>E</step>
<octave>4</octave>
</pitch>
<duration>16</duration>
<type>half</type>
<stem>up</stem>
</note>
</measure>
<measure number="25">
<note>
<pitch>
<step>D</step>
<octave>4</octave>
</pitch>
<duration>16</duration>
<type>half</type>
<accidental>natural</accidental>
<stem>up</stem>
<lyric number="1">
<syllabic>begin</syllabic>
<text>pi</text>
</lyric>
</note>
<note>
<chord/>
<pitch>
<step>G</step>
<octave>4</octave>
</pitch>
<duration>16</duration>
<type>half</type>
<accidental>natural</accidental>
<stem>up</stem>
</note>
<note>
<pitch>
<step>D</step>
<octave>4</octave>
</pitch>
<duration>16</duration>
<tie type="start"/>
<type>half</type>
<stem>up</stem>
<notations>
<tied type="start"/>
</notations>
<lyric number="1">
<syllabic>end</syllabic>
<text>tié</text>
</lyric>
</note>
<note>
<chord/>
<pitch>
<step>F</step>
<alter>1</alter>
<octave>4</octave>
</pitch>
<duration>16</duration>
<tie type="start"/>
<type>half</type>
<stem>up</stem>
<notations>
<tied type="start"/>
</notations>
</note>
</measure>
<measure number="26">
<note>
<pitch>
<step>D</step>
<alter>1</alter>
<octave>4</octave>
</pitch>
<duration>16</duration>
<tie type="stop"/>
<type>half</type>
<stem>up</stem>
<notations>
<tied type="stop"/>
</notations>
</note>
<note>
<chord/>
<pitch>
<step>F</step>
<alter>1</alter>
<octave>4</octave>
</pitch>
<duration>16</duration>
<tie type="stop"/>
<type>half</type>
<stem>up</stem>
<notations>
<tied type="stop"/>
</notations>
</note>
<note>
<pitch>
<step>A</step>
<octave>3</octave>
</pitch>
<duration>8</duration>
<type>quarter</type>
<stem>up</stem>
<notations>
<slur type="start" number="1"/>
</notations>
<lyric number="1">
<syllabic>single</syllabic>
<text>de</text>
</lyric>
</note>
<note>
<chord/>
<pitch>
<step>D</step>
<octave>4</octave>
</pitch>
<duration>8</duration>
<type>quarter</type>
<accidental>natural</accidental>
<stem>up</stem>
<notations>
<slur type="start" number="1"/>
</notations>
</note>
<note>
<pitch>
<step>B</step>
<octave>3</octave>
</pitch>
<duration>8</duration>
<type>quarter</type>
<stem>up</stem>
<notations>
<slur type="stop" number="1"/>
</notations>
</note>
<note>
<chord/>
<pitch>
<step>E</step>
<octave>4</octave>
</pitch>
<duration>8</duration>
<type>quarter</type>
<stem>up</stem>
<notations>
<slur type="stop" number="2"/>
</notations>
</note>
</measure>
<measure number="27">
<note>
<pitch>
<step>B</step>
<octave>3</octave>
</pitch>
<duration>32</duration>
<tie type="start"/>
<type>whole</type>
<stem>up</stem>
<notations>
<tied type="start"/>
</notations>
<lyric number="1">
<syllabic>single</syllabic>
<text>nous.</text>
</lyric>
</note>
<note>
<chord/>
<pitch>
<step>E</step>
<octave>4</octave>
</pitch>
<duration>32</duration>
<tie type="start"/>
<type>whole</type>
<stem>up</stem>
<notations>
<tied type="start"/>
</notations>
</note>
</measure>
<measure number="28">
<note>
<pitch>
<step>B</step>
<octave>3</octave>
</pitch>
<duration>32</duration>
<tie type="stop"/>
<type>whole</type>
<stem>up</stem>
<notations>
<tied type="stop"/>
</notations>
</note>
<note>
<chord/>
<pitch>
<step>E</step>
<octave>4</octave>
</pitch>
<duration>32</duration>
<tie type="stop"/>
<type>whole</type>
<stem>up</stem>
<notations>
<tied type="stop"/>
</notations>
</note>
<barline location="right">
<bar-style>light-heavy</bar-style>
</barline>
</measure>
</part>
<part id="P2">
<measure number="1">
<attributes>
<divisions>8</divisions>
</attributes>
<attributes>
<clef>
<sign>F</sign>
<line>4</line>
</clef>
</attributes>
<attributes>
<key>
<fifths>4</fifths>
</key>
</attributes>
<attributes>
<time symbol="common">
<beats>4</beats>
<beat-type>4</beat-type>
</time>
</attributes>
<note>
<pitch>
<step>G</step>
<alter>1</alter>
<octave>3</octave>
</pitch>
<duration>24</duration>
<type>half</type>
<dot/>
</note>
<note>
<pitch>
<step>G</step>
<alter>1</alter>
<octave>3</octave>
</pitch>
<duration>8</duration>
<type>quarter</type>
</note>
</measure>
<measure number="2">
<note>
<pitch>
<step>B</step>
<octave>3</octave>
</pitch>
<duration>8</duration>
<type>quarter</type>
</note>
<note>
<pitch>
<step>B</step>
<octave>3</octave>
</pitch>
<duration>16</duration>
<type>half</type>
</note>
<note>
<pitch>
<step>B</step>
<octave>2</octave>
</pitch>
<duration>8</duration>
<type>quarter</type>
</note>
</measure>
<measure number="3">
<note>
<pitch>
<step>C</step>
<alter>1</alter>
<octave>3</octave>
</pitch>
<duration>32</duration>
<tie type="start"/>
<type>whole</type>
<notations>
<tied type="start"/>
</notations>
</note>
</measure>
<measure number="4">
<note>
<pitch>
<step>C</step>
<alter>1</alter>
<octave>3</octave>
</pitch>
<duration>32</duration>
<tie type="stop"/>
<type>whole</type>
<notations>
<tied type="stop"/>
</notations>
</note>
</measure>
<measure number="5">
<note>
<pitch>
<step>G</step>
<alter>1</alter>
<octave>3</octave>
</pitch>
<duration>24</duration>
<type>half</type>
<dot/>
</note>
<note>
<pitch>
<step>G</step>
<alter>1</alter>
<octave>3</octave>
</pitch>
<duration>8</duration>
<type>quarter</type>
</note>
</measure>
<measure number="6">
<note>
<pitch>
<step>B</step>
<octave>3</octave>
</pitch>
<duration>16</duration>
<type>half</type>
</note>
<note>
<pitch>
<step>B</step>
<octave>3</octave>
</pitch>
<duration>8</duration>
<type>quarter</type>
</note>
<note>
<pitch>
<step>B</step>
<octave>2</octave>
</pitch>
<duration>8</duration>
<type>quarter</type>
</note>
</measure>
<measure number="7">
<note>
<pitch>
<step>C</step>
<alter>1</alter>
<octave>3</octave>
</pitch>
<duration>32</duration>
<tie type="start"/>
<type>whole</type>
<notations>
<tied type="start"/>
</notations>
</note>
</measure>
<measure number="8">
<note>
<pitch>
<step>C</step>
<alter>1</alter>
<octave>3</octave>
</pitch>
<duration>32</duration>
<tie type="stop"/>
<type>whole</type>
<notations>
<tied type="stop"/>
</notations>
</note>
</measure>
<measure number="9">
<note>
<pitch>
<step>C</step>
<alter>1</alter>
<octave>4</octave>
</pitch>
<duration>16</duration>
<type>half</type>
</note>
<note>
<pitch>
<step>C</step>
<alter>1</alter>
<octave>4</octave>
</pitch>
<duration>8</duration>
<type>quarter</type>
</note>
<note>
<pitch>
<step>C</step>
<alter>1</alter>
<octave>4</octave>
</pitch>
<duration>8</duration>
<type>quarter</type>
</note>
</measure>
<measure number="10">
<note>
<pitch>
<step>B</step>
<octave>3</octave>
</pitch>
<duration>32</duration>
<type>whole</type>
</note>
</measure>
<measure number="11">
<note>
<pitch>
<step>B</step>
<alter>1</alter>
<octave>3</octave>
</pitch>
<duration>16</duration>
<type>half</type>
<accidental>sharp</accidental>
</note>
<note>
<pitch>
<step>B</step>
<alter>1</alter>
<octave>3</octave>
</pitch>
<duration>8</duration>
<type>quarter</type>
</note>
<note>
<pitch>
<step>B</step>
<alter>1</alter>
<octave>3</octave>
</pitch>
<duration>8</duration>
<type>quarter</type>
</note>
</measure>
<measure number="12">
<note>
<pitch>
<step>C</step>
<alter>1</alter>
<octave>4</octave>
</pitch>
<duration>32</duration>
<type>whole</type>
</note>
</measure>
<measure number="13">
<note>
<pitch>
<step>C</step>
<alter>1</alter>
<octave>4</octave>
</pitch>
<duration>16</duration>
<type>half</type>
</note>
<note>
<pitch>
<step>B</step>
<octave>3</octave>
</pitch>
<duration>8</duration>
<type>quarter</type>
</note>
<note>
<pitch>
<step>A</step>
<octave>3</octave>
</pitch>
<duration>8</duration>
<type>quarter</type>
</note>
</measure>
<measure number="14">
<note>
<pitch>
<step>B</step>
<octave>3</octave>
</pitch>
<duration>24</duration>
<type>half</type>
<dot/>
</note>
<note>
<pitch>
<step>B</step>
<octave>3</octave>
</pitch>
<duration>8</duration>
<type>quarter</type>
</note>
</measure>
<measure number="15">
<note>
<pitch>
<step>C</step>
<alter>1</alter>
<octave>4</octave>
</pitch>
<duration>8</duration>
<type>quarter</type>
</note>
<note>
<pitch>
<step>C</step>
<alter>1</alter>
<octave>4</octave>
</pitch>
<duration>4</duration>
<type>eighth</type>
</note>
<note>
<pitch>
<step>C</step>
<alter>1</alter>
<octave>4</octave>
</pitch>
<duration>4</duration>
<tie type="start"/>
<type>eighth</type>
<notations>
<tied type="start"/>
</notations>
</note>
<note>
<pitch>
<step>C</step>
<alter>1</alter>
<octave>4</octave>
</pitch>
<duration>8</duration>
<tie type="stop"/>
<type>quarter</type>
<notations>
<tied type="stop"/>
</notations>
</note>
<note>
<pitch>
<step>C</step>
<alter>1</alter>
<octave>4</octave>
</pitch>
<duration>8</duration>
<type>quarter</type>
</note>
</measure>
<measure number="16">
<note>
<pitch>
<step>B</step>
<octave>3</octave>
</pitch>
<duration>16</duration>
<type>half</type>
</note>
<note>
<pitch>
<step>A</step>
<octave>3</octave>
</pitch>
<duration>8</duration>
<type>quarter</type>
</note>
<note>
<pitch>
<step>F</step>
<alter>1</alter>
<octave>3</octave>
</pitch>
<duration>8</duration>
<type>quarter</type>
</note>
</measure>
<measure number="17">
<note>
<pitch>
<step>G</step>
<octave>3</octave>
</pitch>
<duration>32</duration>
<tie type="start"/>
<type>whole</type>
<accidental>natural</accidental>
<notations>
<tied type="start"/>
</notations>
</note>
</measure>
<measure number="18">
<note>
<pitch>
<step>G</step>
<alter>1</alter>
<octave>3</octave>
</pitch>
<duration>16</duration>
<tie type="stop"/>
<type>half</type>
<notations>
<tied type="stop"/>
</notations>
</note>
<note>
<pitch>
<step>G</step>
<octave>3</octave>
</pitch>
<duration>16</duration>
<type>half</type>
<accidental>natural</accidental>
</note>
</measure>
<measure number="19">
<note>
<pitch>
<step>A</step>
<octave>3</octave>
</pitch>
<duration>16</duration>
<type>half</type>
</note>
<note>
<pitch>
<step>A</step>
<octave>3</octave>
</pitch>
<duration>16</duration>
<tie type="start"/>
<type>half</type>
<notations>
<tied type="start"/>
</notations>
</note>
</measure>
<measure number="20">
<note>
<pitch>
<step>A</step>
<octave>3</octave>
</pitch>
<duration>16</duration>
<tie type="stop"/>
<type>half</type>
<notations>
<tied type="stop"/>
</notations>
</note>
<note>
<pitch>
<step>F</step>
<alter>1</alter>
<octave>3</octave>
</pitch>
<duration>8</duration>
<type>quarter</type>
<notations>
<slur type="start" number="1"/>
</notations>
</note>
<note>
<pitch>
<step>G</step>
<alter>1</alter>
<octave>3</octave>
</pitch>
<duration>8</duration>
<type>quarter</type>
<notations>
<slur type="stop" number="1"/>
</notations>
</note>
</measure>
<measure number="21">
<note>
<pitch>
<step>G</step>
<alter>1</alter>
<octave>3</octave>
</pitch>
<duration>32</duration>
<tie type="start"/>
<type>whole</type>
<notations>
<tied type="start"/>
</notations>
</note>
</measure>
<measure number="22">
<note>
<pitch>
<step>G</step>
<alter>1</alter>
<octave>3</octave>
</pitch>
<duration>16</duration>
<tie type="stop"/>
<type>half</type>
<notations>
<tied type="stop"/>
</notations>
</note>
<note>
<pitch>
<step>G</step>
<alter>1</alter>
<octave>3</octave>
</pitch>
<duration>16</duration>
<type>half</type>
</note>
</measure>
<measure number="23">
<note>
<pitch>
<step>G</step>
<octave>3</octave>
</pitch>
<duration>32</duration>
<type>whole</type>
<accidental>natural</accidental>
<notations>
<slur type="start" number="1"/>
</notations>
</note>
</measure>
<measure number="24">
<note>
<pitch>
<step>A</step>
<octave>3</octave>
</pitch>
<duration>16</duration>
<type>half</type>
<notations>
<slur type="stop" number="1"/>
</notations>
</note>
<note>
<pitch>
<step>G</step>
<octave>3</octave>
</pitch>
<duration>16</duration>
<type>half</type>
<accidental>natural</accidental>
</note>
</measure>
<measure number="25">
<note>
<pitch>
<step>A</step>
<octave>3</octave>
</pitch>
<duration>16</duration>
<type>half</type>
</note>
<note>
<pitch>
<step>A</step>
<octave>3</octave>
</pitch>
<duration>16</duration>
<tie type="start"/>
<type>half</type>
<notations>
<tied type="start"/>
</notations>
</note>
</measure>
<measure number="26">
<note>
<pitch>
<step>A</step>
<octave>3</octave>
</pitch>
<duration>16</duration>
<tie type="stop"/>
<type>half</type>
<notations>
<tied type="stop"/>
</notations>
</note>
<note>
<pitch>
<step>A</step>
<octave>3</octave>
</pitch>
<duration>8</duration>
<type>quarter</type>
<notations>
<slur type="start" number="1"/>
</notations>
</note>
<note>
<pitch>
<step>G</step>
<alter>1</alter>
<octave>3</octave>
</pitch>
<duration>8</duration>
<type>quarter</type>
<notations>
<slur type="stop" number="1"/>
</notations>
</note>
</measure>
<measure number="27">
<note>
<pitch>
<step>G</step>
<alter>1</alter>
<octave>3</octave>
</pitch>
<duration>32</duration>
<tie type="start"/>
<type>whole</type>
<notations>
<tied type="start"/>
</notations>
</note>
</measure>
<measure number="28">
<note>
<pitch>
<step>G</step>
<alter>1</alter>
<octave>3</octave>
</pitch>
<duration>32</duration>
<tie type="stop"/>
<type>whole</type>
<notations>
<tied type="stop"/>
</notations>
</note>
<barline location="right">
<bar-style>light-heavy</bar-style>
</barline>
</measure>
</part>
</score-partwise>
