<?xml version="1.0" encoding="UTF-8" standalone='no'?>
<!DOCTYPE score-partwise PUBLIC "-//Recordare//DTD MusicXML 1.0 Partwise//EN" "http://www.musicxml.org/dtds/partwise.dtd">
<score-partwise>
<work>
<work-title>Saint, saint, saint</work-title>
</work>
<identification>
<creator type="transcriber">Inconnu</creator>
<rights>© Fel Church Publications / Universal Songs / LTC</rights>
<encoding>
<software>Noteworthy Composer</software>
<encoding-date>2007-02-17</encoding-date>
</encoding>
</identification>
<part-list>
<score-part id="P1">
<part-name>Voix des femmes</part-name>
<score-instrument id="P1-I1">
<instrument-name>String Ensemble 1</instrument-name>
</score-instrument>
<midi-instrument id="P1-I1">
<midi-channel>1</midi-channel>
<midi-program>50</midi-program>
</midi-instrument>
</score-part>
<score-part id="P2">
<part-name>Voix des hommes</part-name>
<score-instrument id="P2-I1">
<instrument-name>String Ensemble 1</instrument-name>
</score-instrument>
<midi-instrument id="P2-I1">
<midi-channel>2</midi-channel>
<midi-program>50</midi-program>
</midi-instrument>
</score-part>
</part-list>
<part id="P1">
<measure number="1">
<attributes>
<divisions>8</divisions>
</attributes>
<attributes>
<clef>
<sign>G</sign>
<line>2</line>
</clef>
</attributes>
<attributes>
<key>
<fifths>2</fifths>
</key>
</attributes>
<attributes>
<time>
<beats>4</beats>
<beat-type>4</beat-type>
</time>
</attributes>
<barline location="left">
<bar-style>heavy-light</bar-style>
<repeat direction="forward"/>
</barline>
<note>
<pitch>
<step>C</step>
<octave>4</octave>
</pitch>
<duration>8</duration>
<voice>1</voice>
<type>quarter</type>
<accidental>natural</accidental>
<stem>up</stem>
<lyric number="1">
<syllabic>single</syllabic>
<text>Saint,</text>
</lyric>
</note>
<note>
<pitch>
<step>E</step>
<octave>4</octave>
</pitch>
<duration>8</duration>
<voice>1</voice>
<type>quarter</type>
<stem>up</stem>
<lyric number="1">
<syllabic>single</syllabic>
<text>saint,</text>
</lyric>
</note>
<note>
<pitch>
<step>G</step>
<octave>4</octave>
</pitch>
<duration>8</duration>
<voice>1</voice>
<type>quarter</type>
<stem>up</stem>
<lyric number="1">
<syllabic>single</syllabic>
<text>saint</text>
</lyric>
</note>
<note>
<pitch>
<step>A</step>
<octave>4</octave>
</pitch>
<duration>8</duration>
<voice>1</voice>
<type>quarter</type>
<stem>up</stem>
<lyric number="1">
<syllabic>single</syllabic>
<text>est</text>
</lyric>
</note>
<backup>
<duration>32</duration>
</backup>
<note>
<pitch>
<step>C</step>
<octave>4</octave>
</pitch>
<duration>8</duration>
<voice>2</voice>
<type>quarter</type>
<accidental>natural</accidental>
<stem>down</stem>
</note>
<note>
<pitch>
<step>C</step>
<octave>4</octave>
</pitch>
<duration>8</duration>
<voice>2</voice>
<type>quarter</type>
<stem>down</stem>
</note>
<note>
<pitch>
<step>E</step>
<octave>4</octave>
</pitch>
<duration>8</duration>
<voice>2</voice>
<type>quarter</type>
<stem>down</stem>
</note>
<note>
<pitch>
<step>E</step>
<octave>4</octave>
</pitch>
<duration>8</duration>
<voice>2</voice>
<type>quarter</type>
<stem>down</stem>
</note>
</measure>
<measure number="2">
<note>
<pitch>
<step>F</step>
<alter>1</alter>
<octave>4</octave>
</pitch>
<duration>8</duration>
<voice>1</voice>
<type>quarter</type>
<stem>up</stem>
<lyric number="1">
<syllabic>single</syllabic>
<text>le</text>
</lyric>
</note>
<note>
<pitch>
<step>E</step>
<octave>4</octave>
</pitch>
<duration>4</duration>
<voice>1</voice>
<type>eighth</type>
<stem>up</stem>
<beam number="1">begin</beam>
<lyric number="1">
<syllabic>begin</syllabic>
<text>Sei</text>
</lyric>
</note>
<note>
<pitch>
<step>D</step>
<octave>4</octave>
</pitch>
<duration>4</duration>
<tie type="start"/>
<voice>1</voice>
<type>eighth</type>
<stem>up</stem>
<beam number="1">continue</beam>
<notations>
<tied type="start"/>
</notations>
<lyric number="1">
<syllabic>end</syllabic>
<text>gneur,</text>
</lyric>
</note>
<note>
<pitch>
<step>D</step>
<octave>4</octave>
</pitch>
<duration>16</duration>
<tie type="stop"/>
<voice>1</voice>
<type>half</type>
<stem>up</stem>
<notations>
<tied type="stop"/>
</notations>
</note>
<backup>
<duration>32</duration>
</backup>
<note>
<pitch>
<step>D</step>
<octave>4</octave>
</pitch>
<duration>8</duration>
<voice>2</voice>
<type>quarter</type>
<stem>down</stem>
</note>
<note>
<pitch>
<step>E</step>
<octave>4</octave>
</pitch>
<duration>4</duration>
<voice>2</voice>
<type>eighth</type>
<stem>down</stem>
</note>
<note>
<pitch>
<step>D</step>
<octave>4</octave>
</pitch>
<duration>4</duration>
<tie type="start"/>
<voice>2</voice>
<type>eighth</type>
<stem>down</stem>
<notations>
<tied type="start"/>
</notations>
</note>
<note>
<pitch>
<step>D</step>
<octave>4</octave>
</pitch>
<duration>16</duration>
<tie type="stop"/>
<voice>2</voice>
<type>half</type>
<stem>down</stem>
<notations>
<tied type="stop"/>
</notations>
</note>
</measure>
<measure number="3">
<note>
<pitch>
<step>C</step>
<octave>4</octave>
</pitch>
<duration>8</duration>
<voice>1</voice>
<type>quarter</type>
<accidental>natural</accidental>
<stem>up</stem>
<lyric number="1">
<syllabic>single</syllabic>
<text>Dieu</text>
</lyric>
</note>
<note>
<pitch>
<step>E</step>
<octave>4</octave>
</pitch>
<duration>8</duration>
<voice>1</voice>
<type>quarter</type>
<stem>up</stem>
<lyric number="1">
<syllabic>begin</syllabic>
<text>puis</text>
</lyric>
</note>
<note>
<pitch>
<step>G</step>
<octave>4</octave>
</pitch>
<duration>8</duration>
<voice>1</voice>
<type>quarter</type>
<stem>up</stem>
<lyric number="1">
<syllabic>end</syllabic>
<text>sant</text>
</lyric>
</note>
<note>
<pitch>
<step>A</step>
<octave>4</octave>
</pitch>
<duration>8</duration>
<voice>1</voice>
<type>quarter</type>
<stem>up</stem>
<lyric number="1">
<syllabic>single</syllabic>
<text>et</text>
</lyric>
</note>
<backup>
<duration>32</duration>
</backup>
<note>
<pitch>
<step>C</step>
<octave>4</octave>
</pitch>
<duration>8</duration>
<voice>2</voice>
<type>quarter</type>
<accidental>natural</accidental>
<stem>down</stem>
</note>
<note>
<pitch>
<step>C</step>
<octave>4</octave>
</pitch>
<duration>8</duration>
<voice>2</voice>
<type>quarter</type>
<stem>down</stem>
</note>
<note>
<pitch>
<step>C</step>
<octave>4</octave>
</pitch>
<duration>8</duration>
<voice>2</voice>
<type>quarter</type>
<stem>down</stem>
</note>
<note>
<pitch>
<step>C</step>
<octave>4</octave>
</pitch>
<duration>8</duration>
<voice>2</voice>
<type>quarter</type>
<stem>down</stem>
</note>
</measure>
<measure number="4">
<note>
<pitch>
<step>F</step>
<alter>1</alter>
<octave>4</octave>
</pitch>
<duration>32</duration>
<voice>1</voice>
<type>whole</type>
<stem>up</stem>
<lyric number="1">
<syllabic>single</syllabic>
<text>fort;</text>
</lyric>
</note>
<backup>
<duration>32</duration>
</backup>
<note>
<pitch>
<step>D</step>
<octave>4</octave>
</pitch>
<duration>32</duration>
<voice>2</voice>
<type>whole</type>
<stem>down</stem>
</note>
</measure>
<measure number="5">
<note>
<pitch>
<step>C</step>
<octave>4</octave>
</pitch>
<duration>8</duration>
<voice>1</voice>
<type>quarter</type>
<accidental>natural</accidental>
<stem>up</stem>
<lyric number="1">
<syllabic>single</syllabic>
<text>la</text>
</lyric>
</note>
<note>
<pitch>
<step>E</step>
<octave>4</octave>
</pitch>
<duration>8</duration>
<voice>1</voice>
<type>quarter</type>
<stem>up</stem>
<lyric number="1">
<syllabic>single</syllabic>
<text>terre</text>
</lyric>
</note>
<note>
<pitch>
<step>G</step>
<octave>4</octave>
</pitch>
<duration>8</duration>
<voice>1</voice>
<type>quarter</type>
<stem>up</stem>
<lyric number="1">
<syllabic>single</syllabic>
<text>et</text>
</lyric>
</note>
<note>
<pitch>
<step>A</step>
<octave>4</octave>
</pitch>
<duration>8</duration>
<voice>1</voice>
<type>quarter</type>
<stem>up</stem>
<lyric number="1">
<syllabic>single</syllabic>
<text>les</text>
</lyric>
</note>
<backup>
<duration>32</duration>
</backup>
<note>
<pitch>
<step>C</step>
<octave>4</octave>
</pitch>
<duration>8</duration>
<voice>2</voice>
<type>quarter</type>
<accidental>natural</accidental>
<stem>down</stem>
</note>
<note>
<pitch>
<step>C</step>
<octave>4</octave>
</pitch>
<duration>8</duration>
<voice>2</voice>
<type>quarter</type>
<stem>down</stem>
</note>
<note>
<pitch>
<step>E</step>
<octave>4</octave>
</pitch>
<duration>8</duration>
<voice>2</voice>
<type>quarter</type>
<stem>down</stem>
</note>
<note>
<pitch>
<step>E</step>
<octave>4</octave>
</pitch>
<duration>8</duration>
<voice>2</voice>
<type>quarter</type>
<stem>down</stem>
</note>
</measure>
<measure number="6">
<note>
<pitch>
<step>F</step>
<alter>1</alter>
<octave>4</octave>
</pitch>
<duration>8</duration>
<voice>1</voice>
<type>quarter</type>
<stem>up</stem>
<lyric number="1">
<syllabic>single</syllabic>
<text>cieux</text>
</lyric>
</note>
<note>
<pitch>
<step>E</step>
<octave>4</octave>
</pitch>
<duration>4</duration>
<voice>1</voice>
<type>eighth</type>
<stem>up</stem>
<beam number="1">begin</beam>
<lyric number="1">
<syllabic>single</syllabic>
<text>sont</text>
</lyric>
</note>
<note>
<pitch>
<step>D</step>
<octave>4</octave>
</pitch>
<duration>4</duration>
<voice>1</voice>
<type>eighth</type>
<stem>up</stem>
<beam number="1">continue</beam>
<lyric number="1">
<syllabic>begin</syllabic>
<text>rem</text>
</lyric>
</note>
<note>
<pitch>
<step>E</step>
<octave>4</octave>
</pitch>
<duration>8</duration>
<voice>1</voice>
<type>quarter</type>
<stem>up</stem>
<lyric number="1">
<syllabic>end</syllabic>
<text>plis</text>
</lyric>
</note>
<note>
<pitch>
<step>C</step>
<octave>4</octave>
</pitch>
<duration>4</duration>
<voice>1</voice>
<type>eighth</type>
<stem>up</stem>
<beam number="1">begin</beam>
<lyric number="1">
<syllabic>single</syllabic>
<text>de</text>
</lyric>
</note>
<note>
<pitch>
<step>E</step>
<octave>4</octave>
</pitch>
<duration>4</duration>
<voice>1</voice>
<type>eighth</type>
<stem>up</stem>
<beam number="1">continue</beam>
<lyric number="1">
<syllabic>single</syllabic>
<text>ta</text>
</lyric>
</note>
<backup>
<duration>32</duration>
</backup>
<note>
<pitch>
<step>D</step>
<octave>4</octave>
</pitch>
<duration>8</duration>
<voice>2</voice>
<type>quarter</type>
<stem>down</stem>
</note>
<note>
<pitch>
<step>E</step>
<octave>4</octave>
</pitch>
<duration>4</duration>
<voice>2</voice>
<type>eighth</type>
<stem>down</stem>
</note>
<note>
<pitch>
<step>D</step>
<octave>4</octave>
</pitch>
<duration>4</duration>
<voice>2</voice>
<type>eighth</type>
<stem>down</stem>
</note>
<note>
<pitch>
<step>C</step>
<octave>4</octave>
</pitch>
<duration>8</duration>
<voice>2</voice>
<type>quarter</type>
<accidental>natural</accidental>
<stem>down</stem>
</note>
<note>
<pitch>
<step>A</step>
<octave>3</octave>
</pitch>
<duration>4</duration>
<voice>2</voice>
<type>eighth</type>
<stem>down</stem>
</note>
<note>
<pitch>
<step>A</step>
<octave>3</octave>
</pitch>
<duration>4</duration>
<voice>2</voice>
<type>eighth</type>
<stem>down</stem>
</note>
</measure>
<measure number="7">
<note>
<pitch>
<step>D</step>
<octave>4</octave>
</pitch>
<duration>32</duration>
<tie type="start"/>
<voice>1</voice>
<type>whole</type>
<stem>up</stem>
<notations>
<tied type="start"/>
</notations>
<lyric number="1">
<syllabic>single</syllabic>
<text>gloire.</text>
</lyric>
</note>
<backup>
<duration>32</duration>
</backup>
<note>
<pitch>
<step>A</step>
<octave>3</octave>
</pitch>
<duration>32</duration>
<tie type="start"/>
<voice>2</voice>
<type>whole</type>
<stem>down</stem>
<notations>
<tied type="start"/>
</notations>
</note>
</measure>
<measure number="8">
<barline location="left">
<ending type="start" number="1"/>
</barline>
<note>
<pitch>
<step>D</step>
<octave>4</octave>
</pitch>
<duration>16</duration>
<tie type="stop"/>
<voice>1</voice>
<type>half</type>
<stem>up</stem>
<notations>
<tied type="stop"/>
</notations>
</note>
<note>
<rest/>
<duration>16</duration>
<voice>1</voice>
<type>half</type>
</note>
<backup>
<duration>32</duration>
</backup>
<note>
<pitch>
<step>A</step>
<octave>3</octave>
</pitch>
<duration>16</duration>
<tie type="stop"/>
<voice>2</voice>
<type>half</type>
<stem>down</stem>
<notations>
<tied type="stop"/>
</notations>
</note>
<forward>
<duration>16</duration>
<voice>2</voice>
</forward>
<barline location="right">
<bar-style>light-heavy</bar-style>
<ending type="stop" number="1"/>
<repeat direction="backward"/>
</barline>
</measure>
<measure number="9">
<barline location="left">
<ending type="start" number="2"/>
</barline>
<note>
<pitch>
<step>D</step>
<octave>4</octave>
</pitch>
<duration>16</duration>
<tie type="stop"/>
<voice>1</voice>
<type>half</type>
<stem>up</stem>
<notations>
<tied type="stop"/>
</notations>
</note>
<note>
<rest/>
<duration>8</duration>
<voice>1</voice>
<type>quarter</type>
</note>
<note>
<pitch>
<step>A</step>
<octave>4</octave>
</pitch>
<duration>8</duration>
<voice>1</voice>
<type>quarter</type>
<stem>up</stem>
<lyric number="1">
<syllabic>begin</syllabic>
<text>Ho</text>
</lyric>
</note>
<backup>
<duration>32</duration>
</backup>
<note>
<pitch>
<step>A</step>
<octave>3</octave>
</pitch>
<duration>16</duration>
<tie type="stop"/>
<voice>2</voice>
<type>half</type>
<stem>down</stem>
<notations>
<tied type="stop"/>
</notations>
</note>
<forward>
<duration>8</duration>
<voice>2</voice>
</forward>
<note>
<pitch>
<step>F</step>
<alter>1</alter>
<octave>4</octave>
</pitch>
<duration>8</duration>
<voice>2</voice>
<type>quarter</type>
<stem>down</stem>
</note>
</measure>
<measure number="10">
<barline location="left">
<bar-style>heavy-light</bar-style>
<repeat direction="forward"/>
</barline>
<note>
<pitch>
<step>A</step>
<octave>4</octave>
</pitch>
<duration>32</duration>
<voice>1</voice>
<type>whole</type>
<stem>up</stem>
<lyric number="1">
<syllabic>middle</syllabic>
<text>san</text>
</lyric>
</note>
<backup>
<duration>32</duration>
</backup>
<note>
<pitch>
<step>F</step>
<alter>1</alter>
<octave>4</octave>
</pitch>
<duration>32</duration>
<voice>2</voice>
<type>whole</type>
<stem>down</stem>
</note>
</measure>
<measure number="11">
<note>
<pitch>
<step>A</step>
<octave>4</octave>
</pitch>
<duration>24</duration>
<voice>1</voice>
<type>half</type>
<dot/>
<stem>up</stem>
<lyric number="1">
<syllabic>end</syllabic>
<text>na,</text>
</lyric>
</note>
<note>
<pitch>
<step>A</step>
<octave>4</octave>
</pitch>
<duration>8</duration>
<voice>1</voice>
<type>quarter</type>
<stem>up</stem>
<lyric number="1">
<syllabic>begin</syllabic>
<text>Ho</text>
</lyric>
</note>
<backup>
<duration>32</duration>
</backup>
<note>
<pitch>
<step>F</step>
<alter>1</alter>
<octave>4</octave>
</pitch>
<duration>24</duration>
<voice>2</voice>
<type>half</type>
<dot/>
<stem>down</stem>
</note>
<note>
<pitch>
<step>F</step>
<alter>1</alter>
<octave>4</octave>
</pitch>
<duration>8</duration>
<voice>2</voice>
<type>quarter</type>
<stem>down</stem>
</note>
</measure>
<measure number="12">
<note>
<pitch>
<step>C</step>
<octave>5</octave>
</pitch>
<duration>8</duration>
<voice>1</voice>
<type>quarter</type>
<accidental>natural</accidental>
<stem>up</stem>
<notations>
<slur type="start" number="1"/>
</notations>
<lyric number="1">
<syllabic>middle</syllabic>
<text>san</text>
</lyric>
</note>
<note>
<pitch>
<step>B</step>
<octave>4</octave>
</pitch>
<duration>16</duration>
<voice>1</voice>
<type>half</type>
<stem>up</stem>
<notations>
<slur type="continue" number="1"/>
</notations>
</note>
<note>
<pitch>
<step>G</step>
<octave>4</octave>
</pitch>
<duration>4</duration>
<voice>1</voice>
<type>eighth</type>
<stem>up</stem>
<beam number="1">begin</beam>
<notations>
<slur type="continue" number="1"/>
</notations>
</note>
<note>
<pitch>
<step>A</step>
<octave>4</octave>
</pitch>
<duration>4</duration>
<voice>1</voice>
<type>eighth</type>
<stem>up</stem>
<beam number="1">continue</beam>
<notations>
<slur type="stop" number="1"/>
</notations>
</note>
<backup>
<duration>32</duration>
</backup>
<note>
<pitch>
<step>E</step>
<octave>4</octave>
</pitch>
<duration>32</duration>
<voice>2</voice>
<type>whole</type>
<stem>down</stem>
</note>
</measure>
<measure number="13">
<note>
<pitch>
<step>A</step>
<octave>4</octave>
</pitch>
<duration>32</duration>
<voice>1</voice>
<type>whole</type>
<stem>up</stem>
<lyric number="1">
<syllabic>end</syllabic>
<text>na</text>
</lyric>
</note>
<backup>
<duration>32</duration>
</backup>
<note>
<pitch>
<step>F</step>
<alter>1</alter>
<octave>4</octave>
</pitch>
<duration>32</duration>
<voice>2</voice>
<type>whole</type>
<stem>down</stem>
</note>
</measure>
<measure number="14">
<note>
<pitch>
<step>A</step>
<octave>4</octave>
</pitch>
<duration>24</duration>
<voice>1</voice>
<type>half</type>
<dot/>
<stem>up</stem>
<lyric number="1">
<syllabic>single</syllabic>
<text>dans</text>
</lyric>
</note>
<note>
<pitch>
<step>A</step>
<octave>4</octave>
</pitch>
<duration>8</duration>
<voice>1</voice>
<type>quarter</type>
<stem>up</stem>
<lyric number="1">
<syllabic>single</syllabic>
<text>les</text>
</lyric>
</note>
<backup>
<duration>32</duration>
</backup>
<note>
<pitch>
<step>F</step>
<alter>1</alter>
<octave>4</octave>
</pitch>
<duration>24</duration>
<voice>2</voice>
<type>half</type>
<dot/>
<stem>down</stem>
</note>
<note>
<pitch>
<step>F</step>
<alter>1</alter>
<octave>4</octave>
</pitch>
<duration>8</duration>
<voice>2</voice>
<type>quarter</type>
<stem>down</stem>
</note>
</measure>
<measure number="15">
<note>
<pitch>
<step>C</step>
<octave>5</octave>
</pitch>
<duration>8</duration>
<voice>1</voice>
<type>quarter</type>
<accidental>natural</accidental>
<stem>up</stem>
<notations>
<slur type="start" number="1"/>
</notations>
<lyric number="1">
<syllabic>single</syllabic>
<text>lieux</text>
</lyric>
</note>
<note>
<pitch>
<step>B</step>
<octave>4</octave>
</pitch>
<duration>16</duration>
<voice>1</voice>
<type>half</type>
<stem>up</stem>
<notations>
<slur type="stop" number="1"/>
</notations>
</note>
<note>
<pitch>
<step>G</step>
<octave>4</octave>
</pitch>
<duration>4</duration>
<voice>1</voice>
<type>eighth</type>
<stem>up</stem>
<beam number="1">begin</beam>
<notations>
<slur type="start" number="2"/>
</notations>
<lyric number="1">
<syllabic>single</syllabic>
<text>très</text>
</lyric>
</note>
<note>
<pitch>
<step>A</step>
<octave>4</octave>
</pitch>
<duration>4</duration>
<voice>1</voice>
<type>eighth</type>
<stem>up</stem>
<beam number="1">continue</beam>
<notations>
<slur type="stop" number="2"/>
</notations>
</note>
<backup>
<duration>32</duration>
</backup>
<note>
<pitch>
<step>E</step>
<octave>4</octave>
</pitch>
<duration>24</duration>
<voice>2</voice>
<type>half</type>
<dot/>
<stem>down</stem>
</note>
<note>
<pitch>
<step>E</step>
<octave>4</octave>
</pitch>
<duration>8</duration>
<voice>2</voice>
<type>quarter</type>
<stem>down</stem>
</note>
</measure>
<measure number="16">
<note>
<pitch>
<step>A</step>
<octave>4</octave>
</pitch>
<duration>32</duration>
<tie type="start"/>
<voice>1</voice>
<type>whole</type>
<stem>up</stem>
<notations>
<tied type="start"/>
</notations>
<lyric number="1">
<syllabic>single</syllabic>
<text>hauts,</text>
</lyric>
</note>
<backup>
<duration>32</duration>
</backup>
<note>
<pitch>
<step>D</step>
<octave>4</octave>
</pitch>
<duration>32</duration>
<tie type="start"/>
<voice>2</voice>
<type>whole</type>
<stem>down</stem>
<notations>
<tied type="start"/>
</notations>
</note>
</measure>
<measure number="17">
<barline location="left">
<ending type="start" number="1"/>
</barline>
<note>
<pitch>
<step>A</step>
<octave>4</octave>
</pitch>
<duration>24</duration>
<tie type="stop"/>
<voice>1</voice>
<type>half</type>
<dot/>
<stem>up</stem>
<notations>
<tied type="stop"/>
</notations>
</note>
<note>
<pitch>
<step>A</step>
<octave>4</octave>
</pitch>
<duration>8</duration>
<voice>1</voice>
<type>quarter</type>
<stem>up</stem>
<lyric number="1">
<syllabic>single</syllabic>
<text>Ho-</text>
</lyric>
</note>
<backup>
<duration>32</duration>
</backup>
<note>
<pitch>
<step>D</step>
<octave>4</octave>
</pitch>
<duration>24</duration>
<tie type="stop"/>
<voice>2</voice>
<type>half</type>
<dot/>
<stem>down</stem>
<notations>
<tied type="stop"/>
</notations>
</note>
<note>
<pitch>
<step>F</step>
<alter>1</alter>
<octave>4</octave>
</pitch>
<duration>8</duration>
<voice>2</voice>
<type>quarter</type>
<stem>down</stem>
</note>
<barline location="right">
<bar-style>light-heavy</bar-style>
<ending type="stop" number="1"/>
<repeat direction="backward"/>
</barline>
</measure>
<measure number="18">
<barline location="left">
<ending type="start" number="2"/>
</barline>
<note>
<pitch>
<step>A</step>
<octave>4</octave>
</pitch>
<duration>32</duration>
<tie type="stop"/>
<voice>1</voice>
<type>whole</type>
<stem>up</stem>
<notations>
<tied type="stop"/>
</notations>
</note>
<backup>
<duration>32</duration>
</backup>
<note>
<pitch>
<step>D</step>
<octave>4</octave>
</pitch>
<duration>32</duration>
<tie type="stop"/>
<voice>2</voice>
<type>whole</type>
<stem>down</stem>
<notations>
<tied type="stop"/>
</notations>
</note>
<barline location="right">
<bar-style>light-heavy</bar-style>
<ending type="stop" number="2"/>
</barline>
</measure>
</part>
<part id="P2">
<measure number="1">
<attributes>
<divisions>8</divisions>
</attributes>
<attributes>
<clef>
<sign>F</sign>
<line>4</line>
</clef>
</attributes>
<attributes>
<key>
<fifths>2</fifths>
</key>
</attributes>
<attributes>
<time>
<beats>4</beats>
<beat-type>4</beat-type>
</time>
</attributes>
<barline location="left">
<bar-style>heavy-light</bar-style>
<repeat direction="forward"/>
</barline>
<note>
<pitch>
<step>C</step>
<octave>4</octave>
</pitch>
<duration>8</duration>
<voice>1</voice>
<type>quarter</type>
<accidental>natural</accidental>
<stem>up</stem>
</note>
<note>
<pitch>
<step>B</step>
<octave>3</octave>
</pitch>
<duration>8</duration>
<voice>1</voice>
<type>quarter</type>
<stem>up</stem>
</note>
<note>
<pitch>
<step>C</step>
<octave>4</octave>
</pitch>
<duration>8</duration>
<voice>1</voice>
<type>quarter</type>
<stem>up</stem>
</note>
<note>
<pitch>
<step>C</step>
<octave>4</octave>
</pitch>
<duration>8</duration>
<voice>1</voice>
<type>quarter</type>
<stem>up</stem>
</note>
<backup>
<duration>32</duration>
</backup>
<note>
<pitch>
<step>C</step>
<octave>4</octave>
</pitch>
<duration>8</duration>
<voice>2</voice>
<type>quarter</type>
<accidental>natural</accidental>
<stem>down</stem>
</note>
<note>
<pitch>
<step>B</step>
<octave>3</octave>
</pitch>
<duration>8</duration>
<voice>2</voice>
<type>quarter</type>
<stem>down</stem>
</note>
<note>
<pitch>
<step>A</step>
<octave>3</octave>
</pitch>
<duration>8</duration>
<voice>2</voice>
<type>quarter</type>
<stem>down</stem>
</note>
<note>
<pitch>
<step>G</step>
<octave>3</octave>
</pitch>
<duration>8</duration>
<voice>2</voice>
<type>quarter</type>
<stem>down</stem>
</note>
</measure>
<measure number="2">
<note>
<pitch>
<step>A</step>
<octave>3</octave>
</pitch>
<duration>8</duration>
<voice>1</voice>
<type>quarter</type>
<stem>up</stem>
</note>
<note>
<pitch>
<step>G</step>
<octave>3</octave>
</pitch>
<duration>4</duration>
<voice>1</voice>
<type>eighth</type>
<stem>up</stem>
<beam number="1">begin</beam>
</note>
<note>
<pitch>
<step>A</step>
<octave>3</octave>
</pitch>
<duration>4</duration>
<tie type="start"/>
<voice>1</voice>
<type>eighth</type>
<stem>up</stem>
<beam number="1">continue</beam>
<notations>
<tied type="start"/>
</notations>
</note>
<note>
<pitch>
<step>A</step>
<octave>3</octave>
</pitch>
<duration>16</duration>
<tie type="stop"/>
<voice>1</voice>
<type>half</type>
<stem>up</stem>
<notations>
<tied type="stop"/>
</notations>
</note>
<backup>
<duration>32</duration>
</backup>
<note>
<pitch>
<step>F</step>
<alter>1</alter>
<octave>3</octave>
</pitch>
<duration>8</duration>
<voice>2</voice>
<type>quarter</type>
<stem>down</stem>
</note>
<note>
<pitch>
<step>G</step>
<octave>3</octave>
</pitch>
<duration>4</duration>
<voice>2</voice>
<type>eighth</type>
<stem>down</stem>
</note>
<note>
<pitch>
<step>F</step>
<alter>1</alter>
<octave>3</octave>
</pitch>
<duration>4</duration>
<tie type="start"/>
<voice>2</voice>
<type>eighth</type>
<stem>down</stem>
<notations>
<tied type="start"/>
</notations>
</note>
<note>
<pitch>
<step>F</step>
<alter>1</alter>
<octave>3</octave>
</pitch>
<duration>16</duration>
<tie type="stop"/>
<voice>2</voice>
<type>half</type>
<stem>down</stem>
<notations>
<tied type="stop"/>
</notations>
</note>
</measure>
<measure number="3">
<note>
<pitch>
<step>G</step>
<octave>3</octave>
</pitch>
<duration>8</duration>
<voice>1</voice>
<type>quarter</type>
<stem>up</stem>
</note>
<note>
<pitch>
<step>G</step>
<octave>3</octave>
</pitch>
<duration>8</duration>
<voice>1</voice>
<type>quarter</type>
<stem>up</stem>
</note>
<note>
<pitch>
<step>A</step>
<octave>3</octave>
</pitch>
<duration>8</duration>
<voice>1</voice>
<type>quarter</type>
<stem>up</stem>
</note>
<note>
<pitch>
<step>A</step>
<octave>3</octave>
</pitch>
<duration>8</duration>
<voice>1</voice>
<type>quarter</type>
<stem>up</stem>
</note>
<backup>
<duration>32</duration>
</backup>
<note>
<pitch>
<step>E</step>
<octave>3</octave>
</pitch>
<duration>8</duration>
<voice>2</voice>
<type>quarter</type>
<stem>down</stem>
</note>
<note>
<pitch>
<step>E</step>
<octave>3</octave>
</pitch>
<duration>8</duration>
<voice>2</voice>
<type>quarter</type>
<stem>down</stem>
</note>
<note>
<pitch>
<step>E</step>
<octave>3</octave>
</pitch>
<duration>8</duration>
<voice>2</voice>
<type>quarter</type>
<stem>down</stem>
</note>
<note>
<pitch>
<step>E</step>
<octave>3</octave>
</pitch>
<duration>8</duration>
<voice>2</voice>
<type>quarter</type>
<stem>down</stem>
</note>
</measure>
<measure number="4">
<note>
<pitch>
<step>A</step>
<octave>3</octave>
</pitch>
<duration>32</duration>
<voice>1</voice>
<type>whole</type>
<stem>up</stem>
</note>
<backup>
<duration>32</duration>
</backup>
<note>
<pitch>
<step>D</step>
<octave>3</octave>
</pitch>
<duration>32</duration>
<voice>2</voice>
<type>whole</type>
<stem>down</stem>
</note>
</measure>
<measure number="5">
<note>
<pitch>
<step>G</step>
<octave>3</octave>
</pitch>
<duration>8</duration>
<voice>1</voice>
<type>quarter</type>
<stem>up</stem>
</note>
<note>
<pitch>
<step>G</step>
<octave>3</octave>
</pitch>
<duration>8</duration>
<voice>1</voice>
<type>quarter</type>
<stem>up</stem>
</note>
<note>
<pitch>
<step>A</step>
<octave>3</octave>
</pitch>
<duration>8</duration>
<voice>1</voice>
<type>quarter</type>
<stem>up</stem>
</note>
<note>
<pitch>
<step>A</step>
<octave>3</octave>
</pitch>
<duration>8</duration>
<voice>1</voice>
<type>quarter</type>
<stem>up</stem>
</note>
<backup>
<duration>32</duration>
</backup>
<note>
<pitch>
<step>E</step>
<octave>3</octave>
</pitch>
<duration>8</duration>
<voice>2</voice>
<type>quarter</type>
<stem>down</stem>
</note>
<note>
<pitch>
<step>E</step>
<octave>3</octave>
</pitch>
<duration>8</duration>
<voice>2</voice>
<type>quarter</type>
<stem>down</stem>
</note>
<note>
<pitch>
<step>C</step>
<octave>3</octave>
</pitch>
<duration>8</duration>
<voice>2</voice>
<type>quarter</type>
<accidental>natural</accidental>
<stem>down</stem>
</note>
<note>
<pitch>
<step>C</step>
<octave>3</octave>
</pitch>
<duration>8</duration>
<voice>2</voice>
<type>quarter</type>
<stem>down</stem>
</note>
</measure>
<measure number="6">
<note>
<pitch>
<step>A</step>
<octave>3</octave>
</pitch>
<duration>8</duration>
<voice>1</voice>
<type>quarter</type>
<stem>up</stem>
</note>
<note>
<pitch>
<step>G</step>
<octave>3</octave>
</pitch>
<duration>4</duration>
<voice>1</voice>
<type>eighth</type>
<stem>up</stem>
<beam number="1">begin</beam>
</note>
<note>
<pitch>
<step>F</step>
<alter>1</alter>
<octave>3</octave>
</pitch>
<duration>4</duration>
<voice>1</voice>
<type>eighth</type>
<stem>up</stem>
<beam number="1">continue</beam>
</note>
<note>
<pitch>
<step>A</step>
<octave>3</octave>
</pitch>
<duration>8</duration>
<voice>1</voice>
<type>quarter</type>
<stem>up</stem>
</note>
<note>
<pitch>
<step>E</step>
<octave>3</octave>
</pitch>
<duration>4</duration>
<voice>1</voice>
<type>eighth</type>
<stem>up</stem>
<beam number="1">begin</beam>
</note>
<note>
<pitch>
<step>G</step>
<octave>3</octave>
</pitch>
<duration>4</duration>
<voice>1</voice>
<type>eighth</type>
<stem>up</stem>
<beam number="1">continue</beam>
</note>
<backup>
<duration>32</duration>
</backup>
<note>
<pitch>
<step>D</step>
<octave>3</octave>
</pitch>
<duration>8</duration>
<voice>2</voice>
<type>quarter</type>
<stem>down</stem>
</note>
<note>
<pitch>
<step>D</step>
<octave>3</octave>
</pitch>
<duration>4</duration>
<voice>2</voice>
<type>eighth</type>
<stem>down</stem>
</note>
<note>
<pitch>
<step>D</step>
<octave>3</octave>
</pitch>
<duration>4</duration>
<voice>2</voice>
<type>eighth</type>
<stem>down</stem>
</note>
<note>
<pitch>
<step>A</step>
<octave>2</octave>
</pitch>
<duration>8</duration>
<voice>2</voice>
<type>quarter</type>
<stem>down</stem>
</note>
<note>
<pitch>
<step>A</step>
<octave>2</octave>
</pitch>
<duration>4</duration>
<voice>2</voice>
<type>eighth</type>
<stem>down</stem>
</note>
<note>
<pitch>
<step>A</step>
<octave>2</octave>
</pitch>
<duration>4</duration>
<voice>2</voice>
<type>eighth</type>
<stem>down</stem>
</note>
</measure>
<measure number="7">
<note>
<pitch>
<step>F</step>
<alter>1</alter>
<octave>3</octave>
</pitch>
<duration>32</duration>
<tie type="start"/>
<voice>1</voice>
<type>whole</type>
<stem>up</stem>
<notations>
<tied type="start"/>
</notations>
</note>
<backup>
<duration>32</duration>
</backup>
<note>
<pitch>
<step>D</step>
<octave>3</octave>
</pitch>
<duration>32</duration>
<tie type="start"/>
<voice>2</voice>
<type>whole</type>
<stem>down</stem>
<notations>
<tied type="start"/>
</notations>
</note>
</measure>
<measure number="8">
<barline location="left">
<ending type="start" number="1"/>
</barline>
<note>
<pitch>
<step>F</step>
<alter>1</alter>
<octave>3</octave>
</pitch>
<duration>16</duration>
<tie type="stop"/>
<voice>1</voice>
<type>half</type>
<stem>up</stem>
<notations>
<tied type="stop"/>
</notations>
</note>
<note>
<rest/>
<duration>16</duration>
<voice>1</voice>
<type>half</type>
</note>
<backup>
<duration>32</duration>
</backup>
<note>
<pitch>
<step>D</step>
<octave>3</octave>
</pitch>
<duration>16</duration>
<tie type="stop"/>
<voice>2</voice>
<type>half</type>
<stem>down</stem>
<notations>
<tied type="stop"/>
</notations>
</note>
<forward>
<duration>16</duration>
<voice>2</voice>
</forward>
<barline location="right">
<bar-style>light-heavy</bar-style>
<ending type="stop" number="1"/>
<repeat direction="backward"/>
</barline>
</measure>
<measure number="9">
<barline location="left">
<ending type="start" number="2"/>
</barline>
<note>
<pitch>
<step>F</step>
<alter>1</alter>
<octave>3</octave>
</pitch>
<duration>16</duration>
<tie type="stop"/>
<voice>1</voice>
<type>half</type>
<stem>up</stem>
<notations>
<tied type="stop"/>
</notations>
</note>
<note>
<rest/>
<duration>8</duration>
<voice>1</voice>
<type>quarter</type>
</note>
<note>
<pitch>
<step>D</step>
<octave>4</octave>
</pitch>
<duration>8</duration>
<voice>1</voice>
<type>quarter</type>
<stem>up</stem>
</note>
<backup>
<duration>32</duration>
</backup>
<note>
<pitch>
<step>D</step>
<octave>3</octave>
</pitch>
<duration>16</duration>
<tie type="stop"/>
<voice>2</voice>
<type>half</type>
<stem>down</stem>
<notations>
<tied type="stop"/>
</notations>
</note>
<forward>
<duration>8</duration>
<voice>2</voice>
</forward>
<note>
<pitch>
<step>D</step>
<octave>3</octave>
</pitch>
<duration>8</duration>
<voice>2</voice>
<type>quarter</type>
<stem>down</stem>
</note>
</measure>
<measure number="10">
<barline location="left">
<bar-style>heavy-light</bar-style>
<repeat direction="forward"/>
</barline>
<note>
<pitch>
<step>D</step>
<octave>4</octave>
</pitch>
<duration>32</duration>
<voice>1</voice>
<type>whole</type>
<stem>up</stem>
</note>
<backup>
<duration>32</duration>
</backup>
<note>
<pitch>
<step>D</step>
<octave>3</octave>
</pitch>
<duration>32</duration>
<voice>2</voice>
<type>whole</type>
<stem>down</stem>
</note>
</measure>
<measure number="11">
<note>
<pitch>
<step>D</step>
<octave>4</octave>
</pitch>
<duration>24</duration>
<voice>1</voice>
<type>half</type>
<dot/>
<stem>up</stem>
</note>
<note>
<pitch>
<step>D</step>
<octave>4</octave>
</pitch>
<duration>8</duration>
<voice>1</voice>
<type>quarter</type>
<stem>up</stem>
</note>
<backup>
<duration>32</duration>
</backup>
<note>
<pitch>
<step>D</step>
<octave>3</octave>
</pitch>
<duration>24</duration>
<voice>2</voice>
<type>half</type>
<dot/>
<stem>down</stem>
</note>
<note>
<pitch>
<step>D</step>
<octave>3</octave>
</pitch>
<duration>8</duration>
<voice>2</voice>
<type>quarter</type>
<stem>down</stem>
</note>
</measure>
<measure number="12">
<note>
<pitch>
<step>G</step>
<octave>3</octave>
</pitch>
<duration>24</duration>
<voice>1</voice>
<type>half</type>
<dot/>
<stem>up</stem>
<notations>
<slur type="start" number="1"/>
</notations>
</note>
<note>
<pitch>
<step>B</step>
<octave>3</octave>
</pitch>
<duration>8</duration>
<voice>1</voice>
<type>quarter</type>
<stem>up</stem>
<notations>
<slur type="stop" number="1"/>
</notations>
</note>
<backup>
<duration>32</duration>
</backup>
<note>
<pitch>
<step>E</step>
<octave>3</octave>
</pitch>
<duration>32</duration>
<voice>2</voice>
<type>whole</type>
<stem>down</stem>
</note>
</measure>
<measure number="13">
<note>
<pitch>
<step>A</step>
<octave>3</octave>
</pitch>
<duration>32</duration>
<voice>1</voice>
<type>whole</type>
<stem>up</stem>
</note>
<backup>
<duration>32</duration>
</backup>
<note>
<pitch>
<step>D</step>
<octave>3</octave>
</pitch>
<duration>32</duration>
<voice>2</voice>
<type>whole</type>
<stem>down</stem>
</note>
</measure>
<measure number="14">
<note>
<pitch>
<step>A</step>
<octave>3</octave>
</pitch>
<duration>24</duration>
<voice>1</voice>
<type>half</type>
<dot/>
<stem>up</stem>
</note>
<note>
<pitch>
<step>A</step>
<octave>3</octave>
</pitch>
<duration>8</duration>
<voice>1</voice>
<type>quarter</type>
<stem>up</stem>
</note>
<backup>
<duration>32</duration>
</backup>
<note>
<pitch>
<step>D</step>
<octave>3</octave>
</pitch>
<duration>24</duration>
<voice>2</voice>
<type>half</type>
<dot/>
<stem>down</stem>
</note>
<note>
<pitch>
<step>D</step>
<octave>3</octave>
</pitch>
<duration>8</duration>
<voice>2</voice>
<type>quarter</type>
<stem>down</stem>
</note>
</measure>
<measure number="15">
<note>
<pitch>
<step>G</step>
<octave>3</octave>
</pitch>
<duration>24</duration>
<voice>1</voice>
<type>half</type>
<dot/>
<stem>up</stem>
</note>
<note>
<pitch>
<step>B</step>
<octave>3</octave>
</pitch>
<duration>8</duration>
<voice>1</voice>
<type>quarter</type>
<stem>up</stem>
</note>
<backup>
<duration>32</duration>
</backup>
<note>
<pitch>
<step>E</step>
<octave>3</octave>
</pitch>
<duration>24</duration>
<voice>2</voice>
<type>half</type>
<dot/>
<stem>down</stem>
</note>
<note>
<pitch>
<step>E</step>
<octave>3</octave>
</pitch>
<duration>8</duration>
<voice>2</voice>
<type>quarter</type>
<stem>down</stem>
</note>
</measure>
<measure number="16">
<note>
<pitch>
<step>F</step>
<alter>1</alter>
<octave>3</octave>
</pitch>
<duration>32</duration>
<tie type="start"/>
<voice>1</voice>
<type>whole</type>
<stem>up</stem>
<notations>
<tied type="start"/>
</notations>
</note>
<backup>
<duration>32</duration>
</backup>
<note>
<pitch>
<step>D</step>
<octave>3</octave>
</pitch>
<duration>32</duration>
<tie type="start"/>
<voice>2</voice>
<type>whole</type>
<stem>down</stem>
<notations>
<tied type="start"/>
</notations>
</note>
</measure>
<measure number="17">
<barline location="left">
<ending type="start" number="1"/>
</barline>
<note>
<pitch>
<step>F</step>
<alter>1</alter>
<octave>3</octave>
</pitch>
<duration>24</duration>
<tie type="stop"/>
<voice>1</voice>
<type>half</type>
<dot/>
<stem>up</stem>
<notations>
<tied type="stop"/>
</notations>
</note>
<note>
<pitch>
<step>D</step>
<octave>4</octave>
</pitch>
<duration>8</duration>
<voice>1</voice>
<type>quarter</type>
<stem>up</stem>
</note>
<backup>
<duration>32</duration>
</backup>
<note>
<pitch>
<step>D</step>
<octave>3</octave>
</pitch>
<duration>24</duration>
<tie type="stop"/>
<voice>2</voice>
<type>half</type>
<dot/>
<stem>down</stem>
<notations>
<tied type="stop"/>
</notations>
</note>
<note>
<pitch>
<step>D</step>
<octave>3</octave>
</pitch>
<duration>8</duration>
<voice>2</voice>
<type>quarter</type>
<stem>down</stem>
</note>
<barline location="right">
<bar-style>light-heavy</bar-style>
<ending type="stop" number="1"/>
<repeat direction="backward"/>
</barline>
</measure>
<measure number="18">
<barline location="left">
<ending type="start" number="2"/>
</barline>
<note>
<pitch>
<step>F</step>
<alter>1</alter>
<octave>3</octave>
</pitch>
<duration>32</duration>
<tie type="stop"/>
<voice>1</voice>
<type>whole</type>
<stem>up</stem>
<notations>
<tied type="stop"/>
</notations>
</note>
<backup>
<duration>32</duration>
</backup>
<note>
<pitch>
<step>D</step>
<octave>3</octave>
</pitch>
<duration>32</duration>
<tie type="stop"/>
<voice>2</voice>
<type>whole</type>
<stem>down</stem>
<notations>
<tied type="stop"/>
</notations>
</note>
<barline location="right">
<bar-style>light-heavy</bar-style>
<ending type="stop" number="2"/>
</barline>
</measure>
</part>
</score-partwise>
