<?xml version="1.0" encoding="UTF-8" standalone='no'?>
<!DOCTYPE score-partwise PUBLIC "-//Recordare//DTD MusicXML 1.0 Partwise//EN" "http://www.musicxml.org/dtds/partwise.dtd">
<score-partwise>
<work>
<work-title>Oh! que c'est chose belle</work-title>
</work>
<identification>
<rights>© Inconnu</rights>
<encoding>
<software>Noteworthy Composer</software>
<encoding-date>2007-02-17</encoding-date>
</encoding>
</identification>
<part-list>
<score-part id="P1">
<part-name>Voix des femmes</part-name>
<score-instrument id="P1-I1">
<instrument-name>String Ensemble 1</instrument-name>
</score-instrument>
<midi-instrument id="P1-I1">
<midi-channel>1</midi-channel>
<midi-program>50</midi-program>
</midi-instrument>
</score-part>
<score-part id="P2">
<part-name>Voix des hommes</part-name>
<score-instrument id="P2-I1">
<instrument-name>String Ensemble 1</instrument-name>
</score-instrument>
<midi-instrument id="P2-I1">
<midi-channel>2</midi-channel>
<midi-program>50</midi-program>
</midi-instrument>
</score-part>
</part-list>
<part id="P1">
<measure number="1">
<attributes>
<divisions>4</divisions>
</attributes>
<attributes>
<clef>
<sign>G</sign>
<line>2</line>
</clef>
</attributes>
<attributes>
<key>
<fifths>1</fifths>
</key>
</attributes>
<attributes>
<time>
<beats>1</beats>
<beat-type>2</beat-type>
</time>
</attributes>
<note>
<pitch>
<step>G</step>
<octave>4</octave>
</pitch>
<duration>8</duration>
<type>half</type>
<stem>up</stem>
<lyric number="1">
<syllabic>single</syllabic>
<text>1. Oh!</text>
</lyric>
<lyric number="2">
<syllabic>begin</syllabic>
<text>2. Com</text>
</lyric>
</note>
<note>
<chord/>
<pitch>
<step>B</step>
<octave>4</octave>
</pitch>
<duration>8</duration>
<type>half</type>
<stem>up</stem>
</note>
</measure>
<measure number="2">
<note>
<pitch>
<step>F</step>
<alter>1</alter>
<octave>4</octave>
</pitch>
<duration>4</duration>
<type>quarter</type>
<stem>up</stem>
<lyric number="1">
<syllabic>single</syllabic>
<text>que</text>
</lyric>
<lyric number="2">
<syllabic>end</syllabic>
<text>bien</text>
</lyric>
</note>
<note>
<chord/>
<pitch>
<step>B</step>
<octave>4</octave>
</pitch>
<duration>4</duration>
<type>quarter</type>
<stem>up</stem>
</note>
<note>
<pitch>
<step>G</step>
<octave>4</octave>
</pitch>
<duration>4</duration>
<type>quarter</type>
<stem>up</stem>
<lyric number="1">
<syllabic>single</syllabic>
<text>c'est</text>
</lyric>
<lyric number="2">
<syllabic>single</syllabic>
<text>grande</text>
</lyric>
</note>
<note>
<chord/>
<pitch>
<step>B</step>
<octave>4</octave>
</pitch>
<duration>4</duration>
<type>quarter</type>
<stem>up</stem>
</note>
</measure>
<measure number="3">
<note>
<pitch>
<step>B</step>
<octave>4</octave>
</pitch>
<duration>4</duration>
<type>quarter</type>
<stem>down</stem>
<lyric number="1">
<syllabic>begin</syllabic>
<text>cho</text>
</lyric>
<lyric number="2">
<syllabic>single</syllabic>
<text>est</text>
</lyric>
</note>
<note>
<chord/>
<pitch>
<step>E</step>
<octave>5</octave>
</pitch>
<duration>4</duration>
<type>quarter</type>
<stem>down</stem>
</note>
<note>
<pitch>
<step>A</step>
<octave>4</octave>
</pitch>
<duration>4</duration>
<type>quarter</type>
<stem>down</stem>
<lyric number="1">
<syllabic>end</syllabic>
<text>se</text>
</lyric>
<lyric number="2">
<syllabic>single</syllabic>
<text>ta</text>
</lyric>
</note>
<note>
<chord/>
<pitch>
<step>D</step>
<octave>5</octave>
</pitch>
<duration>4</duration>
<type>quarter</type>
<stem>down</stem>
</note>
</measure>
<measure number="4">
<note>
<pitch>
<step>A</step>
<octave>4</octave>
</pitch>
<duration>8</duration>
<type>half</type>
<stem>down</stem>
<lyric number="1">
<syllabic>begin</syllabic>
<text>bel</text>
</lyric>
<lyric number="2">
<syllabic>begin</syllabic>
<text>gloi</text>
</lyric>
</note>
<note>
<chord/>
<pitch>
<step>C</step>
<alter>1</alter>
<octave>5</octave>
</pitch>
<duration>8</duration>
<type>half</type>
<accidental>sharp</accidental>
<stem>down</stem>
</note>
</measure>
<measure number="5">
<note>
<pitch>
<step>F</step>
<alter>1</alter>
<octave>4</octave>
</pitch>
<duration>4</duration>
<type>quarter</type>
<stem>up</stem>
<lyric number="1">
<syllabic>end</syllabic>
<text>le</text>
</lyric>
<lyric number="2">
<syllabic>end</syllabic>
<text>re</text>
</lyric>
</note>
<note>
<chord/>
<pitch>
<step>B</step>
<octave>4</octave>
</pitch>
<duration>4</duration>
<type>quarter</type>
<stem>up</stem>
</note>
<note>
<pitch>
<step>G</step>
<octave>4</octave>
</pitch>
<duration>4</duration>
<type>quarter</type>
<stem>down</stem>
<lyric number="1">
<syllabic>single</syllabic>
<text>de</text>
</lyric>
<lyric number="2">
<syllabic>single</syllabic>
<text>en</text>
</lyric>
</note>
<note>
<chord/>
<pitch>
<step>D</step>
<octave>5</octave>
</pitch>
<duration>4</duration>
<type>quarter</type>
<stem>down</stem>
</note>
</measure>
<measure number="6">
<note>
<pitch>
<step>E</step>
<octave>4</octave>
</pitch>
<duration>4</duration>
<type>quarter</type>
<stem>up</stem>
<lyric number="1">
<syllabic>single</syllabic>
<text>te</text>
</lyric>
<lyric number="2">
<syllabic>single</syllabic>
<text>tout</text>
</lyric>
</note>
<note>
<chord/>
<pitch>
<step>C</step>
<alter>1</alter>
<octave>5</octave>
</pitch>
<duration>4</duration>
<type>quarter</type>
<accidental>sharp</accidental>
<stem>up</stem>
</note>
<note>
<pitch>
<step>E</step>
<octave>4</octave>
</pitch>
<duration>4</duration>
<type>quarter</type>
<stem>up</stem>
<lyric number="1">
<syllabic>begin</syllabic>
<text>lou</text>
</lyric>
<lyric number="2">
<syllabic>single</syllabic>
<text>ce</text>
</lyric>
</note>
<note>
<chord/>
<pitch>
<step>B</step>
<octave>4</octave>
</pitch>
<duration>4</duration>
<type>quarter</type>
<stem>up</stem>
</note>
</measure>
<measure number="7">
<note>
<pitch>
<step>B</step>
<octave>3</octave>
</pitch>
<duration>4</duration>
<type>quarter</type>
<stem>up</stem>
<lyric number="1">
<syllabic>end</syllabic>
<text>er,</text>
</lyric>
<lyric number="2">
<syllabic>single</syllabic>
<text>que</text>
</lyric>
</note>
<note>
<chord/>
<pitch>
<step>B</step>
<octave>4</octave>
</pitch>
<duration>4</duration>
<type>quarter</type>
<stem>up</stem>
</note>
<note>
<pitch>
<step>E</step>
<octave>4</octave>
</pitch>
<duration>4</duration>
<type>quarter</type>
<stem>up</stem>
<lyric number="1">
<syllabic>begin</syllabic>
<text>Sei</text>
</lyric>
<lyric number="2">
<syllabic>single</syllabic>
<text>tu</text>
</lyric>
</note>
<note>
<chord/>
<pitch>
<step>A</step>
<alter>1</alter>
<octave>4</octave>
</pitch>
<duration>4</duration>
<type>quarter</type>
<accidental>sharp</accidental>
<stem>up</stem>
</note>
</measure>
<measure number="8">
<note>
<pitch>
<step>D</step>
<octave>4</octave>
</pitch>
<duration>8</duration>
<type>half</type>
<stem>up</stem>
<lyric number="1">
<syllabic>end</syllabic>
<text>gneur,</text>
</lyric>
<lyric number="2">
<syllabic>single</syllabic>
<text>fais,</text>
</lyric>
</note>
<note>
<chord/>
<pitch>
<step>B</step>
<octave>4</octave>
</pitch>
<duration>8</duration>
<type>half</type>
<stem>up</stem>
</note>
</measure>
<measure number="9">
<note>
<rest/>
<duration>4</duration>
<type>half</type>
</note>
</measure>
<measure number="10">
<note>
<pitch>
<step>D</step>
<octave>4</octave>
</pitch>
<duration>8</duration>
<type>half</type>
<stem>up</stem>
<lyric number="1">
<syllabic>single</syllabic>
<text>de</text>
</lyric>
<lyric number="2">
<syllabic>single</syllabic>
<text>et</text>
</lyric>
</note>
<note>
<chord/>
<pitch>
<step>B</step>
<octave>4</octave>
</pitch>
<duration>8</duration>
<type>half</type>
<stem>up</stem>
</note>
</measure>
<measure number="11">
<note>
<pitch>
<step>E</step>
<octave>4</octave>
</pitch>
<duration>4</duration>
<type>quarter</type>
<stem>up</stem>
<lyric number="1">
<syllabic>begin</syllabic>
<text>chan</text>
</lyric>
<lyric number="2">
<syllabic>begin</syllabic>
<text>com</text>
</lyric>
</note>
<note>
<chord/>
<pitch>
<step>B</step>
<octave>4</octave>
</pitch>
<duration>4</duration>
<type>quarter</type>
<stem>up</stem>
</note>
<note>
<pitch>
<step>F</step>
<alter>1</alter>
<octave>4</octave>
</pitch>
<duration>4</duration>
<type>quarter</type>
<stem>up</stem>
<lyric number="1">
<syllabic>end</syllabic>
<text>ter</text>
</lyric>
<lyric number="2">
<syllabic>end</syllabic>
<text>bien</text>
</lyric>
</note>
<note>
<chord/>
<pitch>
<step>B</step>
<octave>4</octave>
</pitch>
<duration>4</duration>
<type>quarter</type>
<stem>up</stem>
</note>
</measure>
<measure number="12">
<note>
<pitch>
<step>C</step>
<octave>5</octave>
</pitch>
<duration>8</duration>
<voice>1</voice>
<type>half</type>
<accidental>natural</accidental>
<stem>up</stem>
<lyric number="1">
<syllabic>single</syllabic>
<text>ton</text>
</lyric>
<lyric number="2">
<syllabic>single</syllabic>
<text>tes</text>
</lyric>
</note>
<note>
<pitch>
<step>G</step>
<octave>4</octave>
</pitch>
<duration>4</duration>
<voice>1</voice>
<type>quarter</type>
<notations>
<slur type="stop" number="1"/>
</notations>
</note>
<backup>
<duration>12</duration>
</backup>
<note>
<pitch>
<step>A</step>
<octave>4</octave>
</pitch>
<duration>4</duration>
<voice>2</voice>
<type>quarter</type>
<stem>down</stem>
<notations>
<slur type="start" number="2"/>
</notations>
</note>
</measure>
<measure number="13">
<note>
<pitch>
<step>A</step>
<octave>4</octave>
</pitch>
<duration>8</duration>
<voice>1</voice>
<type>half</type>
<stem>up</stem>
<lyric number="1">
<syllabic>begin</syllabic>
<text>hon</text>
</lyric>
<lyric number="2">
<syllabic>single</syllabic>
<text>hauts</text>
</lyric>
</note>
<note>
<pitch>
<step>F</step>
<alter>1</alter>
<octave>4</octave>
</pitch>
<duration>4</duration>
<voice>1</voice>
<type>quarter</type>
<notations>
<slur type="stop" number="1"/>
</notations>
</note>
<backup>
<duration>12</duration>
</backup>
<note>
<pitch>
<step>G</step>
<octave>4</octave>
</pitch>
<duration>4</duration>
<voice>2</voice>
<type>quarter</type>
<stem>down</stem>
<notations>
<slur type="start" number="2"/>
</notations>
</note>
</measure>
<measure number="14">
<note>
<pitch>
<step>D</step>
<octave>4</octave>
</pitch>
<duration>4</duration>
<type>quarter</type>
<stem>up</stem>
<lyric number="1">
<syllabic>end</syllabic>
<text>neur</text>
</lyric>
<lyric number="2">
<syllabic>single</syllabic>
<text>faits</text>
</lyric>
</note>
<note>
<chord/>
<pitch>
<step>G</step>
<octave>4</octave>
</pitch>
<duration>4</duration>
<type>quarter</type>
<stem>up</stem>
</note>
<note>
<pitch>
<step>E</step>
<octave>4</octave>
</pitch>
<duration>4</duration>
<type>quarter</type>
<stem>up</stem>
<lyric number="1">
<syllabic>single</syllabic>
<text>d'un</text>
</lyric>
<lyric number="2">
<syllabic>single</syllabic>
<text>sont</text>
</lyric>
</note>
<note>
<chord/>
<pitch>
<step>G</step>
<octave>4</octave>
</pitch>
<duration>4</duration>
<type>quarter</type>
<stem>up</stem>
</note>
</measure>
<measure number="15">
<note>
<pitch>
<step>F</step>
<alter>1</alter>
<octave>4</octave>
</pitch>
<duration>4</duration>
<type>quarter</type>
<stem>up</stem>
<lyric number="1">
<syllabic>single</syllabic>
<text>coeur</text>
</lyric>
<lyric number="2">
<syllabic>begin</syllabic>
<text>di</text>
</lyric>
</note>
<note>
<chord/>
<pitch>
<step>A</step>
<octave>4</octave>
</pitch>
<duration>4</duration>
<type>quarter</type>
<stem>up</stem>
</note>
<note>
<pitch>
<step>G</step>
<octave>4</octave>
</pitch>
<duration>4</duration>
<type>quarter</type>
<stem>up</stem>
<lyric number="1">
<syllabic>single</syllabic>
<text>humble</text>
</lyric>
<lyric number="2">
<syllabic>end</syllabic>
<text>gnes</text>
</lyric>
</note>
<note>
<chord/>
<pitch>
<step>B</step>
<octave>4</octave>
</pitch>
<duration>4</duration>
<type>quarter</type>
<stem>up</stem>
</note>
</measure>
<measure number="16">
<note>
<pitch>
<step>E</step>
<octave>4</octave>
</pitch>
<duration>4</duration>
<voice>1</voice>
<type>quarter</type>
<stem>up</stem>
<lyric number="1">
<syllabic>single</syllabic>
<text>et</text>
</lyric>
<lyric number="2">
<syllabic>single</syllabic>
<text>de</text>
</lyric>
</note>
<note>
<pitch>
<step>D</step>
<octave>4</octave>
</pitch>
<duration>4</duration>
<voice>1</voice>
<type>quarter</type>
<stem>up</stem>
<lyric number="1">
<syllabic>begin</syllabic>
<text>fi</text>
</lyric>
<lyric number="2">
<syllabic>begin</syllabic>
<text>mé</text>
</lyric>
</note>
<note>
<chord/>
<pitch>
<step>G</step>
<octave>4</octave>
</pitch>
<duration>4</duration>
<voice>1</voice>
<type>quarter</type>
<stem>up</stem>
</note>
<backup>
<duration>8</duration>
</backup>
<note>
<pitch>
<step>E</step>
<octave>4</octave>
</pitch>
<duration>4</duration>
<voice>2</voice>
<type>quarter</type>
<stem>down</stem>
</note>
<forward>
<duration>4</duration>
<voice>2</voice>
</forward>
</measure>
<measure number="17">
<note>
<pitch>
<step>D</step>
<octave>4</octave>
</pitch>
<duration>8</duration>
<type>half</type>
<stem>up</stem>
<lyric number="1">
<syllabic>middle</syllabic>
<text>dè</text>
</lyric>
<lyric number="2">
<syllabic>middle</syllabic>
<text>moi</text>
</lyric>
</note>
<note>
<chord/>
<pitch>
<step>F</step>
<alter>1</alter>
<octave>4</octave>
</pitch>
<duration>8</duration>
<type>half</type>
<stem>up</stem>
</note>
</measure>
<measure number="18">
<note>
<pitch>
<step>B</step>
<octave>3</octave>
</pitch>
<duration>8</duration>
<type>half</type>
<stem>up</stem>
<lyric number="1">
<syllabic>end</syllabic>
<text>le,</text>
</lyric>
<lyric number="2">
<syllabic>end</syllabic>
<text>re!</text>
</lyric>
</note>
<note>
<chord/>
<pitch>
<step>E</step>
<octave>4</octave>
</pitch>
<duration>8</duration>
<type>half</type>
<stem>up</stem>
</note>
</measure>
<measure number="19">
<note>
<rest/>
<duration>4</duration>
<type>half</type>
</note>
</measure>
<measure number="20">
<note>
<pitch>
<step>E</step>
<octave>4</octave>
</pitch>
<duration>8</duration>
<type>half</type>
<stem>up</stem>
<lyric number="1">
<syllabic>single</syllabic>
<text>quand</text>
</lyric>
<lyric number="2">
<syllabic>single</syllabic>
<text>Tes</text>
</lyric>
</note>
<note>
<chord/>
<pitch>
<step>G</step>
<octave>4</octave>
</pitch>
<duration>8</duration>
<type>half</type>
<stem>up</stem>
</note>
</measure>
<measure number="21">
<note>
<pitch>
<step>D</step>
<octave>4</octave>
</pitch>
<duration>4</duration>
<type>quarter</type>
<stem>up</stem>
<lyric number="1">
<syllabic>single</syllabic>
<text>le</text>
</lyric>
<lyric number="2">
<syllabic>begin</syllabic>
<text>oeu</text>
</lyric>
</note>
<note>
<chord/>
<pitch>
<step>F</step>
<alter>1</alter>
<octave>4</octave>
</pitch>
<duration>4</duration>
<type>quarter</type>
<stem>up</stem>
</note>
<note>
<pitch>
<step>C</step>
<octave>4</octave>
</pitch>
<duration>4</duration>
<type>quarter</type>
<stem>up</stem>
<lyric number="1">
<syllabic>single</syllabic>
<text>jour</text>
</lyric>
<lyric number="2">
<syllabic>end</syllabic>
<text>vres</text>
</lyric>
</note>
<note>
<chord/>
<pitch>
<step>E</step>
<octave>4</octave>
</pitch>
<duration>4</duration>
<type>quarter</type>
<stem>up</stem>
</note>
</measure>
<measure number="22">
<note>
<pitch>
<step>E</step>
<octave>4</octave>
</pitch>
<duration>4</duration>
<type>quarter</type>
<stem>up</stem>
<lyric number="1">
<syllabic>single</syllabic>
<text>vient</text>
</lyric>
<lyric number="2">
<syllabic>single</syllabic>
<text>sans</text>
</lyric>
</note>
<note>
<chord/>
<pitch>
<step>G</step>
<octave>4</octave>
</pitch>
<duration>4</duration>
<type>quarter</type>
<stem>up</stem>
</note>
<note>
<pitch>
<step>F</step>
<alter>1</alter>
<octave>4</octave>
</pitch>
<duration>4</duration>
<type>quarter</type>
<stem>up</stem>
<lyric number="1">
<syllabic>single</syllabic>
<text>à</text>
</lyric>
<lyric number="2">
<syllabic>begin</syllabic>
<text>pa</text>
</lyric>
</note>
<note>
<chord/>
<pitch>
<step>A</step>
<octave>4</octave>
</pitch>
<duration>4</duration>
<type>quarter</type>
<stem>up</stem>
</note>
</measure>
<measure number="23">
<note>
<pitch>
<step>G</step>
<octave>4</octave>
</pitch>
<duration>8</duration>
<type>half</type>
<stem>up</stem>
<lyric number="1">
<syllabic>begin</syllabic>
<text>naî</text>
</lyric>
<lyric number="2">
<syllabic>middle</syllabic>
<text>reil</text>
</lyric>
</note>
<note>
<chord/>
<pitch>
<step>B</step>
<octave>4</octave>
</pitch>
<duration>8</duration>
<type>half</type>
<stem>up</stem>
</note>
</measure>
<measure number="24">
<note>
<pitch>
<step>G</step>
<octave>4</octave>
</pitch>
<duration>4</duration>
<type>quarter</type>
<stem>up</stem>
<lyric number="1">
<syllabic>end</syllabic>
<text>tre,</text>
</lyric>
<lyric number="2">
<syllabic>end</syllabic>
<text>les</text>
</lyric>
</note>
<note>
<chord/>
<pitch>
<step>B</step>
<octave>4</octave>
</pitch>
<duration>4</duration>
<type>quarter</type>
<stem>up</stem>
</note>
<note>
<pitch>
<step>B</step>
<octave>4</octave>
</pitch>
<duration>4</duration>
<type>quarter</type>
<stem>down</stem>
<lyric number="1">
<syllabic>begin</syllabic>
<text>d'an</text>
</lyric>
<lyric number="2">
<syllabic>single</syllabic>
<text>ont</text>
</lyric>
</note>
<note>
<chord/>
<pitch>
<step>D</step>
<octave>5</octave>
</pitch>
<duration>4</duration>
<type>quarter</type>
<stem>down</stem>
</note>
</measure>
<measure number="25">
<note>
<pitch>
<step>B</step>
<octave>4</octave>
</pitch>
<duration>4</duration>
<type>quarter</type>
<stem>down</stem>
<lyric number="1">
<syllabic>middle</syllabic>
<text>non</text>
</lyric>
<lyric number="2">
<syllabic>begin</syllabic>
<text>ré</text>
</lyric>
</note>
<note>
<chord/>
<pitch>
<step>C</step>
<alter>1</alter>
<octave>5</octave>
</pitch>
<duration>4</duration>
<type>quarter</type>
<accidental>sharp</accidental>
<stem>down</stem>
</note>
<note>
<pitch>
<step>A</step>
<octave>4</octave>
</pitch>
<duration>4</duration>
<type>quarter</type>
<stem>down</stem>
<lyric number="1">
<syllabic>end</syllabic>
<text>cer</text>
</lyric>
<lyric number="2">
<syllabic>middle</syllabic>
<text>jou</text>
</lyric>
</note>
<note>
<chord/>
<pitch>
<step>D</step>
<octave>5</octave>
</pitch>
<duration>4</duration>
<type>quarter</type>
<stem>down</stem>
</note>
</measure>
<measure number="26">
<note>
<pitch>
<step>B</step>
<octave>4</octave>
</pitch>
<duration>4</duration>
<type>quarter</type>
<stem>down</stem>
<lyric number="1">
<syllabic>single</syllabic>
<text>ta</text>
</lyric>
<lyric number="2">
<syllabic>end</syllabic>
<text>i</text>
</lyric>
</note>
<note>
<chord/>
<pitch>
<step>E</step>
<octave>5</octave>
</pitch>
<duration>4</duration>
<type>quarter</type>
<stem>down</stem>
</note>
<note>
<pitch>
<step>A</step>
<octave>4</octave>
</pitch>
<duration>4</duration>
<type>quarter</type>
<stem>down</stem>
<lyric number="1">
<syllabic>begin</syllabic>
<text>bon</text>
</lyric>
<lyric number="2">
<syllabic>single</syllabic>
<text>mon</text>
</lyric>
</note>
<note>
<chord/>
<pitch>
<step>C</step>
<alter>1</alter>
<octave>5</octave>
</pitch>
<duration>4</duration>
<type>quarter</type>
<accidental>sharp</accidental>
<stem>down</stem>
</note>
</measure>
<measure number="27">
<note>
<pitch>
<step>F</step>
<alter>1</alter>
<octave>4</octave>
</pitch>
<duration>8</duration>
<type>half</type>
<stem>up</stem>
<lyric number="1">
<syllabic>end</syllabic>
<text>té,</text>
</lyric>
<lyric number="2">
<syllabic>single</syllabic>
<text>coeur.</text>
</lyric>
</note>
<note>
<chord/>
<pitch>
<step>B</step>
<octave>4</octave>
</pitch>
<duration>8</duration>
<type>half</type>
<stem>up</stem>
</note>
</measure>
<measure number="28">
<note>
<rest/>
<duration>4</duration>
<type>half</type>
</note>
</measure>
<measure number="29">
<note>
<pitch>
<step>C</step>
<alter>1</alter>
<octave>4</octave>
</pitch>
<duration>8</duration>
<type>half</type>
<accidental>sharp</accidental>
<stem>up</stem>
<lyric number="1">
<syllabic>single</syllabic>
<text>et</text>
</lyric>
<lyric number="2">
<syllabic>single</syllabic>
<text>Je</text>
</lyric>
</note>
<note>
<chord/>
<pitch>
<step>E</step>
<octave>4</octave>
</pitch>
<duration>8</duration>
<type>half</type>
<stem>up</stem>
</note>
</measure>
<measure number="30">
<note>
<pitch>
<step>D</step>
<octave>4</octave>
</pitch>
<duration>4</duration>
<type>quarter</type>
<stem>up</stem>
<lyric number="1">
<syllabic>single</syllabic>
<text>ta</text>
</lyric>
<lyric number="2">
<syllabic>single</syllabic>
<text>veux</text>
</lyric>
</note>
<note>
<chord/>
<pitch>
<step>B</step>
<octave>4</octave>
</pitch>
<duration>4</duration>
<type>quarter</type>
<stem>up</stem>
</note>
<note>
<pitch>
<step>D</step>
<octave>4</octave>
</pitch>
<duration>4</duration>
<type>quarter</type>
<stem>up</stem>
<lyric number="1">
<syllabic>begin</syllabic>
<text>fi</text>
</lyric>
<lyric number="2">
<syllabic>begin</syllabic>
<text>chan</text>
</lyric>
</note>
<note>
<chord/>
<pitch>
<step>B</step>
<octave>4</octave>
</pitch>
<duration>4</duration>
<type>quarter</type>
<stem>up</stem>
</note>
</measure>
<measure number="31">
<note>
<pitch>
<step>A</step>
<octave>4</octave>
</pitch>
<duration>8</duration>
<voice>1</voice>
<type>half</type>
<stem>up</stem>
<lyric number="1">
<syllabic>middle</syllabic>
<text>dé</text>
</lyric>
<lyric number="2">
<syllabic>end</syllabic>
<text>ter,</text>
</lyric>
</note>
<note>
<pitch>
<step>D</step>
<octave>4</octave>
</pitch>
<duration>4</duration>
<voice>1</voice>
<type>quarter</type>
<notations>
<slur type="stop" number="1"/>
</notations>
</note>
<backup>
<duration>12</duration>
</backup>
<note>
<pitch>
<step>C</step>
<alter>1</alter>
<octave>4</octave>
</pitch>
<duration>4</duration>
<voice>2</voice>
<type>quarter</type>
<accidental>sharp</accidental>
<stem>down</stem>
<notations>
<slur type="start" number="2"/>
</notations>
</note>
</measure>
<measure number="32">
<note>
<pitch>
<step>E</step>
<octave>4</octave>
</pitch>
<duration>8</duration>
<type>half</type>
<stem>up</stem>
<lyric number="1">
<syllabic>middle</syllabic>
<text>li</text>
</lyric>
<lyric number="2">
<syllabic>begin</syllabic>
<text>Sei</text>
</lyric>
</note>
<note>
<chord/>
<pitch>
<step>G</step>
<octave>4</octave>
</pitch>
<duration>8</duration>
<type>half</type>
<stem>up</stem>
</note>
</measure>
<measure number="33">
<note>
<pitch>
<step>F</step>
<alter>1</alter>
<octave>4</octave>
</pitch>
<duration>4</duration>
<voice>1</voice>
<type>quarter</type>
<stem>up</stem>
<lyric number="1">
<syllabic>end</syllabic>
<text>té,</text>
</lyric>
<lyric number="2">
<syllabic>end</syllabic>
<text>gneur,</text>
</lyric>
</note>
<note>
<pitch>
<step>F</step>
<alter>1</alter>
<octave>4</octave>
</pitch>
<duration>4</duration>
<voice>1</voice>
<type>quarter</type>
<stem>up</stem>
<lyric number="1">
<syllabic>single</syllabic>
<text>quand</text>
</lyric>
<lyric number="2">
<syllabic>single</syllabic>
<text>tes</text>
</lyric>
</note>
<note>
<chord/>
<pitch>
<step>B</step>
<octave>4</octave>
</pitch>
<duration>4</duration>
<voice>1</voice>
<type>quarter</type>
<stem>up</stem>
</note>
<backup>
<duration>8</duration>
</backup>
<note>
<pitch>
<step>F</step>
<alter>1</alter>
<octave>4</octave>
</pitch>
<duration>4</duration>
<voice>2</voice>
<type>quarter</type>
<stem>down</stem>
</note>
<forward>
<duration>4</duration>
<voice>2</voice>
</forward>
</measure>
<measure number="34">
<note>
<pitch>
<step>G</step>
<octave>4</octave>
</pitch>
<duration>4</duration>
<type>quarter</type>
<stem>up</stem>
<lyric number="1">
<syllabic>single</syllabic>
<text>la</text>
</lyric>
<lyric number="2">
<syllabic>begin</syllabic>
<text>di</text>
</lyric>
</note>
<note>
<chord/>
<pitch>
<step>B</step>
<octave>4</octave>
</pitch>
<duration>4</duration>
<type>quarter</type>
<stem>up</stem>
</note>
<note>
<pitch>
<step>E</step>
<octave>4</octave>
</pitch>
<duration>4</duration>
<type>quarter</type>
<stem>up</stem>
<lyric number="1">
<syllabic>single</syllabic>
<text>nuit</text>
</lyric>
<lyric number="2">
<syllabic>middle</syllabic>
<text>vi</text>
</lyric>
</note>
<note>
<chord/>
<pitch>
<step>A</step>
<octave>4</octave>
</pitch>
<duration>4</duration>
<type>quarter</type>
<stem>up</stem>
</note>
</measure>
<measure number="35">
<note>
<pitch>
<step>E</step>
<octave>4</octave>
</pitch>
<duration>4</duration>
<voice>1</voice>
<type>quarter</type>
<stem>up</stem>
<lyric number="1">
<syllabic>single</syllabic>
<text>va</text>
</lyric>
<lyric number="2">
<syllabic>end</syllabic>
<text>nes</text>
</lyric>
</note>
<note>
<chord/>
<pitch>
<step>G</step>
<octave>4</octave>
</pitch>
<duration>4</duration>
<voice>1</voice>
<type>quarter</type>
<stem>up</stem>
</note>
<note>
<pitch>
<step>E</step>
<octave>4</octave>
</pitch>
<duration>4</duration>
<voice>1</voice>
<type>quarter</type>
<stem>up</stem>
<lyric number="1">
<syllabic>begin</syllabic>
<text>pa</text>
</lyric>
<lyric number="2">
<syllabic>begin</syllabic>
<text>mer</text>
</lyric>
</note>
<backup>
<duration>8</duration>
</backup>
<forward>
<duration>4</duration>
<voice>2</voice>
</forward>
<note>
<pitch>
<step>E</step>
<octave>4</octave>
</pitch>
<duration>4</duration>
<voice>2</voice>
<type>quarter</type>
<stem>down</stem>
</note>
</measure>
<measure number="36">
<note>
<pitch>
<step>F</step>
<alter>1</alter>
<octave>4</octave>
</pitch>
<duration>8</duration>
<voice>1</voice>
<type>half</type>
<stem>up</stem>
<lyric number="1">
<syllabic>middle</syllabic>
<text>raî</text>
</lyric>
<lyric number="2">
<syllabic>middle</syllabic>
<text>veil</text>
</lyric>
</note>
<note>
<pitch>
<step>D</step>
<octave>4</octave>
</pitch>
<duration>4</duration>
<voice>1</voice>
<type>quarter</type>
<notations>
<slur type="stop" number="1"/>
</notations>
</note>
<backup>
<duration>12</duration>
</backup>
<note>
<pitch>
<step>E</step>
<octave>4</octave>
</pitch>
<duration>4</duration>
<voice>2</voice>
<type>quarter</type>
<stem>down</stem>
<notations>
<slur type="start" number="2"/>
</notations>
</note>
</measure>
<measure number="37">
<note>
<pitch>
<step>B</step>
<octave>3</octave>
</pitch>
<duration>8</duration>
<type>half</type>
<stem>up</stem>
<lyric number="1">
<syllabic>end</syllabic>
<text>tre.</text>
</lyric>
<lyric number="2">
<syllabic>end</syllabic>
<text>les.</text>
</lyric>
</note>
<note>
<chord/>
<pitch>
<step>E</step>
<octave>4</octave>
</pitch>
<duration>8</duration>
<type>half</type>
<stem>up</stem>
</note>
<barline location="right">
<bar-style>light-heavy</bar-style>
<repeat direction="backward"/>
</barline>
<barline location="right">
<bar-style>light-heavy</bar-style>
</barline>
</measure>
</part>
<part id="P2">
<measure number="1">
<attributes>
<divisions>4</divisions>
</attributes>
<attributes>
<clef>
<sign>F</sign>
<line>4</line>
</clef>
</attributes>
<attributes>
<key>
<fifths>1</fifths>
</key>
</attributes>
<attributes>
<time>
<beats>1</beats>
<beat-type>2</beat-type>
</time>
</attributes>
<note>
<pitch>
<step>E</step>
<octave>3</octave>
</pitch>
<duration>8</duration>
<type>half</type>
<stem>down</stem>
</note>
<note>
<chord/>
<pitch>
<step>E</step>
<octave>4</octave>
</pitch>
<duration>8</duration>
<type>half</type>
<stem>down</stem>
</note>
</measure>
<measure number="2">
<note>
<pitch>
<step>B</step>
<octave>3</octave>
</pitch>
<duration>4</duration>
<type>quarter</type>
<stem>down</stem>
</note>
<note>
<chord/>
<pitch>
<step>D</step>
<octave>4</octave>
</pitch>
<duration>4</duration>
<type>quarter</type>
<stem>down</stem>
</note>
<note>
<pitch>
<step>G</step>
<octave>3</octave>
</pitch>
<duration>4</duration>
<type>quarter</type>
<stem>down</stem>
</note>
<note>
<chord/>
<pitch>
<step>D</step>
<octave>4</octave>
</pitch>
<duration>4</duration>
<type>quarter</type>
<stem>down</stem>
</note>
</measure>
<measure number="3">
<note>
<pitch>
<step>E</step>
<octave>3</octave>
</pitch>
<duration>4</duration>
<type>quarter</type>
<stem>down</stem>
</note>
<note>
<chord/>
<pitch>
<step>G</step>
<octave>4</octave>
</pitch>
<duration>4</duration>
<type>quarter</type>
<stem>down</stem>
</note>
<note>
<pitch>
<step>F</step>
<alter>1</alter>
<octave>3</octave>
</pitch>
<duration>4</duration>
<type>quarter</type>
<stem>down</stem>
</note>
<note>
<chord/>
<pitch>
<step>F</step>
<alter>1</alter>
<octave>4</octave>
</pitch>
<duration>4</duration>
<type>quarter</type>
<stem>down</stem>
</note>
</measure>
<measure number="4">
<note>
<pitch>
<step>A</step>
<octave>3</octave>
</pitch>
<duration>8</duration>
<type>half</type>
<stem>down</stem>
</note>
<note>
<chord/>
<pitch>
<step>E</step>
<octave>4</octave>
</pitch>
<duration>8</duration>
<type>half</type>
<stem>down</stem>
</note>
</measure>
<measure number="5">
<note>
<pitch>
<step>B</step>
<octave>3</octave>
</pitch>
<duration>4</duration>
<type>quarter</type>
<stem>down</stem>
</note>
<note>
<chord/>
<pitch>
<step>D</step>
<octave>4</octave>
</pitch>
<duration>4</duration>
<type>quarter</type>
<stem>down</stem>
</note>
<note>
<pitch>
<step>G</step>
<octave>3</octave>
</pitch>
<duration>4</duration>
<type>quarter</type>
<stem>down</stem>
</note>
<note>
<chord/>
<pitch>
<step>B</step>
<octave>3</octave>
</pitch>
<duration>4</duration>
<type>quarter</type>
<stem>down</stem>
</note>
</measure>
<measure number="6">
<note>
<pitch>
<step>A</step>
<octave>3</octave>
</pitch>
<duration>4</duration>
<voice>1</voice>
<type>quarter</type>
<stem>up</stem>
</note>
<note>
<pitch>
<step>E</step>
<octave>3</octave>
</pitch>
<duration>4</duration>
<voice>1</voice>
<type>quarter</type>
<stem>down</stem>
</note>
<note>
<chord/>
<pitch>
<step>G</step>
<octave>3</octave>
</pitch>
<duration>4</duration>
<voice>1</voice>
<type>quarter</type>
<stem>down</stem>
</note>
<backup>
<duration>8</duration>
</backup>
<note>
<pitch>
<step>A</step>
<octave>3</octave>
</pitch>
<duration>4</duration>
<voice>2</voice>
<type>quarter</type>
<stem>down</stem>
</note>
<forward>
<duration>4</duration>
<voice>2</voice>
</forward>
</measure>
<measure number="7">
<note>
<pitch>
<step>D</step>
<octave>3</octave>
</pitch>
<duration>4</duration>
<type>quarter</type>
<stem>down</stem>
</note>
<note>
<chord/>
<pitch>
<step>F</step>
<alter>1</alter>
<octave>3</octave>
</pitch>
<duration>4</duration>
<type>quarter</type>
<stem>down</stem>
</note>
<note>
<pitch>
<step>C</step>
<alter>1</alter>
<octave>3</octave>
</pitch>
<duration>4</duration>
<type>quarter</type>
<accidental>sharp</accidental>
<stem>down</stem>
</note>
<note>
<chord/>
<pitch>
<step>E</step>
<octave>3</octave>
</pitch>
<duration>4</duration>
<type>quarter</type>
<stem>down</stem>
</note>
</measure>
<measure number="8">
<note>
<pitch>
<step>B</step>
<octave>2</octave>
</pitch>
<duration>8</duration>
<type>half</type>
<stem>down</stem>
</note>
<note>
<chord/>
<pitch>
<step>F</step>
<alter>1</alter>
<octave>3</octave>
</pitch>
<duration>8</duration>
<type>half</type>
<stem>down</stem>
</note>
</measure>
<measure number="9">
<note>
<rest/>
<duration>4</duration>
<type>half</type>
</note>
</measure>
<measure number="10">
<note>
<pitch>
<step>G</step>
<octave>3</octave>
</pitch>
<duration>8</duration>
<voice>1</voice>
<type>half</type>
<stem>up</stem>
</note>
<backup>
<duration>8</duration>
</backup>
<note>
<pitch>
<step>G</step>
<octave>3</octave>
</pitch>
<duration>8</duration>
<voice>2</voice>
<type>half</type>
<stem>down</stem>
</note>
</measure>
<measure number="11">
<note>
<pitch>
<step>E</step>
<octave>3</octave>
</pitch>
<duration>4</duration>
<type>quarter</type>
<stem>down</stem>
</note>
<note>
<chord/>
<pitch>
<step>G</step>
<octave>3</octave>
</pitch>
<duration>4</duration>
<type>quarter</type>
<stem>down</stem>
</note>
<note>
<pitch>
<step>B</step>
<octave>2</octave>
</pitch>
<duration>4</duration>
<type>quarter</type>
<stem>down</stem>
</note>
<note>
<chord/>
<pitch>
<step>D</step>
<octave>4</octave>
</pitch>
<duration>4</duration>
<type>quarter</type>
<stem>down</stem>
</note>
</measure>
<measure number="12">
<note>
<pitch>
<step>E</step>
<octave>4</octave>
</pitch>
<duration>8</duration>
<voice>1</voice>
<type>half</type>
<stem>up</stem>
</note>
<note>
<pitch>
<step>C</step>
<octave>3</octave>
</pitch>
<duration>4</duration>
<voice>1</voice>
<type>quarter</type>
<notations>
<slur type="stop" number="1"/>
</notations>
</note>
<backup>
<duration>12</duration>
</backup>
<note>
<pitch>
<step>A</step>
<octave>2</octave>
</pitch>
<duration>4</duration>
<voice>2</voice>
<type>quarter</type>
<stem>down</stem>
<notations>
<slur type="start" number="2"/>
</notations>
</note>
</measure>
<measure number="13">
<note>
<pitch>
<step>D</step>
<octave>3</octave>
</pitch>
<duration>8</duration>
<type>half</type>
<stem>down</stem>
</note>
<note>
<chord/>
<pitch>
<step>D</step>
<octave>4</octave>
</pitch>
<duration>8</duration>
<type>half</type>
<stem>down</stem>
</note>
</measure>
<measure number="14">
<note>
<pitch>
<step>G</step>
<octave>3</octave>
</pitch>
<duration>4</duration>
<type>quarter</type>
<stem>down</stem>
</note>
<note>
<chord/>
<pitch>
<step>B</step>
<octave>3</octave>
</pitch>
<duration>4</duration>
<type>quarter</type>
<stem>down</stem>
</note>
<note>
<pitch>
<step>E</step>
<octave>3</octave>
</pitch>
<duration>4</duration>
<type>quarter</type>
<stem>down</stem>
</note>
<note>
<chord/>
<pitch>
<step>B</step>
<octave>3</octave>
</pitch>
<duration>4</duration>
<type>quarter</type>
<stem>down</stem>
</note>
</measure>
<measure number="15">
<note>
<pitch>
<step>D</step>
<octave>3</octave>
</pitch>
<duration>4</duration>
<type>quarter</type>
<stem>down</stem>
</note>
<note>
<chord/>
<pitch>
<step>D</step>
<octave>4</octave>
</pitch>
<duration>4</duration>
<type>quarter</type>
<stem>down</stem>
</note>
<note>
<pitch>
<step>G</step>
<octave>2</octave>
</pitch>
<duration>4</duration>
<type>quarter</type>
<stem>down</stem>
</note>
<note>
<chord/>
<pitch>
<step>D</step>
<octave>4</octave>
</pitch>
<duration>4</duration>
<type>quarter</type>
<stem>down</stem>
</note>
</measure>
<measure number="16">
<note>
<pitch>
<step>A</step>
<octave>2</octave>
</pitch>
<duration>4</duration>
<type>quarter</type>
<stem>down</stem>
</note>
<note>
<chord/>
<pitch>
<step>C</step>
<octave>4</octave>
</pitch>
<duration>4</duration>
<type>quarter</type>
<stem>down</stem>
</note>
<note>
<pitch>
<step>B</step>
<octave>2</octave>
</pitch>
<duration>4</duration>
<type>quarter</type>
<stem>down</stem>
</note>
<note>
<chord/>
<pitch>
<step>G</step>
<octave>3</octave>
</pitch>
<duration>4</duration>
<type>quarter</type>
<stem>down</stem>
</note>
</measure>
<measure number="17">
<note>
<pitch>
<step>D</step>
<octave>3</octave>
</pitch>
<duration>8</duration>
<type>half</type>
<stem>down</stem>
</note>
<note>
<chord/>
<pitch>
<step>A</step>
<octave>3</octave>
</pitch>
<duration>8</duration>
<type>half</type>
<stem>down</stem>
</note>
</measure>
<measure number="18">
<note>
<pitch>
<step>E</step>
<octave>3</octave>
</pitch>
<duration>8</duration>
<type>half</type>
<stem>down</stem>
</note>
<note>
<chord/>
<pitch>
<step>G</step>
<octave>3</octave>
</pitch>
<duration>8</duration>
<type>half</type>
<stem>down</stem>
</note>
</measure>
<measure number="19">
<note>
<rest/>
<duration>4</duration>
<type>half</type>
</note>
</measure>
<measure number="20">
<note>
<pitch>
<step>C</step>
<octave>3</octave>
</pitch>
<duration>8</duration>
<type>half</type>
<stem>down</stem>
</note>
<note>
<chord/>
<pitch>
<step>C</step>
<octave>4</octave>
</pitch>
<duration>8</duration>
<type>half</type>
<stem>down</stem>
</note>
</measure>
<measure number="21">
<note>
<pitch>
<step>D</step>
<octave>3</octave>
</pitch>
<duration>4</duration>
<voice>1</voice>
<type>quarter</type>
<stem>down</stem>
</note>
<note>
<chord/>
<pitch>
<step>A</step>
<octave>3</octave>
</pitch>
<duration>4</duration>
<voice>1</voice>
<type>quarter</type>
<stem>down</stem>
</note>
<note>
<pitch>
<step>A</step>
<octave>3</octave>
</pitch>
<duration>4</duration>
<voice>1</voice>
<type>quarter</type>
<stem>up</stem>
</note>
<backup>
<duration>8</duration>
</backup>
<forward>
<duration>4</duration>
<voice>2</voice>
</forward>
<note>
<pitch>
<step>A</step>
<octave>3</octave>
</pitch>
<duration>4</duration>
<voice>2</voice>
<type>quarter</type>
<stem>down</stem>
</note>
</measure>
<measure number="22">
<note>
<pitch>
<step>E</step>
<octave>3</octave>
</pitch>
<duration>4</duration>
<type>quarter</type>
<stem>down</stem>
</note>
<note>
<chord/>
<pitch>
<step>B</step>
<octave>3</octave>
</pitch>
<duration>4</duration>
<type>quarter</type>
<stem>down</stem>
</note>
<note>
<pitch>
<step>D</step>
<octave>3</octave>
</pitch>
<duration>4</duration>
<type>quarter</type>
<stem>down</stem>
</note>
<note>
<chord/>
<pitch>
<step>D</step>
<octave>4</octave>
</pitch>
<duration>4</duration>
<type>quarter</type>
<stem>down</stem>
</note>
</measure>
<measure number="23">
<note>
<pitch>
<step>G</step>
<octave>3</octave>
</pitch>
<duration>8</duration>
<type>half</type>
<stem>down</stem>
</note>
<note>
<chord/>
<pitch>
<step>D</step>
<octave>4</octave>
</pitch>
<duration>8</duration>
<type>half</type>
<stem>down</stem>
</note>
</measure>
<measure number="24">
<note>
<pitch>
<step>E</step>
<octave>3</octave>
</pitch>
<duration>4</duration>
<type>quarter</type>
<stem>down</stem>
</note>
<note>
<chord/>
<pitch>
<step>E</step>
<octave>4</octave>
</pitch>
<duration>4</duration>
<type>quarter</type>
<stem>down</stem>
</note>
<note>
<pitch>
<step>B</step>
<octave>2</octave>
</pitch>
<duration>4</duration>
<type>quarter</type>
<stem>down</stem>
</note>
<note>
<chord/>
<pitch>
<step>F</step>
<alter>1</alter>
<octave>4</octave>
</pitch>
<duration>4</duration>
<type>quarter</type>
<stem>down</stem>
</note>
</measure>
<measure number="25">
<note>
<pitch>
<step>F</step>
<alter>1</alter>
<octave>3</octave>
</pitch>
<duration>4</duration>
<type>quarter</type>
<stem>down</stem>
</note>
<note>
<chord/>
<pitch>
<step>F</step>
<alter>1</alter>
<octave>4</octave>
</pitch>
<duration>4</duration>
<type>quarter</type>
<stem>down</stem>
</note>
<note>
<pitch>
<step>F</step>
<alter>1</alter>
<octave>3</octave>
</pitch>
<duration>4</duration>
<type>quarter</type>
<stem>down</stem>
</note>
<note>
<chord/>
<pitch>
<step>D</step>
<octave>4</octave>
</pitch>
<duration>4</duration>
<type>quarter</type>
<stem>down</stem>
</note>
</measure>
<measure number="26">
<note>
<pitch>
<step>G</step>
<octave>3</octave>
</pitch>
<duration>4</duration>
<type>quarter</type>
<stem>down</stem>
</note>
<note>
<chord/>
<pitch>
<step>B</step>
<octave>3</octave>
</pitch>
<duration>4</duration>
<type>quarter</type>
<stem>down</stem>
</note>
<note>
<pitch>
<step>A</step>
<octave>3</octave>
</pitch>
<duration>4</duration>
<type>quarter</type>
<stem>down</stem>
</note>
<note>
<chord/>
<pitch>
<step>E</step>
<octave>4</octave>
</pitch>
<duration>4</duration>
<type>quarter</type>
<stem>down</stem>
</note>
</measure>
<measure number="27">
<note>
<pitch>
<step>B</step>
<octave>3</octave>
</pitch>
<duration>8</duration>
<type>half</type>
<stem>down</stem>
</note>
<note>
<chord/>
<pitch>
<step>D</step>
<octave>4</octave>
</pitch>
<duration>8</duration>
<type>half</type>
<stem>down</stem>
</note>
</measure>
<measure number="28">
<note>
<rest/>
<duration>4</duration>
<type>half</type>
</note>
</measure>
<measure number="29">
<note>
<pitch>
<step>A</step>
<octave>3</octave>
</pitch>
<duration>8</duration>
<voice>1</voice>
<type>half</type>
<stem>up</stem>
</note>
<backup>
<duration>8</duration>
</backup>
<note>
<pitch>
<step>A</step>
<octave>3</octave>
</pitch>
<duration>8</duration>
<voice>2</voice>
<type>half</type>
<stem>down</stem>
</note>
</measure>
<measure number="30">
<note>
<pitch>
<step>G</step>
<octave>3</octave>
</pitch>
<duration>4</duration>
<type>quarter</type>
<stem>down</stem>
</note>
<note>
<chord/>
<pitch>
<step>B</step>
<octave>3</octave>
</pitch>
<duration>4</duration>
<type>quarter</type>
<stem>down</stem>
</note>
<note>
<pitch>
<step>E</step>
<octave>3</octave>
</pitch>
<duration>4</duration>
<type>quarter</type>
<stem>down</stem>
</note>
<note>
<chord/>
<pitch>
<step>G</step>
<octave>3</octave>
</pitch>
<duration>4</duration>
<type>quarter</type>
<stem>down</stem>
</note>
</measure>
<measure number="31">
<note>
<pitch>
<step>F</step>
<alter>1</alter>
<octave>3</octave>
</pitch>
<duration>8</duration>
<type>half</type>
<stem>down</stem>
</note>
<note>
<chord/>
<pitch>
<step>A</step>
<octave>3</octave>
</pitch>
<duration>8</duration>
<type>half</type>
<stem>down</stem>
</note>
</measure>
<measure number="32">
<note>
<pitch>
<step>B</step>
<octave>3</octave>
</pitch>
<duration>4</duration>
<voice>1</voice>
<type>quarter</type>
<stem>up</stem>
<notations>
<slur type="start" number="1"/>
</notations>
</note>
<backup>
<duration>4</duration>
</backup>
<note>
<pitch>
<step>E</step>
<octave>3</octave>
</pitch>
<duration>8</duration>
<voice>2</voice>
<type>half</type>
<stem>down</stem>
</note>
<note>
<pitch>
<step>C</step>
<alter>1</alter>
<octave>4</octave>
</pitch>
<duration>4</duration>
<voice>2</voice>
<type>quarter</type>
<accidental>sharp</accidental>
<notations>
<slur type="stop" number="1"/>
</notations>
</note>
</measure>
<measure number="33">
<note>
<pitch>
<step>D</step>
<octave>3</octave>
</pitch>
<duration>4</duration>
<type>quarter</type>
<stem>up</stem>
</note>
<note>
<chord/>
<pitch>
<step>A</step>
<octave>3</octave>
</pitch>
<duration>4</duration>
<type>quarter</type>
<stem>up</stem>
</note>
<note>
<pitch>
<step>B</step>
<octave>2</octave>
</pitch>
<duration>4</duration>
<type>quarter</type>
<stem>down</stem>
</note>
<note>
<chord/>
<pitch>
<step>D</step>
<octave>4</octave>
</pitch>
<duration>4</duration>
<type>quarter</type>
<stem>down</stem>
</note>
</measure>
<measure number="34">
<note>
<pitch>
<step>G</step>
<octave>2</octave>
</pitch>
<duration>4</duration>
<type>quarter</type>
<stem>down</stem>
</note>
<note>
<chord/>
<pitch>
<step>D</step>
<octave>4</octave>
</pitch>
<duration>4</duration>
<type>quarter</type>
<stem>down</stem>
</note>
<note>
<pitch>
<step>A</step>
<octave>2</octave>
</pitch>
<duration>4</duration>
<type>quarter</type>
<stem>down</stem>
</note>
<note>
<chord/>
<pitch>
<step>C</step>
<octave>4</octave>
</pitch>
<duration>4</duration>
<type>quarter</type>
<accidental>natural</accidental>
<stem>down</stem>
</note>
</measure>
<measure number="35">
<note>
<pitch>
<step>C</step>
<octave>3</octave>
</pitch>
<duration>4</duration>
<type>quarter</type>
<stem>down</stem>
</note>
<note>
<chord/>
<pitch>
<step>C</step>
<octave>4</octave>
</pitch>
<duration>4</duration>
<type>quarter</type>
<stem>down</stem>
</note>
<note>
<pitch>
<step>G</step>
<octave>2</octave>
</pitch>
<duration>4</duration>
<type>quarter</type>
<stem>down</stem>
</note>
<note>
<chord/>
<pitch>
<step>B</step>
<octave>3</octave>
</pitch>
<duration>4</duration>
<type>quarter</type>
<stem>down</stem>
</note>
</measure>
<measure number="36">
<note>
<pitch>
<step>B</step>
<octave>2</octave>
</pitch>
<duration>4</duration>
<type>quarter</type>
<stem>down</stem>
<notations>
<slur type="start" number="1"/>
</notations>
</note>
<note>
<chord/>
<pitch>
<step>B</step>
<octave>3</octave>
</pitch>
<duration>4</duration>
<type>quarter</type>
<stem>down</stem>
<notations>
<slur type="start" number="1"/>
</notations>
</note>
<note>
<pitch>
<step>D</step>
<octave>3</octave>
</pitch>
<duration>4</duration>
<type>quarter</type>
<stem>down</stem>
<notations>
<slur type="stop" number="1"/>
</notations>
</note>
<note>
<chord/>
<pitch>
<step>A</step>
<octave>3</octave>
</pitch>
<duration>4</duration>
<type>quarter</type>
<stem>down</stem>
<notations>
<slur type="stop" number="2"/>
</notations>
</note>
</measure>
<measure number="37">
<note>
<pitch>
<step>E</step>
<octave>3</octave>
</pitch>
<duration>8</duration>
<type>half</type>
<stem>down</stem>
</note>
<note>
<chord/>
<pitch>
<step>G</step>
<octave>3</octave>
</pitch>
<duration>8</duration>
<type>half</type>
<stem>down</stem>
</note>
<barline location="right">
<bar-style>light-heavy</bar-style>
<repeat direction="backward"/>
</barline>
<barline location="right">
<bar-style>light-heavy</bar-style>
</barline>
</measure>
</part>
</score-partwise>
