<?xml version="1.0" encoding="UTF-8" standalone='no'?>
<!DOCTYPE score-partwise PUBLIC "-//Recordare//DTD MusicXML 1.0 Partwise//EN" "http://www.musicxml.org/dtds/partwise.dtd">
<score-partwise>
<work>
<work-title>Je n'ai que toi</work-title>
</work>
<identification>
<creator type="transcriber">Billy Sprague &amp; David Durham</creator>
<rights>© 1982 Word Music (UK)LTD./LTC</rights>
<encoding>
<software>Noteworthy Composer</software>
<encoding-date>2007-02-17</encoding-date>
</encoding>
</identification>
<part-list>
<score-part id="P1">
<part-name>Voix des femmes</part-name>
<score-instrument id="P1-I1">
<instrument-name>String Ensemble 1</instrument-name>
</score-instrument>
<midi-instrument id="P1-I1">
<midi-channel>1</midi-channel>
<midi-program>50</midi-program>
</midi-instrument>
</score-part>
<score-part id="P2">
<part-name>Voix des hommes</part-name>
<score-instrument id="P2-I1">
<instrument-name>String Ensemble 1</instrument-name>
</score-instrument>
<midi-instrument id="P2-I1">
<midi-channel>2</midi-channel>
<midi-program>50</midi-program>
</midi-instrument>
</score-part>
</part-list>
<part id="P1">
<measure number="1">
<attributes>
<divisions>8</divisions>
</attributes>
<attributes>
<clef>
<sign>G</sign>
<line>2</line>
</clef>
</attributes>
<attributes>
<key>
<fifths>4</fifths>
</key>
</attributes>
<attributes>
<time>
<beats>4</beats>
<beat-type>4</beat-type>
</time>
</attributes>
<direction>
<direction-type>
<metronome parentheses="no">
<beat-unit>quarter</beat-unit>
<per-minute>100</per-minute>
</metronome>
</direction-type>
<sound tempo="100"/>
</direction>
<note>
<pitch>
<step>E</step>
<octave>4</octave>
</pitch>
<duration>4</duration>
<type>eighth</type>
<lyric number="1">
<syllabic>single</syllabic>
<text>1. Je</text>
</lyric>
<lyric number="2">
<syllabic>single</syllabic>
<text>2.</text>
</lyric>
</note>
</measure>
<measure number="2">
<note>
<pitch>
<step>F</step>
<alter>1</alter>
<octave>4</octave>
</pitch>
<duration>8</duration>
<type>quarter</type>
<lyric number="1">
<syllabic>single</syllabic>
<text>n'ai</text>
</lyric>
<lyric number="2">
<syllabic>single</syllabic>
<text>Quand</text>
</lyric>
</note>
<note>
<pitch>
<step>G</step>
<alter>1</alter>
<octave>4</octave>
</pitch>
<duration>4</duration>
<type>eighth</type>
<stem>up</stem>
<beam number="1">begin</beam>
<lyric number="1">
<syllabic>single</syllabic>
<text>que</text>
</lyric>
<lyric number="2">
<syllabic>single</syllabic>
<text>mon</text>
</lyric>
</note>
<note>
<pitch>
<step>B</step>
<octave>3</octave>
</pitch>
<duration>4</duration>
<tie type="start"/>
<type>eighth</type>
<stem>up</stem>
<beam number="1">continue</beam>
<notations>
<tied type="start"/>
</notations>
<lyric number="1">
<syllabic>single</syllabic>
<text>toi,</text>
</lyric>
<lyric number="2">
<syllabic>single</syllabic>
<text>coeur</text>
</lyric>
</note>
<note>
<pitch>
<step>B</step>
<octave>3</octave>
</pitch>
<duration>8</duration>
<tie type="stop"/>
<type>quarter</type>
<notations>
<tied type="stop"/>
</notations>
</note>
<note>
<pitch>
<step>B</step>
<octave>3</octave>
</pitch>
<duration>4</duration>
<type>eighth</type>
<stem>up</stem>
<beam number="1">begin</beam>
<lyric number="1">
<syllabic>single</syllabic>
<text></text>
</lyric>
<lyric number="2">
<syllabic>begin</syllabic>
<text>é</text>
</lyric>
</note>
<note>
<pitch>
<step>B</step>
<octave>3</octave>
</pitch>
<duration>4</duration>
<type>eighth</type>
<stem>up</stem>
<beam number="1">continue</beam>
<lyric number="1">
<syllabic>single</syllabic>
<text>que</text>
</lyric>
<lyric number="2">
<syllabic>end</syllabic>
<text>tait</text>
</lyric>
</note>
</measure>
<measure number="3">
<note>
<pitch>
<step>A</step>
<octave>4</octave>
</pitch>
<duration>4</duration>
<type>eighth</type>
<stem>up</stem>
<beam number="1">begin</beam>
<lyric number="1">
<syllabic>single</syllabic>
<text>toi</text>
</lyric>
<lyric number="2">
<syllabic>single</syllabic>
<text>plein</text>
</lyric>
</note>
<note>
<pitch>
<step>G</step>
<alter>1</alter>
<octave>4</octave>
</pitch>
<duration>4</duration>
<type>eighth</type>
<stem>up</stem>
<beam number="1">continue</beam>
<lyric number="1">
<syllabic>single</syllabic>
<text>dans</text>
</lyric>
<lyric number="2">
<syllabic>begin</syllabic>
<text>d'a</text>
</lyric>
</note>
<note>
<pitch>
<step>F</step>
<alter>1</alter>
<octave>4</octave>
</pitch>
<duration>4</duration>
<type>eighth</type>
<stem>up</stem>
<beam number="1">begin</beam>
<lyric number="1">
<syllabic>single</syllabic>
<text>le</text>
</lyric>
<lyric number="2">
<syllabic>middle</syllabic>
<text>mer</text>
</lyric>
</note>
<note>
<pitch>
<step>G</step>
<alter>1</alter>
<octave>4</octave>
</pitch>
<duration>4</duration>
<tie type="start"/>
<type>eighth</type>
<stem>up</stem>
<beam number="1">continue</beam>
<notations>
<tied type="start"/>
</notations>
<lyric number="1">
<syllabic>single</syllabic>
<text>ciel,</text>
</lyric>
<lyric number="2">
<syllabic>end</syllabic>
<text>tume,</text>
</lyric>
</note>
<note>
<pitch>
<step>G</step>
<alter>1</alter>
<octave>4</octave>
</pitch>
<duration>8</duration>
<tie type="stop"/>
<type>quarter</type>
<notations>
<tied type="stop"/>
</notations>
</note>
<note>
<pitch>
<step>E</step>
<octave>4</octave>
</pitch>
<duration>4</duration>
<type>eighth</type>
<stem>up</stem>
<beam number="1">begin</beam>
<lyric number="1">
<syllabic>single</syllabic>
<text>je</text>
</lyric>
<lyric number="2">
<syllabic>single</syllabic>
<text>je</text>
</lyric>
</note>
<note>
<pitch>
<step>E</step>
<octave>4</octave>
</pitch>
<duration>4</duration>
<type>eighth</type>
<stem>up</stem>
<beam number="1">continue</beam>
<lyric number="1">
<syllabic>single</syllabic>
<text>ne</text>
</lyric>
<lyric number="2">
<syllabic>begin</syllabic>
<text>per</text>
</lyric>
</note>
</measure>
<measure number="4">
<note>
<pitch>
<step>A</step>
<octave>4</octave>
</pitch>
<duration>4</duration>
<type>eighth</type>
<stem>up</stem>
<beam number="1">begin</beam>
<lyric number="1">
<syllabic>begin</syllabic>
<text>dé</text>
</lyric>
<lyric number="2">
<syllabic>end</syllabic>
<text>dais</text>
</lyric>
</note>
<note>
<pitch>
<step>B</step>
<octave>4</octave>
</pitch>
<duration>4</duration>
<type>eighth</type>
<stem>up</stem>
<beam number="1">continue</beam>
<lyric number="1">
<syllabic>middle</syllabic>
<text>si</text>
</lyric>
<lyric number="2">
<syllabic>single</syllabic>
<text>la</text>
</lyric>
</note>
<note>
<pitch>
<step>C</step>
<alter>1</alter>
<octave>5</octave>
</pitch>
<duration>4</duration>
<type>eighth</type>
<stem>down</stem>
<beam number="1">begin</beam>
<lyric number="1">
<syllabic>end</syllabic>
<text>re</text>
</lyric>
<lyric number="2">
<syllabic>begin</syllabic>
<text>rai</text>
</lyric>
</note>
<note>
<pitch>
<step>B</step>
<octave>4</octave>
</pitch>
<duration>4</duration>
<tie type="start"/>
<type>eighth</type>
<stem>down</stem>
<beam number="1">continue</beam>
<notations>
<tied type="start"/>
</notations>
<lyric number="1">
<syllabic>single</syllabic>
<text>rien</text>
</lyric>
<lyric number="2">
<syllabic>end</syllabic>
<text>son</text>
</lyric>
</note>
<note>
<pitch>
<step>B</step>
<octave>4</octave>
</pitch>
<duration>4</duration>
<tie type="stop"/>
<type>eighth</type>
<stem>up</stem>
<beam number="1">begin</beam>
<notations>
<tied type="stop"/>
</notations>
</note>
<note>
<pitch>
<step>G</step>
<alter>1</alter>
<octave>4</octave>
</pitch>
<duration>4</duration>
<type>eighth</type>
<stem>up</stem>
<beam number="1">continue</beam>
<lyric number="1">
<syllabic>begin</syllabic>
<text>d'au</text>
</lyric>
<lyric number="2">
<syllabic>single</syllabic>
<text>et</text>
</lyric>
</note>
<note>
<pitch>
<step>F</step>
<alter>1</alter>
<octave>4</octave>
</pitch>
<duration>4</duration>
<type>eighth</type>
<stem>up</stem>
<beam number="1">begin</beam>
<lyric number="1">
<syllabic>end</syllabic>
<text>tre</text>
</lyric>
<lyric number="2">
<syllabic>single</syllabic>
<text>je</text>
</lyric>
</note>
<note>
<pitch>
<step>E</step>
<octave>4</octave>
</pitch>
<duration>4</duration>
<type>eighth</type>
<stem>up</stem>
<beam number="1">continue</beam>
<lyric number="1">
<syllabic>single</syllabic>
<text>que</text>
</lyric>
<lyric number="2">
<syllabic>single</syllabic>
<text>n'y</text>
</lyric>
</note>
</measure>
<measure number="5">
<note>
<pitch>
<step>G</step>
<alter>1</alter>
<octave>4</octave>
</pitch>
<duration>4</duration>
<type>eighth</type>
<stem>up</stem>
<beam number="1">begin</beam>
<lyric number="1">
<syllabic>single</syllabic>
<text>toi</text>
</lyric>
<lyric number="2">
<syllabic>begin</syllabic>
<text>voy</text>
</lyric>
</note>
<note>
<pitch>
<step>A</step>
<octave>4</octave>
</pitch>
<duration>4</duration>
<type>eighth</type>
<stem>up</stem>
<beam number="1">continue</beam>
<lyric number="1">
<syllabic>single</syllabic>
<text>sur</text>
</lyric>
<lyric number="2">
<syllabic>end</syllabic>
<text>ais</text>
</lyric>
</note>
<note>
<pitch>
<step>G</step>
<alter>1</alter>
<octave>4</octave>
</pitch>
<duration>4</duration>
<type>eighth</type>
<stem>up</stem>
<beam number="1">begin</beam>
<lyric number="1">
<syllabic>single</syllabic>
<text>la</text>
</lyric>
<lyric number="2">
<syllabic>single</syllabic>
<text>plus</text>
</lyric>
</note>
<note>
<pitch>
<step>F</step>
<alter>1</alter>
<octave>4</octave>
</pitch>
<duration>4</duration>
<tie type="start"/>
<type>eighth</type>
<stem>up</stem>
<beam number="1">continue</beam>
<notations>
<tied type="start"/>
</notations>
<lyric number="1">
<syllabic>single</syllabic>
<text>terre.</text>
</lyric>
<lyric number="2">
<syllabic>single</syllabic>
<text>rien,</text>
</lyric>
</note>
<note>
<pitch>
<step>F</step>
<alter>1</alter>
<octave>4</octave>
</pitch>
<duration>8</duration>
<tie type="stop"/>
<type>quarter</type>
<notations>
<tied type="stop"/>
</notations>
</note>
<note>
<pitch>
<step>F</step>
<alter>1</alter>
<octave>4</octave>
</pitch>
<duration>4</duration>
<type>eighth</type>
<stem>up</stem>
<beam number="1">begin</beam>
<lyric number="1">
<syllabic>single</syllabic>
<text></text>
</lyric>
<lyric number="2">
<syllabic>single</syllabic>
<text>mais</text>
</lyric>
</note>
<note>
<pitch>
<step>E</step>
<octave>4</octave>
</pitch>
<duration>4</duration>
<type>eighth</type>
<stem>up</stem>
<beam number="1">continue</beam>
<lyric number="1">
<syllabic>single</syllabic>
<text>Si</text>
</lyric>
<lyric number="2">
<syllabic>single</syllabic>
<text>Dieu</text>
</lyric>
</note>
</measure>
<measure number="6">
<note>
<pitch>
<step>F</step>
<alter>1</alter>
<octave>4</octave>
</pitch>
<duration>8</duration>
<type>quarter</type>
<lyric number="1">
<syllabic>single</syllabic>
<text>je</text>
</lyric>
<lyric number="2">
<syllabic>begin</syllabic>
<text>s'ap</text>
</lyric>
</note>
<note>
<pitch>
<step>G</step>
<alter>1</alter>
<octave>4</octave>
</pitch>
<duration>4</duration>
<type>eighth</type>
<stem>up</stem>
<beam number="1">begin</beam>
<lyric number="1">
<syllabic>single</syllabic>
<text>suis</text>
</lyric>
<lyric number="2">
<syllabic>middle</syllabic>
<text>pro</text>
</lyric>
</note>
<note>
<pitch>
<step>B</step>
<octave>3</octave>
</pitch>
<duration>4</duration>
<tie type="start"/>
<type>eighth</type>
<stem>up</stem>
<beam number="1">continue</beam>
<notations>
<tied type="start"/>
</notations>
<lyric number="1">
<syllabic>single</syllabic>
<text>faible</text>
</lyric>
<lyric number="2">
<syllabic>end</syllabic>
<text>cha</text>
</lyric>
</note>
<note>
<pitch>
<step>B</step>
<octave>3</octave>
</pitch>
<duration>8</duration>
<tie type="stop"/>
<type>quarter</type>
<notations>
<tied type="stop"/>
</notations>
</note>
<note>
<pitch>
<step>B</step>
<octave>3</octave>
</pitch>
<duration>4</duration>
<type>eighth</type>
<stem>up</stem>
<beam number="1">begin</beam>
<lyric number="1">
<syllabic>single</syllabic>
<text></text>
</lyric>
<lyric number="2">
<syllabic>single</syllabic>
<text>pour</text>
</lyric>
</note>
<note>
<pitch>
<step>B</step>
<octave>3</octave>
</pitch>
<duration>4</duration>
<type>eighth</type>
<stem>up</stem>
<beam number="1">continue</beam>
<lyric number="1">
<syllabic>single</syllabic>
<text>ou</text>
</lyric>
<lyric number="2">
<syllabic>single</syllabic>
<text>me</text>
</lyric>
</note>
</measure>
<measure number="7">
<note>
<pitch>
<step>A</step>
<octave>4</octave>
</pitch>
<duration>4</duration>
<type>eighth</type>
<stem>up</stem>
<beam number="1">begin</beam>
<lyric number="1">
<syllabic>single</syllabic>
<text>même</text>
</lyric>
<lyric number="2">
<syllabic>begin</syllabic>
<text>sai</text>
</lyric>
</note>
<note>
<pitch>
<step>G</step>
<alter>1</alter>
<octave>4</octave>
</pitch>
<duration>4</duration>
<type>eighth</type>
<stem>up</stem>
<beam number="1">continue</beam>
<lyric number="1">
<syllabic>single</syllabic>
<text>si</text>
</lyric>
<lyric number="2">
<syllabic>end</syllabic>
<text>sir</text>
</lyric>
</note>
<note>
<pitch>
<step>F</step>
<alter>1</alter>
<octave>4</octave>
</pitch>
<duration>4</duration>
<type>eighth</type>
<stem>up</stem>
<beam number="1">begin</beam>
<lyric number="1">
<syllabic>single</syllabic>
<text>je</text>
</lyric>
<lyric number="2">
<syllabic>single</syllabic>
<text>la</text>
</lyric>
</note>
<note>
<pitch>
<step>G</step>
<alter>1</alter>
<octave>4</octave>
</pitch>
<duration>4</duration>
<tie type="start"/>
<type>eighth</type>
<stem>up</stem>
<beam number="1">continue</beam>
<notations>
<tied type="start"/>
</notations>
<lyric number="1">
<syllabic>single</syllabic>
<text>tombe,</text>
</lyric>
<lyric number="2">
<syllabic>single</syllabic>
<text>main,</text>
</lyric>
</note>
<note>
<pitch>
<step>G</step>
<alter>1</alter>
<octave>4</octave>
</pitch>
<duration>8</duration>
<tie type="stop"/>
<type>quarter</type>
<notations>
<tied type="stop"/>
</notations>
</note>
<note>
<rest/>
<duration>4</duration>
<type>eighth</type>
</note>
<note>
<pitch>
<step>E</step>
<octave>4</octave>
</pitch>
<duration>4</duration>
<type>eighth</type>
<lyric number="1">
<syllabic>single</syllabic>
<text>Dieu</text>
</lyric>
</note>
</measure>
<measure number="8">
<note>
<pitch>
<step>A</step>
<octave>4</octave>
</pitch>
<duration>4</duration>
<type>eighth</type>
<stem>up</stem>
<beam number="1">begin</beam>
<lyric number="1">
<syllabic>single</syllabic>
<text>est</text>
</lyric>
</note>
<note>
<pitch>
<step>B</step>
<octave>4</octave>
</pitch>
<duration>4</duration>
<type>eighth</type>
<stem>up</stem>
<beam number="1">continue</beam>
<lyric number="1">
<syllabic>single</syllabic>
<text>le</text>
</lyric>
</note>
<note>
<pitch>
<step>C</step>
<alter>1</alter>
<octave>5</octave>
</pitch>
<duration>4</duration>
<type>eighth</type>
<stem>down</stem>
<beam number="1">begin</beam>
<lyric number="1">
<syllabic>begin</syllabic>
<text>sou</text>
</lyric>
</note>
<note>
<pitch>
<step>B</step>
<octave>4</octave>
</pitch>
<duration>4</duration>
<tie type="start"/>
<type>eighth</type>
<stem>down</stem>
<beam number="1">continue</beam>
<notations>
<tied type="start"/>
</notations>
<lyric number="1">
<syllabic>end</syllabic>
<text>tien</text>
</lyric>
</note>
<note>
<pitch>
<step>B</step>
<octave>4</octave>
</pitch>
<duration>4</duration>
<tie type="stop"/>
<type>eighth</type>
<stem>up</stem>
<beam number="1">begin</beam>
<notations>
<tied type="stop"/>
</notations>
</note>
<note>
<pitch>
<step>G</step>
<alter>1</alter>
<octave>4</octave>
</pitch>
<duration>4</duration>
<type>eighth</type>
<stem>up</stem>
<beam number="1">continue</beam>
<lyric number="1">
<syllabic>single</syllabic>
<text>de</text>
</lyric>
</note>
<note>
<pitch>
<step>F</step>
<alter>1</alter>
<octave>4</octave>
</pitch>
<duration>8</duration>
<type>quarter</type>
<lyric number="1">
<syllabic>single</syllabic>
<text>mon</text>
</lyric>
</note>
</measure>
<measure number="9">
<note>
<pitch>
<step>E</step>
<octave>4</octave>
</pitch>
<duration>32</duration>
<type>whole</type>
<lyric number="1">
<syllabic>single</syllabic>
<text>coeur.</text>
</lyric>
</note>
</measure>
<measure number="10">
<note>
<pitch>
<step>B</step>
<octave>4</octave>
</pitch>
<duration>8</duration>
<voice>1</voice>
<type>quarter</type>
<stem>up</stem>
<lyric number="1">
<syllabic>single</syllabic>
<text>Dieu,</text>
</lyric>
</note>
<note>
<pitch>
<step>B</step>
<octave>4</octave>
</pitch>
<duration>4</duration>
<voice>1</voice>
<type>eighth</type>
<stem>up</stem>
<beam number="1">begin</beam>
<lyric number="1">
<syllabic>single</syllabic>
<text>tu</text>
</lyric>
</note>
<note>
<pitch>
<step>B</step>
<octave>4</octave>
</pitch>
<duration>4</duration>
<tie type="start"/>
<voice>1</voice>
<type>eighth</type>
<stem>up</stem>
<beam number="1">continue</beam>
<notations>
<tied type="start"/>
</notations>
<lyric number="1">
<syllabic>single</syllabic>
<text>es</text>
</lyric>
</note>
<note>
<pitch>
<step>B</step>
<octave>4</octave>
</pitch>
<duration>8</duration>
<tie type="stop"/>
<voice>1</voice>
<type>quarter</type>
<stem>up</stem>
<notations>
<tied type="stop"/>
</notations>
</note>
<note>
<pitch>
<step>G</step>
<alter>1</alter>
<octave>4</octave>
</pitch>
<duration>4</duration>
<voice>1</voice>
<type>eighth</type>
<stem>up</stem>
<beam number="1">begin</beam>
<lyric number="1">
<syllabic>single</syllabic>
<text>le</text>
</lyric>
</note>
<note>
<pitch>
<step>A</step>
<octave>4</octave>
</pitch>
<duration>4</duration>
<voice>1</voice>
<type>eighth</type>
<stem>up</stem>
<beam number="1">continue</beam>
<lyric number="1">
<syllabic>begin</syllabic>
<text>sou</text>
</lyric>
</note>
<backup>
<duration>32</duration>
</backup>
<note>
<pitch>
<step>G</step>
<alter>1</alter>
<octave>4</octave>
</pitch>
<duration>8</duration>
<voice>2</voice>
<type>quarter</type>
<stem>down</stem>
</note>
<note>
<pitch>
<step>G</step>
<alter>1</alter>
<octave>4</octave>
</pitch>
<duration>4</duration>
<voice>2</voice>
<type>eighth</type>
<stem>down</stem>
</note>
<note>
<pitch>
<step>G</step>
<alter>1</alter>
<octave>4</octave>
</pitch>
<duration>4</duration>
<tie type="start"/>
<voice>2</voice>
<type>eighth</type>
<stem>down</stem>
<notations>
<tied type="start"/>
</notations>
</note>
<note>
<pitch>
<step>G</step>
<alter>1</alter>
<octave>4</octave>
</pitch>
<duration>8</duration>
<tie type="stop"/>
<voice>2</voice>
<type>quarter</type>
<stem>down</stem>
<notations>
<tied type="stop"/>
</notations>
</note>
<note>
<pitch>
<step>E</step>
<octave>4</octave>
</pitch>
<duration>4</duration>
<voice>2</voice>
<type>eighth</type>
<stem>down</stem>
</note>
<note>
<pitch>
<step>F</step>
<alter>1</alter>
<octave>4</octave>
</pitch>
<duration>4</duration>
<voice>2</voice>
<type>eighth</type>
<stem>down</stem>
</note>
</measure>
<measure number="11">
<note>
<pitch>
<step>B</step>
<octave>4</octave>
</pitch>
<duration>4</duration>
<voice>1</voice>
<type>eighth</type>
<stem>up</stem>
<beam number="1">begin</beam>
<lyric number="1">
<syllabic>end</syllabic>
<text>tien</text>
</lyric>
</note>
<note>
<pitch>
<step>B</step>
<octave>4</octave>
</pitch>
<duration>4</duration>
<voice>1</voice>
<type>eighth</type>
<stem>up</stem>
<beam number="1">continue</beam>
<lyric number="1">
<syllabic>single</syllabic>
<text>de</text>
</lyric>
</note>
<note>
<pitch>
<step>B</step>
<octave>4</octave>
</pitch>
<duration>4</duration>
<voice>1</voice>
<type>eighth</type>
<stem>up</stem>
<beam number="1">begin</beam>
<lyric number="1">
<syllabic>single</syllabic>
<text>mon</text>
</lyric>
</note>
<note>
<pitch>
<step>B</step>
<octave>4</octave>
</pitch>
<duration>4</duration>
<tie type="start"/>
<voice>1</voice>
<type>eighth</type>
<stem>up</stem>
<beam number="1">continue</beam>
<notations>
<tied type="start"/>
</notations>
<lyric number="1">
<syllabic>single</syllabic>
<text>coeur,</text>
</lyric>
</note>
<note>
<pitch>
<step>B</step>
<octave>4</octave>
</pitch>
<duration>8</duration>
<tie type="stop"/>
<voice>1</voice>
<type>quarter</type>
<stem>up</stem>
<notations>
<tied type="stop"/>
</notations>
</note>
<note>
<rest/>
<duration>8</duration>
<voice>1</voice>
<type>quarter</type>
</note>
<backup>
<duration>32</duration>
</backup>
<note>
<pitch>
<step>F</step>
<alter>1</alter>
<octave>4</octave>
</pitch>
<duration>4</duration>
<voice>2</voice>
<type>eighth</type>
<stem>down</stem>
</note>
<note>
<pitch>
<step>F</step>
<alter>1</alter>
<octave>4</octave>
</pitch>
<duration>4</duration>
<voice>2</voice>
<type>eighth</type>
<stem>down</stem>
</note>
<note>
<pitch>
<step>F</step>
<alter>1</alter>
<octave>4</octave>
</pitch>
<duration>4</duration>
<voice>2</voice>
<type>eighth</type>
<stem>down</stem>
</note>
<note>
<pitch>
<step>F</step>
<alter>1</alter>
<octave>4</octave>
</pitch>
<duration>4</duration>
<tie type="start"/>
<voice>2</voice>
<type>eighth</type>
<stem>down</stem>
<notations>
<tied type="start"/>
</notations>
</note>
<note>
<pitch>
<step>F</step>
<alter>1</alter>
<octave>4</octave>
</pitch>
<duration>8</duration>
<tie type="stop"/>
<voice>2</voice>
<type>quarter</type>
<stem>down</stem>
<notations>
<tied type="stop"/>
</notations>
</note>
<forward>
<duration>8</duration>
<voice>2</voice>
</forward>
</measure>
<measure number="12">
<note>
<pitch>
<step>A</step>
<octave>4</octave>
</pitch>
<duration>8</duration>
<voice>1</voice>
<type>quarter</type>
<stem>up</stem>
<lyric number="1">
<syllabic>single</syllabic>
<text>mon</text>
</lyric>
</note>
<note>
<pitch>
<step>A</step>
<octave>4</octave>
</pitch>
<duration>8</duration>
<voice>1</voice>
<type>quarter</type>
<stem>up</stem>
<lyric number="1">
<syllabic>begin</syllabic>
<text>hé</text>
</lyric>
</note>
<note>
<pitch>
<step>A</step>
<octave>4</octave>
</pitch>
<duration>4</duration>
<voice>1</voice>
<type>eighth</type>
<stem>up</stem>
<beam number="1">begin</beam>
<lyric number="1">
<syllabic>middle</syllabic>
<text>ri</text>
</lyric>
</note>
<note>
<pitch>
<step>G</step>
<alter>1</alter>
<octave>4</octave>
</pitch>
<duration>4</duration>
<voice>1</voice>
<type>eighth</type>
<stem>up</stem>
<beam number="1">continue</beam>
<lyric number="1">
<syllabic>end</syllabic>
<text>tage</text>
</lyric>
</note>
<note>
<pitch>
<step>F</step>
<alter>1</alter>
<octave>4</octave>
</pitch>
<duration>4</duration>
<voice>1</voice>
<type>eighth</type>
<stem>up</stem>
<beam number="1">begin</beam>
<lyric number="1">
<syllabic>single</syllabic>
<text>et</text>
</lyric>
</note>
<note>
<pitch>
<step>G</step>
<alter>1</alter>
<octave>4</octave>
</pitch>
<duration>4</duration>
<tie type="start"/>
<voice>1</voice>
<type>eighth</type>
<stem>up</stem>
<beam number="1">continue</beam>
<notations>
<tied type="start"/>
</notations>
<lyric number="1">
<syllabic>single</syllabic>
<text>mon</text>
</lyric>
</note>
<backup>
<duration>32</duration>
</backup>
<note>
<pitch>
<step>E</step>
<octave>4</octave>
</pitch>
<duration>8</duration>
<voice>2</voice>
<type>quarter</type>
<stem>down</stem>
</note>
<note>
<pitch>
<step>E</step>
<octave>4</octave>
</pitch>
<duration>8</duration>
<voice>2</voice>
<type>quarter</type>
<stem>down</stem>
</note>
<note>
<pitch>
<step>E</step>
<octave>4</octave>
</pitch>
<duration>4</duration>
<voice>2</voice>
<type>eighth</type>
<stem>down</stem>
</note>
<note>
<pitch>
<step>E</step>
<octave>4</octave>
</pitch>
<duration>4</duration>
<voice>2</voice>
<type>eighth</type>
<stem>down</stem>
</note>
<note>
<pitch>
<step>D</step>
<alter>1</alter>
<octave>4</octave>
</pitch>
<duration>4</duration>
<voice>2</voice>
<type>eighth</type>
<stem>down</stem>
</note>
<note>
<pitch>
<step>F</step>
<alter>1</alter>
<octave>4</octave>
</pitch>
<duration>4</duration>
<tie type="start"/>
<voice>2</voice>
<type>eighth</type>
<stem>down</stem>
<notations>
<tied type="start"/>
</notations>
</note>
</measure>
<measure number="13">
<note>
<pitch>
<step>G</step>
<alter>1</alter>
<octave>4</octave>
</pitch>
<duration>4</duration>
<tie type="stop"/>
<voice>1</voice>
<type>eighth</type>
<stem>up</stem>
<beam number="1">begin</beam>
<notations>
<tied type="stop"/>
</notations>
</note>
<note>
<pitch>
<step>A</step>
<octave>4</octave>
</pitch>
<duration>4</duration>
<voice>1</voice>
<type>eighth</type>
<stem>up</stem>
<beam number="1">continue</beam>
<lyric number="1">
<syllabic>single</syllabic>
<text>plus</text>
</lyric>
</note>
<note>
<pitch>
<step>G</step>
<alter>1</alter>
<octave>4</octave>
</pitch>
<duration>4</duration>
<voice>1</voice>
<type>eighth</type>
<stem>up</stem>
<beam number="1">begin</beam>
<lyric number="1">
<syllabic>single</syllabic>
<text>grand</text>
</lyric>
</note>
<note>
<pitch>
<step>F</step>
<alter>1</alter>
<octave>4</octave>
</pitch>
<duration>4</duration>
<tie type="start"/>
<voice>1</voice>
<type>eighth</type>
<stem>up</stem>
<beam number="1">continue</beam>
<notations>
<tied type="start"/>
</notations>
<lyric number="1">
<syllabic>single</syllabic>
<text>bien.</text>
</lyric>
</note>
<note>
<pitch>
<step>F</step>
<alter>1</alter>
<octave>4</octave>
</pitch>
<duration>4</duration>
<tie type="stop"/>
<voice>1</voice>
<type>eighth</type>
<stem>up</stem>
<notations>
<tied type="stop"/>
</notations>
</note>
<note>
<rest/>
<duration>4</duration>
<voice>1</voice>
<type>eighth</type>
</note>
<note>
<pitch>
<step>G</step>
<alter>1</alter>
<octave>4</octave>
</pitch>
<duration>4</duration>
<voice>1</voice>
<type>eighth</type>
<stem>up</stem>
<beam number="1">begin</beam>
<lyric number="1">
<syllabic>single</syllabic>
<text>Oh</text>
</lyric>
</note>
<note>
<pitch>
<step>A</step>
<octave>4</octave>
</pitch>
<duration>4</duration>
<voice>1</voice>
<type>eighth</type>
<stem>up</stem>
<beam number="1">continue</beam>
<lyric number="1">
<syllabic>single</syllabic>
<text>oui</text>
</lyric>
</note>
<backup>
<duration>32</duration>
</backup>
<note>
<pitch>
<step>F</step>
<alter>1</alter>
<octave>4</octave>
</pitch>
<duration>4</duration>
<tie type="stop"/>
<voice>2</voice>
<type>eighth</type>
<stem>down</stem>
<notations>
<tied type="stop"/>
</notations>
</note>
<note>
<pitch>
<step>F</step>
<alter>1</alter>
<octave>4</octave>
</pitch>
<duration>4</duration>
<voice>2</voice>
<type>eighth</type>
<stem>down</stem>
</note>
<note>
<pitch>
<step>E</step>
<octave>4</octave>
</pitch>
<duration>4</duration>
<voice>2</voice>
<type>eighth</type>
<stem>down</stem>
</note>
<note>
<pitch>
<step>E</step>
<octave>4</octave>
</pitch>
<duration>4</duration>
<tie type="start"/>
<voice>2</voice>
<type>eighth</type>
<stem>down</stem>
<notations>
<tied type="start"/>
</notations>
</note>
<note>
<pitch>
<step>E</step>
<octave>4</octave>
</pitch>
<duration>4</duration>
<tie type="stop"/>
<voice>2</voice>
<type>eighth</type>
<stem>down</stem>
<notations>
<tied type="stop"/>
</notations>
</note>
<forward>
<duration>4</duration>
<voice>2</voice>
</forward>
<note>
<pitch>
<step>E</step>
<octave>4</octave>
</pitch>
<duration>4</duration>
<voice>2</voice>
<type>eighth</type>
<stem>down</stem>
</note>
<note>
<pitch>
<step>F</step>
<alter>1</alter>
<octave>4</octave>
</pitch>
<duration>4</duration>
<voice>2</voice>
<type>eighth</type>
<stem>down</stem>
</note>
</measure>
<measure number="14">
<note>
<pitch>
<step>B</step>
<octave>4</octave>
</pitch>
<duration>8</duration>
<voice>1</voice>
<type>quarter</type>
<stem>up</stem>
<lyric number="1">
<syllabic>single</syllabic>
<text>Dieu,</text>
</lyric>
</note>
<note>
<pitch>
<step>B</step>
<octave>4</octave>
</pitch>
<duration>4</duration>
<voice>1</voice>
<type>eighth</type>
<stem>up</stem>
<beam number="1">begin</beam>
<lyric number="1">
<syllabic>single</syllabic>
<text>tu</text>
</lyric>
</note>
<note>
<pitch>
<step>B</step>
<octave>4</octave>
</pitch>
<duration>4</duration>
<tie type="start"/>
<voice>1</voice>
<type>eighth</type>
<stem>up</stem>
<beam number="1">continue</beam>
<notations>
<tied type="start"/>
</notations>
<lyric number="1">
<syllabic>single</syllabic>
<text>es</text>
</lyric>
</note>
<note>
<pitch>
<step>B</step>
<octave>4</octave>
</pitch>
<duration>8</duration>
<tie type="stop"/>
<voice>1</voice>
<type>quarter</type>
<stem>up</stem>
<notations>
<tied type="stop"/>
</notations>
</note>
<note>
<pitch>
<step>G</step>
<alter>1</alter>
<octave>4</octave>
</pitch>
<duration>4</duration>
<voice>1</voice>
<type>eighth</type>
<stem>up</stem>
<beam number="1">begin</beam>
<lyric number="1">
<syllabic>single</syllabic>
<text>le</text>
</lyric>
</note>
<note>
<pitch>
<step>A</step>
<octave>4</octave>
</pitch>
<duration>4</duration>
<voice>1</voice>
<type>eighth</type>
<stem>up</stem>
<beam number="1">continue</beam>
<lyric number="1">
<syllabic>begin</syllabic>
<text>sou</text>
</lyric>
</note>
<backup>
<duration>32</duration>
</backup>
<note>
<pitch>
<step>G</step>
<alter>1</alter>
<octave>4</octave>
</pitch>
<duration>8</duration>
<voice>2</voice>
<type>quarter</type>
<stem>down</stem>
</note>
<note>
<pitch>
<step>G</step>
<alter>1</alter>
<octave>4</octave>
</pitch>
<duration>4</duration>
<voice>2</voice>
<type>eighth</type>
<stem>down</stem>
</note>
<note>
<pitch>
<step>F</step>
<alter>1</alter>
<octave>4</octave>
</pitch>
<duration>4</duration>
<tie type="start"/>
<voice>2</voice>
<type>eighth</type>
<stem>down</stem>
<notations>
<tied type="start"/>
</notations>
</note>
<note>
<pitch>
<step>F</step>
<alter>1</alter>
<octave>4</octave>
</pitch>
<duration>8</duration>
<tie type="stop"/>
<voice>2</voice>
<type>quarter</type>
<stem>down</stem>
<notations>
<tied type="stop"/>
</notations>
</note>
<note>
<pitch>
<step>F</step>
<alter>1</alter>
<octave>4</octave>
</pitch>
<duration>4</duration>
<voice>2</voice>
<type>eighth</type>
<stem>down</stem>
</note>
<note>
<pitch>
<step>F</step>
<alter>1</alter>
<octave>4</octave>
</pitch>
<duration>4</duration>
<voice>2</voice>
<type>eighth</type>
<stem>down</stem>
</note>
</measure>
<measure number="15">
<note>
<pitch>
<step>B</step>
<octave>4</octave>
</pitch>
<duration>4</duration>
<voice>1</voice>
<type>eighth</type>
<stem>up</stem>
<beam number="1">begin</beam>
<lyric number="1">
<syllabic>end</syllabic>
<text>tien</text>
</lyric>
</note>
<note>
<pitch>
<step>C</step>
<alter>1</alter>
<octave>5</octave>
</pitch>
<duration>4</duration>
<voice>1</voice>
<type>eighth</type>
<stem>up</stem>
<beam number="1">continue</beam>
<lyric number="1">
<syllabic>single</syllabic>
<text>de</text>
</lyric>
</note>
<note>
<pitch>
<step>B</step>
<octave>4</octave>
</pitch>
<duration>4</duration>
<voice>1</voice>
<type>eighth</type>
<stem>up</stem>
<beam number="1">begin</beam>
<lyric number="1">
<syllabic>single</syllabic>
<text>mon</text>
</lyric>
</note>
<note>
<pitch>
<step>E</step>
<octave>4</octave>
</pitch>
<duration>4</duration>
<tie type="start"/>
<voice>1</voice>
<type>eighth</type>
<stem>up</stem>
<beam number="1">continue</beam>
<notations>
<tied type="start"/>
</notations>
<lyric number="1">
<syllabic>single</syllabic>
<text>coeur,</text>
</lyric>
</note>
<note>
<pitch>
<step>E</step>
<octave>4</octave>
</pitch>
<duration>8</duration>
<tie type="stop"/>
<voice>1</voice>
<type>quarter</type>
<stem>up</stem>
<notations>
<tied type="stop"/>
</notations>
</note>
<note>
<rest/>
<duration>8</duration>
<voice>1</voice>
<type>quarter</type>
</note>
<backup>
<duration>32</duration>
</backup>
<note>
<pitch>
<step>E</step>
<octave>4</octave>
</pitch>
<duration>4</duration>
<voice>2</voice>
<type>eighth</type>
<stem>down</stem>
</note>
<note>
<pitch>
<step>E</step>
<octave>4</octave>
</pitch>
<duration>4</duration>
<voice>2</voice>
<type>eighth</type>
<stem>down</stem>
</note>
<note>
<pitch>
<step>E</step>
<octave>4</octave>
</pitch>
<duration>4</duration>
<voice>2</voice>
<type>eighth</type>
<stem>down</stem>
</note>
<note>
<pitch>
<step>C</step>
<octave>4</octave>
</pitch>
<duration>4</duration>
<tie type="start"/>
<voice>2</voice>
<type>eighth</type>
<accidental>natural</accidental>
<stem>down</stem>
<notations>
<tied type="start"/>
</notations>
</note>
<note>
<pitch>
<step>C</step>
<octave>4</octave>
</pitch>
<duration>8</duration>
<tie type="stop"/>
<voice>2</voice>
<type>quarter</type>
<stem>down</stem>
<notations>
<tied type="stop"/>
</notations>
</note>
<forward>
<duration>8</duration>
<voice>2</voice>
</forward>
</measure>
<measure number="16">
<note>
<pitch>
<step>A</step>
<octave>4</octave>
</pitch>
<duration>4</duration>
<voice>1</voice>
<type>eighth</type>
<stem>up</stem>
<beam number="1">begin</beam>
<lyric number="1">
<syllabic>single</syllabic>
<text>près</text>
</lyric>
</note>
<note>
<pitch>
<step>G</step>
<alter>1</alter>
<octave>4</octave>
</pitch>
<duration>4</duration>
<voice>1</voice>
<type>eighth</type>
<stem>up</stem>
<beam number="1">continue</beam>
<lyric number="1">
<syllabic>single</syllabic>
<text>de</text>
</lyric>
</note>
<note>
<pitch>
<step>E</step>
<octave>4</octave>
</pitch>
<duration>4</duration>
<voice>1</voice>
<type>eighth</type>
<stem>up</stem>
<beam number="1">begin</beam>
<lyric number="1">
<syllabic>single</syllabic>
<text>toi,</text>
</lyric>
</note>
<note>
<pitch>
<step>A</step>
<octave>4</octave>
</pitch>
<duration>4</duration>
<tie type="start"/>
<voice>1</voice>
<type>eighth</type>
<stem>up</stem>
<beam number="1">continue</beam>
<notations>
<tied type="start"/>
</notations>
<lyric number="1">
<syllabic>single</syllabic>
<text>je</text>
</lyric>
</note>
<note>
<pitch>
<step>A</step>
<octave>4</octave>
</pitch>
<duration>4</duration>
<tie type="stop"/>
<voice>1</voice>
<type>eighth</type>
<stem>up</stem>
<beam number="1">begin</beam>
<notations>
<tied type="stop"/>
</notations>
</note>
<note>
<pitch>
<step>G</step>
<alter>1</alter>
<octave>4</octave>
</pitch>
<duration>4</duration>
<voice>1</voice>
<type>eighth</type>
<stem>up</stem>
<beam number="1">continue</beam>
<lyric number="1">
<syllabic>single</syllabic>
<text>me</text>
</lyric>
</note>
<note>
<pitch>
<step>E</step>
<octave>4</octave>
</pitch>
<duration>4</duration>
<voice>1</voice>
<type>eighth</type>
<stem>up</stem>
<beam number="1">begin</beam>
<lyric number="1">
<syllabic>single</syllabic>
<text>sens</text>
</lyric>
</note>
<note>
<pitch>
<step>E</step>
<octave>4</octave>
</pitch>
<duration>4</duration>
<tie type="start"/>
<voice>1</voice>
<type>eighth</type>
<stem>up</stem>
<beam number="1">continue</beam>
<notations>
<tied type="start"/>
</notations>
<lyric number="1">
<syllabic>single</syllabic>
<text>bien.</text>
</lyric>
</note>
<backup>
<duration>32</duration>
</backup>
<note>
<pitch>
<step>E</step>
<octave>4</octave>
</pitch>
<duration>4</duration>
<voice>2</voice>
<type>eighth</type>
<stem>down</stem>
</note>
<note>
<pitch>
<step>E</step>
<octave>4</octave>
</pitch>
<duration>4</duration>
<voice>2</voice>
<type>eighth</type>
<stem>down</stem>
</note>
<note>
<pitch>
<step>C</step>
<alter>1</alter>
<octave>4</octave>
</pitch>
<duration>4</duration>
<voice>2</voice>
<type>eighth</type>
<stem>down</stem>
</note>
<note>
<pitch>
<step>E</step>
<octave>4</octave>
</pitch>
<duration>4</duration>
<tie type="start"/>
<voice>2</voice>
<type>eighth</type>
<stem>down</stem>
<notations>
<tied type="start"/>
</notations>
</note>
<note>
<pitch>
<step>E</step>
<octave>4</octave>
</pitch>
<duration>4</duration>
<tie type="stop"/>
<voice>2</voice>
<type>eighth</type>
<stem>down</stem>
<notations>
<tied type="stop"/>
</notations>
</note>
<note>
<pitch>
<step>E</step>
<octave>4</octave>
</pitch>
<duration>4</duration>
<voice>2</voice>
<type>eighth</type>
<stem>down</stem>
</note>
<note>
<pitch>
<step>B</step>
<octave>3</octave>
</pitch>
<duration>4</duration>
<voice>2</voice>
<type>eighth</type>
<stem>down</stem>
</note>
<note>
<pitch>
<step>B</step>
<octave>3</octave>
</pitch>
<duration>4</duration>
<tie type="start"/>
<voice>2</voice>
<type>eighth</type>
<stem>down</stem>
<notations>
<tied type="start"/>
</notations>
</note>
</measure>
<measure number="17">
<note>
<pitch>
<step>E</step>
<octave>4</octave>
</pitch>
<duration>24</duration>
<tie type="stop"/>
<voice>1</voice>
<type>half</type>
<dot/>
<stem>up</stem>
<notations>
<tied type="stop"/>
</notations>
</note>
<note>
<rest/>
<duration>8</duration>
<voice>1</voice>
<type>quarter</type>
</note>
<backup>
<duration>32</duration>
</backup>
<note>
<pitch>
<step>B</step>
<octave>3</octave>
</pitch>
<duration>24</duration>
<tie type="stop"/>
<voice>2</voice>
<type>half</type>
<dot/>
<stem>down</stem>
<notations>
<tied type="stop"/>
</notations>
</note>
<forward>
<duration>8</duration>
<voice>2</voice>
</forward>
<barline location="right">
<bar-style>light-heavy</bar-style>
<repeat direction="backward"/>
</barline>
<barline location="right">
<bar-style>light-heavy</bar-style>
</barline>
</measure>
</part>
<part id="P2">
<measure number="1">
<attributes>
<divisions>8</divisions>
</attributes>
<attributes>
<clef>
<sign>F</sign>
<line>4</line>
</clef>
</attributes>
<attributes>
<key>
<fifths>4</fifths>
</key>
</attributes>
<attributes>
<time>
<beats>4</beats>
<beat-type>4</beat-type>
</time>
</attributes>
<note>
<rest/>
<duration>4</duration>
<type>eighth</type>
</note>
</measure>
<measure number="2">
<note>
<rest/>
<duration>32</duration>
<type>whole</type>
</note>
</measure>
<measure number="3">
<note>
<rest/>
<duration>32</duration>
<type>whole</type>
</note>
</measure>
<measure number="4">
<note>
<rest/>
<duration>32</duration>
<type>whole</type>
</note>
</measure>
<measure number="5">
<note>
<rest/>
<duration>32</duration>
<type>whole</type>
</note>
</measure>
<measure number="6">
<note>
<rest/>
<duration>32</duration>
<type>whole</type>
</note>
</measure>
<measure number="7">
<note>
<rest/>
<duration>32</duration>
<type>whole</type>
</note>
</measure>
<measure number="8">
<note>
<rest/>
<duration>32</duration>
<type>whole</type>
</note>
</measure>
<measure number="9">
<note>
<rest/>
<duration>32</duration>
<type>whole</type>
</note>
</measure>
<measure number="10">
<note>
<pitch>
<step>E</step>
<octave>4</octave>
</pitch>
<duration>8</duration>
<voice>1</voice>
<type>quarter</type>
<stem>up</stem>
</note>
<note>
<pitch>
<step>E</step>
<octave>4</octave>
</pitch>
<duration>4</duration>
<voice>1</voice>
<type>eighth</type>
<stem>up</stem>
<beam number="1">begin</beam>
</note>
<note>
<pitch>
<step>E</step>
<octave>4</octave>
</pitch>
<duration>4</duration>
<tie type="start"/>
<voice>1</voice>
<type>eighth</type>
<stem>up</stem>
<beam number="1">continue</beam>
<notations>
<tied type="start"/>
</notations>
</note>
<note>
<pitch>
<step>E</step>
<octave>4</octave>
</pitch>
<duration>8</duration>
<tie type="stop"/>
<voice>1</voice>
<type>quarter</type>
<stem>up</stem>
<notations>
<tied type="stop"/>
</notations>
</note>
<note>
<pitch>
<step>B</step>
<octave>3</octave>
</pitch>
<duration>4</duration>
<voice>1</voice>
<type>eighth</type>
<stem>up</stem>
<beam number="1">begin</beam>
</note>
<note>
<pitch>
<step>B</step>
<octave>3</octave>
</pitch>
<duration>4</duration>
<voice>1</voice>
<type>eighth</type>
<stem>up</stem>
<beam number="1">continue</beam>
</note>
<backup>
<duration>32</duration>
</backup>
<note>
<pitch>
<step>G</step>
<alter>1</alter>
<octave>3</octave>
</pitch>
<duration>8</duration>
<voice>2</voice>
<type>quarter</type>
<stem>down</stem>
</note>
<note>
<pitch>
<step>G</step>
<alter>1</alter>
<octave>3</octave>
</pitch>
<duration>4</duration>
<voice>2</voice>
<type>eighth</type>
<stem>down</stem>
</note>
<note>
<pitch>
<step>G</step>
<alter>1</alter>
<octave>3</octave>
</pitch>
<duration>4</duration>
<tie type="start"/>
<voice>2</voice>
<type>eighth</type>
<stem>down</stem>
<notations>
<tied type="start"/>
</notations>
</note>
<note>
<pitch>
<step>G</step>
<alter>1</alter>
<octave>3</octave>
</pitch>
<duration>8</duration>
<tie type="stop"/>
<voice>2</voice>
<type>quarter</type>
<stem>down</stem>
<notations>
<tied type="stop"/>
</notations>
</note>
<note>
<pitch>
<step>E</step>
<octave>3</octave>
</pitch>
<duration>4</duration>
<voice>2</voice>
<type>eighth</type>
<stem>down</stem>
</note>
<note>
<pitch>
<step>E</step>
<octave>3</octave>
</pitch>
<duration>4</duration>
<voice>2</voice>
<type>eighth</type>
<stem>down</stem>
</note>
</measure>
<measure number="11">
<note>
<pitch>
<step>D</step>
<alter>1</alter>
<octave>4</octave>
</pitch>
<duration>4</duration>
<voice>1</voice>
<type>eighth</type>
<stem>up</stem>
<beam number="1">begin</beam>
</note>
<note>
<pitch>
<step>D</step>
<alter>1</alter>
<octave>4</octave>
</pitch>
<duration>4</duration>
<voice>1</voice>
<type>eighth</type>
<stem>up</stem>
<beam number="1">continue</beam>
</note>
<note>
<pitch>
<step>D</step>
<alter>1</alter>
<octave>4</octave>
</pitch>
<duration>4</duration>
<voice>1</voice>
<type>eighth</type>
<stem>up</stem>
<beam number="1">begin</beam>
</note>
<note>
<pitch>
<step>D</step>
<alter>1</alter>
<octave>4</octave>
</pitch>
<duration>4</duration>
<tie type="start"/>
<voice>1</voice>
<type>eighth</type>
<stem>up</stem>
<beam number="1">continue</beam>
<notations>
<tied type="start"/>
</notations>
</note>
<note>
<pitch>
<step>D</step>
<alter>1</alter>
<octave>4</octave>
</pitch>
<duration>8</duration>
<tie type="stop"/>
<voice>1</voice>
<type>quarter</type>
<stem>up</stem>
<notations>
<tied type="stop"/>
</notations>
</note>
<note>
<rest/>
<duration>8</duration>
<voice>1</voice>
<type>quarter</type>
</note>
<backup>
<duration>32</duration>
</backup>
<note>
<pitch>
<step>G</step>
<alter>1</alter>
<octave>3</octave>
</pitch>
<duration>4</duration>
<voice>2</voice>
<type>eighth</type>
<stem>down</stem>
</note>
<note>
<pitch>
<step>G</step>
<alter>1</alter>
<octave>3</octave>
</pitch>
<duration>4</duration>
<voice>2</voice>
<type>eighth</type>
<stem>down</stem>
</note>
<note>
<pitch>
<step>G</step>
<alter>1</alter>
<octave>3</octave>
</pitch>
<duration>4</duration>
<voice>2</voice>
<type>eighth</type>
<stem>down</stem>
</note>
<note>
<pitch>
<step>G</step>
<alter>1</alter>
<octave>3</octave>
</pitch>
<duration>4</duration>
<tie type="start"/>
<voice>2</voice>
<type>eighth</type>
<stem>down</stem>
<notations>
<tied type="start"/>
</notations>
</note>
<note>
<pitch>
<step>G</step>
<alter>1</alter>
<octave>3</octave>
</pitch>
<duration>8</duration>
<tie type="stop"/>
<voice>2</voice>
<type>quarter</type>
<stem>down</stem>
<notations>
<tied type="stop"/>
</notations>
</note>
<forward>
<duration>8</duration>
<voice>2</voice>
</forward>
</measure>
<measure number="12">
<note>
<pitch>
<step>C</step>
<alter>1</alter>
<octave>4</octave>
</pitch>
<duration>8</duration>
<voice>1</voice>
<type>quarter</type>
<stem>up</stem>
</note>
<note>
<pitch>
<step>C</step>
<alter>1</alter>
<octave>4</octave>
</pitch>
<duration>8</duration>
<voice>1</voice>
<type>quarter</type>
<stem>up</stem>
</note>
<note>
<pitch>
<step>C</step>
<alter>1</alter>
<octave>4</octave>
</pitch>
<duration>4</duration>
<voice>1</voice>
<type>eighth</type>
<stem>up</stem>
<beam number="1">begin</beam>
</note>
<note>
<pitch>
<step>B</step>
<octave>3</octave>
</pitch>
<duration>4</duration>
<voice>1</voice>
<type>eighth</type>
<stem>up</stem>
<beam number="1">continue</beam>
</note>
<note>
<pitch>
<step>B</step>
<octave>3</octave>
</pitch>
<duration>4</duration>
<voice>1</voice>
<type>eighth</type>
<stem>up</stem>
<beam number="1">begin</beam>
</note>
<note>
<pitch>
<step>B</step>
<octave>3</octave>
</pitch>
<duration>4</duration>
<tie type="start"/>
<voice>1</voice>
<type>eighth</type>
<stem>up</stem>
<beam number="1">continue</beam>
<notations>
<tied type="start"/>
</notations>
</note>
<backup>
<duration>32</duration>
</backup>
<note>
<pitch>
<step>A</step>
<octave>3</octave>
</pitch>
<duration>4</duration>
<voice>2</voice>
<type>eighth</type>
<stem>down</stem>
<beam number="1">begin</beam>
<notations>
<slur type="start" number="1"/>
</notations>
</note>
<note>
<pitch>
<step>G</step>
<alter>1</alter>
<octave>3</octave>
</pitch>
<duration>4</duration>
<voice>2</voice>
<type>eighth</type>
<stem>down</stem>
<beam number="1">continue</beam>
<notations>
<slur type="stop" number="1"/>
</notations>
</note>
<note>
<pitch>
<step>F</step>
<alter>1</alter>
<octave>3</octave>
</pitch>
<duration>8</duration>
<voice>2</voice>
<type>quarter</type>
<stem>down</stem>
</note>
<note>
<pitch>
<step>B</step>
<octave>2</octave>
</pitch>
<duration>4</duration>
<voice>2</voice>
<type>eighth</type>
<stem>down</stem>
</note>
<note>
<pitch>
<step>B</step>
<octave>2</octave>
</pitch>
<duration>4</duration>
<voice>2</voice>
<type>eighth</type>
<stem>down</stem>
</note>
<note>
<pitch>
<step>D</step>
<alter>1</alter>
<octave>3</octave>
</pitch>
<duration>4</duration>
<voice>2</voice>
<type>eighth</type>
<stem>down</stem>
</note>
<note>
<pitch>
<step>E</step>
<octave>3</octave>
</pitch>
<duration>4</duration>
<tie type="start"/>
<voice>2</voice>
<type>eighth</type>
<stem>down</stem>
<notations>
<tied type="start"/>
</notations>
</note>
</measure>
<measure number="13">
<note>
<pitch>
<step>B</step>
<octave>3</octave>
</pitch>
<duration>4</duration>
<tie type="stop"/>
<voice>1</voice>
<type>eighth</type>
<stem>up</stem>
<beam number="1">begin</beam>
<notations>
<tied type="stop"/>
</notations>
</note>
<note>
<pitch>
<step>C</step>
<alter>1</alter>
<octave>4</octave>
</pitch>
<duration>4</duration>
<voice>1</voice>
<type>eighth</type>
<stem>up</stem>
<beam number="1">continue</beam>
</note>
<note>
<pitch>
<step>B</step>
<octave>3</octave>
</pitch>
<duration>4</duration>
<voice>1</voice>
<type>eighth</type>
<stem>up</stem>
<beam number="1">begin</beam>
</note>
<note>
<pitch>
<step>B</step>
<octave>3</octave>
</pitch>
<duration>4</duration>
<tie type="start"/>
<voice>1</voice>
<type>eighth</type>
<stem>up</stem>
<beam number="1">continue</beam>
<notations>
<tied type="start"/>
</notations>
</note>
<note>
<pitch>
<step>B</step>
<octave>3</octave>
</pitch>
<duration>4</duration>
<tie type="stop"/>
<voice>1</voice>
<type>eighth</type>
<stem>up</stem>
<notations>
<tied type="stop"/>
</notations>
</note>
<note>
<rest/>
<duration>4</duration>
<voice>1</voice>
<type>eighth</type>
</note>
<note>
<pitch>
<step>B</step>
<octave>3</octave>
</pitch>
<duration>4</duration>
<voice>1</voice>
<type>eighth</type>
<stem>up</stem>
<beam number="1">begin</beam>
</note>
<note>
<pitch>
<step>C</step>
<alter>1</alter>
<octave>4</octave>
</pitch>
<duration>4</duration>
<voice>1</voice>
<type>eighth</type>
<stem>up</stem>
<beam number="1">continue</beam>
</note>
<backup>
<duration>32</duration>
</backup>
<note>
<pitch>
<step>E</step>
<octave>3</octave>
</pitch>
<duration>4</duration>
<tie type="stop"/>
<voice>2</voice>
<type>eighth</type>
<stem>down</stem>
<notations>
<tied type="stop"/>
</notations>
</note>
<note>
<pitch>
<step>E</step>
<octave>3</octave>
</pitch>
<duration>4</duration>
<voice>2</voice>
<type>eighth</type>
<stem>down</stem>
</note>
<note>
<pitch>
<step>G</step>
<alter>1</alter>
<octave>3</octave>
</pitch>
<duration>4</duration>
<voice>2</voice>
<type>eighth</type>
<stem>down</stem>
</note>
<note>
<pitch>
<step>B</step>
<octave>3</octave>
</pitch>
<duration>4</duration>
<tie type="start"/>
<voice>2</voice>
<type>eighth</type>
<stem>down</stem>
<notations>
<tied type="start"/>
</notations>
</note>
<note>
<pitch>
<step>B</step>
<octave>3</octave>
</pitch>
<duration>4</duration>
<tie type="stop"/>
<voice>2</voice>
<type>eighth</type>
<stem>down</stem>
<notations>
<tied type="stop"/>
</notations>
</note>
<forward>
<duration>4</duration>
<voice>2</voice>
</forward>
<note>
<pitch>
<step>G</step>
<alter>1</alter>
<octave>3</octave>
</pitch>
<duration>4</duration>
<voice>2</voice>
<type>eighth</type>
<stem>down</stem>
</note>
<note>
<pitch>
<step>A</step>
<octave>3</octave>
</pitch>
<duration>4</duration>
<voice>2</voice>
<type>eighth</type>
<stem>down</stem>
</note>
</measure>
<measure number="14">
<note>
<pitch>
<step>E</step>
<octave>4</octave>
</pitch>
<duration>8</duration>
<voice>1</voice>
<type>quarter</type>
<stem>up</stem>
</note>
<note>
<pitch>
<step>E</step>
<octave>4</octave>
</pitch>
<duration>4</duration>
<voice>1</voice>
<type>eighth</type>
<stem>up</stem>
<beam number="1">begin</beam>
</note>
<note>
<pitch>
<step>D</step>
<octave>4</octave>
</pitch>
<duration>4</duration>
<tie type="start"/>
<voice>1</voice>
<type>eighth</type>
<accidental>natural</accidental>
<stem>up</stem>
<beam number="1">continue</beam>
<notations>
<tied type="start"/>
</notations>
</note>
<note>
<pitch>
<step>D</step>
<octave>4</octave>
</pitch>
<duration>8</duration>
<tie type="stop"/>
<voice>1</voice>
<type>quarter</type>
<stem>up</stem>
<notations>
<tied type="stop"/>
</notations>
</note>
<note>
<pitch>
<step>D</step>
<octave>4</octave>
</pitch>
<duration>4</duration>
<voice>1</voice>
<type>eighth</type>
<stem>up</stem>
<beam number="1">begin</beam>
</note>
<note>
<pitch>
<step>D</step>
<octave>4</octave>
</pitch>
<duration>4</duration>
<voice>1</voice>
<type>eighth</type>
<stem>up</stem>
<beam number="1">continue</beam>
</note>
<backup>
<duration>32</duration>
</backup>
<note>
<pitch>
<step>B</step>
<octave>3</octave>
</pitch>
<duration>8</duration>
<voice>2</voice>
<type>quarter</type>
<stem>down</stem>
</note>
<note>
<pitch>
<step>B</step>
<octave>3</octave>
</pitch>
<duration>4</duration>
<voice>2</voice>
<type>eighth</type>
<stem>down</stem>
</note>
<note>
<pitch>
<step>B</step>
<octave>3</octave>
</pitch>
<duration>4</duration>
<tie type="start"/>
<voice>2</voice>
<type>eighth</type>
<stem>down</stem>
<notations>
<tied type="start"/>
</notations>
</note>
<note>
<pitch>
<step>B</step>
<octave>3</octave>
</pitch>
<duration>8</duration>
<tie type="stop"/>
<voice>2</voice>
<type>quarter</type>
<stem>down</stem>
<notations>
<tied type="stop"/>
</notations>
</note>
<note>
<pitch>
<step>B</step>
<octave>3</octave>
</pitch>
<duration>4</duration>
<voice>2</voice>
<type>eighth</type>
<stem>down</stem>
</note>
<note>
<pitch>
<step>B</step>
<octave>3</octave>
</pitch>
<duration>4</duration>
<voice>2</voice>
<type>eighth</type>
<stem>down</stem>
</note>
</measure>
<measure number="15">
<note>
<pitch>
<step>C</step>
<alter>1</alter>
<octave>4</octave>
</pitch>
<duration>4</duration>
<voice>1</voice>
<type>eighth</type>
<stem>up</stem>
<beam number="1">begin</beam>
</note>
<note>
<pitch>
<step>C</step>
<alter>1</alter>
<octave>4</octave>
</pitch>
<duration>4</duration>
<voice>1</voice>
<type>eighth</type>
<stem>up</stem>
<beam number="1">continue</beam>
</note>
<note>
<pitch>
<step>C</step>
<alter>1</alter>
<octave>4</octave>
</pitch>
<duration>4</duration>
<voice>1</voice>
<type>eighth</type>
<stem>up</stem>
<beam number="1">begin</beam>
</note>
<note>
<pitch>
<step>A</step>
<octave>3</octave>
</pitch>
<duration>4</duration>
<tie type="start"/>
<voice>1</voice>
<type>eighth</type>
<stem>up</stem>
<beam number="1">continue</beam>
<notations>
<tied type="start"/>
</notations>
</note>
<note>
<pitch>
<step>A</step>
<octave>3</octave>
</pitch>
<duration>8</duration>
<tie type="stop"/>
<voice>1</voice>
<type>quarter</type>
<stem>up</stem>
<notations>
<tied type="stop"/>
</notations>
</note>
<note>
<rest/>
<duration>8</duration>
<voice>1</voice>
<type>quarter</type>
</note>
<backup>
<duration>32</duration>
</backup>
<note>
<pitch>
<step>A</step>
<octave>3</octave>
</pitch>
<duration>4</duration>
<voice>2</voice>
<type>eighth</type>
<stem>down</stem>
</note>
<note>
<pitch>
<step>A</step>
<octave>3</octave>
</pitch>
<duration>4</duration>
<voice>2</voice>
<type>eighth</type>
<stem>down</stem>
</note>
<note>
<pitch>
<step>A</step>
<octave>3</octave>
</pitch>
<duration>4</duration>
<voice>2</voice>
<type>eighth</type>
<stem>down</stem>
</note>
<note>
<pitch>
<step>F</step>
<alter>1</alter>
<octave>3</octave>
</pitch>
<duration>4</duration>
<tie type="start"/>
<voice>2</voice>
<type>eighth</type>
<stem>down</stem>
<notations>
<tied type="start"/>
</notations>
</note>
<note>
<pitch>
<step>F</step>
<alter>1</alter>
<octave>3</octave>
</pitch>
<duration>8</duration>
<tie type="stop"/>
<voice>2</voice>
<type>quarter</type>
<stem>down</stem>
<notations>
<tied type="stop"/>
</notations>
</note>
<forward>
<duration>8</duration>
<voice>2</voice>
</forward>
</measure>
<measure number="16">
<note>
<pitch>
<step>C</step>
<alter>1</alter>
<octave>4</octave>
</pitch>
<duration>4</duration>
<voice>1</voice>
<type>eighth</type>
<stem>up</stem>
<beam number="1">begin</beam>
</note>
<note>
<pitch>
<step>B</step>
<octave>3</octave>
</pitch>
<duration>4</duration>
<voice>1</voice>
<type>eighth</type>
<stem>up</stem>
<beam number="1">continue</beam>
</note>
<note>
<pitch>
<step>A</step>
<octave>3</octave>
</pitch>
<duration>4</duration>
<voice>1</voice>
<type>eighth</type>
<stem>up</stem>
<beam number="1">begin</beam>
</note>
<note>
<pitch>
<step>C</step>
<alter>1</alter>
<octave>4</octave>
</pitch>
<duration>4</duration>
<tie type="start"/>
<voice>1</voice>
<type>eighth</type>
<stem>up</stem>
<beam number="1">continue</beam>
<notations>
<tied type="start"/>
</notations>
</note>
<note>
<pitch>
<step>C</step>
<alter>1</alter>
<octave>4</octave>
</pitch>
<duration>4</duration>
<tie type="stop"/>
<voice>1</voice>
<type>eighth</type>
<stem>up</stem>
<beam number="1">begin</beam>
<notations>
<tied type="stop"/>
</notations>
</note>
<note>
<pitch>
<step>B</step>
<octave>3</octave>
</pitch>
<duration>4</duration>
<voice>1</voice>
<type>eighth</type>
<stem>up</stem>
<beam number="1">continue</beam>
</note>
<note>
<pitch>
<step>A</step>
<octave>3</octave>
</pitch>
<duration>4</duration>
<voice>1</voice>
<type>eighth</type>
<stem>up</stem>
<beam number="1">begin</beam>
</note>
<note>
<pitch>
<step>G</step>
<alter>1</alter>
<octave>3</octave>
</pitch>
<duration>4</duration>
<tie type="start"/>
<voice>1</voice>
<type>eighth</type>
<stem>up</stem>
<beam number="1">continue</beam>
<notations>
<tied type="start"/>
</notations>
</note>
<backup>
<duration>32</duration>
</backup>
<note>
<pitch>
<step>A</step>
<octave>3</octave>
</pitch>
<duration>4</duration>
<voice>2</voice>
<type>eighth</type>
<stem>down</stem>
</note>
<note>
<pitch>
<step>A</step>
<octave>3</octave>
</pitch>
<duration>4</duration>
<voice>2</voice>
<type>eighth</type>
<stem>down</stem>
</note>
<note>
<pitch>
<step>F</step>
<alter>1</alter>
<octave>3</octave>
</pitch>
<duration>4</duration>
<voice>2</voice>
<type>eighth</type>
<stem>down</stem>
</note>
<note>
<pitch>
<step>A</step>
<octave>3</octave>
</pitch>
<duration>4</duration>
<tie type="start"/>
<voice>2</voice>
<type>eighth</type>
<stem>down</stem>
<notations>
<tied type="start"/>
</notations>
</note>
<note>
<pitch>
<step>A</step>
<octave>3</octave>
</pitch>
<duration>4</duration>
<tie type="stop"/>
<voice>2</voice>
<type>eighth</type>
<stem>down</stem>
<notations>
<tied type="stop"/>
</notations>
</note>
<note>
<pitch>
<step>A</step>
<octave>3</octave>
</pitch>
<duration>4</duration>
<voice>2</voice>
<type>eighth</type>
<stem>down</stem>
</note>
<note>
<pitch>
<step>B</step>
<octave>2</octave>
</pitch>
<duration>4</duration>
<voice>2</voice>
<type>eighth</type>
<stem>down</stem>
</note>
<note>
<pitch>
<step>E</step>
<octave>3</octave>
</pitch>
<duration>4</duration>
<tie type="start"/>
<voice>2</voice>
<type>eighth</type>
<stem>down</stem>
<notations>
<tied type="start"/>
</notations>
</note>
</measure>
<measure number="17">
<note>
<pitch>
<step>G</step>
<alter>1</alter>
<octave>3</octave>
</pitch>
<duration>24</duration>
<tie type="stop"/>
<voice>1</voice>
<type>half</type>
<dot/>
<stem>up</stem>
<notations>
<tied type="stop"/>
</notations>
</note>
<note>
<rest/>
<duration>8</duration>
<voice>1</voice>
<type>quarter</type>
</note>
<backup>
<duration>32</duration>
</backup>
<note>
<pitch>
<step>E</step>
<octave>3</octave>
</pitch>
<duration>24</duration>
<tie type="stop"/>
<voice>2</voice>
<type>half</type>
<dot/>
<stem>down</stem>
<notations>
<tied type="stop"/>
</notations>
</note>
<forward>
<duration>8</duration>
<voice>2</voice>
</forward>
<barline location="right">
<bar-style>light-heavy</bar-style>
<repeat direction="backward"/>
</barline>
<barline location="right">
<bar-style>light-heavy</bar-style>
</barline>
</measure>
</part>
</score-partwise>
