<?xml version="1.0" encoding="UTF-8" standalone='no'?>
<!DOCTYPE score-partwise PUBLIC "-//Recordare//DTD MusicXML 1.0 Partwise//EN" "http://www.musicxml.org/dtds/partwise.dtd">
<score-partwise>
<work>
<work-title>La trompette sonne</work-title>
</work>
<identification>
<creator type="transcriber">Corinne Lafitte</creator>
<rights>© 1994 Corinne Lafitte</rights>
<encoding>
<software>Noteworthy Composer</software>
<encoding-date>2007-02-17</encoding-date>
</encoding>
</identification>
<part-list>
<score-part id="P1">
<part-name>Mélodie</part-name>
<score-instrument id="P1-I1">
<instrument-name>String Ensemble 1</instrument-name>
</score-instrument>
<midi-instrument id="P1-I1">
<midi-channel>1</midi-channel>
<midi-program>50</midi-program>
</midi-instrument>
</score-part>
</part-list>
<part id="P1">
<measure number="1">
<attributes>
<divisions>8</divisions>
</attributes>
<attributes>
<clef>
<sign>G</sign>
<line>2</line>
</clef>
</attributes>
<attributes>
<time symbol="common">
<beats>4</beats>
<beat-type>4</beat-type>
</time>
</attributes>
<direction>
<direction-type>
<metronome parentheses="no">
<beat-unit>quarter</beat-unit>
<per-minute>140</per-minute>
</metronome>
</direction-type>
<sound tempo="140"/>
</direction>
<note>
<pitch>
<step>E</step>
<octave>4</octave>
</pitch>
<duration>8</duration>
<type>quarter</type>
<lyric number="1">
<syllabic>single</syllabic>
<text>1. La</text>
</lyric>
<lyric number="2">
<syllabic>single</syllabic>
<text>2. La</text>
</lyric>
<lyric number="3">
<syllabic>single</syllabic>
<text>3. La</text>
</lyric>
</note>
<note>
<pitch>
<step>E</step>
<octave>4</octave>
</pitch>
<duration>4</duration>
<type>eighth</type>
<stem>up</stem>
<beam number="1">begin</beam>
<lyric number="1">
<syllabic>begin</syllabic>
<text>trom</text>
</lyric>
<lyric number="2">
<syllabic>begin</syllabic>
<text>trom</text>
</lyric>
<lyric number="3">
<syllabic>begin</syllabic>
<text>trom</text>
</lyric>
</note>
<note>
<pitch>
<step>E</step>
<octave>4</octave>
</pitch>
<duration>4</duration>
<tie type="start"/>
<type>eighth</type>
<stem>up</stem>
<beam number="1">continue</beam>
<notations>
<tied type="start"/>
</notations>
<lyric number="1">
<syllabic>middle</syllabic>
<text>pet</text>
</lyric>
<lyric number="2">
<syllabic>middle</syllabic>
<text>pet</text>
</lyric>
<lyric number="3">
<syllabic>middle</syllabic>
<text>pet</text>
</lyric>
</note>
<note>
<pitch>
<step>E</step>
<octave>4</octave>
</pitch>
<duration>4</duration>
<tie type="stop"/>
<type>eighth</type>
<notations>
<tied type="stop"/>
</notations>
</note>
<note>
<pitch>
<step>E</step>
<octave>4</octave>
</pitch>
<duration>8</duration>
<type>quarter</type>
<lyric number="1">
<syllabic>end</syllabic>
<text>te</text>
</lyric>
<lyric number="2">
<syllabic>end</syllabic>
<text>te</text>
</lyric>
<lyric number="3">
<syllabic>end</syllabic>
<text>te</text>
</lyric>
</note>
<note>
<pitch>
<step>E</step>
<octave>4</octave>
</pitch>
<duration>4</duration>
<tie type="start"/>
<type>eighth</type>
<notations>
<tied type="start"/>
</notations>
<lyric number="1">
<syllabic>begin</syllabic>
<text>son</text>
</lyric>
<lyric number="2">
<syllabic>begin</syllabic>
<text>son</text>
</lyric>
<lyric number="3">
<syllabic>begin</syllabic>
<text>son</text>
</lyric>
</note>
</measure>
<measure number="2">
<note>
<pitch>
<step>E</step>
<octave>4</octave>
</pitch>
<duration>4</duration>
<tie type="stop"/>
<type>eighth</type>
<stem>up</stem>
<beam number="1">begin</beam>
<notations>
<tied type="stop"/>
<slur type="start" number="1"/>
</notations>
</note>
<note>
<pitch>
<step>D</step>
<octave>4</octave>
</pitch>
<duration>4</duration>
<type>eighth</type>
<stem>up</stem>
<beam number="1">continue</beam>
<notations>
<slur type="continue" number="1"/>
</notations>
</note>
<note>
<pitch>
<step>C</step>
<octave>4</octave>
</pitch>
<duration>4</duration>
<type>eighth</type>
<stem>up</stem>
<beam number="1">begin</beam>
<notations>
<slur type="stop" number="1"/>
</notations>
</note>
<note>
<pitch>
<step>C</step>
<octave>4</octave>
</pitch>
<duration>4</duration>
<tie type="start"/>
<type>eighth</type>
<stem>up</stem>
<beam number="1">continue</beam>
<notations>
<tied type="start"/>
</notations>
<lyric number="1">
<syllabic>end</syllabic>
<text>ne</text>
</lyric>
<lyric number="2">
<syllabic>end</syllabic>
<text>ne</text>
</lyric>
<lyric number="3">
<syllabic>end</syllabic>
<text>ne</text>
</lyric>
</note>
<note>
<pitch>
<step>C</step>
<octave>4</octave>
</pitch>
<duration>16</duration>
<tie type="stop"/>
<type>half</type>
<notations>
<tied type="stop"/>
</notations>
</note>
</measure>
<measure number="3">
<note>
<pitch>
<step>F</step>
<octave>4</octave>
</pitch>
<duration>8</duration>
<type>quarter</type>
<lyric number="1">
<syllabic>single</syllabic>
<text>sur</text>
</lyric>
<lyric number="2">
<syllabic>single</syllabic>
<text>sur</text>
</lyric>
<lyric number="3">
<syllabic>single</syllabic>
<text>sur</text>
</lyric>
</note>
<note>
<pitch>
<step>F</step>
<octave>4</octave>
</pitch>
<duration>4</duration>
<type>eighth</type>
<stem>up</stem>
<beam number="1">begin</beam>
<lyric number="1">
<syllabic>begin</syllabic>
<text>no</text>
</lyric>
<lyric number="2">
<syllabic>begin</syllabic>
<text>no</text>
</lyric>
<lyric number="3">
<syllabic>begin</syllabic>
<text>no</text>
</lyric>
</note>
<note>
<pitch>
<step>F</step>
<octave>4</octave>
</pitch>
<duration>4</duration>
<tie type="start"/>
<type>eighth</type>
<stem>up</stem>
<beam number="1">continue</beam>
<notations>
<tied type="start"/>
</notations>
<lyric number="1">
<syllabic>end</syllabic>
<text>tre</text>
</lyric>
<lyric number="2">
<syllabic>end</syllabic>
<text>tre</text>
</lyric>
<lyric number="3">
<syllabic>end</syllabic>
<text>tre</text>
</lyric>
</note>
<note>
<pitch>
<step>F</step>
<octave>4</octave>
</pitch>
<duration>4</duration>
<tie type="stop"/>
<type>eighth</type>
<notations>
<tied type="stop"/>
</notations>
</note>
<note>
<pitch>
<step>G</step>
<octave>4</octave>
</pitch>
<duration>8</duration>
<type>quarter</type>
<lyric number="1">
<syllabic>begin</syllabic>
<text>pa</text>
</lyric>
<lyric number="2">
<syllabic>begin</syllabic>
<text>pa</text>
</lyric>
<lyric number="3">
<syllabic>begin</syllabic>
<text>pa</text>
</lyric>
</note>
<note>
<pitch>
<step>E</step>
<octave>4</octave>
</pitch>
<duration>4</duration>
<tie type="start"/>
<type>eighth</type>
<notations>
<tied type="start"/>
</notations>
<lyric number="1">
<syllabic>end</syllabic>
<text>ys,</text>
</lyric>
<lyric number="2">
<syllabic>end</syllabic>
<text>ys,</text>
</lyric>
<lyric number="3">
<syllabic>end</syllabic>
<text>ys,</text>
</lyric>
</note>
</measure>
<measure number="4">
<note>
<pitch>
<step>E</step>
<octave>4</octave>
</pitch>
<duration>16</duration>
<tie type="stop"/>
<type>half</type>
<notations>
<tied type="stop"/>
</notations>
</note>
<note>
<pitch>
<step>E</step>
<octave>4</octave>
</pitch>
<duration>8</duration>
<type>quarter</type>
<lyric number="1">
<syllabic>begin</syllabic>
<text>ras</text>
</lyric>
<lyric number="2">
<syllabic>begin</syllabic>
<text>pré</text>
</lyric>
<lyric number="3">
<syllabic>begin</syllabic>
<text>ré</text>
</lyric>
</note>
<note>
<pitch>
<step>D</step>
<octave>4</octave>
</pitch>
<duration>4</duration>
<type>eighth</type>
<stem>up</stem>
<beam number="1">begin</beam>
<lyric number="1">
<syllabic>middle</syllabic>
<text>sem</text>
</lyric>
<lyric number="2">
<syllabic>middle</syllabic>
<text>pa</text>
</lyric>
<lyric number="3">
<syllabic>middle</syllabic>
<text>veil</text>
</lyric>
</note>
<note>
<pitch>
<step>D</step>
<octave>4</octave>
</pitch>
<duration>4</duration>
<tie type="start"/>
<type>eighth</type>
<stem>up</stem>
<beam number="1">continue</beam>
<notations>
<tied type="start"/>
</notations>
<lyric number="1">
<syllabic>middle</syllabic>
<text>blez</text>
</lyric>
<lyric number="2">
<syllabic>middle</syllabic>
<text>rez</text>
</lyric>
<lyric number="3">
<syllabic>middle</syllabic>
<text>lez</text>
</lyric>
</note>
</measure>
<measure number="5">
<note>
<pitch>
<step>D</step>
<octave>4</octave>
</pitch>
<duration>8</duration>
<tie type="stop"/>
<type>quarter</type>
<notations>
<tied type="stop"/>
</notations>
</note>
<note>
<pitch>
<step>C</step>
<octave>4</octave>
</pitch>
<duration>8</duration>
<type>quarter</type>
<lyric number="1">
<syllabic>end</syllabic>
<text>vous</text>
</lyric>
<lyric number="2">
<syllabic>end</syllabic>
<text>vous</text>
</lyric>
<lyric number="3">
<syllabic>end</syllabic>
<text>vous</text>
</lyric>
</note>
<note>
<rest/>
<duration>16</duration>
<type>half</type>
</note>
</measure>
<measure number="6">
<note>
<rest/>
<duration>16</duration>
<type>half</type>
</note>
<note>
<pitch>
<step>F</step>
<octave>4</octave>
</pitch>
<duration>8</duration>
<type>quarter</type>
<lyric number="1">
<syllabic>single</syllabic>
<text>mes</text>
</lyric>
<lyric number="2">
<syllabic>single</syllabic>
<text>mes</text>
</lyric>
<lyric number="3">
<syllabic>single</syllabic>
<text>mes</text>
</lyric>
</note>
<note>
<pitch>
<step>E</step>
<octave>4</octave>
</pitch>
<duration>8</duration>
<type>quarter</type>
<lyric number="1">
<syllabic>begin</syllabic>
<text>en</text>
</lyric>
<lyric number="2">
<syllabic>begin</syllabic>
<text>en</text>
</lyric>
<lyric number="3">
<syllabic>begin</syllabic>
<text>en</text>
</lyric>
</note>
</measure>
<measure number="7">
<note>
<pitch>
<step>E</step>
<octave>4</octave>
</pitch>
<duration>32</duration>
<type>whole</type>
<notations>
<slur type="start" number="1"/>
</notations>
<lyric number="1">
<syllabic>end</syllabic>
<text>fants.</text>
</lyric>
<lyric number="2">
<syllabic>end</syllabic>
<text>fants.</text>
</lyric>
<lyric number="3">
<syllabic>end</syllabic>
<text>fants.</text>
</lyric>
</note>
</measure>
<measure number="8">
<note>
<pitch>
<step>D</step>
<octave>4</octave>
</pitch>
<duration>32</duration>
<type>whole</type>
<notations>
<slur type="stop" number="1"/>
</notations>
</note>
</measure>
<measure number="9">
<note>
<pitch>
<step>E</step>
<octave>4</octave>
</pitch>
<duration>8</duration>
<type>quarter</type>
<lyric number="1">
<syllabic>single</syllabic>
<text>La</text>
</lyric>
<lyric number="2">
<syllabic>single</syllabic>
<text>La</text>
</lyric>
<lyric number="3">
<syllabic>single</syllabic>
<text>La</text>
</lyric>
</note>
<note>
<pitch>
<step>E</step>
<octave>4</octave>
</pitch>
<duration>4</duration>
<type>eighth</type>
<stem>up</stem>
<beam number="1">begin</beam>
<lyric number="1">
<syllabic>begin</syllabic>
<text>trom</text>
</lyric>
<lyric number="2">
<syllabic>begin</syllabic>
<text>trom</text>
</lyric>
<lyric number="3">
<syllabic>begin</syllabic>
<text>trom</text>
</lyric>
</note>
<note>
<pitch>
<step>E</step>
<octave>4</octave>
</pitch>
<duration>4</duration>
<tie type="start"/>
<type>eighth</type>
<stem>up</stem>
<beam number="1">continue</beam>
<notations>
<tied type="start"/>
</notations>
<lyric number="1">
<syllabic>middle</syllabic>
<text>pet</text>
</lyric>
<lyric number="2">
<syllabic>middle</syllabic>
<text>pet</text>
</lyric>
<lyric number="3">
<syllabic>middle</syllabic>
<text>pet</text>
</lyric>
</note>
<note>
<pitch>
<step>E</step>
<octave>4</octave>
</pitch>
<duration>4</duration>
<tie type="stop"/>
<type>eighth</type>
<notations>
<tied type="stop"/>
</notations>
</note>
<note>
<pitch>
<step>E</step>
<octave>4</octave>
</pitch>
<duration>8</duration>
<type>quarter</type>
<lyric number="1">
<syllabic>end</syllabic>
<text>te</text>
</lyric>
<lyric number="2">
<syllabic>end</syllabic>
<text>te</text>
</lyric>
<lyric number="3">
<syllabic>end</syllabic>
<text>te</text>
</lyric>
</note>
<note>
<pitch>
<step>E</step>
<octave>4</octave>
</pitch>
<duration>4</duration>
<tie type="start"/>
<type>eighth</type>
<notations>
<tied type="start"/>
</notations>
<lyric number="1">
<syllabic>begin</syllabic>
<text>son</text>
</lyric>
<lyric number="2">
<syllabic>begin</syllabic>
<text>son</text>
</lyric>
<lyric number="3">
<syllabic>begin</syllabic>
<text>son</text>
</lyric>
</note>
</measure>
<measure number="10">
<note>
<pitch>
<step>E</step>
<octave>4</octave>
</pitch>
<duration>4</duration>
<tie type="stop"/>
<type>eighth</type>
<stem>up</stem>
<beam number="1">begin</beam>
<notations>
<tied type="stop"/>
<slur type="start" number="1"/>
</notations>
</note>
<note>
<pitch>
<step>D</step>
<octave>4</octave>
</pitch>
<duration>4</duration>
<type>eighth</type>
<stem>up</stem>
<beam number="1">continue</beam>
<notations>
<slur type="continue" number="1"/>
</notations>
</note>
<note>
<pitch>
<step>C</step>
<octave>4</octave>
</pitch>
<duration>4</duration>
<type>eighth</type>
<stem>up</stem>
<beam number="1">begin</beam>
<notations>
<slur type="stop" number="1"/>
</notations>
</note>
<note>
<pitch>
<step>C</step>
<octave>4</octave>
</pitch>
<duration>4</duration>
<tie type="start"/>
<type>eighth</type>
<stem>up</stem>
<beam number="1">continue</beam>
<notations>
<tied type="start"/>
</notations>
<lyric number="1">
<syllabic>end</syllabic>
<text>ne</text>
</lyric>
<lyric number="2">
<syllabic>end</syllabic>
<text>ne</text>
</lyric>
<lyric number="3">
<syllabic>end</syllabic>
<text>ne</text>
</lyric>
</note>
<note>
<pitch>
<step>C</step>
<octave>4</octave>
</pitch>
<duration>16</duration>
<tie type="stop"/>
<type>half</type>
<notations>
<tied type="stop"/>
</notations>
</note>
</measure>
<measure number="11">
<note>
<pitch>
<step>F</step>
<octave>4</octave>
</pitch>
<duration>8</duration>
<type>quarter</type>
<lyric number="1">
<syllabic>single</syllabic>
<text>sur</text>
</lyric>
<lyric number="2">
<syllabic>single</syllabic>
<text>sur</text>
</lyric>
<lyric number="3">
<syllabic>single</syllabic>
<text>sur</text>
</lyric>
</note>
<note>
<pitch>
<step>F</step>
<octave>4</octave>
</pitch>
<duration>4</duration>
<type>eighth</type>
<stem>up</stem>
<beam number="1">begin</beam>
<lyric number="1">
<syllabic>begin</syllabic>
<text>no</text>
</lyric>
<lyric number="2">
<syllabic>begin</syllabic>
<text>no</text>
</lyric>
<lyric number="3">
<syllabic>begin</syllabic>
<text>no</text>
</lyric>
</note>
<note>
<pitch>
<step>F</step>
<octave>4</octave>
</pitch>
<duration>4</duration>
<tie type="start"/>
<type>eighth</type>
<stem>up</stem>
<beam number="1">continue</beam>
<notations>
<tied type="start"/>
</notations>
<lyric number="1">
<syllabic>end</syllabic>
<text>tre</text>
</lyric>
<lyric number="2">
<syllabic>end</syllabic>
<text>tre</text>
</lyric>
<lyric number="3">
<syllabic>end</syllabic>
<text>tre</text>
</lyric>
</note>
<note>
<pitch>
<step>F</step>
<octave>4</octave>
</pitch>
<duration>4</duration>
<tie type="stop"/>
<type>eighth</type>
<notations>
<tied type="stop"/>
</notations>
</note>
<note>
<pitch>
<step>G</step>
<octave>4</octave>
</pitch>
<duration>8</duration>
<type>quarter</type>
<lyric number="1">
<syllabic>begin</syllabic>
<text>pa</text>
</lyric>
<lyric number="2">
<syllabic>begin</syllabic>
<text>pa</text>
</lyric>
<lyric number="3">
<syllabic>begin</syllabic>
<text>pa</text>
</lyric>
</note>
<note>
<pitch>
<step>E</step>
<octave>4</octave>
</pitch>
<duration>4</duration>
<tie type="start"/>
<type>eighth</type>
<notations>
<tied type="start"/>
</notations>
<lyric number="1">
<syllabic>end</syllabic>
<text>ys,</text>
</lyric>
<lyric number="2">
<syllabic>end</syllabic>
<text>ys,</text>
</lyric>
<lyric number="3">
<syllabic>end</syllabic>
<text>ys,</text>
</lyric>
</note>
</measure>
<measure number="12">
<note>
<pitch>
<step>E</step>
<octave>4</octave>
</pitch>
<duration>16</duration>
<tie type="stop"/>
<type>half</type>
<notations>
<tied type="stop"/>
</notations>
</note>
<note>
<pitch>
<step>E</step>
<octave>4</octave>
</pitch>
<duration>8</duration>
<type>quarter</type>
<lyric number="1">
<syllabic>begin</syllabic>
<text>ras</text>
</lyric>
<lyric number="2">
<syllabic>single</syllabic>
<text>le</text>
</lyric>
<lyric number="3">
<syllabic>begin</syllabic>
<text>ré</text>
</lyric>
</note>
<note>
<pitch>
<step>D</step>
<octave>4</octave>
</pitch>
<duration>4</duration>
<type>eighth</type>
<stem>up</stem>
<beam number="1">begin</beam>
<lyric number="1">
<syllabic>middle</syllabic>
<text>sem</text>
</lyric>
<lyric number="2">
<syllabic>single</syllabic>
<text>Roi</text>
</lyric>
<lyric number="3">
<syllabic>middle</syllabic>
<text>veil</text>
</lyric>
</note>
<note>
<pitch>
<step>D</step>
<octave>4</octave>
</pitch>
<duration>4</duration>
<tie type="start"/>
<type>eighth</type>
<stem>up</stem>
<beam number="1">continue</beam>
<notations>
<tied type="start"/>
</notations>
<lyric number="1">
<syllabic>middle</syllabic>
<text>blez</text>
</lyric>
<lyric number="2">
<syllabic>single</syllabic>
<text>des</text>
</lyric>
<lyric number="3">
<syllabic>middle</syllabic>
<text>lez</text>
</lyric>
</note>
</measure>
<measure number="13">
<note>
<pitch>
<step>D</step>
<octave>4</octave>
</pitch>
<duration>8</duration>
<tie type="stop"/>
<type>quarter</type>
<notations>
<tied type="stop"/>
</notations>
</note>
<note>
<pitch>
<step>C</step>
<octave>4</octave>
</pitch>
<duration>8</duration>
<type>quarter</type>
<lyric number="1">
<syllabic>end</syllabic>
<text>vous</text>
</lyric>
<lyric number="2">
<syllabic>single</syllabic>
<text>rois</text>
</lyric>
<lyric number="3">
<syllabic>end</syllabic>
<text>vous</text>
</lyric>
</note>
<note>
<rest/>
<duration>16</duration>
<type>half</type>
</note>
</measure>
<measure number="14">
<note>
<rest/>
<duration>16</duration>
<type>half</type>
</note>
<note>
<pitch>
<step>F</step>
<octave>4</octave>
</pitch>
<duration>8</duration>
<type>quarter</type>
<lyric number="1">
<syllabic>single</syllabic>
<text>pour</text>
</lyric>
<lyric number="2">
<syllabic>begin</syllabic>
<text>é</text>
</lyric>
<lyric number="3">
<syllabic>single</syllabic>
<text>car</text>
</lyric>
</note>
<note>
<pitch>
<step>E</step>
<octave>4</octave>
</pitch>
<duration>8</duration>
<type>quarter</type>
<lyric number="1">
<syllabic>begin</syllabic>
<text>pri</text>
</lyric>
<lyric number="2">
<syllabic>middle</syllabic>
<text>ta</text>
</lyric>
<lyric number="3">
<syllabic>begin</syllabic>
<text>voi</text>
</lyric>
</note>
</measure>
<measure number="15">
<note>
<pitch>
<step>E</step>
<octave>4</octave>
</pitch>
<duration>24</duration>
<type>half</type>
<dot/>
<lyric number="1">
<syllabic>end</syllabic>
<text>er</text>
</lyric>
<lyric number="2">
<syllabic>end</syllabic>
<text>blit</text>
</lyric>
<lyric number="3">
<syllabic>end</syllabic>
<text>ci</text>
</lyric>
</note>
<note>
<pitch>
<step>D</step>
<octave>4</octave>
</pitch>
<duration>8</duration>
<type>quarter</type>
<lyric number="1">
<syllabic>begin</syllabic>
<text>en</text>
</lyric>
<lyric number="2">
<syllabic>single</syllabic>
<text>son</text>
</lyric>
<lyric number="3">
<syllabic>begin</syllabic>
<text>l'E</text>
</lyric>
</note>
</measure>
<measure number="16">
<note>
<pitch>
<step>D</step>
<octave>4</octave>
</pitch>
<duration>32</duration>
<type>whole</type>
<lyric number="1">
<syllabic>end</syllabic>
<text>semble,</text>
</lyric>
<lyric number="2">
<syllabic>single</syllabic>
<text>règne,</text>
</lyric>
<lyric number="3">
<syllabic>end</syllabic>
<text>poux.</text>
</lyric>
</note>
</measure>
<measure number="17">
<note>
<pitch>
<step>E</step>
<octave>4</octave>
</pitch>
<duration>8</duration>
<type>quarter</type>
<lyric number="1">
<syllabic>single</syllabic>
<text>pour</text>
</lyric>
<lyric number="2">
<syllabic>single</syllabic>
<text>Il</text>
</lyric>
<lyric number="3">
<syllabic>single</syllabic>
<text>Le</text>
</lyric>
</note>
<note>
<pitch>
<step>E</step>
<octave>4</octave>
</pitch>
<duration>4</duration>
<type>eighth</type>
<stem>up</stem>
<beam number="1">begin</beam>
<lyric number="1">
<syllabic>begin</syllabic>
<text>cher</text>
</lyric>
<lyric number="2">
<syllabic>single</syllabic>
<text>prend</text>
</lyric>
<lyric number="3">
<syllabic>begin</syllabic>
<text>re</text>
</lyric>
</note>
<note>
<pitch>
<step>E</step>
<octave>4</octave>
</pitch>
<duration>4</duration>
<tie type="start"/>
<type>eighth</type>
<stem>up</stem>
<beam number="1">continue</beam>
<notations>
<tied type="start"/>
</notations>
<lyric number="1">
<syllabic>end</syllabic>
<text>cher</text>
</lyric>
<lyric number="2">
<syllabic>begin</syllabic>
<text>pos</text>
</lyric>
<lyric number="3">
<syllabic>end</syllabic>
<text>pas</text>
</lyric>
</note>
<note>
<pitch>
<step>E</step>
<octave>4</octave>
</pitch>
<duration>4</duration>
<tie type="stop"/>
<type>eighth</type>
<notations>
<tied type="stop"/>
</notations>
</note>
<note>
<pitch>
<step>E</step>
<octave>4</octave>
</pitch>
<duration>8</duration>
<type>quarter</type>
<lyric number="1">
<syllabic>single</syllabic>
<text>ma</text>
</lyric>
<lyric number="2">
<syllabic>middle</syllabic>
<text>ses</text>
</lyric>
<lyric number="3">
<syllabic>single</syllabic>
<text>des</text>
</lyric>
</note>
<note>
<pitch>
<step>E</step>
<octave>4</octave>
</pitch>
<duration>4</duration>
<tie type="start"/>
<type>eighth</type>
<notations>
<tied type="start"/>
</notations>
<lyric number="1">
<syllabic>single</syllabic>
<text>face,</text>
</lyric>
<lyric number="2">
<syllabic>end</syllabic>
<text>sion</text>
</lyric>
<lyric number="3">
<syllabic>single</syllabic>
<text>noces</text>
</lyric>
</note>
</measure>
<measure number="18">
<note>
<pitch>
<step>E</step>
<octave>4</octave>
</pitch>
<duration>32</duration>
<tie type="stop"/>
<type>whole</type>
<notations>
<tied type="stop"/>
</notations>
</note>
</measure>
<measure number="19">
<note>
<pitch>
<step>E</step>
<octave>4</octave>
</pitch>
<duration>8</duration>
<type>quarter</type>
<lyric number="1">
<syllabic>begin</syllabic>
<text>im</text>
</lyric>
<lyric number="2">
<syllabic>single</syllabic>
<text>de</text>
</lyric>
<lyric number="3">
<syllabic>single</syllabic>
<text>vous</text>
</lyric>
</note>
<note>
<pitch>
<step>E</step>
<octave>4</octave>
</pitch>
<duration>4</duration>
<type>eighth</type>
<stem>up</stem>
<beam number="1">begin</beam>
<lyric number="1">
<syllabic>middle</syllabic>
<text>plo</text>
</lyric>
<lyric number="2">
<syllabic>single</syllabic>
<text>la</text>
</lyric>
<lyric number="3">
<syllabic>single</syllabic>
<text>est</text>
</lyric>
</note>
<note>
<pitch>
<step>E</step>
<octave>4</octave>
</pitch>
<duration>4</duration>
<tie type="start"/>
<type>eighth</type>
<stem>up</stem>
<beam number="1">continue</beam>
<notations>
<tied type="start"/>
</notations>
<lyric number="1">
<syllabic>end</syllabic>
<text>rer</text>
</lyric>
<lyric number="2">
<syllabic>single</syllabic>
<text>terre</text>
</lyric>
<lyric number="3">
<syllabic>begin</syllabic>
<text>pré</text>
</lyric>
</note>
<note>
<pitch>
<step>E</step>
<octave>4</octave>
</pitch>
<duration>4</duration>
<tie type="stop"/>
<type>eighth</type>
<notations>
<tied type="stop"/>
</notations>
</note>
<note>
<pitch>
<step>E</step>
<octave>4</octave>
</pitch>
<duration>8</duration>
<type>quarter</type>
<lyric number="1">
<syllabic>single</syllabic>
<text>ma</text>
</lyric>
<lyric number="2">
<syllabic>begin</syllabic>
<text>en</text>
</lyric>
<lyric number="3">
<syllabic>middle</syllabic>
<text>pa</text>
</lyric>
</note>
<note>
<pitch>
<step>E</step>
<octave>4</octave>
</pitch>
<duration>4</duration>
<tie type="start"/>
<type>eighth</type>
<notations>
<tied type="start"/>
</notations>
<lyric number="1">
<syllabic>single</syllabic>
<text>grâce,</text>
</lyric>
<lyric number="2">
<syllabic>end</syllabic>
<text>tière,</text>
</lyric>
<lyric number="3">
<syllabic>end</syllabic>
<text>ré,</text>
</lyric>
</note>
</measure>
<measure number="20">
<note>
<pitch>
<step>E</step>
<octave>4</octave>
</pitch>
<duration>32</duration>
<tie type="stop"/>
<type>whole</type>
<notations>
<tied type="stop"/>
</notations>
</note>
</measure>
<measure number="21">
<note>
<pitch>
<step>G</step>
<octave>4</octave>
</pitch>
<duration>8</duration>
<type>quarter</type>
<lyric number="1">
<syllabic>begin</syllabic>
<text>é</text>
</lyric>
<lyric number="2">
<syllabic>begin</syllabic>
<text>bri</text>
</lyric>
<lyric number="3">
<syllabic>single</syllabic>
<text>des</text>
</lyric>
</note>
<note>
<pitch>
<step>G</step>
<octave>4</octave>
</pitch>
<duration>4</duration>
<type>eighth</type>
<stem>up</stem>
<beam number="1">begin</beam>
<lyric number="1">
<syllabic>middle</syllabic>
<text>le</text>
</lyric>
<lyric number="2">
<syllabic>end</syllabic>
<text>se</text>
</lyric>
<lyric number="3">
<syllabic>begin</syllabic>
<text>cou</text>
</lyric>
</note>
<note>
<pitch>
<step>G</step>
<octave>4</octave>
</pitch>
<duration>4</duration>
<tie type="start"/>
<type>eighth</type>
<stem>up</stem>
<beam number="1">continue</beam>
<notations>
<tied type="start"/>
</notations>
<lyric number="1">
<syllabic>end</syllabic>
<text>ver</text>
</lyric>
<lyric number="2">
<syllabic>single</syllabic>
<text>les</text>
</lyric>
<lyric number="3">
<syllabic>middle</syllabic>
<text>ron</text>
</lyric>
</note>
<note>
<pitch>
<step>G</step>
<octave>4</octave>
</pitch>
<duration>4</duration>
<tie type="stop"/>
<type>eighth</type>
<notations>
<tied type="stop"/>
</notations>
</note>
<note>
<pitch>
<step>G</step>
<octave>4</octave>
</pitch>
<duration>8</duration>
<type>quarter</type>
<lyric number="1">
<syllabic>single</syllabic>
<text>mon</text>
</lyric>
<lyric number="2">
<syllabic>begin</syllabic>
<text>na</text>
</lyric>
<lyric number="3">
<syllabic>end</syllabic>
<text>nes</text>
</lyric>
</note>
<note>
<pitch>
<step>G</step>
<octave>4</octave>
</pitch>
<duration>4</duration>
<tie type="start"/>
<type>eighth</type>
<notations>
<tied type="start"/>
</notations>
<lyric number="1">
<syllabic>single</syllabic>
<text>nom,</text>
</lyric>
<lyric number="2">
<syllabic>end</syllabic>
<text>tions</text>
</lyric>
<lyric number="3">
<syllabic>single</syllabic>
<text>d'or</text>
</lyric>
</note>
</measure>
<measure number="22">
<note>
<pitch>
<step>G</step>
<octave>4</octave>
</pitch>
<duration>32</duration>
<tie type="stop"/>
<type>whole</type>
<notations>
<tied type="stop"/>
</notations>
</note>
</measure>
<measure number="23">
<note>
<pitch>
<step>G</step>
<octave>4</octave>
</pitch>
<duration>8</duration>
<type>quarter</type>
<lyric number="1">
<syllabic>begin</syllabic>
<text>re</text>
</lyric>
<lyric number="2">
<syllabic>single</syllabic>
<text>d'un</text>
</lyric>
<lyric number="3">
<syllabic>single</syllabic>
<text>vous</text>
</lyric>
</note>
<note>
<pitch>
<step>G</step>
<octave>4</octave>
</pitch>
<duration>4</duration>
<type>eighth</type>
<stem>up</stem>
<beam number="1">begin</beam>
<lyric number="1">
<syllabic>middle</syllabic>
<text>ce</text>
</lyric>
<lyric number="2">
<syllabic>begin</syllabic>
<text>scep</text>
</lyric>
<lyric number="3">
<syllabic>single</syllabic>
<text>sont</text>
</lyric>
</note>
<note>
<pitch>
<step>G</step>
<octave>4</octave>
</pitch>
<duration>4</duration>
<tie type="start"/>
<type>eighth</type>
<stem>up</stem>
<beam number="1">continue</beam>
<notations>
<tied type="start"/>
</notations>
<lyric number="1">
<syllabic>end</syllabic>
<text>voir</text>
</lyric>
<lyric number="2">
<syllabic>end</syllabic>
<text>tre</text>
</lyric>
<lyric number="3">
<syllabic>begin</syllabic>
<text>ré</text>
</lyric>
</note>
<note>
<pitch>
<step>G</step>
<octave>4</octave>
</pitch>
<duration>4</duration>
<tie type="stop"/>
<type>eighth</type>
<notations>
<tied type="stop"/>
</notations>
</note>
<note>
<pitch>
<step>G</step>
<octave>4</octave>
</pitch>
<duration>8</duration>
<type>quarter</type>
<lyric number="1">
<syllabic>single</syllabic>
<text>mes</text>
</lyric>
<lyric number="2">
<syllabic>single</syllabic>
<text>de</text>
</lyric>
<lyric number="3">
<syllabic>middle</syllabic>
<text>ser</text>
</lyric>
</note>
<note>
<pitch>
<step>G</step>
<octave>4</octave>
</pitch>
<duration>4</duration>
<tie type="start"/>
<type>eighth</type>
<notations>
<tied type="start"/>
</notations>
<lyric number="1">
<syllabic>single</syllabic>
<text>dons.</text>
</lyric>
<lyric number="2">
<syllabic>single</syllabic>
<text>fer.</text>
</lyric>
<lyric number="3">
<syllabic>end</syllabic>
<text>vées.</text>
</lyric>
</note>
</measure>
<measure number="24">
<note>
<pitch>
<step>G</step>
<octave>4</octave>
</pitch>
<duration>16</duration>
<tie type="stop"/>
<type>half</type>
<notations>
<tied type="stop"/>
</notations>
</note>
<note>
<pitch>
<step>G</step>
<octave>4</octave>
</pitch>
<duration>8</duration>
<type>quarter</type>
<lyric number="1">
<syllabic>begin</syllabic>
<text>U</text>
</lyric>
<lyric number="2">
<syllabic>begin</syllabic>
<text>Pu</text>
</lyric>
<lyric number="3">
<syllabic>begin</syllabic>
<text>Ré</text>
</lyric>
</note>
<note>
<pitch>
<step>G</step>
<octave>4</octave>
</pitch>
<duration>8</duration>
<type>quarter</type>
<lyric number="1">
<syllabic>middle</syllabic>
<text>nis</text>
</lyric>
<lyric number="2">
<syllabic>middle</syllabic>
<text>ri</text>
</lyric>
<lyric number="3">
<syllabic>middle</syllabic>
<text>jouis</text>
</lyric>
</note>
</measure>
<measure number="25">
<note>
<pitch>
<step>A</step>
<octave>4</octave>
</pitch>
<duration>24</duration>
<type>half</type>
<dot/>
<notations>
<slur type="start" number="1"/>
</notations>
<lyric number="1">
<syllabic>middle</syllabic>
<text>sez</text>
</lyric>
<lyric number="2">
<syllabic>middle</syllabic>
<text>fiez</text>
</lyric>
<lyric number="3">
<syllabic>middle</syllabic>
<text>sez</text>
</lyric>
</note>
<note>
<pitch>
<step>B</step>
<octave>4</octave>
</pitch>
<duration>8</duration>
<type>quarter</type>
<notations>
<slur type="stop" number="1"/>
</notations>
</note>
</measure>
<measure number="26">
<note>
<pitch>
<step>B</step>
<octave>4</octave>
</pitch>
<duration>16</duration>
<type>half</type>
<lyric number="1">
<syllabic>end</syllabic>
<text>vous,</text>
</lyric>
<lyric number="2">
<syllabic>end</syllabic>
<text>vous,</text>
</lyric>
<lyric number="3">
<syllabic>end</syllabic>
<text>vous,</text>
</lyric>
</note>
<note>
<pitch>
<step>A</step>
<octave>4</octave>
</pitch>
<duration>8</duration>
<type>quarter</type>
<lyric number="1">
<syllabic>begin</syllabic>
<text>u</text>
</lyric>
<lyric number="2">
<syllabic>begin</syllabic>
<text>pu</text>
</lyric>
<lyric number="3">
<syllabic>begin</syllabic>
<text>ré</text>
</lyric>
</note>
<note>
<pitch>
<step>B</step>
<octave>4</octave>
</pitch>
<duration>8</duration>
<type>quarter</type>
<lyric number="1">
<syllabic>middle</syllabic>
<text>nis</text>
</lyric>
<lyric number="2">
<syllabic>middle</syllabic>
<text>ri</text>
</lyric>
<lyric number="3">
<syllabic>middle</syllabic>
<text>jouis</text>
</lyric>
</note>
</measure>
<measure number="27">
<note>
<pitch>
<step>C</step>
<octave>5</octave>
</pitch>
<duration>16</duration>
<tie type="start"/>
<type>half</type>
<notations>
<tied type="start"/>
</notations>
<lyric number="1">
<syllabic>middle</syllabic>
<text>sez</text>
</lyric>
<lyric number="2">
<syllabic>middle</syllabic>
<text>fiez</text>
</lyric>
<lyric number="3">
<syllabic>middle</syllabic>
<text>sez</text>
</lyric>
</note>
<note>
<pitch>
<step>C</step>
<octave>5</octave>
</pitch>
<duration>4</duration>
<tie type="stop"/>
<type>eighth</type>
<stem>down</stem>
<beam number="1">begin</beam>
<notations>
<tied type="stop"/>
<slur type="start" number="1"/>
</notations>
</note>
<note>
<pitch>
<step>B</step>
<octave>4</octave>
</pitch>
<duration>4</duration>
<type>eighth</type>
<stem>down</stem>
<beam number="1">continue</beam>
<notations>
<slur type="continue" number="1"/>
</notations>
</note>
<note>
<pitch>
<step>A</step>
<octave>4</octave>
</pitch>
<duration>8</duration>
<type>quarter</type>
<notations>
<slur type="stop" number="1"/>
</notations>
</note>
</measure>
<measure number="28">
<note>
<pitch>
<step>A</step>
<octave>4</octave>
</pitch>
<duration>32</duration>
<tie type="start"/>
<type>whole</type>
<notations>
<tied type="start"/>
</notations>
<lyric number="1">
<syllabic>end</syllabic>
<text>vous,</text>
</lyric>
<lyric number="2">
<syllabic>end</syllabic>
<text>vous,</text>
</lyric>
<lyric number="3">
<syllabic>end</syllabic>
<text>vous,</text>
</lyric>
</note>
</measure>
<measure number="29">
<note>
<pitch>
<step>A</step>
<octave>4</octave>
</pitch>
<duration>16</duration>
<tie type="stop"/>
<type>half</type>
<notations>
<tied type="stop"/>
</notations>
</note>
<note>
<pitch>
<step>G</step>
<octave>4</octave>
</pitch>
<duration>8</duration>
<type>quarter</type>
<lyric number="1">
<syllabic>single</syllabic>
<text>mon</text>
</lyric>
<lyric number="2">
<syllabic>single</syllabic>
<text>car</text>
</lyric>
<lyric number="3">
<syllabic>single</syllabic>
<text>car</text>
</lyric>
</note>
<note>
<pitch>
<step>F</step>
<octave>4</octave>
</pitch>
<duration>8</duration>
<type>quarter</type>
<lyric number="1">
<syllabic>begin</syllabic>
<text>Es</text>
</lyric>
<lyric number="2">
<syllabic>single</syllabic>
<text>le</text>
</lyric>
<lyric number="3">
<syllabic>single</syllabic>
<text>le</text>
</lyric>
</note>
</measure>
<measure number="30">
<note>
<pitch>
<step>E</step>
<octave>4</octave>
</pitch>
<duration>32</duration>
<tie type="start"/>
<type>whole</type>
<notations>
<tied type="start"/>
</notations>
<lyric number="1">
<syllabic>end</syllabic>
<text>prit</text>
</lyric>
<lyric number="2">
<syllabic>single</syllabic>
<text>feu</text>
</lyric>
<lyric number="3">
<syllabic>single</syllabic>
<text>Roi</text>
</lyric>
</note>
</measure>
<measure number="31">
<note>
<pitch>
<step>E</step>
<octave>4</octave>
</pitch>
<duration>24</duration>
<tie type="stop"/>
<type>half</type>
<dot/>
<notations>
<tied type="stop"/>
</notations>
</note>
<note>
<pitch>
<step>C</step>
<octave>4</octave>
</pitch>
<duration>8</duration>
<type>quarter</type>
<lyric number="1">
<syllabic>begin</syllabic>
<text>vien</text>
</lyric>
<lyric number="2">
<syllabic>begin</syllabic>
<text>vien</text>
</lyric>
<lyric number="3">
<syllabic>begin</syllabic>
<text>re</text>
</lyric>
</note>
</measure>
<measure number="32">
<note>
<pitch>
<step>C</step>
<octave>4</octave>
</pitch>
<duration>32</duration>
<type>whole</type>
<lyric number="1">
<syllabic>end</syllabic>
<text>dra</text>
</lyric>
<lyric number="2">
<syllabic>end</syllabic>
<text>dra</text>
</lyric>
<lyric number="3">
<syllabic>end</syllabic>
<text>vient</text>
</lyric>
</note>
</measure>
<measure number="33">
<note>
<pitch>
<step>D</step>
<octave>4</octave>
</pitch>
<duration>32</duration>
<type>whole</type>
<lyric number="1">
<syllabic>single</syllabic>
<text>sur</text>
</lyric>
<lyric number="2">
<syllabic>single</syllabic>
<text>sur</text>
</lyric>
<lyric number="3">
<syllabic>single</syllabic>
<text>pour</text>
</lyric>
</note>
</measure>
<measure number="34">
<note>
<pitch>
<step>C</step>
<octave>4</octave>
</pitch>
<duration>32</duration>
<tie type="start"/>
<type>whole</type>
<notations>
<tied type="start"/>
</notations>
<lyric number="1">
<syllabic>single</syllabic>
<text>vous.</text>
</lyric>
<lyric number="2">
<syllabic>single</syllabic>
<text>vous.</text>
</lyric>
<lyric number="3">
<syllabic>single</syllabic>
<text>vous.</text>
</lyric>
</note>
</measure>
<measure number="35">
<note>
<pitch>
<step>C</step>
<octave>4</octave>
</pitch>
<duration>32</duration>
<tie type="stop"/>
<type>whole</type>
<notations>
<tied type="stop"/>
</notations>
</note>
<barline location="right">
<bar-style>light-heavy</bar-style>
<repeat direction="backward" times="3"/>
</barline>
<barline location="right">
<bar-style>light-heavy</bar-style>
</barline>
</measure>
</part>
</score-partwise>
