<?xml version="1.0" encoding="UTF-8" standalone='no'?>
<!DOCTYPE score-partwise PUBLIC "-//Recordare//DTD MusicXML 1.0 Partwise//EN" "http://www.musicxml.org/dtds/partwise.dtd">
<score-partwise>
<work>
<work-title>Tu es venu jusqu'à nous</work-title>
</work>
<identification>
<creator type="transcriber">Graham Kendrick</creator>
<rights>© 1983 Make Way Music/ Kingsway Thankyou Music / LTC</rights>
<encoding>
<software>Noteworthy Composer</software>
<encoding-date>2007-02-17</encoding-date>
</encoding>
</identification>
<part-list>
<score-part id="P1">
<part-name>Mélodie</part-name>
<score-instrument id="P1-I1">
<instrument-name>String Ensemble 1</instrument-name>
</score-instrument>
<midi-instrument id="P1-I1">
<midi-channel>1</midi-channel>
<midi-program>50</midi-program>
</midi-instrument>
</score-part>
</part-list>
<part id="P1">
<measure number="1">
<attributes>
<divisions>16</divisions>
</attributes>
<attributes>
<clef>
<sign>G</sign>
<line>2</line>
</clef>
</attributes>
<attributes>
<key>
<fifths>-3</fifths>
</key>
</attributes>
<attributes>
<time>
<beats>4</beats>
<beat-type>4</beat-type>
</time>
</attributes>
<direction>
<direction-type>
<metronome parentheses="no">
<beat-unit>quarter</beat-unit>
<per-minute>80</per-minute>
</metronome>
</direction-type>
<sound tempo="80"/>
</direction>
<note>
<rest/>
<duration>8</duration>
<type>eighth</type>
</note>
<note>
<pitch>
<step>G</step>
<octave>4</octave>
</pitch>
<duration>8</duration>
<type>eighth</type>
<stem>up</stem>
<beam number="1">begin</beam>
<lyric number="1">
<syllabic>single</syllabic>
<text>1. Tu</text>
</lyric>
<lyric number="2">
<syllabic>single</syllabic>
<text>2. Dans</text>
</lyric>
<lyric number="3">
<syllabic>begin</syllabic>
<text>3. Vo</text>
</lyric>
<lyric number="4">
<syllabic>begin</syllabic>
<text>4. Ap</text>
</lyric>
</note>
<note>
<pitch>
<step>G</step>
<octave>4</octave>
</pitch>
<duration>8</duration>
<type>eighth</type>
<stem>up</stem>
<beam number="1">end</beam>
<lyric number="1">
<syllabic>single</syllabic>
<text>es</text>
</lyric>
<lyric number="2">
<syllabic>single</syllabic>
<text>le</text>
</lyric>
<lyric number="3">
<syllabic>end</syllabic>
<text>yez</text>
</lyric>
<lyric number="4">
<syllabic>middle</syllabic>
<text>pre</text>
</lyric>
</note>
<note>
<pitch>
<step>A</step>
<alter>-1</alter>
<octave>4</octave>
</pitch>
<duration>8</duration>
<type>eighth</type>
<stem>up</stem>
<beam number="1">continue</beam>
<lyric number="1">
<syllabic>begin</syllabic>
<text>ve</text>
</lyric>
<lyric number="2">
<syllabic>begin</syllabic>
<text>jar</text>
</lyric>
<lyric number="3">
<syllabic>single</syllabic>
<text>ses</text>
</lyric>
<lyric number="4">
<syllabic>end</syllabic>
<text>nons</text>
</lyric>
</note>
<note>
<pitch>
<step>G</step>
<octave>4</octave>
</pitch>
<duration>16</duration>
<type>quarter</type>
<lyric number="1">
<syllabic>end</syllabic>
<text>nu</text>
</lyric>
<lyric number="2">
<syllabic>end</syllabic>
<text>din</text>
</lyric>
<lyric number="3">
<syllabic>single</syllabic>
<text>mains</text>
</lyric>
<lyric number="4">
<syllabic>single</syllabic>
<text>donc</text>
</lyric>
</note>
<note>
<pitch>
<step>F</step>
<octave>4</octave>
</pitch>
<duration>8</duration>
<type>eighth</type>
<stem>up</stem>
<beam number="1">begin</beam>
<lyric number="1">
<syllabic>begin</syllabic>
<text>jus</text>
</lyric>
<lyric number="2">
<syllabic>single</syllabic>
<text>de</text>
</lyric>
<lyric number="3">
<syllabic>single</syllabic>
<text>et</text>
</lyric>
<lyric number="4">
<syllabic>single</syllabic>
<text>à</text>
</lyric>
</note>
<note>
<pitch>
<step>E</step>
<alter>-1</alter>
<octave>4</octave>
</pitch>
<duration>8</duration>
<type>eighth</type>
<stem>up</stem>
<beam number="1">continue</beam>
<lyric number="1">
<syllabic>end</syllabic>
<text>qu'à</text>
</lyric>
<lyric number="2">
<syllabic>begin</syllabic>
<text>dou</text>
</lyric>
<lyric number="3">
<syllabic>single</syllabic>
<text>ses</text>
</lyric>
<lyric number="4">
<syllabic>begin</syllabic>
<text>ser</text>
</lyric>
</note>
</measure>
<measure number="2">
<note>
<pitch>
<step>C</step>
<octave>4</octave>
</pitch>
<duration>64</duration>
<type>whole</type>
<lyric number="1">
<syllabic>single</syllabic>
<text>nous,</text>
</lyric>
<lyric number="2">
<syllabic>end</syllabic>
<text>leur,</text>
</lyric>
<lyric number="3">
<syllabic>single</syllabic>
<text>pieds,</text>
</lyric>
<lyric number="4">
<syllabic>end</syllabic>
<text>vir,</text>
</lyric>
</note>
</measure>
<measure number="3">
<note>
<rest/>
<duration>8</duration>
<type>eighth</type>
</note>
<note>
<pitch>
<step>F</step>
<octave>4</octave>
</pitch>
<duration>8</duration>
<type>eighth</type>
<stem>up</stem>
<beam number="1">begin</beam>
<lyric number="1">
<syllabic>begin</syllabic>
<text>quit</text>
</lyric>
<lyric number="2">
<syllabic>single</syllabic>
<text>où</text>
</lyric>
<lyric number="3">
<syllabic>single</syllabic>
<text>pour</text>
</lyric>
<lyric number="4">
<syllabic>single</syllabic>
<text>en</text>
</lyric>
</note>
<note>
<pitch>
<step>G</step>
<octave>4</octave>
</pitch>
<duration>8</duration>
<type>eighth</type>
<stem>up</stem>
<beam number="1">end</beam>
<lyric number="1">
<syllabic>end</syllabic>
<text>tant</text>
</lyric>
<lyric number="2">
<syllabic>single</syllabic>
<text>mon</text>
</lyric>
<lyric number="3">
<syllabic>single</syllabic>
<text>nous,</text>
</lyric>
<lyric number="4">
<syllabic>begin</syllabic>
<text>lais</text>
</lyric>
</note>
<note>
<pitch>
<step>A</step>
<alter>-1</alter>
<octave>4</octave>
</pitch>
<duration>8</duration>
<type>eighth</type>
<stem>up</stem>
<beam number="1">continue</beam>
<lyric number="1">
<syllabic>single</syllabic>
<text>la</text>
</lyric>
<lyric number="2">
<syllabic>begin</syllabic>
<text>far</text>
</lyric>
<lyric number="3">
<syllabic>begin</syllabic>
<text>té</text>
</lyric>
<lyric number="4">
<syllabic>end</syllabic>
<text>sant</text>
</lyric>
</note>
<note>
<pitch>
<step>B</step>
<alter>-1</alter>
<octave>4</octave>
</pitch>
<duration>24</duration>
<type>quarter</type>
<dot/>
<lyric number="1">
<syllabic>begin</syllabic>
<text>gloi</text>
</lyric>
<lyric number="2">
<syllabic>end</syllabic>
<text>deau</text>
</lyric>
<lyric number="3">
<syllabic>end</syllabic>
<text>moins</text>
</lyric>
<lyric number="4">
<syllabic>single</syllabic>
<text>Christ</text>
</lyric>
</note>
<note>
<pitch>
<step>E</step>
<alter>-1</alter>
<octave>4</octave>
</pitch>
<duration>8</duration>
<type>eighth</type>
<lyric number="1">
<syllabic>end</syllabic>
<text>re</text>
</lyric>
<lyric number="2">
<syllabic>begin</syllabic>
<text>bri</text>
</lyric>
<lyric number="3">
<syllabic>single</syllabic>
<text>du</text>
</lyric>
<lyric number="4">
<syllabic>begin</syllabic>
<text>ré</text>
</lyric>
</note>
</measure>
<measure number="4">
<note>
<pitch>
<step>A</step>
<alter>-1</alter>
<octave>4</octave>
</pitch>
<duration>16</duration>
<type>quarter</type>
<lyric number="1">
<syllabic>single</syllabic>
<text>de</text>
</lyric>
<lyric number="2">
<syllabic>end</syllabic>
<text>sa</text>
</lyric>
<lyric number="3">
<syllabic>begin</syllabic>
<text>sa</text>
</lyric>
<lyric number="4">
<syllabic>end</syllabic>
<text>gner</text>
</lyric>
</note>
<note>
<pitch>
<step>G</step>
<octave>4</octave>
</pitch>
<duration>16</duration>
<type>quarter</type>
<lyric number="1">
<syllabic>single</syllabic>
<text>ton</text>
</lyric>
<lyric number="2">
<syllabic>single</syllabic>
<text>ton</text>
</lyric>
<lyric number="3">
<syllabic>middle</syllabic>
<text>cri</text>
</lyric>
<lyric number="4">
<syllabic>single</syllabic>
<text>en</text>
</lyric>
</note>
<note>
<pitch>
<step>F</step>
<octave>4</octave>
</pitch>
<duration>32</duration>
<type>half</type>
<lyric number="1">
<syllabic>single</syllabic>
<text>ciel.</text>
</lyric>
<lyric number="2">
<syllabic>single</syllabic>
<text>coeur.</text>
</lyric>
<lyric number="3">
<syllabic>end</syllabic>
<text>fice.</text>
</lyric>
<lyric number="4">
<syllabic>single</syllabic>
<text>nous.</text>
</lyric>
</note>
</measure>
<measure number="5">
<note>
<rest/>
<duration>8</duration>
<type>eighth</type>
</note>
<note>
<pitch>
<step>G</step>
<octave>4</octave>
</pitch>
<duration>8</duration>
<type>eighth</type>
<stem>up</stem>
<beam number="1">begin</beam>
<lyric number="1">
<syllabic>single</syllabic>
<text>Tu</text>
</lyric>
<lyric number="2">
<syllabic>single</syllabic>
<text>Tu</text>
</lyric>
<lyric number="3">
<syllabic>single</syllabic>
<text>Les</text>
</lyric>
<lyric number="4">
<syllabic>single</syllabic>
<text>Car</text>
</lyric>
</note>
<note>
<pitch>
<step>G</step>
<octave>4</octave>
</pitch>
<duration>8</duration>
<type>eighth</type>
<stem>up</stem>
<beam number="1">end</beam>
<lyric number="1">
<syllabic>single</syllabic>
<text>es</text>
</lyric>
<lyric number="2">
<syllabic>single</syllabic>
<text>dis</text>
</lyric>
<lyric number="3">
<syllabic>single</syllabic>
<text>mains</text>
</lyric>
<lyric number="4">
<syllabic>single</syllabic>
<text>en</text>
</lyric>
</note>
<note>
<pitch>
<step>A</step>
<alter>-1</alter>
<octave>4</octave>
</pitch>
<duration>8</duration>
<type>eighth</type>
<stem>up</stem>
<beam number="1">continue</beam>
<lyric number="1">
<syllabic>begin</syllabic>
<text>ve</text>
</lyric>
<lyric number="2">
<syllabic>single</syllabic>
<text>à</text>
</lyric>
<lyric number="3">
<syllabic>single</syllabic>
<text>qui</text>
</lyric>
<lyric number="4">
<syllabic>begin</syllabic>
<text>ai</text>
</lyric>
</note>
<note>
<pitch>
<step>G</step>
<octave>4</octave>
</pitch>
<duration>16</duration>
<type>quarter</type>
<lyric number="1">
<syllabic>end</syllabic>
<text>nu</text>
</lyric>
<lyric number="2">
<syllabic>single</syllabic>
<text>Dieu,</text>
</lyric>
<lyric number="3">
<syllabic>begin</syllabic>
<text>te</text>
</lyric>
<lyric number="4">
<syllabic>end</syllabic>
<text>mant</text>
</lyric>
</note>
<note>
<pitch>
<step>F</step>
<octave>4</octave>
</pitch>
<duration>8</duration>
<type>eighth</type>
<stem>up</stem>
<beam number="1">begin</beam>
<lyric number="1">
<syllabic>single</syllabic>
<text>pour</text>
</lyric>
<lyric number="2">
<syllabic>single</syllabic>
<text>dans</text>
</lyric>
<lyric number="3">
<syllabic>end</syllabic>
<text>naient</text>
</lyric>
<lyric number="4">
<syllabic>single</syllabic>
<text>nos</text>
</lyric>
</note>
<note>
<pitch>
<step>E</step>
<alter>-1</alter>
<octave>4</octave>
</pitch>
<duration>8</duration>
<type>eighth</type>
<stem>up</stem>
<beam number="1">continue</beam>
<lyric number="1">
<syllabic>begin</syllabic>
<text>ser</text>
</lyric>
<lyric number="2">
<syllabic>single</syllabic>
<text>ta</text>
</lyric>
<lyric number="3">
<syllabic>single</syllabic>
<text>la</text>
</lyric>
<lyric number="4">
<syllabic>begin</syllabic>
<text>pro</text>
</lyric>
</note>
</measure>
<measure number="6">
<note>
<pitch>
<step>C</step>
<octave>4</octave>
</pitch>
<duration>64</duration>
<type>whole</type>
<lyric number="1">
<syllabic>end</syllabic>
<text>vir,</text>
</lyric>
<lyric number="2">
<syllabic>single</syllabic>
<text>peine :</text>
</lyric>
<lyric number="3">
<syllabic>single</syllabic>
<text>terre,</text>
</lyric>
<lyric number="4">
<syllabic>end</syllabic>
<text>chains,</text>
</lyric>
</note>
</measure>
<measure number="7">
<note>
<rest/>
<duration>8</duration>
<type>eighth</type>
</note>
<note>
<pitch>
<step>F</step>
<octave>4</octave>
</pitch>
<duration>8</duration>
<type>eighth</type>
<stem>up</stem>
<beam number="1">begin</beam>
<lyric number="1">
<syllabic>begin</syllabic>
<text>don</text>
</lyric>
<lyric number="2">
<syllabic>single</syllabic>
<text>"Ta</text>
</lyric>
<lyric number="3">
<syllabic>single</syllabic>
<text>se</text>
</lyric>
<lyric number="4">
<syllabic>single</syllabic>
<text>c'est</text>
</lyric>
</note>
<note>
<pitch>
<step>G</step>
<octave>4</octave>
</pitch>
<duration>8</duration>
<type>eighth</type>
<stem>up</stem>
<beam number="1">end</beam>
<lyric number="1">
<syllabic>end</syllabic>
<text>nant</text>
</lyric>
<lyric number="2">
<syllabic>begin</syllabic>
<text>vo</text>
</lyric>
<lyric number="3">
<syllabic>single</syllabic>
<text>livrent</text>
</lyric>
<lyric number="4">
<syllabic>begin</syllabic>
<text>Jé</text>
</lyric>
</note>
<note>
<pitch>
<step>A</step>
<alter>-1</alter>
<octave>4</octave>
</pitch>
<duration>8</duration>
<type>eighth</type>
<stem>up</stem>
<beam number="1">continue</beam>
<lyric number="1">
<syllabic>single</syllabic>
<text>ta</text>
</lyric>
<lyric number="2">
<syllabic>middle</syllabic>
<text>lon</text>
</lyric>
<lyric number="3">
<syllabic>single</syllabic>
<text>aux</text>
</lyric>
<lyric number="4">
<syllabic>middle</syllabic>
<text>sus</text>
</lyric>
</note>
<note>
<pitch>
<step>B</step>
<alter>-1</alter>
<octave>4</octave>
</pitch>
<duration>24</duration>
<type>quarter</type>
<dot/>
<lyric number="1">
<syllabic>single</syllabic>
<text>vie</text>
</lyric>
<lyric number="2">
<syllabic>end</syllabic>
<text>té</text>
</lyric>
<lyric number="3">
<syllabic>single</syllabic>
<text>clous</text>
</lyric>
<lyric number="4">
<syllabic>end</syllabic>
<text>Christ</text>
</lyric>
</note>
<note>
<pitch>
<step>G</step>
<octave>4</octave>
</pitch>
<duration>8</duration>
<type>eighth</type>
<lyric number="1">
<syllabic>single</syllabic>
<text>pour</text>
</lyric>
<lyric number="2">
<syllabic>single</syllabic>
<text>et</text>
</lyric>
<lyric number="3">
<syllabic>single</syllabic>
<text>de</text>
</lyric>
<lyric number="4">
<syllabic>single</syllabic>
<text>que</text>
</lyric>
</note>
</measure>
<measure number="8">
<barline location="left">
<bar-style>heavy-light</bar-style>
</barline>
<attributes>
<time>
<beats>2</beats>
<beat-type>4</beat-type>
</time>
</attributes>
<note>
<pitch>
<step>A</step>
<alter>-1</alter>
<octave>4</octave>
</pitch>
<duration>16</duration>
<type>quarter</type>
<lyric number="1">
<syllabic>single</syllabic>
<text>nous</text>
</lyric>
<lyric number="2">
<syllabic>single</syllabic>
<text>non</text>
</lyric>
<lyric number="3">
<syllabic>single</syllabic>
<text>la</text>
</lyric>
<lyric number="4">
<syllabic>single</syllabic>
<text>nous</text>
</lyric>
</note>
<note>
<pitch>
<step>G</step>
<octave>4</octave>
</pitch>
<duration>16</duration>
<type>quarter</type>
<lyric number="1">
<syllabic>begin</syllabic>
<text>sau</text>
</lyric>
<lyric number="2">
<syllabic>single</syllabic>
<text>la</text>
</lyric>
<lyric number="3">
<syllabic>begin</syllabic>
<text>co</text>
</lyric>
<lyric number="4">
<syllabic>begin</syllabic>
<text>ser</text>
</lyric>
</note>
</measure>
<measure number="9">
<barline location="left">
<bar-style>heavy-light</bar-style>
</barline>
<attributes>
<time>
<beats>4</beats>
<beat-type>4</beat-type>
</time>
</attributes>
<note>
<pitch>
<step>F</step>
<octave>4</octave>
</pitch>
<duration>32</duration>
<type>half</type>
<lyric number="1">
<syllabic>end</syllabic>
<text>ver,</text>
</lyric>
<lyric number="2">
<syllabic>single</syllabic>
<text>mienne".</text>
</lyric>
<lyric number="3">
<syllabic>end</syllabic>
<text>lère.</text>
</lyric>
<lyric number="4">
<syllabic>end</syllabic>
<text>vons.</text>
</lyric>
</note>
<note>
<rest/>
<duration>8</duration>
<type>eighth</type>
</note>
<note>
<pitch>
<step>B</step>
<alter>-1</alter>
<octave>4</octave>
</pitch>
<duration>8</duration>
<type>eighth</type>
<stem>up</stem>
<beam number="1">begin</beam>
<lyric number="2">
<syllabic>single</syllabic>
<text>Dieu</text>
</lyric>
</note>
<note>
<pitch>
<step>B</step>
<alter>-1</alter>
<octave>4</octave>
</pitch>
<duration>8</duration>
<type>eighth</type>
<stem>up</stem>
<beam number="1">end</beam>
<lyric number="2">
<syllabic>begin</syllabic>
<text>tout</text>
</lyric>
</note>
<note>
<pitch>
<step>A</step>
<alter>-1</alter>
<octave>4</octave>
</pitch>
<duration>8</duration>
<type>eighth</type>
<stem>up</stem>
<beam number="1">continue</beam>
<lyric number="2">
<syllabic>middle</syllabic>
<text>puis</text>
</lyric>
</note>
</measure>
<measure number="10">
<note>
<pitch>
<step>G</step>
<octave>4</octave>
</pitch>
<duration>32</duration>
<tie type="start"/>
<type>half</type>
<notations>
<tied type="start"/>
</notations>
<lyric number="2">
<syllabic>end</syllabic>
<text>sant,</text>
</lyric>
</note>
<note>
<pitch>
<step>G</step>
<octave>4</octave>
</pitch>
<duration>8</duration>
<tie type="stop"/>
<type>eighth</type>
<stem>up</stem>
<beam number="1">begin</beam>
<notations>
<tied type="stop"/>
</notations>
</note>
<note>
<pitch>
<step>G</step>
<octave>4</octave>
</pitch>
<duration>8</duration>
<type>eighth</type>
<stem>up</stem>
<beam number="1">end</beam>
<lyric number="2">
<syllabic>single</syllabic>
<text>Roi</text>
</lyric>
</note>
<note>
<pitch>
<step>G</step>
<octave>4</octave>
</pitch>
<duration>8</duration>
<type>eighth</type>
<stem>up</stem>
<beam number="1">end</beam>
<lyric number="2">
<syllabic>begin</syllabic>
<text>ser</text>
</lyric>
</note>
<note>
<pitch>
<step>F</step>
<octave>4</octave>
</pitch>
<duration>8</duration>
<type>eighth</type>
<stem>up</stem>
<beam number="1">continue</beam>
<lyric number="2">
<syllabic>middle</syllabic>
<text>vi</text>
</lyric>
</note>
</measure>
<measure number="11">
<note>
<pitch>
<step>E</step>
<alter>-1</alter>
<octave>4</octave>
</pitch>
<duration>32</duration>
<tie type="start"/>
<type>half</type>
<notations>
<tied type="start"/>
</notations>
<lyric number="2">
<syllabic>end</syllabic>
<text>teur,</text>
</lyric>
</note>
<note>
<pitch>
<step>E</step>
<alter>-1</alter>
<octave>4</octave>
</pitch>
<duration>8</duration>
<tie type="stop"/>
<type>eighth</type>
<stem>up</stem>
<beam number="1">begin</beam>
<notations>
<tied type="stop"/>
</notations>
</note>
<note>
<pitch>
<step>E</step>
<alter>-1</alter>
<octave>4</octave>
</pitch>
<duration>8</duration>
<type>eighth</type>
<stem>up</stem>
<beam number="1">end</beam>
<lyric number="2">
<syllabic>single</syllabic>
<text>tu</text>
</lyric>
</note>
<note>
<pitch>
<step>F</step>
<octave>4</octave>
</pitch>
<duration>8</duration>
<type>eighth</type>
<stem>up</stem>
<beam number="1">end</beam>
<lyric number="2">
<syllabic>single</syllabic>
<text>nous</text>
</lyric>
</note>
<note>
<pitch>
<step>G</step>
<octave>4</octave>
</pitch>
<duration>8</duration>
<type>eighth</type>
<stem>up</stem>
<beam number="1">continue</beam>
<lyric number="2">
<syllabic>begin</syllabic>
<text>ap</text>
</lyric>
</note>
</measure>
<measure number="12">
<note>
<pitch>
<step>A</step>
<alter>-1</alter>
<octave>4</octave>
</pitch>
<duration>24</duration>
<type>quarter</type>
<dot/>
<lyric number="2">
<syllabic>end</syllabic>
<text>pelles</text>
</lyric>
</note>
<note>
<pitch>
<step>G</step>
<octave>4</octave>
</pitch>
<duration>8</duration>
<type>eighth</type>
<lyric number="2">
<syllabic>single</syllabic>
<text>tous</text>
</lyric>
</note>
<note>
<pitch>
<step>F</step>
<octave>4</octave>
</pitch>
<duration>16</duration>
<type>quarter</type>
<lyric number="2">
<syllabic>single</syllabic>
<text>à</text>
</lyric>
</note>
<note>
<pitch>
<step>E</step>
<alter>-1</alter>
<octave>4</octave>
</pitch>
<duration>16</duration>
<type>quarter</type>
<lyric number="2">
<syllabic>single</syllabic>
<text>te</text>
</lyric>
</note>
</measure>
<measure number="13">
<note>
<pitch>
<step>G</step>
<octave>4</octave>
</pitch>
<duration>32</duration>
<tie type="start"/>
<type>half</type>
<notations>
<tied type="start"/>
</notations>
<lyric number="2">
<syllabic>begin</syllabic>
<text>sui</text>
</lyric>
</note>
<note>
<pitch>
<step>G</step>
<octave>4</octave>
</pitch>
<duration>8</duration>
<tie type="stop"/>
<type>eighth</type>
<stem>up</stem>
<beam number="1">begin</beam>
<notations>
<tied type="stop"/>
</notations>
</note>
<note>
<pitch>
<step>G</step>
<octave>4</octave>
</pitch>
<duration>8</duration>
<type>eighth</type>
<stem>up</stem>
<beam number="1">end</beam>
<lyric number="2">
<syllabic>end</syllabic>
<text>vre</text>
</lyric>
</note>
<note>
<pitch>
<step>G</step>
<octave>4</octave>
</pitch>
<duration>8</duration>
<type>eighth</type>
<stem>up</stem>
<beam number="1">end</beam>
<lyric number="2">
<syllabic>single</syllabic>
<text>et</text>
</lyric>
</note>
<note>
<pitch>
<step>F</step>
<octave>4</octave>
</pitch>
<duration>8</duration>
<type>eighth</type>
<stem>up</stem>
<beam number="1">continue</beam>
<lyric number="2">
<syllabic>single</syllabic>
<text>à</text>
</lyric>
</note>
</measure>
<measure number="14">
<note>
<pitch>
<step>G</step>
<octave>4</octave>
</pitch>
<duration>24</duration>
<type>quarter</type>
<dot/>
<lyric number="2">
<syllabic>begin</syllabic>
<text>t'of</text>
</lyric>
</note>
<note>
<pitch>
<step>E</step>
<alter>-1</alter>
<octave>4</octave>
</pitch>
<duration>4</duration>
<type>16th</type>
<stem>up</stem>
<beam number="1">begin</beam>
<notations>
<slur type="start" number="1"/>
</notations>
<lyric number="2">
<syllabic>end</syllabic>
<text>frir</text>
</lyric>
</note>
<note>
<pitch>
<step>F</step>
<octave>4</octave>
</pitch>
<duration>4</duration>
<type>16th</type>
<stem>up</stem>
<beam number="1">continue</beam>
<notations>
<slur type="stop" number="1"/>
</notations>
</note>
<note>
<pitch>
<step>G</step>
<octave>4</octave>
</pitch>
<duration>8</duration>
<type>eighth</type>
<stem>up</stem>
<beam number="1">begin</beam>
<lyric number="2">
<syllabic>single</syllabic>
<text>nos</text>
</lyric>
</note>
<note>
<pitch>
<step>G</step>
<octave>4</octave>
</pitch>
<duration>8</duration>
<type>eighth</type>
<stem>up</stem>
<beam number="1">end</beam>
<lyric number="2">
<syllabic>single</syllabic>
<text>corps</text>
</lyric>
</note>
<note>
<pitch>
<step>A</step>
<alter>-1</alter>
<octave>4</octave>
</pitch>
<duration>8</duration>
<type>eighth</type>
<stem>up</stem>
<beam number="1">end</beam>
<lyric number="2">
<syllabic>single</syllabic>
<text>en</text>
</lyric>
</note>
<note>
<pitch>
<step>B</step>
<alter>-1</alter>
<octave>4</octave>
</pitch>
<duration>8</duration>
<type>eighth</type>
<stem>up</stem>
<beam number="1">continue</beam>
<lyric number="2">
<syllabic>begin</syllabic>
<text>sa</text>
</lyric>
</note>
</measure>
<measure number="15">
<note>
<pitch>
<step>A</step>
<alter>-1</alter>
<octave>4</octave>
</pitch>
<duration>32</duration>
<type>half</type>
<lyric number="2">
<syllabic>middle</syllabic>
<text>cri</text>
</lyric>
</note>
<note>
<pitch>
<step>A</step>
<alter>-1</alter>
<octave>4</octave>
</pitch>
<duration>8</duration>
<type>eighth</type>
<stem>down</stem>
<beam number="1">begin</beam>
<lyric number="2">
<syllabic>end</syllabic>
<text>fice.</text>
</lyric>
</note>
<note>
<pitch>
<step>D</step>
<octave>5</octave>
</pitch>
<duration>8</duration>
<type>eighth</type>
<stem>down</stem>
<beam number="1">end</beam>
<lyric number="2">
<syllabic>single</syllabic>
<text>A</text>
</lyric>
</note>
<note>
<pitch>
<step>D</step>
<octave>5</octave>
</pitch>
<duration>8</duration>
<type>eighth</type>
<stem>down</stem>
<beam number="1">end</beam>
<lyric number="2">
<syllabic>single</syllabic>
<text>toi</text>
</lyric>
</note>
<note>
<pitch>
<step>C</step>
<octave>5</octave>
</pitch>
<duration>8</duration>
<type>eighth</type>
<stem>down</stem>
<beam number="1">continue</beam>
<lyric number="2">
<syllabic>begin</syllabic>
<text>l'hon</text>
</lyric>
</note>
</measure>
<measure number="16">
<note>
<pitch>
<step>B</step>
<alter>-1</alter>
<octave>4</octave>
</pitch>
<duration>32</duration>
<tie type="start"/>
<type>half</type>
<notations>
<tied type="start"/>
</notations>
<lyric number="2">
<syllabic>end</syllabic>
<text>neur,</text>
</lyric>
</note>
<note>
<pitch>
<step>B</step>
<alter>-1</alter>
<octave>4</octave>
</pitch>
<duration>8</duration>
<tie type="stop"/>
<type>eighth</type>
<stem>up</stem>
<beam number="1">begin</beam>
<notations>
<tied type="stop"/>
</notations>
</note>
<note>
<pitch>
<step>G</step>
<octave>4</octave>
</pitch>
<duration>8</duration>
<type>eighth</type>
<stem>up</stem>
<beam number="1">end</beam>
<lyric number="2">
<syllabic>single</syllabic>
<text>Roi</text>
</lyric>
</note>
<note>
<pitch>
<step>G</step>
<octave>4</octave>
</pitch>
<duration>8</duration>
<type>eighth</type>
<stem>up</stem>
<beam number="1">end</beam>
<lyric number="2">
<syllabic>begin</syllabic>
<text>ser</text>
</lyric>
</note>
<note>
<pitch>
<step>F</step>
<octave>4</octave>
</pitch>
<duration>8</duration>
<type>eighth</type>
<stem>up</stem>
<beam number="1">continue</beam>
<lyric number="2">
<syllabic>middle</syllabic>
<text>vi</text>
</lyric>
</note>
</measure>
<measure number="17">
<barline location="left">
<ending type="start" number="1, 2, 3"/>
</barline>
<note>
<pitch>
<step>E</step>
<alter>-1</alter>
<octave>4</octave>
</pitch>
<duration>32</duration>
<type>half</type>
<lyric number="2">
<syllabic>end</syllabic>
<text>teur.</text>
</lyric>
</note>
<note>
<rest/>
<duration>32</duration>
<type>half</type>
</note>
<barline location="right">
<bar-style>light-heavy</bar-style>
<ending type="stop" number="1, 2, 3"/>
<repeat direction="backward"/>
</barline>
</measure>
<measure number="18">
<barline location="left">
<ending type="start" number="4"/>
</barline>
<note>
<pitch>
<step>E</step>
<alter>-1</alter>
<octave>4</octave>
</pitch>
<duration>64</duration>
<type>whole</type>
<lyric number="2">
<syllabic>single</syllabic>
<text>teur.</text>
</lyric>
</note>
<barline location="right">
<bar-style>light-heavy</bar-style>
<ending type="stop" number="4"/>
</barline>
</measure>
</part>
</score-partwise>
