<?xml version="1.0" encoding="UTF-8" standalone='no'?>
<!DOCTYPE score-partwise PUBLIC "-//Recordare//DTD MusicXML 1.0 Partwise//EN" "http://www.musicxml.org/dtds/partwise.dtd">
<score-partwise>
<work>
<work-title>Je te bénis, mon Créateur</work-title>
</work>
<identification>
<creator type="transcriber">Fraternité des Jeunes</creator>
<rights>© Fraternité des Jeunes</rights>
<encoding>
<software>Noteworthy Composer</software>
<encoding-date>2007-02-17</encoding-date>
</encoding>
</identification>
<part-list>
<score-part id="P1">
<part-name>Mélodie</part-name>
<score-instrument id="P1-I1">
<instrument-name>String Ensemble 1</instrument-name>
</score-instrument>
<midi-instrument id="P1-I1">
<midi-channel>1</midi-channel>
<midi-program>50</midi-program>
</midi-instrument>
</score-part>
</part-list>
<part id="P1">
<measure number="1">
<attributes>
<divisions>4</divisions>
</attributes>
<attributes>
<clef>
<sign>G</sign>
<line>2</line>
</clef>
</attributes>
<attributes>
<key>
<fifths>-1</fifths>
</key>
</attributes>
<attributes>
<time>
<beats>3</beats>
<beat-type>4</beat-type>
</time>
</attributes>
<note>
<pitch>
<step>A</step>
<octave>3</octave>
</pitch>
<duration>4</duration>
<type>quarter</type>
<lyric number="1">
<syllabic>single</syllabic>
<text>1. Tes</text>
</lyric>
<lyric number="2">
<syllabic>single</syllabic>
<text>2. Tu</text>
</lyric>
<lyric number="3">
<syllabic>single</syllabic>
<text>3. Où</text>
</lyric>
<lyric number="4">
<syllabic>single</syllabic>
<text>4. Viens,</text>
</lyric>
</note>
<note>
<pitch>
<step>D</step>
<octave>4</octave>
</pitch>
<duration>4</duration>
<type>quarter</type>
<lyric number="1">
<syllabic>single</syllabic>
<text>yeux</text>
</lyric>
<lyric number="2">
<syllabic>single</syllabic>
<text>me</text>
</lyric>
<lyric number="3">
<syllabic>single</syllabic>
<text>vais je</text>
</lyric>
<lyric number="4">
<syllabic>begin</syllabic>
<text>E</text>
</lyric>
</note>
<note>
<pitch>
<step>E</step>
<octave>4</octave>
</pitch>
<duration>4</duration>
<type>quarter</type>
<lyric number="1">
<syllabic>single</syllabic>
<text>me</text>
</lyric>
<lyric number="2">
<syllabic>begin</syllabic>
<text>con</text>
</lyric>
<lyric number="3">
<syllabic>begin</syllabic>
<text>al</text>
</lyric>
<lyric number="4">
<syllabic>middle</syllabic>
<text>ter</text>
</lyric>
</note>
</measure>
<measure number="2">
<note>
<pitch>
<step>F</step>
<octave>4</octave>
</pitch>
<duration>12</duration>
<type>half</type>
<dot/>
<lyric number="1">
<syllabic>single</syllabic>
<text>voient</text>
</lyric>
<lyric number="2">
<syllabic>end</syllabic>
<text>nais,</text>
</lyric>
<lyric number="3">
<syllabic>end</syllabic>
<text>ler,</text>
</lyric>
<lyric number="4">
<syllabic>end</syllabic>
<text>nel,</text>
</lyric>
</note>
</measure>
<measure number="3">
<note>
<pitch>
<step>G</step>
<octave>4</octave>
</pitch>
<duration>4</duration>
<type>quarter</type>
<lyric number="1">
<syllabic>single</syllabic>
<text>dès</text>
</lyric>
<lyric number="2">
<syllabic>single</syllabic>
<text>ô</text>
</lyric>
<lyric number="3">
<syllabic>single</syllabic>
<text>loin</text>
</lyric>
<lyric number="4">
<syllabic>single</syllabic>
<text>viens</text>
</lyric>
</note>
<note>
<pitch>
<step>F</step>
<octave>4</octave>
</pitch>
<duration>4</duration>
<type>quarter</type>
<lyric number="1">
<syllabic>single</syllabic>
<text>le</text>
</lyric>
<lyric number="2">
<syllabic>single</syllabic>
<text>mon</text>
</lyric>
<lyric number="3">
<syllabic>single</syllabic>
<text>de</text>
</lyric>
<lyric number="4">
<syllabic>single</syllabic>
<text>me</text>
</lyric>
</note>
<note>
<pitch>
<step>E</step>
<octave>4</octave>
</pitch>
<duration>4</duration>
<type>quarter</type>
<lyric number="1">
<syllabic>begin</syllabic>
<text>ma</text>
</lyric>
<lyric number="2">
<syllabic>begin</syllabic>
<text>Sei</text>
</lyric>
<lyric number="3">
<syllabic>single</syllabic>
<text>ta</text>
</lyric>
<lyric number="4">
<syllabic>begin</syllabic>
<text>gui</text>
</lyric>
</note>
</measure>
<measure number="4">
<note>
<pitch>
<step>F</step>
<octave>4</octave>
</pitch>
<duration>12</duration>
<type>half</type>
<dot/>
<lyric number="1">
<syllabic>end</syllabic>
<text>tin</text>
</lyric>
<lyric number="2">
<syllabic>end</syllabic>
<text>gneur,</text>
</lyric>
<lyric number="3">
<syllabic>single</syllabic>
<text>face?</text>
</lyric>
<lyric number="4">
<syllabic>end</syllabic>
<text>der</text>
</lyric>
</note>
</measure>
<measure number="5">
<note>
<pitch>
<step>A</step>
<octave>3</octave>
</pitch>
<duration>4</duration>
<type>quarter</type>
<lyric number="1">
<syllabic>single</syllabic>
<text>et</text>
</lyric>
<lyric number="2">
<syllabic>single</syllabic>
<text>dans</text>
</lyric>
<lyric number="3">
<syllabic>single</syllabic>
<text>De</text>
</lyric>
<lyric number="4">
<syllabic>single</syllabic>
<text>sur</text>
</lyric>
</note>
<note>
<pitch>
<step>D</step>
<octave>4</octave>
</pitch>
<duration>4</duration>
<type>quarter</type>
<lyric number="1">
<syllabic>begin</syllabic>
<text>jus</text>
</lyric>
<lyric number="2">
<syllabic>single</syllabic>
<text>mes</text>
</lyric>
<lyric number="3">
<syllabic>begin</syllabic>
<text>tou</text>
</lyric>
<lyric number="4">
<syllabic>single</syllabic>
<text>ton</text>
</lyric>
</note>
<note>
<pitch>
<step>E</step>
<octave>4</octave>
</pitch>
<duration>4</duration>
<type>quarter</type>
<lyric number="1">
<syllabic>end</syllabic>
<text>qu'au</text>
</lyric>
<lyric number="2">
<syllabic>begin</syllabic>
<text>pen</text>
</lyric>
<lyric number="3">
<syllabic>end</syllabic>
<text>tes</text>
</lyric>
<lyric number="4">
<syllabic>begin</syllabic>
<text>che</text>
</lyric>
</note>
</measure>
<measure number="6">
<note>
<pitch>
<step>F</step>
<octave>4</octave>
</pitch>
<duration>12</duration>
<type>half</type>
<dot/>
<lyric number="1">
<syllabic>single</syllabic>
<text>soir,</text>
</lyric>
<lyric number="2">
<syllabic>end</syllabic>
<text>sées</text>
</lyric>
<lyric number="3">
<syllabic>single</syllabic>
<text>parts,</text>
</lyric>
<lyric number="4">
<syllabic>end</syllabic>
<text>min</text>
</lyric>
</note>
</measure>
<measure number="7">
<note>
<pitch>
<step>G</step>
<octave>4</octave>
</pitch>
<duration>4</duration>
<type>quarter</type>
<lyric number="1">
<syllabic>single</syllabic>
<text>sans</text>
</lyric>
<lyric number="2">
<syllabic>single</syllabic>
<text>et</text>
</lyric>
<lyric number="3">
<syllabic>single</syllabic>
<text>tu</text>
</lyric>
<lyric number="4">
<syllabic>begin</syllabic>
<text>d'é</text>
</lyric>
</note>
<note>
<pitch>
<step>F</step>
<octave>4</octave>
</pitch>
<duration>4</duration>
<type>quarter</type>
<lyric number="1">
<syllabic>single</syllabic>
<text>me</text>
</lyric>
<lyric number="2">
<syllabic>single</syllabic>
<text>dans</text>
</lyric>
<lyric number="3">
<syllabic>single</syllabic>
<text>es</text>
</lyric>
<lyric number="4">
<syllabic>middle</syllabic>
<text>ter</text>
</lyric>
</note>
<note>
<pitch>
<step>E</step>
<octave>4</octave>
</pitch>
<duration>4</duration>
<type>quarter</type>
<lyric number="1">
<syllabic>begin</syllabic>
<text>quit</text>
</lyric>
<lyric number="2">
<syllabic>single</syllabic>
<text>mon</text>
</lyric>
<lyric number="3">
<syllabic>begin</syllabic>
<text>pré</text>
</lyric>
<lyric number="4">
<syllabic>middle</syllabic>
<text>ni</text>
</lyric>
</note>
</measure>
<measure number="8">
<note>
<pitch>
<step>D</step>
<octave>4</octave>
</pitch>
<duration>12</duration>
<type>half</type>
<dot/>
<lyric number="1">
<syllabic>end</syllabic>
<text>ter.</text>
</lyric>
<lyric number="2">
<syllabic>single</syllabic>
<text>coeur.</text>
</lyric>
<lyric number="3">
<syllabic>end</syllabic>
<text>sent.</text>
</lyric>
<lyric number="4">
<syllabic>end</syllabic>
<text>té.</text>
</lyric>
</note>
</measure>
<measure number="9">
<note>
<pitch>
<step>D</step>
<octave>4</octave>
</pitch>
<duration>4</duration>
<voice>1</voice>
<type>quarter</type>
<stem>up</stem>
<lyric number="1">
<syllabic>single</syllabic>
<text>Tu</text>
</lyric>
<lyric number="2">
<syllabic>single</syllabic>
<text>Sur</text>
</lyric>
<lyric number="3">
<syllabic>single</syllabic>
<text>Quand</text>
</lyric>
<lyric number="4">
<syllabic>single</syllabic>
<text>Dans</text>
</lyric>
</note>
<note>
<pitch>
<step>F</step>
<octave>4</octave>
</pitch>
<duration>4</duration>
<voice>1</voice>
<type>quarter</type>
<stem>up</stem>
<lyric number="1">
<syllabic>single</syllabic>
<text>m'as</text>
</lyric>
<lyric number="2">
<syllabic>single</syllabic>
<text>mes</text>
</lyric>
<lyric number="3">
<syllabic>single</syllabic>
<text>je</text>
</lyric>
<lyric number="4">
<syllabic>single</syllabic>
<text>mes</text>
</lyric>
</note>
<note>
<pitch>
<step>G</step>
<octave>4</octave>
</pitch>
<duration>4</duration>
<voice>1</voice>
<type>quarter</type>
<stem>up</stem>
<lyric number="1">
<syllabic>begin</syllabic>
<text>tis</text>
</lyric>
<lyric number="2">
<syllabic>begin</syllabic>
<text>é</text>
</lyric>
<lyric number="3">
<syllabic>begin</syllabic>
<text>m'as</text>
</lyric>
<lyric number="4">
<syllabic>begin</syllabic>
<text>com</text>
</lyric>
</note>
<backup>
<duration>12</duration>
</backup>
<note>
<pitch>
<step>A</step>
<octave>3</octave>
</pitch>
<duration>4</duration>
<voice>2</voice>
<type>quarter</type>
<stem>down</stem>
</note>
<note>
<pitch>
<step>D</step>
<octave>4</octave>
</pitch>
<duration>4</duration>
<voice>2</voice>
<type>quarter</type>
<stem>down</stem>
</note>
<note>
<pitch>
<step>E</step>
<octave>4</octave>
</pitch>
<duration>4</duration>
<voice>2</voice>
<type>quarter</type>
<stem>down</stem>
</note>
</measure>
<measure number="10">
<note>
<pitch>
<step>A</step>
<octave>4</octave>
</pitch>
<duration>12</duration>
<voice>1</voice>
<type>half</type>
<dot/>
<stem>up</stem>
<lyric number="1">
<syllabic>end</syllabic>
<text>sé</text>
</lyric>
<lyric number="2">
<syllabic>end</syllabic>
<text>paules,</text>
</lyric>
<lyric number="3">
<syllabic>end</syllabic>
<text>sieds,</text>
</lyric>
<lyric number="4">
<syllabic>end</syllabic>
<text>bats,</text>
</lyric>
</note>
<backup>
<duration>12</duration>
</backup>
<note>
<pitch>
<step>F</step>
<octave>4</octave>
</pitch>
<duration>12</duration>
<voice>2</voice>
<type>half</type>
<dot/>
<stem>down</stem>
</note>
</measure>
<measure number="11">
<note>
<pitch>
<step>B</step>
<alter>-1</alter>
<octave>4</octave>
</pitch>
<duration>4</duration>
<voice>1</voice>
<type>quarter</type>
<stem>up</stem>
<lyric number="1">
<syllabic>single</syllabic>
<text>et</text>
</lyric>
<lyric number="2">
<syllabic>single</syllabic>
<text>tu</text>
</lyric>
<lyric number="3">
<syllabic>single</syllabic>
<text>quand</text>
</lyric>
<lyric number="4">
<syllabic>single</syllabic>
<text>mes</text>
</lyric>
</note>
<note>
<pitch>
<step>A</step>
<octave>4</octave>
</pitch>
<duration>4</duration>
<voice>1</voice>
<type>quarter</type>
<stem>up</stem>
<lyric number="1">
<syllabic>begin</syllabic>
<text>fa</text>
</lyric>
<lyric number="2">
<syllabic>single</syllabic>
<text>mets</text>
</lyric>
<lyric number="3">
<syllabic>single</syllabic>
<text>je</text>
</lyric>
<lyric number="4">
<syllabic>begin</syllabic>
<text>dé</text>
</lyric>
</note>
<note>
<pitch>
<step>G</step>
<octave>4</octave>
</pitch>
<duration>4</duration>
<voice>1</voice>
<type>quarter</type>
<stem>up</stem>
<lyric number="1">
<syllabic>middle</syllabic>
<text>çon</text>
</lyric>
<lyric number="2">
<syllabic>single</syllabic>
<text>ta</text>
</lyric>
<lyric number="3">
<syllabic>single</syllabic>
<text>me</text>
</lyric>
<lyric number="4">
<syllabic>middle</syllabic>
<text>ses</text>
</lyric>
</note>
<backup>
<duration>12</duration>
</backup>
<note>
<pitch>
<step>G</step>
<octave>4</octave>
</pitch>
<duration>4</duration>
<voice>2</voice>
<type>quarter</type>
<stem>down</stem>
</note>
<note>
<pitch>
<step>F</step>
<octave>4</octave>
</pitch>
<duration>4</duration>
<voice>2</voice>
<type>quarter</type>
<stem>down</stem>
</note>
<note>
<pitch>
<step>E</step>
<octave>4</octave>
</pitch>
<duration>4</duration>
<voice>2</voice>
<type>quarter</type>
<stem>down</stem>
</note>
</measure>
<measure number="12">
<note>
<pitch>
<step>A</step>
<octave>4</octave>
</pitch>
<duration>12</duration>
<voice>1</voice>
<type>half</type>
<dot/>
<stem>up</stem>
<lyric number="1">
<syllabic>end</syllabic>
<text>né</text>
</lyric>
<lyric number="2">
<syllabic>single</syllabic>
<text>main,</text>
</lyric>
<lyric number="3">
<syllabic>single</syllabic>
<text>lève,</text>
</lyric>
<lyric number="4">
<syllabic>end</syllabic>
<text>poirs,</text>
</lyric>
</note>
<backup>
<duration>12</duration>
</backup>
<note>
<pitch>
<step>F</step>
<octave>4</octave>
</pitch>
<duration>12</duration>
<voice>2</voice>
<type>half</type>
<dot/>
<stem>down</stem>
</note>
</measure>
<measure number="13">
<note>
<pitch>
<step>D</step>
<octave>4</octave>
</pitch>
<duration>4</duration>
<voice>1</voice>
<type>quarter</type>
<stem>up</stem>
<lyric number="1">
<syllabic>single</syllabic>
<text>dans</text>
</lyric>
<lyric number="2">
<syllabic>single</syllabic>
<text>quand</text>
</lyric>
<lyric number="3">
<syllabic>single</syllabic>
<text>tu</text>
</lyric>
<lyric number="4">
<syllabic>single</syllabic>
<text>c'est</text>
</lyric>
</note>
<note>
<pitch>
<step>F</step>
<octave>4</octave>
</pitch>
<duration>4</duration>
<voice>1</voice>
<type>quarter</type>
<stem>up</stem>
<lyric number="1">
<syllabic>single</syllabic>
<text>le</text>
</lyric>
<lyric number="2">
<syllabic>single</syllabic>
<text>je</text>
</lyric>
<lyric number="3">
<syllabic>single</syllabic>
<text>es</text>
</lyric>
<lyric number="4">
<syllabic>single</syllabic>
<text>toi</text>
</lyric>
</note>
<note>
<pitch>
<step>G</step>
<octave>4</octave>
</pitch>
<duration>4</duration>
<voice>1</voice>
<type>quarter</type>
<stem>up</stem>
<lyric number="1">
<syllabic>begin</syllabic>
<text>si</text>
</lyric>
<lyric number="2">
<syllabic>single</syllabic>
<text>me</text>
</lyric>
<lyric number="3">
<syllabic>begin</syllabic>
<text>fi</text>
</lyric>
<lyric number="4">
<syllabic>single</syllabic>
<text>qui</text>
</lyric>
</note>
<backup>
<duration>12</duration>
</backup>
<note>
<pitch>
<step>A</step>
<octave>3</octave>
</pitch>
<duration>4</duration>
<voice>2</voice>
<type>quarter</type>
<stem>down</stem>
</note>
<note>
<pitch>
<step>D</step>
<octave>4</octave>
</pitch>
<duration>4</duration>
<voice>2</voice>
<type>quarter</type>
<stem>down</stem>
</note>
<note>
<pitch>
<step>E</step>
<octave>4</octave>
</pitch>
<duration>4</duration>
<voice>2</voice>
<type>quarter</type>
<stem>down</stem>
</note>
</measure>
<measure number="14">
<note>
<pitch>
<step>A</step>
<octave>4</octave>
</pitch>
<duration>12</duration>
<voice>1</voice>
<type>half</type>
<dot/>
<stem>up</stem>
<lyric number="1">
<syllabic>end</syllabic>
<text>lence</text>
</lyric>
<lyric number="2">
<syllabic>single</syllabic>
<text>couche</text>
</lyric>
<lyric number="3">
<syllabic>end</syllabic>
<text>dèle</text>
</lyric>
<lyric number="4">
<syllabic>single</syllabic>
<text>as</text>
</lyric>
</note>
<backup>
<duration>12</duration>
</backup>
<note>
<pitch>
<step>F</step>
<octave>4</octave>
</pitch>
<duration>12</duration>
<voice>2</voice>
<type>half</type>
<dot/>
<stem>down</stem>
</note>
</measure>
<measure number="15">
<note>
<pitch>
<step>B</step>
<alter>-1</alter>
<octave>4</octave>
</pitch>
<duration>4</duration>
<voice>1</voice>
<type>quarter</type>
<stem>up</stem>
<lyric number="1">
<syllabic>single</syllabic>
<text>et</text>
</lyric>
<lyric number="2">
<syllabic>single</syllabic>
<text>et</text>
</lyric>
<lyric number="3">
<syllabic>single</syllabic>
<text>à</text>
</lyric>
<lyric number="4">
<syllabic>begin</syllabic>
<text>vain</text>
</lyric>
</note>
<note>
<pitch>
<step>A</step>
<octave>4</octave>
</pitch>
<duration>4</duration>
<voice>1</voice>
<type>quarter</type>
<stem>up</stem>
<lyric number="1">
<syllabic>single</syllabic>
<text>la</text>
</lyric>
<lyric number="2">
<syllabic>single</syllabic>
<text>quand</text>
</lyric>
<lyric number="3">
<syllabic>single</syllabic>
<text>mes</text>
</lyric>
<lyric number="4">
<syllabic>end</syllabic>
<text>cu</text>
</lyric>
</note>
<note>
<pitch>
<step>G</step>
<octave>4</octave>
</pitch>
<duration>4</duration>
<voice>1</voice>
<type>quarter</type>
<stem>up</stem>
<lyric number="1">
<syllabic>begin</syllabic>
<text>pa</text>
</lyric>
<lyric number="2">
<syllabic>single</syllabic>
<text>je</text>
</lyric>
<lyric number="3">
<syllabic>begin</syllabic>
<text>cô</text>
</lyric>
<lyric number="4">
<syllabic>single</syllabic>
<text>la</text>
</lyric>
</note>
<backup>
<duration>12</duration>
</backup>
<note>
<pitch>
<step>G</step>
<octave>4</octave>
</pitch>
<duration>4</duration>
<voice>2</voice>
<type>quarter</type>
<stem>down</stem>
</note>
<note>
<pitch>
<step>F</step>
<octave>4</octave>
</pitch>
<duration>4</duration>
<voice>2</voice>
<type>quarter</type>
<stem>down</stem>
</note>
<note>
<pitch>
<step>E</step>
<octave>4</octave>
</pitch>
<duration>4</duration>
<voice>2</voice>
<type>quarter</type>
<stem>down</stem>
</note>
</measure>
<measure number="16">
<note>
<pitch>
<step>F</step>
<octave>4</octave>
</pitch>
<duration>12</duration>
<voice>1</voice>
<type>half</type>
<dot/>
<stem>up</stem>
<lyric number="1">
<syllabic>end</syllabic>
<text>tience.</text>
</lyric>
<lyric number="2">
<syllabic>single</syllabic>
<text>dors.</text>
</lyric>
<lyric number="3">
<syllabic>end</syllabic>
<text>tés.</text>
</lyric>
<lyric number="4">
<syllabic>single</syllabic>
<text>mort.</text>
</lyric>
</note>
<backup>
<duration>12</duration>
</backup>
<note>
<pitch>
<step>D</step>
<octave>4</octave>
</pitch>
<duration>12</duration>
<voice>2</voice>
<type>half</type>
<dot/>
<stem>down</stem>
</note>
</measure>
<measure number="17">
<barline location="left">
<bar-style>heavy-light</bar-style>
</barline>
<barline location="left">
<bar-style>heavy-light</bar-style>
<repeat direction="forward"/>
</barline>
<direction>
<direction-type>
<words relative-y="120">Refrain</words>
</direction-type>
</direction>
<note>
<pitch>
<step>C</step>
<octave>4</octave>
</pitch>
<duration>4</duration>
<voice>1</voice>
<type>quarter</type>
<stem>up</stem>
<lyric number="1">
<syllabic>single</syllabic>
<text>Je</text>
</lyric>
<lyric number="2">
<syllabic>single</syllabic>
<text>Tous</text>
</lyric>
</note>
<note>
<pitch>
<step>F</step>
<octave>4</octave>
</pitch>
<duration>4</duration>
<voice>1</voice>
<type>quarter</type>
<stem>up</stem>
<lyric number="1">
<syllabic>single</syllabic>
<text>te</text>
</lyric>
<lyric number="2">
<syllabic>single</syllabic>
<text>ces</text>
</lyric>
</note>
<note>
<pitch>
<step>G</step>
<octave>4</octave>
</pitch>
<duration>4</duration>
<voice>1</voice>
<type>quarter</type>
<stem>up</stem>
<lyric number="1">
<syllabic>begin</syllabic>
<text>bé</text>
</lyric>
<lyric number="2">
<syllabic>begin</syllabic>
<text>tré</text>
</lyric>
</note>
<backup>
<duration>12</duration>
</backup>
<note>
<pitch>
<step>C</step>
<octave>4</octave>
</pitch>
<duration>4</duration>
<voice>2</voice>
<type>quarter</type>
<stem>down</stem>
</note>
<note>
<pitch>
<step>C</step>
<octave>4</octave>
</pitch>
<duration>4</duration>
<voice>2</voice>
<type>quarter</type>
<stem>down</stem>
</note>
<note>
<pitch>
<step>E</step>
<octave>4</octave>
</pitch>
<duration>4</duration>
<voice>2</voice>
<type>quarter</type>
<stem>down</stem>
</note>
</measure>
<measure number="18">
<note>
<pitch>
<step>A</step>
<octave>4</octave>
</pitch>
<duration>12</duration>
<voice>1</voice>
<type>half</type>
<dot/>
<stem>up</stem>
<lyric number="1">
<syllabic>end</syllabic>
<text>nis,</text>
</lyric>
<lyric number="2">
<syllabic>end</syllabic>
<text>sors,</text>
</lyric>
</note>
<backup>
<duration>12</duration>
</backup>
<note>
<pitch>
<step>F</step>
<octave>4</octave>
</pitch>
<duration>12</duration>
<voice>2</voice>
<type>half</type>
<dot/>
<stem>down</stem>
</note>
</measure>
<measure number="19">
<note>
<pitch>
<step>G</step>
<octave>4</octave>
</pitch>
<duration>4</duration>
<voice>1</voice>
<type>quarter</type>
<stem>up</stem>
<lyric number="1">
<syllabic>single</syllabic>
<text>mon</text>
</lyric>
<lyric number="2">
<syllabic>single</syllabic>
<text>au</text>
</lyric>
</note>
<note>
<pitch>
<step>B</step>
<alter>-1</alter>
<octave>4</octave>
</pitch>
<duration>4</duration>
<voice>1</voice>
<type>quarter</type>
<stem>up</stem>
<lyric number="1">
<syllabic>begin</syllabic>
<text>Cré</text>
</lyric>
<lyric number="2">
<syllabic>single</syllabic>
<text>fond</text>
</lyric>
</note>
<note>
<pitch>
<step>G</step>
<octave>4</octave>
</pitch>
<duration>4</duration>
<voice>1</voice>
<type>quarter</type>
<stem>up</stem>
<lyric number="1">
<syllabic>middle</syllabic>
<text>a</text>
</lyric>
<lyric number="2">
<syllabic>single</syllabic>
<text>de</text>
</lyric>
</note>
<backup>
<duration>12</duration>
</backup>
<note>
<pitch>
<step>E</step>
<octave>4</octave>
</pitch>
<duration>4</duration>
<voice>2</voice>
<type>quarter</type>
<stem>down</stem>
</note>
<note>
<pitch>
<step>D</step>
<octave>4</octave>
</pitch>
<duration>4</duration>
<voice>2</voice>
<type>quarter</type>
<stem>down</stem>
</note>
<note>
<pitch>
<step>C</step>
<octave>4</octave>
</pitch>
<duration>4</duration>
<voice>2</voice>
<type>quarter</type>
<stem>down</stem>
</note>
</measure>
<measure number="20">
<note>
<pitch>
<step>A</step>
<octave>4</octave>
</pitch>
<duration>12</duration>
<voice>1</voice>
<type>half</type>
<dot/>
<stem>up</stem>
<lyric number="1">
<syllabic>end</syllabic>
<text>teur,</text>
</lyric>
<lyric number="2">
<syllabic>single</syllabic>
<text>moi,</text>
</lyric>
</note>
<backup>
<duration>12</duration>
</backup>
<note>
<pitch>
<step>F</step>
<octave>4</octave>
</pitch>
<duration>12</duration>
<voice>2</voice>
<type>half</type>
<dot/>
<stem>down</stem>
</note>
</measure>
<measure number="21">
<note>
<pitch>
<step>A</step>
<octave>4</octave>
</pitch>
<duration>4</duration>
<voice>1</voice>
<type>quarter</type>
<stem>up</stem>
<lyric number="1">
<syllabic>single</syllabic>
<text>pour</text>
</lyric>
<lyric number="2">
<syllabic>single</syllabic>
<text>que</text>
</lyric>
</note>
<note>
<pitch>
<step>B</step>
<alter>-1</alter>
<octave>4</octave>
</pitch>
<duration>4</duration>
<voice>1</voice>
<type>quarter</type>
<stem>up</stem>
<lyric number="1">
<syllabic>single</syllabic>
<text>la</text>
</lyric>
<lyric number="2">
<syllabic>single</syllabic>
<text>tu</text>
</lyric>
</note>
<note>
<pitch>
<step>G</step>
<octave>4</octave>
</pitch>
<duration>4</duration>
<voice>1</voice>
<type>quarter</type>
<stem>up</stem>
<lyric number="1">
<syllabic>begin</syllabic>
<text>mer</text>
</lyric>
<lyric number="2">
<syllabic>single</syllabic>
<text>as</text>
</lyric>
</note>
<backup>
<duration>12</duration>
</backup>
<note>
<pitch>
<step>F</step>
<octave>4</octave>
</pitch>
<duration>4</duration>
<voice>2</voice>
<type>quarter</type>
<stem>down</stem>
</note>
<note>
<pitch>
<step>G</step>
<octave>4</octave>
</pitch>
<duration>4</duration>
<voice>2</voice>
<type>quarter</type>
<stem>down</stem>
</note>
<note>
<pitch>
<step>E</step>
<octave>4</octave>
</pitch>
<duration>4</duration>
<voice>2</voice>
<type>quarter</type>
<stem>down</stem>
</note>
</measure>
<measure number="22">
<note>
<pitch>
<step>F</step>
<octave>4</octave>
</pitch>
<duration>12</duration>
<voice>1</voice>
<type>half</type>
<dot/>
<stem>up</stem>
<lyric number="1">
<syllabic>middle</syllabic>
<text>veil</text>
</lyric>
<lyric number="2">
<syllabic>single</syllabic>
<text>mis</text>
</lyric>
</note>
<backup>
<duration>12</duration>
</backup>
<note>
<pitch>
<step>D</step>
<octave>4</octave>
</pitch>
<duration>12</duration>
<voice>2</voice>
<type>half</type>
<dot/>
<stem>down</stem>
</note>
</measure>
<measure number="23">
<note>
<pitch>
<step>E</step>
<octave>4</octave>
</pitch>
<duration>4</duration>
<voice>1</voice>
<type>quarter</type>
<stem>up</stem>
<lyric number="1">
<syllabic>end</syllabic>
<text>le</text>
</lyric>
<lyric number="2">
<syllabic>single</syllabic>
<text>sans</text>
</lyric>
</note>
<note>
<pitch>
<step>F</step>
<octave>4</octave>
</pitch>
<duration>4</duration>
<voice>1</voice>
<type>quarter</type>
<stem>up</stem>
<lyric number="1">
<syllabic>single</syllabic>
<text>que</text>
</lyric>
<lyric number="2">
<syllabic>single</syllabic>
<text>faire</text>
</lyric>
</note>
<note>
<pitch>
<step>E</step>
<octave>4</octave>
</pitch>
<duration>4</duration>
<voice>1</voice>
<type>quarter</type>
<stem>up</stem>
<lyric number="1">
<syllabic>single</syllabic>
<text>je</text>
</lyric>
<lyric number="2">
<syllabic>single</syllabic>
<text>de</text>
</lyric>
</note>
<backup>
<duration>12</duration>
</backup>
<note>
<pitch>
<step>C</step>
<alter>1</alter>
<octave>4</octave>
</pitch>
<duration>4</duration>
<voice>2</voice>
<type>quarter</type>
<accidental>sharp</accidental>
<stem>down</stem>
</note>
<note>
<pitch>
<step>D</step>
<octave>4</octave>
</pitch>
<duration>4</duration>
<voice>2</voice>
<type>quarter</type>
<stem>down</stem>
</note>
<note>
<pitch>
<step>C</step>
<alter>1</alter>
<octave>4</octave>
</pitch>
<duration>4</duration>
<voice>2</voice>
<type>quarter</type>
<stem>down</stem>
</note>
</measure>
<measure number="24">
<note>
<pitch>
<step>D</step>
<octave>4</octave>
</pitch>
<duration>12</duration>
<voice>1</voice>
<type>half</type>
<dot/>
<stem>up</stem>
<lyric number="1">
<syllabic>single</syllabic>
<text>suis.</text>
</lyric>
<lyric number="2">
<syllabic>single</syllabic>
<text>bruit.</text>
</lyric>
</note>
<backup>
<duration>12</duration>
</backup>
<note>
<pitch>
<step>D</step>
<octave>4</octave>
</pitch>
<duration>12</duration>
<voice>2</voice>
<type>half</type>
<dot/>
<stem>down</stem>
</note>
<barline location="right">
<bar-style>light-heavy</bar-style>
<repeat direction="backward"/>
</barline>
</measure>
<measure number="25">
<barline location="right">
<bar-style>light-heavy</bar-style>
</barline>
<barline location="right">
<bar-style>light-heavy</bar-style>
<repeat direction="backward" times="4"/>
</barline>
<barline location="right">
<bar-style>light-heavy</bar-style>
</barline>
</measure>
</part>
</score-partwise>
