<?xml version="1.0" encoding="UTF-8" standalone='no'?>
<!DOCTYPE score-partwise PUBLIC "-//Recordare//DTD MusicXML 1.0 Partwise//EN" "http://www.musicxml.org/dtds/partwise.dtd">
<score-partwise>
<work>
<work-title>Digne es-tu</work-title>
</work>
<identification>
<creator type="transcriber">Thierry Ostrini et Chris Christensen</creator>
<rights>© 1996 Makeway Music</rights>
<encoding>
<software>Noteworthy Composer</software>
<encoding-date>2007-02-17</encoding-date>
</encoding>
</identification>
<part-list>
<score-part id="P1">
<part-name>Mélodie</part-name>
<score-instrument id="P1-I1">
<instrument-name>String Ensemble 1</instrument-name>
</score-instrument>
<midi-instrument id="P1-I1">
<midi-channel>1</midi-channel>
<midi-program>50</midi-program>
</midi-instrument>
</score-part>
</part-list>
<part id="P1">
<measure number="1">
<attributes>
<divisions>16</divisions>
</attributes>
<attributes>
<clef>
<sign>G</sign>
<line>2</line>
</clef>
</attributes>
<attributes>
<time symbol="common">
<beats>4</beats>
<beat-type>4</beat-type>
</time>
</attributes>
<direction>
<direction-type>
<metronome parentheses="no">
<beat-unit>quarter</beat-unit>
<per-minute>70</per-minute>
</metronome>
</direction-type>
<sound tempo="70"/>
</direction>
<note>
<pitch>
<step>E</step>
<octave>4</octave>
</pitch>
<duration>8</duration>
<type>eighth</type>
<stem>up</stem>
<beam number="1">begin</beam>
<lyric number="1">
<syllabic>single</syllabic>
<text>Dieu</text>
</lyric>
<lyric number="2">
<syllabic>single</syllabic>
<text></text>
</lyric>
</note>
<note>
<pitch>
<step>D</step>
<octave>4</octave>
</pitch>
<duration>8</duration>
<type>eighth</type>
<stem>up</stem>
<beam number="1">continue</beam>
<lyric number="1">
<syllabic>single</syllabic>
<text>de</text>
</lyric>
<lyric number="2">
<syllabic>single</syllabic>
<text></text>
</lyric>
</note>
</measure>
<measure number="2">
<note>
<pitch>
<step>C</step>
<octave>4</octave>
</pitch>
<duration>12</duration>
<type>eighth</type>
<dot/>
<stem>up</stem>
<beam number="1">begin</beam>
<notations>
<slur type="start" number="1"/>
</notations>
<lyric number="1">
<syllabic>begin</syllabic>
<text>gloi</text>
</lyric>
<lyric number="2">
<syllabic>single</syllabic>
<text></text>
</lyric>
</note>
<note>
<pitch>
<step>G</step>
<octave>4</octave>
</pitch>
<duration>4</duration>
<type>16th</type>
<stem>up</stem>
<beam number="1">continue</beam>
<notations>
<slur type="stop" number="1"/>
</notations>
</note>
<note>
<pitch>
<step>G</step>
<octave>4</octave>
</pitch>
<duration>16</duration>
<type>quarter</type>
<lyric number="1">
<syllabic>end</syllabic>
<text>re,</text>
</lyric>
<lyric number="2">
<syllabic>single</syllabic>
<text></text>
</lyric>
</note>
<note>
<rest/>
<duration>16</duration>
<type>quarter</type>
</note>
<note>
<pitch>
<step>D</step>
<octave>4</octave>
</pitch>
<duration>8</duration>
<type>eighth</type>
<stem>up</stem>
<beam number="1">begin</beam>
<lyric number="1">
<syllabic>single</syllabic>
<text>je</text>
</lyric>
<lyric number="2">
<syllabic>single</syllabic>
<text></text>
</lyric>
</note>
<note>
<pitch>
<step>C</step>
<octave>4</octave>
</pitch>
<duration>8</duration>
<type>eighth</type>
<stem>up</stem>
<beam number="1">continue</beam>
<lyric number="1">
<syllabic>begin</syllabic>
<text>t'a</text>
</lyric>
<lyric number="2">
<syllabic>single</syllabic>
<text></text>
</lyric>
</note>
</measure>
<measure number="3">
<note>
<pitch>
<step>B</step>
<octave>3</octave>
</pitch>
<duration>12</duration>
<type>eighth</type>
<dot/>
<stem>up</stem>
<beam number="1">begin</beam>
<notations>
<slur type="start" number="1"/>
</notations>
<lyric number="1">
<syllabic>middle</syllabic>
<text>do</text>
</lyric>
<lyric number="2">
<syllabic>single</syllabic>
<text></text>
</lyric>
</note>
<note>
<pitch>
<step>G</step>
<octave>4</octave>
</pitch>
<duration>4</duration>
<type>16th</type>
<stem>up</stem>
<beam number="1">continue</beam>
<notations>
<slur type="stop" number="1"/>
</notations>
</note>
<note>
<pitch>
<step>G</step>
<octave>4</octave>
</pitch>
<duration>16</duration>
<type>quarter</type>
<lyric number="1">
<syllabic>end</syllabic>
<text>re,</text>
</lyric>
<lyric number="2">
<syllabic>single</syllabic>
<text></text>
</lyric>
</note>
<note>
<rest/>
<duration>16</duration>
<type>quarter</type>
</note>
<note>
<rest/>
<duration>8</duration>
<type>eighth</type>
</note>
<note>
<pitch>
<step>G</step>
<octave>4</octave>
</pitch>
<duration>8</duration>
<type>eighth</type>
<lyric number="1">
<syllabic>single</syllabic>
<text>ton</text>
</lyric>
<lyric number="2">
<syllabic>single</syllabic>
<text></text>
</lyric>
</note>
</measure>
<measure number="4">
<note>
<pitch>
<step>G</step>
<octave>4</octave>
</pitch>
<duration>24</duration>
<type>quarter</type>
<dot/>
<lyric number="1">
<syllabic>single</syllabic>
<text>nom</text>
</lyric>
<lyric number="2">
<syllabic>single</syllabic>
<text></text>
</lyric>
</note>
<note>
<pitch>
<step>F</step>
<octave>4</octave>
</pitch>
<duration>8</duration>
<type>eighth</type>
<lyric number="1">
<syllabic>begin</syllabic>
<text>s'é</text>
</lyric>
<lyric number="2">
<syllabic>single</syllabic>
<text></text>
</lyric>
</note>
<note>
<pitch>
<step>E</step>
<octave>4</octave>
</pitch>
<duration>24</duration>
<type>quarter</type>
<dot/>
<lyric number="1">
<syllabic>end</syllabic>
<text>lève</text>
</lyric>
<lyric number="2">
<syllabic>single</syllabic>
<text></text>
</lyric>
</note>
<note>
<pitch>
<step>D</step>
<octave>4</octave>
</pitch>
<duration>8</duration>
<type>eighth</type>
<lyric number="1">
<syllabic>single</syllabic>
<text>en</text>
</lyric>
<lyric number="2">
<syllabic>single</syllabic>
<text></text>
</lyric>
</note>
</measure>
<measure number="5">
<note>
<pitch>
<step>D</step>
<octave>4</octave>
</pitch>
<duration>12</duration>
<type>eighth</type>
<dot/>
<stem>up</stem>
<beam number="1">begin</beam>
<lyric number="1">
<syllabic>begin</syllabic>
<text>ma</text>
</lyric>
<lyric number="2">
<syllabic>single</syllabic>
<text></text>
</lyric>
</note>
<note>
<pitch>
<step>E</step>
<octave>4</octave>
</pitch>
<duration>4</duration>
<type>16th</type>
<stem>up</stem>
<beam number="1">continue</beam>
<lyric number="1">
<syllabic>middle</syllabic>
<text>jes</text>
</lyric>
<lyric number="2">
<syllabic>single</syllabic>
<text></text>
</lyric>
</note>
<note>
<pitch>
<step>E</step>
<octave>4</octave>
</pitch>
<duration>16</duration>
<type>quarter</type>
<lyric number="1">
<syllabic>end</syllabic>
<text>té.</text>
</lyric>
<lyric number="2">
<syllabic>single</syllabic>
<text></text>
</lyric>
</note>
<note>
<rest/>
<duration>16</duration>
<type>quarter</type>
</note>
<note>
<pitch>
<step>E</step>
<octave>4</octave>
</pitch>
<duration>8</duration>
<type>eighth</type>
<stem>up</stem>
<beam number="1">begin</beam>
<lyric number="1">
<syllabic>single</syllabic>
<text>De</text>
</lyric>
<lyric number="2">
<syllabic>single</syllabic>
<text></text>
</lyric>
</note>
<note>
<pitch>
<step>D</step>
<octave>4</octave>
</pitch>
<duration>8</duration>
<type>eighth</type>
<stem>up</stem>
<beam number="1">continue</beam>
<lyric number="1">
<syllabic>single</syllabic>
<text>mes</text>
</lyric>
<lyric number="2">
<syllabic>single</syllabic>
<text></text>
</lyric>
</note>
</measure>
<measure number="6">
<note>
<pitch>
<step>C</step>
<octave>4</octave>
</pitch>
<duration>12</duration>
<type>eighth</type>
<dot/>
<stem>up</stem>
<beam number="1">begin</beam>
<notations>
<slur type="start" number="1"/>
</notations>
<lyric number="1">
<syllabic>begin</syllabic>
<text>lè</text>
</lyric>
<lyric number="2">
<syllabic>single</syllabic>
<text></text>
</lyric>
</note>
<note>
<pitch>
<step>G</step>
<octave>4</octave>
</pitch>
<duration>4</duration>
<type>16th</type>
<stem>up</stem>
<beam number="1">continue</beam>
<notations>
<slur type="stop" number="1"/>
</notations>
</note>
<note>
<pitch>
<step>G</step>
<octave>4</octave>
</pitch>
<duration>16</duration>
<type>quarter</type>
<lyric number="1">
<syllabic>end</syllabic>
<text>vres,</text>
</lyric>
<lyric number="2">
<syllabic>single</syllabic>
<text></text>
</lyric>
</note>
<note>
<rest/>
<duration>16</duration>
<type>quarter</type>
</note>
<note>
<pitch>
<step>E</step>
<octave>4</octave>
</pitch>
<duration>8</duration>
<type>eighth</type>
<stem>up</stem>
<beam number="1">begin</beam>
<lyric number="1">
<syllabic>single</syllabic>
<text>je</text>
</lyric>
<lyric number="2">
<syllabic>single</syllabic>
<text></text>
</lyric>
</note>
<note>
<pitch>
<step>G</step>
<octave>4</octave>
</pitch>
<duration>8</duration>
<type>eighth</type>
<stem>up</stem>
<beam number="1">continue</beam>
<lyric number="1">
<syllabic>begin</syllabic>
<text>cé</text>
</lyric>
<lyric number="2">
<syllabic>single</syllabic>
<text></text>
</lyric>
</note>
</measure>
<measure number="7">
<note>
<pitch>
<step>A</step>
<octave>4</octave>
</pitch>
<duration>12</duration>
<type>eighth</type>
<dot/>
<stem>up</stem>
<beam number="1">begin</beam>
<notations>
<slur type="start" number="1"/>
</notations>
<lyric number="1">
<syllabic>middle</syllabic>
<text>lè</text>
</lyric>
<lyric number="2">
<syllabic>single</syllabic>
<text></text>
</lyric>
</note>
<note>
<pitch>
<step>G</step>
<octave>4</octave>
</pitch>
<duration>4</duration>
<type>16th</type>
<stem>up</stem>
<beam number="1">continue</beam>
<notations>
<slur type="stop" number="1"/>
</notations>
</note>
<note>
<pitch>
<step>G</step>
<octave>4</octave>
</pitch>
<duration>16</duration>
<type>quarter</type>
<lyric number="1">
<syllabic>end</syllabic>
<text>bre</text>
</lyric>
<lyric number="2">
<syllabic>single</syllabic>
<text></text>
</lyric>
</note>
<note>
<rest/>
<duration>16</duration>
<type>quarter</type>
</note>
<note>
<rest/>
<duration>8</duration>
<type>eighth</type>
</note>
<note>
<pitch>
<step>E</step>
<octave>4</octave>
</pitch>
<duration>4</duration>
<type>16th</type>
<stem>up</stem>
<beam number="1">begin</beam>
<lyric number="1">
<syllabic>single</syllabic>
<text>ta</text>
</lyric>
<lyric number="2">
<syllabic>single</syllabic>
<text></text>
</lyric>
</note>
<note>
<pitch>
<step>G</step>
<octave>4</octave>
</pitch>
<duration>4</duration>
<type>16th</type>
<stem>up</stem>
<beam number="1">continue</beam>
<lyric number="1">
<syllabic>begin</syllabic>
<text>vic</text>
</lyric>
<lyric number="2">
<syllabic>single</syllabic>
<text></text>
</lyric>
</note>
</measure>
<measure number="8">
<note>
<pitch>
<step>A</step>
<octave>4</octave>
</pitch>
<duration>16</duration>
<tie type="start"/>
<type>quarter</type>
<notations>
<tied type="start"/>
</notations>
<lyric number="1">
<syllabic>end</syllabic>
<text>toire,</text>
</lyric>
<lyric number="2">
<syllabic>single</syllabic>
<text></text>
</lyric>
</note>
<note>
<pitch>
<step>A</step>
<octave>4</octave>
</pitch>
<duration>12</duration>
<tie type="stop"/>
<type>eighth</type>
<dot/>
<stem>up</stem>
<beam number="1">begin</beam>
<notations>
<tied type="stop"/>
</notations>
</note>
<note>
<pitch>
<step>A</step>
<octave>4</octave>
</pitch>
<duration>4</duration>
<type>16th</type>
<stem>up</stem>
<beam number="1">continue</beam>
<lyric number="1">
<syllabic>single</syllabic>
<text>ton</text>
</lyric>
<lyric number="2">
<syllabic>single</syllabic>
<text></text>
</lyric>
</note>
<note>
<pitch>
<step>A</step>
<octave>4</octave>
</pitch>
<duration>16</duration>
<tie type="start"/>
<type>quarter</type>
<notations>
<tied type="start"/>
</notations>
<lyric number="1">
<syllabic>single</syllabic>
<text>règne,</text>
</lyric>
<lyric number="2">
<syllabic>single</syllabic>
<text></text>
</lyric>
</note>
<note>
<pitch>
<step>A</step>
<octave>4</octave>
</pitch>
<duration>8</duration>
<tie type="stop"/>
<type>eighth</type>
<stem>up</stem>
<beam number="1">begin</beam>
<notations>
<tied type="stop"/>
</notations>
</note>
<note>
<pitch>
<step>B</step>
<octave>4</octave>
</pitch>
<duration>4</duration>
<type>16th</type>
<stem>up</stem>
<beam number="1">end</beam>
<lyric number="1">
<syllabic>single</syllabic>
<text>ton</text>
</lyric>
<lyric number="2">
<syllabic>single</syllabic>
<text></text>
</lyric>
</note>
<note>
<pitch>
<step>C</step>
<octave>5</octave>
</pitch>
<duration>4</duration>
<type>16th</type>
<stem>up</stem>
<beam number="1">continue</beam>
<lyric number="1">
<syllabic>begin</syllabic>
<text>au</text>
</lyric>
<lyric number="2">
<syllabic>single</syllabic>
<text></text>
</lyric>
</note>
</measure>
<measure number="9">
<note>
<pitch>
<step>C</step>
<octave>5</octave>
</pitch>
<duration>16</duration>
<tie type="start"/>
<type>quarter</type>
<notations>
<tied type="start"/>
</notations>
<lyric number="1">
<syllabic>middle</syllabic>
<text>to</text>
</lyric>
<lyric number="2">
<syllabic>single</syllabic>
<text></text>
</lyric>
</note>
<note>
<pitch>
<step>C</step>
<octave>5</octave>
</pitch>
<duration>12</duration>
<tie type="stop"/>
<type>eighth</type>
<dot/>
<stem>down</stem>
<beam number="1">begin</beam>
<notations>
<tied type="stop"/>
</notations>
</note>
<note>
<pitch>
<step>B</step>
<octave>4</octave>
</pitch>
<duration>4</duration>
<type>16th</type>
<stem>down</stem>
<beam number="1">continue</beam>
<lyric number="1">
<syllabic>middle</syllabic>
<text>ri</text>
</lyric>
<lyric number="2">
<syllabic>single</syllabic>
<text></text>
</lyric>
</note>
<note>
<pitch>
<step>B</step>
<octave>4</octave>
</pitch>
<duration>24</duration>
<type>quarter</type>
<dot/>
<lyric number="1">
<syllabic>end</syllabic>
<text>té.</text>
</lyric>
<lyric number="2">
<syllabic>single</syllabic>
<text></text>
</lyric>
</note>
<note>
<pitch>
<step>A</step>
<octave>4</octave>
</pitch>
<duration>4</duration>
<type>16th</type>
<stem>up</stem>
<beam number="1">begin</beam>
<lyric number="1">
<syllabic>single</syllabic>
<text>Digne</text>
</lyric>
<lyric number="2">
<syllabic>single</syllabic>
<text></text>
</lyric>
</note>
<note>
<pitch>
<step>B</step>
<octave>4</octave>
</pitch>
<duration>4</duration>
<type>16th</type>
<stem>up</stem>
<beam number="1">continue</beam>
<lyric number="1">
<syllabic>begin</syllabic>
<text>es</text>
</lyric>
<lyric number="2">
<syllabic>single</syllabic>
<text></text>
</lyric>
</note>
</measure>
<measure number="10">
<barline location="left">
<bar-style>heavy-light</bar-style>
<repeat direction="forward"/>
</barline>
<note>
<pitch>
<step>C</step>
<octave>5</octave>
</pitch>
<duration>24</duration>
<type>quarter</type>
<dot/>
<lyric number="1">
<syllabic>end</syllabic>
<text>tu,</text>
</lyric>
<lyric number="2">
<syllabic>single</syllabic>
<text></text>
</lyric>
</note>
<note>
<pitch>
<step>C</step>
<octave>5</octave>
</pitch>
<duration>8</duration>
<type>eighth</type>
<lyric number="1">
<syllabic>begin</syllabic>
<text>A</text>
</lyric>
<lyric number="2">
<syllabic>single</syllabic>
<text></text>
</lyric>
</note>
<note>
<pitch>
<step>B</step>
<octave>4</octave>
</pitch>
<duration>16</duration>
<tie type="start"/>
<type>quarter</type>
<notations>
<tied type="start"/>
</notations>
<lyric number="1">
<syllabic>end</syllabic>
<text>gneau</text>
</lyric>
<lyric number="2">
<syllabic>single</syllabic>
<text></text>
</lyric>
</note>
<note>
<pitch>
<step>B</step>
<octave>4</octave>
</pitch>
<duration>8</duration>
<tie type="stop"/>
<type>eighth</type>
<stem>up</stem>
<beam number="1">begin</beam>
<notations>
<tied type="stop"/>
</notations>
</note>
<note>
<pitch>
<step>G</step>
<octave>4</octave>
</pitch>
<duration>4</duration>
<type>16th</type>
<stem>up</stem>
<beam number="1">end</beam>
<lyric number="1">
<syllabic>single</syllabic>
<text>de</text>
</lyric>
<lyric number="2">
<syllabic>single</syllabic>
<text></text>
</lyric>
</note>
<note>
<pitch>
<step>A</step>
<octave>4</octave>
</pitch>
<duration>4</duration>
<tie type="start"/>
<type>16th</type>
<stem>up</stem>
<beam number="1">continue</beam>
<notations>
<tied type="start"/>
</notations>
<lyric number="1">
<syllabic>single</syllabic>
<text>Dieu,</text>
</lyric>
<lyric number="2">
<syllabic>single</syllabic>
<text></text>
</lyric>
</note>
</measure>
<measure number="11">
<note>
<pitch>
<step>A</step>
<octave>4</octave>
</pitch>
<duration>48</duration>
<tie type="stop"/>
<type>half</type>
<dot/>
<notations>
<tied type="stop"/>
</notations>
</note>
<note>
<rest/>
<duration>8</duration>
<type>eighth</type>
</note>
<note>
<pitch>
<step>A</step>
<octave>4</octave>
</pitch>
<duration>4</duration>
<type>16th</type>
<stem>up</stem>
<beam number="1">begin</beam>
<lyric number="1">
<syllabic>single</syllabic>
<text>digne</text>
</lyric>
<lyric number="2">
<syllabic>single</syllabic>
<text></text>
</lyric>
</note>
<note>
<pitch>
<step>B</step>
<octave>4</octave>
</pitch>
<duration>4</duration>
<type>16th</type>
<stem>up</stem>
<beam number="1">continue</beam>
<lyric number="1">
<syllabic>begin</syllabic>
<text>es</text>
</lyric>
<lyric number="2">
<syllabic>single</syllabic>
<text></text>
</lyric>
</note>
</measure>
<measure number="12">
<note>
<pitch>
<step>C</step>
<octave>5</octave>
</pitch>
<duration>24</duration>
<type>quarter</type>
<dot/>
<lyric number="1">
<syllabic>end</syllabic>
<text>tu,</text>
</lyric>
<lyric number="2">
<syllabic>single</syllabic>
<text></text>
</lyric>
</note>
<note>
<pitch>
<step>C</step>
<octave>5</octave>
</pitch>
<duration>8</duration>
<type>eighth</type>
<lyric number="1">
<syllabic>begin</syllabic>
<text>A</text>
</lyric>
<lyric number="2">
<syllabic>single</syllabic>
<text></text>
</lyric>
</note>
<note>
<pitch>
<step>B</step>
<octave>4</octave>
</pitch>
<duration>16</duration>
<tie type="start"/>
<type>quarter</type>
<notations>
<tied type="start"/>
</notations>
<lyric number="1">
<syllabic>end</syllabic>
<text>gneau</text>
</lyric>
<lyric number="2">
<syllabic>single</syllabic>
<text></text>
</lyric>
</note>
<note>
<pitch>
<step>B</step>
<octave>4</octave>
</pitch>
<duration>8</duration>
<tie type="stop"/>
<type>eighth</type>
<stem>up</stem>
<beam number="1">begin</beam>
<notations>
<tied type="stop"/>
</notations>
</note>
<note>
<pitch>
<step>G</step>
<octave>4</octave>
</pitch>
<duration>4</duration>
<type>16th</type>
<stem>up</stem>
<beam number="1">end</beam>
<lyric number="1">
<syllabic>single</syllabic>
<text>de</text>
</lyric>
<lyric number="2">
<syllabic>single</syllabic>
<text></text>
</lyric>
</note>
<note>
<pitch>
<step>A</step>
<octave>4</octave>
</pitch>
<duration>4</duration>
<tie type="start"/>
<type>16th</type>
<stem>up</stem>
<beam number="1">continue</beam>
<notations>
<tied type="start"/>
</notations>
<lyric number="1">
<syllabic>single</syllabic>
<text>Dieu.</text>
</lyric>
<lyric number="2">
<syllabic>single</syllabic>
<text></text>
</lyric>
</note>
</measure>
<measure number="13">
<note>
<pitch>
<step>A</step>
<octave>4</octave>
</pitch>
<duration>48</duration>
<tie type="stop"/>
<type>half</type>
<dot/>
<notations>
<tied type="stop"/>
</notations>
</note>
<note>
<rest/>
<duration>8</duration>
<type>eighth</type>
</note>
<note>
<pitch>
<step>A</step>
<octave>4</octave>
</pitch>
<duration>4</duration>
<type>16th</type>
<stem>up</stem>
<beam number="1">begin</beam>
<lyric number="1">
<syllabic>single</syllabic>
<text>Tous</text>
</lyric>
<lyric number="2">
<syllabic>begin</syllabic>
<text>L'u</text>
</lyric>
</note>
<note>
<pitch>
<step>B</step>
<octave>4</octave>
</pitch>
<duration>4</duration>
<type>16th</type>
<stem>up</stem>
<beam number="1">continue</beam>
<lyric number="1">
<syllabic>single</syllabic>
<text>les</text>
</lyric>
<lyric number="2">
<syllabic>end</syllabic>
<text>ni-</text>
</lyric>
</note>
</measure>
<measure number="14">
<barline location="left">
<ending type="start" number="1"/>
</barline>
<note>
<pitch>
<step>C</step>
<octave>5</octave>
</pitch>
<duration>24</duration>
<type>quarter</type>
<dot/>
<lyric number="1">
<syllabic>single</syllabic>
<text>anges,</text>
</lyric>
</note>
<note>
<pitch>
<step>C</step>
<octave>5</octave>
</pitch>
<duration>8</duration>
<type>eighth</type>
<lyric number="1">
<syllabic>begin</syllabic>
<text>en</text>
</lyric>
</note>
<note>
<pitch>
<step>B</step>
<octave>4</octave>
</pitch>
<duration>24</duration>
<type>quarter</type>
<dot/>
<lyric number="1">
<syllabic>end</syllabic>
<text>semble,</text>
</lyric>
</note>
<note>
<pitch>
<step>G</step>
<octave>4</octave>
</pitch>
<duration>8</duration>
<type>eighth</type>
<lyric number="1">
<syllabic>begin</syllabic>
<text>ac</text>
</lyric>
</note>
</measure>
<measure number="15">
<note>
<pitch>
<step>A</step>
<octave>4</octave>
</pitch>
<duration>16</duration>
<tie type="start"/>
<type>quarter</type>
<notations>
<tied type="start"/>
</notations>
<lyric number="1">
<syllabic>middle</syllabic>
<text>cla</text>
</lyric>
</note>
<note>
<pitch>
<step>A</step>
<octave>4</octave>
</pitch>
<duration>12</duration>
<tie type="stop"/>
<type>eighth</type>
<dot/>
<stem>up</stem>
<beam number="1">begin</beam>
<notations>
<tied type="stop"/>
<slur type="start" number="1"/>
</notations>
</note>
<note>
<pitch>
<step>G</step>
<octave>4</octave>
</pitch>
<duration>4</duration>
<type>16th</type>
<stem>up</stem>
<beam number="1">continue</beam>
<notations>
<slur type="stop" number="1"/>
</notations>
</note>
<note>
<pitch>
<step>G</step>
<octave>4</octave>
</pitch>
<duration>16</duration>
<type>quarter</type>
<lyric number="1">
<syllabic>end</syllabic>
<text>ment</text>
</lyric>
</note>
<note>
<rest/>
<duration>8</duration>
<type>eighth</type>
</note>
<note>
<pitch>
<step>E</step>
<octave>4</octave>
</pitch>
<duration>4</duration>
<type>16th</type>
<stem>up</stem>
<beam number="1">begin</beam>
<lyric number="1">
<syllabic>single</syllabic>
<text>la</text>
</lyric>
</note>
<note>
<pitch>
<step>G</step>
<octave>4</octave>
</pitch>
<duration>4</duration>
<type>16th</type>
<stem>up</stem>
<beam number="1">continue</beam>
<lyric number="1">
<syllabic>begin</syllabic>
<text>puis</text>
</lyric>
</note>
</measure>
<measure number="16">
<note>
<pitch>
<step>A</step>
<octave>4</octave>
</pitch>
<duration>16</duration>
<type>quarter</type>
<lyric number="1">
<syllabic>middle</syllabic>
<text>san</text>
</lyric>
</note>
<note>
<pitch>
<step>G</step>
<octave>4</octave>
</pitch>
<duration>16</duration>
<type>quarter</type>
<lyric number="1">
<syllabic>end</syllabic>
<text>ce</text>
</lyric>
</note>
<note>
<pitch>
<step>F</step>
<octave>4</octave>
</pitch>
<duration>16</duration>
<type>quarter</type>
<lyric number="1">
<syllabic>single</syllabic>
<text>de</text>
</lyric>
</note>
<note>
<pitch>
<step>E</step>
<octave>4</octave>
</pitch>
<duration>16</duration>
<type>quarter</type>
<lyric number="1">
<syllabic>single</syllabic>
<text>ton</text>
</lyric>
</note>
</measure>
<measure number="17">
<note>
<pitch>
<step>D</step>
<octave>4</octave>
</pitch>
<duration>48</duration>
<type>half</type>
<dot/>
<lyric number="1">
<syllabic>single</syllabic>
<text>nom.</text>
</lyric>
</note>
<note>
<rest/>
<duration>8</duration>
<type>eighth</type>
</note>
<note>
<pitch>
<step>A</step>
<octave>4</octave>
</pitch>
<duration>4</duration>
<type>16th</type>
<stem>up</stem>
<beam number="1">begin</beam>
<lyric number="1">
<syllabic>single</syllabic>
<text>Digne</text>
</lyric>
</note>
<note>
<pitch>
<step>B</step>
<octave>4</octave>
</pitch>
<duration>4</duration>
<type>16th</type>
<stem>up</stem>
<beam number="1">continue</beam>
<lyric number="1">
<syllabic>begin</syllabic>
<text>es</text>
</lyric>
</note>
<barline location="right">
<bar-style>light-heavy</bar-style>
<ending type="stop" number="1"/>
<repeat direction="backward"/>
</barline>
</measure>
<measure number="18">
<barline location="left">
<ending type="start" number="2"/>
</barline>
<note>
<pitch>
<step>C</step>
<octave>5</octave>
</pitch>
<duration>24</duration>
<type>quarter</type>
<dot/>
<lyric number="1">
<syllabic>end</syllabic>
<text>vers</text>
</lyric>
</note>
<note>
<pitch>
<step>C</step>
<octave>5</octave>
</pitch>
<duration>8</duration>
<type>eighth</type>
<lyric number="1">
<syllabic>begin</syllabic>
<text>en</text>
</lyric>
</note>
<note>
<pitch>
<step>B</step>
<octave>4</octave>
</pitch>
<duration>16</duration>
<tie type="start"/>
<type>quarter</type>
<notations>
<tied type="start"/>
</notations>
<lyric number="1">
<syllabic>end</syllabic>
<text>tier</text>
</lyric>
</note>
<note>
<pitch>
<step>B</step>
<octave>4</octave>
</pitch>
<duration>8</duration>
<tie type="stop"/>
<type>eighth</type>
<stem>up</stem>
<beam number="1">begin</beam>
<notations>
<tied type="stop"/>
</notations>
</note>
<note>
<pitch>
<step>G</step>
<octave>4</octave>
</pitch>
<duration>4</duration>
<type>16th</type>
<stem>up</stem>
<beam number="1">end</beam>
<lyric number="1">
<syllabic>begin</syllabic>
<text>pro</text>
</lyric>
</note>
<note>
<pitch>
<step>A</step>
<octave>4</octave>
</pitch>
<duration>4</duration>
<tie type="start"/>
<type>16th</type>
<stem>up</stem>
<beam number="1">continue</beam>
<notations>
<tied type="start"/>
</notations>
<lyric number="1">
<syllabic>middle</syllabic>
<text>cla</text>
</lyric>
</note>
</measure>
<measure number="19">
<note>
<pitch>
<step>A</step>
<octave>4</octave>
</pitch>
<duration>16</duration>
<tie type="stop"/>
<type>quarter</type>
<notations>
<tied type="stop"/>
</notations>
</note>
<note>
<pitch>
<step>A</step>
<octave>4</octave>
</pitch>
<duration>12</duration>
<tie type="stop"/>
<type>eighth</type>
<dot/>
<stem>up</stem>
<beam number="1">begin</beam>
<notations>
<tied type="stop"/>
<slur type="start" number="1"/>
</notations>
</note>
<note>
<pitch>
<step>G</step>
<octave>4</octave>
</pitch>
<duration>4</duration>
<type>16th</type>
<stem>up</stem>
<beam number="1">continue</beam>
<notations>
<slur type="stop" number="1"/>
</notations>
</note>
<note>
<pitch>
<step>G</step>
<octave>4</octave>
</pitch>
<duration>16</duration>
<type>quarter</type>
<lyric number="1">
<syllabic>end</syllabic>
<text>me</text>
</lyric>
</note>
<note>
<rest/>
<duration>8</duration>
<type>eighth</type>
</note>
<note>
<pitch>
<step>E</step>
<octave>4</octave>
</pitch>
<duration>4</duration>
<type>16th</type>
<stem>up</stem>
<beam number="1">begin</beam>
<lyric number="1">
<syllabic>single</syllabic>
<text>la</text>
</lyric>
</note>
<note>
<pitch>
<step>G</step>
<octave>4</octave>
</pitch>
<duration>4</duration>
<type>16th</type>
<stem>up</stem>
<beam number="1">continue</beam>
<lyric number="1">
<syllabic>begin</syllabic>
<text>beau</text>
</lyric>
</note>
</measure>
<measure number="20">
<note>
<pitch>
<step>A</step>
<octave>4</octave>
</pitch>
<duration>16</duration>
<type>quarter</type>
<lyric number="1">
<syllabic>end</syllabic>
<text>té</text>
</lyric>
</note>
<note>
<pitch>
<step>G</step>
<octave>4</octave>
</pitch>
<duration>16</duration>
<type>quarter</type>
<lyric number="1">
<syllabic>single</syllabic>
<text>de</text>
</lyric>
</note>
<note>
<pitch>
<step>F</step>
<octave>4</octave>
</pitch>
<duration>16</duration>
<type>quarter</type>
<lyric number="1">
<syllabic>single</syllabic>
<text>ton</text>
</lyric>
</note>
<note>
<pitch>
<step>E</step>
<octave>4</octave>
</pitch>
<duration>16</duration>
<type>quarter</type>
<lyric number="1">
<syllabic>single</syllabic>
<text>saint</text>
</lyric>
</note>
</measure>
<measure number="21">
<note>
<pitch>
<step>D</step>
<octave>4</octave>
</pitch>
<duration>32</duration>
<type>half</type>
<lyric number="1">
<syllabic>single</syllabic>
<text>nom.</text>
</lyric>
</note>
<note>
<rest/>
<duration>16</duration>
<type>quarter</type>
</note>
<barline location="right">
<bar-style>light-heavy</bar-style>
<ending type="stop" number="2"/>
</barline>
</measure>
</part>
</score-partwise>
