<?xml version="1.0" encoding="UTF-8" standalone='no'?>
<!DOCTYPE score-partwise PUBLIC "-//Recordare//DTD MusicXML 1.0 Partwise//EN" "http://www.musicxml.org/dtds/partwise.dtd">
<score-partwise>
<work>
<work-title>Célébrez l'Eternel</work-title>
</work>
<identification>
<creator type="transcriber">Sylvain Freymond</creator>
<rights>© 2002 Sylvain Freymond</rights>
<encoding>
<software>Noteworthy Composer</software>
<encoding-date>2007-02-17</encoding-date>
</encoding>
</identification>
<part-list>
<score-part id="P1">
<part-name>Mélodie</part-name>
<score-instrument id="P1-I1">
<instrument-name>String Ensemble 1</instrument-name>
</score-instrument>
<midi-instrument id="P1-I1">
<midi-channel>1</midi-channel>
<midi-program>50</midi-program>
</midi-instrument>
</score-part>
</part-list>
<part id="P1">
<measure number="1">
<attributes>
<divisions>8</divisions>
</attributes>
<attributes>
<clef>
<sign>G</sign>
<line>2</line>
</clef>
</attributes>
<attributes>
<key>
<fifths>-3</fifths>
</key>
</attributes>
<attributes>
<time>
<beats>4</beats>
<beat-type>4</beat-type>
</time>
</attributes>
<note>
<rest/>
<duration>4</duration>
<type>eighth</type>
</note>
<note>
<pitch>
<step>G</step>
<octave>4</octave>
</pitch>
<duration>4</duration>
<tie type="start"/>
<type>eighth</type>
<notations>
<tied type="start"/>
</notations>
<lyric number="1">
<syllabic>begin</syllabic>
<text>Cé</text>
</lyric>
<lyric number="2">
<syllabic>single</syllabic>
<text></text>
</lyric>
<lyric number="3">
<syllabic>single</syllabic>
<text></text>
</lyric>
</note>
<note>
<pitch>
<step>G</step>
<octave>4</octave>
</pitch>
<duration>4</duration>
<tie type="stop"/>
<type>eighth</type>
<stem>up</stem>
<beam number="1">begin</beam>
<notations>
<tied type="stop"/>
</notations>
</note>
<note>
<pitch>
<step>F</step>
<octave>4</octave>
</pitch>
<duration>4</duration>
<type>eighth</type>
<stem>up</stem>
<beam number="1">continue</beam>
<lyric number="1">
<syllabic>middle</syllabic>
<text>lé</text>
</lyric>
<lyric number="2">
<syllabic>single</syllabic>
<text></text>
</lyric>
<lyric number="3">
<syllabic>single</syllabic>
<text></text>
</lyric>
</note>
<note>
<pitch>
<step>G</step>
<octave>4</octave>
</pitch>
<duration>8</duration>
<type>quarter</type>
<lyric number="1">
<syllabic>end</syllabic>
<text>brez</text>
</lyric>
<lyric number="2">
<syllabic>single</syllabic>
<text></text>
</lyric>
<lyric number="3">
<syllabic>single</syllabic>
<text></text>
</lyric>
</note>
<note>
<rest/>
<duration>8</duration>
<type>quarter</type>
</note>
</measure>
<measure number="2">
<note>
<rest/>
<duration>4</duration>
<type>eighth</type>
</note>
<note>
<pitch>
<step>A</step>
<alter>-1</alter>
<octave>4</octave>
</pitch>
<duration>4</duration>
<tie type="start"/>
<type>eighth</type>
<notations>
<tied type="start"/>
</notations>
<lyric number="1">
<syllabic>begin</syllabic>
<text>l'E</text>
</lyric>
<lyric number="2">
<syllabic>single</syllabic>
<text></text>
</lyric>
<lyric number="3">
<syllabic>single</syllabic>
<text></text>
</lyric>
</note>
<note>
<pitch>
<step>A</step>
<alter>-1</alter>
<octave>4</octave>
</pitch>
<duration>4</duration>
<tie type="stop"/>
<type>eighth</type>
<stem>up</stem>
<beam number="1">begin</beam>
<notations>
<tied type="stop"/>
</notations>
</note>
<note>
<pitch>
<step>G</step>
<octave>4</octave>
</pitch>
<duration>4</duration>
<type>eighth</type>
<stem>up</stem>
<beam number="1">continue</beam>
<lyric number="1">
<syllabic>middle</syllabic>
<text>ter</text>
</lyric>
<lyric number="2">
<syllabic>single</syllabic>
<text></text>
</lyric>
<lyric number="3">
<syllabic>single</syllabic>
<text></text>
</lyric>
</note>
<note>
<pitch>
<step>A</step>
<alter>-1</alter>
<octave>4</octave>
</pitch>
<duration>8</duration>
<type>quarter</type>
<lyric number="1">
<syllabic>end</syllabic>
<text>nel,</text>
</lyric>
<lyric number="2">
<syllabic>single</syllabic>
<text></text>
</lyric>
<lyric number="3">
<syllabic>single</syllabic>
<text></text>
</lyric>
</note>
<note>
<rest/>
<duration>8</duration>
<type>quarter</type>
</note>
</measure>
<measure number="3">
<note>
<rest/>
<duration>4</duration>
<type>eighth</type>
</note>
<note>
<pitch>
<step>G</step>
<octave>4</octave>
</pitch>
<duration>4</duration>
<tie type="start"/>
<type>eighth</type>
<notations>
<tied type="start"/>
</notations>
<lyric number="1">
<syllabic>begin</syllabic>
<text>ha</text>
</lyric>
<lyric number="2">
<syllabic>single</syllabic>
<text></text>
</lyric>
<lyric number="3">
<syllabic>single</syllabic>
<text></text>
</lyric>
</note>
<note>
<pitch>
<step>G</step>
<octave>4</octave>
</pitch>
<duration>4</duration>
<tie type="stop"/>
<type>eighth</type>
<stem>up</stem>
<beam number="1">begin</beam>
<notations>
<tied type="stop"/>
</notations>
</note>
<note>
<pitch>
<step>G</step>
<octave>4</octave>
</pitch>
<duration>4</duration>
<type>eighth</type>
<stem>up</stem>
<beam number="1">continue</beam>
<lyric number="1">
<syllabic>middle</syllabic>
<text>bi</text>
</lyric>
<lyric number="2">
<syllabic>single</syllabic>
<text></text>
</lyric>
<lyric number="3">
<syllabic>single</syllabic>
<text></text>
</lyric>
</note>
<note>
<pitch>
<step>D</step>
<octave>4</octave>
</pitch>
<duration>8</duration>
<type>quarter</type>
<lyric number="1">
<syllabic>end</syllabic>
<text>tants</text>
</lyric>
<lyric number="2">
<syllabic>single</syllabic>
<text></text>
</lyric>
<lyric number="3">
<syllabic>single</syllabic>
<text></text>
</lyric>
</note>
<note>
<pitch>
<step>E</step>
<alter>-1</alter>
<octave>4</octave>
</pitch>
<duration>4</duration>
<type>eighth</type>
<stem>up</stem>
<beam number="1">begin</beam>
<lyric number="1">
<syllabic>single</syllabic>
<text>de</text>
</lyric>
<lyric number="2">
<syllabic>single</syllabic>
<text></text>
</lyric>
<lyric number="3">
<syllabic>single</syllabic>
<text></text>
</lyric>
</note>
<note>
<pitch>
<step>F</step>
<octave>4</octave>
</pitch>
<duration>4</duration>
<type>eighth</type>
<stem>up</stem>
<beam number="1">continue</beam>
<lyric number="1">
<syllabic>single</syllabic>
<text>la</text>
</lyric>
<lyric number="2">
<syllabic>single</syllabic>
<text></text>
</lyric>
<lyric number="3">
<syllabic>single</syllabic>
<text></text>
</lyric>
</note>
</measure>
<measure number="4">
<note>
<pitch>
<step>G</step>
<octave>4</octave>
</pitch>
<duration>32</duration>
<type>whole</type>
<lyric number="1">
<syllabic>single</syllabic>
<text>terre.</text>
</lyric>
<lyric number="2">
<syllabic>single</syllabic>
<text></text>
</lyric>
<lyric number="3">
<syllabic>single</syllabic>
<text></text>
</lyric>
</note>
</measure>
<measure number="5">
<note>
<rest/>
<duration>4</duration>
<type>eighth</type>
</note>
<note>
<pitch>
<step>A</step>
<alter>-1</alter>
<octave>4</octave>
</pitch>
<duration>4</duration>
<type>eighth</type>
<lyric number="1">
<syllabic>single</syllabic>
<text>Vous,</text>
</lyric>
<lyric number="2">
<syllabic>single</syllabic>
<text></text>
</lyric>
<lyric number="3">
<syllabic>single</syllabic>
<text></text>
</lyric>
</note>
<note>
<pitch>
<step>A</step>
<alter>-1</alter>
<octave>4</octave>
</pitch>
<duration>4</duration>
<type>eighth</type>
<stem>up</stem>
<beam number="1">begin</beam>
<lyric number="1">
<syllabic>single</syllabic>
<text>tous</text>
</lyric>
<lyric number="2">
<syllabic>single</syllabic>
<text></text>
</lyric>
<lyric number="3">
<syllabic>single</syllabic>
<text></text>
</lyric>
</note>
<note>
<pitch>
<step>G</step>
<octave>4</octave>
</pitch>
<duration>4</duration>
<type>eighth</type>
<stem>up</stem>
<beam number="1">continue</beam>
<lyric number="1">
<syllabic>single</syllabic>
<text>les</text>
</lyric>
<lyric number="2">
<syllabic>single</syllabic>
<text></text>
</lyric>
<lyric number="3">
<syllabic>single</syllabic>
<text></text>
</lyric>
</note>
<note>
<pitch>
<step>A</step>
<alter>-1</alter>
<octave>4</octave>
</pitch>
<duration>8</duration>
<type>quarter</type>
<lyric number="1">
<syllabic>single</syllabic>
<text>peuples</text>
</lyric>
<lyric number="2">
<syllabic>single</syllabic>
<text></text>
</lyric>
<lyric number="3">
<syllabic>single</syllabic>
<text></text>
</lyric>
</note>
<note>
<rest/>
<duration>8</duration>
<type>quarter</type>
</note>
</measure>
<measure number="6">
<note>
<rest/>
<duration>4</duration>
<type>eighth</type>
</note>
<note>
<pitch>
<step>C</step>
<octave>5</octave>
</pitch>
<duration>4</duration>
<type>eighth</type>
<lyric number="1">
<syllabic>single</syllabic>
<text>et</text>
</lyric>
<lyric number="2">
<syllabic>single</syllabic>
<text></text>
</lyric>
<lyric number="3">
<syllabic>single</syllabic>
<text></text>
</lyric>
</note>
<note>
<pitch>
<step>C</step>
<octave>5</octave>
</pitch>
<duration>4</duration>
<type>eighth</type>
<stem>down</stem>
<beam number="1">begin</beam>
<lyric number="1">
<syllabic>single</syllabic>
<text>les</text>
</lyric>
<lyric number="2">
<syllabic>single</syllabic>
<text></text>
</lyric>
<lyric number="3">
<syllabic>single</syllabic>
<text></text>
</lyric>
</note>
<note>
<pitch>
<step>B</step>
<alter>-1</alter>
<octave>4</octave>
</pitch>
<duration>4</duration>
<type>eighth</type>
<stem>down</stem>
<beam number="1">continue</beam>
<lyric number="1">
<syllabic>begin</syllabic>
<text>na</text>
</lyric>
<lyric number="2">
<syllabic>single</syllabic>
<text></text>
</lyric>
<lyric number="3">
<syllabic>single</syllabic>
<text></text>
</lyric>
</note>
<note>
<pitch>
<step>G</step>
<octave>4</octave>
</pitch>
<duration>8</duration>
<type>quarter</type>
<lyric number="1">
<syllabic>end</syllabic>
<text>tions,</text>
</lyric>
<lyric number="2">
<syllabic>single</syllabic>
<text></text>
</lyric>
<lyric number="3">
<syllabic>single</syllabic>
<text></text>
</lyric>
</note>
<note>
<pitch>
<step>C</step>
<octave>4</octave>
</pitch>
<duration>4</duration>
<type>eighth</type>
<stem>up</stem>
<beam number="1">begin</beam>
<lyric number="1">
<syllabic>begin</syllabic>
<text>ré</text>
</lyric>
<lyric number="2">
<syllabic>single</syllabic>
<text></text>
</lyric>
<lyric number="3">
<syllabic>single</syllabic>
<text></text>
</lyric>
</note>
<note>
<pitch>
<step>C</step>
<octave>4</octave>
</pitch>
<duration>4</duration>
<type>eighth</type>
<stem>up</stem>
<beam number="1">continue</beam>
<lyric number="1">
<syllabic>middle</syllabic>
<text>jou</text>
</lyric>
<lyric number="2">
<syllabic>single</syllabic>
<text></text>
</lyric>
<lyric number="3">
<syllabic>single</syllabic>
<text></text>
</lyric>
</note>
</measure>
<measure number="7">
<note>
<pitch>
<step>G</step>
<octave>4</octave>
</pitch>
<duration>8</duration>
<type>quarter</type>
<lyric number="1">
<syllabic>middle</syllabic>
<text>is</text>
</lyric>
<lyric number="2">
<syllabic>single</syllabic>
<text></text>
</lyric>
<lyric number="3">
<syllabic>single</syllabic>
<text></text>
</lyric>
</note>
<note>
<pitch>
<step>F</step>
<octave>4</octave>
</pitch>
<duration>8</duration>
<type>quarter</type>
<lyric number="1">
<syllabic>middle</syllabic>
<text>sez</text>
</lyric>
<lyric number="2">
<syllabic>single</syllabic>
<text></text>
</lyric>
<lyric number="3">
<syllabic>single</syllabic>
<text></text>
</lyric>
</note>
<note>
<pitch>
<step>E</step>
<alter>-1</alter>
<octave>4</octave>
</pitch>
<duration>8</duration>
<type>quarter</type>
<lyric number="1">
<syllabic>end</syllabic>
<text>vous</text>
</lyric>
<lyric number="2">
<syllabic>single</syllabic>
<text></text>
</lyric>
<lyric number="3">
<syllabic>single</syllabic>
<text></text>
</lyric>
</note>
<note>
<pitch>
<step>G</step>
<octave>4</octave>
</pitch>
<duration>8</duration>
<type>quarter</type>
<lyric number="1">
<syllabic>single</syllabic>
<text>en</text>
</lyric>
<lyric number="2">
<syllabic>single</syllabic>
<text></text>
</lyric>
<lyric number="3">
<syllabic>single</syllabic>
<text></text>
</lyric>
</note>
</measure>
<measure number="8">
<note>
<pitch>
<step>C</step>
<octave>5</octave>
</pitch>
<duration>32</duration>
<type>whole</type>
<lyric number="1">
<syllabic>single</syllabic>
<text>lui.</text>
</lyric>
<lyric number="2">
<syllabic>single</syllabic>
<text></text>
</lyric>
<lyric number="3">
<syllabic>single</syllabic>
<text></text>
</lyric>
</note>
</measure>
<measure number="9">
<note>
<rest/>
<duration>4</duration>
<type>eighth</type>
</note>
<note>
<pitch>
<step>G</step>
<octave>4</octave>
</pitch>
<duration>4</duration>
<tie type="start"/>
<type>eighth</type>
<notations>
<tied type="start"/>
</notations>
<lyric number="1">
<syllabic>begin</syllabic>
<text>Cé</text>
</lyric>
<lyric number="2">
<syllabic>single</syllabic>
<text></text>
</lyric>
<lyric number="3">
<syllabic>single</syllabic>
<text></text>
</lyric>
</note>
<note>
<pitch>
<step>G</step>
<octave>4</octave>
</pitch>
<duration>4</duration>
<tie type="stop"/>
<type>eighth</type>
<stem>up</stem>
<beam number="1">begin</beam>
<notations>
<tied type="stop"/>
</notations>
</note>
<note>
<pitch>
<step>F</step>
<octave>4</octave>
</pitch>
<duration>4</duration>
<type>eighth</type>
<stem>up</stem>
<beam number="1">continue</beam>
<lyric number="1">
<syllabic>middle</syllabic>
<text>lé</text>
</lyric>
<lyric number="2">
<syllabic>single</syllabic>
<text>2. Il</text>
</lyric>
<lyric number="3">
<syllabic>single</syllabic>
<text>3. La</text>
</lyric>
</note>
<note>
<pitch>
<step>G</step>
<octave>4</octave>
</pitch>
<duration>8</duration>
<type>quarter</type>
<lyric number="1">
<syllabic>end</syllabic>
<text>brez</text>
</lyric>
<lyric number="2">
<syllabic>single</syllabic>
<text>a</text>
</lyric>
<lyric number="3">
<syllabic>begin</syllabic>
<text>lou</text>
</lyric>
</note>
<note>
<rest/>
<duration>8</duration>
<type>quarter</type>
</note>
</measure>
<measure number="10">
<note>
<rest/>
<duration>4</duration>
<type>eighth</type>
</note>
<note>
<pitch>
<step>A</step>
<alter>-1</alter>
<octave>4</octave>
</pitch>
<duration>4</duration>
<tie type="start"/>
<type>eighth</type>
<notations>
<tied type="start"/>
</notations>
<lyric number="1">
<syllabic>begin</syllabic>
<text>l'E</text>
</lyric>
<lyric number="2">
<syllabic>begin</syllabic>
<text>mon</text>
</lyric>
<lyric number="3">
<syllabic>end</syllabic>
<text>ange</text>
</lyric>
</note>
<note>
<pitch>
<step>A</step>
<alter>-1</alter>
<octave>4</octave>
</pitch>
<duration>4</duration>
<tie type="stop"/>
<type>eighth</type>
<stem>up</stem>
<beam number="1">begin</beam>
<notations>
<tied type="stop"/>
</notations>
</note>
<note>
<pitch>
<step>G</step>
<octave>4</octave>
</pitch>
<duration>4</duration>
<type>eighth</type>
<stem>up</stem>
<beam number="1">continue</beam>
<lyric number="1">
<syllabic>middle</syllabic>
<text>ter</text>
</lyric>
<lyric number="2">
<syllabic>end</syllabic>
<text>tré</text>
</lyric>
<lyric number="3">
<syllabic>single</syllabic>
<text>sur</text>
</lyric>
</note>
<note>
<pitch>
<step>A</step>
<alter>-1</alter>
<octave>4</octave>
</pitch>
<duration>8</duration>
<type>quarter</type>
<lyric number="1">
<syllabic>end</syllabic>
<text>nel,</text>
</lyric>
<lyric number="2">
<syllabic>single</syllabic>
<text>au</text>
</lyric>
<lyric number="3">
<syllabic>single</syllabic>
<text>nos</text>
</lyric>
</note>
<note>
<rest/>
<duration>8</duration>
<type>quarter</type>
</note>
</measure>
<measure number="11">
<note>
<rest/>
<duration>4</duration>
<type>eighth</type>
</note>
<note>
<pitch>
<step>G</step>
<octave>4</octave>
</pitch>
<duration>4</duration>
<tie type="start"/>
<type>eighth</type>
<notations>
<tied type="start"/>
</notations>
<lyric number="1">
<syllabic>begin</syllabic>
<text>ha</text>
</lyric>
<lyric number="2">
<syllabic>single</syllabic>
<text>monde</text>
</lyric>
<lyric number="3">
<syllabic>single</syllabic>
<text>lèvres</text>
</lyric>
</note>
<note>
<pitch>
<step>G</step>
<octave>4</octave>
</pitch>
<duration>4</duration>
<tie type="stop"/>
<type>eighth</type>
<stem>up</stem>
<beam number="1">begin</beam>
<notations>
<tied type="stop"/>
</notations>
</note>
<note>
<pitch>
<step>G</step>
<octave>4</octave>
</pitch>
<duration>4</duration>
<type>eighth</type>
<stem>up</stem>
<beam number="1">continue</beam>
<lyric number="1">
<syllabic>middle</syllabic>
<text>bi</text>
</lyric>
<lyric number="2">
<syllabic>single</syllabic>
<text>sa</text>
</lyric>
<lyric number="3">
<syllabic>single</syllabic>
<text>et</text>
</lyric>
</note>
<note>
<pitch>
<step>D</step>
<octave>4</octave>
</pitch>
<duration>8</duration>
<type>quarter</type>
<lyric number="1">
<syllabic>end</syllabic>
<text>tants</text>
</lyric>
<lyric number="2">
<syllabic>begin</syllabic>
<text>puis</text>
</lyric>
<lyric number="3">
<syllabic>begin</syllabic>
<text>l'é</text>
</lyric>
</note>
<note>
<pitch>
<step>E</step>
<alter>-1</alter>
<octave>4</octave>
</pitch>
<duration>4</duration>
<type>eighth</type>
<stem>up</stem>
<beam number="1">begin</beam>
<lyric number="1">
<syllabic>single</syllabic>
<text>de</text>
</lyric>
<lyric number="2">
<syllabic>end</syllabic>
<text>sance</text>
</lyric>
<lyric number="3">
<syllabic>end</syllabic>
<text>pée</text>
</lyric>
</note>
<note>
<pitch>
<step>F</step>
<octave>4</octave>
</pitch>
<duration>4</duration>
<type>eighth</type>
<stem>up</stem>
<beam number="1">continue</beam>
<lyric number="1">
<syllabic>single</syllabic>
<text>la</text>
</lyric>
<lyric number="2">
<syllabic>begin</syllabic>
<text>é</text>
</lyric>
<lyric number="3">
<syllabic>single</syllabic>
<text>dans</text>
</lyric>
</note>
</measure>
<measure number="12">
<note>
<pitch>
<step>G</step>
<octave>4</octave>
</pitch>
<duration>32</duration>
<type>whole</type>
<lyric number="1">
<syllabic>single</syllabic>
<text>terre.</text>
</lyric>
<lyric number="2">
<syllabic>middle</syllabic>
<text>ter</text>
</lyric>
<lyric number="3">
<syllabic>single</syllabic>
<text>nos</text>
</lyric>
</note>
</measure>
<measure number="13">
<note>
<rest/>
<duration>4</duration>
<type>eighth</type>
</note>
<note>
<pitch>
<step>A</step>
<alter>-1</alter>
<octave>4</octave>
</pitch>
<duration>4</duration>
<type>eighth</type>
<lyric number="1">
<syllabic>single</syllabic>
<text>Vous,</text>
</lyric>
<lyric number="2">
<syllabic>end</syllabic>
<text>nelle,</text>
</lyric>
<lyric number="3">
<syllabic>single</syllabic>
<text>mains,</text>
</lyric>
</note>
<note>
<pitch>
<step>A</step>
<alter>-1</alter>
<octave>4</octave>
</pitch>
<duration>4</duration>
<type>eighth</type>
<stem>up</stem>
<beam number="1">begin</beam>
<lyric number="1">
<syllabic>single</syllabic>
<text>tous</text>
</lyric>
<lyric number="2">
<syllabic>single</syllabic>
<text>son</text>
</lyric>
<lyric number="3">
<syllabic>begin</syllabic>
<text>pous</text>
</lyric>
</note>
<note>
<pitch>
<step>G</step>
<octave>4</octave>
</pitch>
<duration>4</duration>
<type>eighth</type>
<stem>up</stem>
<beam number="1">continue</beam>
<lyric number="1">
<syllabic>single</syllabic>
<text>les</text>
</lyric>
<lyric number="2">
<syllabic>begin</syllabic>
<text>sa</text>
</lyric>
<lyric number="3">
<syllabic>end</syllabic>
<text>sons</text>
</lyric>
</note>
<note>
<pitch>
<step>A</step>
<alter>-1</alter>
<octave>4</octave>
</pitch>
<duration>8</duration>
<type>quarter</type>
<lyric number="1">
<syllabic>single</syllabic>
<text>peuples</text>
</lyric>
<lyric number="2">
<syllabic>end</syllabic>
<text>voir</text>
</lyric>
<lyric number="3">
<syllabic>single</syllabic>
<text>des</text>
</lyric>
</note>
<note>
<rest/>
<duration>8</duration>
<type>quarter</type>
</note>
</measure>
<measure number="14">
<note>
<rest/>
<duration>4</duration>
<type>eighth</type>
</note>
<note>
<pitch>
<step>C</step>
<octave>5</octave>
</pitch>
<duration>4</duration>
<type>eighth</type>
<lyric number="1">
<syllabic>single</syllabic>
<text>et</text>
</lyric>
<lyric number="2">
<syllabic>single</syllabic>
<text>et</text>
</lyric>
<lyric number="3">
<syllabic>single</syllabic>
<text>cris</text>
</lyric>
</note>
<note>
<pitch>
<step>C</step>
<octave>5</octave>
</pitch>
<duration>4</duration>
<type>eighth</type>
<stem>down</stem>
<beam number="1">begin</beam>
<lyric number="1">
<syllabic>single</syllabic>
<text>les</text>
</lyric>
<lyric number="2">
<syllabic>single</syllabic>
<text>son</text>
</lyric>
<lyric number="3">
<syllabic>single</syllabic>
<text>de</text>
</lyric>
</note>
<note>
<pitch>
<step>B</step>
<alter>-1</alter>
<octave>4</octave>
</pitch>
<duration>4</duration>
<type>eighth</type>
<stem>down</stem>
<beam number="1">continue</beam>
<lyric number="1">
<syllabic>begin</syllabic>
<text>na</text>
</lyric>
<lyric number="2">
<syllabic>begin</syllabic>
<text>pou</text>
</lyric>
<lyric number="3">
<syllabic>begin</syllabic>
<text>tri</text>
</lyric>
</note>
<note>
<pitch>
<step>G</step>
<octave>4</octave>
</pitch>
<duration>8</duration>
<type>quarter</type>
<lyric number="1">
<syllabic>end</syllabic>
<text>tions,</text>
</lyric>
<lyric number="2">
<syllabic>end</syllabic>
<text>voir.</text>
</lyric>
<lyric number="3">
<syllabic>end</syllabic>
<text>omphe.</text>
</lyric>
</note>
<note>
<pitch>
<step>C</step>
<octave>4</octave>
</pitch>
<duration>4</duration>
<type>eighth</type>
<stem>up</stem>
<beam number="1">begin</beam>
<lyric number="1">
<syllabic>begin</syllabic>
<text>ré</text>
</lyric>
<lyric number="2">
<syllabic>single</syllabic>
<text>Tout</text>
</lyric>
<lyric number="3">
<syllabic>begin</syllabic>
<text>Ac</text>
</lyric>
</note>
<note>
<pitch>
<step>C</step>
<octave>4</octave>
</pitch>
<duration>4</duration>
<type>eighth</type>
<stem>up</stem>
<beam number="1">continue</beam>
<lyric number="1">
<syllabic>middle</syllabic>
<text>jou</text>
</lyric>
<lyric number="2">
<syllabic>single</syllabic>
<text>ce</text>
</lyric>
<lyric number="3">
<syllabic>middle</syllabic>
<text>cla</text>
</lyric>
</note>
</measure>
<measure number="15">
<note>
<pitch>
<step>G</step>
<octave>4</octave>
</pitch>
<duration>8</duration>
<type>quarter</type>
<lyric number="1">
<syllabic>middle</syllabic>
<text>is</text>
</lyric>
<lyric number="2">
<syllabic>single</syllabic>
<text>qu'il</text>
</lyric>
<lyric number="3">
<syllabic>end</syllabic>
<text>mons</text>
</lyric>
</note>
<note>
<pitch>
<step>F</step>
<octave>4</octave>
</pitch>
<duration>8</duration>
<type>quarter</type>
<lyric number="1">
<syllabic>middle</syllabic>
<text>sez</text>
</lyric>
<lyric number="2">
<syllabic>single</syllabic>
<text>a</text>
</lyric>
<lyric number="3">
<syllabic>single</syllabic>
<text>le</text>
</lyric>
</note>
<note>
<pitch>
<step>E</step>
<alter>-1</alter>
<octave>4</octave>
</pitch>
<duration>8</duration>
<type>quarter</type>
<lyric number="1">
<syllabic>end</syllabic>
<text>vous</text>
</lyric>
<lyric number="2">
<syllabic>single</syllabic>
<text>fait</text>
</lyric>
<lyric number="3">
<syllabic>single</syllabic>
<text>Roi</text>
</lyric>
</note>
<note>
<pitch>
<step>G</step>
<octave>4</octave>
</pitch>
<duration>8</duration>
<type>quarter</type>
<lyric number="1">
<syllabic>single</syllabic>
<text>en</text>
</lyric>
<lyric number="2">
<syllabic>single</syllabic>
<text>est</text>
</lyric>
<lyric number="3">
<syllabic>single</syllabic>
<text>et</text>
</lyric>
</note>
</measure>
<measure number="16">
<note>
<pitch>
<step>C</step>
<octave>5</octave>
</pitch>
<duration>24</duration>
<type>half</type>
<dot/>
<lyric number="1">
<syllabic>single</syllabic>
<text>lui.</text>
</lyric>
<lyric number="2">
<syllabic>begin</syllabic>
<text>mer</text>
</lyric>
<lyric number="3">
<syllabic>begin</syllabic>
<text>pro</text>
</lyric>
</note>
<note>
<rest/>
<duration>4</duration>
<type>eighth</type>
</note>
<direction placement="above">
<direction-type>
<words relative-y="60">Fine</words>
</direction-type>
<sound fine=""/>
</direction>
<note>
<pitch>
<step>C</step>
<octave>4</octave>
</pitch>
<duration>4</duration>
<type>eighth</type>
<lyric number="1">
<syllabic>begin</syllabic>
<text>1. En</text>
</lyric>
<lyric number="2">
<syllabic>middle</syllabic>
<text>veil</text>
</lyric>
<lyric number="3">
<syllabic>middle</syllabic>
<text>cla</text>
</lyric>
</note>
</measure>
<measure number="17">
<note>
<pitch>
<step>E</step>
<alter>-1</alter>
<octave>4</octave>
</pitch>
<duration>4</duration>
<type>eighth</type>
<stem>up</stem>
<beam number="1">begin</beam>
<lyric number="1">
<syllabic>middle</syllabic>
<text>sem</text>
</lyric>
<lyric number="2">
<syllabic>end</syllabic>
<text>leux;</text>
</lyric>
<lyric number="3">
<syllabic>end</syllabic>
<text>mons:</text>
</lyric>
</note>
<note>
<pitch>
<step>E</step>
<alter>-1</alter>
<octave>4</octave>
</pitch>
<duration>4</duration>
<type>eighth</type>
<stem>up</stem>
<beam number="1">continue</beam>
<lyric number="1">
<syllabic>end</syllabic>
<text>ble</text>
</lyric>
<lyric number="2">
<syllabic>single</syllabic>
<text>il</text>
</lyric>
<lyric number="3">
<syllabic>single</syllabic>
<text>"Il</text>
</lyric>
</note>
<note>
<pitch>
<step>F</step>
<octave>4</octave>
</pitch>
<duration>4</duration>
<type>eighth</type>
<stem>up</stem>
<beam number="1">begin</beam>
<lyric number="1">
<syllabic>single</syllabic>
<text>nous</text>
</lyric>
<lyric number="2">
<syllabic>single</syllabic>
<text>n'a</text>
</lyric>
<lyric number="3">
<syllabic>single</syllabic>
<text>est</text>
</lyric>
</note>
<note>
<pitch>
<step>G</step>
<octave>4</octave>
</pitch>
<duration>4</duration>
<type>eighth</type>
<stem>up</stem>
<beam number="1">continue</beam>
<lyric number="1">
<syllabic>begin</syllabic>
<text>di</text>
</lyric>
<lyric number="2">
<syllabic>single</syllabic>
<text>pas</text>
</lyric>
<lyric number="3">
<syllabic>single</syllabic>
<text>le</text>
</lyric>
</note>
<note>
<pitch>
<step>F</step>
<octave>4</octave>
</pitch>
<duration>12</duration>
<type>quarter</type>
<dot/>
<lyric number="1">
<syllabic>end</syllabic>
<text>sons</text>
</lyric>
<lyric number="2">
<syllabic>begin</syllabic>
<text>chan</text>
</lyric>
<lyric number="3">
<syllabic>single</syllabic>
<text>Dieu</text>
</lyric>
</note>
<note>
<pitch>
<step>F</step>
<octave>4</octave>
</pitch>
<duration>4</duration>
<type>eighth</type>
<lyric number="1">
<syllabic>single</syllabic>
<text>la</text>
</lyric>
<lyric number="2">
<syllabic>end</syllabic>
<text>gé!</text>
</lyric>
<lyric number="3">
<syllabic>single</syllabic>
<text>fort!"</text>
</lyric>
</note>
</measure>
<measure number="18">
<note>
<pitch>
<step>G</step>
<octave>4</octave>
</pitch>
<duration>4</duration>
<type>eighth</type>
<stem>up</stem>
<beam number="1">begin</beam>
<lyric number="1">
<syllabic>begin</syllabic>
<text>gran</text>
</lyric>
</note>
<note>
<pitch>
<step>F</step>
<octave>4</octave>
</pitch>
<duration>4</duration>
<type>eighth</type>
<stem>up</stem>
<beam number="1">continue</beam>
<lyric number="1">
<syllabic>end</syllabic>
<text>deur</text>
</lyric>
</note>
<note>
<pitch>
<step>E</step>
<alter>-1</alter>
<octave>4</octave>
</pitch>
<duration>4</duration>
<type>eighth</type>
<stem>up</stem>
<beam number="1">begin</beam>
<lyric number="1">
<syllabic>single</syllabic>
<text>du</text>
</lyric>
</note>
<note>
<pitch>
<step>D</step>
<octave>4</octave>
</pitch>
<duration>4</duration>
<type>eighth</type>
<stem>up</stem>
<beam number="1">continue</beam>
<lyric number="1">
<syllabic>begin</syllabic>
<text>Sei</text>
</lyric>
</note>
<note>
<pitch>
<step>C</step>
<octave>4</octave>
</pitch>
<duration>16</duration>
<type>half</type>
<lyric number="1">
<syllabic>end</syllabic>
<text>gneur.</text>
</lyric>
</note>
</measure>
<measure number="19">
<note>
<pitch>
<step>D</step>
<octave>4</octave>
</pitch>
<duration>8</duration>
<type>quarter</type>
<lyric number="1">
<syllabic>single</syllabic>
<text>Il</text>
</lyric>
</note>
<note>
<pitch>
<step>D</step>
<octave>4</octave>
</pitch>
<duration>8</duration>
<type>quarter</type>
<lyric number="1">
<syllabic>single</syllabic>
<text>est</text>
</lyric>
</note>
<note>
<pitch>
<step>A</step>
<octave>4</octave>
</pitch>
<duration>4</duration>
<type>eighth</type>
<accidental>natural</accidental>
<stem>up</stem>
<beam number="1">begin</beam>
<lyric number="1">
<syllabic>single</syllabic>
<text>bon</text>
</lyric>
</note>
<note>
<pitch>
<step>A</step>
<octave>4</octave>
</pitch>
<duration>4</duration>
<type>eighth</type>
<stem>up</stem>
<beam number="1">continue</beam>
<lyric number="1">
<syllabic>single</syllabic>
<text>pour</text>
</lyric>
</note>
<note>
<pitch>
<step>F</step>
<alter>1</alter>
<octave>4</octave>
</pitch>
<duration>4</duration>
<type>eighth</type>
<accidental>sharp</accidental>
<stem>up</stem>
<beam number="1">begin</beam>
<lyric number="1">
<syllabic>begin</syllabic>
<text>Is</text>
</lyric>
</note>
<note>
<pitch>
<step>D</step>
<octave>4</octave>
</pitch>
<duration>4</duration>
<type>eighth</type>
<stem>up</stem>
<beam number="1">continue</beam>
<lyric number="1">
<syllabic>middle</syllabic>
<text>ra</text>
</lyric>
</note>
</measure>
<measure number="20">
<note>
<pitch>
<step>G</step>
<octave>4</octave>
</pitch>
<duration>32</duration>
<type>whole</type>
<lyric number="1">
<syllabic>end</syllabic>
<text>ël.</text>
</lyric>
</note>
</measure>
<measure number="21">
<note>
<pitch>
<step>A</step>
<alter>-1</alter>
<octave>4</octave>
</pitch>
<duration>4</duration>
<type>eighth</type>
<stem>up</stem>
<beam number="1">begin</beam>
<lyric number="1">
<syllabic>begin</syllabic>
<text>Joi</text>
</lyric>
</note>
<note>
<pitch>
<step>A</step>
<alter>-1</alter>
<octave>4</octave>
</pitch>
<duration>4</duration>
<type>eighth</type>
<stem>up</stem>
<beam number="1">continue</beam>
<lyric number="1">
<syllabic>middle</syllabic>
<text>gnez</text>
</lyric>
</note>
<note>
<pitch>
<step>B</step>
<alter>-1</alter>
<octave>4</octave>
</pitch>
<duration>4</duration>
<type>eighth</type>
<stem>down</stem>
<beam number="1">begin</beam>
<lyric number="1">
<syllabic>end</syllabic>
<text>vous</text>
</lyric>
</note>
<note>
<pitch>
<step>C</step>
<octave>5</octave>
</pitch>
<duration>4</duration>
<type>eighth</type>
<stem>down</stem>
<beam number="1">continue</beam>
<lyric number="1">
<syllabic>single</syllabic>
<text>à</text>
</lyric>
</note>
<note>
<pitch>
<step>B</step>
<alter>-1</alter>
<octave>4</octave>
</pitch>
<duration>16</duration>
<type>half</type>
<lyric number="1">
<syllabic>single</syllabic>
<text>moi</text>
</lyric>
</note>
</measure>
<measure number="22">
<note>
<rest/>
<duration>4</duration>
<type>eighth</type>
</note>
<note>
<pitch>
<step>B</step>
<octave>4</octave>
</pitch>
<duration>4</duration>
<type>eighth</type>
<accidental>natural</accidental>
<lyric number="1">
<syllabic>single</syllabic>
<text>pour</text>
</lyric>
</note>
<note>
<pitch>
<step>B</step>
<octave>4</octave>
</pitch>
<duration>4</duration>
<type>eighth</type>
<stem>down</stem>
<beam number="1">begin</beam>
<lyric number="1">
<syllabic>begin</syllabic>
<text>l'a</text>
</lyric>
</note>
<note>
<pitch>
<step>G</step>
<octave>4</octave>
</pitch>
<duration>4</duration>
<type>eighth</type>
<stem>down</stem>
<beam number="1">continue</beam>
<lyric number="1">
<syllabic>middle</syllabic>
<text>do</text>
</lyric>
</note>
<note>
<pitch>
<step>C</step>
<octave>5</octave>
</pitch>
<duration>8</duration>
<type>quarter</type>
<lyric number="1">
<syllabic>end</syllabic>
<text>rer;</text>
</lyric>
</note>
<note>
<rest/>
<duration>8</duration>
<type>quarter</type>
</note>
</measure>
<measure number="23">
<note>
<pitch>
<step>C</step>
<octave>5</octave>
</pitch>
<duration>8</duration>
<type>quarter</type>
<lyric number="1">
<syllabic>single</syllabic>
<text>c'est</text>
</lyric>
</note>
<note>
<pitch>
<step>E</step>
<alter>-1</alter>
<octave>5</octave>
</pitch>
<duration>8</duration>
<type>quarter</type>
<lyric number="1">
<syllabic>single</syllabic>
<text>le</text>
</lyric>
</note>
<note>
<pitch>
<step>D</step>
<octave>5</octave>
</pitch>
<duration>8</duration>
<type>quarter</type>
<lyric number="1">
<syllabic>single</syllabic>
<text>seul</text>
</lyric>
</note>
<note>
<pitch>
<step>A</step>
<octave>4</octave>
</pitch>
<duration>8</duration>
<type>quarter</type>
<accidental>natural</accidental>
<lyric number="1">
<syllabic>begin</syllabic>
<text>Sau</text>
</lyric>
</note>
</measure>
<measure number="24">
<note>
<pitch>
<step>D</step>
<octave>5</octave>
</pitch>
<duration>24</duration>
<type>half</type>
<dot/>
<lyric number="1">
<syllabic>end</syllabic>
<text>veur.</text>
</lyric>
</note>
<note>
<rest/>
<duration>8</duration>
<type>quarter</type>
</note>
<barline location="right">
<bar-style>light-heavy</bar-style>
<repeat direction="backward" times="3"/>
</barline>
</measure>
<measure number="25">
<direction placement="above">
<direction-type>
<words relative-y="60">D.C. al Fine</words>
</direction-type>
</direction>
<barline location="right">
<bar-style>light-heavy</bar-style>
</barline>
</measure>
</part>
</score-partwise>
