<?xml version="1.0" encoding="UTF-8" standalone='no'?>
<!DOCTYPE score-partwise PUBLIC "-//Recordare//DTD MusicXML 1.0 Partwise//EN" "http://www.musicxml.org/dtds/partwise.dtd">
<score-partwise>
<work>
<work-title>Un enfant si petit</work-title>
</work>
<identification>
<creator type="transcriber">Jean-François Bussy</creator>
<rights>© 1996 Harmony Musique</rights>
<encoding>
<software>Noteworthy Composer</software>
<encoding-date>2013-01-13</encoding-date>
</encoding>
</identification>
<part-list>
<score-part id="P1">
<part-name>Mélodie</part-name>
<score-instrument id="P1-I1">
<instrument-name>String Ensemble 1</instrument-name>
</score-instrument>
<midi-instrument id="P1-I1">
<midi-channel>1</midi-channel>
<midi-program>50</midi-program>
</midi-instrument>
</score-part>
</part-list>
<part id="P1">
<measure number="1">
<attributes>
<divisions>24</divisions>
</attributes>
<attributes>
<clef>
<sign>G</sign>
<line>2</line>
</clef>
</attributes>
<attributes>
<time>
<beats>4</beats>
<beat-type>4</beat-type>
</time>
</attributes>
<note>
<pitch>
<step>E</step>
<octave>4</octave>
</pitch>
<duration>72</duration>
<type>half</type>
<dot/>
<lyric number="1">
<syllabic>single</syllabic>
<text>1. C'est</text>
</lyric>
<lyric number="2">
<syllabic>single</syllabic>
<text>2. Puis</text>
</lyric>
<lyric number="3">
<syllabic>single</syllabic>
<text>3. Quand</text>
</lyric>
</note>
<note>
<pitch>
<step>E</step>
<octave>4</octave>
</pitch>
<duration>24</duration>
<type>quarter</type>
<lyric number="1">
<syllabic>single</syllabic>
<text>une</text>
</lyric>
<lyric number="2">
<syllabic>single</syllabic>
<text>de</text>
</lyric>
<lyric number="3">
<syllabic>begin</syllabic>
<text>Jé</text>
</lyric>
</note>
</measure>
<measure number="2">
<note>
<pitch>
<step>F</step>
<octave>4</octave>
</pitch>
<duration>24</duration>
<type>quarter</type>
<lyric number="1">
<syllabic>begin</syllabic>
<text>chan</text>
</lyric>
<lyric number="2">
<syllabic>single</syllabic>
<text>grands</text>
</lyric>
<lyric number="3">
<syllabic>end</syllabic>
<text>sus</text>
</lyric>
</note>
<note>
<pitch>
<step>E</step>
<octave>4</octave>
</pitch>
<duration>12</duration>
<type>eighth</type>
<stem>up</stem>
<beam number="1">begin</beam>
<lyric number="1">
<syllabic>end</syllabic>
<text>son</text>
</lyric>
<lyric number="2">
<syllabic>single</syllabic>
<text>rois</text>
</lyric>
<lyric number="3">
<syllabic>single</syllabic>
<text>est</text>
</lyric>
</note>
<note>
<pitch>
<step>D</step>
<octave>4</octave>
</pitch>
<duration>12</duration>
<tie type="start"/>
<type>eighth</type>
<stem>up</stem>
<beam number="1">continue</beam>
<notations>
<tied type="start"/>
</notations>
<lyric number="1">
<syllabic>single</syllabic>
<text>douce</text>
</lyric>
<lyric number="2">
<syllabic>single</syllabic>
<text>sont</text>
</lyric>
<lyric number="3">
<syllabic>single</syllabic>
<text>né</text>
</lyric>
</note>
<note>
<pitch>
<step>D</step>
<octave>4</octave>
</pitch>
<duration>12</duration>
<tie type="stop"/>
<type>eighth</type>
<notations>
<tied type="stop"/>
</notations>
</note>
<note>
<pitch>
<step>C</step>
<octave>4</octave>
</pitch>
<duration>24</duration>
<type>quarter</type>
<lyric number="1">
<syllabic>single</syllabic>
<text>et</text>
</lyric>
<lyric number="2">
<syllabic>begin</syllabic>
<text>ve</text>
</lyric>
<lyric number="3">
<syllabic>single</syllabic>
<text>sur</text>
</lyric>
</note>
<note>
<pitch>
<step>E</step>
<octave>4</octave>
</pitch>
<duration>12</duration>
<tie type="start"/>
<type>eighth</type>
<notations>
<tied type="start"/>
</notations>
<lyric number="1">
<syllabic>single</syllabic>
<text>tendre,</text>
</lyric>
<lyric number="2">
<syllabic>end</syllabic>
<text>nus.</text>
</lyric>
<lyric number="3">
<syllabic>single</syllabic>
<text>terre,</text>
</lyric>
</note>
</measure>
<measure number="3">
<note>
<pitch>
<step>E</step>
<octave>4</octave>
</pitch>
<duration>72</duration>
<tie type="stop"/>
<type>half</type>
<dot/>
<notations>
<tied type="stop"/>
</notations>
</note>
<note>
<pitch>
<step>E</step>
<octave>4</octave>
</pitch>
<duration>24</duration>
<type>quarter</type>
<lyric number="1">
<syllabic>single</syllabic>
<text>Pour</text>
</lyric>
<lyric number="2">
<syllabic>begin</syllabic>
<text>L'é</text>
</lyric>
<lyric number="3">
<syllabic>single</syllabic>
<text>Sur</text>
</lyric>
</note>
</measure>
<measure number="4">
<note>
<pitch>
<step>F</step>
<octave>4</octave>
</pitch>
<duration>24</duration>
<type>quarter</type>
<lyric number="1">
<syllabic>single</syllabic>
<text>à</text>
</lyric>
<lyric number="2">
<syllabic>end</syllabic>
<text>toile,</text>
</lyric>
<lyric number="3">
<syllabic>single</syllabic>
<text>une</text>
</lyric>
</note>
<note>
<pitch>
<step>E</step>
<octave>4</octave>
</pitch>
<duration>12</duration>
<type>eighth</type>
<stem>up</stem>
<beam number="1">begin</beam>
<lyric number="1">
<syllabic>begin</syllabic>
<text>nou</text>
</lyric>
<lyric number="2">
<syllabic>single</syllabic>
<text>ils</text>
</lyric>
<lyric number="3">
<syllabic>begin</syllabic>
<text>pau</text>
</lyric>
</note>
<note>
<pitch>
<step>D</step>
<octave>4</octave>
</pitch>
<duration>12</duration>
<tie type="start"/>
<type>eighth</type>
<stem>up</stem>
<beam number="1">continue</beam>
<notations>
<tied type="start"/>
</notations>
<lyric number="1">
<syllabic>end</syllabic>
<text>veau</text>
</lyric>
<lyric number="2">
<syllabic>begin</syllabic>
<text>a</text>
</lyric>
<lyric number="3">
<syllabic>end</syllabic>
<text>vre</text>
</lyric>
</note>
<note>
<pitch>
<step>D</step>
<octave>4</octave>
</pitch>
<duration>12</duration>
<tie type="stop"/>
<type>eighth</type>
<notations>
<tied type="stop"/>
</notations>
</note>
<note>
<pitch>
<step>C</step>
<octave>4</octave>
</pitch>
<duration>24</duration>
<type>quarter</type>
<lyric number="1">
<syllabic>begin</syllabic>
<text>l'en</text>
</lyric>
<lyric number="2">
<syllabic>end</syllabic>
<text>vaient</text>
</lyric>
<lyric number="3">
<syllabic>begin</syllabic>
<text>li</text>
</lyric>
</note>
<note>
<pitch>
<step>E</step>
<octave>4</octave>
</pitch>
<duration>12</duration>
<tie type="start"/>
<type>eighth</type>
<notations>
<tied type="start"/>
</notations>
<lyric number="1">
<syllabic>end</syllabic>
<text>tendre</text>
</lyric>
<lyric number="2">
<syllabic>single</syllabic>
<text>vue.</text>
</lyric>
<lyric number="3">
<syllabic>end</syllabic>
<text>tière,</text>
</lyric>
</note>
</measure>
<measure number="5">
<note>
<pitch>
<step>E</step>
<octave>4</octave>
</pitch>
<duration>72</duration>
<tie type="stop"/>
<type>half</type>
<dot/>
<notations>
<tied type="stop"/>
</notations>
</note>
<note>
<pitch>
<step>A</step>
<octave>4</octave>
</pitch>
<duration>24</duration>
<type>quarter</type>
<lyric number="1">
<syllabic>begin</syllabic>
<text>L'his</text>
</lyric>
<lyric number="2">
<syllabic>single</syllabic>
<text>Sans</text>
</lyric>
<lyric number="3">
<syllabic>single</syllabic>
<text>Peu</text>
</lyric>
</note>
</measure>
<measure number="6">
<note>
<pitch>
<step>G</step>
<octave>4</octave>
</pitch>
<duration>72</duration>
<type>half</type>
<dot/>
<lyric number="1">
<syllabic>end</syllabic>
<text>toire</text>
</lyric>
<lyric number="2">
<syllabic>single</syllabic>
<text>bruits,</text>
</lyric>
<lyric number="3">
<syllabic>single</syllabic>
<text>d'hommes</text>
</lyric>
</note>
<note>
<pitch>
<step>G</step>
<octave>4</octave>
</pitch>
<duration>24</duration>
<type>quarter</type>
<lyric number="1">
<syllabic>single</syllabic>
<text>si</text>
</lyric>
<lyric number="2">
<syllabic>begin</syllabic>
<text>ra</text>
</lyric>
<lyric number="3">
<syllabic>single</syllabic>
<text>ont</text>
</lyric>
</note>
</measure>
<measure number="7">
<note>
<pitch>
<step>G</step>
<octave>4</octave>
</pitch>
<duration>72</duration>
<type>half</type>
<dot/>
<lyric number="1">
<syllabic>single</syllabic>
<text>belle</text>
</lyric>
<lyric number="2">
<syllabic>end</syllabic>
<text>vis,</text>
</lyric>
<lyric number="3">
<syllabic>single</syllabic>
<text>su</text>
</lyric>
</note>
<note>
<pitch>
<step>G</step>
<octave>4</octave>
</pitch>
<duration>24</duration>
<type>quarter</type>
<lyric number="1">
<syllabic>single</syllabic>
<text>qu'on</text>
</lyric>
<lyric number="2">
<syllabic>single</syllabic>
<text>Dans</text>
</lyric>
<lyric number="3">
<syllabic>begin</syllabic>
<text>re</text>
</lyric>
</note>
</measure>
<measure number="8">
<note>
<pitch>
<step>G</step>
<octave>4</octave>
</pitch>
<duration>24</duration>
<type>quarter</type>
<lyric number="1">
<syllabic>begin</syllabic>
<text>ra</text>
</lyric>
<lyric number="2">
<syllabic>begin</syllabic>
<text>l'é</text>
</lyric>
<lyric number="3">
<syllabic>middle</syllabic>
<text>con</text>
</lyric>
</note>
<note>
<pitch>
<step>F</step>
<octave>4</octave>
</pitch>
<duration>12</duration>
<type>eighth</type>
<stem>up</stem>
<beam number="1">begin</beam>
<lyric number="1">
<syllabic>end</syllabic>
<text>conte</text>
</lyric>
<lyric number="2">
<syllabic>end</syllabic>
<text>table</text>
</lyric>
<lyric number="3">
<syllabic>end</syllabic>
<text>naître</text>
</lyric>
</note>
<note>
<pitch>
<step>F</step>
<octave>4</octave>
</pitch>
<duration>12</duration>
<tie type="start"/>
<type>eighth</type>
<stem>up</stem>
<beam number="1">continue</beam>
<notations>
<tied type="start"/>
</notations>
<lyric number="1">
<syllabic>single</syllabic>
<text>à</text>
</lyric>
<lyric number="2">
<syllabic>single</syllabic>
<text>ils</text>
</lyric>
<lyric number="3">
<syllabic>single</syllabic>
<text>ce</text>
</lyric>
</note>
<note>
<pitch>
<step>F</step>
<octave>4</octave>
</pitch>
<duration>12</duration>
<tie type="stop"/>
<type>eighth</type>
<notations>
<tied type="stop"/>
</notations>
</note>
<note>
<pitch>
<step>E</step>
<octave>4</octave>
</pitch>
<duration>24</duration>
<type>quarter</type>
<lyric number="1">
<syllabic>begin</syllabic>
<text>No</text>
</lyric>
<lyric number="2">
<syllabic>single</syllabic>
<text>ont</text>
</lyric>
<lyric number="3">
<syllabic>begin</syllabic>
<text>sa</text>
</lyric>
</note>
<note>
<pitch>
<step>D</step>
<octave>4</octave>
</pitch>
<duration>12</duration>
<tie type="start"/>
<type>eighth</type>
<notations>
<tied type="start"/>
</notations>
<lyric number="1">
<syllabic>end</syllabic>
<text>ël.</text>
</lyric>
<lyric number="2">
<syllabic>single</syllabic>
<text>cru.</text>
</lyric>
<lyric number="3">
<syllabic>end</syllabic>
<text>lut.</text>
</lyric>
</note>
</measure>
<measure number="9">
<note>
<pitch>
<step>D</step>
<octave>4</octave>
</pitch>
<duration>48</duration>
<tie type="stop"/>
<type>half</type>
<notations>
<tied type="stop"/>
</notations>
</note>
<note>
<rest/>
<duration>48</duration>
<type>half</type>
</note>
</measure>
<measure number="10">
<note>
<pitch>
<step>E</step>
<octave>4</octave>
</pitch>
<duration>72</duration>
<type>half</type>
<dot/>
<lyric number="1">
<syllabic>single</syllabic>
<text>Quand</text>
</lyric>
<lyric number="2">
<syllabic>single</syllabic>
<text>C'est</text>
</lyric>
<lyric number="3">
<syllabic>single</syllabic>
<text>Mais</text>
</lyric>
</note>
<note>
<pitch>
<step>E</step>
<octave>4</octave>
</pitch>
<duration>24</duration>
<type>quarter</type>
<lyric number="1">
<syllabic>single</syllabic>
<text>les</text>
</lyric>
<lyric number="2">
<syllabic>single</syllabic>
<text>que</text>
</lyric>
<lyric number="3">
<syllabic>single</syllabic>
<text>pour</text>
</lyric>
</note>
</measure>
<measure number="11">
<note>
<pitch>
<step>F</step>
<octave>4</octave>
</pitch>
<duration>24</duration>
<type>quarter</type>
<lyric number="1">
<syllabic>single</syllabic>
<text>anges</text>
</lyric>
<lyric number="2">
<syllabic>single</syllabic>
<text>Dieu</text>
</lyric>
<lyric number="3">
<syllabic>single</syllabic>
<text>ceux</text>
</lyric>
</note>
<note>
<pitch>
<step>E</step>
<octave>4</octave>
</pitch>
<duration>12</duration>
<type>eighth</type>
<stem>up</stem>
<beam number="1">begin</beam>
<lyric number="1">
<syllabic>single</syllabic>
<text>ont</text>
</lyric>
<lyric number="2">
<syllabic>begin</syllabic>
<text>ve</text>
</lyric>
<lyric number="3">
<syllabic>single</syllabic>
<text>qui</text>
</lyric>
</note>
<note>
<pitch>
<step>D</step>
<octave>4</octave>
</pitch>
<duration>12</duration>
<tie type="start"/>
<type>eighth</type>
<stem>up</stem>
<beam number="1">continue</beam>
<notations>
<tied type="start"/>
</notations>
<lyric number="1">
<syllabic>begin</syllabic>
<text>an</text>
</lyric>
<lyric number="2">
<syllabic>end</syllabic>
<text>nait</text>
</lyric>
<lyric number="3">
<syllabic>begin</syllabic>
<text>vou</text>
</lyric>
</note>
<note>
<pitch>
<step>D</step>
<octave>4</octave>
</pitch>
<duration>12</duration>
<tie type="stop"/>
<type>eighth</type>
<notations>
<tied type="stop"/>
</notations>
</note>
<note>
<pitch>
<step>C</step>
<octave>4</octave>
</pitch>
<duration>24</duration>
<type>quarter</type>
<lyric number="1">
<syllabic>middle</syllabic>
<text>non</text>
</lyric>
<lyric number="2">
<syllabic>begin</syllabic>
<text>ai</text>
</lyric>
<lyric number="3">
<syllabic>end</syllabic>
<text>dront</text>
</lyric>
</note>
<note>
<pitch>
<step>E</step>
<octave>4</octave>
</pitch>
<duration>12</duration>
<tie type="start"/>
<type>eighth</type>
<notations>
<tied type="start"/>
</notations>
<lyric number="1">
<syllabic>end</syllabic>
<text>cé</text>
</lyric>
<lyric number="2">
<syllabic>end</syllabic>
<text>mer</text>
</lyric>
<lyric number="3">
<syllabic>single</syllabic>
<text>croire,</text>
</lyric>
</note>
</measure>
<measure number="12">
<note>
<pitch>
<step>E</step>
<octave>4</octave>
</pitch>
<duration>72</duration>
<tie type="stop"/>
<type>half</type>
<dot/>
<notations>
<tied type="stop"/>
</notations>
</note>
<note>
<pitch>
<step>E</step>
<octave>4</octave>
</pitch>
<duration>24</duration>
<type>quarter</type>
<lyric number="1">
<syllabic>single</syllabic>
<text>Aux</text>
</lyric>
<lyric number="2">
<syllabic>begin</syllabic>
<text>Tou</text>
</lyric>
<lyric number="3">
<syllabic>single</syllabic>
<text>Il</text>
</lyric>
</note>
</measure>
<measure number="13">
<note>
<pitch>
<step>F</step>
<octave>4</octave>
</pitch>
<duration>24</duration>
<type>quarter</type>
<lyric number="1">
<syllabic>begin</syllabic>
<text>ber</text>
</lyric>
<lyric number="2">
<syllabic>end</syllabic>
<text>te</text>
</lyric>
<lyric number="3">
<syllabic>begin</syllabic>
<text>mon</text>
</lyric>
</note>
<note>
<pitch>
<step>E</step>
<octave>4</octave>
</pitch>
<duration>12</duration>
<type>eighth</type>
<stem>up</stem>
<beam number="1">begin</beam>
<lyric number="1">
<syllabic>end</syllabic>
<text>gers</text>
</lyric>
<lyric number="2">
<syllabic>begin</syllabic>
<text>l'hu</text>
</lyric>
<lyric number="3">
<syllabic>middle</syllabic>
<text>tre</text>
</lyric>
</note>
<note>
<pitch>
<step>D</step>
<octave>4</octave>
</pitch>
<duration>12</duration>
<tie type="start"/>
<type>eighth</type>
<stem>up</stem>
<beam number="1">continue</beam>
<notations>
<tied type="start"/>
</notations>
<lyric number="1">
<syllabic>begin</syllabic>
<text>é</text>
</lyric>
<lyric number="2">
<syllabic>middle</syllabic>
<text>ma</text>
</lyric>
<lyric number="3">
<syllabic>end</syllabic>
<text>ra</text>
</lyric>
</note>
<note>
<pitch>
<step>D</step>
<octave>4</octave>
</pitch>
<duration>12</duration>
<tie type="stop"/>
<type>eighth</type>
<notations>
<tied type="stop"/>
</notations>
</note>
<note>
<pitch>
<step>C</step>
<octave>4</octave>
</pitch>
<duration>24</duration>
<type>quarter</type>
<lyric number="1">
<syllabic>middle</syllabic>
<text>ton</text>
</lyric>
<lyric number="2">
<syllabic>middle</syllabic>
<text>ni</text>
</lyric>
<lyric number="3">
<syllabic>single</syllabic>
<text>sa</text>
</lyric>
</note>
<note>
<pitch>
<step>E</step>
<octave>4</octave>
</pitch>
<duration>12</duration>
<tie type="start"/>
<type>eighth</type>
<notations>
<tied type="start"/>
</notations>
<lyric number="1">
<syllabic>end</syllabic>
<text>nés</text>
</lyric>
<lyric number="2">
<syllabic>end</syllabic>
<text>té,</text>
</lyric>
<lyric number="3">
<syllabic>single</syllabic>
<text>gloire,</text>
</lyric>
</note>
</measure>
<measure number="14">
<note>
<pitch>
<step>E</step>
<octave>4</octave>
</pitch>
<duration>72</duration>
<tie type="stop"/>
<type>half</type>
<dot/>
<notations>
<tied type="stop"/>
</notations>
</note>
<note>
<pitch>
<step>A</step>
<octave>4</octave>
</pitch>
<duration>24</duration>
<type>quarter</type>
<lyric number="1">
<syllabic>single</syllabic>
<text>Que</text>
</lyric>
<lyric number="2">
<syllabic>single</syllabic>
<text>rois</text>
</lyric>
<lyric number="3">
<syllabic>single</syllabic>
<text>Sa</text>
</lyric>
</note>
</measure>
<measure number="15">
<note>
<pitch>
<step>G</step>
<octave>4</octave>
</pitch>
<duration>72</duration>
<type>half</type>
<dot/>
<lyric number="1">
<syllabic>single</syllabic>
<text>Dieu,</text>
</lyric>
<lyric number="2">
<syllabic>single</syllabic>
<text>et</text>
</lyric>
<lyric number="3">
<syllabic>single</syllabic>
<text>paix</text>
</lyric>
</note>
<note>
<pitch>
<step>G</step>
<octave>4</octave>
</pitch>
<duration>24</duration>
<type>quarter</type>
<lyric number="1">
<syllabic>single</syllabic>
<text>des</text>
</lyric>
<lyric number="2">
<syllabic>begin</syllabic>
<text>ber</text>
</lyric>
<lyric number="3">
<syllabic>single</syllabic>
<text>sans</text>
</lyric>
</note>
</measure>
<measure number="16">
<note>
<pitch>
<step>G</step>
<octave>4</octave>
</pitch>
<duration>72</duration>
<type>half</type>
<dot/>
<lyric number="1">
<syllabic>single</syllabic>
<text>cieux,</text>
</lyric>
<lyric number="2">
<syllabic>end</syllabic>
<text>gers,</text>
</lyric>
<lyric number="3">
<syllabic>single</syllabic>
<text>fin,</text>
</lyric>
</note>
<note>
<pitch>
<step>G</step>
<octave>4</octave>
</pitch>
<duration>24</duration>
<type>quarter</type>
<lyric number="1">
<syllabic>begin</syllabic>
<text>ve</text>
</lyric>
<lyric number="2">
<syllabic>begin</syllabic>
<text>U</text>
</lyric>
<lyric number="3">
<syllabic>begin</syllabic>
<text>con</text>
</lyric>
</note>
</measure>
<measure number="17">
<note>
<pitch>
<step>G</step>
<octave>4</octave>
</pitch>
<duration>24</duration>
<type>quarter</type>
<lyric number="1">
<syllabic>end</syllabic>
<text>nait</text>
</lyric>
<lyric number="2">
<syllabic>end</syllabic>
<text>nis</text>
</lyric>
<lyric number="3">
<syllabic>middle</syllabic>
<text>dui</text>
</lyric>
</note>
<note>
<pitch>
<step>F</step>
<octave>4</octave>
</pitch>
<duration>12</duration>
<type>eighth</type>
<stem>up</stem>
<beam number="1">begin</beam>
<lyric number="1">
<syllabic>single</syllabic>
<text>nous</text>
</lyric>
<lyric number="2">
<syllabic>single</syllabic>
<text>pour</text>
</lyric>
<lyric number="3">
<syllabic>end</syllabic>
<text>ra</text>
</lyric>
</note>
<note>
<pitch>
<step>F</step>
<octave>4</octave>
</pitch>
<duration>12</duration>
<tie type="start"/>
<type>eighth</type>
<stem>up</stem>
<beam number="1">continue</beam>
<notations>
<tied type="start"/>
</notations>
<lyric number="1">
<syllabic>begin</syllabic>
<text>vi</text>
</lyric>
<lyric number="2">
<syllabic>begin</syllabic>
<text>l'a</text>
</lyric>
<lyric number="3">
<syllabic>single</syllabic>
<text>leur</text>
</lyric>
</note>
<note>
<pitch>
<step>F</step>
<octave>4</octave>
</pitch>
<duration>12</duration>
<tie type="stop"/>
<type>eighth</type>
<notations>
<tied type="stop"/>
</notations>
</note>
<note>
<pitch>
<step>E</step>
<octave>4</octave>
</pitch>
<duration>24</duration>
<type>quarter</type>
<lyric number="1">
<syllabic>middle</syllabic>
<text>si</text>
</lyric>
<lyric number="2">
<syllabic>middle</syllabic>
<text>do</text>
</lyric>
<lyric number="3">
<syllabic>begin</syllabic>
<text>che</text>
</lyric>
</note>
<note>
<pitch>
<step>D</step>
<octave>4</octave>
</pitch>
<duration>12</duration>
<tie type="start"/>
<type>eighth</type>
<notations>
<tied type="start"/>
</notations>
<lyric number="1">
<syllabic>end</syllabic>
<text>ter.</text>
</lyric>
<lyric number="2">
<syllabic>end</syllabic>
<text>rer.</text>
</lyric>
<lyric number="3">
<syllabic>end</syllabic>
<text>min.</text>
</lyric>
</note>
</measure>
<measure number="18">
<note>
<pitch>
<step>D</step>
<octave>4</octave>
</pitch>
<duration>48</duration>
<tie type="stop"/>
<type>half</type>
<notations>
<tied type="stop"/>
</notations>
</note>
<note>
<rest/>
<duration>48</duration>
<type>half</type>
</note>
</measure>
<measure number="19">
<note>
<pitch>
<step>E</step>
<octave>4</octave>
</pitch>
<duration>48</duration>
<type>half</type>
<lyric number="1">
<syllabic>single</syllabic>
<text>Un</text>
</lyric>
</note>
<note>
<pitch>
<step>G</step>
<octave>4</octave>
</pitch>
<duration>48</duration>
<type>half</type>
<lyric number="1">
<syllabic>begin</syllabic>
<text>en</text>
</lyric>
</note>
</measure>
<measure number="20">
<note>
<pitch>
<step>B</step>
<octave>4</octave>
</pitch>
<duration>72</duration>
<type>half</type>
<dot/>
<lyric number="1">
<syllabic>end</syllabic>
<text>fant</text>
</lyric>
</note>
<note>
<pitch>
<step>C</step>
<octave>5</octave>
</pitch>
<duration>24</duration>
<type>quarter</type>
<lyric number="1">
<syllabic>single</syllabic>
<text>si</text>
</lyric>
</note>
</measure>
<measure number="21">
<note>
<pitch>
<step>B</step>
<octave>4</octave>
</pitch>
<duration>24</duration>
<type>quarter</type>
<notations>
<slur type="start" number="1"/>
</notations>
<lyric number="1">
<syllabic>begin</syllabic>
<text>pe</text>
</lyric>
</note>
<note>
<pitch>
<step>A</step>
<octave>4</octave>
</pitch>
<duration>12</duration>
<type>eighth</type>
<stem>up</stem>
<beam number="1">begin</beam>
<notations>
<slur type="stop" number="1"/>
</notations>
</note>
<note>
<pitch>
<step>A</step>
<octave>4</octave>
</pitch>
<duration>12</duration>
<tie type="start"/>
<type>eighth</type>
<stem>up</stem>
<beam number="1">continue</beam>
<notations>
<tied type="start"/>
</notations>
<lyric number="1">
<syllabic>end</syllabic>
<text>tit,</text>
</lyric>
</note>
<note>
<pitch>
<step>A</step>
<octave>4</octave>
</pitch>
<duration>24</duration>
<tie type="stop"/>
<type>quarter</type>
<notations>
<tied type="stop"/>
</notations>
</note>
<note>
<pitch>
<step>E</step>
<octave>4</octave>
</pitch>
<duration>24</duration>
<type>quarter</type>
<lyric number="1">
<syllabic>single</syllabic>
<text>né</text>
</lyric>
</note>
</measure>
<measure number="22">
<note>
<pitch>
<step>G</step>
<octave>4</octave>
</pitch>
<duration>24</duration>
<type>quarter</type>
<lyric number="1">
<syllabic>single</syllabic>
<text>dans</text>
</lyric>
</note>
<note>
<pitch>
<step>F</step>
<octave>4</octave>
</pitch>
<duration>12</duration>
<type>eighth</type>
<stem>up</stem>
<beam number="1">begin</beam>
<lyric number="1">
<syllabic>single</syllabic>
<text>une</text>
</lyric>
</note>
<note>
<pitch>
<step>F</step>
<octave>4</octave>
</pitch>
<duration>12</duration>
<tie type="start"/>
<type>eighth</type>
<stem>up</stem>
<beam number="1">continue</beam>
<notations>
<tied type="start"/>
</notations>
<lyric number="1">
<syllabic>begin</syllabic>
<text>som</text>
</lyric>
</note>
<note>
<pitch>
<step>F</step>
<octave>4</octave>
</pitch>
<duration>12</duration>
<tie type="stop"/>
<type>eighth</type>
<notations>
<tied type="stop"/>
</notations>
</note>
<note>
<pitch>
<step>E</step>
<octave>4</octave>
</pitch>
<duration>24</duration>
<type>quarter</type>
<lyric number="1">
<syllabic>end</syllabic>
<text>bre</text>
</lyric>
</note>
<note>
<pitch>
<step>E</step>
<octave>4</octave>
</pitch>
<duration>12</duration>
<tie type="start"/>
<type>eighth</type>
<notations>
<tied type="start"/>
</notations>
<lyric number="1">
<syllabic>single</syllabic>
<text>nuit,</text>
</lyric>
</note>
</measure>
<measure number="23">
<note>
<pitch>
<step>E</step>
<octave>4</octave>
</pitch>
<duration>72</duration>
<tie type="stop"/>
<type>half</type>
<dot/>
<notations>
<tied type="stop"/>
</notations>
</note>
<note>
<pitch>
<step>E</step>
<octave>4</octave>
</pitch>
<duration>24</duration>
<type>quarter</type>
<lyric number="1">
<syllabic>begin</syllabic>
<text>Se</text>
</lyric>
</note>
</measure>
<measure number="24">
<note>
<pitch>
<step>G</step>
<octave>4</octave>
</pitch>
<duration>24</duration>
<type>quarter</type>
<lyric number="1">
<syllabic>end</syllabic>
<text>ra</text>
</lyric>
</note>
<note>
<pitch>
<step>F</step>
<octave>4</octave>
</pitch>
<duration>12</duration>
<type>eighth</type>
<stem>up</stem>
<beam number="1">begin</beam>
<lyric number="1">
<syllabic>begin</syllabic>
<text>no</text>
</lyric>
</note>
<note>
<pitch>
<step>F</step>
<octave>4</octave>
</pitch>
<duration>12</duration>
<tie type="start"/>
<type>eighth</type>
<stem>up</stem>
<beam number="1">continue</beam>
<notations>
<tied type="start"/>
</notations>
<lyric number="1">
<syllabic>end</syllabic>
<text>tre</text>
</lyric>
</note>
<note>
<pitch>
<step>F</step>
<octave>4</octave>
</pitch>
<duration>12</duration>
<tie type="stop"/>
<type>eighth</type>
<notations>
<tied type="stop"/>
</notations>
</note>
<note>
<pitch>
<step>E</step>
<octave>4</octave>
</pitch>
<duration>24</duration>
<type>quarter</type>
<lyric number="1">
<syllabic>begin</syllabic>
<text>Sau</text>
</lyric>
</note>
<note>
<pitch>
<step>E</step>
<octave>4</octave>
</pitch>
<duration>12</duration>
<tie type="start"/>
<type>eighth</type>
<notations>
<tied type="start"/>
</notations>
<lyric number="1">
<syllabic>end</syllabic>
<text>veur,</text>
</lyric>
</note>
</measure>
<measure number="25">
<note>
<pitch>
<step>E</step>
<octave>4</octave>
</pitch>
<duration>48</duration>
<tie type="stop"/>
<type>half</type>
<notations>
<tied type="stop"/>
</notations>
</note>
<note>
<pitch>
<step>E</step>
<octave>4</octave>
</pitch>
<duration>16</duration>
<type>quarter</type>
<time-modification>
<actual-notes>3</actual-notes>
<normal-notes>2</normal-notes>
</time-modification>
<stem>up</stem>
<notations>
<tuplet type="start" placement="above"/>
</notations>
<lyric number="1">
<syllabic>single</syllabic>
<text>il</text>
</lyric>
</note>
<note>
<pitch>
<step>F</step>
<octave>4</octave>
</pitch>
<duration>16</duration>
<type>quarter</type>
<time-modification>
<actual-notes>3</actual-notes>
<normal-notes>2</normal-notes>
</time-modification>
<stem>up</stem>
<notations/>
<lyric number="1">
<syllabic>begin</syllabic>
<text>chan</text>
</lyric>
</note>
<note>
<pitch>
<step>G</step>
<octave>4</octave>
</pitch>
<duration>16</duration>
<type>quarter</type>
<time-modification>
<actual-notes>3</actual-notes>
<normal-notes>2</normal-notes>
</time-modification>
<stem>up</stem>
<notations>
<tuplet type="stop" placement="above"/>
</notations>
<lyric number="1">
<syllabic>middle</syllabic>
<text>ge</text>
</lyric>
</note>
</measure>
<measure number="26">
<note>
<pitch>
<step>F</step>
<octave>4</octave>
</pitch>
<duration>72</duration>
<type>half</type>
<dot/>
<lyric number="1">
<syllabic>end</syllabic>
<text>ra</text>
</lyric>
</note>
<note>
<pitch>
<step>F</step>
<octave>4</octave>
</pitch>
<duration>24</duration>
<type>quarter</type>
<lyric number="1">
<syllabic>single</syllabic>
<text>nos</text>
</lyric>
</note>
</measure>
<measure number="27">
<note>
<pitch>
<step>F</step>
<octave>4</octave>
</pitch>
<duration>48</duration>
<type>half</type>
<notations>
<slur type="start" number="1"/>
</notations>
<lyric number="1">
<syllabic>single</syllabic>
<text>cœurs.</text>
</lyric>
</note>
<note>
<pitch>
<step>E</step>
<octave>4</octave>
</pitch>
<duration>48</duration>
<type>half</type>
<notations>
<slur type="stop" number="1"/>
</notations>
</note>
<barline location="right">
<bar-style>light-heavy</bar-style>
<repeat direction="backward" times="3"/>
</barline>
<barline location="right">
<bar-style>light-heavy</bar-style>
</barline>
</measure>
</part>
</score-partwise>
