<?xml version="1.0" encoding="UTF-8" standalone='no'?>
<!DOCTYPE score-partwise PUBLIC "-//Recordare//DTD MusicXML 1.0 Partwise//EN" "http://www.musicxml.org/dtds/partwise.dtd">
<score-partwise>
<work>
<work-title>Pas de plus grand cadeau</work-title>
</work>
<identification>
<creator type="transcriber">Jay Stocker</creator>
<rights>© 2009, 2011 Group Publishing, Inc.</rights>
<encoding>
<software>Noteworthy Composer</software>
<encoding-date>2014-08-28</encoding-date>
</encoding>
</identification>
<part-list>
<score-part id="P1">
<part-name>Mélodie</part-name>
<score-instrument id="P1-I1">
<instrument-name>String Ensemble 1</instrument-name>
</score-instrument>
<midi-instrument id="P1-I1">
<midi-channel>1</midi-channel>
<midi-program>50</midi-program>
</midi-instrument>
</score-part>
</part-list>
<part id="P1">
<measure number="1">
<attributes>
<divisions>16</divisions>
</attributes>
<attributes>
<clef>
<sign>G</sign>
<line>2</line>
</clef>
</attributes>
<attributes>
<time>
<beats>4</beats>
<beat-type>4</beat-type>
</time>
</attributes>
<direction>
<direction-type>
<metronome parentheses="no">
<beat-unit>quarter</beat-unit>
<per-minute>80</per-minute>
</metronome>
</direction-type>
<sound tempo="80"/>
</direction>
<barline location="left">
<bar-style>heavy-light</bar-style>
<repeat direction="forward"/>
</barline>
<note>
<rest/>
<duration>4</duration>
<type>16th</type>
</note>
<note>
<pitch>
<step>D</step>
<octave>4</octave>
</pitch>
<duration>4</duration>
<type>16th</type>
<stem>up</stem>
<beam number="1">begin</beam>
<lyric number="1">
<syllabic>single</syllabic>
<text>Il</text>
</lyric>
</note>
<note>
<pitch>
<step>D</step>
<octave>4</octave>
</pitch>
<duration>4</duration>
<type>16th</type>
<stem>up</stem>
<beam number="1">end</beam>
<lyric number="1">
<syllabic>single</syllabic>
<text>n'y a</text>
</lyric>
</note>
<note>
<pitch>
<step>E</step>
<octave>4</octave>
</pitch>
<duration>4</duration>
<type>16th</type>
<stem>up</stem>
<beam number="1">continue</beam>
<lyric number="1">
<syllabic>single</syllabic>
<text>pas</text>
</lyric>
</note>
<note>
<pitch>
<step>F</step>
<octave>4</octave>
</pitch>
<duration>8</duration>
<type>eighth</type>
<stem>up</stem>
<beam number="1">begin</beam>
<lyric number="1">
<syllabic>single</syllabic>
<text>de</text>
</lyric>
</note>
<note>
<pitch>
<step>D</step>
<octave>4</octave>
</pitch>
<duration>8</duration>
<type>eighth</type>
<stem>up</stem>
<beam number="1">continue</beam>
<lyric number="1">
<syllabic>single</syllabic>
<text>plus</text>
</lyric>
</note>
<note>
<pitch>
<step>F</step>
<octave>4</octave>
</pitch>
<duration>8</duration>
<type>eighth</type>
<stem>up</stem>
<beam number="1">begin</beam>
<lyric number="1">
<syllabic>single</syllabic>
<text>grand</text>
</lyric>
</note>
<note>
<pitch>
<step>F</step>
<octave>4</octave>
</pitch>
<duration>8</duration>
<type>eighth</type>
<stem>up</stem>
<beam number="1">continue</beam>
<lyric number="1">
<syllabic>begin</syllabic>
<text>ca</text>
</lyric>
</note>
<note>
<pitch>
<step>A</step>
<octave>4</octave>
</pitch>
<duration>16</duration>
<type>quarter</type>
<lyric number="1">
<syllabic>end</syllabic>
<text>deau</text>
</lyric>
</note>
</measure>
<measure number="2">
<note>
<rest/>
<duration>8</duration>
<type>eighth</type>
</note>
<note>
<pitch>
<step>C</step>
<octave>4</octave>
</pitch>
<duration>4</duration>
<type>16th</type>
<stem>up</stem>
<beam number="1">begin</beam>
<lyric number="1">
<syllabic>single</syllabic>
<text>Que</text>
</lyric>
</note>
<note>
<pitch>
<step>D</step>
<octave>4</octave>
</pitch>
<duration>4</duration>
<type>16th</type>
<stem>up</stem>
<beam number="1">continue</beam>
<lyric number="1">
<syllabic>begin</syllabic>
<text>l'a</text>
</lyric>
</note>
<note>
<pitch>
<step>E</step>
<octave>4</octave>
</pitch>
<duration>8</duration>
<type>eighth</type>
<stem>up</stem>
<beam number="1">begin</beam>
<lyric number="1">
<syllabic>end</syllabic>
<text>mour</text>
</lyric>
</note>
<note>
<pitch>
<step>C</step>
<octave>4</octave>
</pitch>
<duration>8</duration>
<type>eighth</type>
<stem>up</stem>
<beam number="1">continue</beam>
<lyric number="1">
<syllabic>single</syllabic>
<text>de</text>
</lyric>
</note>
<note>
<pitch>
<step>E</step>
<octave>4</octave>
</pitch>
<duration>8</duration>
<type>eighth</type>
<stem>up</stem>
<beam number="1">begin</beam>
<lyric number="1">
<syllabic>single</syllabic>
<text>Dieu</text>
</lyric>
</note>
<note>
<pitch>
<step>E</step>
<octave>4</octave>
</pitch>
<duration>8</duration>
<type>eighth</type>
<stem>up</stem>
<beam number="1">continue</beam>
<lyric number="1">
<syllabic>single</syllabic>
<text>pour</text>
</lyric>
</note>
<note>
<pitch>
<step>A</step>
<octave>4</octave>
</pitch>
<duration>16</duration>
<type>quarter</type>
<lyric number="1">
<syllabic>single</syllabic>
<text>nous.</text>
</lyric>
</note>
</measure>
<measure number="3">
<note>
<rest/>
<duration>8</duration>
<type>eighth</type>
</note>
<note>
<pitch>
<step>B</step>
<octave>3</octave>
</pitch>
<duration>4</duration>
<type>16th</type>
<stem>up</stem>
<beam number="1">begin</beam>
<lyric number="1">
<syllabic>single</syllabic>
<text>On</text>
</lyric>
</note>
<note>
<pitch>
<step>C</step>
<octave>4</octave>
</pitch>
<duration>4</duration>
<type>16th</type>
<stem>up</stem>
<beam number="1">continue</beam>
<lyric number="1">
<syllabic>single</syllabic>
<text>ne</text>
</lyric>
</note>
<note>
<pitch>
<step>D</step>
<octave>4</octave>
</pitch>
<duration>8</duration>
<type>eighth</type>
<stem>up</stem>
<beam number="1">begin</beam>
<lyric number="1">
<syllabic>single</syllabic>
<text>peut</text>
</lyric>
</note>
<note>
<pitch>
<step>D</step>
<octave>4</octave>
</pitch>
<duration>8</duration>
<type>eighth</type>
<stem>up</stem>
<beam number="1">continue</beam>
<lyric number="1">
<syllabic>single</syllabic>
<text>le</text>
</lyric>
</note>
<note>
<pitch>
<step>D</step>
<octave>4</octave>
</pitch>
<duration>8</duration>
<type>eighth</type>
<stem>up</stem>
<beam number="1">begin</beam>
<lyric number="1">
<syllabic>begin</syllabic>
<text>mé</text>
</lyric>
</note>
<note>
<pitch>
<step>D</step>
<octave>4</octave>
</pitch>
<duration>8</duration>
<type>eighth</type>
<stem>up</stem>
<beam number="1">continue</beam>
<lyric number="1">
<syllabic>middle</syllabic>
<text>ri</text>
</lyric>
</note>
<note>
<pitch>
<step>E</step>
<octave>4</octave>
</pitch>
<duration>8</duration>
<type>eighth</type>
<stem>up</stem>
<beam number="1">begin</beam>
<lyric number="1">
<syllabic>end</syllabic>
<text>ter,</text>
</lyric>
</note>
<note>
<pitch>
<step>F</step>
<octave>4</octave>
</pitch>
<duration>8</duration>
<type>eighth</type>
<stem>up</stem>
<beam number="1">continue</beam>
<lyric number="1">
<syllabic>single</syllabic>
<text>Ni</text>
</lyric>
</note>
</measure>
<measure number="4">
<note>
<pitch>
<step>E</step>
<octave>4</octave>
</pitch>
<duration>8</duration>
<type>eighth</type>
<stem>up</stem>
<beam number="1">begin</beam>
<lyric number="1">
<syllabic>begin</syllabic>
<text>es</text>
</lyric>
</note>
<note>
<pitch>
<step>D</step>
<octave>4</octave>
</pitch>
<duration>8</duration>
<type>eighth</type>
<stem>up</stem>
<beam number="1">continue</beam>
<lyric number="1">
<syllabic>middle</syllabic>
<text>say</text>
</lyric>
</note>
<note>
<pitch>
<step>C</step>
<octave>4</octave>
</pitch>
<duration>8</duration>
<type>eighth</type>
<stem>up</stem>
<beam number="1">begin</beam>
<lyric number="1">
<syllabic>end</syllabic>
<text>er</text>
</lyric>
</note>
<note>
<pitch>
<step>D</step>
<octave>4</octave>
</pitch>
<duration>8</duration>
<type>eighth</type>
<stem>up</stem>
<beam number="1">continue</beam>
<lyric number="1">
<syllabic>single</syllabic>
<text>de</text>
</lyric>
</note>
<note>
<pitch>
<step>E</step>
<octave>4</octave>
</pitch>
<duration>8</duration>
<type>eighth</type>
<stem>up</stem>
<beam number="1">begin</beam>
<lyric number="1">
<syllabic>single</syllabic>
<text>le</text>
</lyric>
</note>
<note>
<pitch>
<step>E</step>
<octave>4</octave>
</pitch>
<duration>8</duration>
<type>eighth</type>
<stem>up</stem>
<beam number="1">continue</beam>
<lyric number="1">
<syllabic>begin</syllabic>
<text>ga</text>
</lyric>
</note>
<note>
<pitch>
<step>F</step>
<octave>4</octave>
</pitch>
<duration>8</duration>
<type>eighth</type>
<stem>up</stem>
<beam number="1">begin</beam>
<notations>
<slur type="start" number="1"/>
</notations>
<lyric number="1">
<syllabic>end</syllabic>
<text>gner.</text>
</lyric>
</note>
<note>
<pitch>
<step>G</step>
<octave>4</octave>
</pitch>
<duration>8</duration>
<type>eighth</type>
<stem>up</stem>
<beam number="1">continue</beam>
<notations>
<slur type="stop" number="1"/>
</notations>
</note>
</measure>
<measure number="5">
<note>
<rest/>
<duration>4</duration>
<type>16th</type>
</note>
<note>
<pitch>
<step>D</step>
<octave>4</octave>
</pitch>
<duration>4</duration>
<type>16th</type>
<stem>up</stem>
<beam number="1">begin</beam>
<lyric number="1">
<syllabic>single</syllabic>
<text>Il</text>
</lyric>
</note>
<note>
<pitch>
<step>D</step>
<octave>4</octave>
</pitch>
<duration>4</duration>
<type>16th</type>
<stem>up</stem>
<beam number="1">end</beam>
<lyric number="1">
<syllabic>single</syllabic>
<text>n'y a</text>
</lyric>
</note>
<note>
<pitch>
<step>E</step>
<octave>4</octave>
</pitch>
<duration>4</duration>
<type>16th</type>
<stem>up</stem>
<beam number="1">continue</beam>
<lyric number="1">
<syllabic>single</syllabic>
<text>pas</text>
</lyric>
</note>
<note>
<pitch>
<step>F</step>
<octave>4</octave>
</pitch>
<duration>8</duration>
<type>eighth</type>
<stem>up</stem>
<beam number="1">begin</beam>
<lyric number="1">
<syllabic>single</syllabic>
<text>de</text>
</lyric>
</note>
<note>
<pitch>
<step>D</step>
<octave>4</octave>
</pitch>
<duration>8</duration>
<type>eighth</type>
<stem>up</stem>
<beam number="1">continue</beam>
<lyric number="1">
<syllabic>single</syllabic>
<text>plus</text>
</lyric>
</note>
<note>
<pitch>
<step>F</step>
<octave>4</octave>
</pitch>
<duration>8</duration>
<type>eighth</type>
<stem>up</stem>
<beam number="1">begin</beam>
<lyric number="1">
<syllabic>single</syllabic>
<text>grand</text>
</lyric>
</note>
<note>
<pitch>
<step>F</step>
<octave>4</octave>
</pitch>
<duration>8</duration>
<type>eighth</type>
<stem>up</stem>
<beam number="1">continue</beam>
<lyric number="1">
<syllabic>begin</syllabic>
<text>ca</text>
</lyric>
</note>
<note>
<pitch>
<step>A</step>
<octave>4</octave>
</pitch>
<duration>16</duration>
<type>quarter</type>
<lyric number="1">
<syllabic>end</syllabic>
<text>deau</text>
</lyric>
</note>
</measure>
<measure number="6">
<note>
<rest/>
<duration>8</duration>
<type>eighth</type>
</note>
<note>
<pitch>
<step>C</step>
<octave>4</octave>
</pitch>
<duration>4</duration>
<type>16th</type>
<stem>up</stem>
<beam number="1">begin</beam>
<lyric number="1">
<syllabic>single</syllabic>
<text>Que</text>
</lyric>
</note>
<note>
<pitch>
<step>D</step>
<octave>4</octave>
</pitch>
<duration>4</duration>
<type>16th</type>
<stem>up</stem>
<beam number="1">continue</beam>
<lyric number="1">
<syllabic>begin</syllabic>
<text>l'a</text>
</lyric>
</note>
<note>
<pitch>
<step>E</step>
<octave>4</octave>
</pitch>
<duration>8</duration>
<type>eighth</type>
<stem>up</stem>
<beam number="1">begin</beam>
<lyric number="1">
<syllabic>end</syllabic>
<text>mour</text>
</lyric>
</note>
<note>
<pitch>
<step>C</step>
<octave>4</octave>
</pitch>
<duration>8</duration>
<type>eighth</type>
<stem>up</stem>
<beam number="1">continue</beam>
<lyric number="1">
<syllabic>single</syllabic>
<text>de</text>
</lyric>
</note>
<note>
<pitch>
<step>E</step>
<octave>4</octave>
</pitch>
<duration>8</duration>
<type>eighth</type>
<stem>up</stem>
<beam number="1">begin</beam>
<lyric number="1">
<syllabic>single</syllabic>
<text>Dieu</text>
</lyric>
</note>
<note>
<pitch>
<step>E</step>
<octave>4</octave>
</pitch>
<duration>8</duration>
<type>eighth</type>
<stem>up</stem>
<beam number="1">continue</beam>
<lyric number="1">
<syllabic>single</syllabic>
<text>pour</text>
</lyric>
</note>
<note>
<pitch>
<step>A</step>
<octave>4</octave>
</pitch>
<duration>16</duration>
<type>quarter</type>
<lyric number="1">
<syllabic>single</syllabic>
<text>nous.</text>
</lyric>
</note>
</measure>
<measure number="7">
<note>
<rest/>
<duration>8</duration>
<type>eighth</type>
</note>
<note>
<pitch>
<step>B</step>
<octave>3</octave>
</pitch>
<duration>4</duration>
<type>16th</type>
<stem>up</stem>
<beam number="1">begin</beam>
<lyric number="1">
<syllabic>single</syllabic>
<text>Nous</text>
</lyric>
</note>
<note>
<pitch>
<step>C</step>
<octave>4</octave>
</pitch>
<duration>4</duration>
<type>16th</type>
<stem>up</stem>
<beam number="1">continue</beam>
<lyric number="1">
<syllabic>begin</syllabic>
<text>vou</text>
</lyric>
</note>
<note>
<pitch>
<step>D</step>
<octave>4</octave>
</pitch>
<duration>8</duration>
<type>eighth</type>
<stem>up</stem>
<beam number="1">begin</beam>
<lyric number="1">
<syllabic>end</syllabic>
<text>lons</text>
</lyric>
</note>
<note>
<pitch>
<step>D</step>
<octave>4</octave>
</pitch>
<duration>8</duration>
<type>eighth</type>
<stem>up</stem>
<beam number="1">continue</beam>
<lyric number="1">
<syllabic>begin</syllabic>
<text>chan</text>
</lyric>
</note>
<note>
<pitch>
<step>D</step>
<octave>4</octave>
</pitch>
<duration>8</duration>
<type>eighth</type>
<stem>up</stem>
<beam number="1">begin</beam>
<lyric number="1">
<syllabic>end</syllabic>
<text>ter</text>
</lyric>
</note>
<note>
<pitch>
<step>D</step>
<octave>4</octave>
</pitch>
<duration>8</duration>
<type>eighth</type>
<stem>up</stem>
<beam number="1">continue</beam>
<lyric number="1">
<syllabic>begin</syllabic>
<text>tou</text>
</lyric>
</note>
<note>
<pitch>
<step>E</step>
<octave>4</octave>
</pitch>
<duration>8</duration>
<type>eighth</type>
<stem>up</stem>
<beam number="1">begin</beam>
<lyric number="1">
<syllabic>end</syllabic>
<text>jours,</text>
</lyric>
</note>
<note>
<pitch>
<step>F</step>
<octave>4</octave>
</pitch>
<duration>8</duration>
<type>eighth</type>
<stem>up</stem>
<beam number="1">continue</beam>
<lyric number="1">
<syllabic>begin</syllabic>
<text>Mer</text>
</lyric>
</note>
</measure>
<measure number="8">
<barline location="left">
<ending type="start" number="1"/>
</barline>
<attributes>
<time>
<beats>2</beats>
<beat-type>4</beat-type>
</time>
</attributes>
<note>
<pitch>
<step>E</step>
<octave>4</octave>
</pitch>
<duration>8</duration>
<type>eighth</type>
<stem>up</stem>
<beam number="1">begin</beam>
<lyric number="1">
<syllabic>end</syllabic>
<text>ci</text>
</lyric>
</note>
<note>
<pitch>
<step>D</step>
<octave>4</octave>
</pitch>
<duration>8</duration>
<type>eighth</type>
<stem>up</stem>
<beam number="1">continue</beam>
<lyric number="1">
<syllabic>single</syllabic>
<text>pour</text>
</lyric>
</note>
<note>
<pitch>
<step>B</step>
<octave>3</octave>
</pitch>
<duration>8</duration>
<type>eighth</type>
<stem>up</stem>
<beam number="1">begin</beam>
<lyric number="1">
<syllabic>single</syllabic>
<text>ton</text>
</lyric>
</note>
<note>
<pitch>
<step>C</step>
<octave>4</octave>
</pitch>
<duration>8</duration>
<type>eighth</type>
<stem>up</stem>
<beam number="1">continue</beam>
<lyric number="1">
<syllabic>begin</syllabic>
<text>a</text>
</lyric>
</note>
</measure>
<measure number="9">
<attributes>
<time>
<beats>4</beats>
<beat-type>4</beat-type>
</time>
</attributes>
<note>
<pitch>
<step>A</step>
<octave>3</octave>
</pitch>
<duration>16</duration>
<type>quarter</type>
<lyric number="1">
<syllabic>end</syllabic>
<text>mour !</text>
</lyric>
</note>
<note>
<rest/>
<duration>16</duration>
<type>quarter</type>
</note>
<note>
<rest/>
<duration>32</duration>
<type>half</type>
</note>
</measure>
<measure number="10">
<note>
<rest/>
<duration>64</duration>
<type>whole</type>
</note>
<barline location="right">
<bar-style>light-heavy</bar-style>
<ending type="stop" number="1"/>
<repeat direction="backward"/>
</barline>
</measure>
<measure number="11">
<barline location="left">
<ending type="start" number="2"/>
</barline>
<note>
<pitch>
<step>E</step>
<octave>4</octave>
</pitch>
<duration>8</duration>
<type>eighth</type>
<stem>up</stem>
<beam number="1">begin</beam>
<lyric number="1">
<syllabic>single</syllabic>
<text>ci</text>
</lyric>
</note>
<note>
<pitch>
<step>D</step>
<octave>4</octave>
</pitch>
<duration>8</duration>
<type>eighth</type>
<stem>up</stem>
<beam number="1">continue</beam>
<lyric number="1">
<syllabic>single</syllabic>
<text>pour</text>
</lyric>
</note>
<note>
<pitch>
<step>B</step>
<octave>3</octave>
</pitch>
<duration>8</duration>
<type>eighth</type>
<stem>up</stem>
<beam number="1">begin</beam>
<lyric number="1">
<syllabic>single</syllabic>
<text>ton</text>
</lyric>
</note>
<note>
<pitch>
<step>C</step>
<octave>4</octave>
</pitch>
<duration>8</duration>
<type>eighth</type>
<stem>up</stem>
<beam number="1">continue</beam>
<lyric number="1">
<syllabic>begin</syllabic>
<text>a</text>
</lyric>
</note>
<note>
<pitch>
<step>A</step>
<octave>3</octave>
</pitch>
<duration>16</duration>
<type>quarter</type>
<lyric number="1">
<syllabic>end</syllabic>
<text>mour !</text>
</lyric>
</note>
<note>
<rest/>
<duration>16</duration>
<type>quarter</type>
</note>
</measure>
<measure number="12">
<note>
<pitch>
<step>F</step>
<octave>4</octave>
</pitch>
<duration>12</duration>
<type>eighth</type>
<dot/>
<stem>up</stem>
<beam number="1">begin</beam>
<lyric number="1">
<syllabic>begin</syllabic>
<text>Oh</text>
</lyric>
</note>
<note>
<pitch>
<step>E</step>
<octave>4</octave>
</pitch>
<duration>4</duration>
<type>16th</type>
<stem>up</stem>
<beam number="1">continue</beam>
<lyric number="1">
<syllabic>middle</syllabic>
<text>oh</text>
</lyric>
</note>
<note>
<pitch>
<step>F</step>
<octave>4</octave>
</pitch>
<duration>12</duration>
<type>eighth</type>
<dot/>
<stem>up</stem>
<beam number="1">begin</beam>
<lyric number="1">
<syllabic>middle</syllabic>
<text>oh</text>
</lyric>
</note>
<note>
<pitch>
<step>E</step>
<octave>4</octave>
</pitch>
<duration>4</duration>
<type>16th</type>
<stem>up</stem>
<beam number="1">continue</beam>
<lyric number="1">
<syllabic>middle</syllabic>
<text>oh</text>
</lyric>
</note>
<note>
<pitch>
<step>F</step>
<octave>4</octave>
</pitch>
<duration>4</duration>
<type>16th</type>
<stem>up</stem>
<beam number="1">begin</beam>
<lyric number="1">
<syllabic>middle</syllabic>
<text>oh</text>
</lyric>
</note>
<note>
<pitch>
<step>E</step>
<octave>4</octave>
</pitch>
<duration>4</duration>
<type>16th</type>
<stem>up</stem>
<beam number="1">end</beam>
<lyric number="1">
<syllabic>middle</syllabic>
<text>oh</text>
</lyric>
</note>
<note>
<pitch>
<step>F</step>
<octave>4</octave>
</pitch>
<duration>4</duration>
<type>16th</type>
<stem>up</stem>
<beam number="1">end</beam>
<lyric number="1">
<syllabic>middle</syllabic>
<text>oh</text>
</lyric>
</note>
<note>
<pitch>
<step>E</step>
<octave>4</octave>
</pitch>
<duration>4</duration>
<type>16th</type>
<stem>up</stem>
<beam number="1">continue</beam>
<lyric number="1">
<syllabic>middle</syllabic>
<text>oh</text>
</lyric>
</note>
<note>
<pitch>
<step>F</step>
<octave>4</octave>
</pitch>
<duration>8</duration>
<type>eighth</type>
<lyric number="1">
<syllabic>end</syllabic>
<text>oh,</text>
</lyric>
</note>
<direction>
<direction-type>
<words relative-y="80">(crié)</words>
</direction-type>
</direction>
<note>
<pitch>
<step>A</step>
<octave>4</octave>
</pitch>
<duration>8</duration>
<type>eighth</type>
<lyric number="1">
<syllabic>single</syllabic>
<text>yeah !</text>
</lyric>
</note>
</measure>
<measure number="13">
<note>
<pitch>
<step>E</step>
<octave>4</octave>
</pitch>
<duration>12</duration>
<type>eighth</type>
<dot/>
<stem>up</stem>
<beam number="1">begin</beam>
<lyric number="1">
<syllabic>begin</syllabic>
<text>Oh</text>
</lyric>
</note>
<note>
<pitch>
<step>D</step>
<alter>1</alter>
<octave>4</octave>
</pitch>
<duration>4</duration>
<type>16th</type>
<accidental>sharp</accidental>
<stem>up</stem>
<beam number="1">continue</beam>
<lyric number="1">
<syllabic>middle</syllabic>
<text>oh</text>
</lyric>
</note>
<note>
<pitch>
<step>E</step>
<octave>4</octave>
</pitch>
<duration>12</duration>
<type>eighth</type>
<dot/>
<stem>up</stem>
<beam number="1">begin</beam>
<lyric number="1">
<syllabic>middle</syllabic>
<text>oh</text>
</lyric>
</note>
<note>
<pitch>
<step>D</step>
<alter>1</alter>
<octave>4</octave>
</pitch>
<duration>4</duration>
<type>16th</type>
<stem>up</stem>
<beam number="1">continue</beam>
<lyric number="1">
<syllabic>middle</syllabic>
<text>oh</text>
</lyric>
</note>
<note>
<pitch>
<step>E</step>
<octave>4</octave>
</pitch>
<duration>4</duration>
<type>16th</type>
<stem>up</stem>
<beam number="1">begin</beam>
<lyric number="1">
<syllabic>middle</syllabic>
<text>oh</text>
</lyric>
</note>
<note>
<pitch>
<step>D</step>
<alter>1</alter>
<octave>4</octave>
</pitch>
<duration>4</duration>
<type>16th</type>
<stem>up</stem>
<beam number="1">end</beam>
<lyric number="1">
<syllabic>middle</syllabic>
<text>oh</text>
</lyric>
</note>
<note>
<pitch>
<step>E</step>
<octave>4</octave>
</pitch>
<duration>4</duration>
<type>16th</type>
<stem>up</stem>
<beam number="1">end</beam>
<lyric number="1">
<syllabic>middle</syllabic>
<text>oh</text>
</lyric>
</note>
<note>
<pitch>
<step>D</step>
<alter>1</alter>
<octave>4</octave>
</pitch>
<duration>4</duration>
<type>16th</type>
<stem>up</stem>
<beam number="1">continue</beam>
<lyric number="1">
<syllabic>middle</syllabic>
<text>oh</text>
</lyric>
</note>
<note>
<pitch>
<step>E</step>
<octave>4</octave>
</pitch>
<duration>8</duration>
<type>eighth</type>
<lyric number="1">
<syllabic>end</syllabic>
<text>oh,</text>
</lyric>
</note>
<direction>
<direction-type>
<words relative-y="80">(crié)</words>
</direction-type>
</direction>
<note>
<pitch>
<step>A</step>
<octave>4</octave>
</pitch>
<duration>8</duration>
<type>eighth</type>
<lyric number="1">
<syllabic>single</syllabic>
<text>yeah !</text>
</lyric>
</note>
</measure>
<measure number="14">
<note>
<pitch>
<step>D</step>
<alter>1</alter>
<octave>4</octave>
</pitch>
<duration>12</duration>
<type>eighth</type>
<dot/>
<accidental>sharp</accidental>
<stem>up</stem>
<beam number="1">begin</beam>
<lyric number="1">
<syllabic>begin</syllabic>
<text>Oh</text>
</lyric>
</note>
<note>
<pitch>
<step>D</step>
<octave>4</octave>
</pitch>
<duration>4</duration>
<type>16th</type>
<accidental>natural</accidental>
<stem>up</stem>
<beam number="1">continue</beam>
<lyric number="1">
<syllabic>middle</syllabic>
<text>oh</text>
</lyric>
</note>
<note>
<pitch>
<step>D</step>
<alter>1</alter>
<octave>4</octave>
</pitch>
<duration>12</duration>
<type>eighth</type>
<dot/>
<accidental>sharp</accidental>
<stem>up</stem>
<beam number="1">begin</beam>
<lyric number="1">
<syllabic>middle</syllabic>
<text>oh</text>
</lyric>
</note>
<note>
<pitch>
<step>D</step>
<octave>4</octave>
</pitch>
<duration>4</duration>
<type>16th</type>
<accidental>natural</accidental>
<stem>up</stem>
<beam number="1">continue</beam>
<lyric number="1">
<syllabic>middle</syllabic>
<text>oh</text>
</lyric>
</note>
<note>
<pitch>
<step>D</step>
<alter>1</alter>
<octave>4</octave>
</pitch>
<duration>4</duration>
<type>16th</type>
<accidental>sharp</accidental>
<stem>up</stem>
<beam number="1">begin</beam>
<lyric number="1">
<syllabic>middle</syllabic>
<text>oh</text>
</lyric>
</note>
<note>
<pitch>
<step>D</step>
<octave>4</octave>
</pitch>
<duration>4</duration>
<type>16th</type>
<accidental>natural</accidental>
<stem>up</stem>
<beam number="1">end</beam>
<lyric number="1">
<syllabic>middle</syllabic>
<text>oh</text>
</lyric>
</note>
<note>
<pitch>
<step>D</step>
<alter>1</alter>
<octave>4</octave>
</pitch>
<duration>4</duration>
<type>16th</type>
<accidental>sharp</accidental>
<stem>up</stem>
<beam number="1">end</beam>
<lyric number="1">
<syllabic>middle</syllabic>
<text>oh</text>
</lyric>
</note>
<note>
<pitch>
<step>D</step>
<octave>4</octave>
</pitch>
<duration>4</duration>
<type>16th</type>
<accidental>natural</accidental>
<stem>up</stem>
<beam number="1">continue</beam>
<lyric number="1">
<syllabic>middle</syllabic>
<text>oh</text>
</lyric>
</note>
<note>
<pitch>
<step>D</step>
<alter>1</alter>
<octave>4</octave>
</pitch>
<duration>8</duration>
<type>eighth</type>
<accidental>sharp</accidental>
<lyric number="1">
<syllabic>end</syllabic>
<text>oh,</text>
</lyric>
</note>
<direction>
<direction-type>
<words relative-y="80">(crié)</words>
</direction-type>
</direction>
<note>
<pitch>
<step>E</step>
<octave>4</octave>
</pitch>
<duration>8</duration>
<type>eighth</type>
<lyric number="1">
<syllabic>single</syllabic>
<text>yeah !</text>
</lyric>
</note>
</measure>
<measure number="15">
<note>
<rest/>
<duration>64</duration>
<type>whole</type>
</note>
</measure>
<measure number="16">
<note>
<rest/>
<duration>4</duration>
<type>16th</type>
</note>
<note>
<pitch>
<step>D</step>
<octave>4</octave>
</pitch>
<duration>4</duration>
<type>16th</type>
<stem>up</stem>
<beam number="1">begin</beam>
<lyric number="1">
<syllabic>single</syllabic>
<text>Il</text>
</lyric>
</note>
<note>
<pitch>
<step>D</step>
<octave>4</octave>
</pitch>
<duration>4</duration>
<type>16th</type>
<stem>up</stem>
<beam number="1">end</beam>
<lyric number="1">
<syllabic>single</syllabic>
<text>n'y a</text>
</lyric>
</note>
<note>
<pitch>
<step>E</step>
<octave>4</octave>
</pitch>
<duration>4</duration>
<type>16th</type>
<stem>up</stem>
<beam number="1">continue</beam>
<lyric number="1">
<syllabic>single</syllabic>
<text>pas</text>
</lyric>
</note>
<note>
<pitch>
<step>F</step>
<octave>4</octave>
</pitch>
<duration>8</duration>
<type>eighth</type>
<stem>up</stem>
<beam number="1">begin</beam>
<lyric number="1">
<syllabic>single</syllabic>
<text>de</text>
</lyric>
</note>
<note>
<pitch>
<step>D</step>
<octave>4</octave>
</pitch>
<duration>8</duration>
<type>eighth</type>
<stem>up</stem>
<beam number="1">continue</beam>
<lyric number="1">
<syllabic>single</syllabic>
<text>plus</text>
</lyric>
</note>
<note>
<pitch>
<step>F</step>
<octave>4</octave>
</pitch>
<duration>8</duration>
<type>eighth</type>
<stem>up</stem>
<beam number="1">begin</beam>
<lyric number="1">
<syllabic>single</syllabic>
<text>grand</text>
</lyric>
</note>
<note>
<pitch>
<step>F</step>
<octave>4</octave>
</pitch>
<duration>8</duration>
<type>eighth</type>
<stem>up</stem>
<beam number="1">continue</beam>
<lyric number="1">
<syllabic>begin</syllabic>
<text>ca</text>
</lyric>
</note>
<note>
<pitch>
<step>A</step>
<octave>4</octave>
</pitch>
<duration>16</duration>
<type>quarter</type>
<lyric number="1">
<syllabic>end</syllabic>
<text>deau</text>
</lyric>
</note>
</measure>
<measure number="17">
<note>
<rest/>
<duration>8</duration>
<type>eighth</type>
</note>
<note>
<pitch>
<step>C</step>
<octave>4</octave>
</pitch>
<duration>4</duration>
<type>16th</type>
<stem>up</stem>
<beam number="1">begin</beam>
<lyric number="1">
<syllabic>single</syllabic>
<text>Que</text>
</lyric>
</note>
<note>
<pitch>
<step>D</step>
<octave>4</octave>
</pitch>
<duration>4</duration>
<type>16th</type>
<stem>up</stem>
<beam number="1">continue</beam>
<lyric number="1">
<syllabic>begin</syllabic>
<text>l'a</text>
</lyric>
</note>
<note>
<pitch>
<step>E</step>
<octave>4</octave>
</pitch>
<duration>8</duration>
<type>eighth</type>
<stem>up</stem>
<beam number="1">begin</beam>
<lyric number="1">
<syllabic>end</syllabic>
<text>mour</text>
</lyric>
</note>
<note>
<pitch>
<step>C</step>
<octave>4</octave>
</pitch>
<duration>8</duration>
<type>eighth</type>
<stem>up</stem>
<beam number="1">continue</beam>
<lyric number="1">
<syllabic>single</syllabic>
<text>de</text>
</lyric>
</note>
<note>
<pitch>
<step>E</step>
<octave>4</octave>
</pitch>
<duration>8</duration>
<type>eighth</type>
<stem>up</stem>
<beam number="1">begin</beam>
<lyric number="1">
<syllabic>single</syllabic>
<text>Dieu</text>
</lyric>
</note>
<note>
<pitch>
<step>E</step>
<octave>4</octave>
</pitch>
<duration>8</duration>
<type>eighth</type>
<stem>up</stem>
<beam number="1">continue</beam>
<lyric number="1">
<syllabic>single</syllabic>
<text>pour</text>
</lyric>
</note>
<note>
<pitch>
<step>A</step>
<octave>4</octave>
</pitch>
<duration>16</duration>
<type>quarter</type>
<lyric number="1">
<syllabic>single</syllabic>
<text>nous.</text>
</lyric>
</note>
</measure>
<measure number="18">
<note>
<rest/>
<duration>8</duration>
<type>eighth</type>
</note>
<note>
<pitch>
<step>B</step>
<octave>3</octave>
</pitch>
<duration>4</duration>
<type>16th</type>
<stem>up</stem>
<beam number="1">begin</beam>
<lyric number="1">
<syllabic>single</syllabic>
<text>On</text>
</lyric>
</note>
<note>
<pitch>
<step>C</step>
<octave>4</octave>
</pitch>
<duration>4</duration>
<type>16th</type>
<stem>up</stem>
<beam number="1">continue</beam>
<lyric number="1">
<syllabic>single</syllabic>
<text>ne</text>
</lyric>
</note>
<note>
<pitch>
<step>D</step>
<octave>4</octave>
</pitch>
<duration>8</duration>
<type>eighth</type>
<stem>up</stem>
<beam number="1">begin</beam>
<lyric number="1">
<syllabic>single</syllabic>
<text>peut</text>
</lyric>
</note>
<note>
<pitch>
<step>D</step>
<octave>4</octave>
</pitch>
<duration>8</duration>
<type>eighth</type>
<stem>up</stem>
<beam number="1">continue</beam>
<lyric number="1">
<syllabic>single</syllabic>
<text>le</text>
</lyric>
</note>
<note>
<pitch>
<step>D</step>
<octave>4</octave>
</pitch>
<duration>8</duration>
<type>eighth</type>
<stem>up</stem>
<beam number="1">begin</beam>
<lyric number="1">
<syllabic>begin</syllabic>
<text>mé</text>
</lyric>
</note>
<note>
<pitch>
<step>D</step>
<octave>4</octave>
</pitch>
<duration>8</duration>
<type>eighth</type>
<stem>up</stem>
<beam number="1">continue</beam>
<lyric number="1">
<syllabic>middle</syllabic>
<text>ri</text>
</lyric>
</note>
<note>
<pitch>
<step>E</step>
<octave>4</octave>
</pitch>
<duration>8</duration>
<type>eighth</type>
<stem>up</stem>
<beam number="1">begin</beam>
<lyric number="1">
<syllabic>end</syllabic>
<text>ter,</text>
</lyric>
</note>
<note>
<pitch>
<step>F</step>
<octave>4</octave>
</pitch>
<duration>8</duration>
<type>eighth</type>
<stem>up</stem>
<beam number="1">continue</beam>
<lyric number="1">
<syllabic>single</syllabic>
<text>Ni</text>
</lyric>
</note>
</measure>
<measure number="19">
<note>
<pitch>
<step>E</step>
<octave>4</octave>
</pitch>
<duration>8</duration>
<type>eighth</type>
<stem>up</stem>
<beam number="1">begin</beam>
<lyric number="1">
<syllabic>begin</syllabic>
<text>es</text>
</lyric>
</note>
<note>
<pitch>
<step>D</step>
<octave>4</octave>
</pitch>
<duration>8</duration>
<type>eighth</type>
<stem>up</stem>
<beam number="1">continue</beam>
<lyric number="1">
<syllabic>middle</syllabic>
<text>say</text>
</lyric>
</note>
<note>
<pitch>
<step>C</step>
<octave>4</octave>
</pitch>
<duration>8</duration>
<type>eighth</type>
<stem>up</stem>
<beam number="1">begin</beam>
<lyric number="1">
<syllabic>end</syllabic>
<text>er</text>
</lyric>
</note>
<note>
<pitch>
<step>D</step>
<octave>4</octave>
</pitch>
<duration>8</duration>
<type>eighth</type>
<stem>up</stem>
<beam number="1">continue</beam>
<lyric number="1">
<syllabic>single</syllabic>
<text>de</text>
</lyric>
</note>
<note>
<pitch>
<step>E</step>
<octave>4</octave>
</pitch>
<duration>8</duration>
<type>eighth</type>
<stem>up</stem>
<beam number="1">begin</beam>
<lyric number="1">
<syllabic>single</syllabic>
<text>le</text>
</lyric>
</note>
<note>
<pitch>
<step>E</step>
<octave>4</octave>
</pitch>
<duration>8</duration>
<type>eighth</type>
<stem>up</stem>
<beam number="1">continue</beam>
<lyric number="1">
<syllabic>begin</syllabic>
<text>ga</text>
</lyric>
</note>
<note>
<pitch>
<step>F</step>
<octave>4</octave>
</pitch>
<duration>8</duration>
<type>eighth</type>
<stem>up</stem>
<beam number="1">begin</beam>
<notations>
<slur type="start" number="1"/>
</notations>
<lyric number="1">
<syllabic>end</syllabic>
<text>gner.</text>
</lyric>
</note>
<note>
<pitch>
<step>G</step>
<octave>4</octave>
</pitch>
<duration>8</duration>
<type>eighth</type>
<stem>up</stem>
<beam number="1">continue</beam>
<notations>
<slur type="stop" number="1"/>
</notations>
</note>
</measure>
<measure number="20">
<note>
<rest/>
<duration>4</duration>
<type>16th</type>
</note>
<note>
<pitch>
<step>D</step>
<octave>4</octave>
</pitch>
<duration>4</duration>
<type>16th</type>
<stem>up</stem>
<beam number="1">begin</beam>
<lyric number="1">
<syllabic>single</syllabic>
<text>Il</text>
</lyric>
</note>
<note>
<pitch>
<step>D</step>
<octave>4</octave>
</pitch>
<duration>4</duration>
<type>16th</type>
<stem>up</stem>
<beam number="1">end</beam>
<lyric number="1">
<syllabic>single</syllabic>
<text>n'y a</text>
</lyric>
</note>
<note>
<pitch>
<step>E</step>
<octave>4</octave>
</pitch>
<duration>4</duration>
<type>16th</type>
<stem>up</stem>
<beam number="1">continue</beam>
<lyric number="1">
<syllabic>single</syllabic>
<text>pas</text>
</lyric>
</note>
<note>
<pitch>
<step>F</step>
<octave>4</octave>
</pitch>
<duration>8</duration>
<type>eighth</type>
<stem>up</stem>
<beam number="1">begin</beam>
<lyric number="1">
<syllabic>single</syllabic>
<text>de</text>
</lyric>
</note>
<note>
<pitch>
<step>D</step>
<octave>4</octave>
</pitch>
<duration>8</duration>
<type>eighth</type>
<stem>up</stem>
<beam number="1">continue</beam>
<lyric number="1">
<syllabic>single</syllabic>
<text>plus</text>
</lyric>
</note>
<note>
<pitch>
<step>F</step>
<octave>4</octave>
</pitch>
<duration>8</duration>
<type>eighth</type>
<stem>up</stem>
<beam number="1">begin</beam>
<lyric number="1">
<syllabic>single</syllabic>
<text>grand</text>
</lyric>
</note>
<note>
<pitch>
<step>F</step>
<octave>4</octave>
</pitch>
<duration>8</duration>
<type>eighth</type>
<stem>up</stem>
<beam number="1">continue</beam>
<lyric number="1">
<syllabic>begin</syllabic>
<text>ca</text>
</lyric>
</note>
<note>
<pitch>
<step>A</step>
<octave>4</octave>
</pitch>
<duration>16</duration>
<type>quarter</type>
<lyric number="1">
<syllabic>end</syllabic>
<text>deau</text>
</lyric>
</note>
</measure>
<measure number="21">
<note>
<rest/>
<duration>8</duration>
<type>eighth</type>
</note>
<note>
<pitch>
<step>C</step>
<octave>4</octave>
</pitch>
<duration>4</duration>
<type>16th</type>
<stem>up</stem>
<beam number="1">begin</beam>
<lyric number="1">
<syllabic>single</syllabic>
<text>Que</text>
</lyric>
</note>
<note>
<pitch>
<step>D</step>
<octave>4</octave>
</pitch>
<duration>4</duration>
<type>16th</type>
<stem>up</stem>
<beam number="1">continue</beam>
<lyric number="1">
<syllabic>begin</syllabic>
<text>l'a</text>
</lyric>
</note>
<note>
<pitch>
<step>E</step>
<octave>4</octave>
</pitch>
<duration>8</duration>
<type>eighth</type>
<stem>up</stem>
<beam number="1">begin</beam>
<lyric number="1">
<syllabic>end</syllabic>
<text>mour</text>
</lyric>
</note>
<note>
<pitch>
<step>C</step>
<octave>4</octave>
</pitch>
<duration>8</duration>
<type>eighth</type>
<stem>up</stem>
<beam number="1">continue</beam>
<lyric number="1">
<syllabic>single</syllabic>
<text>de</text>
</lyric>
</note>
<note>
<pitch>
<step>E</step>
<octave>4</octave>
</pitch>
<duration>8</duration>
<type>eighth</type>
<stem>up</stem>
<beam number="1">begin</beam>
<lyric number="1">
<syllabic>single</syllabic>
<text>Dieu</text>
</lyric>
</note>
<note>
<pitch>
<step>E</step>
<octave>4</octave>
</pitch>
<duration>8</duration>
<type>eighth</type>
<stem>up</stem>
<beam number="1">continue</beam>
<lyric number="1">
<syllabic>single</syllabic>
<text>pour</text>
</lyric>
</note>
<note>
<pitch>
<step>A</step>
<octave>4</octave>
</pitch>
<duration>16</duration>
<type>quarter</type>
<lyric number="1">
<syllabic>single</syllabic>
<text>nous.</text>
</lyric>
</note>
</measure>
<measure number="22">
<note>
<rest/>
<duration>8</duration>
<type>eighth</type>
</note>
<note>
<pitch>
<step>B</step>
<octave>3</octave>
</pitch>
<duration>4</duration>
<type>16th</type>
<stem>up</stem>
<beam number="1">begin</beam>
<lyric number="1">
<syllabic>single</syllabic>
<text>Nous</text>
</lyric>
</note>
<note>
<pitch>
<step>C</step>
<octave>4</octave>
</pitch>
<duration>4</duration>
<type>16th</type>
<stem>up</stem>
<beam number="1">continue</beam>
<lyric number="1">
<syllabic>begin</syllabic>
<text>vou</text>
</lyric>
</note>
<note>
<pitch>
<step>D</step>
<octave>4</octave>
</pitch>
<duration>8</duration>
<type>eighth</type>
<stem>up</stem>
<beam number="1">begin</beam>
<lyric number="1">
<syllabic>end</syllabic>
<text>lons</text>
</lyric>
</note>
<note>
<pitch>
<step>D</step>
<octave>4</octave>
</pitch>
<duration>8</duration>
<type>eighth</type>
<stem>up</stem>
<beam number="1">continue</beam>
<lyric number="1">
<syllabic>begin</syllabic>
<text>chan</text>
</lyric>
</note>
<note>
<pitch>
<step>D</step>
<octave>4</octave>
</pitch>
<duration>8</duration>
<type>eighth</type>
<stem>up</stem>
<beam number="1">begin</beam>
<lyric number="1">
<syllabic>end</syllabic>
<text>ter</text>
</lyric>
</note>
<note>
<pitch>
<step>D</step>
<octave>4</octave>
</pitch>
<duration>8</duration>
<type>eighth</type>
<stem>up</stem>
<beam number="1">continue</beam>
<lyric number="1">
<syllabic>begin</syllabic>
<text>tou</text>
</lyric>
</note>
<note>
<pitch>
<step>E</step>
<octave>4</octave>
</pitch>
<duration>8</duration>
<type>eighth</type>
<stem>up</stem>
<beam number="1">begin</beam>
<lyric number="1">
<syllabic>end</syllabic>
<text>jours,</text>
</lyric>
</note>
<note>
<pitch>
<step>F</step>
<octave>4</octave>
</pitch>
<duration>8</duration>
<type>eighth</type>
<stem>up</stem>
<beam number="1">continue</beam>
<lyric number="1">
<syllabic>begin</syllabic>
<text>Mer</text>
</lyric>
</note>
</measure>
<measure number="23">
<note>
<pitch>
<step>E</step>
<octave>4</octave>
</pitch>
<duration>8</duration>
<type>eighth</type>
<stem>up</stem>
<beam number="1">begin</beam>
<lyric number="1">
<syllabic>end</syllabic>
<text>ci,</text>
</lyric>
</note>
<note>
<pitch>
<step>F</step>
<octave>4</octave>
</pitch>
<duration>8</duration>
<type>eighth</type>
<stem>up</stem>
<beam number="1">continue</beam>
<lyric number="1">
<syllabic>begin</syllabic>
<text>mer</text>
</lyric>
</note>
<note>
<pitch>
<step>E</step>
<octave>4</octave>
</pitch>
<duration>8</duration>
<type>eighth</type>
<stem>up</stem>
<beam number="1">begin</beam>
<lyric number="1">
<syllabic>end</syllabic>
<text>ci,</text>
</lyric>
</note>
<note>
<pitch>
<step>F</step>
<octave>4</octave>
</pitch>
<duration>8</duration>
<type>eighth</type>
<stem>up</stem>
<beam number="1">continue</beam>
<lyric number="1">
<syllabic>begin</syllabic>
<text>mer</text>
</lyric>
</note>
<note>
<pitch>
<step>E</step>
<octave>4</octave>
</pitch>
<duration>8</duration>
<type>eighth</type>
<stem>up</stem>
<beam number="1">begin</beam>
<lyric number="1">
<syllabic>end</syllabic>
<text>ci</text>
</lyric>
</note>
<note>
<pitch>
<step>D</step>
<octave>4</octave>
</pitch>
<duration>8</duration>
<type>eighth</type>
<stem>up</stem>
<beam number="1">continue</beam>
<lyric number="1">
<syllabic>single</syllabic>
<text>pour</text>
</lyric>
</note>
<note>
<pitch>
<step>C</step>
<octave>4</octave>
</pitch>
<duration>8</duration>
<type>eighth</type>
<stem>up</stem>
<beam number="1">begin</beam>
<lyric number="1">
<syllabic>single</syllabic>
<text>ton</text>
</lyric>
</note>
<note>
<pitch>
<step>B</step>
<octave>3</octave>
</pitch>
<duration>8</duration>
<type>eighth</type>
<stem>up</stem>
<beam number="1">continue</beam>
<lyric number="1">
<syllabic>begin</syllabic>
<text>a</text>
</lyric>
</note>
</measure>
<measure number="24">
<note>
<pitch>
<step>A</step>
<octave>3</octave>
</pitch>
<duration>16</duration>
<type>quarter</type>
<lyric number="1">
<syllabic>end</syllabic>
<text>mour !</text>
</lyric>
</note>
<note>
<rest/>
<duration>16</duration>
<type>quarter</type>
</note>
<note>
<rest/>
<duration>32</duration>
<type>half</type>
</note>
</measure>
<measure number="25">
<note>
<rest/>
<duration>48</duration>
<type>half</type>
<dot/>
</note>
<note>
<rest/>
<duration>8</duration>
<type>eighth</type>
</note>
<direction>
<direction-type>
<words relative-y="80">(crié)</words>
</direction-type>
</direction>
<note>
<pitch>
<step>A</step>
<octave>4</octave>
</pitch>
<duration>8</duration>
<type>eighth</type>
<lyric number="1">
<syllabic>single</syllabic>
<text>Yeah !</text>
</lyric>
</note>
<barline location="right">
<bar-style>light-heavy</bar-style>
<ending type="stop" number="2"/>
</barline>
</measure>
</part>
</score-partwise>
