<?xml version="1.0" encoding="UTF-8" standalone='no'?>
<!DOCTYPE score-partwise PUBLIC "-//Recordare//DTD MusicXML 1.0 Partwise//EN" "http://www.musicxml.org/dtds/partwise.dtd">
<score-partwise>
<work>
<work-title>Pour ton amour merci Seigneur</work-title>
</work>
<identification>
<creator type="transcriber">Pierre-Alain Chollet</creator>
<rights>© 1995 Pierre-Alain Chollet</rights>
<encoding>
<software>Noteworthy Composer</software>
<encoding-date>2013-01-05</encoding-date>
</encoding>
</identification>
<part-list>
<score-part id="P1">
<part-name>Mélodie</part-name>
<score-instrument id="P1-I1">
<instrument-name>String Ensemble 1</instrument-name>
</score-instrument>
<midi-instrument id="P1-I1">
<midi-channel>1</midi-channel>
<midi-program>50</midi-program>
</midi-instrument>
</score-part>
</part-list>
<part id="P1">
<measure number="1">
<attributes>
<divisions>8</divisions>
</attributes>
<attributes>
<clef>
<sign>G</sign>
<line>2</line>
</clef>
</attributes>
<attributes>
<key>
<fifths>1</fifths>
</key>
</attributes>
<attributes>
<time>
<beats>4</beats>
<beat-type>4</beat-type>
</time>
</attributes>
<direction>
<direction-type>
<metronome parentheses="no">
<beat-unit>quarter</beat-unit>
<per-minute>160</per-minute>
</metronome>
</direction-type>
<sound tempo="160"/>
</direction>
<note>
<pitch>
<step>B</step>
<octave>4</octave>
</pitch>
<duration>8</duration>
<type>quarter</type>
<lyric number="1">
<syllabic>single</syllabic>
<text>Pour</text>
</lyric>
</note>
<note>
<pitch>
<step>G</step>
<octave>4</octave>
</pitch>
<duration>8</duration>
<type>quarter</type>
<lyric number="1">
<syllabic>single</syllabic>
<text>ton</text>
</lyric>
</note>
<note>
<pitch>
<step>G</step>
<octave>4</octave>
</pitch>
<duration>8</duration>
<type>quarter</type>
<lyric number="1">
<syllabic>begin</syllabic>
<text>a</text>
</lyric>
</note>
<note>
<pitch>
<step>D</step>
<octave>4</octave>
</pitch>
<duration>8</duration>
<type>quarter</type>
<lyric number="1">
<syllabic>end</syllabic>
<text>mour,</text>
</lyric>
</note>
</measure>
<measure number="2">
<note>
<pitch>
<step>E</step>
<octave>4</octave>
</pitch>
<duration>4</duration>
<type>eighth</type>
<stem>up</stem>
<beam number="1">begin</beam>
<lyric number="1">
<syllabic>begin</syllabic>
<text>mer</text>
</lyric>
</note>
<note>
<pitch>
<step>E</step>
<octave>4</octave>
</pitch>
<duration>4</duration>
<type>eighth</type>
<stem>up</stem>
<beam number="1">continue</beam>
<lyric number="1">
<syllabic>end</syllabic>
<text>ci</text>
</lyric>
</note>
<note>
<pitch>
<step>G</step>
<octave>4</octave>
</pitch>
<duration>8</duration>
<type>quarter</type>
<lyric number="1">
<syllabic>begin</syllabic>
<text>Sei</text>
</lyric>
</note>
<note>
<pitch>
<step>D</step>
<octave>4</octave>
</pitch>
<duration>16</duration>
<type>half</type>
<lyric number="1">
<syllabic>end</syllabic>
<text>gneur.</text>
</lyric>
</note>
</measure>
<measure number="3">
<note>
<pitch>
<step>B</step>
<octave>4</octave>
</pitch>
<duration>8</duration>
<type>quarter</type>
<lyric number="1">
<syllabic>single</syllabic>
<text>Pour</text>
</lyric>
</note>
<note>
<pitch>
<step>G</step>
<octave>4</octave>
</pitch>
<duration>8</duration>
<type>quarter</type>
<lyric number="1">
<syllabic>single</syllabic>
<text>tous</text>
</lyric>
</note>
<note>
<pitch>
<step>G</step>
<octave>4</octave>
</pitch>
<duration>8</duration>
<type>quarter</type>
<lyric number="1">
<syllabic>single</syllabic>
<text>tes</text>
</lyric>
</note>
<note>
<pitch>
<step>G</step>
<octave>4</octave>
</pitch>
<duration>8</duration>
<type>quarter</type>
<lyric number="1">
<syllabic>single</syllabic>
<text>dons,</text>
</lyric>
</note>
</measure>
<measure number="4">
<note>
<pitch>
<step>A</step>
<octave>4</octave>
</pitch>
<duration>4</duration>
<type>eighth</type>
<stem>up</stem>
<beam number="1">begin</beam>
<lyric number="1">
<syllabic>begin</syllabic>
<text>mer</text>
</lyric>
</note>
<note>
<pitch>
<step>A</step>
<octave>4</octave>
</pitch>
<duration>4</duration>
<type>eighth</type>
<stem>up</stem>
<beam number="1">continue</beam>
<lyric number="1">
<syllabic>end</syllabic>
<text>ci</text>
</lyric>
</note>
<note>
<pitch>
<step>B</step>
<octave>4</octave>
</pitch>
<duration>8</duration>
<type>quarter</type>
<lyric number="1">
<syllabic>begin</syllabic>
<text>Sei</text>
</lyric>
</note>
<note>
<pitch>
<step>A</step>
<octave>4</octave>
</pitch>
<duration>16</duration>
<type>half</type>
<lyric number="1">
<syllabic>end</syllabic>
<text>gneur.</text>
</lyric>
</note>
</measure>
<measure number="5">
<note>
<pitch>
<step>B</step>
<octave>4</octave>
</pitch>
<duration>8</duration>
<type>quarter</type>
<lyric number="1">
<syllabic>single</syllabic>
<text>Pour</text>
</lyric>
</note>
<note>
<pitch>
<step>G</step>
<octave>4</octave>
</pitch>
<duration>8</duration>
<type>quarter</type>
<lyric number="1">
<syllabic>single</syllabic>
<text>ta</text>
</lyric>
</note>
<note>
<pitch>
<step>G</step>
<octave>4</octave>
</pitch>
<duration>8</duration>
<type>quarter</type>
<lyric number="1">
<syllabic>begin</syllabic>
<text>pré</text>
</lyric>
</note>
<note>
<pitch>
<step>D</step>
<octave>4</octave>
</pitch>
<duration>8</duration>
<type>quarter</type>
<lyric number="1">
<syllabic>end</syllabic>
<text>sence,</text>
</lyric>
</note>
</measure>
<measure number="6">
<note>
<pitch>
<step>E</step>
<octave>4</octave>
</pitch>
<duration>4</duration>
<type>eighth</type>
<stem>up</stem>
<beam number="1">begin</beam>
<lyric number="1">
<syllabic>begin</syllabic>
<text>mer</text>
</lyric>
</note>
<note>
<pitch>
<step>E</step>
<octave>4</octave>
</pitch>
<duration>4</duration>
<type>eighth</type>
<stem>up</stem>
<beam number="1">continue</beam>
<lyric number="1">
<syllabic>end</syllabic>
<text>ci</text>
</lyric>
</note>
<note>
<pitch>
<step>G</step>
<octave>4</octave>
</pitch>
<duration>8</duration>
<type>quarter</type>
<lyric number="1">
<syllabic>begin</syllabic>
<text>Sei</text>
</lyric>
</note>
<note>
<pitch>
<step>D</step>
<octave>4</octave>
</pitch>
<duration>16</duration>
<type>half</type>
<lyric number="1">
<syllabic>end</syllabic>
<text>gneur.</text>
</lyric>
</note>
</measure>
<measure number="7">
<note>
<pitch>
<step>E</step>
<octave>4</octave>
</pitch>
<duration>8</duration>
<type>quarter</type>
<lyric number="1">
<syllabic>single</syllabic>
<text>Tu</text>
</lyric>
</note>
<note>
<pitch>
<step>G</step>
<octave>4</octave>
</pitch>
<duration>8</duration>
<type>quarter</type>
<lyric number="1">
<syllabic>single</syllabic>
<text>es</text>
</lyric>
</note>
<note>
<pitch>
<step>F</step>
<alter>1</alter>
<octave>4</octave>
</pitch>
<duration>8</duration>
<type>quarter</type>
<lyric number="1">
<syllabic>begin</syllabic>
<text>mer</text>
</lyric>
</note>
<note>
<pitch>
<step>A</step>
<octave>4</octave>
</pitch>
<duration>8</duration>
<type>quarter</type>
<lyric number="1">
<syllabic>middle</syllabic>
<text>veil</text>
</lyric>
</note>
</measure>
<measure number="8">
<note>
<pitch>
<step>G</step>
<octave>4</octave>
</pitch>
<duration>8</duration>
<type>quarter</type>
<lyric number="1">
<syllabic>end</syllabic>
<text>leux !</text>
</lyric>
</note>
<note>
<pitch>
<step>D</step>
<octave>4</octave>
</pitch>
<duration>8</duration>
<type>quarter</type>
<lyric number="1">
<syllabic>single</syllabic>
<text>Pom,</text>
</lyric>
</note>
<note>
<pitch>
<step>E</step>
<octave>4</octave>
</pitch>
<duration>8</duration>
<type>quarter</type>
<lyric number="1">
<syllabic>single</syllabic>
<text>pom,</text>
</lyric>
</note>
<note>
<pitch>
<step>F</step>
<alter>1</alter>
<octave>4</octave>
</pitch>
<duration>8</duration>
<type>quarter</type>
<lyric number="1">
<syllabic>single</syllabic>
<text>pom.</text>
</lyric>
</note>
</measure>
<measure number="9">
<note>
<pitch>
<step>B</step>
<octave>4</octave>
</pitch>
<duration>8</duration>
<type>quarter</type>
<lyric number="1">
<syllabic>begin</syllabic>
<text>Al</text>
</lyric>
</note>
<note>
<pitch>
<step>G</step>
<octave>4</octave>
</pitch>
<duration>8</duration>
<type>quarter</type>
<lyric number="1">
<syllabic>middle</syllabic>
<text>lé</text>
</lyric>
</note>
<note>
<pitch>
<step>G</step>
<octave>4</octave>
</pitch>
<duration>8</duration>
<type>quarter</type>
<lyric number="1">
<syllabic>middle</syllabic>
<text>lu</text>
</lyric>
</note>
<note>
<pitch>
<step>D</step>
<octave>4</octave>
</pitch>
<duration>8</duration>
<type>quarter</type>
<lyric number="1">
<syllabic>end</syllabic>
<text>ia !</text>
</lyric>
</note>
</measure>
<measure number="10">
<note>
<pitch>
<step>E</step>
<octave>4</octave>
</pitch>
<duration>4</duration>
<type>eighth</type>
<stem>up</stem>
<beam number="1">begin</beam>
<lyric number="1">
<syllabic>begin</syllabic>
<text>Mer</text>
</lyric>
</note>
<note>
<pitch>
<step>E</step>
<octave>4</octave>
</pitch>
<duration>4</duration>
<type>eighth</type>
<stem>up</stem>
<beam number="1">continue</beam>
<lyric number="1">
<syllabic>end</syllabic>
<text>ci</text>
</lyric>
</note>
<note>
<pitch>
<step>G</step>
<octave>4</octave>
</pitch>
<duration>4</duration>
<type>eighth</type>
<stem>up</stem>
<beam number="1">begin</beam>
<lyric number="1">
<syllabic>begin</syllabic>
<text>Sei</text>
</lyric>
</note>
<note>
<pitch>
<step>D</step>
<octave>4</octave>
</pitch>
<duration>4</duration>
<tie type="start"/>
<type>eighth</type>
<stem>up</stem>
<beam number="1">continue</beam>
<notations>
<tied type="start"/>
</notations>
<lyric number="1">
<syllabic>end</syllabic>
<text>gneur.</text>
</lyric>
</note>
<note>
<pitch>
<step>D</step>
<octave>4</octave>
</pitch>
<duration>8</duration>
<tie type="stop"/>
<type>quarter</type>
<notations>
<tied type="stop"/>
</notations>
</note>
<note>
<rest/>
<duration>8</duration>
<type>quarter</type>
</note>
</measure>
<measure number="11">
<note>
<pitch>
<step>B</step>
<octave>4</octave>
</pitch>
<duration>8</duration>
<type>quarter</type>
<lyric number="1">
<syllabic>begin</syllabic>
<text>Al</text>
</lyric>
</note>
<note>
<pitch>
<step>G</step>
<octave>4</octave>
</pitch>
<duration>8</duration>
<type>quarter</type>
<lyric number="1">
<syllabic>middle</syllabic>
<text>lé</text>
</lyric>
</note>
<note>
<pitch>
<step>G</step>
<octave>4</octave>
</pitch>
<duration>8</duration>
<type>quarter</type>
<lyric number="1">
<syllabic>middle</syllabic>
<text>lu</text>
</lyric>
</note>
<note>
<pitch>
<step>G</step>
<octave>4</octave>
</pitch>
<duration>8</duration>
<type>quarter</type>
<lyric number="1">
<syllabic>end</syllabic>
<text>ia !</text>
</lyric>
</note>
</measure>
<measure number="12">
<note>
<pitch>
<step>A</step>
<octave>4</octave>
</pitch>
<duration>4</duration>
<type>eighth</type>
<stem>up</stem>
<beam number="1">begin</beam>
<lyric number="1">
<syllabic>begin</syllabic>
<text>Mer</text>
</lyric>
</note>
<note>
<pitch>
<step>A</step>
<octave>4</octave>
</pitch>
<duration>4</duration>
<type>eighth</type>
<stem>up</stem>
<beam number="1">continue</beam>
<lyric number="1">
<syllabic>end</syllabic>
<text>ci</text>
</lyric>
</note>
<note>
<pitch>
<step>B</step>
<octave>4</octave>
</pitch>
<duration>4</duration>
<type>eighth</type>
<stem>up</stem>
<beam number="1">begin</beam>
<lyric number="1">
<syllabic>begin</syllabic>
<text>Sei</text>
</lyric>
</note>
<note>
<pitch>
<step>A</step>
<octave>4</octave>
</pitch>
<duration>4</duration>
<tie type="start"/>
<type>eighth</type>
<stem>up</stem>
<beam number="1">continue</beam>
<notations>
<tied type="start"/>
</notations>
<lyric number="1">
<syllabic>end</syllabic>
<text>gneur.</text>
</lyric>
</note>
<note>
<pitch>
<step>A</step>
<octave>4</octave>
</pitch>
<duration>8</duration>
<tie type="stop"/>
<type>quarter</type>
<notations>
<tied type="stop"/>
</notations>
</note>
<note>
<rest/>
<duration>8</duration>
<type>quarter</type>
</note>
</measure>
<measure number="13">
<note>
<pitch>
<step>B</step>
<octave>4</octave>
</pitch>
<duration>8</duration>
<type>quarter</type>
<lyric number="1">
<syllabic>begin</syllabic>
<text>Al</text>
</lyric>
</note>
<note>
<pitch>
<step>G</step>
<octave>4</octave>
</pitch>
<duration>8</duration>
<type>quarter</type>
<lyric number="1">
<syllabic>middle</syllabic>
<text>lé</text>
</lyric>
</note>
<note>
<pitch>
<step>G</step>
<octave>4</octave>
</pitch>
<duration>8</duration>
<type>quarter</type>
<lyric number="1">
<syllabic>middle</syllabic>
<text>lu</text>
</lyric>
</note>
<note>
<pitch>
<step>D</step>
<octave>4</octave>
</pitch>
<duration>8</duration>
<type>quarter</type>
<lyric number="1">
<syllabic>end</syllabic>
<text>ia !</text>
</lyric>
</note>
</measure>
<measure number="14">
<note>
<pitch>
<step>E</step>
<octave>4</octave>
</pitch>
<duration>4</duration>
<type>eighth</type>
<stem>up</stem>
<beam number="1">begin</beam>
<lyric number="1">
<syllabic>begin</syllabic>
<text>Mer</text>
</lyric>
</note>
<note>
<pitch>
<step>E</step>
<octave>4</octave>
</pitch>
<duration>4</duration>
<type>eighth</type>
<stem>up</stem>
<beam number="1">continue</beam>
<lyric number="1">
<syllabic>end</syllabic>
<text>ci</text>
</lyric>
</note>
<note>
<pitch>
<step>G</step>
<octave>4</octave>
</pitch>
<duration>4</duration>
<type>eighth</type>
<stem>up</stem>
<beam number="1">begin</beam>
<lyric number="1">
<syllabic>begin</syllabic>
<text>Sei</text>
</lyric>
</note>
<note>
<pitch>
<step>D</step>
<octave>4</octave>
</pitch>
<duration>4</duration>
<tie type="start"/>
<type>eighth</type>
<stem>up</stem>
<beam number="1">continue</beam>
<notations>
<tied type="start"/>
</notations>
<lyric number="1">
<syllabic>end</syllabic>
<text>gneur.</text>
</lyric>
</note>
<note>
<pitch>
<step>D</step>
<octave>4</octave>
</pitch>
<duration>8</duration>
<tie type="stop"/>
<type>quarter</type>
<notations>
<tied type="stop"/>
</notations>
</note>
<note>
<rest/>
<duration>8</duration>
<type>quarter</type>
</note>
</measure>
<measure number="15">
<note>
<pitch>
<step>E</step>
<octave>4</octave>
</pitch>
<duration>8</duration>
<type>quarter</type>
<lyric number="1">
<syllabic>single</syllabic>
<text>Tu</text>
</lyric>
</note>
<note>
<pitch>
<step>G</step>
<octave>4</octave>
</pitch>
<duration>8</duration>
<type>quarter</type>
<lyric number="1">
<syllabic>single</syllabic>
<text>es</text>
</lyric>
</note>
<note>
<pitch>
<step>F</step>
<alter>1</alter>
<octave>4</octave>
</pitch>
<duration>8</duration>
<type>quarter</type>
<lyric number="1">
<syllabic>begin</syllabic>
<text>mer</text>
</lyric>
</note>
<note>
<pitch>
<step>A</step>
<octave>4</octave>
</pitch>
<duration>8</duration>
<type>quarter</type>
<lyric number="1">
<syllabic>middle</syllabic>
<text>veil</text>
</lyric>
</note>
</measure>
<measure number="16">
<note>
<pitch>
<step>G</step>
<octave>4</octave>
</pitch>
<duration>8</duration>
<type>quarter</type>
<lyric number="1">
<syllabic>end</syllabic>
<text>leux !</text>
</lyric>
</note>
<note>
<pitch>
<step>D</step>
<octave>4</octave>
</pitch>
<duration>8</duration>
<type>quarter</type>
<lyric number="1">
<syllabic>begin</syllabic>
<text>A</text>
</lyric>
</note>
<note>
<pitch>
<step>G</step>
<octave>4</octave>
</pitch>
<duration>8</duration>
<type>quarter</type>
<lyric number="1">
<syllabic>end</syllabic>
<text>men !</text>
</lyric>
</note>
<note>
<rest/>
<duration>8</duration>
<type>quarter</type>
</note>
<barline location="right">
<bar-style>light-heavy</bar-style>
</barline>
</measure>
</part>
</score-partwise>
