<?xml version="1.0" encoding="UTF-8" standalone='no'?>
<!DOCTYPE score-partwise PUBLIC "-//Recordare//DTD MusicXML 1.0 Partwise//EN" "http://www.musicxml.org/dtds/partwise.dtd">
<score-partwise>
<work>
<work-title>On vous a à l'oeil</work-title>
</work>
<identification>
<creator type="transcriber">Jean-François Bussy</creator>
<rights>© 2001 Harmony Musique</rights>
<encoding>
<software>Noteworthy Composer</software>
<encoding-date>2013-01-05</encoding-date>
</encoding>
</identification>
<part-list>
<score-part id="P1">
<part-name>Mélodie</part-name>
<score-instrument id="P1-I1">
<instrument-name>String Ensemble 1</instrument-name>
</score-instrument>
<midi-instrument id="P1-I1">
<midi-channel>1</midi-channel>
<midi-program>50</midi-program>
</midi-instrument>
</score-part>
</part-list>
<part id="P1">
<measure number="1">
<attributes>
<divisions>16</divisions>
</attributes>
<attributes>
<clef>
<sign>G</sign>
<line>2</line>
</clef>
</attributes>
<attributes>
<key>
<fifths>1</fifths>
</key>
</attributes>
<attributes>
<time>
<beats>4</beats>
<beat-type>4</beat-type>
</time>
</attributes>
<note>
<pitch>
<step>G</step>
<octave>4</octave>
</pitch>
<duration>16</duration>
<type>quarter</type>
<lyric number="1">
<syllabic>single</syllabic>
<text>1. Les</text>
</lyric>
<lyric number="2">
<syllabic>single</syllabic>
<text>2. On</text>
</lyric>
<lyric number="3">
<syllabic>single</syllabic>
<text>3. La</text>
</lyric>
<lyric number="4">
<syllabic>begin</syllabic>
<text>4. Main</text>
</lyric>
</note>
<note>
<pitch>
<step>G</step>
<octave>4</octave>
</pitch>
<duration>16</duration>
<type>quarter</type>
<lyric number="1">
<syllabic>begin</syllabic>
<text>en</text>
</lyric>
<lyric number="2">
<syllabic>single</syllabic>
<text>nous</text>
</lyric>
<lyric number="3">
<syllabic>begin</syllabic>
<text>ré</text>
</lyric>
<lyric number="4">
<syllabic>middle</syllabic>
<text>te</text>
</lyric>
</note>
<note>
<pitch>
<step>G</step>
<octave>4</octave>
</pitch>
<duration>16</duration>
<type>quarter</type>
<lyric number="1">
<syllabic>end</syllabic>
<text>fants</text>
</lyric>
<lyric number="2">
<syllabic>begin</syllabic>
<text>ra</text>
</lyric>
<lyric number="3">
<syllabic>middle</syllabic>
<text>a</text>
</lyric>
<lyric number="4">
<syllabic>end</syllabic>
<text>nant</text>
</lyric>
</note>
<note>
<pitch>
<step>G</step>
<octave>4</octave>
</pitch>
<duration>16</duration>
<type>quarter</type>
<lyric number="1">
<syllabic>single</syllabic>
<text>savent</text>
</lyric>
<lyric number="2">
<syllabic>end</syllabic>
<text>conte</text>
</lyric>
<lyric number="3">
<syllabic>middle</syllabic>
<text>li</text>
</lyric>
<lyric number="4">
<syllabic>single</syllabic>
<text>que</text>
</lyric>
</note>
</measure>
<measure number="2">
<note>
<pitch>
<step>A</step>
<octave>4</octave>
</pitch>
<duration>16</duration>
<type>quarter</type>
<lyric number="1">
<syllabic>single</syllabic>
<text>très</text>
</lyric>
<lyric number="2">
<syllabic>single</syllabic>
<text>des</text>
</lyric>
<lyric number="3">
<syllabic>end</syllabic>
<text>té</text>
</lyric>
<lyric number="4">
<syllabic>single</syllabic>
<text>vous</text>
</lyric>
</note>
<note>
<pitch>
<step>B</step>
<octave>4</octave>
</pitch>
<duration>8</duration>
<type>eighth</type>
<stem>down</stem>
<beam number="1">begin</beam>
<lyric number="1">
<syllabic>single</syllabic>
<text>bien</text>
</lyric>
<lyric number="2">
<syllabic>begin</syllabic>
<text>his</text>
</lyric>
<lyric number="3">
<syllabic>single</syllabic>
<text>est</text>
</lyric>
<lyric number="4">
<syllabic>begin</syllabic>
<text>voy</text>
</lyric>
</note>
<note>
<pitch>
<step>B</step>
<octave>4</octave>
</pitch>
<duration>8</duration>
<tie type="start"/>
<type>eighth</type>
<stem>down</stem>
<beam number="1">continue</beam>
<notations>
<tied type="start"/>
</notations>
<lyric number="1">
<syllabic>single</syllabic>
<text>voir</text>
</lyric>
<lyric number="2">
<syllabic>end</syllabic>
<text>toires</text>
</lyric>
<lyric number="3">
<syllabic>single</syllabic>
<text>claire,</text>
</lyric>
<lyric number="4">
<syllabic>end</syllabic>
<text>ez</text>
</lyric>
</note>
<note>
<pitch>
<step>B</step>
<octave>4</octave>
</pitch>
<duration>32</duration>
<tie type="stop"/>
<type>half</type>
<notations>
<tied type="stop"/>
</notations>
</note>
</measure>
<measure number="3">
<note>
<pitch>
<step>C</step>
<octave>5</octave>
</pitch>
<duration>16</duration>
<type>quarter</type>
<lyric number="1">
<syllabic>single</syllabic>
<text>Quand</text>
</lyric>
<lyric number="2">
<syllabic>single</syllabic>
<text>A</text>
</lyric>
<lyric number="3">
<syllabic>single</syllabic>
<text>Pas</text>
</lyric>
<lyric number="4">
<syllabic>single</syllabic>
<text>Qu'on</text>
</lyric>
</note>
<note>
<pitch>
<step>C</step>
<octave>5</octave>
</pitch>
<duration>16</duration>
<type>quarter</type>
<lyric number="1">
<syllabic>single</syllabic>
<text>on</text>
</lyric>
<lyric number="2">
<syllabic>single</syllabic>
<text>grands</text>
</lyric>
<lyric number="3">
<syllabic>begin</syllabic>
<text>be</text>
</lyric>
<lyric number="4">
<syllabic>single</syllabic>
<text>est</text>
</lyric>
</note>
<note>
<pitch>
<step>B</step>
<octave>4</octave>
</pitch>
<duration>16</duration>
<type>quarter</type>
<lyric number="1">
<syllabic>begin</syllabic>
<text>es</text>
</lyric>
<lyric number="2">
<syllabic>single</syllabic>
<text>coups</text>
</lyric>
<lyric number="3">
<syllabic>end</syllabic>
<text>soin</text>
</lyric>
<lyric number="4">
<syllabic>single</syllabic>
<text>très</text>
</lyric>
</note>
<note>
<pitch>
<step>A</step>
<octave>4</octave>
</pitch>
<duration>16</duration>
<type>quarter</type>
<lyric number="1">
<syllabic>end</syllabic>
<text>saie</text>
</lyric>
<lyric number="2">
<syllabic>begin</syllabic>
<text>d'cho</text>
</lyric>
<lyric number="3">
<syllabic>single</syllabic>
<text>d'faire</text>
</lyric>
<lyric number="4">
<syllabic>single</syllabic>
<text>bien</text>
</lyric>
</note>
</measure>
<measure number="4">
<note>
<pitch>
<step>G</step>
<octave>4</octave>
</pitch>
<duration>16</duration>
<type>quarter</type>
<lyric number="1">
<syllabic>single</syllabic>
<text>d'leur</text>
</lyric>
<lyric number="2">
<syllabic>middle</syllabic>
<text>co</text>
</lyric>
<lyric number="3">
<syllabic>single</syllabic>
<text>des</text>
</lyric>
<lyric number="4">
<syllabic>begin</syllabic>
<text>in</text>
</lyric>
</note>
<note>
<pitch>
<step>E</step>
<octave>4</octave>
</pitch>
<duration>8</duration>
<type>eighth</type>
<stem>up</stem>
<beam number="1">begin</beam>
<lyric number="1">
<syllabic>single</syllabic>
<text>faire</text>
</lyric>
<lyric number="2">
<syllabic>end</syllabic>
<text>lat</text>
</lyric>
<lyric number="3">
<syllabic>begin</syllabic>
<text>mys</text>
</lyric>
<lyric number="4">
<syllabic>middle</syllabic>
<text>for</text>
</lyric>
</note>
<note>
<pitch>
<step>D</step>
<octave>4</octave>
</pitch>
<duration>8</duration>
<tie type="start"/>
<type>eighth</type>
<stem>up</stem>
<beam number="1">continue</beam>
<notations>
<tied type="start"/>
</notations>
<lyric number="1">
<syllabic>single</syllabic>
<text>croire</text>
</lyric>
<lyric number="2">
<syllabic>single</syllabic>
<text>noir,</text>
</lyric>
<lyric number="3">
<syllabic>end</syllabic>
<text>tères,</text>
</lyric>
<lyric number="4">
<syllabic>end</syllabic>
<text>mé,</text>
</lyric>
</note>
<note>
<pitch>
<step>D</step>
<octave>4</octave>
</pitch>
<duration>32</duration>
<tie type="stop"/>
<type>half</type>
<notations>
<tied type="stop"/>
</notations>
</note>
</measure>
<measure number="5">
<note>
<pitch>
<step>G</step>
<octave>4</octave>
</pitch>
<duration>16</duration>
<type>quarter</type>
<lyric number="1">
<syllabic>single</syllabic>
<text>Des</text>
</lyric>
<lyric number="2">
<syllabic>single</syllabic>
<text>On</text>
</lyric>
<lyric number="3">
<syllabic>begin</syllabic>
<text>Jé</text>
</lyric>
<lyric number="4">
<syllabic>begin</syllabic>
<text>N'hé</text>
</lyric>
</note>
<note>
<pitch>
<step>G</step>
<octave>4</octave>
</pitch>
<duration>16</duration>
<type>quarter</type>
<lyric number="1">
<syllabic>single</syllabic>
<text>trucs</text>
</lyric>
<lyric number="2">
<syllabic>single</syllabic>
<text>nous</text>
</lyric>
<lyric number="3">
<syllabic>end</syllabic>
<text>sus,</text>
</lyric>
<lyric number="4">
<syllabic>middle</syllabic>
<text>si</text>
</lyric>
</note>
<note>
<pitch>
<step>G</step>
<octave>4</octave>
</pitch>
<duration>16</duration>
<type>quarter</type>
<lyric number="1">
<syllabic>single</syllabic>
<text>à</text>
</lyric>
<lyric number="2">
<syllabic>begin</syllabic>
<text>en</text>
</lyric>
<lyric number="3">
<syllabic>single</syllabic>
<text>c'est</text>
</lyric>
<lyric number="4">
<syllabic>end</syllabic>
<text>tez</text>
</lyric>
</note>
<note>
<pitch>
<step>G</step>
<octave>4</octave>
</pitch>
<duration>16</duration>
<type>quarter</type>
<lyric number="1">
<syllabic>begin</syllabic>
<text>dor</text>
</lyric>
<lyric number="2">
<syllabic>end</syllabic>
<text>file</text>
</lyric>
<lyric number="3">
<syllabic>single</syllabic>
<text>Dieu</text>
</lyric>
<lyric number="4">
<syllabic>single</syllabic>
<text>pas</text>
</lyric>
</note>
</measure>
<measure number="6">
<note>
<pitch>
<step>A</step>
<octave>4</octave>
</pitch>
<duration>16</duration>
<type>quarter</type>
<lyric number="1">
<syllabic>end</syllabic>
<text>mir</text>
</lyric>
<lyric number="2">
<syllabic>single</syllabic>
<text>des</text>
</lyric>
<lyric number="3">
<syllabic>begin</syllabic>
<text>par</text>
</lyric>
<lyric number="4">
<syllabic>single</syllabic>
<text>à</text>
</lyric>
</note>
<note>
<pitch>
<step>B</step>
<octave>4</octave>
</pitch>
<duration>8</duration>
<type>eighth</type>
<stem>down</stem>
<beam number="1">begin</beam>
<lyric number="1">
<syllabic>begin</syllabic>
<text>de</text>
</lyric>
<lyric number="2">
<syllabic>begin</syllabic>
<text>bê</text>
</lyric>
<lyric number="3">
<syllabic>end</syllabic>
<text>mi</text>
</lyric>
<lyric number="4">
<syllabic>begin</syllabic>
<text>po</text>
</lyric>
</note>
<note>
<pitch>
<step>B</step>
<octave>4</octave>
</pitch>
<duration>8</duration>
<tie type="start"/>
<type>eighth</type>
<stem>down</stem>
<beam number="1">continue</beam>
<notations>
<tied type="start"/>
</notations>
<lyric number="1">
<syllabic>end</syllabic>
<text>bout.</text>
</lyric>
<lyric number="2">
<syllabic>end</syllabic>
<text>tises</text>
</lyric>
<lyric number="3">
<syllabic>single</syllabic>
<text>nous,</text>
</lyric>
<lyric number="4">
<syllabic>end</syllabic>
<text>ser</text>
</lyric>
</note>
<note>
<pitch>
<step>B</step>
<octave>4</octave>
</pitch>
<duration>32</duration>
<tie type="stop"/>
<type>half</type>
<notations>
<tied type="stop"/>
</notations>
</note>
</measure>
<measure number="7">
<note>
<pitch>
<step>C</step>
<octave>5</octave>
</pitch>
<duration>16</duration>
<type>quarter</type>
<lyric number="1">
<syllabic>begin</syllabic>
<text>Au</text>
</lyric>
<lyric number="2">
<syllabic>begin</syllabic>
<text>A</text>
</lyric>
<lyric number="3">
<syllabic>begin</syllabic>
<text>Ve</text>
</lyric>
<lyric number="4">
<syllabic>single</syllabic>
<text>Les</text>
</lyric>
</note>
<note>
<pitch>
<step>C</step>
<octave>5</octave>
</pitch>
<duration>16</duration>
<type>quarter</type>
<lyric number="1">
<syllabic>end</syllabic>
<text>tant</text>
</lyric>
<lyric number="2">
<syllabic>end</syllabic>
<text>vec</text>
</lyric>
<lyric number="3">
<syllabic>end</syllabic>
<text>nu</text>
</lyric>
<lyric number="4">
<syllabic>begin</syllabic>
<text>ques</text>
</lyric>
</note>
<note>
<pitch>
<step>B</step>
<octave>4</octave>
</pitch>
<duration>16</duration>
<type>quarter</type>
<lyric number="1">
<syllabic>single</syllabic>
<text>ne</text>
</lyric>
<lyric number="2">
<syllabic>single</syllabic>
<text>plein</text>
</lyric>
<lyric number="3">
<syllabic>single</syllabic>
<text>nous</text>
</lyric>
<lyric number="4">
<syllabic>end</syllabic>
<text>tions</text>
</lyric>
</note>
<note>
<pitch>
<step>G</step>
<octave>4</octave>
</pitch>
<duration>16</duration>
<type>quarter</type>
<lyric number="1">
<syllabic>single</syllabic>
<text>rien</text>
</lyric>
<lyric number="2">
<syllabic>single</syllabic>
<text>de</text>
</lyric>
<lyric number="3">
<syllabic>begin</syllabic>
<text>ai</text>
</lyric>
<lyric number="4">
<syllabic>single</syllabic>
<text>que</text>
</lyric>
</note>
</measure>
<measure number="8">
<note>
<pitch>
<step>A</step>
<octave>4</octave>
</pitch>
<duration>12</duration>
<type>eighth</type>
<dot/>
<stem>up</stem>
<beam number="1">begin</beam>
<lyric number="1">
<syllabic>single</syllabic>
<text>dire</text>
</lyric>
<lyric number="2">
<syllabic>begin</syllabic>
<text>fri</text>
</lyric>
<lyric number="3">
<syllabic>end</syllabic>
<text>mer</text>
</lyric>
<lyric number="4">
<syllabic>single</syllabic>
<text>vous</text>
</lyric>
</note>
<note>
<pitch>
<step>F</step>
<alter>1</alter>
<octave>4</octave>
</pitch>
<duration>4</duration>
<tie type="start"/>
<type>16th</type>
<stem>up</stem>
<beam number="1">continue</beam>
<notations>
<tied type="start"/>
</notations>
<lyric number="1">
<syllabic>single</syllabic>
<text>du</text>
</lyric>
<lyric number="2">
<syllabic>middle</syllabic>
<text>an</text>
</lyric>
<lyric number="3">
<syllabic>begin</syllabic>
<text>beau</text>
</lyric>
<lyric number="4">
<syllabic>begin</syllabic>
<text>a</text>
</lyric>
</note>
<note>
<pitch>
<step>F</step>
<alter>1</alter>
<octave>4</octave>
</pitch>
<duration>8</duration>
<tie type="stop"/>
<type>eighth</type>
<stem>up</stem>
<beam number="1">begin</beam>
<notations>
<tied type="stop"/>
</notations>
</note>
<note>
<pitch>
<step>G</step>
<octave>4</octave>
</pitch>
<duration>8</duration>
<tie type="start"/>
<type>eighth</type>
<stem>up</stem>
<beam number="1">continue</beam>
<notations>
<tied type="start"/>
</notations>
<lyric number="1">
<syllabic>single</syllabic>
<text>tout</text>
</lyric>
<lyric number="2">
<syllabic>end</syllabic>
<text>dises.</text>
</lyric>
<lyric number="3">
<syllabic>end</syllabic>
<text>coup,</text>
</lyric>
<lyric number="4">
<syllabic>end</syllabic>
<text>vez.</text>
</lyric>
</note>
<note>
<pitch>
<step>G</step>
<octave>4</octave>
</pitch>
<duration>32</duration>
<tie type="stop"/>
<type>half</type>
<notations>
<tied type="stop"/>
</notations>
</note>
</measure>
<measure number="9">
<note>
<pitch>
<step>A</step>
<octave>4</octave>
</pitch>
<duration>16</duration>
<type>quarter</type>
<lyric number="1">
<syllabic>single</syllabic>
<text>Car</text>
</lyric>
<lyric number="2">
<syllabic>single</syllabic>
<text>On</text>
</lyric>
<lyric number="3">
<syllabic>begin</syllabic>
<text>Telle</text>
</lyric>
<lyric number="4">
<syllabic>single</syllabic>
<text>Nous</text>
</lyric>
</note>
<note>
<pitch>
<step>A</step>
<octave>4</octave>
</pitch>
<duration>16</duration>
<type>quarter</type>
<lyric number="1">
<syllabic>single</syllabic>
<text>en</text>
</lyric>
<lyric number="2">
<syllabic>single</syllabic>
<text>nous</text>
</lyric>
<lyric number="3">
<syllabic>end</syllabic>
<text>ment</text>
</lyric>
<lyric number="4">
<syllabic>single</syllabic>
<text>y</text>
</lyric>
</note>
<note>
<pitch>
<step>A</step>
<octave>4</octave>
</pitch>
<duration>16</duration>
<type>quarter</type>
<lyric number="1">
<syllabic>begin</syllabic>
<text>ma</text>
</lyric>
<lyric number="2">
<syllabic>single</syllabic>
<text>parle</text>
</lyric>
<lyric number="3">
<syllabic>single</syllabic>
<text>fort</text>
</lyric>
<lyric number="4">
<syllabic>begin</syllabic>
<text>ré</text>
</lyric>
</note>
<note>
<pitch>
<step>A</step>
<octave>4</octave>
</pitch>
<duration>16</duration>
<type>quarter</type>
<lyric number="1">
<syllabic>end</syllabic>
<text>tière</text>
</lyric>
<lyric number="2">
<syllabic>single</syllabic>
<text>de</text>
</lyric>
<lyric number="3">
<syllabic>single</syllabic>
<text>qu'il</text>
</lyric>
<lyric number="4">
<syllabic>middle</syllabic>
<text>pon</text>
</lyric>
</note>
</measure>
<measure number="10">
<note>
<pitch>
<step>A</step>
<octave>4</octave>
</pitch>
<duration>16</duration>
<type>quarter</type>
<lyric number="1">
<syllabic>single</syllabic>
<text>de</text>
</lyric>
<lyric number="2">
<syllabic>single</syllabic>
<text>Père</text>
</lyric>
<lyric number="3">
<syllabic>single</syllabic>
<text>en</text>
</lyric>
<lyric number="4">
<syllabic>end</syllabic>
<text>drons</text>
</lyric>
</note>
<note>
<pitch>
<step>B</step>
<octave>4</octave>
</pitch>
<duration>8</duration>
<type>eighth</type>
<stem>up</stem>
<beam number="1">begin</beam>
<lyric number="1">
<syllabic>begin</syllabic>
<text>croy</text>
</lyric>
<lyric number="2">
<syllabic>begin</syllabic>
<text>No</text>
</lyric>
<lyric number="3">
<syllabic>single</syllabic>
<text>est</text>
</lyric>
<lyric number="4">
<syllabic>single</syllabic>
<text>de</text>
</lyric>
</note>
<note>
<pitch>
<step>A</step>
<octave>4</octave>
</pitch>
<duration>8</duration>
<type>eighth</type>
<stem>up</stem>
<beam number="1">continue</beam>
<notations>
<slur type="start" number="1"/>
</notations>
<lyric number="1">
<syllabic>end</syllabic>
<text>ance,</text>
</lyric>
<lyric number="2">
<syllabic>end</syllabic>
<text>ël</text>
</lyric>
<lyric number="3">
<syllabic>single</syllabic>
<text>mort</text>
</lyric>
<lyric number="4">
<syllabic>single</syllabic>
<text>suite</text>
</lyric>
</note>
<note>
<pitch>
<step>G</step>
<octave>4</octave>
</pitch>
<duration>32</duration>
<type>half</type>
<notations>
<slur type="stop" number="1"/>
</notations>
</note>
</measure>
<measure number="11">
<note>
<pitch>
<step>A</step>
<octave>4</octave>
</pitch>
<duration>16</duration>
<type>quarter</type>
<lyric number="1">
<syllabic>single</syllabic>
<text>Ne</text>
</lyric>
<lyric number="2">
<syllabic>single</syllabic>
<text>Qui</text>
</lyric>
<lyric number="3">
<syllabic>single</syllabic>
<text>Car</text>
</lyric>
<lyric number="4">
<syllabic>single</syllabic>
<text>Et</text>
</lyric>
</note>
<note>
<pitch>
<step>A</step>
<octave>4</octave>
</pitch>
<duration>16</duration>
<type>quarter</type>
<lyric number="1">
<syllabic>begin</syllabic>
<text>r'tom</text>
</lyric>
<lyric number="2">
<syllabic>begin</syllabic>
<text>se</text>
</lyric>
<lyric number="3">
<syllabic>single</syllabic>
<text>il</text>
</lyric>
<lyric number="4">
<syllabic>begin</syllabic>
<text>a</text>
</lyric>
</note>
<note>
<pitch>
<step>B</step>
<octave>4</octave>
</pitch>
<duration>16</duration>
<type>quarter</type>
<lyric number="1">
<syllabic>end</syllabic>
<text>bez</text>
</lyric>
<lyric number="2">
<syllabic>end</syllabic>
<text>rait</text>
</lyric>
<lyric number="3">
<syllabic>single</syllabic>
<text>a</text>
</lyric>
<lyric number="4">
<syllabic>end</syllabic>
<text>vant</text>
</lyric>
</note>
<note>
<pitch>
<step>A</step>
<octave>4</octave>
</pitch>
<duration>16</duration>
<type>quarter</type>
<lyric number="1">
<syllabic>single</syllabic>
<text>pas</text>
</lyric>
<lyric number="2">
<syllabic>begin</syllabic>
<text>ve</text>
</lyric>
<lyric number="3">
<syllabic>single</syllabic>
<text>pris</text>
</lyric>
<lyric number="4">
<syllabic>single</syllabic>
<text>qu'on</text>
</lyric>
</note>
</measure>
<measure number="12">
<note>
<pitch>
<step>D</step>
<octave>5</octave>
</pitch>
<duration>16</duration>
<type>quarter</type>
<lyric number="1">
<syllabic>single</syllabic>
<text>en</text>
</lyric>
<lyric number="2">
<syllabic>end</syllabic>
<text>nu</text>
</lyric>
<lyric number="3">
<syllabic>single</syllabic>
<text>tous</text>
</lyric>
<lyric number="4">
<syllabic>single</syllabic>
<text>ne</text>
</lyric>
</note>
<note>
<pitch>
<step>D</step>
<octave>5</octave>
</pitch>
<duration>16</duration>
<type>quarter</type>
<lyric number="1">
<syllabic>begin</syllabic>
<text>en</text>
</lyric>
<lyric number="2">
<syllabic>single</syllabic>
<text>du</text>
</lyric>
<lyric number="3">
<syllabic>single</syllabic>
<text>nos</text>
</lyric>
<lyric number="4">
<syllabic>single</syllabic>
<text>se</text>
</lyric>
</note>
<note>
<pitch>
<step>D</step>
<octave>5</octave>
</pitch>
<duration>16</duration>
<type>quarter</type>
<lyric number="1">
<syllabic>end</syllabic>
<text>fance.</text>
</lyric>
<lyric number="2">
<syllabic>single</syllabic>
<text>ciel,</text>
</lyric>
<lyric number="3">
<syllabic>single</syllabic>
<text>torts.</text>
</lyric>
<lyric number="4">
<syllabic>single</syllabic>
<text>quitte</text>
</lyric>
</note>
<note>
<rest/>
<duration>16</duration>
<type>quarter</type>
</note>
</measure>
<measure number="13">
<note>
<pitch>
<step>G</step>
<octave>4</octave>
</pitch>
<duration>16</duration>
<type>quarter</type>
<lyric number="1">
<syllabic>begin</syllabic>
<text>Dites</text>
</lyric>
<lyric number="2">
<syllabic>single</syllabic>
<text>On</text>
</lyric>
<lyric number="3">
<syllabic>single</syllabic>
<text>Mais</text>
</lyric>
<lyric number="4">
<syllabic>single</syllabic>
<text>Ce</text>
</lyric>
</note>
<note>
<pitch>
<step>G</step>
<octave>4</octave>
</pitch>
<duration>16</duration>
<type>quarter</type>
<lyric number="1">
<syllabic>end</syllabic>
<text>nous</text>
</lyric>
<lyric number="2">
<syllabic>single</syllabic>
<text>nous</text>
</lyric>
<lyric number="3">
<syllabic>begin</syllabic>
<text>i</text>
</lyric>
<lyric number="4">
<syllabic>begin</syllabic>
<text>se</text>
</lyric>
</note>
<note>
<pitch>
<step>G</step>
<octave>4</octave>
</pitch>
<duration>16</duration>
<type>quarter</type>
<lyric number="1">
<syllabic>single</syllabic>
<text>une</text>
</lyric>
<lyric number="2">
<syllabic>begin</syllabic>
<text>bom</text>
</lyric>
<lyric number="3">
<syllabic>middle</syllabic>
<text>nu</text>
</lyric>
<lyric number="4">
<syllabic>end</syllabic>
<text>rait</text>
</lyric>
</note>
<note>
<pitch>
<step>G</step>
<octave>4</octave>
</pitch>
<duration>16</duration>
<type>quarter</type>
<lyric number="1">
<syllabic>single</syllabic>
<text>bonne</text>
</lyric>
<lyric number="2">
<syllabic>end</syllabic>
<text>barde</text>
</lyric>
<lyric number="3">
<syllabic>end</syllabic>
<text>tile</text>
</lyric>
<lyric number="4">
<syllabic>single</syllabic>
<text>quand</text>
</lyric>
</note>
</measure>
<measure number="14">
<note>
<pitch>
<step>A</step>
<octave>4</octave>
</pitch>
<duration>16</duration>
<type>quarter</type>
<lyric number="1">
<syllabic>single</syllabic>
<text>fois</text>
</lyric>
<lyric number="2">
<syllabic>single</syllabic>
<text>de</text>
</lyric>
<lyric number="3">
<syllabic>single</syllabic>
<text>de</text>
</lyric>
<lyric number="4">
<syllabic>single</syllabic>
<text>même</text>
</lyric>
</note>
<note>
<pitch>
<step>B</step>
<octave>4</octave>
</pitch>
<duration>8</duration>
<type>eighth</type>
<stem>down</stem>
<beam number="1">begin</beam>
<lyric number="1">
<syllabic>single</syllabic>
<text>pour</text>
</lyric>
<lyric number="2">
<syllabic>begin</syllabic>
<text>la</text>
</lyric>
<lyric number="3">
<syllabic>begin</syllabic>
<text>pleu</text>
</lyric>
<lyric number="4">
<syllabic>begin</syllabic>
<text>sym</text>
</lyric>
</note>
<note>
<pitch>
<step>B</step>
<octave>4</octave>
</pitch>
<duration>8</duration>
<tie type="start"/>
<type>eighth</type>
<stem>down</stem>
<beam number="1">continue</beam>
<notations>
<tied type="start"/>
</notations>
<lyric number="1">
<syllabic>single</syllabic>
<text>toutes</text>
</lyric>
<lyric number="2">
<syllabic>end</syllabic>
<text>pins</text>
</lyric>
<lyric number="3">
<syllabic>end</syllabic>
<text>rer</text>
</lyric>
<lyric number="4">
<syllabic>end</syllabic>
<text>pa</text>
</lyric>
</note>
<note>
<pitch>
<step>B</step>
<octave>4</octave>
</pitch>
<duration>32</duration>
<tie type="stop"/>
<type>half</type>
<notations>
<tied type="stop"/>
</notations>
</note>
</measure>
<measure number="15">
<note>
<pitch>
<step>C</step>
<octave>5</octave>
</pitch>
<duration>16</duration>
<type>quarter</type>
<lyric number="1">
<syllabic>begin</syllabic>
<text>Quel</text>
</lyric>
<lyric number="2">
<syllabic>single</syllabic>
<text>Pleins</text>
</lyric>
<lyric number="3">
<syllabic>single</syllabic>
<text>Car</text>
</lyric>
<lyric number="4">
<syllabic>single</syllabic>
<text>De</text>
</lyric>
</note>
<note>
<pitch>
<step>C</step>
<octave>5</octave>
</pitch>
<duration>16</duration>
<type>quarter</type>
<lyric number="1">
<syllabic>end</syllabic>
<text>que</text>
</lyric>
<lyric number="2">
<syllabic>single</syllabic>
<text>d'œufs</text>
</lyric>
<lyric number="3">
<syllabic>single</syllabic>
<text>Dieu</text>
</lyric>
<lyric number="4">
<syllabic>single</syllabic>
<text>nous</text>
</lyric>
</note>
<note>
<pitch>
<step>B</step>
<octave>4</octave>
</pitch>
<duration>16</duration>
<type>quarter</type>
<lyric number="1">
<syllabic>single</syllabic>
<text>chose</text>
</lyric>
<lyric number="2">
<syllabic>single</syllabic>
<text>de</text>
</lyric>
<lyric number="3">
<syllabic>single</syllabic>
<text>l'a</text>
</lyric>
<lyric number="4">
<syllabic>begin</syllabic>
<text>lais</text>
</lyric>
</note>
<note>
<pitch>
<step>G</step>
<octave>4</octave>
</pitch>
<duration>16</duration>
<type>quarter</type>
<lyric number="1">
<syllabic>single</syllabic>
<text>qui</text>
</lyric>
<lyric number="2">
<syllabic>single</syllabic>
<text>Pâques</text>
</lyric>
<lyric number="3">
<syllabic>begin</syllabic>
<text>res</text>
</lyric>
<lyric number="4">
<syllabic>end</syllabic>
<text>ser</text>
</lyric>
</note>
</measure>
<measure number="16">
<note>
<pitch>
<step>A</step>
<octave>4</octave>
</pitch>
<duration>16</duration>
<type>quarter</type>
<lyric number="1">
<syllabic>single</syllabic>
<text>tienne</text>
</lyric>
<lyric number="2">
<syllabic>single</syllabic>
<text>en</text>
</lyric>
<lyric number="3">
<syllabic>middle</syllabic>
<text>sus</text>
</lyric>
<lyric number="4">
<syllabic>begin</syllabic>
<text>l'cho</text>
</lyric>
</note>
<note>
<pitch>
<step>F</step>
<alter>1</alter>
<octave>4</octave>
</pitch>
<duration>8</duration>
<type>eighth</type>
<stem>up</stem>
<beam number="1">begin</beam>
<lyric number="1">
<syllabic>single</syllabic>
<text>la</text>
</lyric>
<lyric number="2">
<syllabic>begin</syllabic>
<text>masse</text>
</lyric>
<lyric number="3">
<syllabic>middle</syllabic>
<text>ci</text>
</lyric>
<lyric number="4">
<syllabic>middle</syllabic>
<text>co</text>
</lyric>
</note>
<note>
<pitch>
<step>G</step>
<octave>4</octave>
</pitch>
<duration>8</duration>
<tie type="start"/>
<type>eighth</type>
<stem>up</stem>
<beam number="1">continue</beam>
<notations>
<tied type="start"/>
</notations>
<lyric number="1">
<syllabic>single</syllabic>
<text>route.</text>
</lyric>
<lyric number="2">
<syllabic>end</syllabic>
<text>pain.</text>
</lyric>
<lyric number="3">
<syllabic>end</syllabic>
<text>té.</text>
</lyric>
<lyric number="4">
<syllabic>end</syllabic>
<text>lat.</text>
</lyric>
</note>
<note>
<pitch>
<step>G</step>
<octave>4</octave>
</pitch>
<duration>32</duration>
<tie type="stop"/>
<type>half</type>
<notations>
<tied type="stop"/>
</notations>
</note>
</measure>
<measure number="17">
<note>
<pitch>
<step>C</step>
<octave>5</octave>
</pitch>
<duration>32</duration>
<type>half</type>
<lyric number="1">
<syllabic>single</syllabic>
<text>Car</text>
</lyric>
</note>
<note>
<pitch>
<step>C</step>
<octave>5</octave>
</pitch>
<duration>24</duration>
<type>quarter</type>
<dot/>
<lyric number="1">
<syllabic>single</syllabic>
<text>on</text>
</lyric>
</note>
<note>
<pitch>
<step>C</step>
<octave>5</octave>
</pitch>
<duration>8</duration>
<type>eighth</type>
<lyric number="1">
<syllabic>single</syllabic>
<text>vous</text>
</lyric>
</note>
</measure>
<measure number="18">
<note>
<pitch>
<step>B</step>
<octave>4</octave>
</pitch>
<duration>4</duration>
<type>16th</type>
<stem>up</stem>
<beam number="1">begin</beam>
<lyric number="1">
<syllabic>single</syllabic>
<text>a</text>
</lyric>
</note>
<note>
<pitch>
<step>A</step>
<octave>4</octave>
</pitch>
<duration>12</duration>
<type>eighth</type>
<dot/>
<stem>up</stem>
<beam number="1">continue</beam>
<lyric number="1">
<syllabic>single</syllabic>
<text>à</text>
</lyric>
</note>
<note>
<pitch>
<step>G</step>
<octave>4</octave>
</pitch>
<duration>16</duration>
<type>quarter</type>
<lyric number="1">
<syllabic>single</syllabic>
<text>l'œil,</text>
</lyric>
</note>
<note>
<rest/>
<duration>32</duration>
<type>half</type>
</note>
</measure>
<measure number="19">
<note>
<pitch>
<step>G</step>
<octave>4</octave>
</pitch>
<duration>16</duration>
<type>quarter</type>
<lyric number="1">
<syllabic>single</syllabic>
<text>On</text>
</lyric>
</note>
<note>
<pitch>
<step>G</step>
<octave>4</octave>
</pitch>
<duration>8</duration>
<type>eighth</type>
<stem>up</stem>
<beam number="1">begin</beam>
<lyric number="1">
<syllabic>begin</syllabic>
<text>é</text>
</lyric>
</note>
<note>
<pitch>
<step>B</step>
<octave>4</octave>
</pitch>
<duration>8</duration>
<type>eighth</type>
<stem>up</stem>
<beam number="1">continue</beam>
<lyric number="1">
<syllabic>end</syllabic>
<text>coute</text>
</lyric>
</note>
<note>
<pitch>
<step>A</step>
<octave>4</octave>
</pitch>
<duration>8</duration>
<type>eighth</type>
<stem>up</stem>
<beam number="1">begin</beam>
<lyric number="1">
<syllabic>single</syllabic>
<text>ce</text>
</lyric>
</note>
<note>
<pitch>
<step>G</step>
<octave>4</octave>
</pitch>
<duration>8</duration>
<tie type="start"/>
<type>eighth</type>
<stem>up</stem>
<beam number="1">continue</beam>
<notations>
<tied type="start"/>
</notations>
<lyric number="1">
<syllabic>single</syllabic>
<text>qu'on</text>
</lyric>
</note>
<note>
<pitch>
<step>G</step>
<octave>4</octave>
</pitch>
<duration>8</duration>
<tie type="stop"/>
<type>eighth</type>
<stem>up</stem>
<beam number="1">begin</beam>
<notations>
<tied type="stop"/>
</notations>
</note>
<note>
<pitch>
<step>B</step>
<octave>4</octave>
</pitch>
<duration>8</duration>
<tie type="start"/>
<type>eighth</type>
<stem>up</stem>
<beam number="1">continue</beam>
<notations>
<tied type="start"/>
</notations>
<lyric number="1">
<syllabic>single</syllabic>
<text>dit,</text>
</lyric>
</note>
</measure>
<measure number="20">
<note>
<pitch>
<step>B</step>
<octave>4</octave>
</pitch>
<duration>32</duration>
<tie type="stop"/>
<type>half</type>
<notations>
<tied type="stop"/>
</notations>
</note>
<note>
<rest/>
<duration>32</duration>
<type>half</type>
</note>
</measure>
<measure number="21">
<note>
<pitch>
<step>C</step>
<octave>5</octave>
</pitch>
<duration>32</duration>
<type>half</type>
<lyric number="1">
<syllabic>single</syllabic>
<text>On</text>
</lyric>
</note>
<note>
<pitch>
<step>C</step>
<octave>5</octave>
</pitch>
<duration>24</duration>
<type>quarter</type>
<dot/>
<lyric number="1">
<syllabic>single</syllabic>
<text>n'est</text>
</lyric>
</note>
<note>
<pitch>
<step>C</step>
<octave>5</octave>
</pitch>
<duration>8</duration>
<type>eighth</type>
<lyric number="1">
<syllabic>single</syllabic>
<text>pas</text>
</lyric>
</note>
</measure>
<measure number="22">
<note>
<pitch>
<step>B</step>
<octave>4</octave>
</pitch>
<duration>4</duration>
<type>16th</type>
<stem>up</stem>
<beam number="1">begin</beam>
<lyric number="1">
<syllabic>single</syllabic>
<text>dur</text>
</lyric>
</note>
<note>
<pitch>
<step>A</step>
<octave>4</octave>
</pitch>
<duration>12</duration>
<type>eighth</type>
<dot/>
<stem>up</stem>
<beam number="1">continue</beam>
<lyric number="1">
<syllabic>single</syllabic>
<text>d'la</text>
</lyric>
</note>
<note>
<pitch>
<step>G</step>
<octave>4</octave>
</pitch>
<duration>16</duration>
<type>quarter</type>
<lyric number="1">
<syllabic>single</syllabic>
<text>feuille,</text>
</lyric>
</note>
<note>
<rest/>
<duration>32</duration>
<type>half</type>
</note>
</measure>
<measure number="23">
<note>
<pitch>
<step>G</step>
<octave>4</octave>
</pitch>
<duration>16</duration>
<type>quarter</type>
<lyric number="1">
<syllabic>single</syllabic>
<text>On</text>
</lyric>
</note>
<note>
<pitch>
<step>G</step>
<octave>4</octave>
</pitch>
<duration>8</duration>
<type>eighth</type>
<stem>up</stem>
<beam number="1">begin</beam>
<lyric number="1">
<syllabic>single</syllabic>
<text>a</text>
</lyric>
</note>
<note>
<pitch>
<step>B</step>
<octave>4</octave>
</pitch>
<duration>8</duration>
<type>eighth</type>
<stem>up</stem>
<beam number="1">continue</beam>
<lyric number="1">
<syllabic>single</syllabic>
<text>très</text>
</lyric>
</note>
<note>
<pitch>
<step>A</step>
<octave>4</octave>
</pitch>
<duration>8</duration>
<type>eighth</type>
<stem>up</stem>
<beam number="1">begin</beam>
<lyric number="1">
<syllabic>single</syllabic>
<text>bien</text>
</lyric>
</note>
<note>
<pitch>
<step>G</step>
<octave>4</octave>
</pitch>
<duration>8</duration>
<type>eighth</type>
<stem>up</stem>
<beam number="1">continue</beam>
<lyric number="1">
<syllabic>begin</syllabic>
<text>com</text>
</lyric>
</note>
<note>
<pitch>
<step>G</step>
<octave>4</octave>
</pitch>
<duration>16</duration>
<tie type="start"/>
<type>quarter</type>
<notations>
<tied type="start"/>
</notations>
<lyric number="1">
<syllabic>end</syllabic>
<text>pris.</text>
</lyric>
</note>
</measure>
<measure number="24">
<note>
<pitch>
<step>G</step>
<octave>4</octave>
</pitch>
<duration>32</duration>
<tie type="stop"/>
<type>half</type>
<notations>
<tied type="stop"/>
</notations>
</note>
<note>
<rest/>
<duration>32</duration>
<type>half</type>
</note>
<barline location="right">
<bar-style>light-heavy</bar-style>
<repeat direction="backward" times="4"/>
</barline>
<barline location="right">
<bar-style>light-heavy</bar-style>
</barline>
</measure>
</part>
</score-partwise>
