<?xml version="1.0" encoding="UTF-8" standalone='no'?>
<!DOCTYPE score-partwise PUBLIC "-//Recordare//DTD MusicXML 1.0 Partwise//EN" "http://www.musicxml.org/dtds/partwise.dtd">
<score-partwise>
<work>
<work-title>J'ai un coeur qui bat</work-title>
</work>
<identification>
<creator type="transcriber">Denis et Isabelle Hey</creator>
<rights>© 2005 Denis et Isabelle Hey (Den-Isa)</rights>
<encoding>
<software>Noteworthy Composer</software>
<encoding-date>2013-01-19</encoding-date>
</encoding>
</identification>
<part-list>
<score-part id="P1">
<part-name>Mélodie</part-name>
<score-instrument id="P1-I1">
<instrument-name>String Ensemble 1</instrument-name>
</score-instrument>
<midi-instrument id="P1-I1">
<midi-channel>1</midi-channel>
<midi-program>50</midi-program>
</midi-instrument>
</score-part>
</part-list>
<part id="P1">
<measure number="1">
<attributes>
<divisions>16</divisions>
</attributes>
<attributes>
<clef>
<sign>G</sign>
<line>2</line>
</clef>
</attributes>
<attributes>
<key>
<fifths>-3</fifths>
</key>
</attributes>
<attributes>
<time>
<beats>4</beats>
<beat-type>4</beat-type>
</time>
</attributes>
<direction>
<direction-type>
<metronome parentheses="no">
<beat-unit>quarter</beat-unit>
<per-minute>100</per-minute>
</metronome>
</direction-type>
<sound tempo="100"/>
</direction>
<note>
<rest/>
<duration>4</duration>
<type>16th</type>
</note>
<note>
<pitch>
<step>B</step>
<alter>-1</alter>
<octave>3</octave>
</pitch>
<duration>8</duration>
<type>eighth</type>
<stem>up</stem>
<beam number="1">begin</beam>
<lyric number="1">
<syllabic>single</syllabic>
<text>J'ai</text>
</lyric>
<lyric number="2">
<syllabic>single</syllabic>
<text></text>
</lyric>
</note>
<note>
<pitch>
<step>B</step>
<alter>-1</alter>
<octave>3</octave>
</pitch>
<duration>4</duration>
<type>16th</type>
<stem>up</stem>
<beam number="1">continue</beam>
<lyric number="1">
<syllabic>single</syllabic>
<text>un</text>
</lyric>
<lyric number="2">
<syllabic>single</syllabic>
<text></text>
</lyric>
</note>
<note>
<pitch>
<step>B</step>
<alter>-1</alter>
<octave>3</octave>
</pitch>
<duration>8</duration>
<type>eighth</type>
<stem>up</stem>
<beam number="1">begin</beam>
<lyric number="1">
<syllabic>single</syllabic>
<text>cœur</text>
</lyric>
<lyric number="2">
<syllabic>single</syllabic>
<text></text>
</lyric>
</note>
<note>
<pitch>
<step>C</step>
<octave>4</octave>
</pitch>
<duration>8</duration>
<type>eighth</type>
<stem>up</stem>
<beam number="1">continue</beam>
<lyric number="1">
<syllabic>single</syllabic>
<text>qui</text>
</lyric>
<lyric number="2">
<syllabic>single</syllabic>
<text></text>
</lyric>
</note>
</measure>
<measure number="2">
<barline location="left">
<bar-style>heavy-light</bar-style>
<repeat direction="forward"/>
</barline>
<direction>
<direction-type>
<segno/>
</direction-type>
<sound segno=""/>
</direction>
<note>
<pitch>
<step>C</step>
<octave>4</octave>
</pitch>
<duration>16</duration>
<type>quarter</type>
<lyric number="1">
<syllabic>single</syllabic>
<text>bat</text>
</lyric>
<lyric number="2">
<syllabic>single</syllabic>
<text></text>
</lyric>
</note>
<note>
<rest/>
<duration>16</duration>
<type>quarter</type>
</note>
<note>
<rest/>
<duration>4</duration>
<type>16th</type>
</note>
<note>
<pitch>
<step>B</step>
<alter>-1</alter>
<octave>3</octave>
</pitch>
<duration>4</duration>
<type>16th</type>
<stem>up</stem>
<beam number="1">begin</beam>
<lyric number="1">
<syllabic>single</syllabic>
<text>au</text>
</lyric>
<lyric number="2">
<syllabic>single</syllabic>
<text></text>
</lyric>
</note>
<note>
<pitch>
<step>B</step>
<alter>-1</alter>
<octave>3</octave>
</pitch>
<duration>4</duration>
<type>16th</type>
<stem>up</stem>
<beam number="1">end</beam>
<lyric number="1">
<syllabic>begin</syllabic>
<text>ryth</text>
</lyric>
<lyric number="2">
<syllabic>single</syllabic>
<text></text>
</lyric>
</note>
<note>
<pitch>
<step>B</step>
<alter>-1</alter>
<octave>3</octave>
</pitch>
<duration>4</duration>
<type>16th</type>
<stem>up</stem>
<beam number="1">continue</beam>
<lyric number="1">
<syllabic>end</syllabic>
<text>me</text>
</lyric>
<lyric number="2">
<syllabic>single</syllabic>
<text></text>
</lyric>
</note>
<note>
<pitch>
<step>B</step>
<alter>-1</alter>
<octave>3</octave>
</pitch>
<duration>8</duration>
<type>eighth</type>
<stem>up</stem>
<beam number="1">begin</beam>
<lyric number="1">
<syllabic>single</syllabic>
<text>de</text>
</lyric>
<lyric number="2">
<syllabic>single</syllabic>
<text></text>
</lyric>
</note>
<note>
<pitch>
<step>C</step>
<octave>4</octave>
</pitch>
<duration>8</duration>
<type>eighth</type>
<stem>up</stem>
<beam number="1">continue</beam>
<lyric number="1">
<syllabic>single</syllabic>
<text>son</text>
</lyric>
<lyric number="2">
<syllabic>single</syllabic>
<text></text>
</lyric>
</note>
</measure>
<measure number="3">
<note>
<pitch>
<step>C</step>
<octave>4</octave>
</pitch>
<duration>16</duration>
<type>quarter</type>
<lyric number="1">
<syllabic>single</syllabic>
<text>cœur,</text>
</lyric>
<lyric number="2">
<syllabic>single</syllabic>
<text></text>
</lyric>
</note>
<note>
<rest/>
<duration>16</duration>
<type>quarter</type>
</note>
<note>
<rest/>
<duration>8</duration>
<type>eighth</type>
</note>
<note>
<pitch>
<step>B</step>
<alter>-1</alter>
<octave>3</octave>
</pitch>
<duration>8</duration>
<type>eighth</type>
<lyric number="1">
<syllabic>single</syllabic>
<text>Oui,</text>
</lyric>
<lyric number="2">
<syllabic>single</syllabic>
<text></text>
</lyric>
</note>
<note>
<pitch>
<step>B</step>
<alter>-1</alter>
<octave>3</octave>
</pitch>
<duration>8</duration>
<type>eighth</type>
<stem>up</stem>
<beam number="1">begin</beam>
<lyric number="1">
<syllabic>single</syllabic>
<text>pas</text>
</lyric>
<lyric number="2">
<syllabic>single</syllabic>
<text></text>
</lyric>
</note>
<note>
<pitch>
<step>C</step>
<octave>4</octave>
</pitch>
<duration>8</duration>
<type>eighth</type>
<stem>up</stem>
<beam number="1">continue</beam>
<lyric number="1">
<syllabic>single</syllabic>
<text>à</text>
</lyric>
<lyric number="2">
<syllabic>single</syllabic>
<text></text>
</lyric>
</note>
</measure>
<measure number="4">
<note>
<pitch>
<step>E</step>
<alter>-1</alter>
<octave>4</octave>
</pitch>
<duration>8</duration>
<type>eighth</type>
<stem>up</stem>
<beam number="1">begin</beam>
<lyric number="1">
<syllabic>single</syllabic>
<text>pas</text>
</lyric>
<lyric number="2">
<syllabic>single</syllabic>
<text></text>
</lyric>
</note>
<note>
<pitch>
<step>E</step>
<alter>-1</alter>
<octave>4</octave>
</pitch>
<duration>8</duration>
<type>eighth</type>
<stem>up</stem>
<beam number="1">continue</beam>
<lyric number="1">
<syllabic>single</syllabic>
<text>je</text>
</lyric>
<lyric number="2">
<syllabic>single</syllabic>
<text></text>
</lyric>
</note>
<note>
<pitch>
<step>E</step>
<alter>-1</alter>
<octave>4</octave>
</pitch>
<duration>8</duration>
<type>eighth</type>
<stem>up</stem>
<beam number="1">begin</beam>
<lyric number="1">
<syllabic>single</syllabic>
<text>marche</text>
</lyric>
<lyric number="2">
<syllabic>single</syllabic>
<text></text>
</lyric>
</note>
<note>
<pitch>
<step>B</step>
<alter>-1</alter>
<octave>3</octave>
</pitch>
<duration>8</duration>
<type>eighth</type>
<stem>up</stem>
<beam number="1">continue</beam>
<lyric number="1">
<syllabic>begin</syllabic>
<text>a</text>
</lyric>
<lyric number="2">
<syllabic>single</syllabic>
<text></text>
</lyric>
</note>
<note>
<pitch>
<step>B</step>
<alter>-1</alter>
<octave>3</octave>
</pitch>
<duration>8</duration>
<type>eighth</type>
<stem>up</stem>
<beam number="1">begin</beam>
<lyric number="1">
<syllabic>end</syllabic>
<text>vec</text>
</lyric>
<lyric number="2">
<syllabic>single</syllabic>
<text></text>
</lyric>
</note>
<note>
<pitch>
<step>B</step>
<alter>-1</alter>
<octave>3</octave>
</pitch>
<duration>8</duration>
<type>eighth</type>
<stem>up</stem>
<beam number="1">continue</beam>
<lyric number="1">
<syllabic>single</syllabic>
<text>le</text>
</lyric>
<lyric number="2">
<syllabic>single</syllabic>
<text></text>
</lyric>
</note>
<note>
<pitch>
<step>C</step>
<octave>4</octave>
</pitch>
<duration>8</duration>
<type>eighth</type>
<stem>up</stem>
<beam number="1">begin</beam>
<lyric number="1">
<syllabic>begin</syllabic>
<text>Sei</text>
</lyric>
<lyric number="2">
<syllabic>single</syllabic>
<text></text>
</lyric>
</note>
<note>
<pitch>
<step>C</step>
<octave>4</octave>
</pitch>
<duration>8</duration>
<type>eighth</type>
<stem>up</stem>
<beam number="1">continue</beam>
<lyric number="1">
<syllabic>end</syllabic>
<text>gneur.</text>
</lyric>
<lyric number="2">
<syllabic>single</syllabic>
<text></text>
</lyric>
</note>
</measure>
<measure number="5">
<note>
<rest/>
<duration>32</duration>
<type>half</type>
</note>
<note>
<rest/>
<duration>4</duration>
<type>16th</type>
</note>
<note>
<pitch>
<step>B</step>
<alter>-1</alter>
<octave>3</octave>
</pitch>
<duration>8</duration>
<type>eighth</type>
<stem>up</stem>
<beam number="1">begin</beam>
<lyric number="1">
<syllabic>single</syllabic>
<text>J'ai</text>
</lyric>
<lyric number="2">
<syllabic>single</syllabic>
<text></text>
</lyric>
</note>
<note>
<pitch>
<step>B</step>
<alter>-1</alter>
<octave>3</octave>
</pitch>
<duration>4</duration>
<type>16th</type>
<stem>up</stem>
<beam number="1">continue</beam>
<lyric number="1">
<syllabic>single</syllabic>
<text>un</text>
</lyric>
<lyric number="2">
<syllabic>single</syllabic>
<text></text>
</lyric>
</note>
<note>
<pitch>
<step>B</step>
<alter>-1</alter>
<octave>3</octave>
</pitch>
<duration>8</duration>
<type>eighth</type>
<stem>up</stem>
<beam number="1">begin</beam>
<lyric number="1">
<syllabic>single</syllabic>
<text>cœur</text>
</lyric>
<lyric number="2">
<syllabic>single</syllabic>
<text></text>
</lyric>
</note>
<note>
<pitch>
<step>C</step>
<octave>4</octave>
</pitch>
<duration>8</duration>
<type>eighth</type>
<stem>up</stem>
<beam number="1">continue</beam>
<lyric number="1">
<syllabic>single</syllabic>
<text>qui</text>
</lyric>
<lyric number="2">
<syllabic>single</syllabic>
<text></text>
</lyric>
</note>
</measure>
<measure number="6">
<note>
<pitch>
<step>C</step>
<octave>4</octave>
</pitch>
<duration>16</duration>
<type>quarter</type>
<lyric number="1">
<syllabic>single</syllabic>
<text>bat,</text>
</lyric>
<lyric number="2">
<syllabic>single</syllabic>
<text></text>
</lyric>
</note>
<note>
<rest/>
<duration>16</duration>
<type>quarter</type>
</note>
<note>
<rest/>
<duration>4</duration>
<type>16th</type>
</note>
<note>
<pitch>
<step>B</step>
<alter>-1</alter>
<octave>3</octave>
</pitch>
<duration>4</duration>
<type>16th</type>
<stem>up</stem>
<beam number="1">begin</beam>
<lyric number="1">
<syllabic>single</syllabic>
<text>un</text>
</lyric>
<lyric number="2">
<syllabic>single</syllabic>
<text></text>
</lyric>
</note>
<note>
<pitch>
<step>B</step>
<alter>-1</alter>
<octave>3</octave>
</pitch>
<duration>4</duration>
<type>16th</type>
<stem>up</stem>
<beam number="1">end</beam>
<lyric number="1">
<syllabic>begin</syllabic>
<text>ry</text>
</lyric>
<lyric number="2">
<syllabic>single</syllabic>
<text></text>
</lyric>
</note>
<note>
<pitch>
<step>B</step>
<alter>-1</alter>
<octave>3</octave>
</pitch>
<duration>4</duration>
<type>16th</type>
<stem>up</stem>
<beam number="1">continue</beam>
<lyric number="1">
<syllabic>end</syllabic>
<text>thme</text>
</lyric>
<lyric number="2">
<syllabic>single</syllabic>
<text></text>
</lyric>
</note>
<note>
<pitch>
<step>B</step>
<alter>-1</alter>
<octave>3</octave>
</pitch>
<duration>8</duration>
<type>eighth</type>
<stem>up</stem>
<beam number="1">begin</beam>
<lyric number="1">
<syllabic>begin</syllabic>
<text>dif</text>
</lyric>
<lyric number="2">
<syllabic>single</syllabic>
<text></text>
</lyric>
</note>
<note>
<pitch>
<step>C</step>
<octave>4</octave>
</pitch>
<duration>8</duration>
<type>eighth</type>
<stem>up</stem>
<beam number="1">continue</beam>
<lyric number="1">
<syllabic>middle</syllabic>
<text>fé</text>
</lyric>
<lyric number="2">
<syllabic>single</syllabic>
<text></text>
</lyric>
</note>
<direction placement="above">
<direction-type>
<words relative-y="60">To Coda</words>
</direction-type>
<sound tocoda=""/>
</direction>
</measure>
<measure number="7">
<note>
<pitch>
<step>C</step>
<octave>4</octave>
</pitch>
<duration>16</duration>
<type>quarter</type>
<lyric number="1">
<syllabic>end</syllabic>
<text>rent,</text>
</lyric>
<lyric number="2">
<syllabic>single</syllabic>
<text></text>
</lyric>
</note>
<note>
<rest/>
<duration>16</duration>
<type>quarter</type>
</note>
<note>
<rest/>
<duration>8</duration>
<type>eighth</type>
</note>
<note>
<pitch>
<step>B</step>
<alter>-1</alter>
<octave>3</octave>
</pitch>
<duration>8</duration>
<type>eighth</type>
<lyric number="1">
<syllabic>begin</syllabic>
<text>De</text>
</lyric>
<lyric number="2">
<syllabic>single</syllabic>
<text></text>
</lyric>
</note>
<note>
<pitch>
<step>B</step>
<alter>-1</alter>
<octave>3</octave>
</pitch>
<duration>8</duration>
<type>eighth</type>
<stem>up</stem>
<beam number="1">begin</beam>
<lyric number="1">
<syllabic>end</syllabic>
<text>puis</text>
</lyric>
<lyric number="2">
<syllabic>single</syllabic>
<text></text>
</lyric>
</note>
<note>
<pitch>
<step>C</step>
<octave>4</octave>
</pitch>
<duration>8</duration>
<type>eighth</type>
<stem>up</stem>
<beam number="1">continue</beam>
<lyric number="1">
<syllabic>single</syllabic>
<text>que</text>
</lyric>
<lyric number="2">
<syllabic>single</syllabic>
<text></text>
</lyric>
</note>
</measure>
<measure number="8">
<note>
<pitch>
<step>E</step>
<alter>-1</alter>
<octave>4</octave>
</pitch>
<duration>8</duration>
<type>eighth</type>
<stem>up</stem>
<beam number="1">begin</beam>
<lyric number="1">
<syllabic>single</syllabic>
<text>j'ai</text>
</lyric>
<lyric number="2">
<syllabic>single</syllabic>
<text></text>
</lyric>
</note>
<note>
<pitch>
<step>E</step>
<alter>-1</alter>
<octave>4</octave>
</pitch>
<duration>8</duration>
<type>eighth</type>
<stem>up</stem>
<beam number="1">continue</beam>
<lyric number="1">
<syllabic>begin</syllabic>
<text>lais</text>
</lyric>
<lyric number="2">
<syllabic>single</syllabic>
<text></text>
</lyric>
</note>
<note>
<pitch>
<step>E</step>
<alter>-1</alter>
<octave>4</octave>
</pitch>
<duration>8</duration>
<type>eighth</type>
<stem>up</stem>
<beam number="1">begin</beam>
<lyric number="1">
<syllabic>end</syllabic>
<text>sé</text>
</lyric>
<lyric number="2">
<syllabic>single</syllabic>
<text></text>
</lyric>
</note>
<note>
<pitch>
<step>B</step>
<alter>-1</alter>
<octave>3</octave>
</pitch>
<duration>8</duration>
<type>eighth</type>
<stem>up</stem>
<beam number="1">continue</beam>
<lyric number="1">
<syllabic>single</syllabic>
<text>Dieu</text>
</lyric>
<lyric number="2">
<syllabic>single</syllabic>
<text></text>
</lyric>
</note>
<note>
<pitch>
<step>B</step>
<alter>-1</alter>
<octave>3</octave>
</pitch>
<duration>8</duration>
<type>eighth</type>
<stem>up</stem>
<beam number="1">begin</beam>
<lyric number="1">
<syllabic>begin</syllabic>
<text>mar</text>
</lyric>
<lyric number="2">
<syllabic>single</syllabic>
<text></text>
</lyric>
</note>
<note>
<pitch>
<step>B</step>
<alter>-1</alter>
<octave>3</octave>
</pitch>
<duration>8</duration>
<type>eighth</type>
<stem>up</stem>
<beam number="1">continue</beam>
<lyric number="1">
<syllabic>end</syllabic>
<text>cher</text>
</lyric>
<lyric number="2">
<syllabic>single</syllabic>
<text></text>
</lyric>
</note>
<note>
<pitch>
<step>C</step>
<octave>4</octave>
</pitch>
<duration>8</duration>
<type>eighth</type>
<stem>up</stem>
<beam number="1">begin</beam>
<lyric number="1">
<syllabic>begin</syllabic>
<text>de</text>
</lyric>
<lyric number="2">
<syllabic>single</syllabic>
<text></text>
</lyric>
</note>
<note>
<pitch>
<step>C</step>
<octave>4</octave>
</pitch>
<duration>8</duration>
<type>eighth</type>
<stem>up</stem>
<beam number="1">continue</beam>
<lyric number="1">
<syllabic>end</syllabic>
<text>vant.</text>
</lyric>
<lyric number="2">
<syllabic>single</syllabic>
<text></text>
</lyric>
</note>
</measure>
<measure number="9">
<note>
<rest/>
<duration>32</duration>
<type>half</type>
</note>
<note>
<rest/>
<duration>4</duration>
<type>16th</type>
</note>
<note>
<pitch>
<step>F</step>
<octave>4</octave>
</pitch>
<duration>8</duration>
<type>eighth</type>
<stem>up</stem>
<beam number="1">begin</beam>
<lyric number="1">
<syllabic>single</syllabic>
<text>1. Moi,</text>
</lyric>
<lyric number="2">
<syllabic>single</syllabic>
<text>2. Je</text>
</lyric>
</note>
<note>
<pitch>
<step>E</step>
<alter>-1</alter>
<octave>4</octave>
</pitch>
<duration>4</duration>
<type>16th</type>
<stem>up</stem>
<beam number="1">continue</beam>
<lyric number="1">
<syllabic>single</syllabic>
<text>je</text>
</lyric>
<lyric number="2">
<syllabic>single</syllabic>
<text>viens</text>
</lyric>
</note>
<note>
<pitch>
<step>F</step>
<octave>4</octave>
</pitch>
<duration>8</duration>
<type>eighth</type>
<stem>up</stem>
<beam number="1">begin</beam>
<lyric number="1">
<syllabic>single</syllabic>
<text>veux</text>
</lyric>
<lyric number="2">
<syllabic>single</syllabic>
<text>lire</text>
</lyric>
</note>
<note>
<pitch>
<step>E</step>
<alter>-1</alter>
<octave>4</octave>
</pitch>
<duration>8</duration>
<type>eighth</type>
<stem>up</stem>
<beam number="1">continue</beam>
<lyric number="1">
<syllabic>single</syllabic>
<text>le</text>
</lyric>
<lyric number="2">
<syllabic>single</syllabic>
<text>son</text>
</lyric>
</note>
</measure>
<measure number="10">
<note>
<pitch>
<step>G</step>
<octave>4</octave>
</pitch>
<duration>16</duration>
<type>quarter</type>
<lyric number="1">
<syllabic>begin</syllabic>
<text>sui</text>
</lyric>
<lyric number="2">
<syllabic>begin</syllabic>
<text>li</text>
</lyric>
</note>
<note>
<pitch>
<step>C</step>
<octave>4</octave>
</pitch>
<duration>16</duration>
<tie type="start"/>
<type>quarter</type>
<notations>
<tied type="start"/>
</notations>
<lyric number="1">
<syllabic>end</syllabic>
<text>vre</text>
</lyric>
<lyric number="2">
<syllabic>end</syllabic>
<text>vre,</text>
</lyric>
</note>
<note>
<pitch>
<step>C</step>
<octave>4</octave>
</pitch>
<duration>8</duration>
<tie type="stop"/>
<type>eighth</type>
<stem>up</stem>
<beam number="1">begin</beam>
<notations>
<tied type="stop"/>
</notations>
</note>
<note>
<pitch>
<step>B</step>
<alter>-1</alter>
<octave>3</octave>
</pitch>
<duration>4</duration>
<type>16th</type>
<stem>up</stem>
<beam number="1">end</beam>
<lyric number="1">
<syllabic>single</syllabic>
<text>pour</text>
</lyric>
<lyric number="2">
<syllabic>single</syllabic>
<text>je</text>
</lyric>
</note>
<note>
<pitch>
<step>B</step>
<alter>-1</alter>
<octave>3</octave>
</pitch>
<duration>4</duration>
<tie type="start"/>
<type>16th</type>
<stem>up</stem>
<beam number="1">continue</beam>
<notations>
<tied type="start"/>
</notations>
<lyric number="1">
<syllabic>single</syllabic>
<text>lui</text>
</lyric>
<lyric number="2">
<syllabic>single</syllabic>
<text>viens</text>
</lyric>
</note>
<note>
<pitch>
<step>B</step>
<alter>-1</alter>
<octave>3</octave>
</pitch>
<duration>4</duration>
<tie type="stop"/>
<type>16th</type>
<stem>up</stem>
<beam number="1">begin</beam>
<notations>
<tied type="stop"/>
</notations>
</note>
<note>
<pitch>
<step>B</step>
<alter>-1</alter>
<octave>3</octave>
</pitch>
<duration>4</duration>
<type>16th</type>
<stem>up</stem>
<beam number="1">end</beam>
<lyric number="1">
<syllabic>begin</syllabic>
<text>res</text>
</lyric>
<lyric number="2">
<syllabic>single</syllabic>
<text>lui</text>
</lyric>
</note>
<note>
<pitch>
<step>C</step>
<octave>4</octave>
</pitch>
<duration>8</duration>
<type>eighth</type>
<stem>up</stem>
<beam number="1">continue</beam>
<lyric number="1">
<syllabic>middle</syllabic>
<text>sem</text>
</lyric>
<lyric number="2">
<syllabic>begin</syllabic>
<text>par</text>
</lyric>
</note>
</measure>
<measure number="11">
<note>
<pitch>
<step>C</step>
<octave>4</octave>
</pitch>
<duration>16</duration>
<type>quarter</type>
<lyric number="1">
<syllabic>end</syllabic>
<text>bler,</text>
</lyric>
<lyric number="2">
<syllabic>end</syllabic>
<text>ler</text>
</lyric>
</note>
<note>
<rest/>
<duration>16</duration>
<type>quarter</type>
</note>
<note>
<rest/>
<duration>8</duration>
<type>eighth</type>
</note>
<note>
<pitch>
<step>F</step>
<octave>4</octave>
</pitch>
<duration>4</duration>
<type>16th</type>
<stem>up</stem>
<beam number="1">begin</beam>
<lyric number="1">
<syllabic>single</syllabic>
<text>Parce</text>
</lyric>
<lyric number="2">
<syllabic>single</syllabic>
<text>Pour</text>
</lyric>
</note>
<note>
<pitch>
<step>F</step>
<octave>4</octave>
</pitch>
<duration>4</duration>
<tie type="start"/>
<type>16th</type>
<stem>up</stem>
<beam number="1">continue</beam>
<notations>
<tied type="start"/>
</notations>
<lyric number="1">
<syllabic>single</syllabic>
<text>que</text>
</lyric>
<lyric number="2">
<syllabic>single</syllabic>
<text>mieux</text>
</lyric>
</note>
<note>
<pitch>
<step>F</step>
<octave>4</octave>
</pitch>
<duration>4</duration>
<tie type="stop"/>
<type>16th</type>
<stem>up</stem>
<beam number="1">begin</beam>
<notations>
<tied type="stop"/>
</notations>
</note>
<note>
<pitch>
<step>F</step>
<octave>4</octave>
</pitch>
<duration>4</duration>
<type>16th</type>
<stem>up</stem>
<beam number="1">end</beam>
<lyric number="1">
<syllabic>single</syllabic>
<text>je</text>
</lyric>
<lyric number="2">
<syllabic>single</syllabic>
<text>le</text>
</lyric>
</note>
<note>
<pitch>
<step>E</step>
<alter>-1</alter>
<octave>4</octave>
</pitch>
<duration>8</duration>
<type>eighth</type>
<stem>up</stem>
<beam number="1">continue</beam>
<lyric number="1">
<syllabic>begin</syllabic>
<text>l'ad</text>
</lyric>
<lyric number="2">
<syllabic>begin</syllabic>
<text>con</text>
</lyric>
</note>
</measure>
<measure number="12">
<note>
<pitch>
<step>G</step>
<octave>4</octave>
</pitch>
<duration>16</duration>
<type>quarter</type>
<lyric number="1">
<syllabic>end</syllabic>
<text>mire,</text>
</lyric>
<lyric number="2">
<syllabic>end</syllabic>
<text>naître</text>
</lyric>
</note>
<note>
<pitch>
<step>F</step>
<octave>4</octave>
</pitch>
<duration>16</duration>
<type>quarter</type>
<lyric number="1">
<syllabic>single</syllabic>
<text>je</text>
</lyric>
<lyric number="2">
<syllabic>single</syllabic>
<text>et</text>
</lyric>
</note>
<note>
<pitch>
<step>E</step>
<alter>-1</alter>
<octave>4</octave>
</pitch>
<duration>8</duration>
<type>eighth</type>
<stem>up</stem>
<beam number="1">begin</beam>
<lyric number="1">
<syllabic>single</syllabic>
<text>veux</text>
</lyric>
<lyric number="2">
<syllabic>single</syllabic>
<text>le</text>
</lyric>
</note>
<note>
<pitch>
<step>F</step>
<octave>4</octave>
</pitch>
<duration>8</duration>
<type>eighth</type>
<stem>up</stem>
<beam number="1">continue</beam>
<lyric number="1">
<syllabic>single</syllabic>
<text>le</text>
</lyric>
<lyric number="2">
<syllabic>begin</syllabic>
<text>ren</text>
</lyric>
</note>
<note>
<pitch>
<step>G</step>
<octave>4</octave>
</pitch>
<duration>8</duration>
<type>eighth</type>
<stem>up</stem>
<beam number="1">begin</beam>
<lyric number="1">
<syllabic>begin</syllabic>
<text>mon</text>
</lyric>
<lyric number="2">
<syllabic>middle</syllabic>
<text>con</text>
</lyric>
</note>
<note>
<pitch>
<step>F</step>
<octave>4</octave>
</pitch>
<duration>8</duration>
<tie type="start"/>
<type>eighth</type>
<stem>up</stem>
<beam number="1">continue</beam>
<notations>
<tied type="start"/>
</notations>
<lyric number="1">
<syllabic>end</syllabic>
<text>trer.</text>
</lyric>
<lyric number="2">
<syllabic>end</syllabic>
<text>trer.</text>
</lyric>
</note>
</measure>
<measure number="13">
<note>
<pitch>
<step>F</step>
<octave>4</octave>
</pitch>
<duration>8</duration>
<tie type="stop"/>
<type>eighth</type>
<stem>up</stem>
<beam number="1">begin</beam>
<notations>
<tied type="stop"/>
<slur type="start" number="1"/>
</notations>
</note>
<note>
<pitch>
<step>E</step>
<alter>-1</alter>
<octave>4</octave>
</pitch>
<duration>8</duration>
<tie type="start"/>
<type>eighth</type>
<stem>up</stem>
<beam number="1">continue</beam>
<notations>
<tied type="start"/>
<slur type="stop" number="1"/>
</notations>
</note>
<note>
<pitch>
<step>E</step>
<alter>-1</alter>
<octave>4</octave>
</pitch>
<duration>16</duration>
<tie type="stop"/>
<type>quarter</type>
<notations>
<tied type="stop"/>
</notations>
</note>
<note>
<rest/>
<duration>4</duration>
<type>16th</type>
</note>
<note>
<pitch>
<step>F</step>
<octave>4</octave>
</pitch>
<duration>8</duration>
<type>eighth</type>
<stem>up</stem>
<beam number="1">begin</beam>
<lyric number="1">
<syllabic>single</syllabic>
<text>Moi,</text>
</lyric>
<lyric number="2">
<syllabic>single</syllabic>
<text>Je</text>
</lyric>
</note>
<note>
<pitch>
<step>E</step>
<alter>-1</alter>
<octave>4</octave>
</pitch>
<duration>4</duration>
<type>16th</type>
<stem>up</stem>
<beam number="1">continue</beam>
<lyric number="1">
<syllabic>single</syllabic>
<text>je</text>
</lyric>
<lyric number="2">
<syllabic>single</syllabic>
<text>viens</text>
</lyric>
</note>
<note>
<pitch>
<step>F</step>
<octave>4</octave>
</pitch>
<duration>8</duration>
<type>eighth</type>
<stem>up</stem>
<beam number="1">begin</beam>
<lyric number="1">
<syllabic>single</syllabic>
<text>veux</text>
</lyric>
<lyric number="2">
<syllabic>single</syllabic>
<text>lire</text>
</lyric>
</note>
<note>
<pitch>
<step>E</step>
<alter>-1</alter>
<octave>4</octave>
</pitch>
<duration>8</duration>
<type>eighth</type>
<stem>up</stem>
<beam number="1">continue</beam>
<lyric number="1">
<syllabic>single</syllabic>
<text>le</text>
</lyric>
<lyric number="2">
<syllabic>single</syllabic>
<text>la</text>
</lyric>
</note>
</measure>
<measure number="14">
<note>
<pitch>
<step>G</step>
<octave>4</octave>
</pitch>
<duration>16</duration>
<type>quarter</type>
<lyric number="1">
<syllabic>begin</syllabic>
<text>sui</text>
</lyric>
<lyric number="2">
<syllabic>begin</syllabic>
<text>bi</text>
</lyric>
</note>
<note>
<pitch>
<step>C</step>
<octave>4</octave>
</pitch>
<duration>16</duration>
<tie type="start"/>
<type>quarter</type>
<notations>
<tied type="start"/>
</notations>
<lyric number="1">
<syllabic>end</syllabic>
<text>vre</text>
</lyric>
<lyric number="2">
<syllabic>end</syllabic>
<text>ble,</text>
</lyric>
</note>
<note>
<pitch>
<step>C</step>
<octave>4</octave>
</pitch>
<duration>8</duration>
<tie type="stop"/>
<type>eighth</type>
<stem>up</stem>
<beam number="1">begin</beam>
<notations>
<tied type="stop"/>
</notations>
</note>
<note>
<pitch>
<step>B</step>
<alter>-1</alter>
<octave>3</octave>
</pitch>
<duration>4</duration>
<type>16th</type>
<stem>up</stem>
<beam number="1">end</beam>
<lyric number="1">
<syllabic>single</syllabic>
<text>pour</text>
</lyric>
<lyric number="2">
<syllabic>single</syllabic>
<text>je</text>
</lyric>
</note>
<note>
<pitch>
<step>B</step>
<alter>-1</alter>
<octave>3</octave>
</pitch>
<duration>4</duration>
<tie type="start"/>
<type>16th</type>
<stem>up</stem>
<beam number="1">continue</beam>
<notations>
<tied type="start"/>
</notations>
<lyric number="1">
<syllabic>single</syllabic>
<text>lui</text>
</lyric>
<lyric number="2">
<syllabic>single</syllabic>
<text>viens</text>
</lyric>
</note>
<note>
<pitch>
<step>B</step>
<alter>-1</alter>
<octave>3</octave>
</pitch>
<duration>4</duration>
<tie type="stop"/>
<type>16th</type>
<stem>up</stem>
<beam number="1">begin</beam>
<notations>
<tied type="stop"/>
</notations>
</note>
<note>
<pitch>
<step>B</step>
<alter>-1</alter>
<octave>3</octave>
</pitch>
<duration>4</duration>
<type>16th</type>
<stem>up</stem>
<beam number="1">end</beam>
<lyric number="1">
<syllabic>begin</syllabic>
<text>res</text>
</lyric>
<lyric number="2">
<syllabic>single</syllabic>
<text>lui</text>
</lyric>
</note>
<note>
<pitch>
<step>C</step>
<octave>4</octave>
</pitch>
<duration>8</duration>
<type>eighth</type>
<stem>up</stem>
<beam number="1">continue</beam>
<lyric number="1">
<syllabic>middle</syllabic>
<text>sem</text>
</lyric>
<lyric number="2">
<syllabic>begin</syllabic>
<text>par</text>
</lyric>
</note>
</measure>
<measure number="15">
<note>
<pitch>
<step>C</step>
<octave>4</octave>
</pitch>
<duration>16</duration>
<type>quarter</type>
<lyric number="1">
<syllabic>end</syllabic>
<text>bler,</text>
</lyric>
<lyric number="2">
<syllabic>end</syllabic>
<text>ler,</text>
</lyric>
</note>
<note>
<rest/>
<duration>16</duration>
<type>quarter</type>
</note>
<note>
<rest/>
<duration>8</duration>
<type>eighth</type>
</note>
<note>
<pitch>
<step>F</step>
<octave>4</octave>
</pitch>
<duration>4</duration>
<type>16th</type>
<stem>up</stem>
<beam number="1">begin</beam>
<lyric number="1">
<syllabic>single</syllabic>
<text>Je</text>
</lyric>
<lyric number="2">
<syllabic>begin</syllabic>
<text>Sim</text>
</lyric>
</note>
<note>
<pitch>
<step>F</step>
<octave>4</octave>
</pitch>
<duration>4</duration>
<tie type="start"/>
<type>16th</type>
<stem>up</stem>
<beam number="1">continue</beam>
<notations>
<tied type="start"/>
</notations>
<lyric number="1">
<syllabic>single</syllabic>
<text>veux</text>
</lyric>
<lyric number="2">
<syllabic>middle</syllabic>
<text>ple</text>
</lyric>
</note>
<note>
<pitch>
<step>F</step>
<octave>4</octave>
</pitch>
<duration>4</duration>
<tie type="stop"/>
<type>16th</type>
<stem>up</stem>
<beam number="1">begin</beam>
<notations>
<tied type="stop"/>
</notations>
</note>
<note>
<pitch>
<step>F</step>
<octave>4</octave>
</pitch>
<duration>4</duration>
<type>16th</type>
<stem>up</stem>
<beam number="1">end</beam>
<lyric number="1">
<syllabic>single</syllabic>
<text>le</text>
</lyric>
<lyric number="2">
<syllabic>end</syllabic>
<text>ment</text>
</lyric>
</note>
<note>
<pitch>
<step>E</step>
<alter>-1</alter>
<octave>4</octave>
</pitch>
<duration>8</duration>
<type>eighth</type>
<stem>up</stem>
<beam number="1">continue</beam>
<lyric number="1">
<syllabic>begin</syllabic>
<text>ser</text>
</lyric>
<lyric number="2">
<syllabic>single</syllabic>
<text>pour</text>
</lyric>
</note>
</measure>
<measure number="16">
<note>
<pitch>
<step>G</step>
<octave>4</octave>
</pitch>
<duration>16</duration>
<type>quarter</type>
<lyric number="1">
<syllabic>end</syllabic>
<text>vir</text>
</lyric>
<lyric number="2">
<syllabic>single</syllabic>
<text>être</text>
</lyric>
</note>
<note>
<pitch>
<step>F</step>
<octave>4</octave>
</pitch>
<duration>16</duration>
<type>quarter</type>
<lyric number="1">
<syllabic>single</syllabic>
<text>et</text>
</lyric>
<lyric number="2">
<syllabic>single</syllabic>
<text>à</text>
</lyric>
</note>
<note>
<pitch>
<step>E</step>
<alter>-1</alter>
<octave>4</octave>
</pitch>
<duration>8</duration>
<type>eighth</type>
<stem>up</stem>
<beam number="1">begin</beam>
<lyric number="1">
<syllabic>begin</syllabic>
<text>vrai</text>
</lyric>
<lyric number="2">
<syllabic>single</syllabic>
<text>ses</text>
</lyric>
</note>
<note>
<pitch>
<step>F</step>
<octave>4</octave>
</pitch>
<duration>8</duration>
<type>eighth</type>
<stem>up</stem>
<beam number="1">continue</beam>
<lyric number="1">
<syllabic>end</syllabic>
<text>ment</text>
</lyric>
<lyric number="2">
<syllabic>begin</syllabic>
<text>cô</text>
</lyric>
</note>
<note>
<pitch>
<step>G</step>
<octave>4</octave>
</pitch>
<duration>8</duration>
<type>eighth</type>
<stem>up</stem>
<beam number="1">begin</beam>
<lyric number="1">
<syllabic>begin</syllabic>
<text>l'ai</text>
</lyric>
<lyric number="2">
<syllabic>end</syllabic>
<text>tés.</text>
</lyric>
</note>
<note>
<pitch>
<step>G</step>
<octave>4</octave>
</pitch>
<duration>8</duration>
<tie type="start"/>
<type>eighth</type>
<stem>up</stem>
<beam number="1">continue</beam>
<notations>
<tied type="start"/>
</notations>
<lyric number="1">
<syllabic>end</syllabic>
<text>mer.</text>
</lyric>
</note>
</measure>
<measure number="17">
<barline location="left">
<ending type="start" number="1"/>
</barline>
<note>
<pitch>
<step>G</step>
<octave>4</octave>
</pitch>
<duration>16</duration>
<tie type="stop"/>
<type>quarter</type>
<notations>
<tied type="stop"/>
</notations>
</note>
<note>
<rest/>
<duration>16</duration>
<type>quarter</type>
</note>
<note>
<rest/>
<duration>4</duration>
<type>16th</type>
</note>
<note>
<pitch>
<step>B</step>
<alter>-1</alter>
<octave>3</octave>
</pitch>
<duration>8</duration>
<type>eighth</type>
<stem>up</stem>
<beam number="1">begin</beam>
<lyric number="1">
<syllabic>single</syllabic>
<text>J'ai</text>
</lyric>
</note>
<note>
<pitch>
<step>B</step>
<alter>-1</alter>
<octave>3</octave>
</pitch>
<duration>4</duration>
<type>16th</type>
<stem>up</stem>
<beam number="1">continue</beam>
<lyric number="1">
<syllabic>single</syllabic>
<text>un</text>
</lyric>
</note>
<note>
<pitch>
<step>B</step>
<alter>-1</alter>
<octave>3</octave>
</pitch>
<duration>8</duration>
<type>eighth</type>
<stem>up</stem>
<beam number="1">begin</beam>
<lyric number="1">
<syllabic>single</syllabic>
<text>cœur</text>
</lyric>
</note>
<note>
<pitch>
<step>C</step>
<octave>4</octave>
</pitch>
<duration>8</duration>
<type>eighth</type>
<stem>up</stem>
<beam number="1">continue</beam>
<lyric number="1">
<syllabic>single</syllabic>
<text>qui</text>
</lyric>
</note>
<barline location="right">
<bar-style>light-heavy</bar-style>
<ending type="stop" number="1"/>
<repeat direction="backward"/>
</barline>
</measure>
<measure number="18">
<barline location="left">
<ending type="start" number="2"/>
</barline>
<barline location="left">
<bar-style>heavy-light</bar-style>
</barline>
<attributes>
<key>
<fifths>-1</fifths>
</key>
</attributes>
<note>
<pitch>
<step>G</step>
<octave>4</octave>
</pitch>
<duration>16</duration>
<tie type="stop"/>
<type>quarter</type>
<notations>
<tied type="stop"/>
</notations>
</note>
<note>
<rest/>
<duration>16</duration>
<type>quarter</type>
</note>
<note>
<rest/>
<duration>4</duration>
<type>16th</type>
</note>
<note>
<pitch>
<step>C</step>
<octave>4</octave>
</pitch>
<duration>8</duration>
<type>eighth</type>
<stem>up</stem>
<beam number="1">begin</beam>
<lyric number="1">
<syllabic>single</syllabic>
<text>J'ai</text>
</lyric>
</note>
<note>
<pitch>
<step>C</step>
<octave>4</octave>
</pitch>
<duration>4</duration>
<type>16th</type>
<stem>up</stem>
<beam number="1">continue</beam>
<lyric number="1">
<syllabic>single</syllabic>
<text>un</text>
</lyric>
</note>
<note>
<pitch>
<step>C</step>
<octave>4</octave>
</pitch>
<duration>8</duration>
<type>eighth</type>
<stem>up</stem>
<beam number="1">begin</beam>
<lyric number="1">
<syllabic>single</syllabic>
<text>cœur</text>
</lyric>
</note>
<note>
<pitch>
<step>D</step>
<octave>4</octave>
</pitch>
<duration>8</duration>
<type>eighth</type>
<stem>up</stem>
<beam number="1">continue</beam>
<lyric number="1">
<syllabic>single</syllabic>
<text>qui</text>
</lyric>
</note>
</measure>
<measure number="19">
<barline location="left">
<bar-style>heavy-light</bar-style>
</barline>
<note>
<pitch>
<step>D</step>
<octave>4</octave>
</pitch>
<duration>16</duration>
<type>quarter</type>
<lyric number="1">
<syllabic>single</syllabic>
<text>bat</text>
</lyric>
</note>
<note>
<rest/>
<duration>16</duration>
<type>quarter</type>
</note>
<note>
<rest/>
<duration>4</duration>
<type>16th</type>
</note>
<note>
<pitch>
<step>C</step>
<octave>4</octave>
</pitch>
<duration>4</duration>
<type>16th</type>
<stem>up</stem>
<beam number="1">begin</beam>
<lyric number="1">
<syllabic>single</syllabic>
<text>au</text>
</lyric>
</note>
<note>
<pitch>
<step>C</step>
<octave>4</octave>
</pitch>
<duration>4</duration>
<type>16th</type>
<stem>up</stem>
<beam number="1">end</beam>
<lyric number="1">
<syllabic>begin</syllabic>
<text>ryth</text>
</lyric>
</note>
<note>
<pitch>
<step>C</step>
<octave>4</octave>
</pitch>
<duration>4</duration>
<type>16th</type>
<stem>up</stem>
<beam number="1">continue</beam>
<lyric number="1">
<syllabic>end</syllabic>
<text>me</text>
</lyric>
</note>
<note>
<pitch>
<step>C</step>
<octave>4</octave>
</pitch>
<duration>8</duration>
<type>eighth</type>
<stem>up</stem>
<beam number="1">begin</beam>
<lyric number="1">
<syllabic>single</syllabic>
<text>de</text>
</lyric>
</note>
<note>
<pitch>
<step>D</step>
<octave>4</octave>
</pitch>
<duration>8</duration>
<type>eighth</type>
<stem>up</stem>
<beam number="1">continue</beam>
<lyric number="1">
<syllabic>single</syllabic>
<text>son</text>
</lyric>
</note>
</measure>
<measure number="20">
<note>
<pitch>
<step>D</step>
<octave>4</octave>
</pitch>
<duration>16</duration>
<type>quarter</type>
<lyric number="1">
<syllabic>single</syllabic>
<text>cœur,</text>
</lyric>
</note>
<note>
<rest/>
<duration>16</duration>
<type>quarter</type>
</note>
<note>
<rest/>
<duration>8</duration>
<type>eighth</type>
</note>
<note>
<pitch>
<step>C</step>
<octave>4</octave>
</pitch>
<duration>8</duration>
<type>eighth</type>
<lyric number="1">
<syllabic>single</syllabic>
<text>Oui,</text>
</lyric>
</note>
<note>
<pitch>
<step>C</step>
<octave>4</octave>
</pitch>
<duration>8</duration>
<type>eighth</type>
<stem>up</stem>
<beam number="1">begin</beam>
<lyric number="1">
<syllabic>single</syllabic>
<text>pas</text>
</lyric>
</note>
<note>
<pitch>
<step>D</step>
<octave>4</octave>
</pitch>
<duration>8</duration>
<type>eighth</type>
<stem>up</stem>
<beam number="1">continue</beam>
<lyric number="1">
<syllabic>single</syllabic>
<text>à</text>
</lyric>
</note>
</measure>
<measure number="21">
<note>
<pitch>
<step>F</step>
<octave>4</octave>
</pitch>
<duration>8</duration>
<type>eighth</type>
<stem>up</stem>
<beam number="1">begin</beam>
<lyric number="1">
<syllabic>single</syllabic>
<text>pas</text>
</lyric>
</note>
<note>
<pitch>
<step>F</step>
<octave>4</octave>
</pitch>
<duration>8</duration>
<type>eighth</type>
<stem>up</stem>
<beam number="1">continue</beam>
<lyric number="1">
<syllabic>single</syllabic>
<text>je</text>
</lyric>
</note>
<note>
<pitch>
<step>F</step>
<octave>4</octave>
</pitch>
<duration>8</duration>
<type>eighth</type>
<stem>up</stem>
<beam number="1">begin</beam>
<lyric number="1">
<syllabic>single</syllabic>
<text>marche</text>
</lyric>
</note>
<note>
<pitch>
<step>C</step>
<octave>4</octave>
</pitch>
<duration>8</duration>
<type>eighth</type>
<stem>up</stem>
<beam number="1">continue</beam>
<lyric number="1">
<syllabic>begin</syllabic>
<text>a</text>
</lyric>
</note>
<note>
<pitch>
<step>C</step>
<octave>4</octave>
</pitch>
<duration>8</duration>
<type>eighth</type>
<stem>up</stem>
<beam number="1">begin</beam>
<lyric number="1">
<syllabic>end</syllabic>
<text>vec</text>
</lyric>
</note>
<note>
<pitch>
<step>C</step>
<octave>4</octave>
</pitch>
<duration>8</duration>
<type>eighth</type>
<stem>up</stem>
<beam number="1">continue</beam>
<lyric number="1">
<syllabic>single</syllabic>
<text>le</text>
</lyric>
</note>
<note>
<pitch>
<step>D</step>
<octave>4</octave>
</pitch>
<duration>8</duration>
<type>eighth</type>
<stem>up</stem>
<beam number="1">begin</beam>
<lyric number="1">
<syllabic>begin</syllabic>
<text>Sei</text>
</lyric>
</note>
<note>
<pitch>
<step>D</step>
<octave>4</octave>
</pitch>
<duration>8</duration>
<type>eighth</type>
<stem>up</stem>
<beam number="1">continue</beam>
<lyric number="1">
<syllabic>end</syllabic>
<text>gneur.</text>
</lyric>
</note>
</measure>
<measure number="22">
<note>
<rest/>
<duration>32</duration>
<type>half</type>
</note>
<note>
<rest/>
<duration>4</duration>
<type>16th</type>
</note>
<note>
<pitch>
<step>C</step>
<octave>4</octave>
</pitch>
<duration>8</duration>
<type>eighth</type>
<stem>up</stem>
<beam number="1">begin</beam>
<lyric number="1">
<syllabic>single</syllabic>
<text>J'ai</text>
</lyric>
</note>
<note>
<pitch>
<step>C</step>
<octave>4</octave>
</pitch>
<duration>4</duration>
<type>16th</type>
<stem>up</stem>
<beam number="1">continue</beam>
<lyric number="1">
<syllabic>single</syllabic>
<text>un</text>
</lyric>
</note>
<note>
<pitch>
<step>C</step>
<octave>4</octave>
</pitch>
<duration>8</duration>
<type>eighth</type>
<stem>up</stem>
<beam number="1">begin</beam>
<lyric number="1">
<syllabic>single</syllabic>
<text>cœur</text>
</lyric>
</note>
<note>
<pitch>
<step>D</step>
<octave>4</octave>
</pitch>
<duration>8</duration>
<type>eighth</type>
<stem>up</stem>
<beam number="1">continue</beam>
<lyric number="1">
<syllabic>single</syllabic>
<text>qui</text>
</lyric>
</note>
</measure>
<measure number="23">
<note>
<pitch>
<step>D</step>
<octave>4</octave>
</pitch>
<duration>16</duration>
<type>quarter</type>
<lyric number="1">
<syllabic>single</syllabic>
<text>bat,</text>
</lyric>
</note>
<note>
<rest/>
<duration>16</duration>
<type>quarter</type>
</note>
<note>
<rest/>
<duration>4</duration>
<type>16th</type>
</note>
<note>
<pitch>
<step>C</step>
<octave>4</octave>
</pitch>
<duration>4</duration>
<type>16th</type>
<stem>up</stem>
<beam number="1">begin</beam>
<lyric number="1">
<syllabic>single</syllabic>
<text>un</text>
</lyric>
</note>
<note>
<pitch>
<step>C</step>
<octave>4</octave>
</pitch>
<duration>4</duration>
<type>16th</type>
<stem>up</stem>
<beam number="1">end</beam>
<lyric number="1">
<syllabic>begin</syllabic>
<text>ry</text>
</lyric>
</note>
<note>
<pitch>
<step>C</step>
<octave>4</octave>
</pitch>
<duration>4</duration>
<type>16th</type>
<stem>up</stem>
<beam number="1">continue</beam>
<lyric number="1">
<syllabic>end</syllabic>
<text>thme</text>
</lyric>
</note>
<note>
<pitch>
<step>C</step>
<octave>4</octave>
</pitch>
<duration>8</duration>
<type>eighth</type>
<stem>up</stem>
<beam number="1">begin</beam>
<lyric number="1">
<syllabic>begin</syllabic>
<text>dif</text>
</lyric>
</note>
<note>
<pitch>
<step>D</step>
<octave>4</octave>
</pitch>
<duration>8</duration>
<type>eighth</type>
<stem>up</stem>
<beam number="1">continue</beam>
<lyric number="1">
<syllabic>middle</syllabic>
<text>fé</text>
</lyric>
</note>
</measure>
<measure number="24">
<note>
<pitch>
<step>D</step>
<octave>4</octave>
</pitch>
<duration>16</duration>
<type>quarter</type>
<lyric number="1">
<syllabic>end</syllabic>
<text>rent,</text>
</lyric>
</note>
<note>
<rest/>
<duration>16</duration>
<type>quarter</type>
</note>
<note>
<rest/>
<duration>8</duration>
<type>eighth</type>
</note>
<note>
<pitch>
<step>C</step>
<octave>4</octave>
</pitch>
<duration>8</duration>
<type>eighth</type>
<lyric number="1">
<syllabic>begin</syllabic>
<text>De</text>
</lyric>
</note>
<note>
<pitch>
<step>C</step>
<octave>4</octave>
</pitch>
<duration>8</duration>
<type>eighth</type>
<stem>up</stem>
<beam number="1">begin</beam>
<lyric number="1">
<syllabic>end</syllabic>
<text>puis</text>
</lyric>
</note>
<note>
<pitch>
<step>D</step>
<octave>4</octave>
</pitch>
<duration>8</duration>
<type>eighth</type>
<stem>up</stem>
<beam number="1">continue</beam>
<lyric number="1">
<syllabic>single</syllabic>
<text>que</text>
</lyric>
</note>
</measure>
<measure number="25">
<note>
<pitch>
<step>F</step>
<octave>4</octave>
</pitch>
<duration>8</duration>
<type>eighth</type>
<stem>up</stem>
<beam number="1">begin</beam>
<lyric number="1">
<syllabic>single</syllabic>
<text>j'ai</text>
</lyric>
</note>
<note>
<pitch>
<step>F</step>
<octave>4</octave>
</pitch>
<duration>8</duration>
<type>eighth</type>
<stem>up</stem>
<beam number="1">continue</beam>
<lyric number="1">
<syllabic>begin</syllabic>
<text>lais</text>
</lyric>
</note>
<note>
<pitch>
<step>F</step>
<octave>4</octave>
</pitch>
<duration>8</duration>
<type>eighth</type>
<stem>up</stem>
<beam number="1">begin</beam>
<lyric number="1">
<syllabic>end</syllabic>
<text>sé</text>
</lyric>
</note>
<note>
<pitch>
<step>C</step>
<octave>4</octave>
</pitch>
<duration>8</duration>
<type>eighth</type>
<stem>up</stem>
<beam number="1">continue</beam>
<lyric number="1">
<syllabic>single</syllabic>
<text>Dieu</text>
</lyric>
</note>
<note>
<pitch>
<step>C</step>
<octave>4</octave>
</pitch>
<duration>8</duration>
<type>eighth</type>
<stem>up</stem>
<beam number="1">begin</beam>
<lyric number="1">
<syllabic>begin</syllabic>
<text>mar</text>
</lyric>
</note>
<note>
<pitch>
<step>C</step>
<octave>4</octave>
</pitch>
<duration>8</duration>
<type>eighth</type>
<stem>up</stem>
<beam number="1">continue</beam>
<lyric number="1">
<syllabic>end</syllabic>
<text>cher</text>
</lyric>
</note>
<note>
<pitch>
<step>D</step>
<octave>4</octave>
</pitch>
<duration>8</duration>
<type>eighth</type>
<stem>up</stem>
<beam number="1">begin</beam>
<lyric number="1">
<syllabic>begin</syllabic>
<text>de</text>
</lyric>
</note>
<note>
<pitch>
<step>D</step>
<octave>4</octave>
</pitch>
<duration>8</duration>
<type>eighth</type>
<stem>up</stem>
<beam number="1">continue</beam>
<lyric number="1">
<syllabic>end</syllabic>
<text>vant.</text>
</lyric>
</note>
</measure>
<measure number="26">
<note>
<rest/>
<duration>32</duration>
<type>half</type>
</note>
<note>
<rest/>
<duration>4</duration>
<type>16th</type>
</note>
<note>
<pitch>
<step>G</step>
<octave>4</octave>
</pitch>
<duration>8</duration>
<type>eighth</type>
<stem>up</stem>
<beam number="1">begin</beam>
<lyric number="1">
<syllabic>single</syllabic>
<text>3. Moi,</text>
</lyric>
</note>
<note>
<pitch>
<step>F</step>
<octave>4</octave>
</pitch>
<duration>4</duration>
<type>16th</type>
<stem>up</stem>
<beam number="1">continue</beam>
<lyric number="1">
<syllabic>single</syllabic>
<text>je</text>
</lyric>
</note>
<note>
<pitch>
<step>G</step>
<octave>4</octave>
</pitch>
<duration>8</duration>
<type>eighth</type>
<stem>up</stem>
<beam number="1">begin</beam>
<lyric number="1">
<syllabic>single</syllabic>
<text>veux</text>
</lyric>
</note>
<note>
<pitch>
<step>F</step>
<octave>4</octave>
</pitch>
<duration>8</duration>
<type>eighth</type>
<stem>up</stem>
<beam number="1">continue</beam>
<lyric number="1">
<syllabic>single</syllabic>
<text>le</text>
</lyric>
</note>
</measure>
<measure number="27">
<note>
<pitch>
<step>A</step>
<octave>4</octave>
</pitch>
<duration>16</duration>
<type>quarter</type>
<lyric number="1">
<syllabic>begin</syllabic>
<text>sui</text>
</lyric>
</note>
<note>
<pitch>
<step>D</step>
<octave>4</octave>
</pitch>
<duration>16</duration>
<tie type="start"/>
<type>quarter</type>
<notations>
<tied type="start"/>
</notations>
<lyric number="1">
<syllabic>end</syllabic>
<text>vre</text>
</lyric>
</note>
<note>
<pitch>
<step>D</step>
<octave>4</octave>
</pitch>
<duration>8</duration>
<tie type="stop"/>
<type>eighth</type>
<stem>up</stem>
<beam number="1">begin</beam>
<notations>
<tied type="stop"/>
</notations>
</note>
<note>
<pitch>
<step>C</step>
<octave>4</octave>
</pitch>
<duration>4</duration>
<type>16th</type>
<stem>up</stem>
<beam number="1">end</beam>
<lyric number="1">
<syllabic>single</syllabic>
<text>pour</text>
</lyric>
</note>
<note>
<pitch>
<step>C</step>
<octave>4</octave>
</pitch>
<duration>4</duration>
<tie type="start"/>
<type>16th</type>
<stem>up</stem>
<beam number="1">continue</beam>
<notations>
<tied type="start"/>
</notations>
<lyric number="1">
<syllabic>single</syllabic>
<text>lui</text>
</lyric>
</note>
<note>
<pitch>
<step>C</step>
<octave>4</octave>
</pitch>
<duration>4</duration>
<tie type="stop"/>
<type>16th</type>
<stem>up</stem>
<beam number="1">begin</beam>
<notations>
<tied type="stop"/>
</notations>
</note>
<note>
<pitch>
<step>C</step>
<octave>4</octave>
</pitch>
<duration>4</duration>
<type>16th</type>
<stem>up</stem>
<beam number="1">end</beam>
<lyric number="1">
<syllabic>begin</syllabic>
<text>res</text>
</lyric>
</note>
<note>
<pitch>
<step>D</step>
<octave>4</octave>
</pitch>
<duration>8</duration>
<type>eighth</type>
<stem>up</stem>
<beam number="1">continue</beam>
<lyric number="1">
<syllabic>middle</syllabic>
<text>sem</text>
</lyric>
</note>
</measure>
<measure number="28">
<note>
<pitch>
<step>D</step>
<octave>4</octave>
</pitch>
<duration>16</duration>
<type>quarter</type>
<lyric number="1">
<syllabic>end</syllabic>
<text>bler,</text>
</lyric>
</note>
<note>
<rest/>
<duration>16</duration>
<type>quarter</type>
</note>
<note>
<rest/>
<duration>8</duration>
<type>eighth</type>
</note>
<note>
<pitch>
<step>G</step>
<octave>4</octave>
</pitch>
<duration>4</duration>
<type>16th</type>
<stem>up</stem>
<beam number="1">begin</beam>
<lyric number="1">
<syllabic>single</syllabic>
<text>Parce</text>
</lyric>
</note>
<note>
<pitch>
<step>G</step>
<octave>4</octave>
</pitch>
<duration>4</duration>
<tie type="start"/>
<type>16th</type>
<stem>up</stem>
<beam number="1">continue</beam>
<notations>
<tied type="start"/>
</notations>
<lyric number="1">
<syllabic>single</syllabic>
<text>que</text>
</lyric>
</note>
<note>
<pitch>
<step>G</step>
<octave>4</octave>
</pitch>
<duration>4</duration>
<tie type="stop"/>
<type>16th</type>
<stem>up</stem>
<beam number="1">begin</beam>
<notations>
<tied type="stop"/>
</notations>
</note>
<note>
<pitch>
<step>G</step>
<octave>4</octave>
</pitch>
<duration>4</duration>
<type>16th</type>
<stem>up</stem>
<beam number="1">end</beam>
<lyric number="1">
<syllabic>single</syllabic>
<text>je</text>
</lyric>
</note>
<note>
<pitch>
<step>F</step>
<octave>4</octave>
</pitch>
<duration>8</duration>
<type>eighth</type>
<stem>up</stem>
<beam number="1">continue</beam>
<lyric number="1">
<syllabic>begin</syllabic>
<text>l'ad</text>
</lyric>
</note>
</measure>
<measure number="29">
<note>
<pitch>
<step>A</step>
<octave>4</octave>
</pitch>
<duration>16</duration>
<type>quarter</type>
<lyric number="1">
<syllabic>end</syllabic>
<text>mire,</text>
</lyric>
</note>
<note>
<pitch>
<step>G</step>
<octave>4</octave>
</pitch>
<duration>16</duration>
<type>quarter</type>
<lyric number="1">
<syllabic>single</syllabic>
<text>je</text>
</lyric>
</note>
<note>
<pitch>
<step>F</step>
<octave>4</octave>
</pitch>
<duration>8</duration>
<type>eighth</type>
<stem>up</stem>
<beam number="1">begin</beam>
<lyric number="1">
<syllabic>single</syllabic>
<text>veux</text>
</lyric>
</note>
<note>
<pitch>
<step>G</step>
<octave>4</octave>
</pitch>
<duration>8</duration>
<type>eighth</type>
<stem>up</stem>
<beam number="1">continue</beam>
<lyric number="1">
<syllabic>single</syllabic>
<text>le</text>
</lyric>
</note>
<note>
<pitch>
<step>A</step>
<octave>4</octave>
</pitch>
<duration>8</duration>
<type>eighth</type>
<stem>up</stem>
<beam number="1">begin</beam>
<lyric number="1">
<syllabic>begin</syllabic>
<text>mon</text>
</lyric>
</note>
<note>
<pitch>
<step>G</step>
<octave>4</octave>
</pitch>
<duration>8</duration>
<tie type="start"/>
<type>eighth</type>
<stem>up</stem>
<beam number="1">continue</beam>
<notations>
<tied type="start"/>
</notations>
<lyric number="1">
<syllabic>end</syllabic>
<text>trer.</text>
</lyric>
</note>
</measure>
<measure number="30">
<note>
<pitch>
<step>G</step>
<octave>4</octave>
</pitch>
<duration>8</duration>
<tie type="stop"/>
<type>eighth</type>
<stem>up</stem>
<beam number="1">begin</beam>
<notations>
<tied type="stop"/>
<slur type="start" number="1"/>
</notations>
</note>
<note>
<pitch>
<step>F</step>
<octave>4</octave>
</pitch>
<duration>8</duration>
<tie type="start"/>
<type>eighth</type>
<stem>up</stem>
<beam number="1">continue</beam>
<notations>
<tied type="start"/>
<slur type="stop" number="1"/>
</notations>
</note>
<note>
<pitch>
<step>F</step>
<octave>4</octave>
</pitch>
<duration>16</duration>
<tie type="stop"/>
<type>quarter</type>
<notations>
<tied type="stop"/>
</notations>
</note>
<note>
<rest/>
<duration>4</duration>
<type>16th</type>
</note>
<note>
<pitch>
<step>G</step>
<octave>4</octave>
</pitch>
<duration>8</duration>
<type>eighth</type>
<stem>up</stem>
<beam number="1">begin</beam>
<lyric number="1">
<syllabic>single</syllabic>
<text>Moi,</text>
</lyric>
</note>
<note>
<pitch>
<step>F</step>
<octave>4</octave>
</pitch>
<duration>4</duration>
<type>16th</type>
<stem>up</stem>
<beam number="1">continue</beam>
<lyric number="1">
<syllabic>single</syllabic>
<text>je</text>
</lyric>
</note>
<note>
<pitch>
<step>G</step>
<octave>4</octave>
</pitch>
<duration>8</duration>
<type>eighth</type>
<stem>up</stem>
<beam number="1">begin</beam>
<lyric number="1">
<syllabic>single</syllabic>
<text>veux</text>
</lyric>
</note>
<note>
<pitch>
<step>F</step>
<octave>4</octave>
</pitch>
<duration>8</duration>
<type>eighth</type>
<stem>up</stem>
<beam number="1">continue</beam>
<lyric number="1">
<syllabic>single</syllabic>
<text>le</text>
</lyric>
</note>
</measure>
<measure number="31">
<note>
<pitch>
<step>A</step>
<octave>4</octave>
</pitch>
<duration>16</duration>
<type>quarter</type>
<lyric number="1">
<syllabic>begin</syllabic>
<text>sui</text>
</lyric>
</note>
<note>
<pitch>
<step>D</step>
<octave>4</octave>
</pitch>
<duration>16</duration>
<tie type="start"/>
<type>quarter</type>
<notations>
<tied type="start"/>
</notations>
<lyric number="1">
<syllabic>end</syllabic>
<text>vre</text>
</lyric>
</note>
<note>
<pitch>
<step>D</step>
<octave>4</octave>
</pitch>
<duration>8</duration>
<tie type="stop"/>
<type>eighth</type>
<stem>up</stem>
<beam number="1">begin</beam>
<notations>
<tied type="stop"/>
</notations>
</note>
<note>
<pitch>
<step>C</step>
<octave>4</octave>
</pitch>
<duration>4</duration>
<type>16th</type>
<stem>up</stem>
<beam number="1">end</beam>
<lyric number="1">
<syllabic>single</syllabic>
<text>pour</text>
</lyric>
</note>
<note>
<pitch>
<step>C</step>
<octave>4</octave>
</pitch>
<duration>4</duration>
<tie type="start"/>
<type>16th</type>
<stem>up</stem>
<beam number="1">continue</beam>
<notations>
<tied type="start"/>
</notations>
<lyric number="1">
<syllabic>single</syllabic>
<text>lui</text>
</lyric>
</note>
<note>
<pitch>
<step>C</step>
<octave>4</octave>
</pitch>
<duration>4</duration>
<tie type="stop"/>
<type>16th</type>
<stem>up</stem>
<beam number="1">begin</beam>
<notations>
<tied type="stop"/>
</notations>
</note>
<note>
<pitch>
<step>C</step>
<octave>4</octave>
</pitch>
<duration>4</duration>
<type>16th</type>
<stem>up</stem>
<beam number="1">end</beam>
<lyric number="1">
<syllabic>begin</syllabic>
<text>res</text>
</lyric>
</note>
<note>
<pitch>
<step>D</step>
<octave>4</octave>
</pitch>
<duration>8</duration>
<type>eighth</type>
<stem>up</stem>
<beam number="1">continue</beam>
<lyric number="1">
<syllabic>middle</syllabic>
<text>sem</text>
</lyric>
</note>
</measure>
<measure number="32">
<note>
<pitch>
<step>D</step>
<octave>4</octave>
</pitch>
<duration>16</duration>
<type>quarter</type>
<lyric number="1">
<syllabic>end</syllabic>
<text>bler,</text>
</lyric>
</note>
<note>
<rest/>
<duration>16</duration>
<type>quarter</type>
</note>
<note>
<rest/>
<duration>8</duration>
<type>eighth</type>
</note>
<note>
<pitch>
<step>G</step>
<octave>4</octave>
</pitch>
<duration>4</duration>
<type>16th</type>
<stem>up</stem>
<beam number="1">begin</beam>
<lyric number="1">
<syllabic>single</syllabic>
<text>Je</text>
</lyric>
</note>
<note>
<pitch>
<step>G</step>
<octave>4</octave>
</pitch>
<duration>4</duration>
<tie type="start"/>
<type>16th</type>
<stem>up</stem>
<beam number="1">continue</beam>
<notations>
<tied type="start"/>
</notations>
<lyric number="1">
<syllabic>single</syllabic>
<text>veux</text>
</lyric>
</note>
<note>
<pitch>
<step>G</step>
<octave>4</octave>
</pitch>
<duration>4</duration>
<tie type="stop"/>
<type>16th</type>
<stem>up</stem>
<beam number="1">begin</beam>
<notations>
<tied type="stop"/>
</notations>
</note>
<note>
<pitch>
<step>G</step>
<octave>4</octave>
</pitch>
<duration>4</duration>
<type>16th</type>
<stem>up</stem>
<beam number="1">end</beam>
<lyric number="1">
<syllabic>single</syllabic>
<text>le</text>
</lyric>
</note>
<note>
<pitch>
<step>F</step>
<octave>4</octave>
</pitch>
<duration>8</duration>
<type>eighth</type>
<stem>up</stem>
<beam number="1">continue</beam>
<lyric number="1">
<syllabic>begin</syllabic>
<text>ser</text>
</lyric>
</note>
</measure>
<measure number="33">
<note>
<pitch>
<step>A</step>
<octave>4</octave>
</pitch>
<duration>16</duration>
<type>quarter</type>
<lyric number="1">
<syllabic>end</syllabic>
<text>vir</text>
</lyric>
</note>
<note>
<pitch>
<step>G</step>
<octave>4</octave>
</pitch>
<duration>16</duration>
<type>quarter</type>
<lyric number="1">
<syllabic>single</syllabic>
<text>et</text>
</lyric>
</note>
<note>
<pitch>
<step>F</step>
<octave>4</octave>
</pitch>
<duration>8</duration>
<type>eighth</type>
<stem>up</stem>
<beam number="1">begin</beam>
<lyric number="1">
<syllabic>begin</syllabic>
<text>vrai</text>
</lyric>
</note>
<note>
<pitch>
<step>G</step>
<octave>4</octave>
</pitch>
<duration>8</duration>
<type>eighth</type>
<stem>up</stem>
<beam number="1">continue</beam>
<lyric number="1">
<syllabic>end</syllabic>
<text>ment</text>
</lyric>
</note>
<note>
<pitch>
<step>A</step>
<octave>4</octave>
</pitch>
<duration>8</duration>
<type>eighth</type>
<stem>up</stem>
<beam number="1">begin</beam>
<lyric number="1">
<syllabic>begin</syllabic>
<text>l'ai</text>
</lyric>
</note>
<note>
<pitch>
<step>A</step>
<octave>4</octave>
</pitch>
<duration>8</duration>
<tie type="start"/>
<type>eighth</type>
<stem>up</stem>
<beam number="1">continue</beam>
<notations>
<tied type="start"/>
</notations>
<lyric number="1">
<syllabic>end</syllabic>
<text>mer.</text>
</lyric>
</note>
</measure>
<measure number="34">
<note>
<pitch>
<step>A</step>
<octave>4</octave>
</pitch>
<duration>16</duration>
<tie type="stop"/>
<type>quarter</type>
<notations>
<tied type="stop"/>
</notations>
</note>
<note>
<rest/>
<duration>16</duration>
<type>quarter</type>
</note>
<note>
<rest/>
<duration>4</duration>
<type>16th</type>
</note>
<note>
<pitch>
<step>B</step>
<alter>-1</alter>
<octave>3</octave>
</pitch>
<duration>8</duration>
<type>eighth</type>
<stem>up</stem>
<beam number="1">begin</beam>
<lyric number="1">
<syllabic>single</syllabic>
<text>J'ai</text>
</lyric>
</note>
<note>
<pitch>
<step>B</step>
<alter>-1</alter>
<octave>3</octave>
</pitch>
<duration>4</duration>
<type>16th</type>
<stem>up</stem>
<beam number="1">continue</beam>
<lyric number="1">
<syllabic>single</syllabic>
<text>un</text>
</lyric>
</note>
<note>
<pitch>
<step>B</step>
<alter>-1</alter>
<octave>3</octave>
</pitch>
<duration>8</duration>
<type>eighth</type>
<stem>up</stem>
<beam number="1">begin</beam>
<lyric number="1">
<syllabic>single</syllabic>
<text>cœur</text>
</lyric>
</note>
<note>
<pitch>
<step>C</step>
<octave>4</octave>
</pitch>
<duration>8</duration>
<type>eighth</type>
<stem>up</stem>
<beam number="1">continue</beam>
<lyric number="1">
<syllabic>begin</syllabic>
<text>qui</text>
</lyric>
</note>
<attributes>
<key>
<fifths>-3</fifths>
</key>
</attributes>
<direction placement="above">
<direction-type>
<words relative-y="60">D.S. al Coda</words>
</direction-type>
</direction>
</measure>
<measure number="35">
<barline location="left">
<bar-style>heavy-light</bar-style>
</barline>
<direction>
<direction-type>
<coda/>
</direction-type>
<sound coda=""/>
</direction>
<note>
<pitch>
<step>C</step>
<octave>4</octave>
</pitch>
<duration>16</duration>
<type>quarter</type>
<lyric number="1">
<syllabic>end</syllabic>
<text>rent,</text>
</lyric>
</note>
<note>
<rest/>
<duration>16</duration>
<type>quarter</type>
</note>
<note>
<rest/>
<duration>8</duration>
<type>eighth</type>
</note>
<note>
<pitch>
<step>B</step>
<alter>-1</alter>
<octave>3</octave>
</pitch>
<duration>8</duration>
<type>eighth</type>
<lyric number="1">
<syllabic>begin</syllabic>
<text>De</text>
</lyric>
</note>
<note>
<pitch>
<step>B</step>
<alter>-1</alter>
<octave>3</octave>
</pitch>
<duration>8</duration>
<type>eighth</type>
<stem>up</stem>
<beam number="1">begin</beam>
<lyric number="1">
<syllabic>end</syllabic>
<text>puis</text>
</lyric>
</note>
<note>
<pitch>
<step>C</step>
<octave>4</octave>
</pitch>
<duration>8</duration>
<type>eighth</type>
<stem>up</stem>
<beam number="1">continue</beam>
<lyric number="1">
<syllabic>single</syllabic>
<text>que</text>
</lyric>
</note>
</measure>
<measure number="36">
<note>
<pitch>
<step>E</step>
<alter>-1</alter>
<octave>4</octave>
</pitch>
<duration>8</duration>
<type>eighth</type>
<stem>up</stem>
<beam number="1">begin</beam>
<lyric number="1">
<syllabic>single</syllabic>
<text>j'ai</text>
</lyric>
</note>
<note>
<pitch>
<step>E</step>
<alter>-1</alter>
<octave>4</octave>
</pitch>
<duration>8</duration>
<type>eighth</type>
<stem>up</stem>
<beam number="1">continue</beam>
<lyric number="1">
<syllabic>begin</syllabic>
<text>lais</text>
</lyric>
</note>
<note>
<pitch>
<step>E</step>
<alter>-1</alter>
<octave>4</octave>
</pitch>
<duration>8</duration>
<type>eighth</type>
<stem>up</stem>
<beam number="1">begin</beam>
<lyric number="1">
<syllabic>end</syllabic>
<text>sé</text>
</lyric>
</note>
<note>
<pitch>
<step>B</step>
<alter>-1</alter>
<octave>3</octave>
</pitch>
<duration>8</duration>
<type>eighth</type>
<stem>up</stem>
<beam number="1">continue</beam>
<lyric number="1">
<syllabic>single</syllabic>
<text>Dieu</text>
</lyric>
</note>
<note>
<pitch>
<step>B</step>
<alter>-1</alter>
<octave>3</octave>
</pitch>
<duration>8</duration>
<type>eighth</type>
<stem>up</stem>
<beam number="1">begin</beam>
<lyric number="1">
<syllabic>begin</syllabic>
<text>mar</text>
</lyric>
</note>
<note>
<pitch>
<step>B</step>
<alter>-1</alter>
<octave>3</octave>
</pitch>
<duration>8</duration>
<type>eighth</type>
<stem>up</stem>
<beam number="1">continue</beam>
<lyric number="1">
<syllabic>end</syllabic>
<text>cher</text>
</lyric>
</note>
<note>
<pitch>
<step>C</step>
<octave>4</octave>
</pitch>
<duration>8</duration>
<type>eighth</type>
<stem>up</stem>
<beam number="1">begin</beam>
<lyric number="1">
<syllabic>begin</syllabic>
<text>de</text>
</lyric>
</note>
<note>
<pitch>
<step>C</step>
<octave>4</octave>
</pitch>
<duration>8</duration>
<tie type="start"/>
<type>eighth</type>
<stem>up</stem>
<beam number="1">continue</beam>
<notations>
<tied type="start"/>
</notations>
<lyric number="1">
<syllabic>end</syllabic>
<text>vant.</text>
</lyric>
</note>
</measure>
<measure number="37">
<note>
<pitch>
<step>C</step>
<octave>4</octave>
</pitch>
<duration>16</duration>
<tie type="stop"/>
<type>quarter</type>
<notations>
<tied type="stop"/>
</notations>
</note>
<note>
<rest/>
<duration>16</duration>
<type>quarter</type>
</note>
<note>
<rest/>
<duration>8</duration>
<type>eighth</type>
</note>
<note>
<pitch>
<step>B</step>
<alter>-1</alter>
<octave>3</octave>
</pitch>
<duration>8</duration>
<type>eighth</type>
<lyric number="1">
<syllabic>begin</syllabic>
<text>De</text>
</lyric>
</note>
<note>
<pitch>
<step>B</step>
<alter>-1</alter>
<octave>3</octave>
</pitch>
<duration>8</duration>
<type>eighth</type>
<stem>up</stem>
<beam number="1">begin</beam>
<lyric number="1">
<syllabic>end</syllabic>
<text>puis</text>
</lyric>
</note>
<note>
<pitch>
<step>C</step>
<octave>4</octave>
</pitch>
<duration>8</duration>
<type>eighth</type>
<stem>up</stem>
<beam number="1">continue</beam>
<lyric number="1">
<syllabic>single</syllabic>
<text>que</text>
</lyric>
</note>
</measure>
<measure number="38">
<note>
<pitch>
<step>E</step>
<alter>-1</alter>
<octave>4</octave>
</pitch>
<duration>8</duration>
<type>eighth</type>
<stem>up</stem>
<beam number="1">begin</beam>
<lyric number="1">
<syllabic>single</syllabic>
<text>j'ai</text>
</lyric>
</note>
<note>
<pitch>
<step>E</step>
<alter>-1</alter>
<octave>4</octave>
</pitch>
<duration>8</duration>
<type>eighth</type>
<stem>up</stem>
<beam number="1">continue</beam>
<lyric number="1">
<syllabic>begin</syllabic>
<text>lais</text>
</lyric>
</note>
<note>
<pitch>
<step>E</step>
<alter>-1</alter>
<octave>4</octave>
</pitch>
<duration>8</duration>
<type>eighth</type>
<stem>up</stem>
<beam number="1">begin</beam>
<lyric number="1">
<syllabic>end</syllabic>
<text>sé</text>
</lyric>
</note>
<note>
<pitch>
<step>B</step>
<alter>-1</alter>
<octave>3</octave>
</pitch>
<duration>8</duration>
<type>eighth</type>
<stem>up</stem>
<beam number="1">continue</beam>
<lyric number="1">
<syllabic>single</syllabic>
<text>Dieu</text>
</lyric>
</note>
<note>
<pitch>
<step>B</step>
<alter>-1</alter>
<octave>3</octave>
</pitch>
<duration>8</duration>
<type>eighth</type>
<stem>up</stem>
<beam number="1">begin</beam>
<lyric number="1">
<syllabic>begin</syllabic>
<text>mar</text>
</lyric>
</note>
<note>
<pitch>
<step>B</step>
<alter>-1</alter>
<octave>3</octave>
</pitch>
<duration>8</duration>
<type>eighth</type>
<stem>up</stem>
<beam number="1">continue</beam>
<lyric number="1">
<syllabic>end</syllabic>
<text>cher</text>
</lyric>
</note>
<note>
<pitch>
<step>C</step>
<octave>4</octave>
</pitch>
<duration>8</duration>
<type>eighth</type>
<stem>up</stem>
<beam number="1">begin</beam>
<lyric number="1">
<syllabic>begin</syllabic>
<text>de</text>
</lyric>
</note>
<note>
<pitch>
<step>C</step>
<octave>4</octave>
</pitch>
<duration>8</duration>
<tie type="start"/>
<type>eighth</type>
<stem>up</stem>
<beam number="1">continue</beam>
<notations>
<tied type="start"/>
</notations>
<lyric number="1">
<syllabic>end</syllabic>
<text>vant.</text>
</lyric>
</note>
</measure>
<measure number="39">
<note>
<pitch>
<step>C</step>
<octave>4</octave>
</pitch>
<duration>16</duration>
<tie type="stop"/>
<type>quarter</type>
<notations>
<tied type="stop"/>
</notations>
</note>
<note>
<rest/>
<duration>16</duration>
<type>quarter</type>
</note>
<note>
<rest/>
<duration>8</duration>
<type>eighth</type>
</note>
<note>
<pitch>
<step>B</step>
<alter>-1</alter>
<octave>3</octave>
</pitch>
<duration>8</duration>
<type>eighth</type>
<lyric number="1">
<syllabic>begin</syllabic>
<text>De</text>
</lyric>
</note>
<note>
<pitch>
<step>B</step>
<alter>-1</alter>
<octave>3</octave>
</pitch>
<duration>8</duration>
<type>eighth</type>
<stem>up</stem>
<beam number="1">begin</beam>
<lyric number="1">
<syllabic>end</syllabic>
<text>puis</text>
</lyric>
</note>
<note>
<pitch>
<step>C</step>
<octave>4</octave>
</pitch>
<duration>8</duration>
<type>eighth</type>
<stem>up</stem>
<beam number="1">continue</beam>
<lyric number="1">
<syllabic>single</syllabic>
<text>que</text>
</lyric>
</note>
</measure>
<measure number="40">
<note>
<pitch>
<step>E</step>
<alter>-1</alter>
<octave>4</octave>
</pitch>
<duration>8</duration>
<type>eighth</type>
<stem>up</stem>
<beam number="1">begin</beam>
<lyric number="1">
<syllabic>single</syllabic>
<text>j'ai</text>
</lyric>
</note>
<note>
<pitch>
<step>E</step>
<alter>-1</alter>
<octave>4</octave>
</pitch>
<duration>8</duration>
<type>eighth</type>
<stem>up</stem>
<beam number="1">continue</beam>
<lyric number="1">
<syllabic>begin</syllabic>
<text>lais</text>
</lyric>
</note>
<note>
<pitch>
<step>E</step>
<alter>-1</alter>
<octave>4</octave>
</pitch>
<duration>8</duration>
<type>eighth</type>
<stem>up</stem>
<beam number="1">begin</beam>
<lyric number="1">
<syllabic>end</syllabic>
<text>sé</text>
</lyric>
</note>
<note>
<pitch>
<step>B</step>
<alter>-1</alter>
<octave>3</octave>
</pitch>
<duration>8</duration>
<type>eighth</type>
<stem>up</stem>
<beam number="1">continue</beam>
<lyric number="1">
<syllabic>single</syllabic>
<text>Dieu</text>
</lyric>
</note>
<note>
<pitch>
<step>B</step>
<alter>-1</alter>
<octave>3</octave>
</pitch>
<duration>8</duration>
<type>eighth</type>
<stem>up</stem>
<beam number="1">begin</beam>
<lyric number="1">
<syllabic>begin</syllabic>
<text>mar</text>
</lyric>
</note>
<note>
<pitch>
<step>B</step>
<alter>-1</alter>
<octave>3</octave>
</pitch>
<duration>8</duration>
<type>eighth</type>
<stem>up</stem>
<beam number="1">continue</beam>
<lyric number="1">
<syllabic>end</syllabic>
<text>cher</text>
</lyric>
</note>
<note>
<rest/>
<duration>16</duration>
<type>quarter</type>
</note>
</measure>
<measure number="41">
<note>
<rest/>
<duration>16</duration>
<type>quarter</type>
</note>
<note>
<pitch>
<step>C</step>
<octave>4</octave>
</pitch>
<duration>8</duration>
<type>eighth</type>
<stem>up</stem>
<beam number="1">begin</beam>
<lyric number="1">
<syllabic>begin</syllabic>
<text>de</text>
</lyric>
</note>
<note>
<pitch>
<step>C</step>
<octave>4</octave>
</pitch>
<duration>8</duration>
<type>eighth</type>
<stem>up</stem>
<beam number="1">continue</beam>
<lyric number="1">
<syllabic>end</syllabic>
<text>vant.</text>
</lyric>
</note>
<barline location="right">
<bar-style>light-heavy</bar-style>
<ending type="stop" number="2"/>
</barline>
</measure>
</part>
</score-partwise>
