<?xml version="1.0" encoding="UTF-8" standalone='no'?>
<!DOCTYPE score-partwise PUBLIC "-//Recordare//DTD MusicXML 1.0 Partwise//EN" "http://www.musicxml.org/dtds/partwise.dtd">
<score-partwise>
<work>
<work-title>Chut faisons silence</work-title>
</work>
<identification>
<creator type="transcriber">Bertha Martin</creator>
<rights>© 2008 Lilian Kovar</rights>
<encoding>
<software>Noteworthy Composer</software>
<encoding-date>2013-01-13</encoding-date>
</encoding>
</identification>
<part-list>
<score-part id="P1">
<part-name>Mélodie</part-name>
<score-instrument id="P1-I1">
<instrument-name>String Ensemble 1</instrument-name>
</score-instrument>
<midi-instrument id="P1-I1">
<midi-channel>1</midi-channel>
<midi-program>50</midi-program>
</midi-instrument>
</score-part>
</part-list>
<part id="P1">
<measure number="1">
<attributes>
<divisions>4</divisions>
</attributes>
<attributes>
<clef>
<sign>G</sign>
<line>2</line>
</clef>
</attributes>
<attributes>
<time>
<beats>4</beats>
<beat-type>4</beat-type>
</time>
</attributes>
<note>
<pitch>
<step>C</step>
<octave>4</octave>
</pitch>
<duration>4</duration>
<type>quarter</type>
<lyric number="1">
<syllabic>single</syllabic>
<text>1. Chut,</text>
</lyric>
<lyric number="2">
<syllabic>single</syllabic>
<text>2. Chut,</text>
</lyric>
<lyric number="3">
<syllabic>single</syllabic>
<text>3. Chut,</text>
</lyric>
<lyric number="4">
<syllabic>single</syllabic>
<text>(Avant l'histoire biblique) 4. Chut,</text>
</lyric>
<lyric number="5">
<syllabic>single</syllabic>
<text>(Avant de dormir) 5. Chut,</text>
</lyric>
</note>
<note>
<pitch>
<step>C</step>
<octave>4</octave>
</pitch>
<duration>4</duration>
<type>quarter</type>
<lyric number="1">
<syllabic>begin</syllabic>
<text>fai</text>
</lyric>
<lyric number="2">
<syllabic>begin</syllabic>
<text>fai</text>
</lyric>
<lyric number="3">
<syllabic>begin</syllabic>
<text>fai</text>
</lyric>
<lyric number="4">
<syllabic>begin</syllabic>
<text>fai</text>
</lyric>
<lyric number="5">
<syllabic>begin</syllabic>
<text>fai</text>
</lyric>
</note>
<note>
<pitch>
<step>E</step>
<octave>4</octave>
</pitch>
<duration>4</duration>
<type>quarter</type>
<lyric number="1">
<syllabic>end</syllabic>
<text>sons</text>
</lyric>
<lyric number="2">
<syllabic>end</syllabic>
<text>sons</text>
</lyric>
<lyric number="3">
<syllabic>end</syllabic>
<text>sons</text>
</lyric>
<lyric number="4">
<syllabic>end</syllabic>
<text>sons</text>
</lyric>
<lyric number="5">
<syllabic>end</syllabic>
<text>sons</text>
</lyric>
</note>
<note>
<pitch>
<step>E</step>
<octave>4</octave>
</pitch>
<duration>4</duration>
<type>quarter</type>
<lyric number="1">
<syllabic>begin</syllabic>
<text>si</text>
</lyric>
<lyric number="2">
<syllabic>begin</syllabic>
<text>si</text>
</lyric>
<lyric number="3">
<syllabic>begin</syllabic>
<text>si</text>
</lyric>
<lyric number="4">
<syllabic>begin</syllabic>
<text>si</text>
</lyric>
<lyric number="5">
<syllabic>begin</syllabic>
<text>si</text>
</lyric>
</note>
</measure>
<measure number="2">
<note>
<pitch>
<step>G</step>
<octave>4</octave>
</pitch>
<duration>8</duration>
<type>half</type>
<lyric number="1">
<syllabic>middle</syllabic>
<text>le</text>
</lyric>
<lyric number="2">
<syllabic>middle</syllabic>
<text>len</text>
</lyric>
<lyric number="3">
<syllabic>middle</syllabic>
<text>len</text>
</lyric>
<lyric number="4">
<syllabic>middle</syllabic>
<text>len</text>
</lyric>
<lyric number="5">
<syllabic>middle</syllabic>
<text>len</text>
</lyric>
</note>
<note>
<pitch>
<step>G</step>
<octave>4</octave>
</pitch>
<duration>8</duration>
<type>half</type>
<lyric number="1">
<syllabic>end</syllabic>
<text>nce,</text>
</lyric>
<lyric number="2">
<syllabic>end</syllabic>
<text>ce,</text>
</lyric>
<lyric number="3">
<syllabic>end</syllabic>
<text>ce,</text>
</lyric>
<lyric number="4">
<syllabic>end</syllabic>
<text>ce,</text>
</lyric>
<lyric number="5">
<syllabic>end</syllabic>
<text>ce</text>
</lyric>
</note>
</measure>
<measure number="3">
<note>
<pitch>
<step>A</step>
<octave>4</octave>
</pitch>
<duration>4</duration>
<type>quarter</type>
<lyric number="1">
<syllabic>single</syllabic>
<text>nous</text>
</lyric>
<lyric number="2">
<syllabic>single</syllabic>
<text>nous</text>
</lyric>
<lyric number="3">
<syllabic>single</syllabic>
<text>nous</text>
</lyric>
<lyric number="4">
<syllabic>single</syllabic>
<text>pour</text>
</lyric>
<lyric number="5">
<syllabic>single</syllabic>
<text>et</text>
</lyric>
</note>
<note>
<pitch>
<step>C</step>
<octave>5</octave>
</pitch>
<duration>4</duration>
<type>quarter</type>
<lyric number="1">
<syllabic>begin</syllabic>
<text>al</text>
</lyric>
<lyric number="2">
<syllabic>begin</syllabic>
<text>al</text>
</lyric>
<lyric number="3">
<syllabic>begin</syllabic>
<text>al</text>
</lyric>
<lyric number="4">
<syllabic>single</syllabic>
<text>bien</text>
</lyric>
<lyric number="5">
<syllabic>begin</syllabic>
<text>dor</text>
</lyric>
</note>
<note>
<pitch>
<step>B</step>
<octave>4</octave>
</pitch>
<duration>4</duration>
<type>quarter</type>
<lyric number="1">
<syllabic>end</syllabic>
<text>lons</text>
</lyric>
<lyric number="2">
<syllabic>end</syllabic>
<text>lons</text>
</lyric>
<lyric number="3">
<syllabic>end</syllabic>
<text>lons</text>
</lyric>
<lyric number="4">
<syllabic>begin</syllabic>
<text>é</text>
</lyric>
<lyric number="5">
<syllabic>end</syllabic>
<text>mons</text>
</lyric>
</note>
<note>
<pitch>
<step>A</step>
<octave>4</octave>
</pitch>
<duration>4</duration>
<type>quarter</type>
<lyric number="1">
<syllabic>begin</syllabic>
<text>pri</text>
</lyric>
<lyric number="2">
<syllabic>begin</syllabic>
<text>pri</text>
</lyric>
<lyric number="3">
<syllabic>begin</syllabic>
<text>pri</text>
</lyric>
<lyric number="4">
<syllabic>middle</syllabic>
<text>cou</text>
</lyric>
<lyric number="5">
<syllabic>single</syllabic>
<text>en</text>
</lyric>
</note>
</measure>
<measure number="4">
<note>
<pitch>
<step>G</step>
<octave>4</octave>
</pitch>
<duration>12</duration>
<type>half</type>
<dot/>
<lyric number="1">
<syllabic>end</syllabic>
<text>er.</text>
</lyric>
<lyric number="2">
<syllabic>end</syllabic>
<text>er.</text>
</lyric>
<lyric number="3">
<syllabic>end</syllabic>
<text>er</text>
</lyric>
<lyric number="4">
<syllabic>end</syllabic>
<text>ter</text>
</lyric>
<lyric number="5">
<syllabic>single</syllabic>
<text>paix,</text>
</lyric>
</note>
<note>
<rest/>
<duration>4</duration>
<type>quarter</type>
</note>
</measure>
<measure number="5">
<note>
<pitch>
<step>A</step>
<octave>4</octave>
</pitch>
<duration>4</duration>
<type>quarter</type>
<lyric number="1">
<syllabic>begin</syllabic>
<text>Par</text>
</lyric>
<lyric number="2">
<syllabic>begin</syllabic>
<text>Met</text>
</lyric>
<lyric number="3">
<syllabic>single</syllabic>
<text>Et</text>
</lyric>
<lyric number="4">
<syllabic>single</syllabic>
<text>La</text>
</lyric>
<lyric number="5">
<syllabic>single</syllabic>
<text>Dieu</text>
</lyric>
</note>
<note>
<pitch>
<step>C</step>
<octave>5</octave>
</pitch>
<duration>4</duration>
<type>quarter</type>
<lyric number="1">
<syllabic>end</syllabic>
<text>lons</text>
</lyric>
<lyric number="2">
<syllabic>middle</syllabic>
<text>tons</text>
</lyric>
<lyric number="3">
<syllabic>single</syllabic>
<text>que</text>
</lyric>
<lyric number="4">
<syllabic>begin</syllabic>
<text>nou</text>
</lyric>
<lyric number="5">
<syllabic>single</syllabic>
<text>nous</text>
</lyric>
</note>
<note>
<pitch>
<step>B</step>
<octave>4</octave>
</pitch>
<duration>4</duration>
<type>quarter</type>
<lyric number="1">
<syllabic>single</syllabic>
<text>à</text>
</lyric>
<lyric number="2">
<syllabic>end</syllabic>
<text>nous</text>
</lyric>
<lyric number="3">
<syllabic>begin</syllabic>
<text>cha</text>
</lyric>
<lyric number="4">
<syllabic>end</syllabic>
<text>velle</text>
</lyric>
<lyric number="5">
<syllabic>begin</syllabic>
<text>gar</text>
</lyric>
</note>
<note>
<pitch>
<step>A</step>
<octave>4</octave>
</pitch>
<duration>4</duration>
<type>quarter</type>
<lyric number="1">
<syllabic>begin</syllabic>
<text>Jé</text>
</lyric>
<lyric number="2">
<syllabic>single</syllabic>
<text>tous</text>
</lyric>
<lyric number="3">
<syllabic>end</syllabic>
<text>cun</text>
</lyric>
<lyric number="4">
<syllabic>begin</syllabic>
<text>his</text>
</lyric>
<lyric number="5">
<syllabic>end</syllabic>
<text>de</text>
</lyric>
</note>
</measure>
<measure number="6">
<note>
<pitch>
<step>G</step>
<octave>4</octave>
</pitch>
<duration>4</duration>
<type>quarter</type>
<lyric number="1">
<syllabic>end</syllabic>
<text>sus</text>
</lyric>
<lyric number="2">
<syllabic>single</syllabic>
<text>à</text>
</lyric>
<lyric number="3">
<syllabic>single</syllabic>
<text>dise</text>
</lyric>
<lyric number="4">
<syllabic>middle</syllabic>
<text>toi</text>
</lyric>
<lyric number="5">
<syllabic>single</syllabic>
<text>dans</text>
</lyric>
</note>
<note>
<pitch>
<step>E</step>
<octave>4</octave>
</pitch>
<duration>4</duration>
<type>quarter</type>
<lyric number="1">
<syllabic>single</syllabic>
<text>car</text>
</lyric>
<lyric number="2">
<syllabic>begin</syllabic>
<text>ge</text>
</lyric>
<lyric number="3">
<syllabic>single</syllabic>
<text>à</text>
</lyric>
<lyric number="4">
<syllabic>end</syllabic>
<text>re</text>
</lyric>
<lyric number="5">
<syllabic>single</syllabic>
<text>sa</text>
</lyric>
</note>
<note>
<pitch>
<step>C</step>
<octave>4</octave>
</pitch>
<duration>4</duration>
<type>quarter</type>
<lyric number="1">
<syllabic>single</syllabic>
<text>il</text>
</lyric>
<lyric number="2">
<syllabic>end</syllabic>
<text>noux</text>
</lyric>
<lyric number="3">
<syllabic>single</syllabic>
<text>Dieu</text>
</lyric>
<lyric number="4">
<syllabic>single</syllabic>
<text>que</text>
</lyric>
<lyric number="5">
<syllabic>single</syllabic>
<text>main</text>
</lyric>
</note>
<note>
<pitch>
<step>D</step>
<octave>4</octave>
</pitch>
<duration>4</duration>
<type>quarter</type>
<lyric number="1">
<syllabic>single</syllabic>
<text>nous</text>
</lyric>
<lyric number="2">
<syllabic>single</syllabic>
<text>et</text>
</lyric>
<lyric number="3">
<syllabic>single</syllabic>
<text>ce</text>
</lyric>
<lyric number="4">
<syllabic>single</syllabic>
<text>l'on</text>
</lyric>
<lyric number="5">
<syllabic>begin</syllabic>
<text>jus</text>
</lyric>
</note>
</measure>
<measure number="7">
<note>
<pitch>
<step>E</step>
<octave>4</octave>
</pitch>
<duration>4</duration>
<type>quarter</type>
<lyric number="1">
<syllabic>single</syllabic>
<text>aime</text>
</lyric>
<lyric number="2">
<syllabic>begin</syllabic>
<text>fer</text>
</lyric>
<lyric number="3">
<syllabic>single</syllabic>
<text>qu'il</text>
</lyric>
<lyric number="4">
<syllabic>single</syllabic>
<text>va</text>
</lyric>
<lyric number="5">
<syllabic>end</syllabic>
<text>qu'à</text>
</lyric>
</note>
<note>
<pitch>
<step>G</step>
<octave>4</octave>
</pitch>
<duration>4</duration>
<type>quarter</type>
<lyric number="1">
<syllabic>single</syllabic>
<text>et</text>
</lyric>
<lyric number="2">
<syllabic>end</syllabic>
<text>mons</text>
</lyric>
<lyric number="3">
<syllabic>single</syllabic>
<text>a</text>
</lyric>
<lyric number="4">
<syllabic>single</syllabic>
<text>nous</text>
</lyric>
<lyric number="5">
<syllabic>begin</syllabic>
<text>de</text>
</lyric>
</note>
<note>
<pitch>
<step>E</step>
<octave>4</octave>
</pitch>
<duration>4</duration>
<type>quarter</type>
<lyric number="1">
<syllabic>single</syllabic>
<text>nous</text>
</lyric>
<lyric number="2">
<syllabic>single</syllabic>
<text>bien</text>
</lyric>
<lyric number="3">
<syllabic>single</syllabic>
<text>dans</text>
</lyric>
<lyric number="4">
<syllabic>begin</syllabic>
<text>ra</text>
</lyric>
<lyric number="5">
<syllabic>end</syllabic>
<text>main</text>
</lyric>
</note>
<note>
<pitch>
<step>D</step>
<octave>4</octave>
</pitch>
<duration>4</duration>
<type>quarter</type>
<lyric number="1">
<syllabic>begin</syllabic>
<text>en</text>
</lyric>
<lyric number="2">
<syllabic>single</syllabic>
<text>les</text>
</lyric>
<lyric number="3">
<syllabic>single</syllabic>
<text>son</text>
</lyric>
<lyric number="4">
<syllabic>middle</syllabic>
<text>con</text>
</lyric>
<lyric number="5">
<syllabic>begin</syllabic>
<text>ma</text>
</lyric>
</note>
</measure>
<measure number="8">
<note>
<pitch>
<step>C</step>
<octave>4</octave>
</pitch>
<duration>12</duration>
<type>half</type>
<dot/>
<lyric number="1">
<syllabic>end</syllabic>
<text>tend.</text>
</lyric>
<lyric number="2">
<syllabic>single</syllabic>
<text>yeux.</text>
</lyric>
<lyric number="3">
<syllabic>single</syllabic>
<text>cœur.</text>
</lyric>
<lyric number="4">
<syllabic>end</syllabic>
<text>ter.</text>
</lyric>
<lyric number="5">
<syllabic>end</syllabic>
<text>tin.</text>
</lyric>
</note>
<note>
<rest/>
<duration>4</duration>
<type>quarter</type>
</note>
<barline location="right">
<bar-style>light-heavy</bar-style>
<repeat direction="backward" times="5"/>
</barline>
<barline location="right">
<bar-style>light-heavy</bar-style>
</barline>
</measure>
</part>
</score-partwise>
