<?xml version="1.0" encoding="UTF-8" standalone='no'?>
<!DOCTYPE score-partwise PUBLIC "-//Recordare//DTD MusicXML 1.0 Partwise//EN" "http://www.musicxml.org/dtds/partwise.dtd">
<score-partwise>
<work>
<work-title>Dieu tu es grand</work-title>
</work>
<identification>
<creator type="transcriber">Line et Sylvain Freymond</creator>
<rights>© 1991 Sylvain Freymond</rights>
<encoding>
<software>Noteworthy Composer</software>
<encoding-date>2013-01-02</encoding-date>
</encoding>
</identification>
<part-list>
<score-part id="P1">
<part-name>Mélodie</part-name>
<score-instrument id="P1-I1">
<instrument-name>String Ensemble 1</instrument-name>
</score-instrument>
<midi-instrument id="P1-I1">
<midi-channel>1</midi-channel>
<midi-program>50</midi-program>
</midi-instrument>
</score-part>
</part-list>
<part id="P1">
<measure number="1">
<attributes>
<divisions>8</divisions>
</attributes>
<attributes>
<clef>
<sign>G</sign>
<line>2</line>
</clef>
</attributes>
<attributes>
<key>
<fifths>2</fifths>
</key>
</attributes>
<attributes>
<time>
<beats>3</beats>
<beat-type>4</beat-type>
</time>
</attributes>
<note>
<pitch>
<step>D</step>
<octave>4</octave>
</pitch>
<duration>8</duration>
<type>quarter</type>
<lyric number="1">
<syllabic>single</syllabic>
<text>Dieu</text>
</lyric>
</note>
<note>
<pitch>
<step>F</step>
<alter>1</alter>
<octave>4</octave>
</pitch>
<duration>8</duration>
<type>quarter</type>
<lyric number="1">
<syllabic>single</syllabic>
<text>tu</text>
</lyric>
</note>
<note>
<pitch>
<step>A</step>
<octave>4</octave>
</pitch>
<duration>8</duration>
<type>quarter</type>
<lyric number="1">
<syllabic>single</syllabic>
<text>es</text>
</lyric>
</note>
</measure>
<measure number="2">
<note>
<pitch>
<step>B</step>
<octave>4</octave>
</pitch>
<duration>16</duration>
<type>half</type>
<lyric number="1">
<syllabic>single</syllabic>
<text>grand,</text>
</lyric>
</note>
<note>
<pitch>
<step>B</step>
<octave>4</octave>
</pitch>
<duration>4</duration>
<type>eighth</type>
<lyric number="1">
<syllabic>single</syllabic>
<text>tu</text>
</lyric>
</note>
<note>
<pitch>
<step>B</step>
<octave>4</octave>
</pitch>
<duration>4</duration>
<type>eighth</type>
<lyric number="1">
<syllabic>single</syllabic>
<text>es</text>
</lyric>
</note>
</measure>
<measure number="3">
<note>
<pitch>
<step>A</step>
<octave>4</octave>
</pitch>
<duration>8</duration>
<type>quarter</type>
<lyric number="1">
<syllabic>single</syllabic>
<text>bien</text>
</lyric>
</note>
<note>
<pitch>
<step>A</step>
<octave>4</octave>
</pitch>
<duration>8</duration>
<type>quarter</type>
<lyric number="1">
<syllabic>single</syllabic>
<text>plus</text>
</lyric>
</note>
<note>
<pitch>
<step>G</step>
<octave>4</octave>
</pitch>
<duration>8</duration>
<type>quarter</type>
<lyric number="1">
<syllabic>single</syllabic>
<text>grand</text>
</lyric>
</note>
</measure>
<measure number="4">
<note>
<pitch>
<step>F</step>
<alter>1</alter>
<octave>4</octave>
</pitch>
<duration>8</duration>
<type>quarter</type>
<lyric number="1">
<syllabic>single</syllabic>
<text>que</text>
</lyric>
</note>
<note>
<pitch>
<step>F</step>
<alter>1</alter>
<octave>4</octave>
</pitch>
<duration>8</duration>
<type>quarter</type>
<lyric number="1">
<syllabic>single</syllabic>
<text>mon</text>
</lyric>
</note>
<note>
<pitch>
<step>E</step>
<octave>4</octave>
</pitch>
<duration>8</duration>
<type>quarter</type>
<lyric number="1">
<syllabic>begin</syllabic>
<text>pa</text>
</lyric>
</note>
</measure>
<measure number="5">
<note>
<pitch>
<step>D</step>
<octave>4</octave>
</pitch>
<duration>24</duration>
<type>half</type>
<dot/>
<lyric number="1">
<syllabic>end</syllabic>
<text>pa.</text>
</lyric>
</note>
</measure>
<measure number="6">
<note>
<pitch>
<step>D</step>
<octave>4</octave>
</pitch>
<duration>8</duration>
<type>quarter</type>
<lyric number="1">
<syllabic>single</syllabic>
<text>Dieu</text>
</lyric>
</note>
<note>
<pitch>
<step>F</step>
<alter>1</alter>
<octave>4</octave>
</pitch>
<duration>8</duration>
<type>quarter</type>
<lyric number="1">
<syllabic>single</syllabic>
<text>tu</text>
</lyric>
</note>
<note>
<pitch>
<step>A</step>
<octave>4</octave>
</pitch>
<duration>8</duration>
<type>quarter</type>
<lyric number="1">
<syllabic>single</syllabic>
<text>es</text>
</lyric>
</note>
</measure>
<measure number="7">
<note>
<pitch>
<step>B</step>
<octave>4</octave>
</pitch>
<duration>16</duration>
<type>half</type>
<lyric number="1">
<syllabic>single</syllabic>
<text>grand,</text>
</lyric>
</note>
<note>
<pitch>
<step>B</step>
<octave>4</octave>
</pitch>
<duration>4</duration>
<type>eighth</type>
<lyric number="1">
<syllabic>single</syllabic>
<text>tu</text>
</lyric>
</note>
<note>
<pitch>
<step>B</step>
<octave>4</octave>
</pitch>
<duration>4</duration>
<type>eighth</type>
<lyric number="1">
<syllabic>single</syllabic>
<text>es</text>
</lyric>
</note>
</measure>
<measure number="8">
<note>
<pitch>
<step>B</step>
<octave>4</octave>
</pitch>
<duration>8</duration>
<type>quarter</type>
<lyric number="1">
<syllabic>single</syllabic>
<text>même</text>
</lyric>
</note>
<note>
<pitch>
<step>C</step>
<alter>1</alter>
<octave>5</octave>
</pitch>
<duration>8</duration>
<type>quarter</type>
<lyric number="1">
<syllabic>single</syllabic>
<text>plus</text>
</lyric>
</note>
<note>
<pitch>
<step>D</step>
<octave>5</octave>
</pitch>
<duration>8</duration>
<type>quarter</type>
<lyric number="1">
<syllabic>single</syllabic>
<text>grand</text>
</lyric>
</note>
</measure>
<measure number="9">
<note>
<pitch>
<step>D</step>
<octave>5</octave>
</pitch>
<duration>8</duration>
<type>quarter</type>
<lyric number="1">
<syllabic>single</syllabic>
<text>que</text>
</lyric>
</note>
<note>
<pitch>
<step>C</step>
<alter>1</alter>
<octave>5</octave>
</pitch>
<duration>8</duration>
<type>quarter</type>
<lyric number="1">
<syllabic>single</syllabic>
<text>les</text>
</lyric>
</note>
<note>
<pitch>
<step>B</step>
<octave>4</octave>
</pitch>
<duration>8</duration>
<type>quarter</type>
<lyric number="1">
<syllabic>begin</syllabic>
<text>mon</text>
</lyric>
</note>
</measure>
<measure number="10">
<note>
<pitch>
<step>C</step>
<alter>1</alter>
<octave>5</octave>
</pitch>
<duration>24</duration>
<type>half</type>
<dot/>
<lyric number="1">
<syllabic>end</syllabic>
<text>tagnes.</text>
</lyric>
</note>
</measure>
<measure number="11">
<note>
<pitch>
<step>D</step>
<octave>4</octave>
</pitch>
<duration>8</duration>
<type>quarter</type>
<lyric number="1">
<syllabic>single</syllabic>
<text>Dieu</text>
</lyric>
</note>
<note>
<pitch>
<step>F</step>
<alter>1</alter>
<octave>4</octave>
</pitch>
<duration>8</duration>
<type>quarter</type>
<lyric number="1">
<syllabic>single</syllabic>
<text>tu</text>
</lyric>
</note>
<note>
<pitch>
<step>A</step>
<octave>4</octave>
</pitch>
<duration>8</duration>
<type>quarter</type>
<lyric number="1">
<syllabic>single</syllabic>
<text>es</text>
</lyric>
</note>
</measure>
<measure number="12">
<note>
<pitch>
<step>B</step>
<octave>4</octave>
</pitch>
<duration>16</duration>
<type>half</type>
<lyric number="1">
<syllabic>single</syllabic>
<text>grand,</text>
</lyric>
</note>
<note>
<pitch>
<step>B</step>
<octave>4</octave>
</pitch>
<duration>4</duration>
<type>eighth</type>
<lyric number="1">
<syllabic>single</syllabic>
<text>tu</text>
</lyric>
</note>
<note>
<pitch>
<step>B</step>
<octave>4</octave>
</pitch>
<duration>4</duration>
<type>eighth</type>
<lyric number="1">
<syllabic>single</syllabic>
<text>es</text>
</lyric>
</note>
</measure>
<measure number="13">
<note>
<pitch>
<step>A</step>
<octave>4</octave>
</pitch>
<duration>8</duration>
<type>quarter</type>
<lyric number="1">
<syllabic>single</syllabic>
<text>bien</text>
</lyric>
</note>
<note>
<pitch>
<step>A</step>
<octave>4</octave>
</pitch>
<duration>8</duration>
<type>quarter</type>
<lyric number="1">
<syllabic>single</syllabic>
<text>plus</text>
</lyric>
</note>
<note>
<pitch>
<step>G</step>
<octave>4</octave>
</pitch>
<duration>8</duration>
<type>quarter</type>
<lyric number="1">
<syllabic>single</syllabic>
<text>grand</text>
</lyric>
</note>
</measure>
<measure number="14">
<note>
<pitch>
<step>F</step>
<alter>1</alter>
<octave>4</octave>
</pitch>
<duration>16</duration>
<type>half</type>
<lyric number="1">
<syllabic>single</syllabic>
<text>qu'un</text>
</lyric>
</note>
<note>
<pitch>
<step>E</step>
<octave>4</octave>
</pitch>
<duration>8</duration>
<type>quarter</type>
<lyric number="1">
<syllabic>begin</syllabic>
<text>gé</text>
</lyric>
</note>
</measure>
<measure number="15">
<note>
<pitch>
<step>D</step>
<octave>4</octave>
</pitch>
<duration>24</duration>
<type>half</type>
<dot/>
<lyric number="1">
<syllabic>end</syllabic>
<text>ant.</text>
</lyric>
</note>
</measure>
<measure number="16">
<note>
<pitch>
<step>D</step>
<octave>4</octave>
</pitch>
<duration>8</duration>
<type>quarter</type>
<lyric number="1">
<syllabic>single</syllabic>
<text>Dieu</text>
</lyric>
</note>
<note>
<pitch>
<step>F</step>
<alter>1</alter>
<octave>4</octave>
</pitch>
<duration>8</duration>
<type>quarter</type>
<lyric number="1">
<syllabic>single</syllabic>
<text>tu</text>
</lyric>
</note>
<note>
<pitch>
<step>A</step>
<octave>4</octave>
</pitch>
<duration>8</duration>
<type>quarter</type>
<lyric number="1">
<syllabic>single</syllabic>
<text>es</text>
</lyric>
</note>
</measure>
<measure number="17">
<note>
<pitch>
<step>B</step>
<octave>4</octave>
</pitch>
<duration>16</duration>
<type>half</type>
<lyric number="1">
<syllabic>single</syllabic>
<text>grand</text>
</lyric>
</note>
<note>
<pitch>
<step>B</step>
<octave>4</octave>
</pitch>
<duration>4</duration>
<type>eighth</type>
<lyric number="1">
<syllabic>single</syllabic>
<text>et</text>
</lyric>
</note>
<note>
<pitch>
<step>A</step>
<octave>4</octave>
</pitch>
<duration>4</duration>
<type>eighth</type>
<lyric number="1">
<syllabic>single</syllabic>
<text>je</text>
</lyric>
</note>
</measure>
<measure number="18">
<note>
<pitch>
<step>G</step>
<octave>4</octave>
</pitch>
<duration>8</duration>
<type>quarter</type>
<lyric number="1">
<syllabic>single</syllabic>
<text>veux</text>
</lyric>
</note>
<note>
<pitch>
<step>F</step>
<alter>1</alter>
<octave>4</octave>
</pitch>
<duration>8</duration>
<type>quarter</type>
<lyric number="1">
<syllabic>single</syllabic>
<text>te</text>
</lyric>
</note>
<note>
<pitch>
<step>E</step>
<octave>4</octave>
</pitch>
<duration>8</duration>
<type>quarter</type>
<lyric number="1">
<syllabic>begin</syllabic>
<text>lou</text>
</lyric>
</note>
</measure>
<measure number="19">
<note>
<pitch>
<step>D</step>
<octave>4</octave>
</pitch>
<duration>24</duration>
<tie type="start"/>
<type>half</type>
<dot/>
<notations>
<tied type="start"/>
</notations>
<lyric number="1">
<syllabic>end</syllabic>
<text>er.</text>
</lyric>
</note>
</measure>
<measure number="20">
<note>
<pitch>
<step>D</step>
<octave>4</octave>
</pitch>
<duration>24</duration>
<tie type="stop"/>
<type>half</type>
<dot/>
<notations>
<tied type="stop"/>
</notations>
</note>
<barline location="right">
<bar-style>light-heavy</bar-style>
</barline>
</measure>
</part>
</score-partwise>
